%TF.GenerationSoftware,KiCad,Pcbnew,9.0.8-9.0.8~ubuntu24.04.1*%
%TF.CreationDate,2026-04-24T13:10:49-07:00*%
%TF.ProjectId,barn-blinds-controller,6261726e-2d62-46c6-996e-64732d636f6e,rev?*%
%TF.SameCoordinates,Original*%
%TF.FileFunction,Drillmap*%
%TF.FilePolarity,Positive*%
%FSLAX45Y45*%
G04 Gerber Fmt 4.5, Leading zero omitted, Abs format (unit mm)*
G04 Created by KiCad (PCBNEW 9.0.8-9.0.8~ubuntu24.04.1) date 2026-04-24 13:10:49*
%MOMM*%
%LPD*%
G01*
G04 APERTURE LIST*
%ADD10C,0.050000*%
%ADD11C,0.200000*%
%ADD12C,0.100000*%
%ADD13C,0.130000*%
%ADD14C,0.320000*%
G04 APERTURE END LIST*
D10*
X7700000Y-5200000D02*
G75*
G02*
X8000000Y-4900000I300000J0D01*
G01*
X7700000Y-10600000D02*
X7700000Y-5200000D01*
X8000000Y-4900000D02*
X13900000Y-4900000D01*
X8000000Y-10900000D02*
G75*
G02*
X7700000Y-10600000I0J300000D01*
G01*
X13900000Y-4900000D02*
G75*
G02*
X14200000Y-5200000I0J-300000D01*
G01*
X13900000Y-10900000D02*
X8000000Y-10900000D01*
X14200000Y-5200000D02*
X14200000Y-10600000D01*
X14200000Y-10600000D02*
G75*
G02*
X13900000Y-10900000I-300000J0D01*
G01*
D11*
D12*
X10770000Y-6026500D02*
X10790000Y-6046500D01*
X10790000Y-6026500D02*
X10770000Y-6046500D01*
X10770000Y-6663000D02*
X10790000Y-6683000D01*
X10790000Y-6663000D02*
X10770000Y-6683000D01*
X10770000Y-7326500D02*
X10790000Y-7346500D01*
X10790000Y-7326500D02*
X10770000Y-7346500D01*
X10770000Y-7453500D02*
X10790000Y-7473500D01*
X10790000Y-7453500D02*
X10770000Y-7473500D01*
X10770000Y-7517000D02*
X10790000Y-7537000D01*
X10790000Y-7517000D02*
X10770000Y-7537000D01*
X11290000Y-6026500D02*
X11310000Y-6046500D01*
X11310000Y-6026500D02*
X11290000Y-6046500D01*
X11290000Y-6663000D02*
X11310000Y-6683000D01*
X11310000Y-6663000D02*
X11290000Y-6683000D01*
X11290000Y-7326500D02*
X11310000Y-7346500D01*
X11310000Y-7326500D02*
X11290000Y-7346500D01*
X11897500Y-6194595D02*
X11917500Y-6214595D01*
X11917500Y-6194595D02*
X11897500Y-6214595D01*
X11897500Y-7089595D02*
X11917500Y-7109595D01*
X11917500Y-7089595D02*
X11897500Y-7109595D01*
X12092500Y-6194595D02*
X12112500Y-6214595D01*
X12112500Y-6194595D02*
X12092500Y-6214595D01*
X12092500Y-7090000D02*
X12112500Y-7110000D01*
X12112500Y-7090000D02*
X12092500Y-7110000D01*
X12191512Y-6059595D02*
X12211512Y-6079595D01*
X12211512Y-6059595D02*
X12191512Y-6079595D01*
X12222500Y-7089595D02*
X12242500Y-7109595D01*
X12242500Y-7089595D02*
X12222500Y-7109595D01*
X12407500Y-5990000D02*
X12427500Y-6010000D01*
X12427500Y-5990000D02*
X12407500Y-6010000D01*
X12417500Y-6194595D02*
X12437500Y-6214595D01*
X12437500Y-6194595D02*
X12417500Y-6214595D01*
X12417500Y-7089595D02*
X12437500Y-7109595D01*
X12437500Y-7089595D02*
X12417500Y-7109595D01*
X7972154Y-6691297D02*
G75*
G02*
X7942154Y-6691297I-15000J0D01*
G01*
X7942154Y-6691297D02*
G75*
G02*
X7972154Y-6691297I15000J0D01*
G01*
X7972154Y-6856297D02*
G75*
G02*
X7942154Y-6856297I-15000J0D01*
G01*
X7942154Y-6856297D02*
G75*
G02*
X7972154Y-6856297I15000J0D01*
G01*
X8115000Y-5700000D02*
G75*
G02*
X8085000Y-5700000I-15000J0D01*
G01*
X8085000Y-5700000D02*
G75*
G02*
X8115000Y-5700000I15000J0D01*
G01*
X8115000Y-6200000D02*
G75*
G02*
X8085000Y-6200000I-15000J0D01*
G01*
X8085000Y-6200000D02*
G75*
G02*
X8115000Y-6200000I15000J0D01*
G01*
X8115000Y-8200000D02*
G75*
G02*
X8085000Y-8200000I-15000J0D01*
G01*
X8085000Y-8200000D02*
G75*
G02*
X8115000Y-8200000I15000J0D01*
G01*
X8115000Y-9500000D02*
G75*
G02*
X8085000Y-9500000I-15000J0D01*
G01*
X8085000Y-9500000D02*
G75*
G02*
X8115000Y-9500000I15000J0D01*
G01*
X8480655Y-7747671D02*
G75*
G02*
X8450655Y-7747671I-15000J0D01*
G01*
X8450655Y-7747671D02*
G75*
G02*
X8480655Y-7747671I15000J0D01*
G01*
X8515000Y-8600000D02*
G75*
G02*
X8485000Y-8600000I-15000J0D01*
G01*
X8485000Y-8600000D02*
G75*
G02*
X8515000Y-8600000I15000J0D01*
G01*
X8515000Y-10300000D02*
G75*
G02*
X8485000Y-10300000I-15000J0D01*
G01*
X8485000Y-10300000D02*
G75*
G02*
X8515000Y-10300000I15000J0D01*
G01*
X8540000Y-5851000D02*
G75*
G02*
X8510000Y-5851000I-15000J0D01*
G01*
X8510000Y-5851000D02*
G75*
G02*
X8540000Y-5851000I15000J0D01*
G01*
X8815000Y-9500000D02*
G75*
G02*
X8785000Y-9500000I-15000J0D01*
G01*
X8785000Y-9500000D02*
G75*
G02*
X8815000Y-9500000I15000J0D01*
G01*
X8815000Y-10000000D02*
G75*
G02*
X8785000Y-10000000I-15000J0D01*
G01*
X8785000Y-10000000D02*
G75*
G02*
X8815000Y-10000000I15000J0D01*
G01*
X8815724Y-6000000D02*
G75*
G02*
X8785724Y-6000000I-15000J0D01*
G01*
X8785724Y-6000000D02*
G75*
G02*
X8815724Y-6000000I15000J0D01*
G01*
X8915000Y-9100000D02*
G75*
G02*
X8885000Y-9100000I-15000J0D01*
G01*
X8885000Y-9100000D02*
G75*
G02*
X8915000Y-9100000I15000J0D01*
G01*
X8920000Y-7800000D02*
G75*
G02*
X8890000Y-7800000I-15000J0D01*
G01*
X8890000Y-7800000D02*
G75*
G02*
X8920000Y-7800000I15000J0D01*
G01*
X8920000Y-8112500D02*
G75*
G02*
X8890000Y-8112500I-15000J0D01*
G01*
X8890000Y-8112500D02*
G75*
G02*
X8920000Y-8112500I15000J0D01*
G01*
X8937500Y-8400000D02*
G75*
G02*
X8907500Y-8400000I-15000J0D01*
G01*
X8907500Y-8400000D02*
G75*
G02*
X8937500Y-8400000I15000J0D01*
G01*
X8937500Y-8700000D02*
G75*
G02*
X8907500Y-8700000I-15000J0D01*
G01*
X8907500Y-8700000D02*
G75*
G02*
X8937500Y-8700000I15000J0D01*
G01*
X8970724Y-6000000D02*
G75*
G02*
X8940724Y-6000000I-15000J0D01*
G01*
X8940724Y-6000000D02*
G75*
G02*
X8970724Y-6000000I15000J0D01*
G01*
X9021250Y-9495000D02*
G75*
G02*
X8991250Y-9495000I-15000J0D01*
G01*
X8991250Y-9495000D02*
G75*
G02*
X9021250Y-9495000I15000J0D01*
G01*
X9092500Y-8400000D02*
G75*
G02*
X9062500Y-8400000I-15000J0D01*
G01*
X9062500Y-8400000D02*
G75*
G02*
X9092500Y-8400000I15000J0D01*
G01*
X9110000Y-7800000D02*
G75*
G02*
X9080000Y-7800000I-15000J0D01*
G01*
X9080000Y-7800000D02*
G75*
G02*
X9110000Y-7800000I15000J0D01*
G01*
X9110000Y-8112500D02*
G75*
G02*
X9080000Y-8112500I-15000J0D01*
G01*
X9080000Y-8112500D02*
G75*
G02*
X9110000Y-8112500I15000J0D01*
G01*
X9115000Y-7000000D02*
G75*
G02*
X9085000Y-7000000I-15000J0D01*
G01*
X9085000Y-7000000D02*
G75*
G02*
X9115000Y-7000000I15000J0D01*
G01*
X9115000Y-10300000D02*
G75*
G02*
X9085000Y-10300000I-15000J0D01*
G01*
X9085000Y-10300000D02*
G75*
G02*
X9115000Y-10300000I15000J0D01*
G01*
X9132500Y-6000000D02*
G75*
G02*
X9102500Y-6000000I-15000J0D01*
G01*
X9102500Y-6000000D02*
G75*
G02*
X9132500Y-6000000I15000J0D01*
G01*
X9297500Y-6000000D02*
G75*
G02*
X9267500Y-6000000I-15000J0D01*
G01*
X9267500Y-6000000D02*
G75*
G02*
X9297500Y-6000000I15000J0D01*
G01*
X9315000Y-8100000D02*
G75*
G02*
X9285000Y-8100000I-15000J0D01*
G01*
X9285000Y-8100000D02*
G75*
G02*
X9315000Y-8100000I15000J0D01*
G01*
X9383881Y-8693431D02*
G75*
G02*
X9353881Y-8693431I-15000J0D01*
G01*
X9353881Y-8693431D02*
G75*
G02*
X9383881Y-8693431I15000J0D01*
G01*
X9459276Y-6000000D02*
G75*
G02*
X9429276Y-6000000I-15000J0D01*
G01*
X9429276Y-6000000D02*
G75*
G02*
X9459276Y-6000000I15000J0D01*
G01*
X9478050Y-7799148D02*
G75*
G02*
X9448050Y-7799148I-15000J0D01*
G01*
X9448050Y-7799148D02*
G75*
G02*
X9478050Y-7799148I15000J0D01*
G01*
X9609343Y-7312442D02*
G75*
G02*
X9579343Y-7312442I-15000J0D01*
G01*
X9579343Y-7312442D02*
G75*
G02*
X9609343Y-7312442I15000J0D01*
G01*
X9609343Y-7467442D02*
G75*
G02*
X9579343Y-7467442I-15000J0D01*
G01*
X9579343Y-7467442D02*
G75*
G02*
X9609343Y-7467442I15000J0D01*
G01*
X9614276Y-6000000D02*
G75*
G02*
X9584276Y-6000000I-15000J0D01*
G01*
X9584276Y-6000000D02*
G75*
G02*
X9614276Y-6000000I15000J0D01*
G01*
X9615000Y-8400000D02*
G75*
G02*
X9585000Y-8400000I-15000J0D01*
G01*
X9585000Y-8400000D02*
G75*
G02*
X9615000Y-8400000I15000J0D01*
G01*
X9633050Y-7799148D02*
G75*
G02*
X9603050Y-7799148I-15000J0D01*
G01*
X9603050Y-7799148D02*
G75*
G02*
X9633050Y-7799148I15000J0D01*
G01*
X9698416Y-7975279D02*
G75*
G02*
X9668416Y-7975279I-15000J0D01*
G01*
X9668416Y-7975279D02*
G75*
G02*
X9698416Y-7975279I15000J0D01*
G01*
X9785553Y-6000000D02*
G75*
G02*
X9755553Y-6000000I-15000J0D01*
G01*
X9755553Y-6000000D02*
G75*
G02*
X9785553Y-6000000I15000J0D01*
G01*
X9815000Y-6600000D02*
G75*
G02*
X9785000Y-6600000I-15000J0D01*
G01*
X9785000Y-6600000D02*
G75*
G02*
X9815000Y-6600000I15000J0D01*
G01*
X9815000Y-7000000D02*
G75*
G02*
X9785000Y-7000000I-15000J0D01*
G01*
X9785000Y-7000000D02*
G75*
G02*
X9815000Y-7000000I15000J0D01*
G01*
X9815000Y-9800000D02*
G75*
G02*
X9785000Y-9800000I-15000J0D01*
G01*
X9785000Y-9800000D02*
G75*
G02*
X9815000Y-9800000I15000J0D01*
G01*
X9915000Y-7800000D02*
G75*
G02*
X9885000Y-7800000I-15000J0D01*
G01*
X9885000Y-7800000D02*
G75*
G02*
X9915000Y-7800000I15000J0D01*
G01*
X9975553Y-6000000D02*
G75*
G02*
X9945553Y-6000000I-15000J0D01*
G01*
X9945553Y-6000000D02*
G75*
G02*
X9975553Y-6000000I15000J0D01*
G01*
X10115000Y-8000000D02*
G75*
G02*
X10085000Y-8000000I-15000J0D01*
G01*
X10085000Y-8000000D02*
G75*
G02*
X10115000Y-8000000I15000J0D01*
G01*
X10290000Y-5724000D02*
G75*
G02*
X10260000Y-5724000I-15000J0D01*
G01*
X10260000Y-5724000D02*
G75*
G02*
X10290000Y-5724000I15000J0D01*
G01*
X10315000Y-9300000D02*
G75*
G02*
X10285000Y-9300000I-15000J0D01*
G01*
X10285000Y-9300000D02*
G75*
G02*
X10315000Y-9300000I15000J0D01*
G01*
X10366178Y-7740951D02*
G75*
G02*
X10336178Y-7740951I-15000J0D01*
G01*
X10336178Y-7740951D02*
G75*
G02*
X10366178Y-7740951I15000J0D01*
G01*
X10415000Y-8400000D02*
G75*
G02*
X10385000Y-8400000I-15000J0D01*
G01*
X10385000Y-8400000D02*
G75*
G02*
X10415000Y-8400000I15000J0D01*
G01*
X10485000Y-5788750D02*
G75*
G02*
X10455000Y-5788750I-15000J0D01*
G01*
X10455000Y-5788750D02*
G75*
G02*
X10485000Y-5788750I15000J0D01*
G01*
X10515000Y-7400000D02*
G75*
G02*
X10485000Y-7400000I-15000J0D01*
G01*
X10485000Y-7400000D02*
G75*
G02*
X10515000Y-7400000I15000J0D01*
G01*
X10531178Y-7740951D02*
G75*
G02*
X10501178Y-7740951I-15000J0D01*
G01*
X10501178Y-7740951D02*
G75*
G02*
X10531178Y-7740951I15000J0D01*
G01*
X10532165Y-5606368D02*
G75*
G02*
X10502165Y-5606368I-15000J0D01*
G01*
X10502165Y-5606368D02*
G75*
G02*
X10532165Y-5606368I15000J0D01*
G01*
X10632916Y-6654508D02*
G75*
G02*
X10602916Y-6654508I-15000J0D01*
G01*
X10602916Y-6654508D02*
G75*
G02*
X10632916Y-6654508I15000J0D01*
G01*
X10637500Y-6000000D02*
G75*
G02*
X10607500Y-6000000I-15000J0D01*
G01*
X10607500Y-6000000D02*
G75*
G02*
X10637500Y-6000000I15000J0D01*
G01*
X10667500Y-8273000D02*
G75*
G02*
X10637500Y-8273000I-15000J0D01*
G01*
X10637500Y-8273000D02*
G75*
G02*
X10667500Y-8273000I15000J0D01*
G01*
X10667500Y-8400000D02*
G75*
G02*
X10637500Y-8400000I-15000J0D01*
G01*
X10637500Y-8400000D02*
G75*
G02*
X10667500Y-8400000I15000J0D01*
G01*
X10667500Y-8654000D02*
G75*
G02*
X10637500Y-8654000I-15000J0D01*
G01*
X10637500Y-8654000D02*
G75*
G02*
X10667500Y-8654000I15000J0D01*
G01*
X10715000Y-5800000D02*
G75*
G02*
X10685000Y-5800000I-15000J0D01*
G01*
X10685000Y-5800000D02*
G75*
G02*
X10715000Y-5800000I15000J0D01*
G01*
X10715000Y-8100000D02*
G75*
G02*
X10685000Y-8100000I-15000J0D01*
G01*
X10685000Y-8100000D02*
G75*
G02*
X10715000Y-8100000I15000J0D01*
G01*
X11015837Y-5792805D02*
G75*
G02*
X10985837Y-5792805I-15000J0D01*
G01*
X10985837Y-5792805D02*
G75*
G02*
X11015837Y-5792805I15000J0D01*
G01*
X11162500Y-8273000D02*
G75*
G02*
X11132500Y-8273000I-15000J0D01*
G01*
X11132500Y-8273000D02*
G75*
G02*
X11162500Y-8273000I15000J0D01*
G01*
X11162500Y-8400000D02*
G75*
G02*
X11132500Y-8400000I-15000J0D01*
G01*
X11132500Y-8400000D02*
G75*
G02*
X11162500Y-8400000I15000J0D01*
G01*
X11172144Y-5788618D02*
G75*
G02*
X11142144Y-5788618I-15000J0D01*
G01*
X11142144Y-5788618D02*
G75*
G02*
X11172144Y-5788618I15000J0D01*
G01*
X11211100Y-8273490D02*
G75*
G02*
X11181100Y-8273490I-15000J0D01*
G01*
X11181100Y-8273490D02*
G75*
G02*
X11211100Y-8273490I15000J0D01*
G01*
X11215000Y-8400000D02*
G75*
G02*
X11185000Y-8400000I-15000J0D01*
G01*
X11185000Y-8400000D02*
G75*
G02*
X11215000Y-8400000I15000J0D01*
G01*
X11315000Y-8100000D02*
G75*
G02*
X11285000Y-8100000I-15000J0D01*
G01*
X11285000Y-8100000D02*
G75*
G02*
X11315000Y-8100000I15000J0D01*
G01*
X11415000Y-9800000D02*
G75*
G02*
X11385000Y-9800000I-15000J0D01*
G01*
X11385000Y-9800000D02*
G75*
G02*
X11415000Y-9800000I15000J0D01*
G01*
X11422534Y-5625743D02*
G75*
G02*
X11392534Y-5625743I-15000J0D01*
G01*
X11392534Y-5625743D02*
G75*
G02*
X11422534Y-5625743I15000J0D01*
G01*
X11488544Y-7863552D02*
G75*
G02*
X11458544Y-7863552I-15000J0D01*
G01*
X11458544Y-7863552D02*
G75*
G02*
X11488544Y-7863552I15000J0D01*
G01*
X11512809Y-7673642D02*
G75*
G02*
X11482809Y-7673642I-15000J0D01*
G01*
X11482809Y-7673642D02*
G75*
G02*
X11512809Y-7673642I15000J0D01*
G01*
X11595000Y-8569888D02*
G75*
G02*
X11565000Y-8569888I-15000J0D01*
G01*
X11565000Y-8569888D02*
G75*
G02*
X11595000Y-8569888I15000J0D01*
G01*
X11600235Y-7747984D02*
G75*
G02*
X11570235Y-7747984I-15000J0D01*
G01*
X11570235Y-7747984D02*
G75*
G02*
X11600235Y-7747984I15000J0D01*
G01*
X11615000Y-5200000D02*
G75*
G02*
X11585000Y-5200000I-15000J0D01*
G01*
X11585000Y-5200000D02*
G75*
G02*
X11615000Y-5200000I15000J0D01*
G01*
X11715000Y-8200000D02*
G75*
G02*
X11685000Y-8200000I-15000J0D01*
G01*
X11685000Y-8200000D02*
G75*
G02*
X11715000Y-8200000I15000J0D01*
G01*
X11743320Y-10300000D02*
G75*
G02*
X11713320Y-10300000I-15000J0D01*
G01*
X11713320Y-10300000D02*
G75*
G02*
X11743320Y-10300000I15000J0D01*
G01*
X11797500Y-7000000D02*
G75*
G02*
X11767500Y-7000000I-15000J0D01*
G01*
X11767500Y-7000000D02*
G75*
G02*
X11797500Y-7000000I15000J0D01*
G01*
X11802921Y-5465815D02*
G75*
G02*
X11772921Y-5465815I-15000J0D01*
G01*
X11772921Y-5465815D02*
G75*
G02*
X11802921Y-5465815I15000J0D01*
G01*
X11815000Y-9900000D02*
G75*
G02*
X11785000Y-9900000I-15000J0D01*
G01*
X11785000Y-9900000D02*
G75*
G02*
X11815000Y-9900000I15000J0D01*
G01*
X11857500Y-6300000D02*
G75*
G02*
X11827500Y-6300000I-15000J0D01*
G01*
X11827500Y-6300000D02*
G75*
G02*
X11857500Y-6300000I15000J0D01*
G01*
X11922500Y-6904595D02*
G75*
G02*
X11892500Y-6904595I-15000J0D01*
G01*
X11892500Y-6904595D02*
G75*
G02*
X11922500Y-6904595I15000J0D01*
G01*
X11922500Y-7863903D02*
G75*
G02*
X11892500Y-7863903I-15000J0D01*
G01*
X11892500Y-7863903D02*
G75*
G02*
X11922500Y-7863903I15000J0D01*
G01*
X11933320Y-10300000D02*
G75*
G02*
X11903320Y-10300000I-15000J0D01*
G01*
X11903320Y-10300000D02*
G75*
G02*
X11933320Y-10300000I15000J0D01*
G01*
X11987500Y-6904595D02*
G75*
G02*
X11957500Y-6904595I-15000J0D01*
G01*
X11957500Y-6904595D02*
G75*
G02*
X11987500Y-6904595I15000J0D01*
G01*
X12015000Y-6800000D02*
G75*
G02*
X11985000Y-6800000I-15000J0D01*
G01*
X11985000Y-6800000D02*
G75*
G02*
X12015000Y-6800000I15000J0D01*
G01*
X12015000Y-9500000D02*
G75*
G02*
X11985000Y-9500000I-15000J0D01*
G01*
X11985000Y-9500000D02*
G75*
G02*
X12015000Y-9500000I15000J0D01*
G01*
X12052500Y-7863903D02*
G75*
G02*
X12022500Y-7863903I-15000J0D01*
G01*
X12022500Y-7863903D02*
G75*
G02*
X12052500Y-7863903I15000J0D01*
G01*
X12122314Y-7352451D02*
G75*
G02*
X12092314Y-7352451I-15000J0D01*
G01*
X12092314Y-7352451D02*
G75*
G02*
X12122314Y-7352451I15000J0D01*
G01*
X12182500Y-6904595D02*
G75*
G02*
X12152500Y-6904595I-15000J0D01*
G01*
X12152500Y-6904595D02*
G75*
G02*
X12182500Y-6904595I15000J0D01*
G01*
X12215000Y-5200000D02*
G75*
G02*
X12185000Y-5200000I-15000J0D01*
G01*
X12185000Y-5200000D02*
G75*
G02*
X12215000Y-5200000I15000J0D01*
G01*
X12215000Y-5900000D02*
G75*
G02*
X12185000Y-5900000I-15000J0D01*
G01*
X12185000Y-5900000D02*
G75*
G02*
X12215000Y-5900000I15000J0D01*
G01*
X12247500Y-6204595D02*
G75*
G02*
X12217500Y-6204595I-15000J0D01*
G01*
X12217500Y-6204595D02*
G75*
G02*
X12247500Y-6204595I15000J0D01*
G01*
X12247500Y-7863903D02*
G75*
G02*
X12217500Y-7863903I-15000J0D01*
G01*
X12217500Y-7863903D02*
G75*
G02*
X12247500Y-7863903I15000J0D01*
G01*
X12312500Y-6904595D02*
G75*
G02*
X12282500Y-6904595I-15000J0D01*
G01*
X12282500Y-6904595D02*
G75*
G02*
X12312500Y-6904595I15000J0D01*
G01*
X12315000Y-5700000D02*
G75*
G02*
X12285000Y-5700000I-15000J0D01*
G01*
X12285000Y-5700000D02*
G75*
G02*
X12315000Y-5700000I15000J0D01*
G01*
X12315000Y-9100000D02*
G75*
G02*
X12285000Y-9100000I-15000J0D01*
G01*
X12285000Y-9100000D02*
G75*
G02*
X12315000Y-9100000I15000J0D01*
G01*
X12377500Y-6904595D02*
G75*
G02*
X12347500Y-6904595I-15000J0D01*
G01*
X12347500Y-6904595D02*
G75*
G02*
X12377500Y-6904595I15000J0D01*
G01*
X12415000Y-7500000D02*
G75*
G02*
X12385000Y-7500000I-15000J0D01*
G01*
X12385000Y-7500000D02*
G75*
G02*
X12415000Y-7500000I15000J0D01*
G01*
X12435000Y-8569888D02*
G75*
G02*
X12405000Y-8569888I-15000J0D01*
G01*
X12405000Y-8569888D02*
G75*
G02*
X12435000Y-8569888I15000J0D01*
G01*
X12442500Y-6904595D02*
G75*
G02*
X12412500Y-6904595I-15000J0D01*
G01*
X12412500Y-6904595D02*
G75*
G02*
X12442500Y-6904595I15000J0D01*
G01*
X12460000Y-8200000D02*
G75*
G02*
X12430000Y-8200000I-15000J0D01*
G01*
X12430000Y-8200000D02*
G75*
G02*
X12460000Y-8200000I15000J0D01*
G01*
X12515000Y-9500000D02*
G75*
G02*
X12485000Y-9500000I-15000J0D01*
G01*
X12485000Y-9500000D02*
G75*
G02*
X12515000Y-9500000I15000J0D01*
G01*
X12523685Y-7632212D02*
G75*
G02*
X12493685Y-7632212I-15000J0D01*
G01*
X12493685Y-7632212D02*
G75*
G02*
X12523685Y-7632212I15000J0D01*
G01*
X12572500Y-6904595D02*
G75*
G02*
X12542500Y-6904595I-15000J0D01*
G01*
X12542500Y-6904595D02*
G75*
G02*
X12572500Y-6904595I15000J0D01*
G01*
X12572500Y-7863903D02*
G75*
G02*
X12542500Y-7863903I-15000J0D01*
G01*
X12542500Y-7863903D02*
G75*
G02*
X12572500Y-7863903I15000J0D01*
G01*
X12615000Y-8200000D02*
G75*
G02*
X12585000Y-8200000I-15000J0D01*
G01*
X12585000Y-8200000D02*
G75*
G02*
X12615000Y-8200000I15000J0D01*
G01*
X12642921Y-5465815D02*
G75*
G02*
X12612921Y-5465815I-15000J0D01*
G01*
X12612921Y-5465815D02*
G75*
G02*
X12642921Y-5465815I15000J0D01*
G01*
X12691452Y-6400000D02*
G75*
G02*
X12661452Y-6400000I-15000J0D01*
G01*
X12661452Y-6400000D02*
G75*
G02*
X12691452Y-6400000I15000J0D01*
G01*
X12691452Y-6700000D02*
G75*
G02*
X12661452Y-6700000I-15000J0D01*
G01*
X12661452Y-6700000D02*
G75*
G02*
X12691452Y-6700000I15000J0D01*
G01*
X12691452Y-6900000D02*
G75*
G02*
X12661452Y-6900000I-15000J0D01*
G01*
X12661452Y-6900000D02*
G75*
G02*
X12691452Y-6900000I15000J0D01*
G01*
X12715000Y-9300000D02*
G75*
G02*
X12685000Y-9300000I-15000J0D01*
G01*
X12685000Y-9300000D02*
G75*
G02*
X12715000Y-9300000I15000J0D01*
G01*
X12815000Y-7600000D02*
G75*
G02*
X12785000Y-7600000I-15000J0D01*
G01*
X12785000Y-7600000D02*
G75*
G02*
X12815000Y-7600000I15000J0D01*
G01*
X12815000Y-10600000D02*
G75*
G02*
X12785000Y-10600000I-15000J0D01*
G01*
X12785000Y-10600000D02*
G75*
G02*
X12815000Y-10600000I15000J0D01*
G01*
X12915000Y-5100000D02*
G75*
G02*
X12885000Y-5100000I-15000J0D01*
G01*
X12885000Y-5100000D02*
G75*
G02*
X12915000Y-5100000I15000J0D01*
G01*
X13115000Y-10500000D02*
G75*
G02*
X13085000Y-10500000I-15000J0D01*
G01*
X13085000Y-10500000D02*
G75*
G02*
X13115000Y-10500000I15000J0D01*
G01*
X13515000Y-5500000D02*
G75*
G02*
X13485000Y-5500000I-15000J0D01*
G01*
X13485000Y-5500000D02*
G75*
G02*
X13515000Y-5500000I15000J0D01*
G01*
X13515000Y-10200000D02*
G75*
G02*
X13485000Y-10200000I-15000J0D01*
G01*
X13485000Y-10200000D02*
G75*
G02*
X13515000Y-10200000I15000J0D01*
G01*
X13815000Y-9200000D02*
G75*
G02*
X13785000Y-9200000I-15000J0D01*
G01*
X13785000Y-9200000D02*
G75*
G02*
X13815000Y-9200000I15000J0D01*
G01*
X7996956Y-9011927D02*
X7996956Y-9076927D01*
X7964456Y-9044427D02*
X8029456Y-9044427D01*
X8036956Y-9011927D02*
X7956956Y-9011927D01*
X7956956Y-9076927D02*
G75*
G02*
X7956956Y-9011927I0J32500D01*
G01*
X7956956Y-9076927D02*
X8036956Y-9076927D01*
X8036956Y-9076927D02*
G75*
G03*
X8036956Y-9011927I0J32500D01*
G01*
X7996956Y-9875927D02*
X7996956Y-9940927D01*
X7964456Y-9908427D02*
X8029456Y-9908427D01*
X8036956Y-9875927D02*
X7956956Y-9875927D01*
X7956956Y-9940927D02*
G75*
G02*
X7956956Y-9875927I0J32500D01*
G01*
X7956956Y-9940927D02*
X8036956Y-9940927D01*
X8036956Y-9940927D02*
G75*
G03*
X8036956Y-9875927I0J32500D01*
G01*
X8411956Y-9011927D02*
X8411956Y-9076927D01*
X8379456Y-9044427D02*
X8444456Y-9044427D01*
X8466956Y-9011927D02*
X8356956Y-9011927D01*
X8356956Y-9076927D02*
G75*
G02*
X8356956Y-9011927I0J32500D01*
G01*
X8356956Y-9076927D02*
X8466956Y-9076927D01*
X8466956Y-9076927D02*
G75*
G03*
X8466956Y-9011927I0J32500D01*
G01*
X8411956Y-9875927D02*
X8411956Y-9940927D01*
X8379456Y-9908427D02*
X8444456Y-9908427D01*
X8466956Y-9875927D02*
X8356956Y-9875927D01*
X8356956Y-9940927D02*
G75*
G02*
X8356956Y-9875927I0J32500D01*
G01*
X8356956Y-9940927D02*
X8466956Y-9940927D01*
X8466956Y-9940927D02*
G75*
G03*
X8466956Y-9875927I0J32500D01*
G01*
X9630820Y-9318820D02*
X9630820Y-9255180D01*
X9567180Y-9255180D01*
X9567180Y-9318820D01*
X9630820Y-9318820D01*
X9630820Y-10334820D02*
X9630820Y-10271180D01*
X9567180Y-10271180D01*
X9567180Y-10334820D01*
X9630820Y-10334820D01*
X9884820Y-9318820D02*
X9884820Y-9255180D01*
X9821180Y-9255180D01*
X9821180Y-9318820D01*
X9884820Y-9318820D01*
X9884820Y-10334820D02*
X9884820Y-10271180D01*
X9821180Y-10271180D01*
X9821180Y-10334820D01*
X9884820Y-10334820D01*
X10138820Y-10334820D02*
X10138820Y-10271180D01*
X10075180Y-10271180D01*
X10075180Y-10334820D01*
X10138820Y-10334820D01*
X10392820Y-10334820D02*
X10392820Y-10271180D01*
X10329180Y-10271180D01*
X10329180Y-10334820D01*
X10392820Y-10334820D01*
X10646820Y-10334820D02*
X10646820Y-10271180D01*
X10583180Y-10271180D01*
X10583180Y-10334820D01*
X10646820Y-10334820D01*
X11154820Y-10334820D02*
X11154820Y-10271180D01*
X11091180Y-10271180D01*
X11091180Y-10334820D01*
X11154820Y-10334820D01*
X11408820Y-9318820D02*
X11408820Y-9255180D01*
X11345180Y-9255180D01*
X11345180Y-9318820D01*
X11408820Y-9318820D01*
X11408820Y-10334820D02*
X11408820Y-10271180D01*
X11345180Y-10271180D01*
X11345180Y-10334820D01*
X11408820Y-10334820D01*
X13169690Y-9750000D02*
X13219690Y-9700000D01*
X13169690Y-9650000D01*
X13119690Y-9700000D01*
X13169690Y-9750000D01*
X13219690Y-9800000D02*
X13219690Y-9600000D01*
X13119690Y-9600000D02*
G75*
G02*
X13219690Y-9600000I50000J0D01*
G01*
X13119690Y-9600000D02*
X13119690Y-9800000D01*
X13119690Y-9800000D02*
G75*
G03*
X13219690Y-9800000I50000J0D01*
G01*
X13469690Y-9280000D02*
X13519690Y-9230000D01*
X13469690Y-9180000D01*
X13419690Y-9230000D01*
X13469690Y-9280000D01*
X13569690Y-9180000D02*
X13369690Y-9180000D01*
X13369690Y-9280000D02*
G75*
G02*
X13369690Y-9180000I0J50000D01*
G01*
X13369690Y-9280000D02*
X13569690Y-9280000D01*
X13569690Y-9280000D02*
G75*
G03*
X13569690Y-9180000I0J50000D01*
G01*
X13769690Y-9750000D02*
X13819690Y-9700000D01*
X13769690Y-9650000D01*
X13719690Y-9700000D01*
X13769690Y-9750000D01*
X13819690Y-9800000D02*
X13819690Y-9600000D01*
X13719690Y-9600000D02*
G75*
G02*
X13819690Y-9600000I50000J0D01*
G01*
X13719690Y-9600000D02*
X13719690Y-9800000D01*
X13719690Y-9800000D02*
G75*
G03*
X13819690Y-9800000I50000J0D01*
G01*
D13*
X13055335Y-6331852D02*
X13185335Y-6461852D01*
X13185335Y-6331852D02*
X13055335Y-6461852D01*
X13185335Y-6396852D02*
G75*
G02*
X13055335Y-6396852I-65000J0D01*
G01*
X13055335Y-6396852D02*
G75*
G02*
X13185335Y-6396852I65000J0D01*
G01*
X13055335Y-6681852D02*
X13185335Y-6811852D01*
X13185335Y-6681852D02*
X13055335Y-6811852D01*
X13185335Y-6746852D02*
G75*
G02*
X13055335Y-6746852I-65000J0D01*
G01*
X13055335Y-6746852D02*
G75*
G02*
X13185335Y-6746852I65000J0D01*
G01*
X13055335Y-7031852D02*
X13185335Y-7161852D01*
X13185335Y-7031852D02*
X13055335Y-7161852D01*
X13185335Y-7096852D02*
G75*
G02*
X13055335Y-7096852I-65000J0D01*
G01*
X13055335Y-7096852D02*
G75*
G02*
X13185335Y-7096852I65000J0D01*
G01*
X13055335Y-7381852D02*
X13185335Y-7511852D01*
X13185335Y-7381852D02*
X13055335Y-7511852D01*
X13185335Y-7446852D02*
G75*
G02*
X13055335Y-7446852I-65000J0D01*
G01*
X13055335Y-7446852D02*
G75*
G02*
X13185335Y-7446852I65000J0D01*
G01*
X13055335Y-7731852D02*
X13185335Y-7861852D01*
X13185335Y-7731852D02*
X13055335Y-7861852D01*
X13185335Y-7796852D02*
G75*
G02*
X13055335Y-7796852I-65000J0D01*
G01*
X13055335Y-7796852D02*
G75*
G02*
X13185335Y-7796852I65000J0D01*
G01*
X13055335Y-8081852D02*
X13185335Y-8211852D01*
X13185335Y-8081852D02*
X13055335Y-8211852D01*
X13185335Y-8146852D02*
G75*
G02*
X13055335Y-8146852I-65000J0D01*
G01*
X13055335Y-8146852D02*
G75*
G02*
X13185335Y-8146852I65000J0D01*
G01*
X13055335Y-8431852D02*
X13185335Y-8561852D01*
X13185335Y-8431852D02*
X13055335Y-8561852D01*
X13185335Y-8496852D02*
G75*
G02*
X13055335Y-8496852I-65000J0D01*
G01*
X13055335Y-8496852D02*
G75*
G02*
X13185335Y-8496852I65000J0D01*
G01*
X13055335Y-8781852D02*
X13185335Y-8911852D01*
X13185335Y-8781852D02*
X13055335Y-8911852D01*
X13185335Y-8846852D02*
G75*
G02*
X13055335Y-8846852I-65000J0D01*
G01*
X13055335Y-8846852D02*
G75*
G02*
X13185335Y-8846852I65000J0D01*
G01*
X13875335Y-6331852D02*
X14005335Y-6461852D01*
X14005335Y-6331852D02*
X13875335Y-6461852D01*
X14005335Y-6396852D02*
G75*
G02*
X13875335Y-6396852I-65000J0D01*
G01*
X13875335Y-6396852D02*
G75*
G02*
X14005335Y-6396852I65000J0D01*
G01*
X13875335Y-6681852D02*
X14005335Y-6811852D01*
X14005335Y-6681852D02*
X13875335Y-6811852D01*
X14005335Y-6746852D02*
G75*
G02*
X13875335Y-6746852I-65000J0D01*
G01*
X13875335Y-6746852D02*
G75*
G02*
X14005335Y-6746852I65000J0D01*
G01*
X13875335Y-7031852D02*
X14005335Y-7161852D01*
X14005335Y-7031852D02*
X13875335Y-7161852D01*
X14005335Y-7096852D02*
G75*
G02*
X13875335Y-7096852I-65000J0D01*
G01*
X13875335Y-7096852D02*
G75*
G02*
X14005335Y-7096852I65000J0D01*
G01*
X13875335Y-7381852D02*
X14005335Y-7511852D01*
X14005335Y-7381852D02*
X13875335Y-7511852D01*
X14005335Y-7446852D02*
G75*
G02*
X13875335Y-7446852I-65000J0D01*
G01*
X13875335Y-7446852D02*
G75*
G02*
X14005335Y-7446852I65000J0D01*
G01*
X13875335Y-7731852D02*
X14005335Y-7861852D01*
X14005335Y-7731852D02*
X13875335Y-7861852D01*
X14005335Y-7796852D02*
G75*
G02*
X13875335Y-7796852I-65000J0D01*
G01*
X13875335Y-7796852D02*
G75*
G02*
X14005335Y-7796852I65000J0D01*
G01*
X13875335Y-8081852D02*
X14005335Y-8211852D01*
X14005335Y-8081852D02*
X13875335Y-8211852D01*
X14005335Y-8146852D02*
G75*
G02*
X13875335Y-8146852I-65000J0D01*
G01*
X13875335Y-8146852D02*
G75*
G02*
X14005335Y-8146852I65000J0D01*
G01*
X13875335Y-8431852D02*
X14005335Y-8561852D01*
X14005335Y-8431852D02*
X13875335Y-8561852D01*
X14005335Y-8496852D02*
G75*
G02*
X13875335Y-8496852I-65000J0D01*
G01*
X13875335Y-8496852D02*
G75*
G02*
X14005335Y-8496852I65000J0D01*
G01*
X13875335Y-8781852D02*
X14005335Y-8911852D01*
X14005335Y-8781852D02*
X13875335Y-8911852D01*
X14005335Y-8846852D02*
G75*
G02*
X13875335Y-8846852I-65000J0D01*
G01*
X13875335Y-8846852D02*
G75*
G02*
X14005335Y-8846852I65000J0D01*
G01*
D12*
X8326956Y-9152427D02*
X8396956Y-9222427D01*
X8396956Y-9152427D02*
X8326956Y-9222427D01*
X8361956Y-9152427D02*
X8361956Y-9222427D01*
X8326956Y-9187427D02*
X8396956Y-9187427D01*
X8326956Y-9730427D02*
X8396956Y-9800427D01*
X8396956Y-9730427D02*
X8326956Y-9800427D01*
X8361956Y-9730427D02*
X8361956Y-9800427D01*
X8326956Y-9765427D02*
X8396956Y-9765427D01*
D14*
X7898554Y-5099695D02*
X8218554Y-5419695D01*
X8218554Y-5099695D02*
X7898554Y-5419695D01*
X8171692Y-5372833D02*
X8171692Y-5146556D01*
X7945416Y-5146556D01*
X7945416Y-5372833D01*
X8171692Y-5372833D01*
X7898554Y-10383347D02*
X8218554Y-10703347D01*
X8218554Y-10383347D02*
X7898554Y-10703347D01*
X8171692Y-10656485D02*
X8171692Y-10430208D01*
X7945416Y-10430208D01*
X7945416Y-10656485D01*
X8171692Y-10656485D01*
X13693233Y-5099695D02*
X14013233Y-5419695D01*
X14013233Y-5099695D02*
X13693233Y-5419695D01*
X13966371Y-5372833D02*
X13966371Y-5146556D01*
X13740095Y-5146556D01*
X13740095Y-5372833D01*
X13966371Y-5372833D01*
X13693233Y-10383347D02*
X14013233Y-10703347D01*
X14013233Y-10383347D02*
X13693233Y-10703347D01*
X13966371Y-10656485D02*
X13966371Y-10430208D01*
X13740095Y-10430208D01*
X13740095Y-10656485D01*
X13966371Y-10656485D01*
D11*
X7958277Y-11213984D02*
X7958277Y-11013984D01*
X7958277Y-11013984D02*
X8005896Y-11013984D01*
X8005896Y-11013984D02*
X8034467Y-11023508D01*
X8034467Y-11023508D02*
X8053515Y-11042555D01*
X8053515Y-11042555D02*
X8063039Y-11061603D01*
X8063039Y-11061603D02*
X8072562Y-11099698D01*
X8072562Y-11099698D02*
X8072562Y-11128270D01*
X8072562Y-11128270D02*
X8063039Y-11166365D01*
X8063039Y-11166365D02*
X8053515Y-11185412D01*
X8053515Y-11185412D02*
X8034467Y-11204460D01*
X8034467Y-11204460D02*
X8005896Y-11213984D01*
X8005896Y-11213984D02*
X7958277Y-11213984D01*
X8158277Y-11213984D02*
X8158277Y-11080650D01*
X8158277Y-11118746D02*
X8167801Y-11099698D01*
X8167801Y-11099698D02*
X8177324Y-11090174D01*
X8177324Y-11090174D02*
X8196372Y-11080650D01*
X8196372Y-11080650D02*
X8215420Y-11080650D01*
X8282086Y-11213984D02*
X8282086Y-11080650D01*
X8282086Y-11013984D02*
X8272562Y-11023508D01*
X8272562Y-11023508D02*
X8282086Y-11033031D01*
X8282086Y-11033031D02*
X8291610Y-11023508D01*
X8291610Y-11023508D02*
X8282086Y-11013984D01*
X8282086Y-11013984D02*
X8282086Y-11033031D01*
X8405896Y-11213984D02*
X8386848Y-11204460D01*
X8386848Y-11204460D02*
X8377324Y-11185412D01*
X8377324Y-11185412D02*
X8377324Y-11013984D01*
X8510658Y-11213984D02*
X8491610Y-11204460D01*
X8491610Y-11204460D02*
X8482086Y-11185412D01*
X8482086Y-11185412D02*
X8482086Y-11013984D01*
X8739229Y-11213984D02*
X8739229Y-11013984D01*
X8739229Y-11013984D02*
X8805896Y-11156841D01*
X8805896Y-11156841D02*
X8872563Y-11013984D01*
X8872563Y-11013984D02*
X8872563Y-11213984D01*
X9053515Y-11213984D02*
X9053515Y-11109222D01*
X9053515Y-11109222D02*
X9043991Y-11090174D01*
X9043991Y-11090174D02*
X9024944Y-11080650D01*
X9024944Y-11080650D02*
X8986848Y-11080650D01*
X8986848Y-11080650D02*
X8967801Y-11090174D01*
X9053515Y-11204460D02*
X9034467Y-11213984D01*
X9034467Y-11213984D02*
X8986848Y-11213984D01*
X8986848Y-11213984D02*
X8967801Y-11204460D01*
X8967801Y-11204460D02*
X8958277Y-11185412D01*
X8958277Y-11185412D02*
X8958277Y-11166365D01*
X8958277Y-11166365D02*
X8967801Y-11147317D01*
X8967801Y-11147317D02*
X8986848Y-11137793D01*
X8986848Y-11137793D02*
X9034467Y-11137793D01*
X9034467Y-11137793D02*
X9053515Y-11128270D01*
X9148753Y-11080650D02*
X9148753Y-11280650D01*
X9148753Y-11090174D02*
X9167801Y-11080650D01*
X9167801Y-11080650D02*
X9205896Y-11080650D01*
X9205896Y-11080650D02*
X9224944Y-11090174D01*
X9224944Y-11090174D02*
X9234467Y-11099698D01*
X9234467Y-11099698D02*
X9243991Y-11118746D01*
X9243991Y-11118746D02*
X9243991Y-11175889D01*
X9243991Y-11175889D02*
X9234467Y-11194936D01*
X9234467Y-11194936D02*
X9224944Y-11204460D01*
X9224944Y-11204460D02*
X9205896Y-11213984D01*
X9205896Y-11213984D02*
X9167801Y-11213984D01*
X9167801Y-11213984D02*
X9148753Y-11204460D01*
X9329705Y-11194936D02*
X9339229Y-11204460D01*
X9339229Y-11204460D02*
X9329705Y-11213984D01*
X9329705Y-11213984D02*
X9320182Y-11204460D01*
X9320182Y-11204460D02*
X9329705Y-11194936D01*
X9329705Y-11194936D02*
X9329705Y-11213984D01*
X9329705Y-11090174D02*
X9339229Y-11099698D01*
X9339229Y-11099698D02*
X9329705Y-11109222D01*
X9329705Y-11109222D02*
X9320182Y-11099698D01*
X9320182Y-11099698D02*
X9329705Y-11090174D01*
X9329705Y-11090174D02*
X9329705Y-11109222D01*
D12*
X7677500Y-11532500D02*
X7697500Y-11552500D01*
X7697500Y-11532500D02*
X7677500Y-11552500D01*
D11*
X7996372Y-11433984D02*
X8015420Y-11433984D01*
X8015420Y-11433984D02*
X8034467Y-11443508D01*
X8034467Y-11443508D02*
X8043991Y-11453031D01*
X8043991Y-11453031D02*
X8053515Y-11472079D01*
X8053515Y-11472079D02*
X8063039Y-11510174D01*
X8063039Y-11510174D02*
X8063039Y-11557793D01*
X8063039Y-11557793D02*
X8053515Y-11595888D01*
X8053515Y-11595888D02*
X8043991Y-11614936D01*
X8043991Y-11614936D02*
X8034467Y-11624460D01*
X8034467Y-11624460D02*
X8015420Y-11633984D01*
X8015420Y-11633984D02*
X7996372Y-11633984D01*
X7996372Y-11633984D02*
X7977324Y-11624460D01*
X7977324Y-11624460D02*
X7967801Y-11614936D01*
X7967801Y-11614936D02*
X7958277Y-11595888D01*
X7958277Y-11595888D02*
X7948753Y-11557793D01*
X7948753Y-11557793D02*
X7948753Y-11510174D01*
X7948753Y-11510174D02*
X7958277Y-11472079D01*
X7958277Y-11472079D02*
X7967801Y-11453031D01*
X7967801Y-11453031D02*
X7977324Y-11443508D01*
X7977324Y-11443508D02*
X7996372Y-11433984D01*
X8148753Y-11614936D02*
X8158277Y-11624460D01*
X8158277Y-11624460D02*
X8148753Y-11633984D01*
X8148753Y-11633984D02*
X8139229Y-11624460D01*
X8139229Y-11624460D02*
X8148753Y-11614936D01*
X8148753Y-11614936D02*
X8148753Y-11633984D01*
X8234467Y-11453031D02*
X8243991Y-11443508D01*
X8243991Y-11443508D02*
X8263039Y-11433984D01*
X8263039Y-11433984D02*
X8310658Y-11433984D01*
X8310658Y-11433984D02*
X8329705Y-11443508D01*
X8329705Y-11443508D02*
X8339229Y-11453031D01*
X8339229Y-11453031D02*
X8348753Y-11472079D01*
X8348753Y-11472079D02*
X8348753Y-11491127D01*
X8348753Y-11491127D02*
X8339229Y-11519698D01*
X8339229Y-11519698D02*
X8224943Y-11633984D01*
X8224943Y-11633984D02*
X8348753Y-11633984D01*
X8472563Y-11433984D02*
X8491610Y-11433984D01*
X8491610Y-11433984D02*
X8510658Y-11443508D01*
X8510658Y-11443508D02*
X8520182Y-11453031D01*
X8520182Y-11453031D02*
X8529705Y-11472079D01*
X8529705Y-11472079D02*
X8539229Y-11510174D01*
X8539229Y-11510174D02*
X8539229Y-11557793D01*
X8539229Y-11557793D02*
X8529705Y-11595888D01*
X8529705Y-11595888D02*
X8520182Y-11614936D01*
X8520182Y-11614936D02*
X8510658Y-11624460D01*
X8510658Y-11624460D02*
X8491610Y-11633984D01*
X8491610Y-11633984D02*
X8472563Y-11633984D01*
X8472563Y-11633984D02*
X8453515Y-11624460D01*
X8453515Y-11624460D02*
X8443991Y-11614936D01*
X8443991Y-11614936D02*
X8434467Y-11595888D01*
X8434467Y-11595888D02*
X8424944Y-11557793D01*
X8424944Y-11557793D02*
X8424944Y-11510174D01*
X8424944Y-11510174D02*
X8434467Y-11472079D01*
X8434467Y-11472079D02*
X8443991Y-11453031D01*
X8443991Y-11453031D02*
X8453515Y-11443508D01*
X8453515Y-11443508D02*
X8472563Y-11433984D01*
X8663039Y-11433984D02*
X8682086Y-11433984D01*
X8682086Y-11433984D02*
X8701134Y-11443508D01*
X8701134Y-11443508D02*
X8710658Y-11453031D01*
X8710658Y-11453031D02*
X8720182Y-11472079D01*
X8720182Y-11472079D02*
X8729705Y-11510174D01*
X8729705Y-11510174D02*
X8729705Y-11557793D01*
X8729705Y-11557793D02*
X8720182Y-11595888D01*
X8720182Y-11595888D02*
X8710658Y-11614936D01*
X8710658Y-11614936D02*
X8701134Y-11624460D01*
X8701134Y-11624460D02*
X8682086Y-11633984D01*
X8682086Y-11633984D02*
X8663039Y-11633984D01*
X8663039Y-11633984D02*
X8643991Y-11624460D01*
X8643991Y-11624460D02*
X8634467Y-11614936D01*
X8634467Y-11614936D02*
X8624944Y-11595888D01*
X8624944Y-11595888D02*
X8615420Y-11557793D01*
X8615420Y-11557793D02*
X8615420Y-11510174D01*
X8615420Y-11510174D02*
X8624944Y-11472079D01*
X8624944Y-11472079D02*
X8634467Y-11453031D01*
X8634467Y-11453031D02*
X8643991Y-11443508D01*
X8643991Y-11443508D02*
X8663039Y-11433984D01*
X8815420Y-11633984D02*
X8815420Y-11500650D01*
X8815420Y-11519698D02*
X8824944Y-11510174D01*
X8824944Y-11510174D02*
X8843991Y-11500650D01*
X8843991Y-11500650D02*
X8872563Y-11500650D01*
X8872563Y-11500650D02*
X8891610Y-11510174D01*
X8891610Y-11510174D02*
X8901134Y-11529222D01*
X8901134Y-11529222D02*
X8901134Y-11633984D01*
X8901134Y-11529222D02*
X8910658Y-11510174D01*
X8910658Y-11510174D02*
X8929705Y-11500650D01*
X8929705Y-11500650D02*
X8958277Y-11500650D01*
X8958277Y-11500650D02*
X8977325Y-11510174D01*
X8977325Y-11510174D02*
X8986848Y-11529222D01*
X8986848Y-11529222D02*
X8986848Y-11633984D01*
X9082086Y-11633984D02*
X9082086Y-11500650D01*
X9082086Y-11519698D02*
X9091610Y-11510174D01*
X9091610Y-11510174D02*
X9110658Y-11500650D01*
X9110658Y-11500650D02*
X9139229Y-11500650D01*
X9139229Y-11500650D02*
X9158277Y-11510174D01*
X9158277Y-11510174D02*
X9167801Y-11529222D01*
X9167801Y-11529222D02*
X9167801Y-11633984D01*
X9167801Y-11529222D02*
X9177325Y-11510174D01*
X9177325Y-11510174D02*
X9196372Y-11500650D01*
X9196372Y-11500650D02*
X9224944Y-11500650D01*
X9224944Y-11500650D02*
X9243991Y-11510174D01*
X9243991Y-11510174D02*
X9253515Y-11529222D01*
X9253515Y-11529222D02*
X9253515Y-11633984D01*
X9643991Y-11424460D02*
X9472563Y-11681603D01*
X9901134Y-11433984D02*
X9920182Y-11433984D01*
X9920182Y-11433984D02*
X9939229Y-11443508D01*
X9939229Y-11443508D02*
X9948753Y-11453031D01*
X9948753Y-11453031D02*
X9958277Y-11472079D01*
X9958277Y-11472079D02*
X9967801Y-11510174D01*
X9967801Y-11510174D02*
X9967801Y-11557793D01*
X9967801Y-11557793D02*
X9958277Y-11595888D01*
X9958277Y-11595888D02*
X9948753Y-11614936D01*
X9948753Y-11614936D02*
X9939229Y-11624460D01*
X9939229Y-11624460D02*
X9920182Y-11633984D01*
X9920182Y-11633984D02*
X9901134Y-11633984D01*
X9901134Y-11633984D02*
X9882087Y-11624460D01*
X9882087Y-11624460D02*
X9872563Y-11614936D01*
X9872563Y-11614936D02*
X9863039Y-11595888D01*
X9863039Y-11595888D02*
X9853515Y-11557793D01*
X9853515Y-11557793D02*
X9853515Y-11510174D01*
X9853515Y-11510174D02*
X9863039Y-11472079D01*
X9863039Y-11472079D02*
X9872563Y-11453031D01*
X9872563Y-11453031D02*
X9882087Y-11443508D01*
X9882087Y-11443508D02*
X9901134Y-11433984D01*
X10053515Y-11614936D02*
X10063039Y-11624460D01*
X10063039Y-11624460D02*
X10053515Y-11633984D01*
X10053515Y-11633984D02*
X10043991Y-11624460D01*
X10043991Y-11624460D02*
X10053515Y-11614936D01*
X10053515Y-11614936D02*
X10053515Y-11633984D01*
X10186848Y-11433984D02*
X10205896Y-11433984D01*
X10205896Y-11433984D02*
X10224944Y-11443508D01*
X10224944Y-11443508D02*
X10234468Y-11453031D01*
X10234468Y-11453031D02*
X10243991Y-11472079D01*
X10243991Y-11472079D02*
X10253515Y-11510174D01*
X10253515Y-11510174D02*
X10253515Y-11557793D01*
X10253515Y-11557793D02*
X10243991Y-11595888D01*
X10243991Y-11595888D02*
X10234468Y-11614936D01*
X10234468Y-11614936D02*
X10224944Y-11624460D01*
X10224944Y-11624460D02*
X10205896Y-11633984D01*
X10205896Y-11633984D02*
X10186848Y-11633984D01*
X10186848Y-11633984D02*
X10167801Y-11624460D01*
X10167801Y-11624460D02*
X10158277Y-11614936D01*
X10158277Y-11614936D02*
X10148753Y-11595888D01*
X10148753Y-11595888D02*
X10139229Y-11557793D01*
X10139229Y-11557793D02*
X10139229Y-11510174D01*
X10139229Y-11510174D02*
X10148753Y-11472079D01*
X10148753Y-11472079D02*
X10158277Y-11453031D01*
X10158277Y-11453031D02*
X10167801Y-11443508D01*
X10167801Y-11443508D02*
X10186848Y-11433984D01*
X10377325Y-11433984D02*
X10396372Y-11433984D01*
X10396372Y-11433984D02*
X10415420Y-11443508D01*
X10415420Y-11443508D02*
X10424944Y-11453031D01*
X10424944Y-11453031D02*
X10434468Y-11472079D01*
X10434468Y-11472079D02*
X10443991Y-11510174D01*
X10443991Y-11510174D02*
X10443991Y-11557793D01*
X10443991Y-11557793D02*
X10434468Y-11595888D01*
X10434468Y-11595888D02*
X10424944Y-11614936D01*
X10424944Y-11614936D02*
X10415420Y-11624460D01*
X10415420Y-11624460D02*
X10396372Y-11633984D01*
X10396372Y-11633984D02*
X10377325Y-11633984D01*
X10377325Y-11633984D02*
X10358277Y-11624460D01*
X10358277Y-11624460D02*
X10348753Y-11614936D01*
X10348753Y-11614936D02*
X10339229Y-11595888D01*
X10339229Y-11595888D02*
X10329706Y-11557793D01*
X10329706Y-11557793D02*
X10329706Y-11510174D01*
X10329706Y-11510174D02*
X10339229Y-11472079D01*
X10339229Y-11472079D02*
X10348753Y-11453031D01*
X10348753Y-11453031D02*
X10358277Y-11443508D01*
X10358277Y-11443508D02*
X10377325Y-11433984D01*
X10510658Y-11433984D02*
X10643991Y-11433984D01*
X10643991Y-11433984D02*
X10558277Y-11633984D01*
X10729706Y-11633984D02*
X10767801Y-11633984D01*
X10767801Y-11633984D02*
X10786849Y-11624460D01*
X10786849Y-11624460D02*
X10796372Y-11614936D01*
X10796372Y-11614936D02*
X10815420Y-11586365D01*
X10815420Y-11586365D02*
X10824944Y-11548269D01*
X10824944Y-11548269D02*
X10824944Y-11472079D01*
X10824944Y-11472079D02*
X10815420Y-11453031D01*
X10815420Y-11453031D02*
X10805896Y-11443508D01*
X10805896Y-11443508D02*
X10786849Y-11433984D01*
X10786849Y-11433984D02*
X10748753Y-11433984D01*
X10748753Y-11433984D02*
X10729706Y-11443508D01*
X10729706Y-11443508D02*
X10720182Y-11453031D01*
X10720182Y-11453031D02*
X10710658Y-11472079D01*
X10710658Y-11472079D02*
X10710658Y-11519698D01*
X10710658Y-11519698D02*
X10720182Y-11538746D01*
X10720182Y-11538746D02*
X10729706Y-11548269D01*
X10729706Y-11548269D02*
X10748753Y-11557793D01*
X10748753Y-11557793D02*
X10786849Y-11557793D01*
X10786849Y-11557793D02*
X10805896Y-11548269D01*
X10805896Y-11548269D02*
X10815420Y-11538746D01*
X10815420Y-11538746D02*
X10824944Y-11519698D01*
X10901134Y-11433984D02*
X10901134Y-11472079D01*
X10977325Y-11433984D02*
X10977325Y-11472079D01*
X11272563Y-11710174D02*
X11263039Y-11700650D01*
X11263039Y-11700650D02*
X11243991Y-11672079D01*
X11243991Y-11672079D02*
X11234468Y-11653031D01*
X11234468Y-11653031D02*
X11224944Y-11624460D01*
X11224944Y-11624460D02*
X11215420Y-11576841D01*
X11215420Y-11576841D02*
X11215420Y-11538746D01*
X11215420Y-11538746D02*
X11224944Y-11491127D01*
X11224944Y-11491127D02*
X11234468Y-11462555D01*
X11234468Y-11462555D02*
X11243991Y-11443508D01*
X11243991Y-11443508D02*
X11263039Y-11414936D01*
X11263039Y-11414936D02*
X11272563Y-11405412D01*
X11453515Y-11633984D02*
X11339229Y-11633984D01*
X11396372Y-11633984D02*
X11396372Y-11433984D01*
X11396372Y-11433984D02*
X11377325Y-11462555D01*
X11377325Y-11462555D02*
X11358277Y-11481603D01*
X11358277Y-11481603D02*
X11339229Y-11491127D01*
X11520182Y-11433984D02*
X11653515Y-11433984D01*
X11653515Y-11433984D02*
X11567801Y-11633984D01*
X11882087Y-11633984D02*
X11882087Y-11433984D01*
X11967801Y-11633984D02*
X11967801Y-11529222D01*
X11967801Y-11529222D02*
X11958277Y-11510174D01*
X11958277Y-11510174D02*
X11939230Y-11500650D01*
X11939230Y-11500650D02*
X11910658Y-11500650D01*
X11910658Y-11500650D02*
X11891610Y-11510174D01*
X11891610Y-11510174D02*
X11882087Y-11519698D01*
X12091610Y-11633984D02*
X12072563Y-11624460D01*
X12072563Y-11624460D02*
X12063039Y-11614936D01*
X12063039Y-11614936D02*
X12053515Y-11595888D01*
X12053515Y-11595888D02*
X12053515Y-11538746D01*
X12053515Y-11538746D02*
X12063039Y-11519698D01*
X12063039Y-11519698D02*
X12072563Y-11510174D01*
X12072563Y-11510174D02*
X12091610Y-11500650D01*
X12091610Y-11500650D02*
X12120182Y-11500650D01*
X12120182Y-11500650D02*
X12139230Y-11510174D01*
X12139230Y-11510174D02*
X12148753Y-11519698D01*
X12148753Y-11519698D02*
X12158277Y-11538746D01*
X12158277Y-11538746D02*
X12158277Y-11595888D01*
X12158277Y-11595888D02*
X12148753Y-11614936D01*
X12148753Y-11614936D02*
X12139230Y-11624460D01*
X12139230Y-11624460D02*
X12120182Y-11633984D01*
X12120182Y-11633984D02*
X12091610Y-11633984D01*
X12272563Y-11633984D02*
X12253515Y-11624460D01*
X12253515Y-11624460D02*
X12243991Y-11605412D01*
X12243991Y-11605412D02*
X12243991Y-11433984D01*
X12424944Y-11624460D02*
X12405896Y-11633984D01*
X12405896Y-11633984D02*
X12367801Y-11633984D01*
X12367801Y-11633984D02*
X12348753Y-11624460D01*
X12348753Y-11624460D02*
X12339230Y-11605412D01*
X12339230Y-11605412D02*
X12339230Y-11529222D01*
X12339230Y-11529222D02*
X12348753Y-11510174D01*
X12348753Y-11510174D02*
X12367801Y-11500650D01*
X12367801Y-11500650D02*
X12405896Y-11500650D01*
X12405896Y-11500650D02*
X12424944Y-11510174D01*
X12424944Y-11510174D02*
X12434468Y-11529222D01*
X12434468Y-11529222D02*
X12434468Y-11548269D01*
X12434468Y-11548269D02*
X12339230Y-11567317D01*
X12510658Y-11624460D02*
X12529706Y-11633984D01*
X12529706Y-11633984D02*
X12567801Y-11633984D01*
X12567801Y-11633984D02*
X12586849Y-11624460D01*
X12586849Y-11624460D02*
X12596372Y-11605412D01*
X12596372Y-11605412D02*
X12596372Y-11595888D01*
X12596372Y-11595888D02*
X12586849Y-11576841D01*
X12586849Y-11576841D02*
X12567801Y-11567317D01*
X12567801Y-11567317D02*
X12539230Y-11567317D01*
X12539230Y-11567317D02*
X12520182Y-11557793D01*
X12520182Y-11557793D02*
X12510658Y-11538746D01*
X12510658Y-11538746D02*
X12510658Y-11529222D01*
X12510658Y-11529222D02*
X12520182Y-11510174D01*
X12520182Y-11510174D02*
X12539230Y-11500650D01*
X12539230Y-11500650D02*
X12567801Y-11500650D01*
X12567801Y-11500650D02*
X12586849Y-11510174D01*
X12663039Y-11710174D02*
X12672563Y-11700650D01*
X12672563Y-11700650D02*
X12691611Y-11672079D01*
X12691611Y-11672079D02*
X12701134Y-11653031D01*
X12701134Y-11653031D02*
X12710658Y-11624460D01*
X12710658Y-11624460D02*
X12720182Y-11576841D01*
X12720182Y-11576841D02*
X12720182Y-11538746D01*
X12720182Y-11538746D02*
X12710658Y-11491127D01*
X12710658Y-11491127D02*
X12701134Y-11462555D01*
X12701134Y-11462555D02*
X12691611Y-11443508D01*
X12691611Y-11443508D02*
X12672563Y-11414936D01*
X12672563Y-11414936D02*
X12663039Y-11405412D01*
D12*
X7697500Y-11806500D02*
G75*
G02*
X7667500Y-11806500I-15000J0D01*
G01*
X7667500Y-11806500D02*
G75*
G02*
X7697500Y-11806500I15000J0D01*
G01*
D11*
X7996372Y-11697984D02*
X8015420Y-11697984D01*
X8015420Y-11697984D02*
X8034467Y-11707508D01*
X8034467Y-11707508D02*
X8043991Y-11717031D01*
X8043991Y-11717031D02*
X8053515Y-11736079D01*
X8053515Y-11736079D02*
X8063039Y-11774174D01*
X8063039Y-11774174D02*
X8063039Y-11821793D01*
X8063039Y-11821793D02*
X8053515Y-11859888D01*
X8053515Y-11859888D02*
X8043991Y-11878936D01*
X8043991Y-11878936D02*
X8034467Y-11888460D01*
X8034467Y-11888460D02*
X8015420Y-11897984D01*
X8015420Y-11897984D02*
X7996372Y-11897984D01*
X7996372Y-11897984D02*
X7977324Y-11888460D01*
X7977324Y-11888460D02*
X7967801Y-11878936D01*
X7967801Y-11878936D02*
X7958277Y-11859888D01*
X7958277Y-11859888D02*
X7948753Y-11821793D01*
X7948753Y-11821793D02*
X7948753Y-11774174D01*
X7948753Y-11774174D02*
X7958277Y-11736079D01*
X7958277Y-11736079D02*
X7967801Y-11717031D01*
X7967801Y-11717031D02*
X7977324Y-11707508D01*
X7977324Y-11707508D02*
X7996372Y-11697984D01*
X8148753Y-11878936D02*
X8158277Y-11888460D01*
X8158277Y-11888460D02*
X8148753Y-11897984D01*
X8148753Y-11897984D02*
X8139229Y-11888460D01*
X8139229Y-11888460D02*
X8148753Y-11878936D01*
X8148753Y-11878936D02*
X8148753Y-11897984D01*
X8224943Y-11697984D02*
X8348753Y-11697984D01*
X8348753Y-11697984D02*
X8282086Y-11774174D01*
X8282086Y-11774174D02*
X8310658Y-11774174D01*
X8310658Y-11774174D02*
X8329705Y-11783698D01*
X8329705Y-11783698D02*
X8339229Y-11793222D01*
X8339229Y-11793222D02*
X8348753Y-11812269D01*
X8348753Y-11812269D02*
X8348753Y-11859888D01*
X8348753Y-11859888D02*
X8339229Y-11878936D01*
X8339229Y-11878936D02*
X8329705Y-11888460D01*
X8329705Y-11888460D02*
X8310658Y-11897984D01*
X8310658Y-11897984D02*
X8253515Y-11897984D01*
X8253515Y-11897984D02*
X8234467Y-11888460D01*
X8234467Y-11888460D02*
X8224943Y-11878936D01*
X8472563Y-11697984D02*
X8491610Y-11697984D01*
X8491610Y-11697984D02*
X8510658Y-11707508D01*
X8510658Y-11707508D02*
X8520182Y-11717031D01*
X8520182Y-11717031D02*
X8529705Y-11736079D01*
X8529705Y-11736079D02*
X8539229Y-11774174D01*
X8539229Y-11774174D02*
X8539229Y-11821793D01*
X8539229Y-11821793D02*
X8529705Y-11859888D01*
X8529705Y-11859888D02*
X8520182Y-11878936D01*
X8520182Y-11878936D02*
X8510658Y-11888460D01*
X8510658Y-11888460D02*
X8491610Y-11897984D01*
X8491610Y-11897984D02*
X8472563Y-11897984D01*
X8472563Y-11897984D02*
X8453515Y-11888460D01*
X8453515Y-11888460D02*
X8443991Y-11878936D01*
X8443991Y-11878936D02*
X8434467Y-11859888D01*
X8434467Y-11859888D02*
X8424944Y-11821793D01*
X8424944Y-11821793D02*
X8424944Y-11774174D01*
X8424944Y-11774174D02*
X8434467Y-11736079D01*
X8434467Y-11736079D02*
X8443991Y-11717031D01*
X8443991Y-11717031D02*
X8453515Y-11707508D01*
X8453515Y-11707508D02*
X8472563Y-11697984D01*
X8663039Y-11697984D02*
X8682086Y-11697984D01*
X8682086Y-11697984D02*
X8701134Y-11707508D01*
X8701134Y-11707508D02*
X8710658Y-11717031D01*
X8710658Y-11717031D02*
X8720182Y-11736079D01*
X8720182Y-11736079D02*
X8729705Y-11774174D01*
X8729705Y-11774174D02*
X8729705Y-11821793D01*
X8729705Y-11821793D02*
X8720182Y-11859888D01*
X8720182Y-11859888D02*
X8710658Y-11878936D01*
X8710658Y-11878936D02*
X8701134Y-11888460D01*
X8701134Y-11888460D02*
X8682086Y-11897984D01*
X8682086Y-11897984D02*
X8663039Y-11897984D01*
X8663039Y-11897984D02*
X8643991Y-11888460D01*
X8643991Y-11888460D02*
X8634467Y-11878936D01*
X8634467Y-11878936D02*
X8624944Y-11859888D01*
X8624944Y-11859888D02*
X8615420Y-11821793D01*
X8615420Y-11821793D02*
X8615420Y-11774174D01*
X8615420Y-11774174D02*
X8624944Y-11736079D01*
X8624944Y-11736079D02*
X8634467Y-11717031D01*
X8634467Y-11717031D02*
X8643991Y-11707508D01*
X8643991Y-11707508D02*
X8663039Y-11697984D01*
X8815420Y-11897984D02*
X8815420Y-11764650D01*
X8815420Y-11783698D02*
X8824944Y-11774174D01*
X8824944Y-11774174D02*
X8843991Y-11764650D01*
X8843991Y-11764650D02*
X8872563Y-11764650D01*
X8872563Y-11764650D02*
X8891610Y-11774174D01*
X8891610Y-11774174D02*
X8901134Y-11793222D01*
X8901134Y-11793222D02*
X8901134Y-11897984D01*
X8901134Y-11793222D02*
X8910658Y-11774174D01*
X8910658Y-11774174D02*
X8929705Y-11764650D01*
X8929705Y-11764650D02*
X8958277Y-11764650D01*
X8958277Y-11764650D02*
X8977325Y-11774174D01*
X8977325Y-11774174D02*
X8986848Y-11793222D01*
X8986848Y-11793222D02*
X8986848Y-11897984D01*
X9082086Y-11897984D02*
X9082086Y-11764650D01*
X9082086Y-11783698D02*
X9091610Y-11774174D01*
X9091610Y-11774174D02*
X9110658Y-11764650D01*
X9110658Y-11764650D02*
X9139229Y-11764650D01*
X9139229Y-11764650D02*
X9158277Y-11774174D01*
X9158277Y-11774174D02*
X9167801Y-11793222D01*
X9167801Y-11793222D02*
X9167801Y-11897984D01*
X9167801Y-11793222D02*
X9177325Y-11774174D01*
X9177325Y-11774174D02*
X9196372Y-11764650D01*
X9196372Y-11764650D02*
X9224944Y-11764650D01*
X9224944Y-11764650D02*
X9243991Y-11774174D01*
X9243991Y-11774174D02*
X9253515Y-11793222D01*
X9253515Y-11793222D02*
X9253515Y-11897984D01*
X9643991Y-11688460D02*
X9472563Y-11945603D01*
X9901134Y-11697984D02*
X9920182Y-11697984D01*
X9920182Y-11697984D02*
X9939229Y-11707508D01*
X9939229Y-11707508D02*
X9948753Y-11717031D01*
X9948753Y-11717031D02*
X9958277Y-11736079D01*
X9958277Y-11736079D02*
X9967801Y-11774174D01*
X9967801Y-11774174D02*
X9967801Y-11821793D01*
X9967801Y-11821793D02*
X9958277Y-11859888D01*
X9958277Y-11859888D02*
X9948753Y-11878936D01*
X9948753Y-11878936D02*
X9939229Y-11888460D01*
X9939229Y-11888460D02*
X9920182Y-11897984D01*
X9920182Y-11897984D02*
X9901134Y-11897984D01*
X9901134Y-11897984D02*
X9882087Y-11888460D01*
X9882087Y-11888460D02*
X9872563Y-11878936D01*
X9872563Y-11878936D02*
X9863039Y-11859888D01*
X9863039Y-11859888D02*
X9853515Y-11821793D01*
X9853515Y-11821793D02*
X9853515Y-11774174D01*
X9853515Y-11774174D02*
X9863039Y-11736079D01*
X9863039Y-11736079D02*
X9872563Y-11717031D01*
X9872563Y-11717031D02*
X9882087Y-11707508D01*
X9882087Y-11707508D02*
X9901134Y-11697984D01*
X10053515Y-11878936D02*
X10063039Y-11888460D01*
X10063039Y-11888460D02*
X10053515Y-11897984D01*
X10053515Y-11897984D02*
X10043991Y-11888460D01*
X10043991Y-11888460D02*
X10053515Y-11878936D01*
X10053515Y-11878936D02*
X10053515Y-11897984D01*
X10186848Y-11697984D02*
X10205896Y-11697984D01*
X10205896Y-11697984D02*
X10224944Y-11707508D01*
X10224944Y-11707508D02*
X10234468Y-11717031D01*
X10234468Y-11717031D02*
X10243991Y-11736079D01*
X10243991Y-11736079D02*
X10253515Y-11774174D01*
X10253515Y-11774174D02*
X10253515Y-11821793D01*
X10253515Y-11821793D02*
X10243991Y-11859888D01*
X10243991Y-11859888D02*
X10234468Y-11878936D01*
X10234468Y-11878936D02*
X10224944Y-11888460D01*
X10224944Y-11888460D02*
X10205896Y-11897984D01*
X10205896Y-11897984D02*
X10186848Y-11897984D01*
X10186848Y-11897984D02*
X10167801Y-11888460D01*
X10167801Y-11888460D02*
X10158277Y-11878936D01*
X10158277Y-11878936D02*
X10148753Y-11859888D01*
X10148753Y-11859888D02*
X10139229Y-11821793D01*
X10139229Y-11821793D02*
X10139229Y-11774174D01*
X10139229Y-11774174D02*
X10148753Y-11736079D01*
X10148753Y-11736079D02*
X10158277Y-11717031D01*
X10158277Y-11717031D02*
X10167801Y-11707508D01*
X10167801Y-11707508D02*
X10186848Y-11697984D01*
X10443991Y-11897984D02*
X10329706Y-11897984D01*
X10386848Y-11897984D02*
X10386848Y-11697984D01*
X10386848Y-11697984D02*
X10367801Y-11726555D01*
X10367801Y-11726555D02*
X10348753Y-11745603D01*
X10348753Y-11745603D02*
X10329706Y-11755127D01*
X10634468Y-11897984D02*
X10520182Y-11897984D01*
X10577325Y-11897984D02*
X10577325Y-11697984D01*
X10577325Y-11697984D02*
X10558277Y-11726555D01*
X10558277Y-11726555D02*
X10539229Y-11745603D01*
X10539229Y-11745603D02*
X10520182Y-11755127D01*
X10748753Y-11783698D02*
X10729706Y-11774174D01*
X10729706Y-11774174D02*
X10720182Y-11764650D01*
X10720182Y-11764650D02*
X10710658Y-11745603D01*
X10710658Y-11745603D02*
X10710658Y-11736079D01*
X10710658Y-11736079D02*
X10720182Y-11717031D01*
X10720182Y-11717031D02*
X10729706Y-11707508D01*
X10729706Y-11707508D02*
X10748753Y-11697984D01*
X10748753Y-11697984D02*
X10786849Y-11697984D01*
X10786849Y-11697984D02*
X10805896Y-11707508D01*
X10805896Y-11707508D02*
X10815420Y-11717031D01*
X10815420Y-11717031D02*
X10824944Y-11736079D01*
X10824944Y-11736079D02*
X10824944Y-11745603D01*
X10824944Y-11745603D02*
X10815420Y-11764650D01*
X10815420Y-11764650D02*
X10805896Y-11774174D01*
X10805896Y-11774174D02*
X10786849Y-11783698D01*
X10786849Y-11783698D02*
X10748753Y-11783698D01*
X10748753Y-11783698D02*
X10729706Y-11793222D01*
X10729706Y-11793222D02*
X10720182Y-11802746D01*
X10720182Y-11802746D02*
X10710658Y-11821793D01*
X10710658Y-11821793D02*
X10710658Y-11859888D01*
X10710658Y-11859888D02*
X10720182Y-11878936D01*
X10720182Y-11878936D02*
X10729706Y-11888460D01*
X10729706Y-11888460D02*
X10748753Y-11897984D01*
X10748753Y-11897984D02*
X10786849Y-11897984D01*
X10786849Y-11897984D02*
X10805896Y-11888460D01*
X10805896Y-11888460D02*
X10815420Y-11878936D01*
X10815420Y-11878936D02*
X10824944Y-11859888D01*
X10824944Y-11859888D02*
X10824944Y-11821793D01*
X10824944Y-11821793D02*
X10815420Y-11802746D01*
X10815420Y-11802746D02*
X10805896Y-11793222D01*
X10805896Y-11793222D02*
X10786849Y-11783698D01*
X10901134Y-11697984D02*
X10901134Y-11736079D01*
X10977325Y-11697984D02*
X10977325Y-11736079D01*
X11272563Y-11974174D02*
X11263039Y-11964650D01*
X11263039Y-11964650D02*
X11243991Y-11936079D01*
X11243991Y-11936079D02*
X11234468Y-11917031D01*
X11234468Y-11917031D02*
X11224944Y-11888460D01*
X11224944Y-11888460D02*
X11215420Y-11840841D01*
X11215420Y-11840841D02*
X11215420Y-11802746D01*
X11215420Y-11802746D02*
X11224944Y-11755127D01*
X11224944Y-11755127D02*
X11234468Y-11726555D01*
X11234468Y-11726555D02*
X11243991Y-11707508D01*
X11243991Y-11707508D02*
X11263039Y-11678936D01*
X11263039Y-11678936D02*
X11272563Y-11669412D01*
X11453515Y-11897984D02*
X11339229Y-11897984D01*
X11396372Y-11897984D02*
X11396372Y-11697984D01*
X11396372Y-11697984D02*
X11377325Y-11726555D01*
X11377325Y-11726555D02*
X11358277Y-11745603D01*
X11358277Y-11745603D02*
X11339229Y-11755127D01*
X11643991Y-11897984D02*
X11529706Y-11897984D01*
X11586848Y-11897984D02*
X11586848Y-11697984D01*
X11586848Y-11697984D02*
X11567801Y-11726555D01*
X11567801Y-11726555D02*
X11548753Y-11745603D01*
X11548753Y-11745603D02*
X11529706Y-11755127D01*
X11710658Y-11697984D02*
X11843991Y-11697984D01*
X11843991Y-11697984D02*
X11758277Y-11897984D01*
X12072563Y-11897984D02*
X12072563Y-11697984D01*
X12158277Y-11897984D02*
X12158277Y-11793222D01*
X12158277Y-11793222D02*
X12148753Y-11774174D01*
X12148753Y-11774174D02*
X12129706Y-11764650D01*
X12129706Y-11764650D02*
X12101134Y-11764650D01*
X12101134Y-11764650D02*
X12082087Y-11774174D01*
X12082087Y-11774174D02*
X12072563Y-11783698D01*
X12282087Y-11897984D02*
X12263039Y-11888460D01*
X12263039Y-11888460D02*
X12253515Y-11878936D01*
X12253515Y-11878936D02*
X12243991Y-11859888D01*
X12243991Y-11859888D02*
X12243991Y-11802746D01*
X12243991Y-11802746D02*
X12253515Y-11783698D01*
X12253515Y-11783698D02*
X12263039Y-11774174D01*
X12263039Y-11774174D02*
X12282087Y-11764650D01*
X12282087Y-11764650D02*
X12310658Y-11764650D01*
X12310658Y-11764650D02*
X12329706Y-11774174D01*
X12329706Y-11774174D02*
X12339230Y-11783698D01*
X12339230Y-11783698D02*
X12348753Y-11802746D01*
X12348753Y-11802746D02*
X12348753Y-11859888D01*
X12348753Y-11859888D02*
X12339230Y-11878936D01*
X12339230Y-11878936D02*
X12329706Y-11888460D01*
X12329706Y-11888460D02*
X12310658Y-11897984D01*
X12310658Y-11897984D02*
X12282087Y-11897984D01*
X12463039Y-11897984D02*
X12443991Y-11888460D01*
X12443991Y-11888460D02*
X12434468Y-11869412D01*
X12434468Y-11869412D02*
X12434468Y-11697984D01*
X12615420Y-11888460D02*
X12596372Y-11897984D01*
X12596372Y-11897984D02*
X12558277Y-11897984D01*
X12558277Y-11897984D02*
X12539230Y-11888460D01*
X12539230Y-11888460D02*
X12529706Y-11869412D01*
X12529706Y-11869412D02*
X12529706Y-11793222D01*
X12529706Y-11793222D02*
X12539230Y-11774174D01*
X12539230Y-11774174D02*
X12558277Y-11764650D01*
X12558277Y-11764650D02*
X12596372Y-11764650D01*
X12596372Y-11764650D02*
X12615420Y-11774174D01*
X12615420Y-11774174D02*
X12624944Y-11793222D01*
X12624944Y-11793222D02*
X12624944Y-11812269D01*
X12624944Y-11812269D02*
X12529706Y-11831317D01*
X12701134Y-11888460D02*
X12720182Y-11897984D01*
X12720182Y-11897984D02*
X12758277Y-11897984D01*
X12758277Y-11897984D02*
X12777325Y-11888460D01*
X12777325Y-11888460D02*
X12786849Y-11869412D01*
X12786849Y-11869412D02*
X12786849Y-11859888D01*
X12786849Y-11859888D02*
X12777325Y-11840841D01*
X12777325Y-11840841D02*
X12758277Y-11831317D01*
X12758277Y-11831317D02*
X12729706Y-11831317D01*
X12729706Y-11831317D02*
X12710658Y-11821793D01*
X12710658Y-11821793D02*
X12701134Y-11802746D01*
X12701134Y-11802746D02*
X12701134Y-11793222D01*
X12701134Y-11793222D02*
X12710658Y-11774174D01*
X12710658Y-11774174D02*
X12729706Y-11764650D01*
X12729706Y-11764650D02*
X12758277Y-11764650D01*
X12758277Y-11764650D02*
X12777325Y-11774174D01*
X12853515Y-11974174D02*
X12863039Y-11964650D01*
X12863039Y-11964650D02*
X12882087Y-11936079D01*
X12882087Y-11936079D02*
X12891611Y-11917031D01*
X12891611Y-11917031D02*
X12901134Y-11888460D01*
X12901134Y-11888460D02*
X12910658Y-11840841D01*
X12910658Y-11840841D02*
X12910658Y-11802746D01*
X12910658Y-11802746D02*
X12901134Y-11755127D01*
X12901134Y-11755127D02*
X12891611Y-11726555D01*
X12891611Y-11726555D02*
X12882087Y-11707508D01*
X12882087Y-11707508D02*
X12863039Y-11678936D01*
X12863039Y-11678936D02*
X12853515Y-11669412D01*
D12*
X7665000Y-12038000D02*
X7665000Y-12103000D01*
X7632500Y-12070500D02*
X7697500Y-12070500D01*
D11*
X7996372Y-11961984D02*
X8015420Y-11961984D01*
X8015420Y-11961984D02*
X8034467Y-11971508D01*
X8034467Y-11971508D02*
X8043991Y-11981031D01*
X8043991Y-11981031D02*
X8053515Y-12000079D01*
X8053515Y-12000079D02*
X8063039Y-12038174D01*
X8063039Y-12038174D02*
X8063039Y-12085793D01*
X8063039Y-12085793D02*
X8053515Y-12123888D01*
X8053515Y-12123888D02*
X8043991Y-12142936D01*
X8043991Y-12142936D02*
X8034467Y-12152460D01*
X8034467Y-12152460D02*
X8015420Y-12161984D01*
X8015420Y-12161984D02*
X7996372Y-12161984D01*
X7996372Y-12161984D02*
X7977324Y-12152460D01*
X7977324Y-12152460D02*
X7967801Y-12142936D01*
X7967801Y-12142936D02*
X7958277Y-12123888D01*
X7958277Y-12123888D02*
X7948753Y-12085793D01*
X7948753Y-12085793D02*
X7948753Y-12038174D01*
X7948753Y-12038174D02*
X7958277Y-12000079D01*
X7958277Y-12000079D02*
X7967801Y-11981031D01*
X7967801Y-11981031D02*
X7977324Y-11971508D01*
X7977324Y-11971508D02*
X7996372Y-11961984D01*
X8148753Y-12142936D02*
X8158277Y-12152460D01*
X8158277Y-12152460D02*
X8148753Y-12161984D01*
X8148753Y-12161984D02*
X8139229Y-12152460D01*
X8139229Y-12152460D02*
X8148753Y-12142936D01*
X8148753Y-12142936D02*
X8148753Y-12161984D01*
X8329705Y-11961984D02*
X8291610Y-11961984D01*
X8291610Y-11961984D02*
X8272562Y-11971508D01*
X8272562Y-11971508D02*
X8263039Y-11981031D01*
X8263039Y-11981031D02*
X8243991Y-12009603D01*
X8243991Y-12009603D02*
X8234467Y-12047698D01*
X8234467Y-12047698D02*
X8234467Y-12123888D01*
X8234467Y-12123888D02*
X8243991Y-12142936D01*
X8243991Y-12142936D02*
X8253515Y-12152460D01*
X8253515Y-12152460D02*
X8272562Y-12161984D01*
X8272562Y-12161984D02*
X8310658Y-12161984D01*
X8310658Y-12161984D02*
X8329705Y-12152460D01*
X8329705Y-12152460D02*
X8339229Y-12142936D01*
X8339229Y-12142936D02*
X8348753Y-12123888D01*
X8348753Y-12123888D02*
X8348753Y-12076269D01*
X8348753Y-12076269D02*
X8339229Y-12057222D01*
X8339229Y-12057222D02*
X8329705Y-12047698D01*
X8329705Y-12047698D02*
X8310658Y-12038174D01*
X8310658Y-12038174D02*
X8272562Y-12038174D01*
X8272562Y-12038174D02*
X8253515Y-12047698D01*
X8253515Y-12047698D02*
X8243991Y-12057222D01*
X8243991Y-12057222D02*
X8234467Y-12076269D01*
X8529705Y-11961984D02*
X8434467Y-11961984D01*
X8434467Y-11961984D02*
X8424944Y-12057222D01*
X8424944Y-12057222D02*
X8434467Y-12047698D01*
X8434467Y-12047698D02*
X8453515Y-12038174D01*
X8453515Y-12038174D02*
X8501134Y-12038174D01*
X8501134Y-12038174D02*
X8520182Y-12047698D01*
X8520182Y-12047698D02*
X8529705Y-12057222D01*
X8529705Y-12057222D02*
X8539229Y-12076269D01*
X8539229Y-12076269D02*
X8539229Y-12123888D01*
X8539229Y-12123888D02*
X8529705Y-12142936D01*
X8529705Y-12142936D02*
X8520182Y-12152460D01*
X8520182Y-12152460D02*
X8501134Y-12161984D01*
X8501134Y-12161984D02*
X8453515Y-12161984D01*
X8453515Y-12161984D02*
X8434467Y-12152460D01*
X8434467Y-12152460D02*
X8424944Y-12142936D01*
X8663039Y-11961984D02*
X8682086Y-11961984D01*
X8682086Y-11961984D02*
X8701134Y-11971508D01*
X8701134Y-11971508D02*
X8710658Y-11981031D01*
X8710658Y-11981031D02*
X8720182Y-12000079D01*
X8720182Y-12000079D02*
X8729705Y-12038174D01*
X8729705Y-12038174D02*
X8729705Y-12085793D01*
X8729705Y-12085793D02*
X8720182Y-12123888D01*
X8720182Y-12123888D02*
X8710658Y-12142936D01*
X8710658Y-12142936D02*
X8701134Y-12152460D01*
X8701134Y-12152460D02*
X8682086Y-12161984D01*
X8682086Y-12161984D02*
X8663039Y-12161984D01*
X8663039Y-12161984D02*
X8643991Y-12152460D01*
X8643991Y-12152460D02*
X8634467Y-12142936D01*
X8634467Y-12142936D02*
X8624944Y-12123888D01*
X8624944Y-12123888D02*
X8615420Y-12085793D01*
X8615420Y-12085793D02*
X8615420Y-12038174D01*
X8615420Y-12038174D02*
X8624944Y-12000079D01*
X8624944Y-12000079D02*
X8634467Y-11981031D01*
X8634467Y-11981031D02*
X8643991Y-11971508D01*
X8643991Y-11971508D02*
X8663039Y-11961984D01*
X8815420Y-12161984D02*
X8815420Y-12028650D01*
X8815420Y-12047698D02*
X8824944Y-12038174D01*
X8824944Y-12038174D02*
X8843991Y-12028650D01*
X8843991Y-12028650D02*
X8872563Y-12028650D01*
X8872563Y-12028650D02*
X8891610Y-12038174D01*
X8891610Y-12038174D02*
X8901134Y-12057222D01*
X8901134Y-12057222D02*
X8901134Y-12161984D01*
X8901134Y-12057222D02*
X8910658Y-12038174D01*
X8910658Y-12038174D02*
X8929705Y-12028650D01*
X8929705Y-12028650D02*
X8958277Y-12028650D01*
X8958277Y-12028650D02*
X8977325Y-12038174D01*
X8977325Y-12038174D02*
X8986848Y-12057222D01*
X8986848Y-12057222D02*
X8986848Y-12161984D01*
X9082086Y-12161984D02*
X9082086Y-12028650D01*
X9082086Y-12047698D02*
X9091610Y-12038174D01*
X9091610Y-12038174D02*
X9110658Y-12028650D01*
X9110658Y-12028650D02*
X9139229Y-12028650D01*
X9139229Y-12028650D02*
X9158277Y-12038174D01*
X9158277Y-12038174D02*
X9167801Y-12057222D01*
X9167801Y-12057222D02*
X9167801Y-12161984D01*
X9167801Y-12057222D02*
X9177325Y-12038174D01*
X9177325Y-12038174D02*
X9196372Y-12028650D01*
X9196372Y-12028650D02*
X9224944Y-12028650D01*
X9224944Y-12028650D02*
X9243991Y-12038174D01*
X9243991Y-12038174D02*
X9253515Y-12057222D01*
X9253515Y-12057222D02*
X9253515Y-12161984D01*
X9643991Y-11952460D02*
X9472563Y-12209603D01*
X9901134Y-11961984D02*
X9920182Y-11961984D01*
X9920182Y-11961984D02*
X9939229Y-11971508D01*
X9939229Y-11971508D02*
X9948753Y-11981031D01*
X9948753Y-11981031D02*
X9958277Y-12000079D01*
X9958277Y-12000079D02*
X9967801Y-12038174D01*
X9967801Y-12038174D02*
X9967801Y-12085793D01*
X9967801Y-12085793D02*
X9958277Y-12123888D01*
X9958277Y-12123888D02*
X9948753Y-12142936D01*
X9948753Y-12142936D02*
X9939229Y-12152460D01*
X9939229Y-12152460D02*
X9920182Y-12161984D01*
X9920182Y-12161984D02*
X9901134Y-12161984D01*
X9901134Y-12161984D02*
X9882087Y-12152460D01*
X9882087Y-12152460D02*
X9872563Y-12142936D01*
X9872563Y-12142936D02*
X9863039Y-12123888D01*
X9863039Y-12123888D02*
X9853515Y-12085793D01*
X9853515Y-12085793D02*
X9853515Y-12038174D01*
X9853515Y-12038174D02*
X9863039Y-12000079D01*
X9863039Y-12000079D02*
X9872563Y-11981031D01*
X9872563Y-11981031D02*
X9882087Y-11971508D01*
X9882087Y-11971508D02*
X9901134Y-11961984D01*
X10053515Y-12142936D02*
X10063039Y-12152460D01*
X10063039Y-12152460D02*
X10053515Y-12161984D01*
X10053515Y-12161984D02*
X10043991Y-12152460D01*
X10043991Y-12152460D02*
X10053515Y-12142936D01*
X10053515Y-12142936D02*
X10053515Y-12161984D01*
X10186848Y-11961984D02*
X10205896Y-11961984D01*
X10205896Y-11961984D02*
X10224944Y-11971508D01*
X10224944Y-11971508D02*
X10234468Y-11981031D01*
X10234468Y-11981031D02*
X10243991Y-12000079D01*
X10243991Y-12000079D02*
X10253515Y-12038174D01*
X10253515Y-12038174D02*
X10253515Y-12085793D01*
X10253515Y-12085793D02*
X10243991Y-12123888D01*
X10243991Y-12123888D02*
X10234468Y-12142936D01*
X10234468Y-12142936D02*
X10224944Y-12152460D01*
X10224944Y-12152460D02*
X10205896Y-12161984D01*
X10205896Y-12161984D02*
X10186848Y-12161984D01*
X10186848Y-12161984D02*
X10167801Y-12152460D01*
X10167801Y-12152460D02*
X10158277Y-12142936D01*
X10158277Y-12142936D02*
X10148753Y-12123888D01*
X10148753Y-12123888D02*
X10139229Y-12085793D01*
X10139229Y-12085793D02*
X10139229Y-12038174D01*
X10139229Y-12038174D02*
X10148753Y-12000079D01*
X10148753Y-12000079D02*
X10158277Y-11981031D01*
X10158277Y-11981031D02*
X10167801Y-11971508D01*
X10167801Y-11971508D02*
X10186848Y-11961984D01*
X10329706Y-11981031D02*
X10339229Y-11971508D01*
X10339229Y-11971508D02*
X10358277Y-11961984D01*
X10358277Y-11961984D02*
X10405896Y-11961984D01*
X10405896Y-11961984D02*
X10424944Y-11971508D01*
X10424944Y-11971508D02*
X10434468Y-11981031D01*
X10434468Y-11981031D02*
X10443991Y-12000079D01*
X10443991Y-12000079D02*
X10443991Y-12019127D01*
X10443991Y-12019127D02*
X10434468Y-12047698D01*
X10434468Y-12047698D02*
X10320182Y-12161984D01*
X10320182Y-12161984D02*
X10443991Y-12161984D01*
X10624944Y-11961984D02*
X10529706Y-11961984D01*
X10529706Y-11961984D02*
X10520182Y-12057222D01*
X10520182Y-12057222D02*
X10529706Y-12047698D01*
X10529706Y-12047698D02*
X10548753Y-12038174D01*
X10548753Y-12038174D02*
X10596372Y-12038174D01*
X10596372Y-12038174D02*
X10615420Y-12047698D01*
X10615420Y-12047698D02*
X10624944Y-12057222D01*
X10624944Y-12057222D02*
X10634468Y-12076269D01*
X10634468Y-12076269D02*
X10634468Y-12123888D01*
X10634468Y-12123888D02*
X10624944Y-12142936D01*
X10624944Y-12142936D02*
X10615420Y-12152460D01*
X10615420Y-12152460D02*
X10596372Y-12161984D01*
X10596372Y-12161984D02*
X10548753Y-12161984D01*
X10548753Y-12161984D02*
X10529706Y-12152460D01*
X10529706Y-12152460D02*
X10520182Y-12142936D01*
X10805896Y-11961984D02*
X10767801Y-11961984D01*
X10767801Y-11961984D02*
X10748753Y-11971508D01*
X10748753Y-11971508D02*
X10739229Y-11981031D01*
X10739229Y-11981031D02*
X10720182Y-12009603D01*
X10720182Y-12009603D02*
X10710658Y-12047698D01*
X10710658Y-12047698D02*
X10710658Y-12123888D01*
X10710658Y-12123888D02*
X10720182Y-12142936D01*
X10720182Y-12142936D02*
X10729706Y-12152460D01*
X10729706Y-12152460D02*
X10748753Y-12161984D01*
X10748753Y-12161984D02*
X10786849Y-12161984D01*
X10786849Y-12161984D02*
X10805896Y-12152460D01*
X10805896Y-12152460D02*
X10815420Y-12142936D01*
X10815420Y-12142936D02*
X10824944Y-12123888D01*
X10824944Y-12123888D02*
X10824944Y-12076269D01*
X10824944Y-12076269D02*
X10815420Y-12057222D01*
X10815420Y-12057222D02*
X10805896Y-12047698D01*
X10805896Y-12047698D02*
X10786849Y-12038174D01*
X10786849Y-12038174D02*
X10748753Y-12038174D01*
X10748753Y-12038174D02*
X10729706Y-12047698D01*
X10729706Y-12047698D02*
X10720182Y-12057222D01*
X10720182Y-12057222D02*
X10710658Y-12076269D01*
X10901134Y-11961984D02*
X10901134Y-12000079D01*
X10977325Y-11961984D02*
X10977325Y-12000079D01*
X11272563Y-12238174D02*
X11263039Y-12228650D01*
X11263039Y-12228650D02*
X11243991Y-12200079D01*
X11243991Y-12200079D02*
X11234468Y-12181031D01*
X11234468Y-12181031D02*
X11224944Y-12152460D01*
X11224944Y-12152460D02*
X11215420Y-12104841D01*
X11215420Y-12104841D02*
X11215420Y-12066746D01*
X11215420Y-12066746D02*
X11224944Y-12019127D01*
X11224944Y-12019127D02*
X11234468Y-11990555D01*
X11234468Y-11990555D02*
X11243991Y-11971508D01*
X11243991Y-11971508D02*
X11263039Y-11942936D01*
X11263039Y-11942936D02*
X11272563Y-11933412D01*
X11386848Y-11961984D02*
X11405896Y-11961984D01*
X11405896Y-11961984D02*
X11424944Y-11971508D01*
X11424944Y-11971508D02*
X11434468Y-11981031D01*
X11434468Y-11981031D02*
X11443991Y-12000079D01*
X11443991Y-12000079D02*
X11453515Y-12038174D01*
X11453515Y-12038174D02*
X11453515Y-12085793D01*
X11453515Y-12085793D02*
X11443991Y-12123888D01*
X11443991Y-12123888D02*
X11434468Y-12142936D01*
X11434468Y-12142936D02*
X11424944Y-12152460D01*
X11424944Y-12152460D02*
X11405896Y-12161984D01*
X11405896Y-12161984D02*
X11386848Y-12161984D01*
X11386848Y-12161984D02*
X11367801Y-12152460D01*
X11367801Y-12152460D02*
X11358277Y-12142936D01*
X11358277Y-12142936D02*
X11348753Y-12123888D01*
X11348753Y-12123888D02*
X11339229Y-12085793D01*
X11339229Y-12085793D02*
X11339229Y-12038174D01*
X11339229Y-12038174D02*
X11348753Y-12000079D01*
X11348753Y-12000079D02*
X11358277Y-11981031D01*
X11358277Y-11981031D02*
X11367801Y-11971508D01*
X11367801Y-11971508D02*
X11386848Y-11961984D01*
X11691610Y-12161984D02*
X11691610Y-11961984D01*
X11777325Y-12161984D02*
X11777325Y-12057222D01*
X11777325Y-12057222D02*
X11767801Y-12038174D01*
X11767801Y-12038174D02*
X11748753Y-12028650D01*
X11748753Y-12028650D02*
X11720182Y-12028650D01*
X11720182Y-12028650D02*
X11701134Y-12038174D01*
X11701134Y-12038174D02*
X11691610Y-12047698D01*
X11901134Y-12161984D02*
X11882087Y-12152460D01*
X11882087Y-12152460D02*
X11872563Y-12142936D01*
X11872563Y-12142936D02*
X11863039Y-12123888D01*
X11863039Y-12123888D02*
X11863039Y-12066746D01*
X11863039Y-12066746D02*
X11872563Y-12047698D01*
X11872563Y-12047698D02*
X11882087Y-12038174D01*
X11882087Y-12038174D02*
X11901134Y-12028650D01*
X11901134Y-12028650D02*
X11929706Y-12028650D01*
X11929706Y-12028650D02*
X11948753Y-12038174D01*
X11948753Y-12038174D02*
X11958277Y-12047698D01*
X11958277Y-12047698D02*
X11967801Y-12066746D01*
X11967801Y-12066746D02*
X11967801Y-12123888D01*
X11967801Y-12123888D02*
X11958277Y-12142936D01*
X11958277Y-12142936D02*
X11948753Y-12152460D01*
X11948753Y-12152460D02*
X11929706Y-12161984D01*
X11929706Y-12161984D02*
X11901134Y-12161984D01*
X12082087Y-12161984D02*
X12063039Y-12152460D01*
X12063039Y-12152460D02*
X12053515Y-12133412D01*
X12053515Y-12133412D02*
X12053515Y-11961984D01*
X12234468Y-12152460D02*
X12215420Y-12161984D01*
X12215420Y-12161984D02*
X12177325Y-12161984D01*
X12177325Y-12161984D02*
X12158277Y-12152460D01*
X12158277Y-12152460D02*
X12148753Y-12133412D01*
X12148753Y-12133412D02*
X12148753Y-12057222D01*
X12148753Y-12057222D02*
X12158277Y-12038174D01*
X12158277Y-12038174D02*
X12177325Y-12028650D01*
X12177325Y-12028650D02*
X12215420Y-12028650D01*
X12215420Y-12028650D02*
X12234468Y-12038174D01*
X12234468Y-12038174D02*
X12243991Y-12057222D01*
X12243991Y-12057222D02*
X12243991Y-12076269D01*
X12243991Y-12076269D02*
X12148753Y-12095317D01*
X12320182Y-12152460D02*
X12339230Y-12161984D01*
X12339230Y-12161984D02*
X12377325Y-12161984D01*
X12377325Y-12161984D02*
X12396372Y-12152460D01*
X12396372Y-12152460D02*
X12405896Y-12133412D01*
X12405896Y-12133412D02*
X12405896Y-12123888D01*
X12405896Y-12123888D02*
X12396372Y-12104841D01*
X12396372Y-12104841D02*
X12377325Y-12095317D01*
X12377325Y-12095317D02*
X12348753Y-12095317D01*
X12348753Y-12095317D02*
X12329706Y-12085793D01*
X12329706Y-12085793D02*
X12320182Y-12066746D01*
X12320182Y-12066746D02*
X12320182Y-12057222D01*
X12320182Y-12057222D02*
X12329706Y-12038174D01*
X12329706Y-12038174D02*
X12348753Y-12028650D01*
X12348753Y-12028650D02*
X12377325Y-12028650D01*
X12377325Y-12028650D02*
X12396372Y-12038174D01*
X12643992Y-12085793D02*
X12796373Y-12085793D01*
X12720182Y-12161984D02*
X12720182Y-12009603D01*
X13129706Y-12028650D02*
X13129706Y-12161984D01*
X13082087Y-11952460D02*
X13034468Y-12095317D01*
X13034468Y-12095317D02*
X13158277Y-12095317D01*
X13377325Y-12152460D02*
X13396373Y-12161984D01*
X13396373Y-12161984D02*
X13434468Y-12161984D01*
X13434468Y-12161984D02*
X13453515Y-12152460D01*
X13453515Y-12152460D02*
X13463039Y-12133412D01*
X13463039Y-12133412D02*
X13463039Y-12123888D01*
X13463039Y-12123888D02*
X13453515Y-12104841D01*
X13453515Y-12104841D02*
X13434468Y-12095317D01*
X13434468Y-12095317D02*
X13405896Y-12095317D01*
X13405896Y-12095317D02*
X13386849Y-12085793D01*
X13386849Y-12085793D02*
X13377325Y-12066746D01*
X13377325Y-12066746D02*
X13377325Y-12057222D01*
X13377325Y-12057222D02*
X13386849Y-12038174D01*
X13386849Y-12038174D02*
X13405896Y-12028650D01*
X13405896Y-12028650D02*
X13434468Y-12028650D01*
X13434468Y-12028650D02*
X13453515Y-12038174D01*
X13577325Y-12161984D02*
X13558277Y-12152460D01*
X13558277Y-12152460D02*
X13548754Y-12133412D01*
X13548754Y-12133412D02*
X13548754Y-11961984D01*
X13682087Y-12161984D02*
X13663039Y-12152460D01*
X13663039Y-12152460D02*
X13653515Y-12142936D01*
X13653515Y-12142936D02*
X13643992Y-12123888D01*
X13643992Y-12123888D02*
X13643992Y-12066746D01*
X13643992Y-12066746D02*
X13653515Y-12047698D01*
X13653515Y-12047698D02*
X13663039Y-12038174D01*
X13663039Y-12038174D02*
X13682087Y-12028650D01*
X13682087Y-12028650D02*
X13710658Y-12028650D01*
X13710658Y-12028650D02*
X13729706Y-12038174D01*
X13729706Y-12038174D02*
X13739230Y-12047698D01*
X13739230Y-12047698D02*
X13748754Y-12066746D01*
X13748754Y-12066746D02*
X13748754Y-12123888D01*
X13748754Y-12123888D02*
X13739230Y-12142936D01*
X13739230Y-12142936D02*
X13729706Y-12152460D01*
X13729706Y-12152460D02*
X13710658Y-12161984D01*
X13710658Y-12161984D02*
X13682087Y-12161984D01*
X13805896Y-12028650D02*
X13882087Y-12028650D01*
X13834468Y-11961984D02*
X13834468Y-12133412D01*
X13834468Y-12133412D02*
X13843992Y-12152460D01*
X13843992Y-12152460D02*
X13863039Y-12161984D01*
X13863039Y-12161984D02*
X13882087Y-12161984D01*
X13939230Y-12152460D02*
X13958277Y-12161984D01*
X13958277Y-12161984D02*
X13996373Y-12161984D01*
X13996373Y-12161984D02*
X14015420Y-12152460D01*
X14015420Y-12152460D02*
X14024944Y-12133412D01*
X14024944Y-12133412D02*
X14024944Y-12123888D01*
X14024944Y-12123888D02*
X14015420Y-12104841D01*
X14015420Y-12104841D02*
X13996373Y-12095317D01*
X13996373Y-12095317D02*
X13967801Y-12095317D01*
X13967801Y-12095317D02*
X13948754Y-12085793D01*
X13948754Y-12085793D02*
X13939230Y-12066746D01*
X13939230Y-12066746D02*
X13939230Y-12057222D01*
X13939230Y-12057222D02*
X13948754Y-12038174D01*
X13948754Y-12038174D02*
X13967801Y-12028650D01*
X13967801Y-12028650D02*
X13996373Y-12028650D01*
X13996373Y-12028650D02*
X14015420Y-12038174D01*
X14091611Y-12238174D02*
X14101135Y-12228650D01*
X14101135Y-12228650D02*
X14120182Y-12200079D01*
X14120182Y-12200079D02*
X14129706Y-12181031D01*
X14129706Y-12181031D02*
X14139230Y-12152460D01*
X14139230Y-12152460D02*
X14148754Y-12104841D01*
X14148754Y-12104841D02*
X14148754Y-12066746D01*
X14148754Y-12066746D02*
X14139230Y-12019127D01*
X14139230Y-12019127D02*
X14129706Y-11990555D01*
X14129706Y-11990555D02*
X14120182Y-11971508D01*
X14120182Y-11971508D02*
X14101135Y-11942936D01*
X14101135Y-11942936D02*
X14091611Y-11933412D01*
D12*
X7684320Y-12366320D02*
X7684320Y-12302680D01*
X7620680Y-12302680D01*
X7620680Y-12366320D01*
X7684320Y-12366320D01*
D11*
X7996372Y-12225984D02*
X8015420Y-12225984D01*
X8015420Y-12225984D02*
X8034467Y-12235508D01*
X8034467Y-12235508D02*
X8043991Y-12245031D01*
X8043991Y-12245031D02*
X8053515Y-12264079D01*
X8053515Y-12264079D02*
X8063039Y-12302174D01*
X8063039Y-12302174D02*
X8063039Y-12349793D01*
X8063039Y-12349793D02*
X8053515Y-12387888D01*
X8053515Y-12387888D02*
X8043991Y-12406936D01*
X8043991Y-12406936D02*
X8034467Y-12416460D01*
X8034467Y-12416460D02*
X8015420Y-12425984D01*
X8015420Y-12425984D02*
X7996372Y-12425984D01*
X7996372Y-12425984D02*
X7977324Y-12416460D01*
X7977324Y-12416460D02*
X7967801Y-12406936D01*
X7967801Y-12406936D02*
X7958277Y-12387888D01*
X7958277Y-12387888D02*
X7948753Y-12349793D01*
X7948753Y-12349793D02*
X7948753Y-12302174D01*
X7948753Y-12302174D02*
X7958277Y-12264079D01*
X7958277Y-12264079D02*
X7967801Y-12245031D01*
X7967801Y-12245031D02*
X7977324Y-12235508D01*
X7977324Y-12235508D02*
X7996372Y-12225984D01*
X8148753Y-12406936D02*
X8158277Y-12416460D01*
X8158277Y-12416460D02*
X8148753Y-12425984D01*
X8148753Y-12425984D02*
X8139229Y-12416460D01*
X8139229Y-12416460D02*
X8148753Y-12406936D01*
X8148753Y-12406936D02*
X8148753Y-12425984D01*
X8253515Y-12425984D02*
X8291610Y-12425984D01*
X8291610Y-12425984D02*
X8310658Y-12416460D01*
X8310658Y-12416460D02*
X8320182Y-12406936D01*
X8320182Y-12406936D02*
X8339229Y-12378365D01*
X8339229Y-12378365D02*
X8348753Y-12340269D01*
X8348753Y-12340269D02*
X8348753Y-12264079D01*
X8348753Y-12264079D02*
X8339229Y-12245031D01*
X8339229Y-12245031D02*
X8329705Y-12235508D01*
X8329705Y-12235508D02*
X8310658Y-12225984D01*
X8310658Y-12225984D02*
X8272562Y-12225984D01*
X8272562Y-12225984D02*
X8253515Y-12235508D01*
X8253515Y-12235508D02*
X8243991Y-12245031D01*
X8243991Y-12245031D02*
X8234467Y-12264079D01*
X8234467Y-12264079D02*
X8234467Y-12311698D01*
X8234467Y-12311698D02*
X8243991Y-12330746D01*
X8243991Y-12330746D02*
X8253515Y-12340269D01*
X8253515Y-12340269D02*
X8272562Y-12349793D01*
X8272562Y-12349793D02*
X8310658Y-12349793D01*
X8310658Y-12349793D02*
X8329705Y-12340269D01*
X8329705Y-12340269D02*
X8339229Y-12330746D01*
X8339229Y-12330746D02*
X8348753Y-12311698D01*
X8472563Y-12225984D02*
X8491610Y-12225984D01*
X8491610Y-12225984D02*
X8510658Y-12235508D01*
X8510658Y-12235508D02*
X8520182Y-12245031D01*
X8520182Y-12245031D02*
X8529705Y-12264079D01*
X8529705Y-12264079D02*
X8539229Y-12302174D01*
X8539229Y-12302174D02*
X8539229Y-12349793D01*
X8539229Y-12349793D02*
X8529705Y-12387888D01*
X8529705Y-12387888D02*
X8520182Y-12406936D01*
X8520182Y-12406936D02*
X8510658Y-12416460D01*
X8510658Y-12416460D02*
X8491610Y-12425984D01*
X8491610Y-12425984D02*
X8472563Y-12425984D01*
X8472563Y-12425984D02*
X8453515Y-12416460D01*
X8453515Y-12416460D02*
X8443991Y-12406936D01*
X8443991Y-12406936D02*
X8434467Y-12387888D01*
X8434467Y-12387888D02*
X8424944Y-12349793D01*
X8424944Y-12349793D02*
X8424944Y-12302174D01*
X8424944Y-12302174D02*
X8434467Y-12264079D01*
X8434467Y-12264079D02*
X8443991Y-12245031D01*
X8443991Y-12245031D02*
X8453515Y-12235508D01*
X8453515Y-12235508D02*
X8472563Y-12225984D01*
X8663039Y-12225984D02*
X8682086Y-12225984D01*
X8682086Y-12225984D02*
X8701134Y-12235508D01*
X8701134Y-12235508D02*
X8710658Y-12245031D01*
X8710658Y-12245031D02*
X8720182Y-12264079D01*
X8720182Y-12264079D02*
X8729705Y-12302174D01*
X8729705Y-12302174D02*
X8729705Y-12349793D01*
X8729705Y-12349793D02*
X8720182Y-12387888D01*
X8720182Y-12387888D02*
X8710658Y-12406936D01*
X8710658Y-12406936D02*
X8701134Y-12416460D01*
X8701134Y-12416460D02*
X8682086Y-12425984D01*
X8682086Y-12425984D02*
X8663039Y-12425984D01*
X8663039Y-12425984D02*
X8643991Y-12416460D01*
X8643991Y-12416460D02*
X8634467Y-12406936D01*
X8634467Y-12406936D02*
X8624944Y-12387888D01*
X8624944Y-12387888D02*
X8615420Y-12349793D01*
X8615420Y-12349793D02*
X8615420Y-12302174D01*
X8615420Y-12302174D02*
X8624944Y-12264079D01*
X8624944Y-12264079D02*
X8634467Y-12245031D01*
X8634467Y-12245031D02*
X8643991Y-12235508D01*
X8643991Y-12235508D02*
X8663039Y-12225984D01*
X8815420Y-12425984D02*
X8815420Y-12292650D01*
X8815420Y-12311698D02*
X8824944Y-12302174D01*
X8824944Y-12302174D02*
X8843991Y-12292650D01*
X8843991Y-12292650D02*
X8872563Y-12292650D01*
X8872563Y-12292650D02*
X8891610Y-12302174D01*
X8891610Y-12302174D02*
X8901134Y-12321222D01*
X8901134Y-12321222D02*
X8901134Y-12425984D01*
X8901134Y-12321222D02*
X8910658Y-12302174D01*
X8910658Y-12302174D02*
X8929705Y-12292650D01*
X8929705Y-12292650D02*
X8958277Y-12292650D01*
X8958277Y-12292650D02*
X8977325Y-12302174D01*
X8977325Y-12302174D02*
X8986848Y-12321222D01*
X8986848Y-12321222D02*
X8986848Y-12425984D01*
X9082086Y-12425984D02*
X9082086Y-12292650D01*
X9082086Y-12311698D02*
X9091610Y-12302174D01*
X9091610Y-12302174D02*
X9110658Y-12292650D01*
X9110658Y-12292650D02*
X9139229Y-12292650D01*
X9139229Y-12292650D02*
X9158277Y-12302174D01*
X9158277Y-12302174D02*
X9167801Y-12321222D01*
X9167801Y-12321222D02*
X9167801Y-12425984D01*
X9167801Y-12321222D02*
X9177325Y-12302174D01*
X9177325Y-12302174D02*
X9196372Y-12292650D01*
X9196372Y-12292650D02*
X9224944Y-12292650D01*
X9224944Y-12292650D02*
X9243991Y-12302174D01*
X9243991Y-12302174D02*
X9253515Y-12321222D01*
X9253515Y-12321222D02*
X9253515Y-12425984D01*
X9643991Y-12216460D02*
X9472563Y-12473603D01*
X9901134Y-12225984D02*
X9920182Y-12225984D01*
X9920182Y-12225984D02*
X9939229Y-12235508D01*
X9939229Y-12235508D02*
X9948753Y-12245031D01*
X9948753Y-12245031D02*
X9958277Y-12264079D01*
X9958277Y-12264079D02*
X9967801Y-12302174D01*
X9967801Y-12302174D02*
X9967801Y-12349793D01*
X9967801Y-12349793D02*
X9958277Y-12387888D01*
X9958277Y-12387888D02*
X9948753Y-12406936D01*
X9948753Y-12406936D02*
X9939229Y-12416460D01*
X9939229Y-12416460D02*
X9920182Y-12425984D01*
X9920182Y-12425984D02*
X9901134Y-12425984D01*
X9901134Y-12425984D02*
X9882087Y-12416460D01*
X9882087Y-12416460D02*
X9872563Y-12406936D01*
X9872563Y-12406936D02*
X9863039Y-12387888D01*
X9863039Y-12387888D02*
X9853515Y-12349793D01*
X9853515Y-12349793D02*
X9853515Y-12302174D01*
X9853515Y-12302174D02*
X9863039Y-12264079D01*
X9863039Y-12264079D02*
X9872563Y-12245031D01*
X9872563Y-12245031D02*
X9882087Y-12235508D01*
X9882087Y-12235508D02*
X9901134Y-12225984D01*
X10053515Y-12406936D02*
X10063039Y-12416460D01*
X10063039Y-12416460D02*
X10053515Y-12425984D01*
X10053515Y-12425984D02*
X10043991Y-12416460D01*
X10043991Y-12416460D02*
X10053515Y-12406936D01*
X10053515Y-12406936D02*
X10053515Y-12425984D01*
X10186848Y-12225984D02*
X10205896Y-12225984D01*
X10205896Y-12225984D02*
X10224944Y-12235508D01*
X10224944Y-12235508D02*
X10234468Y-12245031D01*
X10234468Y-12245031D02*
X10243991Y-12264079D01*
X10243991Y-12264079D02*
X10253515Y-12302174D01*
X10253515Y-12302174D02*
X10253515Y-12349793D01*
X10253515Y-12349793D02*
X10243991Y-12387888D01*
X10243991Y-12387888D02*
X10234468Y-12406936D01*
X10234468Y-12406936D02*
X10224944Y-12416460D01*
X10224944Y-12416460D02*
X10205896Y-12425984D01*
X10205896Y-12425984D02*
X10186848Y-12425984D01*
X10186848Y-12425984D02*
X10167801Y-12416460D01*
X10167801Y-12416460D02*
X10158277Y-12406936D01*
X10158277Y-12406936D02*
X10148753Y-12387888D01*
X10148753Y-12387888D02*
X10139229Y-12349793D01*
X10139229Y-12349793D02*
X10139229Y-12302174D01*
X10139229Y-12302174D02*
X10148753Y-12264079D01*
X10148753Y-12264079D02*
X10158277Y-12245031D01*
X10158277Y-12245031D02*
X10167801Y-12235508D01*
X10167801Y-12235508D02*
X10186848Y-12225984D01*
X10320182Y-12225984D02*
X10443991Y-12225984D01*
X10443991Y-12225984D02*
X10377325Y-12302174D01*
X10377325Y-12302174D02*
X10405896Y-12302174D01*
X10405896Y-12302174D02*
X10424944Y-12311698D01*
X10424944Y-12311698D02*
X10434468Y-12321222D01*
X10434468Y-12321222D02*
X10443991Y-12340269D01*
X10443991Y-12340269D02*
X10443991Y-12387888D01*
X10443991Y-12387888D02*
X10434468Y-12406936D01*
X10434468Y-12406936D02*
X10424944Y-12416460D01*
X10424944Y-12416460D02*
X10405896Y-12425984D01*
X10405896Y-12425984D02*
X10348753Y-12425984D01*
X10348753Y-12425984D02*
X10329706Y-12416460D01*
X10329706Y-12416460D02*
X10320182Y-12406936D01*
X10624944Y-12225984D02*
X10529706Y-12225984D01*
X10529706Y-12225984D02*
X10520182Y-12321222D01*
X10520182Y-12321222D02*
X10529706Y-12311698D01*
X10529706Y-12311698D02*
X10548753Y-12302174D01*
X10548753Y-12302174D02*
X10596372Y-12302174D01*
X10596372Y-12302174D02*
X10615420Y-12311698D01*
X10615420Y-12311698D02*
X10624944Y-12321222D01*
X10624944Y-12321222D02*
X10634468Y-12340269D01*
X10634468Y-12340269D02*
X10634468Y-12387888D01*
X10634468Y-12387888D02*
X10624944Y-12406936D01*
X10624944Y-12406936D02*
X10615420Y-12416460D01*
X10615420Y-12416460D02*
X10596372Y-12425984D01*
X10596372Y-12425984D02*
X10548753Y-12425984D01*
X10548753Y-12425984D02*
X10529706Y-12416460D01*
X10529706Y-12416460D02*
X10520182Y-12406936D01*
X10805896Y-12292650D02*
X10805896Y-12425984D01*
X10758277Y-12216460D02*
X10710658Y-12359317D01*
X10710658Y-12359317D02*
X10834468Y-12359317D01*
X10901134Y-12225984D02*
X10901134Y-12264079D01*
X10977325Y-12225984D02*
X10977325Y-12264079D01*
X11272563Y-12502174D02*
X11263039Y-12492650D01*
X11263039Y-12492650D02*
X11243991Y-12464079D01*
X11243991Y-12464079D02*
X11234468Y-12445031D01*
X11234468Y-12445031D02*
X11224944Y-12416460D01*
X11224944Y-12416460D02*
X11215420Y-12368841D01*
X11215420Y-12368841D02*
X11215420Y-12330746D01*
X11215420Y-12330746D02*
X11224944Y-12283127D01*
X11224944Y-12283127D02*
X11234468Y-12254555D01*
X11234468Y-12254555D02*
X11243991Y-12235508D01*
X11243991Y-12235508D02*
X11263039Y-12206936D01*
X11263039Y-12206936D02*
X11272563Y-12197412D01*
X11453515Y-12425984D02*
X11339229Y-12425984D01*
X11396372Y-12425984D02*
X11396372Y-12225984D01*
X11396372Y-12225984D02*
X11377325Y-12254555D01*
X11377325Y-12254555D02*
X11358277Y-12273603D01*
X11358277Y-12273603D02*
X11339229Y-12283127D01*
X11577325Y-12225984D02*
X11596372Y-12225984D01*
X11596372Y-12225984D02*
X11615420Y-12235508D01*
X11615420Y-12235508D02*
X11624944Y-12245031D01*
X11624944Y-12245031D02*
X11634468Y-12264079D01*
X11634468Y-12264079D02*
X11643991Y-12302174D01*
X11643991Y-12302174D02*
X11643991Y-12349793D01*
X11643991Y-12349793D02*
X11634468Y-12387888D01*
X11634468Y-12387888D02*
X11624944Y-12406936D01*
X11624944Y-12406936D02*
X11615420Y-12416460D01*
X11615420Y-12416460D02*
X11596372Y-12425984D01*
X11596372Y-12425984D02*
X11577325Y-12425984D01*
X11577325Y-12425984D02*
X11558277Y-12416460D01*
X11558277Y-12416460D02*
X11548753Y-12406936D01*
X11548753Y-12406936D02*
X11539229Y-12387888D01*
X11539229Y-12387888D02*
X11529706Y-12349793D01*
X11529706Y-12349793D02*
X11529706Y-12302174D01*
X11529706Y-12302174D02*
X11539229Y-12264079D01*
X11539229Y-12264079D02*
X11548753Y-12245031D01*
X11548753Y-12245031D02*
X11558277Y-12235508D01*
X11558277Y-12235508D02*
X11577325Y-12225984D01*
X11882087Y-12425984D02*
X11882087Y-12225984D01*
X11967801Y-12425984D02*
X11967801Y-12321222D01*
X11967801Y-12321222D02*
X11958277Y-12302174D01*
X11958277Y-12302174D02*
X11939230Y-12292650D01*
X11939230Y-12292650D02*
X11910658Y-12292650D01*
X11910658Y-12292650D02*
X11891610Y-12302174D01*
X11891610Y-12302174D02*
X11882087Y-12311698D01*
X12091610Y-12425984D02*
X12072563Y-12416460D01*
X12072563Y-12416460D02*
X12063039Y-12406936D01*
X12063039Y-12406936D02*
X12053515Y-12387888D01*
X12053515Y-12387888D02*
X12053515Y-12330746D01*
X12053515Y-12330746D02*
X12063039Y-12311698D01*
X12063039Y-12311698D02*
X12072563Y-12302174D01*
X12072563Y-12302174D02*
X12091610Y-12292650D01*
X12091610Y-12292650D02*
X12120182Y-12292650D01*
X12120182Y-12292650D02*
X12139230Y-12302174D01*
X12139230Y-12302174D02*
X12148753Y-12311698D01*
X12148753Y-12311698D02*
X12158277Y-12330746D01*
X12158277Y-12330746D02*
X12158277Y-12387888D01*
X12158277Y-12387888D02*
X12148753Y-12406936D01*
X12148753Y-12406936D02*
X12139230Y-12416460D01*
X12139230Y-12416460D02*
X12120182Y-12425984D01*
X12120182Y-12425984D02*
X12091610Y-12425984D01*
X12272563Y-12425984D02*
X12253515Y-12416460D01*
X12253515Y-12416460D02*
X12243991Y-12397412D01*
X12243991Y-12397412D02*
X12243991Y-12225984D01*
X12424944Y-12416460D02*
X12405896Y-12425984D01*
X12405896Y-12425984D02*
X12367801Y-12425984D01*
X12367801Y-12425984D02*
X12348753Y-12416460D01*
X12348753Y-12416460D02*
X12339230Y-12397412D01*
X12339230Y-12397412D02*
X12339230Y-12321222D01*
X12339230Y-12321222D02*
X12348753Y-12302174D01*
X12348753Y-12302174D02*
X12367801Y-12292650D01*
X12367801Y-12292650D02*
X12405896Y-12292650D01*
X12405896Y-12292650D02*
X12424944Y-12302174D01*
X12424944Y-12302174D02*
X12434468Y-12321222D01*
X12434468Y-12321222D02*
X12434468Y-12340269D01*
X12434468Y-12340269D02*
X12339230Y-12359317D01*
X12510658Y-12416460D02*
X12529706Y-12425984D01*
X12529706Y-12425984D02*
X12567801Y-12425984D01*
X12567801Y-12425984D02*
X12586849Y-12416460D01*
X12586849Y-12416460D02*
X12596372Y-12397412D01*
X12596372Y-12397412D02*
X12596372Y-12387888D01*
X12596372Y-12387888D02*
X12586849Y-12368841D01*
X12586849Y-12368841D02*
X12567801Y-12359317D01*
X12567801Y-12359317D02*
X12539230Y-12359317D01*
X12539230Y-12359317D02*
X12520182Y-12349793D01*
X12520182Y-12349793D02*
X12510658Y-12330746D01*
X12510658Y-12330746D02*
X12510658Y-12321222D01*
X12510658Y-12321222D02*
X12520182Y-12302174D01*
X12520182Y-12302174D02*
X12539230Y-12292650D01*
X12539230Y-12292650D02*
X12567801Y-12292650D01*
X12567801Y-12292650D02*
X12586849Y-12302174D01*
X12663039Y-12502174D02*
X12672563Y-12492650D01*
X12672563Y-12492650D02*
X12691611Y-12464079D01*
X12691611Y-12464079D02*
X12701134Y-12445031D01*
X12701134Y-12445031D02*
X12710658Y-12416460D01*
X12710658Y-12416460D02*
X12720182Y-12368841D01*
X12720182Y-12368841D02*
X12720182Y-12330746D01*
X12720182Y-12330746D02*
X12710658Y-12283127D01*
X12710658Y-12283127D02*
X12701134Y-12254555D01*
X12701134Y-12254555D02*
X12691611Y-12235508D01*
X12691611Y-12235508D02*
X12672563Y-12206936D01*
X12672563Y-12206936D02*
X12663039Y-12197412D01*
D12*
X7647500Y-12648500D02*
X7697500Y-12598500D01*
X7647500Y-12548500D01*
X7597500Y-12598500D01*
X7647500Y-12648500D01*
D11*
X8063039Y-12689984D02*
X7948753Y-12689984D01*
X8005896Y-12689984D02*
X8005896Y-12489984D01*
X8005896Y-12489984D02*
X7986848Y-12518555D01*
X7986848Y-12518555D02*
X7967801Y-12537603D01*
X7967801Y-12537603D02*
X7948753Y-12547127D01*
X8148753Y-12670936D02*
X8158277Y-12680460D01*
X8158277Y-12680460D02*
X8148753Y-12689984D01*
X8148753Y-12689984D02*
X8139229Y-12680460D01*
X8139229Y-12680460D02*
X8148753Y-12670936D01*
X8148753Y-12670936D02*
X8148753Y-12689984D01*
X8282086Y-12489984D02*
X8301134Y-12489984D01*
X8301134Y-12489984D02*
X8320182Y-12499508D01*
X8320182Y-12499508D02*
X8329705Y-12509031D01*
X8329705Y-12509031D02*
X8339229Y-12528079D01*
X8339229Y-12528079D02*
X8348753Y-12566174D01*
X8348753Y-12566174D02*
X8348753Y-12613793D01*
X8348753Y-12613793D02*
X8339229Y-12651888D01*
X8339229Y-12651888D02*
X8329705Y-12670936D01*
X8329705Y-12670936D02*
X8320182Y-12680460D01*
X8320182Y-12680460D02*
X8301134Y-12689984D01*
X8301134Y-12689984D02*
X8282086Y-12689984D01*
X8282086Y-12689984D02*
X8263039Y-12680460D01*
X8263039Y-12680460D02*
X8253515Y-12670936D01*
X8253515Y-12670936D02*
X8243991Y-12651888D01*
X8243991Y-12651888D02*
X8234467Y-12613793D01*
X8234467Y-12613793D02*
X8234467Y-12566174D01*
X8234467Y-12566174D02*
X8243991Y-12528079D01*
X8243991Y-12528079D02*
X8253515Y-12509031D01*
X8253515Y-12509031D02*
X8263039Y-12499508D01*
X8263039Y-12499508D02*
X8282086Y-12489984D01*
X8472563Y-12489984D02*
X8491610Y-12489984D01*
X8491610Y-12489984D02*
X8510658Y-12499508D01*
X8510658Y-12499508D02*
X8520182Y-12509031D01*
X8520182Y-12509031D02*
X8529705Y-12528079D01*
X8529705Y-12528079D02*
X8539229Y-12566174D01*
X8539229Y-12566174D02*
X8539229Y-12613793D01*
X8539229Y-12613793D02*
X8529705Y-12651888D01*
X8529705Y-12651888D02*
X8520182Y-12670936D01*
X8520182Y-12670936D02*
X8510658Y-12680460D01*
X8510658Y-12680460D02*
X8491610Y-12689984D01*
X8491610Y-12689984D02*
X8472563Y-12689984D01*
X8472563Y-12689984D02*
X8453515Y-12680460D01*
X8453515Y-12680460D02*
X8443991Y-12670936D01*
X8443991Y-12670936D02*
X8434467Y-12651888D01*
X8434467Y-12651888D02*
X8424944Y-12613793D01*
X8424944Y-12613793D02*
X8424944Y-12566174D01*
X8424944Y-12566174D02*
X8434467Y-12528079D01*
X8434467Y-12528079D02*
X8443991Y-12509031D01*
X8443991Y-12509031D02*
X8453515Y-12499508D01*
X8453515Y-12499508D02*
X8472563Y-12489984D01*
X8663039Y-12489984D02*
X8682086Y-12489984D01*
X8682086Y-12489984D02*
X8701134Y-12499508D01*
X8701134Y-12499508D02*
X8710658Y-12509031D01*
X8710658Y-12509031D02*
X8720182Y-12528079D01*
X8720182Y-12528079D02*
X8729705Y-12566174D01*
X8729705Y-12566174D02*
X8729705Y-12613793D01*
X8729705Y-12613793D02*
X8720182Y-12651888D01*
X8720182Y-12651888D02*
X8710658Y-12670936D01*
X8710658Y-12670936D02*
X8701134Y-12680460D01*
X8701134Y-12680460D02*
X8682086Y-12689984D01*
X8682086Y-12689984D02*
X8663039Y-12689984D01*
X8663039Y-12689984D02*
X8643991Y-12680460D01*
X8643991Y-12680460D02*
X8634467Y-12670936D01*
X8634467Y-12670936D02*
X8624944Y-12651888D01*
X8624944Y-12651888D02*
X8615420Y-12613793D01*
X8615420Y-12613793D02*
X8615420Y-12566174D01*
X8615420Y-12566174D02*
X8624944Y-12528079D01*
X8624944Y-12528079D02*
X8634467Y-12509031D01*
X8634467Y-12509031D02*
X8643991Y-12499508D01*
X8643991Y-12499508D02*
X8663039Y-12489984D01*
X8815420Y-12689984D02*
X8815420Y-12556650D01*
X8815420Y-12575698D02*
X8824944Y-12566174D01*
X8824944Y-12566174D02*
X8843991Y-12556650D01*
X8843991Y-12556650D02*
X8872563Y-12556650D01*
X8872563Y-12556650D02*
X8891610Y-12566174D01*
X8891610Y-12566174D02*
X8901134Y-12585222D01*
X8901134Y-12585222D02*
X8901134Y-12689984D01*
X8901134Y-12585222D02*
X8910658Y-12566174D01*
X8910658Y-12566174D02*
X8929705Y-12556650D01*
X8929705Y-12556650D02*
X8958277Y-12556650D01*
X8958277Y-12556650D02*
X8977325Y-12566174D01*
X8977325Y-12566174D02*
X8986848Y-12585222D01*
X8986848Y-12585222D02*
X8986848Y-12689984D01*
X9082086Y-12689984D02*
X9082086Y-12556650D01*
X9082086Y-12575698D02*
X9091610Y-12566174D01*
X9091610Y-12566174D02*
X9110658Y-12556650D01*
X9110658Y-12556650D02*
X9139229Y-12556650D01*
X9139229Y-12556650D02*
X9158277Y-12566174D01*
X9158277Y-12566174D02*
X9167801Y-12585222D01*
X9167801Y-12585222D02*
X9167801Y-12689984D01*
X9167801Y-12585222D02*
X9177325Y-12566174D01*
X9177325Y-12566174D02*
X9196372Y-12556650D01*
X9196372Y-12556650D02*
X9224944Y-12556650D01*
X9224944Y-12556650D02*
X9243991Y-12566174D01*
X9243991Y-12566174D02*
X9253515Y-12585222D01*
X9253515Y-12585222D02*
X9253515Y-12689984D01*
X9643991Y-12480460D02*
X9472563Y-12737603D01*
X9901134Y-12489984D02*
X9920182Y-12489984D01*
X9920182Y-12489984D02*
X9939229Y-12499508D01*
X9939229Y-12499508D02*
X9948753Y-12509031D01*
X9948753Y-12509031D02*
X9958277Y-12528079D01*
X9958277Y-12528079D02*
X9967801Y-12566174D01*
X9967801Y-12566174D02*
X9967801Y-12613793D01*
X9967801Y-12613793D02*
X9958277Y-12651888D01*
X9958277Y-12651888D02*
X9948753Y-12670936D01*
X9948753Y-12670936D02*
X9939229Y-12680460D01*
X9939229Y-12680460D02*
X9920182Y-12689984D01*
X9920182Y-12689984D02*
X9901134Y-12689984D01*
X9901134Y-12689984D02*
X9882087Y-12680460D01*
X9882087Y-12680460D02*
X9872563Y-12670936D01*
X9872563Y-12670936D02*
X9863039Y-12651888D01*
X9863039Y-12651888D02*
X9853515Y-12613793D01*
X9853515Y-12613793D02*
X9853515Y-12566174D01*
X9853515Y-12566174D02*
X9863039Y-12528079D01*
X9863039Y-12528079D02*
X9872563Y-12509031D01*
X9872563Y-12509031D02*
X9882087Y-12499508D01*
X9882087Y-12499508D02*
X9901134Y-12489984D01*
X10053515Y-12670936D02*
X10063039Y-12680460D01*
X10063039Y-12680460D02*
X10053515Y-12689984D01*
X10053515Y-12689984D02*
X10043991Y-12680460D01*
X10043991Y-12680460D02*
X10053515Y-12670936D01*
X10053515Y-12670936D02*
X10053515Y-12689984D01*
X10186848Y-12489984D02*
X10205896Y-12489984D01*
X10205896Y-12489984D02*
X10224944Y-12499508D01*
X10224944Y-12499508D02*
X10234468Y-12509031D01*
X10234468Y-12509031D02*
X10243991Y-12528079D01*
X10243991Y-12528079D02*
X10253515Y-12566174D01*
X10253515Y-12566174D02*
X10253515Y-12613793D01*
X10253515Y-12613793D02*
X10243991Y-12651888D01*
X10243991Y-12651888D02*
X10234468Y-12670936D01*
X10234468Y-12670936D02*
X10224944Y-12680460D01*
X10224944Y-12680460D02*
X10205896Y-12689984D01*
X10205896Y-12689984D02*
X10186848Y-12689984D01*
X10186848Y-12689984D02*
X10167801Y-12680460D01*
X10167801Y-12680460D02*
X10158277Y-12670936D01*
X10158277Y-12670936D02*
X10148753Y-12651888D01*
X10148753Y-12651888D02*
X10139229Y-12613793D01*
X10139229Y-12613793D02*
X10139229Y-12566174D01*
X10139229Y-12566174D02*
X10148753Y-12528079D01*
X10148753Y-12528079D02*
X10158277Y-12509031D01*
X10158277Y-12509031D02*
X10167801Y-12499508D01*
X10167801Y-12499508D02*
X10186848Y-12489984D01*
X10320182Y-12489984D02*
X10443991Y-12489984D01*
X10443991Y-12489984D02*
X10377325Y-12566174D01*
X10377325Y-12566174D02*
X10405896Y-12566174D01*
X10405896Y-12566174D02*
X10424944Y-12575698D01*
X10424944Y-12575698D02*
X10434468Y-12585222D01*
X10434468Y-12585222D02*
X10443991Y-12604269D01*
X10443991Y-12604269D02*
X10443991Y-12651888D01*
X10443991Y-12651888D02*
X10434468Y-12670936D01*
X10434468Y-12670936D02*
X10424944Y-12680460D01*
X10424944Y-12680460D02*
X10405896Y-12689984D01*
X10405896Y-12689984D02*
X10348753Y-12689984D01*
X10348753Y-12689984D02*
X10329706Y-12680460D01*
X10329706Y-12680460D02*
X10320182Y-12670936D01*
X10539229Y-12689984D02*
X10577325Y-12689984D01*
X10577325Y-12689984D02*
X10596372Y-12680460D01*
X10596372Y-12680460D02*
X10605896Y-12670936D01*
X10605896Y-12670936D02*
X10624944Y-12642365D01*
X10624944Y-12642365D02*
X10634468Y-12604269D01*
X10634468Y-12604269D02*
X10634468Y-12528079D01*
X10634468Y-12528079D02*
X10624944Y-12509031D01*
X10624944Y-12509031D02*
X10615420Y-12499508D01*
X10615420Y-12499508D02*
X10596372Y-12489984D01*
X10596372Y-12489984D02*
X10558277Y-12489984D01*
X10558277Y-12489984D02*
X10539229Y-12499508D01*
X10539229Y-12499508D02*
X10529706Y-12509031D01*
X10529706Y-12509031D02*
X10520182Y-12528079D01*
X10520182Y-12528079D02*
X10520182Y-12575698D01*
X10520182Y-12575698D02*
X10529706Y-12594746D01*
X10529706Y-12594746D02*
X10539229Y-12604269D01*
X10539229Y-12604269D02*
X10558277Y-12613793D01*
X10558277Y-12613793D02*
X10596372Y-12613793D01*
X10596372Y-12613793D02*
X10615420Y-12604269D01*
X10615420Y-12604269D02*
X10624944Y-12594746D01*
X10624944Y-12594746D02*
X10634468Y-12575698D01*
X10805896Y-12556650D02*
X10805896Y-12689984D01*
X10758277Y-12480460D02*
X10710658Y-12623317D01*
X10710658Y-12623317D02*
X10834468Y-12623317D01*
X10901134Y-12489984D02*
X10901134Y-12528079D01*
X10977325Y-12489984D02*
X10977325Y-12528079D01*
X11272563Y-12766174D02*
X11263039Y-12756650D01*
X11263039Y-12756650D02*
X11243991Y-12728079D01*
X11243991Y-12728079D02*
X11234468Y-12709031D01*
X11234468Y-12709031D02*
X11224944Y-12680460D01*
X11224944Y-12680460D02*
X11215420Y-12632841D01*
X11215420Y-12632841D02*
X11215420Y-12594746D01*
X11215420Y-12594746D02*
X11224944Y-12547127D01*
X11224944Y-12547127D02*
X11234468Y-12518555D01*
X11234468Y-12518555D02*
X11243991Y-12499508D01*
X11243991Y-12499508D02*
X11263039Y-12470936D01*
X11263039Y-12470936D02*
X11272563Y-12461412D01*
X11386848Y-12489984D02*
X11405896Y-12489984D01*
X11405896Y-12489984D02*
X11424944Y-12499508D01*
X11424944Y-12499508D02*
X11434468Y-12509031D01*
X11434468Y-12509031D02*
X11443991Y-12528079D01*
X11443991Y-12528079D02*
X11453515Y-12566174D01*
X11453515Y-12566174D02*
X11453515Y-12613793D01*
X11453515Y-12613793D02*
X11443991Y-12651888D01*
X11443991Y-12651888D02*
X11434468Y-12670936D01*
X11434468Y-12670936D02*
X11424944Y-12680460D01*
X11424944Y-12680460D02*
X11405896Y-12689984D01*
X11405896Y-12689984D02*
X11386848Y-12689984D01*
X11386848Y-12689984D02*
X11367801Y-12680460D01*
X11367801Y-12680460D02*
X11358277Y-12670936D01*
X11358277Y-12670936D02*
X11348753Y-12651888D01*
X11348753Y-12651888D02*
X11339229Y-12613793D01*
X11339229Y-12613793D02*
X11339229Y-12566174D01*
X11339229Y-12566174D02*
X11348753Y-12528079D01*
X11348753Y-12528079D02*
X11358277Y-12509031D01*
X11358277Y-12509031D02*
X11367801Y-12499508D01*
X11367801Y-12499508D02*
X11386848Y-12489984D01*
X11691610Y-12689984D02*
X11691610Y-12489984D01*
X11777325Y-12689984D02*
X11777325Y-12585222D01*
X11777325Y-12585222D02*
X11767801Y-12566174D01*
X11767801Y-12566174D02*
X11748753Y-12556650D01*
X11748753Y-12556650D02*
X11720182Y-12556650D01*
X11720182Y-12556650D02*
X11701134Y-12566174D01*
X11701134Y-12566174D02*
X11691610Y-12575698D01*
X11901134Y-12689984D02*
X11882087Y-12680460D01*
X11882087Y-12680460D02*
X11872563Y-12670936D01*
X11872563Y-12670936D02*
X11863039Y-12651888D01*
X11863039Y-12651888D02*
X11863039Y-12594746D01*
X11863039Y-12594746D02*
X11872563Y-12575698D01*
X11872563Y-12575698D02*
X11882087Y-12566174D01*
X11882087Y-12566174D02*
X11901134Y-12556650D01*
X11901134Y-12556650D02*
X11929706Y-12556650D01*
X11929706Y-12556650D02*
X11948753Y-12566174D01*
X11948753Y-12566174D02*
X11958277Y-12575698D01*
X11958277Y-12575698D02*
X11967801Y-12594746D01*
X11967801Y-12594746D02*
X11967801Y-12651888D01*
X11967801Y-12651888D02*
X11958277Y-12670936D01*
X11958277Y-12670936D02*
X11948753Y-12680460D01*
X11948753Y-12680460D02*
X11929706Y-12689984D01*
X11929706Y-12689984D02*
X11901134Y-12689984D01*
X12082087Y-12689984D02*
X12063039Y-12680460D01*
X12063039Y-12680460D02*
X12053515Y-12661412D01*
X12053515Y-12661412D02*
X12053515Y-12489984D01*
X12234468Y-12680460D02*
X12215420Y-12689984D01*
X12215420Y-12689984D02*
X12177325Y-12689984D01*
X12177325Y-12689984D02*
X12158277Y-12680460D01*
X12158277Y-12680460D02*
X12148753Y-12661412D01*
X12148753Y-12661412D02*
X12148753Y-12585222D01*
X12148753Y-12585222D02*
X12158277Y-12566174D01*
X12158277Y-12566174D02*
X12177325Y-12556650D01*
X12177325Y-12556650D02*
X12215420Y-12556650D01*
X12215420Y-12556650D02*
X12234468Y-12566174D01*
X12234468Y-12566174D02*
X12243991Y-12585222D01*
X12243991Y-12585222D02*
X12243991Y-12604269D01*
X12243991Y-12604269D02*
X12148753Y-12623317D01*
X12320182Y-12680460D02*
X12339230Y-12689984D01*
X12339230Y-12689984D02*
X12377325Y-12689984D01*
X12377325Y-12689984D02*
X12396372Y-12680460D01*
X12396372Y-12680460D02*
X12405896Y-12661412D01*
X12405896Y-12661412D02*
X12405896Y-12651888D01*
X12405896Y-12651888D02*
X12396372Y-12632841D01*
X12396372Y-12632841D02*
X12377325Y-12623317D01*
X12377325Y-12623317D02*
X12348753Y-12623317D01*
X12348753Y-12623317D02*
X12329706Y-12613793D01*
X12329706Y-12613793D02*
X12320182Y-12594746D01*
X12320182Y-12594746D02*
X12320182Y-12585222D01*
X12320182Y-12585222D02*
X12329706Y-12566174D01*
X12329706Y-12566174D02*
X12348753Y-12556650D01*
X12348753Y-12556650D02*
X12377325Y-12556650D01*
X12377325Y-12556650D02*
X12396372Y-12566174D01*
X12643992Y-12613793D02*
X12796373Y-12613793D01*
X12720182Y-12689984D02*
X12720182Y-12537603D01*
X13024944Y-12489984D02*
X13148753Y-12489984D01*
X13148753Y-12489984D02*
X13082087Y-12566174D01*
X13082087Y-12566174D02*
X13110658Y-12566174D01*
X13110658Y-12566174D02*
X13129706Y-12575698D01*
X13129706Y-12575698D02*
X13139230Y-12585222D01*
X13139230Y-12585222D02*
X13148753Y-12604269D01*
X13148753Y-12604269D02*
X13148753Y-12651888D01*
X13148753Y-12651888D02*
X13139230Y-12670936D01*
X13139230Y-12670936D02*
X13129706Y-12680460D01*
X13129706Y-12680460D02*
X13110658Y-12689984D01*
X13110658Y-12689984D02*
X13053515Y-12689984D01*
X13053515Y-12689984D02*
X13034468Y-12680460D01*
X13034468Y-12680460D02*
X13024944Y-12670936D01*
X13377325Y-12680460D02*
X13396373Y-12689984D01*
X13396373Y-12689984D02*
X13434468Y-12689984D01*
X13434468Y-12689984D02*
X13453515Y-12680460D01*
X13453515Y-12680460D02*
X13463039Y-12661412D01*
X13463039Y-12661412D02*
X13463039Y-12651888D01*
X13463039Y-12651888D02*
X13453515Y-12632841D01*
X13453515Y-12632841D02*
X13434468Y-12623317D01*
X13434468Y-12623317D02*
X13405896Y-12623317D01*
X13405896Y-12623317D02*
X13386849Y-12613793D01*
X13386849Y-12613793D02*
X13377325Y-12594746D01*
X13377325Y-12594746D02*
X13377325Y-12585222D01*
X13377325Y-12585222D02*
X13386849Y-12566174D01*
X13386849Y-12566174D02*
X13405896Y-12556650D01*
X13405896Y-12556650D02*
X13434468Y-12556650D01*
X13434468Y-12556650D02*
X13453515Y-12566174D01*
X13577325Y-12689984D02*
X13558277Y-12680460D01*
X13558277Y-12680460D02*
X13548754Y-12661412D01*
X13548754Y-12661412D02*
X13548754Y-12489984D01*
X13682087Y-12689984D02*
X13663039Y-12680460D01*
X13663039Y-12680460D02*
X13653515Y-12670936D01*
X13653515Y-12670936D02*
X13643992Y-12651888D01*
X13643992Y-12651888D02*
X13643992Y-12594746D01*
X13643992Y-12594746D02*
X13653515Y-12575698D01*
X13653515Y-12575698D02*
X13663039Y-12566174D01*
X13663039Y-12566174D02*
X13682087Y-12556650D01*
X13682087Y-12556650D02*
X13710658Y-12556650D01*
X13710658Y-12556650D02*
X13729706Y-12566174D01*
X13729706Y-12566174D02*
X13739230Y-12575698D01*
X13739230Y-12575698D02*
X13748754Y-12594746D01*
X13748754Y-12594746D02*
X13748754Y-12651888D01*
X13748754Y-12651888D02*
X13739230Y-12670936D01*
X13739230Y-12670936D02*
X13729706Y-12680460D01*
X13729706Y-12680460D02*
X13710658Y-12689984D01*
X13710658Y-12689984D02*
X13682087Y-12689984D01*
X13805896Y-12556650D02*
X13882087Y-12556650D01*
X13834468Y-12489984D02*
X13834468Y-12661412D01*
X13834468Y-12661412D02*
X13843992Y-12680460D01*
X13843992Y-12680460D02*
X13863039Y-12689984D01*
X13863039Y-12689984D02*
X13882087Y-12689984D01*
X13939230Y-12680460D02*
X13958277Y-12689984D01*
X13958277Y-12689984D02*
X13996373Y-12689984D01*
X13996373Y-12689984D02*
X14015420Y-12680460D01*
X14015420Y-12680460D02*
X14024944Y-12661412D01*
X14024944Y-12661412D02*
X14024944Y-12651888D01*
X14024944Y-12651888D02*
X14015420Y-12632841D01*
X14015420Y-12632841D02*
X13996373Y-12623317D01*
X13996373Y-12623317D02*
X13967801Y-12623317D01*
X13967801Y-12623317D02*
X13948754Y-12613793D01*
X13948754Y-12613793D02*
X13939230Y-12594746D01*
X13939230Y-12594746D02*
X13939230Y-12585222D01*
X13939230Y-12585222D02*
X13948754Y-12566174D01*
X13948754Y-12566174D02*
X13967801Y-12556650D01*
X13967801Y-12556650D02*
X13996373Y-12556650D01*
X13996373Y-12556650D02*
X14015420Y-12566174D01*
X14091611Y-12766174D02*
X14101135Y-12756650D01*
X14101135Y-12756650D02*
X14120182Y-12728079D01*
X14120182Y-12728079D02*
X14129706Y-12709031D01*
X14129706Y-12709031D02*
X14139230Y-12680460D01*
X14139230Y-12680460D02*
X14148754Y-12632841D01*
X14148754Y-12632841D02*
X14148754Y-12594746D01*
X14148754Y-12594746D02*
X14139230Y-12547127D01*
X14139230Y-12547127D02*
X14129706Y-12518555D01*
X14129706Y-12518555D02*
X14120182Y-12499508D01*
X14120182Y-12499508D02*
X14101135Y-12470936D01*
X14101135Y-12470936D02*
X14091611Y-12461412D01*
D13*
X7567500Y-12797500D02*
X7697500Y-12927500D01*
X7697500Y-12797500D02*
X7567500Y-12927500D01*
X7697500Y-12862500D02*
G75*
G02*
X7567500Y-12862500I-65000J0D01*
G01*
X7567500Y-12862500D02*
G75*
G02*
X7697500Y-12862500I65000J0D01*
G01*
D11*
X8063039Y-12953984D02*
X7948753Y-12953984D01*
X8005896Y-12953984D02*
X8005896Y-12753984D01*
X8005896Y-12753984D02*
X7986848Y-12782555D01*
X7986848Y-12782555D02*
X7967801Y-12801603D01*
X7967801Y-12801603D02*
X7948753Y-12811127D01*
X8148753Y-12934936D02*
X8158277Y-12944460D01*
X8158277Y-12944460D02*
X8148753Y-12953984D01*
X8148753Y-12953984D02*
X8139229Y-12944460D01*
X8139229Y-12944460D02*
X8148753Y-12934936D01*
X8148753Y-12934936D02*
X8148753Y-12953984D01*
X8224943Y-12753984D02*
X8348753Y-12753984D01*
X8348753Y-12753984D02*
X8282086Y-12830174D01*
X8282086Y-12830174D02*
X8310658Y-12830174D01*
X8310658Y-12830174D02*
X8329705Y-12839698D01*
X8329705Y-12839698D02*
X8339229Y-12849222D01*
X8339229Y-12849222D02*
X8348753Y-12868269D01*
X8348753Y-12868269D02*
X8348753Y-12915888D01*
X8348753Y-12915888D02*
X8339229Y-12934936D01*
X8339229Y-12934936D02*
X8329705Y-12944460D01*
X8329705Y-12944460D02*
X8310658Y-12953984D01*
X8310658Y-12953984D02*
X8253515Y-12953984D01*
X8253515Y-12953984D02*
X8234467Y-12944460D01*
X8234467Y-12944460D02*
X8224943Y-12934936D01*
X8472563Y-12753984D02*
X8491610Y-12753984D01*
X8491610Y-12753984D02*
X8510658Y-12763508D01*
X8510658Y-12763508D02*
X8520182Y-12773031D01*
X8520182Y-12773031D02*
X8529705Y-12792079D01*
X8529705Y-12792079D02*
X8539229Y-12830174D01*
X8539229Y-12830174D02*
X8539229Y-12877793D01*
X8539229Y-12877793D02*
X8529705Y-12915888D01*
X8529705Y-12915888D02*
X8520182Y-12934936D01*
X8520182Y-12934936D02*
X8510658Y-12944460D01*
X8510658Y-12944460D02*
X8491610Y-12953984D01*
X8491610Y-12953984D02*
X8472563Y-12953984D01*
X8472563Y-12953984D02*
X8453515Y-12944460D01*
X8453515Y-12944460D02*
X8443991Y-12934936D01*
X8443991Y-12934936D02*
X8434467Y-12915888D01*
X8434467Y-12915888D02*
X8424944Y-12877793D01*
X8424944Y-12877793D02*
X8424944Y-12830174D01*
X8424944Y-12830174D02*
X8434467Y-12792079D01*
X8434467Y-12792079D02*
X8443991Y-12773031D01*
X8443991Y-12773031D02*
X8453515Y-12763508D01*
X8453515Y-12763508D02*
X8472563Y-12753984D01*
X8663039Y-12753984D02*
X8682086Y-12753984D01*
X8682086Y-12753984D02*
X8701134Y-12763508D01*
X8701134Y-12763508D02*
X8710658Y-12773031D01*
X8710658Y-12773031D02*
X8720182Y-12792079D01*
X8720182Y-12792079D02*
X8729705Y-12830174D01*
X8729705Y-12830174D02*
X8729705Y-12877793D01*
X8729705Y-12877793D02*
X8720182Y-12915888D01*
X8720182Y-12915888D02*
X8710658Y-12934936D01*
X8710658Y-12934936D02*
X8701134Y-12944460D01*
X8701134Y-12944460D02*
X8682086Y-12953984D01*
X8682086Y-12953984D02*
X8663039Y-12953984D01*
X8663039Y-12953984D02*
X8643991Y-12944460D01*
X8643991Y-12944460D02*
X8634467Y-12934936D01*
X8634467Y-12934936D02*
X8624944Y-12915888D01*
X8624944Y-12915888D02*
X8615420Y-12877793D01*
X8615420Y-12877793D02*
X8615420Y-12830174D01*
X8615420Y-12830174D02*
X8624944Y-12792079D01*
X8624944Y-12792079D02*
X8634467Y-12773031D01*
X8634467Y-12773031D02*
X8643991Y-12763508D01*
X8643991Y-12763508D02*
X8663039Y-12753984D01*
X8815420Y-12953984D02*
X8815420Y-12820650D01*
X8815420Y-12839698D02*
X8824944Y-12830174D01*
X8824944Y-12830174D02*
X8843991Y-12820650D01*
X8843991Y-12820650D02*
X8872563Y-12820650D01*
X8872563Y-12820650D02*
X8891610Y-12830174D01*
X8891610Y-12830174D02*
X8901134Y-12849222D01*
X8901134Y-12849222D02*
X8901134Y-12953984D01*
X8901134Y-12849222D02*
X8910658Y-12830174D01*
X8910658Y-12830174D02*
X8929705Y-12820650D01*
X8929705Y-12820650D02*
X8958277Y-12820650D01*
X8958277Y-12820650D02*
X8977325Y-12830174D01*
X8977325Y-12830174D02*
X8986848Y-12849222D01*
X8986848Y-12849222D02*
X8986848Y-12953984D01*
X9082086Y-12953984D02*
X9082086Y-12820650D01*
X9082086Y-12839698D02*
X9091610Y-12830174D01*
X9091610Y-12830174D02*
X9110658Y-12820650D01*
X9110658Y-12820650D02*
X9139229Y-12820650D01*
X9139229Y-12820650D02*
X9158277Y-12830174D01*
X9158277Y-12830174D02*
X9167801Y-12849222D01*
X9167801Y-12849222D02*
X9167801Y-12953984D01*
X9167801Y-12849222D02*
X9177325Y-12830174D01*
X9177325Y-12830174D02*
X9196372Y-12820650D01*
X9196372Y-12820650D02*
X9224944Y-12820650D01*
X9224944Y-12820650D02*
X9243991Y-12830174D01*
X9243991Y-12830174D02*
X9253515Y-12849222D01*
X9253515Y-12849222D02*
X9253515Y-12953984D01*
X9643991Y-12744460D02*
X9472563Y-13001603D01*
X9901134Y-12753984D02*
X9920182Y-12753984D01*
X9920182Y-12753984D02*
X9939229Y-12763508D01*
X9939229Y-12763508D02*
X9948753Y-12773031D01*
X9948753Y-12773031D02*
X9958277Y-12792079D01*
X9958277Y-12792079D02*
X9967801Y-12830174D01*
X9967801Y-12830174D02*
X9967801Y-12877793D01*
X9967801Y-12877793D02*
X9958277Y-12915888D01*
X9958277Y-12915888D02*
X9948753Y-12934936D01*
X9948753Y-12934936D02*
X9939229Y-12944460D01*
X9939229Y-12944460D02*
X9920182Y-12953984D01*
X9920182Y-12953984D02*
X9901134Y-12953984D01*
X9901134Y-12953984D02*
X9882087Y-12944460D01*
X9882087Y-12944460D02*
X9872563Y-12934936D01*
X9872563Y-12934936D02*
X9863039Y-12915888D01*
X9863039Y-12915888D02*
X9853515Y-12877793D01*
X9853515Y-12877793D02*
X9853515Y-12830174D01*
X9853515Y-12830174D02*
X9863039Y-12792079D01*
X9863039Y-12792079D02*
X9872563Y-12773031D01*
X9872563Y-12773031D02*
X9882087Y-12763508D01*
X9882087Y-12763508D02*
X9901134Y-12753984D01*
X10053515Y-12934936D02*
X10063039Y-12944460D01*
X10063039Y-12944460D02*
X10053515Y-12953984D01*
X10053515Y-12953984D02*
X10043991Y-12944460D01*
X10043991Y-12944460D02*
X10053515Y-12934936D01*
X10053515Y-12934936D02*
X10053515Y-12953984D01*
X10186848Y-12753984D02*
X10205896Y-12753984D01*
X10205896Y-12753984D02*
X10224944Y-12763508D01*
X10224944Y-12763508D02*
X10234468Y-12773031D01*
X10234468Y-12773031D02*
X10243991Y-12792079D01*
X10243991Y-12792079D02*
X10253515Y-12830174D01*
X10253515Y-12830174D02*
X10253515Y-12877793D01*
X10253515Y-12877793D02*
X10243991Y-12915888D01*
X10243991Y-12915888D02*
X10234468Y-12934936D01*
X10234468Y-12934936D02*
X10224944Y-12944460D01*
X10224944Y-12944460D02*
X10205896Y-12953984D01*
X10205896Y-12953984D02*
X10186848Y-12953984D01*
X10186848Y-12953984D02*
X10167801Y-12944460D01*
X10167801Y-12944460D02*
X10158277Y-12934936D01*
X10158277Y-12934936D02*
X10148753Y-12915888D01*
X10148753Y-12915888D02*
X10139229Y-12877793D01*
X10139229Y-12877793D02*
X10139229Y-12830174D01*
X10139229Y-12830174D02*
X10148753Y-12792079D01*
X10148753Y-12792079D02*
X10158277Y-12773031D01*
X10158277Y-12773031D02*
X10167801Y-12763508D01*
X10167801Y-12763508D02*
X10186848Y-12753984D01*
X10434468Y-12753984D02*
X10339229Y-12753984D01*
X10339229Y-12753984D02*
X10329706Y-12849222D01*
X10329706Y-12849222D02*
X10339229Y-12839698D01*
X10339229Y-12839698D02*
X10358277Y-12830174D01*
X10358277Y-12830174D02*
X10405896Y-12830174D01*
X10405896Y-12830174D02*
X10424944Y-12839698D01*
X10424944Y-12839698D02*
X10434468Y-12849222D01*
X10434468Y-12849222D02*
X10443991Y-12868269D01*
X10443991Y-12868269D02*
X10443991Y-12915888D01*
X10443991Y-12915888D02*
X10434468Y-12934936D01*
X10434468Y-12934936D02*
X10424944Y-12944460D01*
X10424944Y-12944460D02*
X10405896Y-12953984D01*
X10405896Y-12953984D02*
X10358277Y-12953984D01*
X10358277Y-12953984D02*
X10339229Y-12944460D01*
X10339229Y-12944460D02*
X10329706Y-12934936D01*
X10634468Y-12953984D02*
X10520182Y-12953984D01*
X10577325Y-12953984D02*
X10577325Y-12753984D01*
X10577325Y-12753984D02*
X10558277Y-12782555D01*
X10558277Y-12782555D02*
X10539229Y-12801603D01*
X10539229Y-12801603D02*
X10520182Y-12811127D01*
X10710658Y-12773031D02*
X10720182Y-12763508D01*
X10720182Y-12763508D02*
X10739229Y-12753984D01*
X10739229Y-12753984D02*
X10786849Y-12753984D01*
X10786849Y-12753984D02*
X10805896Y-12763508D01*
X10805896Y-12763508D02*
X10815420Y-12773031D01*
X10815420Y-12773031D02*
X10824944Y-12792079D01*
X10824944Y-12792079D02*
X10824944Y-12811127D01*
X10824944Y-12811127D02*
X10815420Y-12839698D01*
X10815420Y-12839698D02*
X10701134Y-12953984D01*
X10701134Y-12953984D02*
X10824944Y-12953984D01*
X10901134Y-12753984D02*
X10901134Y-12792079D01*
X10977325Y-12753984D02*
X10977325Y-12792079D01*
X11272563Y-13030174D02*
X11263039Y-13020650D01*
X11263039Y-13020650D02*
X11243991Y-12992079D01*
X11243991Y-12992079D02*
X11234468Y-12973031D01*
X11234468Y-12973031D02*
X11224944Y-12944460D01*
X11224944Y-12944460D02*
X11215420Y-12896841D01*
X11215420Y-12896841D02*
X11215420Y-12858746D01*
X11215420Y-12858746D02*
X11224944Y-12811127D01*
X11224944Y-12811127D02*
X11234468Y-12782555D01*
X11234468Y-12782555D02*
X11243991Y-12763508D01*
X11243991Y-12763508D02*
X11263039Y-12734936D01*
X11263039Y-12734936D02*
X11272563Y-12725412D01*
X11453515Y-12953984D02*
X11339229Y-12953984D01*
X11396372Y-12953984D02*
X11396372Y-12753984D01*
X11396372Y-12753984D02*
X11377325Y-12782555D01*
X11377325Y-12782555D02*
X11358277Y-12801603D01*
X11358277Y-12801603D02*
X11339229Y-12811127D01*
X11624944Y-12753984D02*
X11586848Y-12753984D01*
X11586848Y-12753984D02*
X11567801Y-12763508D01*
X11567801Y-12763508D02*
X11558277Y-12773031D01*
X11558277Y-12773031D02*
X11539229Y-12801603D01*
X11539229Y-12801603D02*
X11529706Y-12839698D01*
X11529706Y-12839698D02*
X11529706Y-12915888D01*
X11529706Y-12915888D02*
X11539229Y-12934936D01*
X11539229Y-12934936D02*
X11548753Y-12944460D01*
X11548753Y-12944460D02*
X11567801Y-12953984D01*
X11567801Y-12953984D02*
X11605896Y-12953984D01*
X11605896Y-12953984D02*
X11624944Y-12944460D01*
X11624944Y-12944460D02*
X11634468Y-12934936D01*
X11634468Y-12934936D02*
X11643991Y-12915888D01*
X11643991Y-12915888D02*
X11643991Y-12868269D01*
X11643991Y-12868269D02*
X11634468Y-12849222D01*
X11634468Y-12849222D02*
X11624944Y-12839698D01*
X11624944Y-12839698D02*
X11605896Y-12830174D01*
X11605896Y-12830174D02*
X11567801Y-12830174D01*
X11567801Y-12830174D02*
X11548753Y-12839698D01*
X11548753Y-12839698D02*
X11539229Y-12849222D01*
X11539229Y-12849222D02*
X11529706Y-12868269D01*
X11882087Y-12953984D02*
X11882087Y-12753984D01*
X11967801Y-12953984D02*
X11967801Y-12849222D01*
X11967801Y-12849222D02*
X11958277Y-12830174D01*
X11958277Y-12830174D02*
X11939230Y-12820650D01*
X11939230Y-12820650D02*
X11910658Y-12820650D01*
X11910658Y-12820650D02*
X11891610Y-12830174D01*
X11891610Y-12830174D02*
X11882087Y-12839698D01*
X12091610Y-12953984D02*
X12072563Y-12944460D01*
X12072563Y-12944460D02*
X12063039Y-12934936D01*
X12063039Y-12934936D02*
X12053515Y-12915888D01*
X12053515Y-12915888D02*
X12053515Y-12858746D01*
X12053515Y-12858746D02*
X12063039Y-12839698D01*
X12063039Y-12839698D02*
X12072563Y-12830174D01*
X12072563Y-12830174D02*
X12091610Y-12820650D01*
X12091610Y-12820650D02*
X12120182Y-12820650D01*
X12120182Y-12820650D02*
X12139230Y-12830174D01*
X12139230Y-12830174D02*
X12148753Y-12839698D01*
X12148753Y-12839698D02*
X12158277Y-12858746D01*
X12158277Y-12858746D02*
X12158277Y-12915888D01*
X12158277Y-12915888D02*
X12148753Y-12934936D01*
X12148753Y-12934936D02*
X12139230Y-12944460D01*
X12139230Y-12944460D02*
X12120182Y-12953984D01*
X12120182Y-12953984D02*
X12091610Y-12953984D01*
X12272563Y-12953984D02*
X12253515Y-12944460D01*
X12253515Y-12944460D02*
X12243991Y-12925412D01*
X12243991Y-12925412D02*
X12243991Y-12753984D01*
X12424944Y-12944460D02*
X12405896Y-12953984D01*
X12405896Y-12953984D02*
X12367801Y-12953984D01*
X12367801Y-12953984D02*
X12348753Y-12944460D01*
X12348753Y-12944460D02*
X12339230Y-12925412D01*
X12339230Y-12925412D02*
X12339230Y-12849222D01*
X12339230Y-12849222D02*
X12348753Y-12830174D01*
X12348753Y-12830174D02*
X12367801Y-12820650D01*
X12367801Y-12820650D02*
X12405896Y-12820650D01*
X12405896Y-12820650D02*
X12424944Y-12830174D01*
X12424944Y-12830174D02*
X12434468Y-12849222D01*
X12434468Y-12849222D02*
X12434468Y-12868269D01*
X12434468Y-12868269D02*
X12339230Y-12887317D01*
X12510658Y-12944460D02*
X12529706Y-12953984D01*
X12529706Y-12953984D02*
X12567801Y-12953984D01*
X12567801Y-12953984D02*
X12586849Y-12944460D01*
X12586849Y-12944460D02*
X12596372Y-12925412D01*
X12596372Y-12925412D02*
X12596372Y-12915888D01*
X12596372Y-12915888D02*
X12586849Y-12896841D01*
X12586849Y-12896841D02*
X12567801Y-12887317D01*
X12567801Y-12887317D02*
X12539230Y-12887317D01*
X12539230Y-12887317D02*
X12520182Y-12877793D01*
X12520182Y-12877793D02*
X12510658Y-12858746D01*
X12510658Y-12858746D02*
X12510658Y-12849222D01*
X12510658Y-12849222D02*
X12520182Y-12830174D01*
X12520182Y-12830174D02*
X12539230Y-12820650D01*
X12539230Y-12820650D02*
X12567801Y-12820650D01*
X12567801Y-12820650D02*
X12586849Y-12830174D01*
X12663039Y-13030174D02*
X12672563Y-13020650D01*
X12672563Y-13020650D02*
X12691611Y-12992079D01*
X12691611Y-12992079D02*
X12701134Y-12973031D01*
X12701134Y-12973031D02*
X12710658Y-12944460D01*
X12710658Y-12944460D02*
X12720182Y-12896841D01*
X12720182Y-12896841D02*
X12720182Y-12858746D01*
X12720182Y-12858746D02*
X12710658Y-12811127D01*
X12710658Y-12811127D02*
X12701134Y-12782555D01*
X12701134Y-12782555D02*
X12691611Y-12763508D01*
X12691611Y-12763508D02*
X12672563Y-12734936D01*
X12672563Y-12734936D02*
X12663039Y-12725412D01*
D12*
X7627500Y-13091500D02*
X7697500Y-13161500D01*
X7697500Y-13091500D02*
X7627500Y-13161500D01*
X7662500Y-13091500D02*
X7662500Y-13161500D01*
X7627500Y-13126500D02*
X7697500Y-13126500D01*
D11*
X7996372Y-13017984D02*
X8015420Y-13017984D01*
X8015420Y-13017984D02*
X8034467Y-13027508D01*
X8034467Y-13027508D02*
X8043991Y-13037031D01*
X8043991Y-13037031D02*
X8053515Y-13056079D01*
X8053515Y-13056079D02*
X8063039Y-13094174D01*
X8063039Y-13094174D02*
X8063039Y-13141793D01*
X8063039Y-13141793D02*
X8053515Y-13179888D01*
X8053515Y-13179888D02*
X8043991Y-13198936D01*
X8043991Y-13198936D02*
X8034467Y-13208460D01*
X8034467Y-13208460D02*
X8015420Y-13217984D01*
X8015420Y-13217984D02*
X7996372Y-13217984D01*
X7996372Y-13217984D02*
X7977324Y-13208460D01*
X7977324Y-13208460D02*
X7967801Y-13198936D01*
X7967801Y-13198936D02*
X7958277Y-13179888D01*
X7958277Y-13179888D02*
X7948753Y-13141793D01*
X7948753Y-13141793D02*
X7948753Y-13094174D01*
X7948753Y-13094174D02*
X7958277Y-13056079D01*
X7958277Y-13056079D02*
X7967801Y-13037031D01*
X7967801Y-13037031D02*
X7977324Y-13027508D01*
X7977324Y-13027508D02*
X7996372Y-13017984D01*
X8148753Y-13198936D02*
X8158277Y-13208460D01*
X8158277Y-13208460D02*
X8148753Y-13217984D01*
X8148753Y-13217984D02*
X8139229Y-13208460D01*
X8139229Y-13208460D02*
X8148753Y-13198936D01*
X8148753Y-13198936D02*
X8148753Y-13217984D01*
X8224943Y-13017984D02*
X8358277Y-13017984D01*
X8358277Y-13017984D02*
X8272562Y-13217984D01*
X8472563Y-13017984D02*
X8491610Y-13017984D01*
X8491610Y-13017984D02*
X8510658Y-13027508D01*
X8510658Y-13027508D02*
X8520182Y-13037031D01*
X8520182Y-13037031D02*
X8529705Y-13056079D01*
X8529705Y-13056079D02*
X8539229Y-13094174D01*
X8539229Y-13094174D02*
X8539229Y-13141793D01*
X8539229Y-13141793D02*
X8529705Y-13179888D01*
X8529705Y-13179888D02*
X8520182Y-13198936D01*
X8520182Y-13198936D02*
X8510658Y-13208460D01*
X8510658Y-13208460D02*
X8491610Y-13217984D01*
X8491610Y-13217984D02*
X8472563Y-13217984D01*
X8472563Y-13217984D02*
X8453515Y-13208460D01*
X8453515Y-13208460D02*
X8443991Y-13198936D01*
X8443991Y-13198936D02*
X8434467Y-13179888D01*
X8434467Y-13179888D02*
X8424944Y-13141793D01*
X8424944Y-13141793D02*
X8424944Y-13094174D01*
X8424944Y-13094174D02*
X8434467Y-13056079D01*
X8434467Y-13056079D02*
X8443991Y-13037031D01*
X8443991Y-13037031D02*
X8453515Y-13027508D01*
X8453515Y-13027508D02*
X8472563Y-13017984D01*
X8663039Y-13017984D02*
X8682086Y-13017984D01*
X8682086Y-13017984D02*
X8701134Y-13027508D01*
X8701134Y-13027508D02*
X8710658Y-13037031D01*
X8710658Y-13037031D02*
X8720182Y-13056079D01*
X8720182Y-13056079D02*
X8729705Y-13094174D01*
X8729705Y-13094174D02*
X8729705Y-13141793D01*
X8729705Y-13141793D02*
X8720182Y-13179888D01*
X8720182Y-13179888D02*
X8710658Y-13198936D01*
X8710658Y-13198936D02*
X8701134Y-13208460D01*
X8701134Y-13208460D02*
X8682086Y-13217984D01*
X8682086Y-13217984D02*
X8663039Y-13217984D01*
X8663039Y-13217984D02*
X8643991Y-13208460D01*
X8643991Y-13208460D02*
X8634467Y-13198936D01*
X8634467Y-13198936D02*
X8624944Y-13179888D01*
X8624944Y-13179888D02*
X8615420Y-13141793D01*
X8615420Y-13141793D02*
X8615420Y-13094174D01*
X8615420Y-13094174D02*
X8624944Y-13056079D01*
X8624944Y-13056079D02*
X8634467Y-13037031D01*
X8634467Y-13037031D02*
X8643991Y-13027508D01*
X8643991Y-13027508D02*
X8663039Y-13017984D01*
X8815420Y-13217984D02*
X8815420Y-13084650D01*
X8815420Y-13103698D02*
X8824944Y-13094174D01*
X8824944Y-13094174D02*
X8843991Y-13084650D01*
X8843991Y-13084650D02*
X8872563Y-13084650D01*
X8872563Y-13084650D02*
X8891610Y-13094174D01*
X8891610Y-13094174D02*
X8901134Y-13113222D01*
X8901134Y-13113222D02*
X8901134Y-13217984D01*
X8901134Y-13113222D02*
X8910658Y-13094174D01*
X8910658Y-13094174D02*
X8929705Y-13084650D01*
X8929705Y-13084650D02*
X8958277Y-13084650D01*
X8958277Y-13084650D02*
X8977325Y-13094174D01*
X8977325Y-13094174D02*
X8986848Y-13113222D01*
X8986848Y-13113222D02*
X8986848Y-13217984D01*
X9082086Y-13217984D02*
X9082086Y-13084650D01*
X9082086Y-13103698D02*
X9091610Y-13094174D01*
X9091610Y-13094174D02*
X9110658Y-13084650D01*
X9110658Y-13084650D02*
X9139229Y-13084650D01*
X9139229Y-13084650D02*
X9158277Y-13094174D01*
X9158277Y-13094174D02*
X9167801Y-13113222D01*
X9167801Y-13113222D02*
X9167801Y-13217984D01*
X9167801Y-13113222D02*
X9177325Y-13094174D01*
X9177325Y-13094174D02*
X9196372Y-13084650D01*
X9196372Y-13084650D02*
X9224944Y-13084650D01*
X9224944Y-13084650D02*
X9243991Y-13094174D01*
X9243991Y-13094174D02*
X9253515Y-13113222D01*
X9253515Y-13113222D02*
X9253515Y-13217984D01*
X9643991Y-13008460D02*
X9472563Y-13265603D01*
X9901134Y-13017984D02*
X9920182Y-13017984D01*
X9920182Y-13017984D02*
X9939229Y-13027508D01*
X9939229Y-13027508D02*
X9948753Y-13037031D01*
X9948753Y-13037031D02*
X9958277Y-13056079D01*
X9958277Y-13056079D02*
X9967801Y-13094174D01*
X9967801Y-13094174D02*
X9967801Y-13141793D01*
X9967801Y-13141793D02*
X9958277Y-13179888D01*
X9958277Y-13179888D02*
X9948753Y-13198936D01*
X9948753Y-13198936D02*
X9939229Y-13208460D01*
X9939229Y-13208460D02*
X9920182Y-13217984D01*
X9920182Y-13217984D02*
X9901134Y-13217984D01*
X9901134Y-13217984D02*
X9882087Y-13208460D01*
X9882087Y-13208460D02*
X9872563Y-13198936D01*
X9872563Y-13198936D02*
X9863039Y-13179888D01*
X9863039Y-13179888D02*
X9853515Y-13141793D01*
X9853515Y-13141793D02*
X9853515Y-13094174D01*
X9853515Y-13094174D02*
X9863039Y-13056079D01*
X9863039Y-13056079D02*
X9872563Y-13037031D01*
X9872563Y-13037031D02*
X9882087Y-13027508D01*
X9882087Y-13027508D02*
X9901134Y-13017984D01*
X10053515Y-13198936D02*
X10063039Y-13208460D01*
X10063039Y-13208460D02*
X10053515Y-13217984D01*
X10053515Y-13217984D02*
X10043991Y-13208460D01*
X10043991Y-13208460D02*
X10053515Y-13198936D01*
X10053515Y-13198936D02*
X10053515Y-13217984D01*
X10186848Y-13017984D02*
X10205896Y-13017984D01*
X10205896Y-13017984D02*
X10224944Y-13027508D01*
X10224944Y-13027508D02*
X10234468Y-13037031D01*
X10234468Y-13037031D02*
X10243991Y-13056079D01*
X10243991Y-13056079D02*
X10253515Y-13094174D01*
X10253515Y-13094174D02*
X10253515Y-13141793D01*
X10253515Y-13141793D02*
X10243991Y-13179888D01*
X10243991Y-13179888D02*
X10234468Y-13198936D01*
X10234468Y-13198936D02*
X10224944Y-13208460D01*
X10224944Y-13208460D02*
X10205896Y-13217984D01*
X10205896Y-13217984D02*
X10186848Y-13217984D01*
X10186848Y-13217984D02*
X10167801Y-13208460D01*
X10167801Y-13208460D02*
X10158277Y-13198936D01*
X10158277Y-13198936D02*
X10148753Y-13179888D01*
X10148753Y-13179888D02*
X10139229Y-13141793D01*
X10139229Y-13141793D02*
X10139229Y-13094174D01*
X10139229Y-13094174D02*
X10148753Y-13056079D01*
X10148753Y-13056079D02*
X10158277Y-13037031D01*
X10158277Y-13037031D02*
X10167801Y-13027508D01*
X10167801Y-13027508D02*
X10186848Y-13017984D01*
X10329706Y-13037031D02*
X10339229Y-13027508D01*
X10339229Y-13027508D02*
X10358277Y-13017984D01*
X10358277Y-13017984D02*
X10405896Y-13017984D01*
X10405896Y-13017984D02*
X10424944Y-13027508D01*
X10424944Y-13027508D02*
X10434468Y-13037031D01*
X10434468Y-13037031D02*
X10443991Y-13056079D01*
X10443991Y-13056079D02*
X10443991Y-13075127D01*
X10443991Y-13075127D02*
X10434468Y-13103698D01*
X10434468Y-13103698D02*
X10320182Y-13217984D01*
X10320182Y-13217984D02*
X10443991Y-13217984D01*
X10510658Y-13017984D02*
X10643991Y-13017984D01*
X10643991Y-13017984D02*
X10558277Y-13217984D01*
X10805896Y-13017984D02*
X10767801Y-13017984D01*
X10767801Y-13017984D02*
X10748753Y-13027508D01*
X10748753Y-13027508D02*
X10739229Y-13037031D01*
X10739229Y-13037031D02*
X10720182Y-13065603D01*
X10720182Y-13065603D02*
X10710658Y-13103698D01*
X10710658Y-13103698D02*
X10710658Y-13179888D01*
X10710658Y-13179888D02*
X10720182Y-13198936D01*
X10720182Y-13198936D02*
X10729706Y-13208460D01*
X10729706Y-13208460D02*
X10748753Y-13217984D01*
X10748753Y-13217984D02*
X10786849Y-13217984D01*
X10786849Y-13217984D02*
X10805896Y-13208460D01*
X10805896Y-13208460D02*
X10815420Y-13198936D01*
X10815420Y-13198936D02*
X10824944Y-13179888D01*
X10824944Y-13179888D02*
X10824944Y-13132269D01*
X10824944Y-13132269D02*
X10815420Y-13113222D01*
X10815420Y-13113222D02*
X10805896Y-13103698D01*
X10805896Y-13103698D02*
X10786849Y-13094174D01*
X10786849Y-13094174D02*
X10748753Y-13094174D01*
X10748753Y-13094174D02*
X10729706Y-13103698D01*
X10729706Y-13103698D02*
X10720182Y-13113222D01*
X10720182Y-13113222D02*
X10710658Y-13132269D01*
X10901134Y-13017984D02*
X10901134Y-13056079D01*
X10977325Y-13017984D02*
X10977325Y-13056079D01*
X11272563Y-13294174D02*
X11263039Y-13284650D01*
X11263039Y-13284650D02*
X11243991Y-13256079D01*
X11243991Y-13256079D02*
X11234468Y-13237031D01*
X11234468Y-13237031D02*
X11224944Y-13208460D01*
X11224944Y-13208460D02*
X11215420Y-13160841D01*
X11215420Y-13160841D02*
X11215420Y-13122746D01*
X11215420Y-13122746D02*
X11224944Y-13075127D01*
X11224944Y-13075127D02*
X11234468Y-13046555D01*
X11234468Y-13046555D02*
X11243991Y-13027508D01*
X11243991Y-13027508D02*
X11263039Y-12998936D01*
X11263039Y-12998936D02*
X11272563Y-12989412D01*
X11339229Y-13037031D02*
X11348753Y-13027508D01*
X11348753Y-13027508D02*
X11367801Y-13017984D01*
X11367801Y-13017984D02*
X11415420Y-13017984D01*
X11415420Y-13017984D02*
X11434468Y-13027508D01*
X11434468Y-13027508D02*
X11443991Y-13037031D01*
X11443991Y-13037031D02*
X11453515Y-13056079D01*
X11453515Y-13056079D02*
X11453515Y-13075127D01*
X11453515Y-13075127D02*
X11443991Y-13103698D01*
X11443991Y-13103698D02*
X11329706Y-13217984D01*
X11329706Y-13217984D02*
X11453515Y-13217984D01*
X11691610Y-13217984D02*
X11691610Y-13017984D01*
X11777325Y-13217984D02*
X11777325Y-13113222D01*
X11777325Y-13113222D02*
X11767801Y-13094174D01*
X11767801Y-13094174D02*
X11748753Y-13084650D01*
X11748753Y-13084650D02*
X11720182Y-13084650D01*
X11720182Y-13084650D02*
X11701134Y-13094174D01*
X11701134Y-13094174D02*
X11691610Y-13103698D01*
X11901134Y-13217984D02*
X11882087Y-13208460D01*
X11882087Y-13208460D02*
X11872563Y-13198936D01*
X11872563Y-13198936D02*
X11863039Y-13179888D01*
X11863039Y-13179888D02*
X11863039Y-13122746D01*
X11863039Y-13122746D02*
X11872563Y-13103698D01*
X11872563Y-13103698D02*
X11882087Y-13094174D01*
X11882087Y-13094174D02*
X11901134Y-13084650D01*
X11901134Y-13084650D02*
X11929706Y-13084650D01*
X11929706Y-13084650D02*
X11948753Y-13094174D01*
X11948753Y-13094174D02*
X11958277Y-13103698D01*
X11958277Y-13103698D02*
X11967801Y-13122746D01*
X11967801Y-13122746D02*
X11967801Y-13179888D01*
X11967801Y-13179888D02*
X11958277Y-13198936D01*
X11958277Y-13198936D02*
X11948753Y-13208460D01*
X11948753Y-13208460D02*
X11929706Y-13217984D01*
X11929706Y-13217984D02*
X11901134Y-13217984D01*
X12082087Y-13217984D02*
X12063039Y-13208460D01*
X12063039Y-13208460D02*
X12053515Y-13189412D01*
X12053515Y-13189412D02*
X12053515Y-13017984D01*
X12234468Y-13208460D02*
X12215420Y-13217984D01*
X12215420Y-13217984D02*
X12177325Y-13217984D01*
X12177325Y-13217984D02*
X12158277Y-13208460D01*
X12158277Y-13208460D02*
X12148753Y-13189412D01*
X12148753Y-13189412D02*
X12148753Y-13113222D01*
X12148753Y-13113222D02*
X12158277Y-13094174D01*
X12158277Y-13094174D02*
X12177325Y-13084650D01*
X12177325Y-13084650D02*
X12215420Y-13084650D01*
X12215420Y-13084650D02*
X12234468Y-13094174D01*
X12234468Y-13094174D02*
X12243991Y-13113222D01*
X12243991Y-13113222D02*
X12243991Y-13132269D01*
X12243991Y-13132269D02*
X12148753Y-13151317D01*
X12320182Y-13208460D02*
X12339230Y-13217984D01*
X12339230Y-13217984D02*
X12377325Y-13217984D01*
X12377325Y-13217984D02*
X12396372Y-13208460D01*
X12396372Y-13208460D02*
X12405896Y-13189412D01*
X12405896Y-13189412D02*
X12405896Y-13179888D01*
X12405896Y-13179888D02*
X12396372Y-13160841D01*
X12396372Y-13160841D02*
X12377325Y-13151317D01*
X12377325Y-13151317D02*
X12348753Y-13151317D01*
X12348753Y-13151317D02*
X12329706Y-13141793D01*
X12329706Y-13141793D02*
X12320182Y-13122746D01*
X12320182Y-13122746D02*
X12320182Y-13113222D01*
X12320182Y-13113222D02*
X12329706Y-13094174D01*
X12329706Y-13094174D02*
X12348753Y-13084650D01*
X12348753Y-13084650D02*
X12377325Y-13084650D01*
X12377325Y-13084650D02*
X12396372Y-13094174D01*
X12472563Y-13294174D02*
X12482087Y-13284650D01*
X12482087Y-13284650D02*
X12501134Y-13256079D01*
X12501134Y-13256079D02*
X12510658Y-13237031D01*
X12510658Y-13237031D02*
X12520182Y-13208460D01*
X12520182Y-13208460D02*
X12529706Y-13160841D01*
X12529706Y-13160841D02*
X12529706Y-13122746D01*
X12529706Y-13122746D02*
X12520182Y-13075127D01*
X12520182Y-13075127D02*
X12510658Y-13046555D01*
X12510658Y-13046555D02*
X12501134Y-13027508D01*
X12501134Y-13027508D02*
X12482087Y-12998936D01*
X12482087Y-12998936D02*
X12472563Y-12989412D01*
X12834468Y-13294174D02*
X12824944Y-13284650D01*
X12824944Y-13284650D02*
X12805896Y-13256079D01*
X12805896Y-13256079D02*
X12796372Y-13237031D01*
X12796372Y-13237031D02*
X12786849Y-13208460D01*
X12786849Y-13208460D02*
X12777325Y-13160841D01*
X12777325Y-13160841D02*
X12777325Y-13122746D01*
X12777325Y-13122746D02*
X12786849Y-13075127D01*
X12786849Y-13075127D02*
X12796372Y-13046555D01*
X12796372Y-13046555D02*
X12805896Y-13027508D01*
X12805896Y-13027508D02*
X12824944Y-12998936D01*
X12824944Y-12998936D02*
X12834468Y-12989412D01*
X12910658Y-13084650D02*
X12910658Y-13217984D01*
X12910658Y-13103698D02*
X12920182Y-13094174D01*
X12920182Y-13094174D02*
X12939230Y-13084650D01*
X12939230Y-13084650D02*
X12967801Y-13084650D01*
X12967801Y-13084650D02*
X12986849Y-13094174D01*
X12986849Y-13094174D02*
X12996372Y-13113222D01*
X12996372Y-13113222D02*
X12996372Y-13217984D01*
X13120182Y-13217984D02*
X13101134Y-13208460D01*
X13101134Y-13208460D02*
X13091611Y-13198936D01*
X13091611Y-13198936D02*
X13082087Y-13179888D01*
X13082087Y-13179888D02*
X13082087Y-13122746D01*
X13082087Y-13122746D02*
X13091611Y-13103698D01*
X13091611Y-13103698D02*
X13101134Y-13094174D01*
X13101134Y-13094174D02*
X13120182Y-13084650D01*
X13120182Y-13084650D02*
X13148753Y-13084650D01*
X13148753Y-13084650D02*
X13167801Y-13094174D01*
X13167801Y-13094174D02*
X13177325Y-13103698D01*
X13177325Y-13103698D02*
X13186849Y-13122746D01*
X13186849Y-13122746D02*
X13186849Y-13179888D01*
X13186849Y-13179888D02*
X13177325Y-13198936D01*
X13177325Y-13198936D02*
X13167801Y-13208460D01*
X13167801Y-13208460D02*
X13148753Y-13217984D01*
X13148753Y-13217984D02*
X13120182Y-13217984D01*
X13243992Y-13084650D02*
X13320182Y-13084650D01*
X13272563Y-13017984D02*
X13272563Y-13189412D01*
X13272563Y-13189412D02*
X13282087Y-13208460D01*
X13282087Y-13208460D02*
X13301134Y-13217984D01*
X13301134Y-13217984D02*
X13320182Y-13217984D01*
X13539230Y-13084650D02*
X13539230Y-13284650D01*
X13539230Y-13094174D02*
X13558277Y-13084650D01*
X13558277Y-13084650D02*
X13596373Y-13084650D01*
X13596373Y-13084650D02*
X13615420Y-13094174D01*
X13615420Y-13094174D02*
X13624944Y-13103698D01*
X13624944Y-13103698D02*
X13634468Y-13122746D01*
X13634468Y-13122746D02*
X13634468Y-13179888D01*
X13634468Y-13179888D02*
X13624944Y-13198936D01*
X13624944Y-13198936D02*
X13615420Y-13208460D01*
X13615420Y-13208460D02*
X13596373Y-13217984D01*
X13596373Y-13217984D02*
X13558277Y-13217984D01*
X13558277Y-13217984D02*
X13539230Y-13208460D01*
X13748753Y-13217984D02*
X13729706Y-13208460D01*
X13729706Y-13208460D02*
X13720182Y-13189412D01*
X13720182Y-13189412D02*
X13720182Y-13017984D01*
X13910658Y-13217984D02*
X13910658Y-13113222D01*
X13910658Y-13113222D02*
X13901134Y-13094174D01*
X13901134Y-13094174D02*
X13882087Y-13084650D01*
X13882087Y-13084650D02*
X13843992Y-13084650D01*
X13843992Y-13084650D02*
X13824944Y-13094174D01*
X13910658Y-13208460D02*
X13891611Y-13217984D01*
X13891611Y-13217984D02*
X13843992Y-13217984D01*
X13843992Y-13217984D02*
X13824944Y-13208460D01*
X13824944Y-13208460D02*
X13815420Y-13189412D01*
X13815420Y-13189412D02*
X13815420Y-13170365D01*
X13815420Y-13170365D02*
X13824944Y-13151317D01*
X13824944Y-13151317D02*
X13843992Y-13141793D01*
X13843992Y-13141793D02*
X13891611Y-13141793D01*
X13891611Y-13141793D02*
X13910658Y-13132269D01*
X13977325Y-13084650D02*
X14053515Y-13084650D01*
X14005896Y-13017984D02*
X14005896Y-13189412D01*
X14005896Y-13189412D02*
X14015420Y-13208460D01*
X14015420Y-13208460D02*
X14034468Y-13217984D01*
X14034468Y-13217984D02*
X14053515Y-13217984D01*
X14196373Y-13208460D02*
X14177325Y-13217984D01*
X14177325Y-13217984D02*
X14139230Y-13217984D01*
X14139230Y-13217984D02*
X14120182Y-13208460D01*
X14120182Y-13208460D02*
X14110658Y-13189412D01*
X14110658Y-13189412D02*
X14110658Y-13113222D01*
X14110658Y-13113222D02*
X14120182Y-13094174D01*
X14120182Y-13094174D02*
X14139230Y-13084650D01*
X14139230Y-13084650D02*
X14177325Y-13084650D01*
X14177325Y-13084650D02*
X14196373Y-13094174D01*
X14196373Y-13094174D02*
X14205896Y-13113222D01*
X14205896Y-13113222D02*
X14205896Y-13132269D01*
X14205896Y-13132269D02*
X14110658Y-13151317D01*
X14377325Y-13217984D02*
X14377325Y-13017984D01*
X14377325Y-13208460D02*
X14358277Y-13217984D01*
X14358277Y-13217984D02*
X14320182Y-13217984D01*
X14320182Y-13217984D02*
X14301134Y-13208460D01*
X14301134Y-13208460D02*
X14291611Y-13198936D01*
X14291611Y-13198936D02*
X14282087Y-13179888D01*
X14282087Y-13179888D02*
X14282087Y-13122746D01*
X14282087Y-13122746D02*
X14291611Y-13103698D01*
X14291611Y-13103698D02*
X14301134Y-13094174D01*
X14301134Y-13094174D02*
X14320182Y-13084650D01*
X14320182Y-13084650D02*
X14358277Y-13084650D01*
X14358277Y-13084650D02*
X14377325Y-13094174D01*
X14453515Y-13294174D02*
X14463039Y-13284650D01*
X14463039Y-13284650D02*
X14482087Y-13256079D01*
X14482087Y-13256079D02*
X14491611Y-13237031D01*
X14491611Y-13237031D02*
X14501134Y-13208460D01*
X14501134Y-13208460D02*
X14510658Y-13160841D01*
X14510658Y-13160841D02*
X14510658Y-13122746D01*
X14510658Y-13122746D02*
X14501134Y-13075127D01*
X14501134Y-13075127D02*
X14491611Y-13046555D01*
X14491611Y-13046555D02*
X14482087Y-13027508D01*
X14482087Y-13027508D02*
X14463039Y-12998936D01*
X14463039Y-12998936D02*
X14453515Y-12989412D01*
X7497500Y-13290500D02*
X7697500Y-13490500D01*
X7697500Y-13290500D02*
X7497500Y-13490500D01*
X7668211Y-13461211D02*
X7668211Y-13319789D01*
X7526789Y-13319789D01*
X7526789Y-13461211D01*
X7668211Y-13461211D01*
X7939229Y-13281984D02*
X8063039Y-13281984D01*
X8063039Y-13281984D02*
X7996372Y-13358174D01*
X7996372Y-13358174D02*
X8024943Y-13358174D01*
X8024943Y-13358174D02*
X8043991Y-13367698D01*
X8043991Y-13367698D02*
X8053515Y-13377222D01*
X8053515Y-13377222D02*
X8063039Y-13396269D01*
X8063039Y-13396269D02*
X8063039Y-13443888D01*
X8063039Y-13443888D02*
X8053515Y-13462936D01*
X8053515Y-13462936D02*
X8043991Y-13472460D01*
X8043991Y-13472460D02*
X8024943Y-13481984D01*
X8024943Y-13481984D02*
X7967801Y-13481984D01*
X7967801Y-13481984D02*
X7948753Y-13472460D01*
X7948753Y-13472460D02*
X7939229Y-13462936D01*
X8148753Y-13462936D02*
X8158277Y-13472460D01*
X8158277Y-13472460D02*
X8148753Y-13481984D01*
X8148753Y-13481984D02*
X8139229Y-13472460D01*
X8139229Y-13472460D02*
X8148753Y-13462936D01*
X8148753Y-13462936D02*
X8148753Y-13481984D01*
X8234467Y-13301031D02*
X8243991Y-13291508D01*
X8243991Y-13291508D02*
X8263039Y-13281984D01*
X8263039Y-13281984D02*
X8310658Y-13281984D01*
X8310658Y-13281984D02*
X8329705Y-13291508D01*
X8329705Y-13291508D02*
X8339229Y-13301031D01*
X8339229Y-13301031D02*
X8348753Y-13320079D01*
X8348753Y-13320079D02*
X8348753Y-13339127D01*
X8348753Y-13339127D02*
X8339229Y-13367698D01*
X8339229Y-13367698D02*
X8224943Y-13481984D01*
X8224943Y-13481984D02*
X8348753Y-13481984D01*
X8472563Y-13281984D02*
X8491610Y-13281984D01*
X8491610Y-13281984D02*
X8510658Y-13291508D01*
X8510658Y-13291508D02*
X8520182Y-13301031D01*
X8520182Y-13301031D02*
X8529705Y-13320079D01*
X8529705Y-13320079D02*
X8539229Y-13358174D01*
X8539229Y-13358174D02*
X8539229Y-13405793D01*
X8539229Y-13405793D02*
X8529705Y-13443888D01*
X8529705Y-13443888D02*
X8520182Y-13462936D01*
X8520182Y-13462936D02*
X8510658Y-13472460D01*
X8510658Y-13472460D02*
X8491610Y-13481984D01*
X8491610Y-13481984D02*
X8472563Y-13481984D01*
X8472563Y-13481984D02*
X8453515Y-13472460D01*
X8453515Y-13472460D02*
X8443991Y-13462936D01*
X8443991Y-13462936D02*
X8434467Y-13443888D01*
X8434467Y-13443888D02*
X8424944Y-13405793D01*
X8424944Y-13405793D02*
X8424944Y-13358174D01*
X8424944Y-13358174D02*
X8434467Y-13320079D01*
X8434467Y-13320079D02*
X8443991Y-13301031D01*
X8443991Y-13301031D02*
X8453515Y-13291508D01*
X8453515Y-13291508D02*
X8472563Y-13281984D01*
X8663039Y-13281984D02*
X8682086Y-13281984D01*
X8682086Y-13281984D02*
X8701134Y-13291508D01*
X8701134Y-13291508D02*
X8710658Y-13301031D01*
X8710658Y-13301031D02*
X8720182Y-13320079D01*
X8720182Y-13320079D02*
X8729705Y-13358174D01*
X8729705Y-13358174D02*
X8729705Y-13405793D01*
X8729705Y-13405793D02*
X8720182Y-13443888D01*
X8720182Y-13443888D02*
X8710658Y-13462936D01*
X8710658Y-13462936D02*
X8701134Y-13472460D01*
X8701134Y-13472460D02*
X8682086Y-13481984D01*
X8682086Y-13481984D02*
X8663039Y-13481984D01*
X8663039Y-13481984D02*
X8643991Y-13472460D01*
X8643991Y-13472460D02*
X8634467Y-13462936D01*
X8634467Y-13462936D02*
X8624944Y-13443888D01*
X8624944Y-13443888D02*
X8615420Y-13405793D01*
X8615420Y-13405793D02*
X8615420Y-13358174D01*
X8615420Y-13358174D02*
X8624944Y-13320079D01*
X8624944Y-13320079D02*
X8634467Y-13301031D01*
X8634467Y-13301031D02*
X8643991Y-13291508D01*
X8643991Y-13291508D02*
X8663039Y-13281984D01*
X8815420Y-13481984D02*
X8815420Y-13348650D01*
X8815420Y-13367698D02*
X8824944Y-13358174D01*
X8824944Y-13358174D02*
X8843991Y-13348650D01*
X8843991Y-13348650D02*
X8872563Y-13348650D01*
X8872563Y-13348650D02*
X8891610Y-13358174D01*
X8891610Y-13358174D02*
X8901134Y-13377222D01*
X8901134Y-13377222D02*
X8901134Y-13481984D01*
X8901134Y-13377222D02*
X8910658Y-13358174D01*
X8910658Y-13358174D02*
X8929705Y-13348650D01*
X8929705Y-13348650D02*
X8958277Y-13348650D01*
X8958277Y-13348650D02*
X8977325Y-13358174D01*
X8977325Y-13358174D02*
X8986848Y-13377222D01*
X8986848Y-13377222D02*
X8986848Y-13481984D01*
X9082086Y-13481984D02*
X9082086Y-13348650D01*
X9082086Y-13367698D02*
X9091610Y-13358174D01*
X9091610Y-13358174D02*
X9110658Y-13348650D01*
X9110658Y-13348650D02*
X9139229Y-13348650D01*
X9139229Y-13348650D02*
X9158277Y-13358174D01*
X9158277Y-13358174D02*
X9167801Y-13377222D01*
X9167801Y-13377222D02*
X9167801Y-13481984D01*
X9167801Y-13377222D02*
X9177325Y-13358174D01*
X9177325Y-13358174D02*
X9196372Y-13348650D01*
X9196372Y-13348650D02*
X9224944Y-13348650D01*
X9224944Y-13348650D02*
X9243991Y-13358174D01*
X9243991Y-13358174D02*
X9253515Y-13377222D01*
X9253515Y-13377222D02*
X9253515Y-13481984D01*
X9643991Y-13272460D02*
X9472563Y-13529603D01*
X9901134Y-13281984D02*
X9920182Y-13281984D01*
X9920182Y-13281984D02*
X9939229Y-13291508D01*
X9939229Y-13291508D02*
X9948753Y-13301031D01*
X9948753Y-13301031D02*
X9958277Y-13320079D01*
X9958277Y-13320079D02*
X9967801Y-13358174D01*
X9967801Y-13358174D02*
X9967801Y-13405793D01*
X9967801Y-13405793D02*
X9958277Y-13443888D01*
X9958277Y-13443888D02*
X9948753Y-13462936D01*
X9948753Y-13462936D02*
X9939229Y-13472460D01*
X9939229Y-13472460D02*
X9920182Y-13481984D01*
X9920182Y-13481984D02*
X9901134Y-13481984D01*
X9901134Y-13481984D02*
X9882087Y-13472460D01*
X9882087Y-13472460D02*
X9872563Y-13462936D01*
X9872563Y-13462936D02*
X9863039Y-13443888D01*
X9863039Y-13443888D02*
X9853515Y-13405793D01*
X9853515Y-13405793D02*
X9853515Y-13358174D01*
X9853515Y-13358174D02*
X9863039Y-13320079D01*
X9863039Y-13320079D02*
X9872563Y-13301031D01*
X9872563Y-13301031D02*
X9882087Y-13291508D01*
X9882087Y-13291508D02*
X9901134Y-13281984D01*
X10053515Y-13462936D02*
X10063039Y-13472460D01*
X10063039Y-13472460D02*
X10053515Y-13481984D01*
X10053515Y-13481984D02*
X10043991Y-13472460D01*
X10043991Y-13472460D02*
X10053515Y-13462936D01*
X10053515Y-13462936D02*
X10053515Y-13481984D01*
X10253515Y-13481984D02*
X10139229Y-13481984D01*
X10196372Y-13481984D02*
X10196372Y-13281984D01*
X10196372Y-13281984D02*
X10177325Y-13310555D01*
X10177325Y-13310555D02*
X10158277Y-13329603D01*
X10158277Y-13329603D02*
X10139229Y-13339127D01*
X10329706Y-13301031D02*
X10339229Y-13291508D01*
X10339229Y-13291508D02*
X10358277Y-13281984D01*
X10358277Y-13281984D02*
X10405896Y-13281984D01*
X10405896Y-13281984D02*
X10424944Y-13291508D01*
X10424944Y-13291508D02*
X10434468Y-13301031D01*
X10434468Y-13301031D02*
X10443991Y-13320079D01*
X10443991Y-13320079D02*
X10443991Y-13339127D01*
X10443991Y-13339127D02*
X10434468Y-13367698D01*
X10434468Y-13367698D02*
X10320182Y-13481984D01*
X10320182Y-13481984D02*
X10443991Y-13481984D01*
X10615420Y-13281984D02*
X10577325Y-13281984D01*
X10577325Y-13281984D02*
X10558277Y-13291508D01*
X10558277Y-13291508D02*
X10548753Y-13301031D01*
X10548753Y-13301031D02*
X10529706Y-13329603D01*
X10529706Y-13329603D02*
X10520182Y-13367698D01*
X10520182Y-13367698D02*
X10520182Y-13443888D01*
X10520182Y-13443888D02*
X10529706Y-13462936D01*
X10529706Y-13462936D02*
X10539229Y-13472460D01*
X10539229Y-13472460D02*
X10558277Y-13481984D01*
X10558277Y-13481984D02*
X10596372Y-13481984D01*
X10596372Y-13481984D02*
X10615420Y-13472460D01*
X10615420Y-13472460D02*
X10624944Y-13462936D01*
X10624944Y-13462936D02*
X10634468Y-13443888D01*
X10634468Y-13443888D02*
X10634468Y-13396269D01*
X10634468Y-13396269D02*
X10624944Y-13377222D01*
X10624944Y-13377222D02*
X10615420Y-13367698D01*
X10615420Y-13367698D02*
X10596372Y-13358174D01*
X10596372Y-13358174D02*
X10558277Y-13358174D01*
X10558277Y-13358174D02*
X10539229Y-13367698D01*
X10539229Y-13367698D02*
X10529706Y-13377222D01*
X10529706Y-13377222D02*
X10520182Y-13396269D01*
X10758277Y-13281984D02*
X10777325Y-13281984D01*
X10777325Y-13281984D02*
X10796372Y-13291508D01*
X10796372Y-13291508D02*
X10805896Y-13301031D01*
X10805896Y-13301031D02*
X10815420Y-13320079D01*
X10815420Y-13320079D02*
X10824944Y-13358174D01*
X10824944Y-13358174D02*
X10824944Y-13405793D01*
X10824944Y-13405793D02*
X10815420Y-13443888D01*
X10815420Y-13443888D02*
X10805896Y-13462936D01*
X10805896Y-13462936D02*
X10796372Y-13472460D01*
X10796372Y-13472460D02*
X10777325Y-13481984D01*
X10777325Y-13481984D02*
X10758277Y-13481984D01*
X10758277Y-13481984D02*
X10739229Y-13472460D01*
X10739229Y-13472460D02*
X10729706Y-13462936D01*
X10729706Y-13462936D02*
X10720182Y-13443888D01*
X10720182Y-13443888D02*
X10710658Y-13405793D01*
X10710658Y-13405793D02*
X10710658Y-13358174D01*
X10710658Y-13358174D02*
X10720182Y-13320079D01*
X10720182Y-13320079D02*
X10729706Y-13301031D01*
X10729706Y-13301031D02*
X10739229Y-13291508D01*
X10739229Y-13291508D02*
X10758277Y-13281984D01*
X10901134Y-13281984D02*
X10901134Y-13320079D01*
X10977325Y-13281984D02*
X10977325Y-13320079D01*
X11272563Y-13558174D02*
X11263039Y-13548650D01*
X11263039Y-13548650D02*
X11243991Y-13520079D01*
X11243991Y-13520079D02*
X11234468Y-13501031D01*
X11234468Y-13501031D02*
X11224944Y-13472460D01*
X11224944Y-13472460D02*
X11215420Y-13424841D01*
X11215420Y-13424841D02*
X11215420Y-13386746D01*
X11215420Y-13386746D02*
X11224944Y-13339127D01*
X11224944Y-13339127D02*
X11234468Y-13310555D01*
X11234468Y-13310555D02*
X11243991Y-13291508D01*
X11243991Y-13291508D02*
X11263039Y-13262936D01*
X11263039Y-13262936D02*
X11272563Y-13253412D01*
X11434468Y-13348650D02*
X11434468Y-13481984D01*
X11386848Y-13272460D02*
X11339229Y-13415317D01*
X11339229Y-13415317D02*
X11463039Y-13415317D01*
X11691610Y-13481984D02*
X11691610Y-13281984D01*
X11777325Y-13481984D02*
X11777325Y-13377222D01*
X11777325Y-13377222D02*
X11767801Y-13358174D01*
X11767801Y-13358174D02*
X11748753Y-13348650D01*
X11748753Y-13348650D02*
X11720182Y-13348650D01*
X11720182Y-13348650D02*
X11701134Y-13358174D01*
X11701134Y-13358174D02*
X11691610Y-13367698D01*
X11901134Y-13481984D02*
X11882087Y-13472460D01*
X11882087Y-13472460D02*
X11872563Y-13462936D01*
X11872563Y-13462936D02*
X11863039Y-13443888D01*
X11863039Y-13443888D02*
X11863039Y-13386746D01*
X11863039Y-13386746D02*
X11872563Y-13367698D01*
X11872563Y-13367698D02*
X11882087Y-13358174D01*
X11882087Y-13358174D02*
X11901134Y-13348650D01*
X11901134Y-13348650D02*
X11929706Y-13348650D01*
X11929706Y-13348650D02*
X11948753Y-13358174D01*
X11948753Y-13358174D02*
X11958277Y-13367698D01*
X11958277Y-13367698D02*
X11967801Y-13386746D01*
X11967801Y-13386746D02*
X11967801Y-13443888D01*
X11967801Y-13443888D02*
X11958277Y-13462936D01*
X11958277Y-13462936D02*
X11948753Y-13472460D01*
X11948753Y-13472460D02*
X11929706Y-13481984D01*
X11929706Y-13481984D02*
X11901134Y-13481984D01*
X12082087Y-13481984D02*
X12063039Y-13472460D01*
X12063039Y-13472460D02*
X12053515Y-13453412D01*
X12053515Y-13453412D02*
X12053515Y-13281984D01*
X12234468Y-13472460D02*
X12215420Y-13481984D01*
X12215420Y-13481984D02*
X12177325Y-13481984D01*
X12177325Y-13481984D02*
X12158277Y-13472460D01*
X12158277Y-13472460D02*
X12148753Y-13453412D01*
X12148753Y-13453412D02*
X12148753Y-13377222D01*
X12148753Y-13377222D02*
X12158277Y-13358174D01*
X12158277Y-13358174D02*
X12177325Y-13348650D01*
X12177325Y-13348650D02*
X12215420Y-13348650D01*
X12215420Y-13348650D02*
X12234468Y-13358174D01*
X12234468Y-13358174D02*
X12243991Y-13377222D01*
X12243991Y-13377222D02*
X12243991Y-13396269D01*
X12243991Y-13396269D02*
X12148753Y-13415317D01*
X12320182Y-13472460D02*
X12339230Y-13481984D01*
X12339230Y-13481984D02*
X12377325Y-13481984D01*
X12377325Y-13481984D02*
X12396372Y-13472460D01*
X12396372Y-13472460D02*
X12405896Y-13453412D01*
X12405896Y-13453412D02*
X12405896Y-13443888D01*
X12405896Y-13443888D02*
X12396372Y-13424841D01*
X12396372Y-13424841D02*
X12377325Y-13415317D01*
X12377325Y-13415317D02*
X12348753Y-13415317D01*
X12348753Y-13415317D02*
X12329706Y-13405793D01*
X12329706Y-13405793D02*
X12320182Y-13386746D01*
X12320182Y-13386746D02*
X12320182Y-13377222D01*
X12320182Y-13377222D02*
X12329706Y-13358174D01*
X12329706Y-13358174D02*
X12348753Y-13348650D01*
X12348753Y-13348650D02*
X12377325Y-13348650D01*
X12377325Y-13348650D02*
X12396372Y-13358174D01*
X12472563Y-13558174D02*
X12482087Y-13548650D01*
X12482087Y-13548650D02*
X12501134Y-13520079D01*
X12501134Y-13520079D02*
X12510658Y-13501031D01*
X12510658Y-13501031D02*
X12520182Y-13472460D01*
X12520182Y-13472460D02*
X12529706Y-13424841D01*
X12529706Y-13424841D02*
X12529706Y-13386746D01*
X12529706Y-13386746D02*
X12520182Y-13339127D01*
X12520182Y-13339127D02*
X12510658Y-13310555D01*
X12510658Y-13310555D02*
X12501134Y-13291508D01*
X12501134Y-13291508D02*
X12482087Y-13262936D01*
X12482087Y-13262936D02*
X12472563Y-13253412D01*
X12834468Y-13558174D02*
X12824944Y-13548650D01*
X12824944Y-13548650D02*
X12805896Y-13520079D01*
X12805896Y-13520079D02*
X12796372Y-13501031D01*
X12796372Y-13501031D02*
X12786849Y-13472460D01*
X12786849Y-13472460D02*
X12777325Y-13424841D01*
X12777325Y-13424841D02*
X12777325Y-13386746D01*
X12777325Y-13386746D02*
X12786849Y-13339127D01*
X12786849Y-13339127D02*
X12796372Y-13310555D01*
X12796372Y-13310555D02*
X12805896Y-13291508D01*
X12805896Y-13291508D02*
X12824944Y-13262936D01*
X12824944Y-13262936D02*
X12834468Y-13253412D01*
X12910658Y-13348650D02*
X12910658Y-13481984D01*
X12910658Y-13367698D02*
X12920182Y-13358174D01*
X12920182Y-13358174D02*
X12939230Y-13348650D01*
X12939230Y-13348650D02*
X12967801Y-13348650D01*
X12967801Y-13348650D02*
X12986849Y-13358174D01*
X12986849Y-13358174D02*
X12996372Y-13377222D01*
X12996372Y-13377222D02*
X12996372Y-13481984D01*
X13120182Y-13481984D02*
X13101134Y-13472460D01*
X13101134Y-13472460D02*
X13091611Y-13462936D01*
X13091611Y-13462936D02*
X13082087Y-13443888D01*
X13082087Y-13443888D02*
X13082087Y-13386746D01*
X13082087Y-13386746D02*
X13091611Y-13367698D01*
X13091611Y-13367698D02*
X13101134Y-13358174D01*
X13101134Y-13358174D02*
X13120182Y-13348650D01*
X13120182Y-13348650D02*
X13148753Y-13348650D01*
X13148753Y-13348650D02*
X13167801Y-13358174D01*
X13167801Y-13358174D02*
X13177325Y-13367698D01*
X13177325Y-13367698D02*
X13186849Y-13386746D01*
X13186849Y-13386746D02*
X13186849Y-13443888D01*
X13186849Y-13443888D02*
X13177325Y-13462936D01*
X13177325Y-13462936D02*
X13167801Y-13472460D01*
X13167801Y-13472460D02*
X13148753Y-13481984D01*
X13148753Y-13481984D02*
X13120182Y-13481984D01*
X13243992Y-13348650D02*
X13320182Y-13348650D01*
X13272563Y-13281984D02*
X13272563Y-13453412D01*
X13272563Y-13453412D02*
X13282087Y-13472460D01*
X13282087Y-13472460D02*
X13301134Y-13481984D01*
X13301134Y-13481984D02*
X13320182Y-13481984D01*
X13539230Y-13348650D02*
X13539230Y-13548650D01*
X13539230Y-13358174D02*
X13558277Y-13348650D01*
X13558277Y-13348650D02*
X13596373Y-13348650D01*
X13596373Y-13348650D02*
X13615420Y-13358174D01*
X13615420Y-13358174D02*
X13624944Y-13367698D01*
X13624944Y-13367698D02*
X13634468Y-13386746D01*
X13634468Y-13386746D02*
X13634468Y-13443888D01*
X13634468Y-13443888D02*
X13624944Y-13462936D01*
X13624944Y-13462936D02*
X13615420Y-13472460D01*
X13615420Y-13472460D02*
X13596373Y-13481984D01*
X13596373Y-13481984D02*
X13558277Y-13481984D01*
X13558277Y-13481984D02*
X13539230Y-13472460D01*
X13748753Y-13481984D02*
X13729706Y-13472460D01*
X13729706Y-13472460D02*
X13720182Y-13453412D01*
X13720182Y-13453412D02*
X13720182Y-13281984D01*
X13910658Y-13481984D02*
X13910658Y-13377222D01*
X13910658Y-13377222D02*
X13901134Y-13358174D01*
X13901134Y-13358174D02*
X13882087Y-13348650D01*
X13882087Y-13348650D02*
X13843992Y-13348650D01*
X13843992Y-13348650D02*
X13824944Y-13358174D01*
X13910658Y-13472460D02*
X13891611Y-13481984D01*
X13891611Y-13481984D02*
X13843992Y-13481984D01*
X13843992Y-13481984D02*
X13824944Y-13472460D01*
X13824944Y-13472460D02*
X13815420Y-13453412D01*
X13815420Y-13453412D02*
X13815420Y-13434365D01*
X13815420Y-13434365D02*
X13824944Y-13415317D01*
X13824944Y-13415317D02*
X13843992Y-13405793D01*
X13843992Y-13405793D02*
X13891611Y-13405793D01*
X13891611Y-13405793D02*
X13910658Y-13396269D01*
X13977325Y-13348650D02*
X14053515Y-13348650D01*
X14005896Y-13281984D02*
X14005896Y-13453412D01*
X14005896Y-13453412D02*
X14015420Y-13472460D01*
X14015420Y-13472460D02*
X14034468Y-13481984D01*
X14034468Y-13481984D02*
X14053515Y-13481984D01*
X14196373Y-13472460D02*
X14177325Y-13481984D01*
X14177325Y-13481984D02*
X14139230Y-13481984D01*
X14139230Y-13481984D02*
X14120182Y-13472460D01*
X14120182Y-13472460D02*
X14110658Y-13453412D01*
X14110658Y-13453412D02*
X14110658Y-13377222D01*
X14110658Y-13377222D02*
X14120182Y-13358174D01*
X14120182Y-13358174D02*
X14139230Y-13348650D01*
X14139230Y-13348650D02*
X14177325Y-13348650D01*
X14177325Y-13348650D02*
X14196373Y-13358174D01*
X14196373Y-13358174D02*
X14205896Y-13377222D01*
X14205896Y-13377222D02*
X14205896Y-13396269D01*
X14205896Y-13396269D02*
X14110658Y-13415317D01*
X14377325Y-13481984D02*
X14377325Y-13281984D01*
X14377325Y-13472460D02*
X14358277Y-13481984D01*
X14358277Y-13481984D02*
X14320182Y-13481984D01*
X14320182Y-13481984D02*
X14301134Y-13472460D01*
X14301134Y-13472460D02*
X14291611Y-13462936D01*
X14291611Y-13462936D02*
X14282087Y-13443888D01*
X14282087Y-13443888D02*
X14282087Y-13386746D01*
X14282087Y-13386746D02*
X14291611Y-13367698D01*
X14291611Y-13367698D02*
X14301134Y-13358174D01*
X14301134Y-13358174D02*
X14320182Y-13348650D01*
X14320182Y-13348650D02*
X14358277Y-13348650D01*
X14358277Y-13348650D02*
X14377325Y-13358174D01*
X14453515Y-13558174D02*
X14463039Y-13548650D01*
X14463039Y-13548650D02*
X14482087Y-13520079D01*
X14482087Y-13520079D02*
X14491611Y-13501031D01*
X14491611Y-13501031D02*
X14501134Y-13472460D01*
X14501134Y-13472460D02*
X14510658Y-13424841D01*
X14510658Y-13424841D02*
X14510658Y-13386746D01*
X14510658Y-13386746D02*
X14501134Y-13339127D01*
X14501134Y-13339127D02*
X14491611Y-13310555D01*
X14491611Y-13310555D02*
X14482087Y-13291508D01*
X14482087Y-13291508D02*
X14463039Y-13262936D01*
X14463039Y-13262936D02*
X14453515Y-13253412D01*
M02*
