M48
; DRILL file {KiCad 9.0.8-9.0.8~ubuntu24.04.1} date 2026-04-24T13:10:49-0700
; FORMAT={-:-/ absolute / metric / decimal}
; #@! TF.CreationDate,2026-04-24T13:10:49-07:00
; #@! TF.GenerationSoftware,Kicad,Pcbnew,9.0.8-9.0.8~ubuntu24.04.1
; #@! TF.FileFunction,MixedPlating,1,4
FMAT,2
METRIC
; #@! TA.AperFunction,Plated,PTH,ViaDrill
T1C0.200
; #@! TA.AperFunction,Plated,PTH,ViaDrill
T2C0.300
; #@! TA.AperFunction,Plated,PTH,ComponentDrill
T3C0.650
; #@! TA.AperFunction,Plated,PTH,ComponentDrill
T4C0.900
; #@! TA.AperFunction,Plated,PTH,ComponentDrill
T5C1.000
; #@! TA.AperFunction,Plated,PTH,ComponentDrill
T6C1.300
; #@! TA.AperFunction,NonPlated,NPTH,ComponentDrill
T7C0.700
; #@! TA.AperFunction,NonPlated,NPTH,ComponentDrill
T8C3.200
%
G90
G05
T1
X107.8Y-60.365
X107.8Y-66.73
X107.8Y-73.365
X107.8Y-74.635
X107.8Y-75.27
X113.0Y-60.365
X113.0Y-66.73
X113.0Y-73.365
X119.075Y-62.046
X119.075Y-70.996
X121.025Y-62.046
X121.025Y-71.0
X122.015Y-60.696
X122.325Y-70.996
X124.175Y-60.0
X124.275Y-62.046
X124.275Y-70.996
T2
X79.572Y-66.913
X79.572Y-68.563
X81.0Y-57.0
X81.0Y-62.0
X81.0Y-82.0
X81.0Y-95.0
X84.657Y-77.477
X85.0Y-86.0
X85.0Y-103.0
X85.25Y-58.51
X88.0Y-95.0
X88.0Y-100.0
X88.007Y-60.0
X89.0Y-91.0
X89.05Y-78.0
X89.05Y-81.125
X89.225Y-84.0
X89.225Y-87.0
X89.557Y-60.0
X90.062Y-94.95
X90.775Y-84.0
X90.95Y-78.0
X90.95Y-81.125
X91.0Y-70.0
X91.0Y-103.0
X91.175Y-60.0
X92.825Y-60.0
X93.0Y-81.0
X93.689Y-86.934
X94.443Y-60.0
X94.63Y-77.991
X95.943Y-73.124
X95.943Y-74.674
X95.993Y-60.0
X96.0Y-84.0
X96.18Y-77.991
X96.834Y-79.753
X97.706Y-60.0
X98.0Y-66.0
X98.0Y-70.0
X98.0Y-98.0
X99.0Y-78.0
X99.606Y-60.0
X101.0Y-80.0
X102.75Y-57.24
X103.0Y-93.0
X103.512Y-77.41
X104.0Y-84.0
X104.7Y-57.887
X105.0Y-74.0
X105.162Y-77.41
X105.172Y-56.064
X106.179Y-66.545
X106.225Y-60.0
X106.525Y-82.73
X106.525Y-84.0
X106.525Y-86.54
X107.0Y-58.0
X107.0Y-81.0
X110.008Y-57.928
X111.475Y-82.73
X111.475Y-84.0
X111.571Y-57.886
X111.961Y-82.735
X112.0Y-84.0
X113.0Y-81.0
X114.0Y-98.0
X114.075Y-56.257
X114.735Y-78.636
X114.978Y-76.736
X115.8Y-85.699
X115.852Y-77.48
X116.0Y-52.0
X117.0Y-82.0
X117.283Y-103.0
X117.825Y-70.0
X117.879Y-54.658
X118.0Y-99.0
X118.425Y-63.0
X119.075Y-69.046
X119.075Y-78.639
X119.183Y-103.0
X119.725Y-69.046
X120.0Y-68.0
X120.0Y-95.0
X120.375Y-78.639
X121.073Y-73.525
X121.675Y-69.046
X122.0Y-52.0
X122.0Y-59.0
X122.325Y-62.046
X122.325Y-78.639
X122.975Y-69.046
X123.0Y-57.0
X123.0Y-91.0
X123.625Y-69.046
X124.0Y-75.0
X124.2Y-85.699
X124.275Y-69.046
X124.45Y-82.0
X125.0Y-95.0
X125.087Y-76.322
X125.575Y-69.046
X125.575Y-78.639
X126.0Y-82.0
X126.279Y-54.658
X126.765Y-64.0
X126.765Y-67.0
X126.765Y-69.0
X127.0Y-93.0
X128.0Y-76.0
X128.0Y-106.0
X129.0Y-51.0
X131.0Y-105.0
X135.0Y-55.0
X135.0Y-102.0
X138.0Y-92.0
T4
X95.99Y-92.87
X95.99Y-103.03
X98.53Y-92.87
X98.53Y-103.03
X101.07Y-103.03
X103.61Y-103.03
X106.15Y-103.03
X111.23Y-103.03
X113.77Y-92.87
X113.77Y-103.03
T6
X131.203Y-63.969
X131.203Y-67.469
X131.203Y-70.969
X131.203Y-74.469
X131.203Y-77.969
X131.203Y-81.469
X131.203Y-84.969
X131.203Y-88.469
X139.403Y-63.969
X139.403Y-67.469
X139.403Y-70.969
X139.403Y-74.469
X139.403Y-77.969
X139.403Y-81.469
X139.403Y-84.969
X139.403Y-88.469
T7
X83.62Y-91.874
X83.62Y-97.654
T8
X80.586Y-52.597
X80.586Y-105.433
X138.532Y-52.597
X138.532Y-105.433
T3
G00X80.37Y-90.444
M15
G01X79.57Y-90.444
M16
G05
G00X80.37Y-99.084
M15
G01X79.57Y-99.084
M16
G05
G00X84.67Y-90.444
M15
G01X83.57Y-90.444
M16
G05
G00X84.67Y-99.084
M15
G01X83.57Y-99.084
M16
G05
T5
G00X131.697Y-98.0
M15
G01X131.697Y-96.0
M16
G05
G00X135.697Y-92.3
M15
G01X133.697Y-92.3
M16
G05
G00X137.697Y-98.0
M15
G01X137.697Y-96.0
M16
G05
M30
