%TF.GenerationSoftware,KiCad,Pcbnew,9.0.8-9.0.8~ubuntu24.04.1*%
%TF.CreationDate,2026-04-24T13:10:01-07:00*%
%TF.ProjectId,barn-blinds-controller,6261726e-2d62-46c6-996e-64732d636f6e,rev?*%
%TF.SameCoordinates,Original*%
%TF.FileFunction,Legend,Top*%
%TF.FilePolarity,Positive*%
%FSLAX46Y46*%
G04 Gerber Fmt 4.6, Leading zero omitted, Abs format (unit mm)*
G04 Created by KiCad (PCBNEW 9.0.8-9.0.8~ubuntu24.04.1) date 2026-04-24 13:10:01*
%MOMM*%
%LPD*%
G01*
G04 APERTURE LIST*
G04 Aperture macros list*
%AMRoundRect*
0 Rectangle with rounded corners*
0 $1 Rounding radius*
0 $2 $3 $4 $5 $6 $7 $8 $9 X,Y pos of 4 corners*
0 Add a 4 corners polygon primitive as box body*
4,1,4,$2,$3,$4,$5,$6,$7,$8,$9,$2,$3,0*
0 Add four circle primitives for the rounded corners*
1,1,$1+$1,$2,$3*
1,1,$1+$1,$4,$5*
1,1,$1+$1,$6,$7*
1,1,$1+$1,$8,$9*
0 Add four rect primitives between the rounded corners*
20,1,$1+$1,$2,$3,$4,$5,0*
20,1,$1+$1,$4,$5,$6,$7,0*
20,1,$1+$1,$6,$7,$8,$9,0*
20,1,$1+$1,$8,$9,$2,$3,0*%
G04 Aperture macros list end*
%ADD10C,0.100000*%
%ADD11C,0.120000*%
%ADD12C,0.140000*%
%ADD13C,0.300000*%
%ADD14C,0.150000*%
%ADD15C,0.200000*%
%ADD16C,0.254000*%
%ADD17C,0.127000*%
%ADD18C,3.200000*%
%ADD19R,0.900000X1.250000*%
%ADD20RoundRect,0.250000X-0.650000X1.000000X-0.650000X-1.000000X0.650000X-1.000000X0.650000X1.000000X0*%
%ADD21RoundRect,0.250000X-1.500000X-0.550000X1.500000X-0.550000X1.500000X0.550000X-1.500000X0.550000X0*%
%ADD22RoundRect,0.135000X-0.135000X-0.185000X0.135000X-0.185000X0.135000X0.185000X-0.135000X0.185000X0*%
%ADD23C,2.000000*%
%ADD24RoundRect,0.100000X-0.100000X0.562500X-0.100000X-0.562500X0.100000X-0.562500X0.100000X0.562500X0*%
%ADD25RoundRect,0.150000X0.825000X0.150000X-0.825000X0.150000X-0.825000X-0.150000X0.825000X-0.150000X0*%
%ADD26RoundRect,0.375000X0.625000X0.375000X-0.625000X0.375000X-0.625000X-0.375000X0.625000X-0.375000X0*%
%ADD27RoundRect,0.500000X0.500000X1.400000X-0.500000X1.400000X-0.500000X-1.400000X0.500000X-1.400000X0*%
%ADD28R,3.500000X3.500000*%
%ADD29RoundRect,0.750000X0.750000X1.000000X-0.750000X1.000000X-0.750000X-1.000000X0.750000X-1.000000X0*%
%ADD30RoundRect,0.875000X0.875000X0.875000X-0.875000X0.875000X-0.875000X-0.875000X0.875000X-0.875000X0*%
%ADD31R,1.200000X0.400000*%
%ADD32C,0.700000*%
%ADD33RoundRect,0.102000X-0.575000X0.300000X-0.575000X-0.300000X0.575000X-0.300000X0.575000X0.300000X0*%
%ADD34RoundRect,0.102000X-0.575000X0.150000X-0.575000X-0.150000X0.575000X-0.150000X0.575000X0.150000X0*%
%ADD35O,2.054000X1.254000*%
%ADD36O,2.354000X1.254000*%
%ADD37R,1.500000X0.900000*%
%ADD38R,0.900000X1.500000*%
%ADD39R,0.900000X0.900000*%
%ADD40RoundRect,0.150000X-0.512500X-0.150000X0.512500X-0.150000X0.512500X0.150000X-0.512500X0.150000X0*%
%ADD41RoundRect,0.135000X0.135000X0.185000X-0.135000X0.185000X-0.135000X-0.185000X0.135000X-0.185000X0*%
%ADD42RoundRect,0.250000X-1.950000X-1.000000X1.950000X-1.000000X1.950000X1.000000X-1.950000X1.000000X0*%
%ADD43RoundRect,0.100000X0.100000X-0.850000X0.100000X0.850000X-0.100000X0.850000X-0.100000X-0.850000X0*%
%ADD44C,1.600000*%
%ADD45RoundRect,0.150000X-0.587500X-0.150000X0.587500X-0.150000X0.587500X0.150000X-0.587500X0.150000X0*%
%ADD46RoundRect,0.261500X0.476500X-0.261500X0.476500X0.261500X-0.476500X0.261500X-0.476500X-0.261500X0*%
G04 APERTURE END LIST*
D10*
X78234873Y-72176242D02*
X78320588Y-72204813D01*
X78320588Y-72204813D02*
X78463445Y-72204813D01*
X78463445Y-72204813D02*
X78520588Y-72176242D01*
X78520588Y-72176242D02*
X78549159Y-72147670D01*
X78549159Y-72147670D02*
X78577730Y-72090527D01*
X78577730Y-72090527D02*
X78577730Y-72033384D01*
X78577730Y-72033384D02*
X78549159Y-71976242D01*
X78549159Y-71976242D02*
X78520588Y-71947670D01*
X78520588Y-71947670D02*
X78463445Y-71919099D01*
X78463445Y-71919099D02*
X78349159Y-71890527D01*
X78349159Y-71890527D02*
X78292016Y-71861956D01*
X78292016Y-71861956D02*
X78263445Y-71833384D01*
X78263445Y-71833384D02*
X78234873Y-71776242D01*
X78234873Y-71776242D02*
X78234873Y-71719099D01*
X78234873Y-71719099D02*
X78263445Y-71661956D01*
X78263445Y-71661956D02*
X78292016Y-71633384D01*
X78292016Y-71633384D02*
X78349159Y-71604813D01*
X78349159Y-71604813D02*
X78492016Y-71604813D01*
X78492016Y-71604813D02*
X78577730Y-71633384D01*
X78749159Y-71604813D02*
X79092017Y-71604813D01*
X78920588Y-72204813D02*
X78920588Y-71604813D01*
X79263445Y-72033384D02*
X79549160Y-72033384D01*
X79206302Y-72204813D02*
X79406302Y-71604813D01*
X79406302Y-71604813D02*
X79606302Y-72204813D01*
X79720588Y-71604813D02*
X80063446Y-71604813D01*
X79892017Y-72204813D02*
X79892017Y-71604813D01*
X80263446Y-71604813D02*
X80263446Y-72090527D01*
X80263446Y-72090527D02*
X80292017Y-72147670D01*
X80292017Y-72147670D02*
X80320589Y-72176242D01*
X80320589Y-72176242D02*
X80377731Y-72204813D01*
X80377731Y-72204813D02*
X80492017Y-72204813D01*
X80492017Y-72204813D02*
X80549160Y-72176242D01*
X80549160Y-72176242D02*
X80577731Y-72147670D01*
X80577731Y-72147670D02*
X80606303Y-72090527D01*
X80606303Y-72090527D02*
X80606303Y-71604813D01*
X80863445Y-72176242D02*
X80949160Y-72204813D01*
X80949160Y-72204813D02*
X81092017Y-72204813D01*
X81092017Y-72204813D02*
X81149160Y-72176242D01*
X81149160Y-72176242D02*
X81177731Y-72147670D01*
X81177731Y-72147670D02*
X81206302Y-72090527D01*
X81206302Y-72090527D02*
X81206302Y-72033384D01*
X81206302Y-72033384D02*
X81177731Y-71976242D01*
X81177731Y-71976242D02*
X81149160Y-71947670D01*
X81149160Y-71947670D02*
X81092017Y-71919099D01*
X81092017Y-71919099D02*
X80977731Y-71890527D01*
X80977731Y-71890527D02*
X80920588Y-71861956D01*
X80920588Y-71861956D02*
X80892017Y-71833384D01*
X80892017Y-71833384D02*
X80863445Y-71776242D01*
X80863445Y-71776242D02*
X80863445Y-71719099D01*
X80863445Y-71719099D02*
X80892017Y-71661956D01*
X80892017Y-71661956D02*
X80920588Y-71633384D01*
X80920588Y-71633384D02*
X80977731Y-71604813D01*
X80977731Y-71604813D02*
X81120588Y-71604813D01*
X81120588Y-71604813D02*
X81206302Y-71633384D01*
X79334874Y-73170779D02*
X79049160Y-73170779D01*
X79049160Y-73170779D02*
X79049160Y-72570779D01*
X79534874Y-72856493D02*
X79734874Y-72856493D01*
X79820588Y-73170779D02*
X79534874Y-73170779D01*
X79534874Y-73170779D02*
X79534874Y-72570779D01*
X79534874Y-72570779D02*
X79820588Y-72570779D01*
X80077731Y-73170779D02*
X80077731Y-72570779D01*
X80077731Y-72570779D02*
X80220588Y-72570779D01*
X80220588Y-72570779D02*
X80306302Y-72599350D01*
X80306302Y-72599350D02*
X80363445Y-72656493D01*
X80363445Y-72656493D02*
X80392016Y-72713636D01*
X80392016Y-72713636D02*
X80420588Y-72827922D01*
X80420588Y-72827922D02*
X80420588Y-72913636D01*
X80420588Y-72913636D02*
X80392016Y-73027922D01*
X80392016Y-73027922D02*
X80363445Y-73085065D01*
X80363445Y-73085065D02*
X80306302Y-73142208D01*
X80306302Y-73142208D02*
X80220588Y-73170779D01*
X80220588Y-73170779D02*
X80077731Y-73170779D01*
D11*
X127707518Y-107463188D02*
X127650375Y-107434617D01*
X127650375Y-107434617D02*
X127536089Y-107434617D01*
X127536089Y-107434617D02*
X127478947Y-107463188D01*
X127478947Y-107463188D02*
X127421804Y-107520331D01*
X127421804Y-107520331D02*
X127393232Y-107577474D01*
X127393232Y-107577474D02*
X127393232Y-107691760D01*
X127393232Y-107691760D02*
X127421804Y-107748902D01*
X127421804Y-107748902D02*
X127478947Y-107806045D01*
X127478947Y-107806045D02*
X127536089Y-107834617D01*
X127536089Y-107834617D02*
X127650375Y-107834617D01*
X127650375Y-107834617D02*
X127707518Y-107806045D01*
X127593232Y-107234617D02*
X127450375Y-107263188D01*
X127450375Y-107263188D02*
X127307518Y-107348902D01*
X127307518Y-107348902D02*
X127221804Y-107491760D01*
X127221804Y-107491760D02*
X127193232Y-107634617D01*
X127193232Y-107634617D02*
X127221804Y-107777474D01*
X127221804Y-107777474D02*
X127307518Y-107920331D01*
X127307518Y-107920331D02*
X127450375Y-108006045D01*
X127450375Y-108006045D02*
X127593232Y-108034617D01*
X127593232Y-108034617D02*
X127736089Y-108006045D01*
X127736089Y-108006045D02*
X127878947Y-107920331D01*
X127878947Y-107920331D02*
X127964661Y-107777474D01*
X127964661Y-107777474D02*
X127993232Y-107634617D01*
X127993232Y-107634617D02*
X127964661Y-107491760D01*
X127964661Y-107491760D02*
X127878947Y-107348902D01*
X127878947Y-107348902D02*
X127736089Y-107263188D01*
X127736089Y-107263188D02*
X127593232Y-107234617D01*
X128621803Y-107320331D02*
X128964661Y-107320331D01*
X128793232Y-107920331D02*
X128793232Y-107320331D01*
X129164661Y-107920331D02*
X129164661Y-107520331D01*
X129164661Y-107320331D02*
X129136089Y-107348902D01*
X129136089Y-107348902D02*
X129164661Y-107377474D01*
X129164661Y-107377474D02*
X129193232Y-107348902D01*
X129193232Y-107348902D02*
X129164661Y-107320331D01*
X129164661Y-107320331D02*
X129164661Y-107377474D01*
X129450375Y-107920331D02*
X129450375Y-107520331D01*
X129450375Y-107577474D02*
X129478946Y-107548902D01*
X129478946Y-107548902D02*
X129536089Y-107520331D01*
X129536089Y-107520331D02*
X129621803Y-107520331D01*
X129621803Y-107520331D02*
X129678946Y-107548902D01*
X129678946Y-107548902D02*
X129707518Y-107606045D01*
X129707518Y-107606045D02*
X129707518Y-107920331D01*
X129707518Y-107606045D02*
X129736089Y-107548902D01*
X129736089Y-107548902D02*
X129793232Y-107520331D01*
X129793232Y-107520331D02*
X129878946Y-107520331D01*
X129878946Y-107520331D02*
X129936089Y-107548902D01*
X129936089Y-107548902D02*
X129964660Y-107606045D01*
X129964660Y-107606045D02*
X129964660Y-107920331D01*
X130707518Y-107920331D02*
X130707518Y-107320331D01*
X130993232Y-107920331D02*
X130993232Y-107520331D01*
X130993232Y-107634617D02*
X131021803Y-107577474D01*
X131021803Y-107577474D02*
X131050375Y-107548902D01*
X131050375Y-107548902D02*
X131107517Y-107520331D01*
X131107517Y-107520331D02*
X131164660Y-107520331D01*
X131307518Y-107520331D02*
X131450375Y-107920331D01*
X131450375Y-107920331D02*
X131593232Y-107520331D01*
X131821804Y-107920331D02*
X131821804Y-107520331D01*
X131821804Y-107320331D02*
X131793232Y-107348902D01*
X131793232Y-107348902D02*
X131821804Y-107377474D01*
X131821804Y-107377474D02*
X131850375Y-107348902D01*
X131850375Y-107348902D02*
X131821804Y-107320331D01*
X131821804Y-107320331D02*
X131821804Y-107377474D01*
X132107518Y-107520331D02*
X132107518Y-107920331D01*
X132107518Y-107577474D02*
X132136089Y-107548902D01*
X132136089Y-107548902D02*
X132193232Y-107520331D01*
X132193232Y-107520331D02*
X132278946Y-107520331D01*
X132278946Y-107520331D02*
X132336089Y-107548902D01*
X132336089Y-107548902D02*
X132364661Y-107606045D01*
X132364661Y-107606045D02*
X132364661Y-107920331D01*
X133078946Y-107377474D02*
X133107518Y-107348902D01*
X133107518Y-107348902D02*
X133164661Y-107320331D01*
X133164661Y-107320331D02*
X133307518Y-107320331D01*
X133307518Y-107320331D02*
X133364661Y-107348902D01*
X133364661Y-107348902D02*
X133393232Y-107377474D01*
X133393232Y-107377474D02*
X133421803Y-107434617D01*
X133421803Y-107434617D02*
X133421803Y-107491760D01*
X133421803Y-107491760D02*
X133393232Y-107577474D01*
X133393232Y-107577474D02*
X133050375Y-107920331D01*
X133050375Y-107920331D02*
X133421803Y-107920331D01*
X133793232Y-107320331D02*
X133850375Y-107320331D01*
X133850375Y-107320331D02*
X133907518Y-107348902D01*
X133907518Y-107348902D02*
X133936090Y-107377474D01*
X133936090Y-107377474D02*
X133964661Y-107434617D01*
X133964661Y-107434617D02*
X133993232Y-107548902D01*
X133993232Y-107548902D02*
X133993232Y-107691760D01*
X133993232Y-107691760D02*
X133964661Y-107806045D01*
X133964661Y-107806045D02*
X133936090Y-107863188D01*
X133936090Y-107863188D02*
X133907518Y-107891760D01*
X133907518Y-107891760D02*
X133850375Y-107920331D01*
X133850375Y-107920331D02*
X133793232Y-107920331D01*
X133793232Y-107920331D02*
X133736090Y-107891760D01*
X133736090Y-107891760D02*
X133707518Y-107863188D01*
X133707518Y-107863188D02*
X133678947Y-107806045D01*
X133678947Y-107806045D02*
X133650375Y-107691760D01*
X133650375Y-107691760D02*
X133650375Y-107548902D01*
X133650375Y-107548902D02*
X133678947Y-107434617D01*
X133678947Y-107434617D02*
X133707518Y-107377474D01*
X133707518Y-107377474D02*
X133736090Y-107348902D01*
X133736090Y-107348902D02*
X133793232Y-107320331D01*
X134221804Y-107377474D02*
X134250376Y-107348902D01*
X134250376Y-107348902D02*
X134307519Y-107320331D01*
X134307519Y-107320331D02*
X134450376Y-107320331D01*
X134450376Y-107320331D02*
X134507519Y-107348902D01*
X134507519Y-107348902D02*
X134536090Y-107377474D01*
X134536090Y-107377474D02*
X134564661Y-107434617D01*
X134564661Y-107434617D02*
X134564661Y-107491760D01*
X134564661Y-107491760D02*
X134536090Y-107577474D01*
X134536090Y-107577474D02*
X134193233Y-107920331D01*
X134193233Y-107920331D02*
X134564661Y-107920331D01*
X135078948Y-107320331D02*
X134964662Y-107320331D01*
X134964662Y-107320331D02*
X134907519Y-107348902D01*
X134907519Y-107348902D02*
X134878948Y-107377474D01*
X134878948Y-107377474D02*
X134821805Y-107463188D01*
X134821805Y-107463188D02*
X134793233Y-107577474D01*
X134793233Y-107577474D02*
X134793233Y-107806045D01*
X134793233Y-107806045D02*
X134821805Y-107863188D01*
X134821805Y-107863188D02*
X134850376Y-107891760D01*
X134850376Y-107891760D02*
X134907519Y-107920331D01*
X134907519Y-107920331D02*
X135021805Y-107920331D01*
X135021805Y-107920331D02*
X135078948Y-107891760D01*
X135078948Y-107891760D02*
X135107519Y-107863188D01*
X135107519Y-107863188D02*
X135136090Y-107806045D01*
X135136090Y-107806045D02*
X135136090Y-107663188D01*
X135136090Y-107663188D02*
X135107519Y-107606045D01*
X135107519Y-107606045D02*
X135078948Y-107577474D01*
X135078948Y-107577474D02*
X135021805Y-107548902D01*
X135021805Y-107548902D02*
X134907519Y-107548902D01*
X134907519Y-107548902D02*
X134850376Y-107577474D01*
X134850376Y-107577474D02*
X134821805Y-107606045D01*
X134821805Y-107606045D02*
X134793233Y-107663188D01*
D12*
X137225438Y-59873720D02*
X137325438Y-59907053D01*
X137325438Y-59907053D02*
X137492105Y-59907053D01*
X137492105Y-59907053D02*
X137558771Y-59873720D01*
X137558771Y-59873720D02*
X137592105Y-59840386D01*
X137592105Y-59840386D02*
X137625438Y-59773720D01*
X137625438Y-59773720D02*
X137625438Y-59707053D01*
X137625438Y-59707053D02*
X137592105Y-59640386D01*
X137592105Y-59640386D02*
X137558771Y-59607053D01*
X137558771Y-59607053D02*
X137492105Y-59573720D01*
X137492105Y-59573720D02*
X137358771Y-59540386D01*
X137358771Y-59540386D02*
X137292105Y-59507053D01*
X137292105Y-59507053D02*
X137258771Y-59473720D01*
X137258771Y-59473720D02*
X137225438Y-59407053D01*
X137225438Y-59407053D02*
X137225438Y-59340386D01*
X137225438Y-59340386D02*
X137258771Y-59273720D01*
X137258771Y-59273720D02*
X137292105Y-59240386D01*
X137292105Y-59240386D02*
X137358771Y-59207053D01*
X137358771Y-59207053D02*
X137525438Y-59207053D01*
X137525438Y-59207053D02*
X137625438Y-59240386D01*
X137925438Y-59907053D02*
X137925438Y-59207053D01*
X137925438Y-59540386D02*
X138325438Y-59540386D01*
X138325438Y-59907053D02*
X138325438Y-59207053D01*
X138625438Y-59707053D02*
X138958771Y-59707053D01*
X138558771Y-59907053D02*
X138792105Y-59207053D01*
X138792105Y-59207053D02*
X139025438Y-59907053D01*
X139258771Y-59907053D02*
X139258771Y-59207053D01*
X139258771Y-59207053D02*
X139425438Y-59207053D01*
X139425438Y-59207053D02*
X139525438Y-59240386D01*
X139525438Y-59240386D02*
X139592105Y-59307053D01*
X139592105Y-59307053D02*
X139625438Y-59373720D01*
X139625438Y-59373720D02*
X139658771Y-59507053D01*
X139658771Y-59507053D02*
X139658771Y-59607053D01*
X139658771Y-59607053D02*
X139625438Y-59740386D01*
X139625438Y-59740386D02*
X139592105Y-59807053D01*
X139592105Y-59807053D02*
X139525438Y-59873720D01*
X139525438Y-59873720D02*
X139425438Y-59907053D01*
X139425438Y-59907053D02*
X139258771Y-59907053D01*
X139958771Y-59540386D02*
X140192105Y-59540386D01*
X140292105Y-59907053D02*
X139958771Y-59907053D01*
X139958771Y-59907053D02*
X139958771Y-59207053D01*
X139958771Y-59207053D02*
X140292105Y-59207053D01*
X141492104Y-59907053D02*
X141092104Y-59907053D01*
X141292104Y-59907053D02*
X141292104Y-59207053D01*
X141292104Y-59207053D02*
X141225437Y-59307053D01*
X141225437Y-59307053D02*
X141158771Y-59373720D01*
X141158771Y-59373720D02*
X141092104Y-59407053D01*
X137225438Y-90873720D02*
X137325438Y-90907053D01*
X137325438Y-90907053D02*
X137492105Y-90907053D01*
X137492105Y-90907053D02*
X137558771Y-90873720D01*
X137558771Y-90873720D02*
X137592105Y-90840386D01*
X137592105Y-90840386D02*
X137625438Y-90773720D01*
X137625438Y-90773720D02*
X137625438Y-90707053D01*
X137625438Y-90707053D02*
X137592105Y-90640386D01*
X137592105Y-90640386D02*
X137558771Y-90607053D01*
X137558771Y-90607053D02*
X137492105Y-90573720D01*
X137492105Y-90573720D02*
X137358771Y-90540386D01*
X137358771Y-90540386D02*
X137292105Y-90507053D01*
X137292105Y-90507053D02*
X137258771Y-90473720D01*
X137258771Y-90473720D02*
X137225438Y-90407053D01*
X137225438Y-90407053D02*
X137225438Y-90340386D01*
X137225438Y-90340386D02*
X137258771Y-90273720D01*
X137258771Y-90273720D02*
X137292105Y-90240386D01*
X137292105Y-90240386D02*
X137358771Y-90207053D01*
X137358771Y-90207053D02*
X137525438Y-90207053D01*
X137525438Y-90207053D02*
X137625438Y-90240386D01*
X137925438Y-90907053D02*
X137925438Y-90207053D01*
X137925438Y-90540386D02*
X138325438Y-90540386D01*
X138325438Y-90907053D02*
X138325438Y-90207053D01*
X138625438Y-90707053D02*
X138958771Y-90707053D01*
X138558771Y-90907053D02*
X138792105Y-90207053D01*
X138792105Y-90207053D02*
X139025438Y-90907053D01*
X139258771Y-90907053D02*
X139258771Y-90207053D01*
X139258771Y-90207053D02*
X139425438Y-90207053D01*
X139425438Y-90207053D02*
X139525438Y-90240386D01*
X139525438Y-90240386D02*
X139592105Y-90307053D01*
X139592105Y-90307053D02*
X139625438Y-90373720D01*
X139625438Y-90373720D02*
X139658771Y-90507053D01*
X139658771Y-90507053D02*
X139658771Y-90607053D01*
X139658771Y-90607053D02*
X139625438Y-90740386D01*
X139625438Y-90740386D02*
X139592105Y-90807053D01*
X139592105Y-90807053D02*
X139525438Y-90873720D01*
X139525438Y-90873720D02*
X139425438Y-90907053D01*
X139425438Y-90907053D02*
X139258771Y-90907053D01*
X139958771Y-90540386D02*
X140192105Y-90540386D01*
X140292105Y-90907053D02*
X139958771Y-90907053D01*
X139958771Y-90907053D02*
X139958771Y-90207053D01*
X139958771Y-90207053D02*
X140292105Y-90207053D01*
X141425437Y-90440386D02*
X141425437Y-90907053D01*
X141258771Y-90173720D02*
X141092104Y-90673720D01*
X141092104Y-90673720D02*
X141525437Y-90673720D01*
D13*
X85554510Y-107015114D02*
X86054510Y-107015114D01*
X86268796Y-107800828D02*
X85554510Y-107800828D01*
X85554510Y-107800828D02*
X85554510Y-106300828D01*
X85554510Y-106300828D02*
X86268796Y-106300828D01*
X86840225Y-107729400D02*
X87054511Y-107800828D01*
X87054511Y-107800828D02*
X87411653Y-107800828D01*
X87411653Y-107800828D02*
X87554511Y-107729400D01*
X87554511Y-107729400D02*
X87625939Y-107657971D01*
X87625939Y-107657971D02*
X87697368Y-107515114D01*
X87697368Y-107515114D02*
X87697368Y-107372257D01*
X87697368Y-107372257D02*
X87625939Y-107229400D01*
X87625939Y-107229400D02*
X87554511Y-107157971D01*
X87554511Y-107157971D02*
X87411653Y-107086542D01*
X87411653Y-107086542D02*
X87125939Y-107015114D01*
X87125939Y-107015114D02*
X86983082Y-106943685D01*
X86983082Y-106943685D02*
X86911653Y-106872257D01*
X86911653Y-106872257D02*
X86840225Y-106729400D01*
X86840225Y-106729400D02*
X86840225Y-106586542D01*
X86840225Y-106586542D02*
X86911653Y-106443685D01*
X86911653Y-106443685D02*
X86983082Y-106372257D01*
X86983082Y-106372257D02*
X87125939Y-106300828D01*
X87125939Y-106300828D02*
X87483082Y-106300828D01*
X87483082Y-106300828D02*
X87697368Y-106372257D01*
X88340224Y-107800828D02*
X88340224Y-106300828D01*
X88340224Y-106300828D02*
X88911653Y-106300828D01*
X88911653Y-106300828D02*
X89054510Y-106372257D01*
X89054510Y-106372257D02*
X89125939Y-106443685D01*
X89125939Y-106443685D02*
X89197367Y-106586542D01*
X89197367Y-106586542D02*
X89197367Y-106800828D01*
X89197367Y-106800828D02*
X89125939Y-106943685D01*
X89125939Y-106943685D02*
X89054510Y-107015114D01*
X89054510Y-107015114D02*
X88911653Y-107086542D01*
X88911653Y-107086542D02*
X88340224Y-107086542D01*
X89840224Y-107800828D02*
X89840224Y-106300828D01*
X89840224Y-107015114D02*
X90697367Y-107015114D01*
X90697367Y-107800828D02*
X90697367Y-106300828D01*
X91697368Y-106300828D02*
X91983082Y-106300828D01*
X91983082Y-106300828D02*
X92125939Y-106372257D01*
X92125939Y-106372257D02*
X92268796Y-106515114D01*
X92268796Y-106515114D02*
X92340225Y-106800828D01*
X92340225Y-106800828D02*
X92340225Y-107300828D01*
X92340225Y-107300828D02*
X92268796Y-107586542D01*
X92268796Y-107586542D02*
X92125939Y-107729400D01*
X92125939Y-107729400D02*
X91983082Y-107800828D01*
X91983082Y-107800828D02*
X91697368Y-107800828D01*
X91697368Y-107800828D02*
X91554511Y-107729400D01*
X91554511Y-107729400D02*
X91411653Y-107586542D01*
X91411653Y-107586542D02*
X91340225Y-107300828D01*
X91340225Y-107300828D02*
X91340225Y-106800828D01*
X91340225Y-106800828D02*
X91411653Y-106515114D01*
X91411653Y-106515114D02*
X91554511Y-106372257D01*
X91554511Y-106372257D02*
X91697368Y-106300828D01*
X92983082Y-107800828D02*
X92983082Y-106300828D01*
X92983082Y-106300828D02*
X93483082Y-107372257D01*
X93483082Y-107372257D02*
X93983082Y-106300828D01*
X93983082Y-106300828D02*
X93983082Y-107800828D01*
X94697368Y-107015114D02*
X95197368Y-107015114D01*
X95411654Y-107800828D02*
X94697368Y-107800828D01*
X94697368Y-107800828D02*
X94697368Y-106300828D01*
X94697368Y-106300828D02*
X95411654Y-106300828D01*
X97840226Y-106800828D02*
X97840226Y-107800828D01*
X97483083Y-106229400D02*
X97125940Y-107300828D01*
X97125940Y-107300828D02*
X98054511Y-107300828D01*
X99697368Y-107729400D02*
X99911654Y-107800828D01*
X99911654Y-107800828D02*
X100268796Y-107800828D01*
X100268796Y-107800828D02*
X100411654Y-107729400D01*
X100411654Y-107729400D02*
X100483082Y-107657971D01*
X100483082Y-107657971D02*
X100554511Y-107515114D01*
X100554511Y-107515114D02*
X100554511Y-107372257D01*
X100554511Y-107372257D02*
X100483082Y-107229400D01*
X100483082Y-107229400D02*
X100411654Y-107157971D01*
X100411654Y-107157971D02*
X100268796Y-107086542D01*
X100268796Y-107086542D02*
X99983082Y-107015114D01*
X99983082Y-107015114D02*
X99840225Y-106943685D01*
X99840225Y-106943685D02*
X99768796Y-106872257D01*
X99768796Y-106872257D02*
X99697368Y-106729400D01*
X99697368Y-106729400D02*
X99697368Y-106586542D01*
X99697368Y-106586542D02*
X99768796Y-106443685D01*
X99768796Y-106443685D02*
X99840225Y-106372257D01*
X99840225Y-106372257D02*
X99983082Y-106300828D01*
X99983082Y-106300828D02*
X100340225Y-106300828D01*
X100340225Y-106300828D02*
X100554511Y-106372257D01*
X101197367Y-107800828D02*
X101197367Y-106300828D01*
X101197367Y-107015114D02*
X102054510Y-107015114D01*
X102054510Y-107800828D02*
X102054510Y-106300828D01*
X102697368Y-107372257D02*
X103411654Y-107372257D01*
X102554511Y-107800828D02*
X103054511Y-106300828D01*
X103054511Y-106300828D02*
X103554511Y-107800828D01*
X104054510Y-107800828D02*
X104054510Y-106300828D01*
X104054510Y-106300828D02*
X104411653Y-106300828D01*
X104411653Y-106300828D02*
X104625939Y-106372257D01*
X104625939Y-106372257D02*
X104768796Y-106515114D01*
X104768796Y-106515114D02*
X104840225Y-106657971D01*
X104840225Y-106657971D02*
X104911653Y-106943685D01*
X104911653Y-106943685D02*
X104911653Y-107157971D01*
X104911653Y-107157971D02*
X104840225Y-107443685D01*
X104840225Y-107443685D02*
X104768796Y-107586542D01*
X104768796Y-107586542D02*
X104625939Y-107729400D01*
X104625939Y-107729400D02*
X104411653Y-107800828D01*
X104411653Y-107800828D02*
X104054510Y-107800828D01*
X105554510Y-107015114D02*
X106054510Y-107015114D01*
X106268796Y-107800828D02*
X105554510Y-107800828D01*
X105554510Y-107800828D02*
X105554510Y-106300828D01*
X105554510Y-106300828D02*
X106268796Y-106300828D01*
X108911653Y-107657971D02*
X108840225Y-107729400D01*
X108840225Y-107729400D02*
X108625939Y-107800828D01*
X108625939Y-107800828D02*
X108483082Y-107800828D01*
X108483082Y-107800828D02*
X108268796Y-107729400D01*
X108268796Y-107729400D02*
X108125939Y-107586542D01*
X108125939Y-107586542D02*
X108054510Y-107443685D01*
X108054510Y-107443685D02*
X107983082Y-107157971D01*
X107983082Y-107157971D02*
X107983082Y-106943685D01*
X107983082Y-106943685D02*
X108054510Y-106657971D01*
X108054510Y-106657971D02*
X108125939Y-106515114D01*
X108125939Y-106515114D02*
X108268796Y-106372257D01*
X108268796Y-106372257D02*
X108483082Y-106300828D01*
X108483082Y-106300828D02*
X108625939Y-106300828D01*
X108625939Y-106300828D02*
X108840225Y-106372257D01*
X108840225Y-106372257D02*
X108911653Y-106443685D01*
X109840225Y-106300828D02*
X110125939Y-106300828D01*
X110125939Y-106300828D02*
X110268796Y-106372257D01*
X110268796Y-106372257D02*
X110411653Y-106515114D01*
X110411653Y-106515114D02*
X110483082Y-106800828D01*
X110483082Y-106800828D02*
X110483082Y-107300828D01*
X110483082Y-107300828D02*
X110411653Y-107586542D01*
X110411653Y-107586542D02*
X110268796Y-107729400D01*
X110268796Y-107729400D02*
X110125939Y-107800828D01*
X110125939Y-107800828D02*
X109840225Y-107800828D01*
X109840225Y-107800828D02*
X109697368Y-107729400D01*
X109697368Y-107729400D02*
X109554510Y-107586542D01*
X109554510Y-107586542D02*
X109483082Y-107300828D01*
X109483082Y-107300828D02*
X109483082Y-106800828D01*
X109483082Y-106800828D02*
X109554510Y-106515114D01*
X109554510Y-106515114D02*
X109697368Y-106372257D01*
X109697368Y-106372257D02*
X109840225Y-106300828D01*
X111125939Y-107800828D02*
X111125939Y-106300828D01*
X111125939Y-106300828D02*
X111983082Y-107800828D01*
X111983082Y-107800828D02*
X111983082Y-106300828D01*
X112483083Y-106300828D02*
X113340226Y-106300828D01*
X112911654Y-107800828D02*
X112911654Y-106300828D01*
X114697368Y-107800828D02*
X114197368Y-107086542D01*
X113840225Y-107800828D02*
X113840225Y-106300828D01*
X113840225Y-106300828D02*
X114411654Y-106300828D01*
X114411654Y-106300828D02*
X114554511Y-106372257D01*
X114554511Y-106372257D02*
X114625940Y-106443685D01*
X114625940Y-106443685D02*
X114697368Y-106586542D01*
X114697368Y-106586542D02*
X114697368Y-106800828D01*
X114697368Y-106800828D02*
X114625940Y-106943685D01*
X114625940Y-106943685D02*
X114554511Y-107015114D01*
X114554511Y-107015114D02*
X114411654Y-107086542D01*
X114411654Y-107086542D02*
X113840225Y-107086542D01*
X115625940Y-106300828D02*
X115911654Y-106300828D01*
X115911654Y-106300828D02*
X116054511Y-106372257D01*
X116054511Y-106372257D02*
X116197368Y-106515114D01*
X116197368Y-106515114D02*
X116268797Y-106800828D01*
X116268797Y-106800828D02*
X116268797Y-107300828D01*
X116268797Y-107300828D02*
X116197368Y-107586542D01*
X116197368Y-107586542D02*
X116054511Y-107729400D01*
X116054511Y-107729400D02*
X115911654Y-107800828D01*
X115911654Y-107800828D02*
X115625940Y-107800828D01*
X115625940Y-107800828D02*
X115483083Y-107729400D01*
X115483083Y-107729400D02*
X115340225Y-107586542D01*
X115340225Y-107586542D02*
X115268797Y-107300828D01*
X115268797Y-107300828D02*
X115268797Y-106800828D01*
X115268797Y-106800828D02*
X115340225Y-106515114D01*
X115340225Y-106515114D02*
X115483083Y-106372257D01*
X115483083Y-106372257D02*
X115625940Y-106300828D01*
X117625940Y-107800828D02*
X116911654Y-107800828D01*
X116911654Y-107800828D02*
X116911654Y-106300828D01*
X118840226Y-107800828D02*
X118125940Y-107800828D01*
X118125940Y-107800828D02*
X118125940Y-106300828D01*
X119340226Y-107015114D02*
X119840226Y-107015114D01*
X120054512Y-107800828D02*
X119340226Y-107800828D01*
X119340226Y-107800828D02*
X119340226Y-106300828D01*
X119340226Y-106300828D02*
X120054512Y-106300828D01*
X121554512Y-107800828D02*
X121054512Y-107086542D01*
X120697369Y-107800828D02*
X120697369Y-106300828D01*
X120697369Y-106300828D02*
X121268798Y-106300828D01*
X121268798Y-106300828D02*
X121411655Y-106372257D01*
X121411655Y-106372257D02*
X121483084Y-106443685D01*
X121483084Y-106443685D02*
X121554512Y-106586542D01*
X121554512Y-106586542D02*
X121554512Y-106800828D01*
X121554512Y-106800828D02*
X121483084Y-106943685D01*
X121483084Y-106943685D02*
X121411655Y-107015114D01*
X121411655Y-107015114D02*
X121268798Y-107086542D01*
X121268798Y-107086542D02*
X120697369Y-107086542D01*
X90554510Y-69015114D02*
X91054510Y-69015114D01*
X91268796Y-69800828D02*
X90554510Y-69800828D01*
X90554510Y-69800828D02*
X90554510Y-68300828D01*
X90554510Y-68300828D02*
X91268796Y-68300828D01*
X91840225Y-69729400D02*
X92054511Y-69800828D01*
X92054511Y-69800828D02*
X92411653Y-69800828D01*
X92411653Y-69800828D02*
X92554511Y-69729400D01*
X92554511Y-69729400D02*
X92625939Y-69657971D01*
X92625939Y-69657971D02*
X92697368Y-69515114D01*
X92697368Y-69515114D02*
X92697368Y-69372257D01*
X92697368Y-69372257D02*
X92625939Y-69229400D01*
X92625939Y-69229400D02*
X92554511Y-69157971D01*
X92554511Y-69157971D02*
X92411653Y-69086542D01*
X92411653Y-69086542D02*
X92125939Y-69015114D01*
X92125939Y-69015114D02*
X91983082Y-68943685D01*
X91983082Y-68943685D02*
X91911653Y-68872257D01*
X91911653Y-68872257D02*
X91840225Y-68729400D01*
X91840225Y-68729400D02*
X91840225Y-68586542D01*
X91840225Y-68586542D02*
X91911653Y-68443685D01*
X91911653Y-68443685D02*
X91983082Y-68372257D01*
X91983082Y-68372257D02*
X92125939Y-68300828D01*
X92125939Y-68300828D02*
X92483082Y-68300828D01*
X92483082Y-68300828D02*
X92697368Y-68372257D01*
X93340224Y-69800828D02*
X93340224Y-68300828D01*
X93340224Y-68300828D02*
X93911653Y-68300828D01*
X93911653Y-68300828D02*
X94054510Y-68372257D01*
X94054510Y-68372257D02*
X94125939Y-68443685D01*
X94125939Y-68443685D02*
X94197367Y-68586542D01*
X94197367Y-68586542D02*
X94197367Y-68800828D01*
X94197367Y-68800828D02*
X94125939Y-68943685D01*
X94125939Y-68943685D02*
X94054510Y-69015114D01*
X94054510Y-69015114D02*
X93911653Y-69086542D01*
X93911653Y-69086542D02*
X93340224Y-69086542D01*
X94697367Y-68300828D02*
X95625939Y-68300828D01*
X95625939Y-68300828D02*
X95125939Y-68872257D01*
X95125939Y-68872257D02*
X95340224Y-68872257D01*
X95340224Y-68872257D02*
X95483082Y-68943685D01*
X95483082Y-68943685D02*
X95554510Y-69015114D01*
X95554510Y-69015114D02*
X95625939Y-69157971D01*
X95625939Y-69157971D02*
X95625939Y-69515114D01*
X95625939Y-69515114D02*
X95554510Y-69657971D01*
X95554510Y-69657971D02*
X95483082Y-69729400D01*
X95483082Y-69729400D02*
X95340224Y-69800828D01*
X95340224Y-69800828D02*
X94911653Y-69800828D01*
X94911653Y-69800828D02*
X94768796Y-69729400D01*
X94768796Y-69729400D02*
X94697367Y-69657971D01*
X96197367Y-68443685D02*
X96268795Y-68372257D01*
X96268795Y-68372257D02*
X96411653Y-68300828D01*
X96411653Y-68300828D02*
X96768795Y-68300828D01*
X96768795Y-68300828D02*
X96911653Y-68372257D01*
X96911653Y-68372257D02*
X96983081Y-68443685D01*
X96983081Y-68443685D02*
X97054510Y-68586542D01*
X97054510Y-68586542D02*
X97054510Y-68729400D01*
X97054510Y-68729400D02*
X96983081Y-68943685D01*
X96983081Y-68943685D02*
X96125938Y-69800828D01*
X96125938Y-69800828D02*
X97054510Y-69800828D01*
D14*
X130270266Y-104711500D02*
X129870266Y-104711500D01*
X130070266Y-104711500D02*
X130070266Y-104011500D01*
X130070266Y-104011500D02*
X130003599Y-104111500D01*
X130003599Y-104111500D02*
X129936933Y-104178167D01*
X129936933Y-104178167D02*
X129870266Y-104211500D01*
X130536933Y-104078167D02*
X130570266Y-104044833D01*
X130570266Y-104044833D02*
X130636933Y-104011500D01*
X130636933Y-104011500D02*
X130803600Y-104011500D01*
X130803600Y-104011500D02*
X130870266Y-104044833D01*
X130870266Y-104044833D02*
X130903600Y-104078167D01*
X130903600Y-104078167D02*
X130936933Y-104144833D01*
X130936933Y-104144833D02*
X130936933Y-104211500D01*
X130936933Y-104211500D02*
X130903600Y-104311500D01*
X130903600Y-104311500D02*
X130503600Y-104711500D01*
X130503600Y-104711500D02*
X130936933Y-104711500D01*
X131136933Y-104011500D02*
X131370267Y-104711500D01*
X131370267Y-104711500D02*
X131603600Y-104011500D01*
X132303600Y-104011500D02*
X132736933Y-104011500D01*
X132736933Y-104011500D02*
X132503600Y-104278167D01*
X132503600Y-104278167D02*
X132603600Y-104278167D01*
X132603600Y-104278167D02*
X132670266Y-104311500D01*
X132670266Y-104311500D02*
X132703600Y-104344833D01*
X132703600Y-104344833D02*
X132736933Y-104411500D01*
X132736933Y-104411500D02*
X132736933Y-104578167D01*
X132736933Y-104578167D02*
X132703600Y-104644833D01*
X132703600Y-104644833D02*
X132670266Y-104678167D01*
X132670266Y-104678167D02*
X132603600Y-104711500D01*
X132603600Y-104711500D02*
X132403600Y-104711500D01*
X132403600Y-104711500D02*
X132336933Y-104678167D01*
X132336933Y-104678167D02*
X132303600Y-104644833D01*
X133003600Y-104511500D02*
X133336933Y-104511500D01*
X132936933Y-104711500D02*
X133170267Y-104011500D01*
X133170267Y-104011500D02*
X133403600Y-104711500D01*
D15*
X128735749Y-103083467D02*
X135051356Y-103083467D01*
X135051356Y-105783467D01*
X128735749Y-105783467D01*
X128735749Y-103083467D01*
D14*
X81066666Y-77282700D02*
X81166666Y-77316033D01*
X81166666Y-77316033D02*
X81333333Y-77316033D01*
X81333333Y-77316033D02*
X81399999Y-77282700D01*
X81399999Y-77282700D02*
X81433333Y-77249366D01*
X81433333Y-77249366D02*
X81466666Y-77182700D01*
X81466666Y-77182700D02*
X81466666Y-77116033D01*
X81466666Y-77116033D02*
X81433333Y-77049366D01*
X81433333Y-77049366D02*
X81399999Y-77016033D01*
X81399999Y-77016033D02*
X81333333Y-76982700D01*
X81333333Y-76982700D02*
X81199999Y-76949366D01*
X81199999Y-76949366D02*
X81133333Y-76916033D01*
X81133333Y-76916033D02*
X81099999Y-76882700D01*
X81099999Y-76882700D02*
X81066666Y-76816033D01*
X81066666Y-76816033D02*
X81066666Y-76749366D01*
X81066666Y-76749366D02*
X81099999Y-76682700D01*
X81099999Y-76682700D02*
X81133333Y-76649366D01*
X81133333Y-76649366D02*
X81199999Y-76616033D01*
X81199999Y-76616033D02*
X81366666Y-76616033D01*
X81366666Y-76616033D02*
X81466666Y-76649366D01*
X81700000Y-76616033D02*
X81866666Y-77316033D01*
X81866666Y-77316033D02*
X82000000Y-76816033D01*
X82000000Y-76816033D02*
X82133333Y-77316033D01*
X82133333Y-77316033D02*
X82300000Y-76616033D01*
X82933333Y-77316033D02*
X82533333Y-77316033D01*
X82733333Y-77316033D02*
X82733333Y-76616033D01*
X82733333Y-76616033D02*
X82666666Y-76716033D01*
X82666666Y-76716033D02*
X82600000Y-76782700D01*
X82600000Y-76782700D02*
X82533333Y-76816033D01*
X84110127Y-83910476D02*
X83776794Y-83434285D01*
X83538699Y-83910476D02*
X83538699Y-82910476D01*
X83538699Y-82910476D02*
X83919651Y-82910476D01*
X83919651Y-82910476D02*
X84014889Y-82958095D01*
X84014889Y-82958095D02*
X84062508Y-83005714D01*
X84062508Y-83005714D02*
X84110127Y-83100952D01*
X84110127Y-83100952D02*
X84110127Y-83243809D01*
X84110127Y-83243809D02*
X84062508Y-83339047D01*
X84062508Y-83339047D02*
X84014889Y-83386666D01*
X84014889Y-83386666D02*
X83919651Y-83434285D01*
X83919651Y-83434285D02*
X83538699Y-83434285D01*
X84538699Y-83386666D02*
X84872032Y-83386666D01*
X85014889Y-83910476D02*
X84538699Y-83910476D01*
X84538699Y-83910476D02*
X84538699Y-82910476D01*
X84538699Y-82910476D02*
X85014889Y-82910476D01*
X85395842Y-83862857D02*
X85538699Y-83910476D01*
X85538699Y-83910476D02*
X85776794Y-83910476D01*
X85776794Y-83910476D02*
X85872032Y-83862857D01*
X85872032Y-83862857D02*
X85919651Y-83815237D01*
X85919651Y-83815237D02*
X85967270Y-83719999D01*
X85967270Y-83719999D02*
X85967270Y-83624761D01*
X85967270Y-83624761D02*
X85919651Y-83529523D01*
X85919651Y-83529523D02*
X85872032Y-83481904D01*
X85872032Y-83481904D02*
X85776794Y-83434285D01*
X85776794Y-83434285D02*
X85586318Y-83386666D01*
X85586318Y-83386666D02*
X85491080Y-83339047D01*
X85491080Y-83339047D02*
X85443461Y-83291428D01*
X85443461Y-83291428D02*
X85395842Y-83196190D01*
X85395842Y-83196190D02*
X85395842Y-83100952D01*
X85395842Y-83100952D02*
X85443461Y-83005714D01*
X85443461Y-83005714D02*
X85491080Y-82958095D01*
X85491080Y-82958095D02*
X85586318Y-82910476D01*
X85586318Y-82910476D02*
X85824413Y-82910476D01*
X85824413Y-82910476D02*
X85967270Y-82958095D01*
X86395842Y-83386666D02*
X86729175Y-83386666D01*
X86872032Y-83910476D02*
X86395842Y-83910476D01*
X86395842Y-83910476D02*
X86395842Y-82910476D01*
X86395842Y-82910476D02*
X86872032Y-82910476D01*
X87157747Y-82910476D02*
X87729175Y-82910476D01*
X87443461Y-83910476D02*
X87443461Y-82910476D01*
X123483333Y-107316033D02*
X123483333Y-106616033D01*
X123483333Y-106616033D02*
X123650000Y-106616033D01*
X123650000Y-106616033D02*
X123750000Y-106649366D01*
X123750000Y-106649366D02*
X123816667Y-106716033D01*
X123816667Y-106716033D02*
X123850000Y-106782700D01*
X123850000Y-106782700D02*
X123883333Y-106916033D01*
X123883333Y-106916033D02*
X123883333Y-107016033D01*
X123883333Y-107016033D02*
X123850000Y-107149366D01*
X123850000Y-107149366D02*
X123816667Y-107216033D01*
X123816667Y-107216033D02*
X123750000Y-107282700D01*
X123750000Y-107282700D02*
X123650000Y-107316033D01*
X123650000Y-107316033D02*
X123483333Y-107316033D01*
X124550000Y-107316033D02*
X124150000Y-107316033D01*
X124350000Y-107316033D02*
X124350000Y-106616033D01*
X124350000Y-106616033D02*
X124283333Y-106716033D01*
X124283333Y-106716033D02*
X124216667Y-106782700D01*
X124216667Y-106782700D02*
X124150000Y-106816033D01*
X100883333Y-89249366D02*
X100850000Y-89282700D01*
X100850000Y-89282700D02*
X100750000Y-89316033D01*
X100750000Y-89316033D02*
X100683333Y-89316033D01*
X100683333Y-89316033D02*
X100583333Y-89282700D01*
X100583333Y-89282700D02*
X100516667Y-89216033D01*
X100516667Y-89216033D02*
X100483333Y-89149366D01*
X100483333Y-89149366D02*
X100450000Y-89016033D01*
X100450000Y-89016033D02*
X100450000Y-88916033D01*
X100450000Y-88916033D02*
X100483333Y-88782700D01*
X100483333Y-88782700D02*
X100516667Y-88716033D01*
X100516667Y-88716033D02*
X100583333Y-88649366D01*
X100583333Y-88649366D02*
X100683333Y-88616033D01*
X100683333Y-88616033D02*
X100750000Y-88616033D01*
X100750000Y-88616033D02*
X100850000Y-88649366D01*
X100850000Y-88649366D02*
X100883333Y-88682700D01*
X101150000Y-88682700D02*
X101183333Y-88649366D01*
X101183333Y-88649366D02*
X101250000Y-88616033D01*
X101250000Y-88616033D02*
X101416667Y-88616033D01*
X101416667Y-88616033D02*
X101483333Y-88649366D01*
X101483333Y-88649366D02*
X101516667Y-88682700D01*
X101516667Y-88682700D02*
X101550000Y-88749366D01*
X101550000Y-88749366D02*
X101550000Y-88816033D01*
X101550000Y-88816033D02*
X101516667Y-88916033D01*
X101516667Y-88916033D02*
X101116667Y-89316033D01*
X101116667Y-89316033D02*
X101550000Y-89316033D01*
X82923907Y-75145509D02*
X82690574Y-74812176D01*
X82523907Y-75145509D02*
X82523907Y-74445509D01*
X82523907Y-74445509D02*
X82790574Y-74445509D01*
X82790574Y-74445509D02*
X82857241Y-74478842D01*
X82857241Y-74478842D02*
X82890574Y-74512176D01*
X82890574Y-74512176D02*
X82923907Y-74578842D01*
X82923907Y-74578842D02*
X82923907Y-74678842D01*
X82923907Y-74678842D02*
X82890574Y-74745509D01*
X82890574Y-74745509D02*
X82857241Y-74778842D01*
X82857241Y-74778842D02*
X82790574Y-74812176D01*
X82790574Y-74812176D02*
X82523907Y-74812176D01*
X83190574Y-74512176D02*
X83223907Y-74478842D01*
X83223907Y-74478842D02*
X83290574Y-74445509D01*
X83290574Y-74445509D02*
X83457241Y-74445509D01*
X83457241Y-74445509D02*
X83523907Y-74478842D01*
X83523907Y-74478842D02*
X83557241Y-74512176D01*
X83557241Y-74512176D02*
X83590574Y-74578842D01*
X83590574Y-74578842D02*
X83590574Y-74645509D01*
X83590574Y-74645509D02*
X83557241Y-74745509D01*
X83557241Y-74745509D02*
X83157241Y-75145509D01*
X83157241Y-75145509D02*
X83590574Y-75145509D01*
X127127671Y-75401851D02*
X127841956Y-75401851D01*
X127841956Y-75401851D02*
X127984813Y-75449470D01*
X127984813Y-75449470D02*
X128080052Y-75544708D01*
X128080052Y-75544708D02*
X128127671Y-75687565D01*
X128127671Y-75687565D02*
X128127671Y-75782803D01*
X127127671Y-75020898D02*
X127127671Y-74401851D01*
X127127671Y-74401851D02*
X127508623Y-74735184D01*
X127508623Y-74735184D02*
X127508623Y-74592327D01*
X127508623Y-74592327D02*
X127556242Y-74497089D01*
X127556242Y-74497089D02*
X127603861Y-74449470D01*
X127603861Y-74449470D02*
X127699099Y-74401851D01*
X127699099Y-74401851D02*
X127937194Y-74401851D01*
X127937194Y-74401851D02*
X128032432Y-74449470D01*
X128032432Y-74449470D02*
X128080052Y-74497089D01*
X128080052Y-74497089D02*
X128127671Y-74592327D01*
X128127671Y-74592327D02*
X128127671Y-74878041D01*
X128127671Y-74878041D02*
X128080052Y-74973279D01*
X128080052Y-74973279D02*
X128032432Y-75020898D01*
X104192484Y-58917213D02*
X104192484Y-59483880D01*
X104192484Y-59483880D02*
X104225818Y-59550546D01*
X104225818Y-59550546D02*
X104259151Y-59583880D01*
X104259151Y-59583880D02*
X104325818Y-59617213D01*
X104325818Y-59617213D02*
X104459151Y-59617213D01*
X104459151Y-59617213D02*
X104525818Y-59583880D01*
X104525818Y-59583880D02*
X104559151Y-59550546D01*
X104559151Y-59550546D02*
X104592484Y-59483880D01*
X104592484Y-59483880D02*
X104592484Y-58917213D01*
X105292484Y-59617213D02*
X104892484Y-59617213D01*
X105092484Y-59617213D02*
X105092484Y-58917213D01*
X105092484Y-58917213D02*
X105025817Y-59017213D01*
X105025817Y-59017213D02*
X104959151Y-59083880D01*
X104959151Y-59083880D02*
X104892484Y-59117213D01*
X105725818Y-58917213D02*
X105792484Y-58917213D01*
X105792484Y-58917213D02*
X105859151Y-58950546D01*
X105859151Y-58950546D02*
X105892484Y-58983880D01*
X105892484Y-58983880D02*
X105925818Y-59050546D01*
X105925818Y-59050546D02*
X105959151Y-59183880D01*
X105959151Y-59183880D02*
X105959151Y-59350546D01*
X105959151Y-59350546D02*
X105925818Y-59483880D01*
X105925818Y-59483880D02*
X105892484Y-59550546D01*
X105892484Y-59550546D02*
X105859151Y-59583880D01*
X105859151Y-59583880D02*
X105792484Y-59617213D01*
X105792484Y-59617213D02*
X105725818Y-59617213D01*
X105725818Y-59617213D02*
X105659151Y-59583880D01*
X105659151Y-59583880D02*
X105625818Y-59550546D01*
X105625818Y-59550546D02*
X105592484Y-59483880D01*
X105592484Y-59483880D02*
X105559151Y-59350546D01*
X105559151Y-59350546D02*
X105559151Y-59183880D01*
X105559151Y-59183880D02*
X105592484Y-59050546D01*
X105592484Y-59050546D02*
X105625818Y-58983880D01*
X105625818Y-58983880D02*
X105659151Y-58950546D01*
X105659151Y-58950546D02*
X105725818Y-58917213D01*
X98465791Y-77282700D02*
X98565791Y-77316033D01*
X98565791Y-77316033D02*
X98732458Y-77316033D01*
X98732458Y-77316033D02*
X98799124Y-77282700D01*
X98799124Y-77282700D02*
X98832458Y-77249366D01*
X98832458Y-77249366D02*
X98865791Y-77182700D01*
X98865791Y-77182700D02*
X98865791Y-77116033D01*
X98865791Y-77116033D02*
X98832458Y-77049366D01*
X98832458Y-77049366D02*
X98799124Y-77016033D01*
X98799124Y-77016033D02*
X98732458Y-76982700D01*
X98732458Y-76982700D02*
X98599124Y-76949366D01*
X98599124Y-76949366D02*
X98532458Y-76916033D01*
X98532458Y-76916033D02*
X98499124Y-76882700D01*
X98499124Y-76882700D02*
X98465791Y-76816033D01*
X98465791Y-76816033D02*
X98465791Y-76749366D01*
X98465791Y-76749366D02*
X98499124Y-76682700D01*
X98499124Y-76682700D02*
X98532458Y-76649366D01*
X98532458Y-76649366D02*
X98599124Y-76616033D01*
X98599124Y-76616033D02*
X98765791Y-76616033D01*
X98765791Y-76616033D02*
X98865791Y-76649366D01*
X99099125Y-76616033D02*
X99265791Y-77316033D01*
X99265791Y-77316033D02*
X99399125Y-76816033D01*
X99399125Y-76816033D02*
X99532458Y-77316033D01*
X99532458Y-77316033D02*
X99699125Y-76616033D01*
X99932458Y-76682700D02*
X99965791Y-76649366D01*
X99965791Y-76649366D02*
X100032458Y-76616033D01*
X100032458Y-76616033D02*
X100199125Y-76616033D01*
X100199125Y-76616033D02*
X100265791Y-76649366D01*
X100265791Y-76649366D02*
X100299125Y-76682700D01*
X100299125Y-76682700D02*
X100332458Y-76749366D01*
X100332458Y-76749366D02*
X100332458Y-76816033D01*
X100332458Y-76816033D02*
X100299125Y-76916033D01*
X100299125Y-76916033D02*
X99899125Y-77316033D01*
X99899125Y-77316033D02*
X100332458Y-77316033D01*
X101325839Y-83044578D02*
X101468696Y-83092197D01*
X101468696Y-83092197D02*
X101516315Y-83139816D01*
X101516315Y-83139816D02*
X101563934Y-83235054D01*
X101563934Y-83235054D02*
X101563934Y-83377911D01*
X101563934Y-83377911D02*
X101516315Y-83473149D01*
X101516315Y-83473149D02*
X101468696Y-83520769D01*
X101468696Y-83520769D02*
X101373458Y-83568388D01*
X101373458Y-83568388D02*
X100992506Y-83568388D01*
X100992506Y-83568388D02*
X100992506Y-82568388D01*
X100992506Y-82568388D02*
X101325839Y-82568388D01*
X101325839Y-82568388D02*
X101421077Y-82616007D01*
X101421077Y-82616007D02*
X101468696Y-82663626D01*
X101468696Y-82663626D02*
X101516315Y-82758864D01*
X101516315Y-82758864D02*
X101516315Y-82854102D01*
X101516315Y-82854102D02*
X101468696Y-82949340D01*
X101468696Y-82949340D02*
X101421077Y-82996959D01*
X101421077Y-82996959D02*
X101325839Y-83044578D01*
X101325839Y-83044578D02*
X100992506Y-83044578D01*
X102182982Y-82568388D02*
X102373458Y-82568388D01*
X102373458Y-82568388D02*
X102468696Y-82616007D01*
X102468696Y-82616007D02*
X102563934Y-82711245D01*
X102563934Y-82711245D02*
X102611553Y-82901721D01*
X102611553Y-82901721D02*
X102611553Y-83235054D01*
X102611553Y-83235054D02*
X102563934Y-83425530D01*
X102563934Y-83425530D02*
X102468696Y-83520769D01*
X102468696Y-83520769D02*
X102373458Y-83568388D01*
X102373458Y-83568388D02*
X102182982Y-83568388D01*
X102182982Y-83568388D02*
X102087744Y-83520769D01*
X102087744Y-83520769D02*
X101992506Y-83425530D01*
X101992506Y-83425530D02*
X101944887Y-83235054D01*
X101944887Y-83235054D02*
X101944887Y-82901721D01*
X101944887Y-82901721D02*
X101992506Y-82711245D01*
X101992506Y-82711245D02*
X102087744Y-82616007D01*
X102087744Y-82616007D02*
X102182982Y-82568388D01*
X103230601Y-82568388D02*
X103421077Y-82568388D01*
X103421077Y-82568388D02*
X103516315Y-82616007D01*
X103516315Y-82616007D02*
X103611553Y-82711245D01*
X103611553Y-82711245D02*
X103659172Y-82901721D01*
X103659172Y-82901721D02*
X103659172Y-83235054D01*
X103659172Y-83235054D02*
X103611553Y-83425530D01*
X103611553Y-83425530D02*
X103516315Y-83520769D01*
X103516315Y-83520769D02*
X103421077Y-83568388D01*
X103421077Y-83568388D02*
X103230601Y-83568388D01*
X103230601Y-83568388D02*
X103135363Y-83520769D01*
X103135363Y-83520769D02*
X103040125Y-83425530D01*
X103040125Y-83425530D02*
X102992506Y-83235054D01*
X102992506Y-83235054D02*
X102992506Y-82901721D01*
X102992506Y-82901721D02*
X103040125Y-82711245D01*
X103040125Y-82711245D02*
X103135363Y-82616007D01*
X103135363Y-82616007D02*
X103230601Y-82568388D01*
X103944887Y-82568388D02*
X104516315Y-82568388D01*
X104230601Y-83568388D02*
X104230601Y-82568388D01*
X108133333Y-87651033D02*
X108133333Y-88217700D01*
X108133333Y-88217700D02*
X108166667Y-88284366D01*
X108166667Y-88284366D02*
X108200000Y-88317700D01*
X108200000Y-88317700D02*
X108266667Y-88351033D01*
X108266667Y-88351033D02*
X108400000Y-88351033D01*
X108400000Y-88351033D02*
X108466667Y-88317700D01*
X108466667Y-88317700D02*
X108500000Y-88284366D01*
X108500000Y-88284366D02*
X108533333Y-88217700D01*
X108533333Y-88217700D02*
X108533333Y-87651033D01*
X109233333Y-88351033D02*
X108833333Y-88351033D01*
X109033333Y-88351033D02*
X109033333Y-87651033D01*
X109033333Y-87651033D02*
X108966666Y-87751033D01*
X108966666Y-87751033D02*
X108900000Y-87817700D01*
X108900000Y-87817700D02*
X108833333Y-87851033D01*
X109900000Y-88351033D02*
X109500000Y-88351033D01*
X109700000Y-88351033D02*
X109700000Y-87651033D01*
X109700000Y-87651033D02*
X109633333Y-87751033D01*
X109633333Y-87751033D02*
X109566667Y-87817700D01*
X109566667Y-87817700D02*
X109500000Y-87851033D01*
X110194163Y-57960774D02*
X110194163Y-58527441D01*
X110194163Y-58527441D02*
X110227497Y-58594107D01*
X110227497Y-58594107D02*
X110260830Y-58627441D01*
X110260830Y-58627441D02*
X110327497Y-58660774D01*
X110327497Y-58660774D02*
X110460830Y-58660774D01*
X110460830Y-58660774D02*
X110527497Y-58627441D01*
X110527497Y-58627441D02*
X110560830Y-58594107D01*
X110560830Y-58594107D02*
X110594163Y-58527441D01*
X110594163Y-58527441D02*
X110594163Y-57960774D01*
X110860830Y-57960774D02*
X111327496Y-57960774D01*
X111327496Y-57960774D02*
X111027496Y-58660774D01*
X132766666Y-101916033D02*
X132766666Y-102416033D01*
X132766666Y-102416033D02*
X132733333Y-102516033D01*
X132733333Y-102516033D02*
X132666666Y-102582700D01*
X132666666Y-102582700D02*
X132566666Y-102616033D01*
X132566666Y-102616033D02*
X132500000Y-102616033D01*
X133466666Y-102616033D02*
X133066666Y-102616033D01*
X133266666Y-102616033D02*
X133266666Y-101916033D01*
X133266666Y-101916033D02*
X133199999Y-102016033D01*
X133199999Y-102016033D02*
X133133333Y-102082700D01*
X133133333Y-102082700D02*
X133066666Y-102116033D01*
X109953122Y-65431553D02*
X109953122Y-65998220D01*
X109953122Y-65998220D02*
X109986456Y-66064886D01*
X109986456Y-66064886D02*
X110019789Y-66098220D01*
X110019789Y-66098220D02*
X110086456Y-66131553D01*
X110086456Y-66131553D02*
X110219789Y-66131553D01*
X110219789Y-66131553D02*
X110286456Y-66098220D01*
X110286456Y-66098220D02*
X110319789Y-66064886D01*
X110319789Y-66064886D02*
X110353122Y-65998220D01*
X110353122Y-65998220D02*
X110353122Y-65431553D01*
X110986455Y-65664886D02*
X110986455Y-66131553D01*
X110819789Y-65398220D02*
X110653122Y-65898220D01*
X110653122Y-65898220D02*
X111086455Y-65898220D01*
X81165405Y-100730105D02*
X81165405Y-101230105D01*
X81165405Y-101230105D02*
X81132072Y-101330105D01*
X81132072Y-101330105D02*
X81065405Y-101396772D01*
X81065405Y-101396772D02*
X80965405Y-101430105D01*
X80965405Y-101430105D02*
X80898739Y-101430105D01*
X81465405Y-100796772D02*
X81498738Y-100763438D01*
X81498738Y-100763438D02*
X81565405Y-100730105D01*
X81565405Y-100730105D02*
X81732072Y-100730105D01*
X81732072Y-100730105D02*
X81798738Y-100763438D01*
X81798738Y-100763438D02*
X81832072Y-100796772D01*
X81832072Y-100796772D02*
X81865405Y-100863438D01*
X81865405Y-100863438D02*
X81865405Y-100930105D01*
X81865405Y-100930105D02*
X81832072Y-101030105D01*
X81832072Y-101030105D02*
X81432072Y-101430105D01*
X81432072Y-101430105D02*
X81865405Y-101430105D01*
X93314997Y-76384514D02*
X93314997Y-76951181D01*
X93314997Y-76951181D02*
X93348331Y-77017847D01*
X93348331Y-77017847D02*
X93381664Y-77051181D01*
X93381664Y-77051181D02*
X93448331Y-77084514D01*
X93448331Y-77084514D02*
X93581664Y-77084514D01*
X93581664Y-77084514D02*
X93648331Y-77051181D01*
X93648331Y-77051181D02*
X93681664Y-77017847D01*
X93681664Y-77017847D02*
X93714997Y-76951181D01*
X93714997Y-76951181D02*
X93714997Y-76384514D01*
X93981664Y-76384514D02*
X94414997Y-76384514D01*
X94414997Y-76384514D02*
X94181664Y-76651181D01*
X94181664Y-76651181D02*
X94281664Y-76651181D01*
X94281664Y-76651181D02*
X94348330Y-76684514D01*
X94348330Y-76684514D02*
X94381664Y-76717847D01*
X94381664Y-76717847D02*
X94414997Y-76784514D01*
X94414997Y-76784514D02*
X94414997Y-76951181D01*
X94414997Y-76951181D02*
X94381664Y-77017847D01*
X94381664Y-77017847D02*
X94348330Y-77051181D01*
X94348330Y-77051181D02*
X94281664Y-77084514D01*
X94281664Y-77084514D02*
X94081664Y-77084514D01*
X94081664Y-77084514D02*
X94014997Y-77051181D01*
X94014997Y-77051181D02*
X93981664Y-77017847D01*
X89238094Y-52919104D02*
X89714284Y-52919104D01*
X89142856Y-53204819D02*
X89476189Y-52204819D01*
X89476189Y-52204819D02*
X89809522Y-53204819D01*
X90142856Y-52538152D02*
X90142856Y-53204819D01*
X90142856Y-52633390D02*
X90190475Y-52585771D01*
X90190475Y-52585771D02*
X90285713Y-52538152D01*
X90285713Y-52538152D02*
X90428570Y-52538152D01*
X90428570Y-52538152D02*
X90523808Y-52585771D01*
X90523808Y-52585771D02*
X90571427Y-52681009D01*
X90571427Y-52681009D02*
X90571427Y-53204819D01*
X90904761Y-52538152D02*
X91285713Y-52538152D01*
X91047618Y-52204819D02*
X91047618Y-53061961D01*
X91047618Y-53061961D02*
X91095237Y-53157200D01*
X91095237Y-53157200D02*
X91190475Y-53204819D01*
X91190475Y-53204819D02*
X91285713Y-53204819D01*
X91999999Y-53157200D02*
X91904761Y-53204819D01*
X91904761Y-53204819D02*
X91714285Y-53204819D01*
X91714285Y-53204819D02*
X91619047Y-53157200D01*
X91619047Y-53157200D02*
X91571428Y-53061961D01*
X91571428Y-53061961D02*
X91571428Y-52681009D01*
X91571428Y-52681009D02*
X91619047Y-52585771D01*
X91619047Y-52585771D02*
X91714285Y-52538152D01*
X91714285Y-52538152D02*
X91904761Y-52538152D01*
X91904761Y-52538152D02*
X91999999Y-52585771D01*
X91999999Y-52585771D02*
X92047618Y-52681009D01*
X92047618Y-52681009D02*
X92047618Y-52776247D01*
X92047618Y-52776247D02*
X91571428Y-52871485D01*
X92476190Y-52538152D02*
X92476190Y-53204819D01*
X92476190Y-52633390D02*
X92523809Y-52585771D01*
X92523809Y-52585771D02*
X92619047Y-52538152D01*
X92619047Y-52538152D02*
X92761904Y-52538152D01*
X92761904Y-52538152D02*
X92857142Y-52585771D01*
X92857142Y-52585771D02*
X92904761Y-52681009D01*
X92904761Y-52681009D02*
X92904761Y-53204819D01*
X93380952Y-52538152D02*
X93380952Y-53204819D01*
X93380952Y-52633390D02*
X93428571Y-52585771D01*
X93428571Y-52585771D02*
X93523809Y-52538152D01*
X93523809Y-52538152D02*
X93666666Y-52538152D01*
X93666666Y-52538152D02*
X93761904Y-52585771D01*
X93761904Y-52585771D02*
X93809523Y-52681009D01*
X93809523Y-52681009D02*
X93809523Y-53204819D01*
X94714285Y-53204819D02*
X94714285Y-52681009D01*
X94714285Y-52681009D02*
X94666666Y-52585771D01*
X94666666Y-52585771D02*
X94571428Y-52538152D01*
X94571428Y-52538152D02*
X94380952Y-52538152D01*
X94380952Y-52538152D02*
X94285714Y-52585771D01*
X94714285Y-53157200D02*
X94619047Y-53204819D01*
X94619047Y-53204819D02*
X94380952Y-53204819D01*
X94380952Y-53204819D02*
X94285714Y-53157200D01*
X94285714Y-53157200D02*
X94238095Y-53061961D01*
X94238095Y-53061961D02*
X94238095Y-52966723D01*
X94238095Y-52966723D02*
X94285714Y-52871485D01*
X94285714Y-52871485D02*
X94380952Y-52823866D01*
X94380952Y-52823866D02*
X94619047Y-52823866D01*
X94619047Y-52823866D02*
X94714285Y-52776247D01*
X95904762Y-52919104D02*
X96380952Y-52919104D01*
X95809524Y-53204819D02*
X96142857Y-52204819D01*
X96142857Y-52204819D02*
X96476190Y-53204819D01*
X96809524Y-53204819D02*
X96809524Y-52538152D01*
X96809524Y-52728628D02*
X96857143Y-52633390D01*
X96857143Y-52633390D02*
X96904762Y-52585771D01*
X96904762Y-52585771D02*
X97000000Y-52538152D01*
X97000000Y-52538152D02*
X97095238Y-52538152D01*
X97809524Y-53157200D02*
X97714286Y-53204819D01*
X97714286Y-53204819D02*
X97523810Y-53204819D01*
X97523810Y-53204819D02*
X97428572Y-53157200D01*
X97428572Y-53157200D02*
X97380953Y-53061961D01*
X97380953Y-53061961D02*
X97380953Y-52681009D01*
X97380953Y-52681009D02*
X97428572Y-52585771D01*
X97428572Y-52585771D02*
X97523810Y-52538152D01*
X97523810Y-52538152D02*
X97714286Y-52538152D01*
X97714286Y-52538152D02*
X97809524Y-52585771D01*
X97809524Y-52585771D02*
X97857143Y-52681009D01*
X97857143Y-52681009D02*
X97857143Y-52776247D01*
X97857143Y-52776247D02*
X97380953Y-52871485D01*
X98714286Y-53204819D02*
X98714286Y-52681009D01*
X98714286Y-52681009D02*
X98666667Y-52585771D01*
X98666667Y-52585771D02*
X98571429Y-52538152D01*
X98571429Y-52538152D02*
X98380953Y-52538152D01*
X98380953Y-52538152D02*
X98285715Y-52585771D01*
X98714286Y-53157200D02*
X98619048Y-53204819D01*
X98619048Y-53204819D02*
X98380953Y-53204819D01*
X98380953Y-53204819D02*
X98285715Y-53157200D01*
X98285715Y-53157200D02*
X98238096Y-53061961D01*
X98238096Y-53061961D02*
X98238096Y-52966723D01*
X98238096Y-52966723D02*
X98285715Y-52871485D01*
X98285715Y-52871485D02*
X98380953Y-52823866D01*
X98380953Y-52823866D02*
X98619048Y-52823866D01*
X98619048Y-52823866D02*
X98714286Y-52776247D01*
X97375403Y-80243407D02*
X97375403Y-80810074D01*
X97375403Y-80810074D02*
X97408737Y-80876740D01*
X97408737Y-80876740D02*
X97442070Y-80910074D01*
X97442070Y-80910074D02*
X97508737Y-80943407D01*
X97508737Y-80943407D02*
X97642070Y-80943407D01*
X97642070Y-80943407D02*
X97708737Y-80910074D01*
X97708737Y-80910074D02*
X97742070Y-80876740D01*
X97742070Y-80876740D02*
X97775403Y-80810074D01*
X97775403Y-80810074D02*
X97775403Y-80243407D01*
X98075403Y-80310074D02*
X98108736Y-80276740D01*
X98108736Y-80276740D02*
X98175403Y-80243407D01*
X98175403Y-80243407D02*
X98342070Y-80243407D01*
X98342070Y-80243407D02*
X98408736Y-80276740D01*
X98408736Y-80276740D02*
X98442070Y-80310074D01*
X98442070Y-80310074D02*
X98475403Y-80376740D01*
X98475403Y-80376740D02*
X98475403Y-80443407D01*
X98475403Y-80443407D02*
X98442070Y-80543407D01*
X98442070Y-80543407D02*
X98042070Y-80943407D01*
X98042070Y-80943407D02*
X98475403Y-80943407D01*
X86410363Y-95840846D02*
X86177030Y-95507513D01*
X86010363Y-95840846D02*
X86010363Y-95140846D01*
X86010363Y-95140846D02*
X86277030Y-95140846D01*
X86277030Y-95140846D02*
X86343697Y-95174179D01*
X86343697Y-95174179D02*
X86377030Y-95207513D01*
X86377030Y-95207513D02*
X86410363Y-95274179D01*
X86410363Y-95274179D02*
X86410363Y-95374179D01*
X86410363Y-95374179D02*
X86377030Y-95440846D01*
X86377030Y-95440846D02*
X86343697Y-95474179D01*
X86343697Y-95474179D02*
X86277030Y-95507513D01*
X86277030Y-95507513D02*
X86010363Y-95507513D01*
X87010363Y-95374179D02*
X87010363Y-95840846D01*
X86843697Y-95107513D02*
X86677030Y-95607513D01*
X86677030Y-95607513D02*
X87110363Y-95607513D01*
X109897298Y-71795509D02*
X109897298Y-72362176D01*
X109897298Y-72362176D02*
X109930632Y-72428842D01*
X109930632Y-72428842D02*
X109963965Y-72462176D01*
X109963965Y-72462176D02*
X110030632Y-72495509D01*
X110030632Y-72495509D02*
X110163965Y-72495509D01*
X110163965Y-72495509D02*
X110230632Y-72462176D01*
X110230632Y-72462176D02*
X110263965Y-72428842D01*
X110263965Y-72428842D02*
X110297298Y-72362176D01*
X110297298Y-72362176D02*
X110297298Y-71795509D01*
X110963965Y-71795509D02*
X110630631Y-71795509D01*
X110630631Y-71795509D02*
X110597298Y-72128842D01*
X110597298Y-72128842D02*
X110630631Y-72095509D01*
X110630631Y-72095509D02*
X110697298Y-72062176D01*
X110697298Y-72062176D02*
X110863965Y-72062176D01*
X110863965Y-72062176D02*
X110930631Y-72095509D01*
X110930631Y-72095509D02*
X110963965Y-72128842D01*
X110963965Y-72128842D02*
X110997298Y-72195509D01*
X110997298Y-72195509D02*
X110997298Y-72362176D01*
X110997298Y-72362176D02*
X110963965Y-72428842D01*
X110963965Y-72428842D02*
X110930631Y-72462176D01*
X110930631Y-72462176D02*
X110863965Y-72495509D01*
X110863965Y-72495509D02*
X110697298Y-72495509D01*
X110697298Y-72495509D02*
X110630631Y-72462176D01*
X110630631Y-72462176D02*
X110597298Y-72428842D01*
X82915378Y-71849040D02*
X82682045Y-71515707D01*
X82515378Y-71849040D02*
X82515378Y-71149040D01*
X82515378Y-71149040D02*
X82782045Y-71149040D01*
X82782045Y-71149040D02*
X82848712Y-71182373D01*
X82848712Y-71182373D02*
X82882045Y-71215707D01*
X82882045Y-71215707D02*
X82915378Y-71282373D01*
X82915378Y-71282373D02*
X82915378Y-71382373D01*
X82915378Y-71382373D02*
X82882045Y-71449040D01*
X82882045Y-71449040D02*
X82848712Y-71482373D01*
X82848712Y-71482373D02*
X82782045Y-71515707D01*
X82782045Y-71515707D02*
X82515378Y-71515707D01*
X83148712Y-71149040D02*
X83582045Y-71149040D01*
X83582045Y-71149040D02*
X83348712Y-71415707D01*
X83348712Y-71415707D02*
X83448712Y-71415707D01*
X83448712Y-71415707D02*
X83515378Y-71449040D01*
X83515378Y-71449040D02*
X83548712Y-71482373D01*
X83548712Y-71482373D02*
X83582045Y-71549040D01*
X83582045Y-71549040D02*
X83582045Y-71715707D01*
X83582045Y-71715707D02*
X83548712Y-71782373D01*
X83548712Y-71782373D02*
X83515378Y-71815707D01*
X83515378Y-71815707D02*
X83448712Y-71849040D01*
X83448712Y-71849040D02*
X83248712Y-71849040D01*
X83248712Y-71849040D02*
X83182045Y-71815707D01*
X83182045Y-71815707D02*
X83148712Y-71782373D01*
X116549999Y-61249366D02*
X116516666Y-61282700D01*
X116516666Y-61282700D02*
X116416666Y-61316033D01*
X116416666Y-61316033D02*
X116349999Y-61316033D01*
X116349999Y-61316033D02*
X116249999Y-61282700D01*
X116249999Y-61282700D02*
X116183333Y-61216033D01*
X116183333Y-61216033D02*
X116149999Y-61149366D01*
X116149999Y-61149366D02*
X116116666Y-61016033D01*
X116116666Y-61016033D02*
X116116666Y-60916033D01*
X116116666Y-60916033D02*
X116149999Y-60782700D01*
X116149999Y-60782700D02*
X116183333Y-60716033D01*
X116183333Y-60716033D02*
X116249999Y-60649366D01*
X116249999Y-60649366D02*
X116349999Y-60616033D01*
X116349999Y-60616033D02*
X116416666Y-60616033D01*
X116416666Y-60616033D02*
X116516666Y-60649366D01*
X116516666Y-60649366D02*
X116549999Y-60682700D01*
X117216666Y-61316033D02*
X116816666Y-61316033D01*
X117016666Y-61316033D02*
X117016666Y-60616033D01*
X117016666Y-60616033D02*
X116949999Y-60716033D01*
X116949999Y-60716033D02*
X116883333Y-60782700D01*
X116883333Y-60782700D02*
X116816666Y-60816033D01*
X117883333Y-61316033D02*
X117483333Y-61316033D01*
X117683333Y-61316033D02*
X117683333Y-60616033D01*
X117683333Y-60616033D02*
X117616666Y-60716033D01*
X117616666Y-60716033D02*
X117550000Y-60782700D01*
X117550000Y-60782700D02*
X117483333Y-60816033D01*
X116416666Y-76616033D02*
X116416666Y-77182700D01*
X116416666Y-77182700D02*
X116450000Y-77249366D01*
X116450000Y-77249366D02*
X116483333Y-77282700D01*
X116483333Y-77282700D02*
X116550000Y-77316033D01*
X116550000Y-77316033D02*
X116683333Y-77316033D01*
X116683333Y-77316033D02*
X116750000Y-77282700D01*
X116750000Y-77282700D02*
X116783333Y-77249366D01*
X116783333Y-77249366D02*
X116816666Y-77182700D01*
X116816666Y-77182700D02*
X116816666Y-76616033D01*
X117183333Y-77316033D02*
X117316666Y-77316033D01*
X117316666Y-77316033D02*
X117383333Y-77282700D01*
X117383333Y-77282700D02*
X117416666Y-77249366D01*
X117416666Y-77249366D02*
X117483333Y-77149366D01*
X117483333Y-77149366D02*
X117516666Y-77016033D01*
X117516666Y-77016033D02*
X117516666Y-76749366D01*
X117516666Y-76749366D02*
X117483333Y-76682700D01*
X117483333Y-76682700D02*
X117449999Y-76649366D01*
X117449999Y-76649366D02*
X117383333Y-76616033D01*
X117383333Y-76616033D02*
X117249999Y-76616033D01*
X117249999Y-76616033D02*
X117183333Y-76649366D01*
X117183333Y-76649366D02*
X117149999Y-76682700D01*
X117149999Y-76682700D02*
X117116666Y-76749366D01*
X117116666Y-76749366D02*
X117116666Y-76916033D01*
X117116666Y-76916033D02*
X117149999Y-76982700D01*
X117149999Y-76982700D02*
X117183333Y-77016033D01*
X117183333Y-77016033D02*
X117249999Y-77049366D01*
X117249999Y-77049366D02*
X117383333Y-77049366D01*
X117383333Y-77049366D02*
X117449999Y-77016033D01*
X117449999Y-77016033D02*
X117483333Y-76982700D01*
X117483333Y-76982700D02*
X117516666Y-76916033D01*
X116416666Y-66616033D02*
X116416666Y-67182700D01*
X116416666Y-67182700D02*
X116450000Y-67249366D01*
X116450000Y-67249366D02*
X116483333Y-67282700D01*
X116483333Y-67282700D02*
X116550000Y-67316033D01*
X116550000Y-67316033D02*
X116683333Y-67316033D01*
X116683333Y-67316033D02*
X116750000Y-67282700D01*
X116750000Y-67282700D02*
X116783333Y-67249366D01*
X116783333Y-67249366D02*
X116816666Y-67182700D01*
X116816666Y-67182700D02*
X116816666Y-66616033D01*
X117249999Y-66916033D02*
X117183333Y-66882700D01*
X117183333Y-66882700D02*
X117149999Y-66849366D01*
X117149999Y-66849366D02*
X117116666Y-66782700D01*
X117116666Y-66782700D02*
X117116666Y-66749366D01*
X117116666Y-66749366D02*
X117149999Y-66682700D01*
X117149999Y-66682700D02*
X117183333Y-66649366D01*
X117183333Y-66649366D02*
X117249999Y-66616033D01*
X117249999Y-66616033D02*
X117383333Y-66616033D01*
X117383333Y-66616033D02*
X117449999Y-66649366D01*
X117449999Y-66649366D02*
X117483333Y-66682700D01*
X117483333Y-66682700D02*
X117516666Y-66749366D01*
X117516666Y-66749366D02*
X117516666Y-66782700D01*
X117516666Y-66782700D02*
X117483333Y-66849366D01*
X117483333Y-66849366D02*
X117449999Y-66882700D01*
X117449999Y-66882700D02*
X117383333Y-66916033D01*
X117383333Y-66916033D02*
X117249999Y-66916033D01*
X117249999Y-66916033D02*
X117183333Y-66949366D01*
X117183333Y-66949366D02*
X117149999Y-66982700D01*
X117149999Y-66982700D02*
X117116666Y-67049366D01*
X117116666Y-67049366D02*
X117116666Y-67182700D01*
X117116666Y-67182700D02*
X117149999Y-67249366D01*
X117149999Y-67249366D02*
X117183333Y-67282700D01*
X117183333Y-67282700D02*
X117249999Y-67316033D01*
X117249999Y-67316033D02*
X117383333Y-67316033D01*
X117383333Y-67316033D02*
X117449999Y-67282700D01*
X117449999Y-67282700D02*
X117483333Y-67249366D01*
X117483333Y-67249366D02*
X117516666Y-67182700D01*
X117516666Y-67182700D02*
X117516666Y-67049366D01*
X117516666Y-67049366D02*
X117483333Y-66982700D01*
X117483333Y-66982700D02*
X117449999Y-66949366D01*
X117449999Y-66949366D02*
X117383333Y-66916033D01*
D10*
X105276666Y-99988633D02*
X105276666Y-100555300D01*
X105276666Y-100555300D02*
X105310000Y-100621966D01*
X105310000Y-100621966D02*
X105343333Y-100655300D01*
X105343333Y-100655300D02*
X105410000Y-100688633D01*
X105410000Y-100688633D02*
X105543333Y-100688633D01*
X105543333Y-100688633D02*
X105610000Y-100655300D01*
X105610000Y-100655300D02*
X105643333Y-100621966D01*
X105643333Y-100621966D02*
X105676666Y-100555300D01*
X105676666Y-100555300D02*
X105676666Y-99988633D01*
X106376666Y-100688633D02*
X105976666Y-100688633D01*
X106176666Y-100688633D02*
X106176666Y-99988633D01*
X106176666Y-99988633D02*
X106109999Y-100088633D01*
X106109999Y-100088633D02*
X106043333Y-100155300D01*
X106043333Y-100155300D02*
X105976666Y-100188633D01*
X112457666Y-92131634D02*
X112457666Y-91631634D01*
X112457666Y-91631634D02*
X112624333Y-91988777D01*
X112624333Y-91988777D02*
X112790999Y-91631634D01*
X112790999Y-91631634D02*
X112790999Y-92131634D01*
X97184836Y-102108178D02*
X97184836Y-101608178D01*
X97184836Y-101608178D02*
X97351503Y-101965321D01*
X97351503Y-101965321D02*
X97518169Y-101608178D01*
X97518169Y-101608178D02*
X97518169Y-102108178D01*
X109929974Y-103410535D02*
X110215688Y-103410535D01*
X110072831Y-103910535D02*
X110072831Y-103410535D01*
X94684836Y-102108178D02*
X94684836Y-101608178D01*
X94684836Y-101608178D02*
X94851503Y-101965321D01*
X94851503Y-101965321D02*
X95018169Y-101608178D01*
X95018169Y-101608178D02*
X95018169Y-102108178D01*
X109256265Y-94896895D02*
X109256265Y-94096895D01*
X109256265Y-94096895D02*
X109522931Y-94668323D01*
X109522931Y-94668323D02*
X109789598Y-94096895D01*
X109789598Y-94096895D02*
X109789598Y-94896895D01*
X110170551Y-94477847D02*
X110437217Y-94477847D01*
X110551503Y-94896895D02*
X110170551Y-94896895D01*
X110170551Y-94896895D02*
X110170551Y-94096895D01*
X110170551Y-94096895D02*
X110551503Y-94096895D01*
X110856265Y-94668323D02*
X111237218Y-94668323D01*
X110780075Y-94896895D02*
X111046742Y-94096895D01*
X111046742Y-94096895D02*
X111313408Y-94896895D01*
X111580075Y-94896895D02*
X111580075Y-94096895D01*
X111580075Y-94096895D02*
X112037218Y-94896895D01*
X112037218Y-94896895D02*
X112037218Y-94096895D01*
X112951503Y-94096895D02*
X113141979Y-94896895D01*
X113141979Y-94896895D02*
X113294360Y-94325466D01*
X113294360Y-94325466D02*
X113446741Y-94896895D01*
X113446741Y-94896895D02*
X113637218Y-94096895D01*
X113941980Y-94477847D02*
X114208646Y-94477847D01*
X114322932Y-94896895D02*
X113941980Y-94896895D01*
X113941980Y-94896895D02*
X113941980Y-94096895D01*
X113941980Y-94096895D02*
X114322932Y-94096895D01*
X115046742Y-94896895D02*
X114665790Y-94896895D01*
X114665790Y-94896895D02*
X114665790Y-94096895D01*
X115694361Y-94896895D02*
X115313409Y-94896895D01*
X115313409Y-94896895D02*
X115313409Y-94096895D01*
X97184836Y-91963609D02*
X97184836Y-91463609D01*
X97184836Y-91463609D02*
X97351503Y-91820752D01*
X97351503Y-91820752D02*
X97518169Y-91463609D01*
X97518169Y-91463609D02*
X97518169Y-91963609D01*
X92873104Y-93786265D02*
X93673104Y-93786265D01*
X93673104Y-93786265D02*
X93673104Y-94091027D01*
X93673104Y-94091027D02*
X93635009Y-94167217D01*
X93635009Y-94167217D02*
X93596914Y-94205312D01*
X93596914Y-94205312D02*
X93520723Y-94243408D01*
X93520723Y-94243408D02*
X93406438Y-94243408D01*
X93406438Y-94243408D02*
X93330247Y-94205312D01*
X93330247Y-94205312D02*
X93292152Y-94167217D01*
X93292152Y-94167217D02*
X93254057Y-94091027D01*
X93254057Y-94091027D02*
X93254057Y-93786265D01*
X93673104Y-94738646D02*
X93673104Y-94891027D01*
X93673104Y-94891027D02*
X93635009Y-94967217D01*
X93635009Y-94967217D02*
X93558819Y-95043408D01*
X93558819Y-95043408D02*
X93406438Y-95081503D01*
X93406438Y-95081503D02*
X93139771Y-95081503D01*
X93139771Y-95081503D02*
X92987390Y-95043408D01*
X92987390Y-95043408D02*
X92911200Y-94967217D01*
X92911200Y-94967217D02*
X92873104Y-94891027D01*
X92873104Y-94891027D02*
X92873104Y-94738646D01*
X92873104Y-94738646D02*
X92911200Y-94662455D01*
X92911200Y-94662455D02*
X92987390Y-94586265D01*
X92987390Y-94586265D02*
X93139771Y-94548169D01*
X93139771Y-94548169D02*
X93406438Y-94548169D01*
X93406438Y-94548169D02*
X93558819Y-94586265D01*
X93558819Y-94586265D02*
X93635009Y-94662455D01*
X93635009Y-94662455D02*
X93673104Y-94738646D01*
X92873104Y-95424360D02*
X93673104Y-95424360D01*
X93673104Y-95424360D02*
X93673104Y-95729122D01*
X93673104Y-95729122D02*
X93635009Y-95805312D01*
X93635009Y-95805312D02*
X93596914Y-95843407D01*
X93596914Y-95843407D02*
X93520723Y-95881503D01*
X93520723Y-95881503D02*
X93406438Y-95881503D01*
X93406438Y-95881503D02*
X93330247Y-95843407D01*
X93330247Y-95843407D02*
X93292152Y-95805312D01*
X93292152Y-95805312D02*
X93254057Y-95729122D01*
X93254057Y-95729122D02*
X93254057Y-95424360D01*
X93673104Y-96224360D02*
X93025485Y-96224360D01*
X93025485Y-96224360D02*
X92949295Y-96262455D01*
X92949295Y-96262455D02*
X92911200Y-96300550D01*
X92911200Y-96300550D02*
X92873104Y-96376741D01*
X92873104Y-96376741D02*
X92873104Y-96529122D01*
X92873104Y-96529122D02*
X92911200Y-96605312D01*
X92911200Y-96605312D02*
X92949295Y-96643407D01*
X92949295Y-96643407D02*
X93025485Y-96681503D01*
X93025485Y-96681503D02*
X93673104Y-96681503D01*
X92873104Y-97443407D02*
X92873104Y-97062455D01*
X92873104Y-97062455D02*
X93673104Y-97062455D01*
X93101676Y-97671978D02*
X93101676Y-98052931D01*
X92873104Y-97595788D02*
X93673104Y-97862455D01*
X93673104Y-97862455D02*
X92873104Y-98129121D01*
X93673104Y-98281502D02*
X93673104Y-98738645D01*
X92873104Y-98510073D02*
X93673104Y-98510073D01*
X93292152Y-99005312D02*
X93292152Y-99271978D01*
X92873104Y-99386264D02*
X92873104Y-99005312D01*
X92873104Y-99005312D02*
X93673104Y-99005312D01*
X93673104Y-99005312D02*
X93673104Y-99386264D01*
X93673104Y-100491027D02*
X93673104Y-100643408D01*
X93673104Y-100643408D02*
X93635009Y-100719598D01*
X93635009Y-100719598D02*
X93558819Y-100795789D01*
X93558819Y-100795789D02*
X93406438Y-100833884D01*
X93406438Y-100833884D02*
X93139771Y-100833884D01*
X93139771Y-100833884D02*
X92987390Y-100795789D01*
X92987390Y-100795789D02*
X92911200Y-100719598D01*
X92911200Y-100719598D02*
X92873104Y-100643408D01*
X92873104Y-100643408D02*
X92873104Y-100491027D01*
X92873104Y-100491027D02*
X92911200Y-100414836D01*
X92911200Y-100414836D02*
X92987390Y-100338646D01*
X92987390Y-100338646D02*
X93139771Y-100300550D01*
X93139771Y-100300550D02*
X93406438Y-100300550D01*
X93406438Y-100300550D02*
X93558819Y-100338646D01*
X93558819Y-100338646D02*
X93635009Y-100414836D01*
X93635009Y-100414836D02*
X93673104Y-100491027D01*
X92873104Y-101176741D02*
X93673104Y-101176741D01*
X93673104Y-101176741D02*
X92873104Y-101633884D01*
X92873104Y-101633884D02*
X93673104Y-101633884D01*
X93292152Y-102014836D02*
X93292152Y-102281502D01*
X92873104Y-102395788D02*
X92873104Y-102014836D01*
X92873104Y-102014836D02*
X93673104Y-102014836D01*
X93673104Y-102014836D02*
X93673104Y-102395788D01*
X94414836Y-91963609D02*
X94414836Y-91463609D01*
X94414836Y-91463609D02*
X94581503Y-91820752D01*
X94581503Y-91820752D02*
X94748169Y-91463609D01*
X94748169Y-91463609D02*
X94748169Y-91963609D01*
X99929974Y-103410535D02*
X100215688Y-103410535D01*
X100072831Y-103910535D02*
X100072831Y-103410535D01*
X112141979Y-99096895D02*
X112599122Y-99096895D01*
X112370550Y-99896895D02*
X112370550Y-99096895D01*
X113322932Y-99896895D02*
X113056265Y-99515942D01*
X112865789Y-99896895D02*
X112865789Y-99096895D01*
X112865789Y-99096895D02*
X113170551Y-99096895D01*
X113170551Y-99096895D02*
X113246741Y-99134990D01*
X113246741Y-99134990D02*
X113284836Y-99173085D01*
X113284836Y-99173085D02*
X113322932Y-99249276D01*
X113322932Y-99249276D02*
X113322932Y-99363561D01*
X113322932Y-99363561D02*
X113284836Y-99439752D01*
X113284836Y-99439752D02*
X113246741Y-99477847D01*
X113246741Y-99477847D02*
X113170551Y-99515942D01*
X113170551Y-99515942D02*
X112865789Y-99515942D01*
X113627693Y-99668323D02*
X114008646Y-99668323D01*
X113551503Y-99896895D02*
X113818170Y-99096895D01*
X113818170Y-99096895D02*
X114084836Y-99896895D01*
X114808646Y-99820704D02*
X114770550Y-99858800D01*
X114770550Y-99858800D02*
X114656265Y-99896895D01*
X114656265Y-99896895D02*
X114580074Y-99896895D01*
X114580074Y-99896895D02*
X114465788Y-99858800D01*
X114465788Y-99858800D02*
X114389598Y-99782609D01*
X114389598Y-99782609D02*
X114351503Y-99706419D01*
X114351503Y-99706419D02*
X114313407Y-99554038D01*
X114313407Y-99554038D02*
X114313407Y-99439752D01*
X114313407Y-99439752D02*
X114351503Y-99287371D01*
X114351503Y-99287371D02*
X114389598Y-99211180D01*
X114389598Y-99211180D02*
X114465788Y-99134990D01*
X114465788Y-99134990D02*
X114580074Y-99096895D01*
X114580074Y-99096895D02*
X114656265Y-99096895D01*
X114656265Y-99096895D02*
X114770550Y-99134990D01*
X114770550Y-99134990D02*
X114808646Y-99173085D01*
X115303884Y-99096895D02*
X115456265Y-99096895D01*
X115456265Y-99096895D02*
X115532455Y-99134990D01*
X115532455Y-99134990D02*
X115608646Y-99211180D01*
X115608646Y-99211180D02*
X115646741Y-99363561D01*
X115646741Y-99363561D02*
X115646741Y-99630228D01*
X115646741Y-99630228D02*
X115608646Y-99782609D01*
X115608646Y-99782609D02*
X115532455Y-99858800D01*
X115532455Y-99858800D02*
X115456265Y-99896895D01*
X115456265Y-99896895D02*
X115303884Y-99896895D01*
X115303884Y-99896895D02*
X115227693Y-99858800D01*
X115227693Y-99858800D02*
X115151503Y-99782609D01*
X115151503Y-99782609D02*
X115113407Y-99630228D01*
X115113407Y-99630228D02*
X115113407Y-99363561D01*
X115113407Y-99363561D02*
X115151503Y-99211180D01*
X115151503Y-99211180D02*
X115227693Y-99134990D01*
X115227693Y-99134990D02*
X115303884Y-99096895D01*
X112457666Y-102459107D02*
X112457666Y-101959107D01*
X112457666Y-101959107D02*
X112624333Y-102316250D01*
X112624333Y-102316250D02*
X112790999Y-101959107D01*
X112790999Y-101959107D02*
X112790999Y-102459107D01*
X112609535Y-103466360D02*
X112895249Y-103466360D01*
X112752392Y-103966360D02*
X112752392Y-103466360D01*
X102429974Y-103410535D02*
X102715688Y-103410535D01*
X102572831Y-103910535D02*
X102572831Y-103410535D01*
X104929974Y-103410535D02*
X105215688Y-103410535D01*
X105072831Y-103910535D02*
X105072831Y-103410535D01*
D14*
X86410363Y-92513467D02*
X86177030Y-92180134D01*
X86010363Y-92513467D02*
X86010363Y-91813467D01*
X86010363Y-91813467D02*
X86277030Y-91813467D01*
X86277030Y-91813467D02*
X86343697Y-91846800D01*
X86343697Y-91846800D02*
X86377030Y-91880134D01*
X86377030Y-91880134D02*
X86410363Y-91946800D01*
X86410363Y-91946800D02*
X86410363Y-92046800D01*
X86410363Y-92046800D02*
X86377030Y-92113467D01*
X86377030Y-92113467D02*
X86343697Y-92146800D01*
X86343697Y-92146800D02*
X86277030Y-92180134D01*
X86277030Y-92180134D02*
X86010363Y-92180134D01*
X87077030Y-92513467D02*
X86677030Y-92513467D01*
X86877030Y-92513467D02*
X86877030Y-91813467D01*
X86877030Y-91813467D02*
X86810363Y-91913467D01*
X86810363Y-91913467D02*
X86743697Y-91980134D01*
X86743697Y-91980134D02*
X86677030Y-92013467D01*
X90545833Y-96787928D02*
X90545833Y-96087928D01*
X90545833Y-96087928D02*
X90712500Y-96087928D01*
X90712500Y-96087928D02*
X90812500Y-96121261D01*
X90812500Y-96121261D02*
X90879167Y-96187928D01*
X90879167Y-96187928D02*
X90912500Y-96254595D01*
X90912500Y-96254595D02*
X90945833Y-96387928D01*
X90945833Y-96387928D02*
X90945833Y-96487928D01*
X90945833Y-96487928D02*
X90912500Y-96621261D01*
X90912500Y-96621261D02*
X90879167Y-96687928D01*
X90879167Y-96687928D02*
X90812500Y-96754595D01*
X90812500Y-96754595D02*
X90712500Y-96787928D01*
X90712500Y-96787928D02*
X90545833Y-96787928D01*
X91212500Y-96154595D02*
X91245833Y-96121261D01*
X91245833Y-96121261D02*
X91312500Y-96087928D01*
X91312500Y-96087928D02*
X91479167Y-96087928D01*
X91479167Y-96087928D02*
X91545833Y-96121261D01*
X91545833Y-96121261D02*
X91579167Y-96154595D01*
X91579167Y-96154595D02*
X91612500Y-96221261D01*
X91612500Y-96221261D02*
X91612500Y-96287928D01*
X91612500Y-96287928D02*
X91579167Y-96387928D01*
X91579167Y-96387928D02*
X91179167Y-96787928D01*
X91179167Y-96787928D02*
X91612500Y-96787928D01*
X119549999Y-92249366D02*
X119516666Y-92282700D01*
X119516666Y-92282700D02*
X119416666Y-92316033D01*
X119416666Y-92316033D02*
X119349999Y-92316033D01*
X119349999Y-92316033D02*
X119249999Y-92282700D01*
X119249999Y-92282700D02*
X119183333Y-92216033D01*
X119183333Y-92216033D02*
X119149999Y-92149366D01*
X119149999Y-92149366D02*
X119116666Y-92016033D01*
X119116666Y-92016033D02*
X119116666Y-91916033D01*
X119116666Y-91916033D02*
X119149999Y-91782700D01*
X119149999Y-91782700D02*
X119183333Y-91716033D01*
X119183333Y-91716033D02*
X119249999Y-91649366D01*
X119249999Y-91649366D02*
X119349999Y-91616033D01*
X119349999Y-91616033D02*
X119416666Y-91616033D01*
X119416666Y-91616033D02*
X119516666Y-91649366D01*
X119516666Y-91649366D02*
X119549999Y-91682700D01*
X120216666Y-92316033D02*
X119816666Y-92316033D01*
X120016666Y-92316033D02*
X120016666Y-91616033D01*
X120016666Y-91616033D02*
X119949999Y-91716033D01*
X119949999Y-91716033D02*
X119883333Y-91782700D01*
X119883333Y-91782700D02*
X119816666Y-91816033D01*
X120483333Y-91682700D02*
X120516666Y-91649366D01*
X120516666Y-91649366D02*
X120583333Y-91616033D01*
X120583333Y-91616033D02*
X120750000Y-91616033D01*
X120750000Y-91616033D02*
X120816666Y-91649366D01*
X120816666Y-91649366D02*
X120850000Y-91682700D01*
X120850000Y-91682700D02*
X120883333Y-91749366D01*
X120883333Y-91749366D02*
X120883333Y-91816033D01*
X120883333Y-91816033D02*
X120850000Y-91916033D01*
X120850000Y-91916033D02*
X120450000Y-92316033D01*
X120450000Y-92316033D02*
X120883333Y-92316033D01*
X79004354Y-67712230D02*
X79004354Y-67012230D01*
X79004354Y-67012230D02*
X79171021Y-67012230D01*
X79171021Y-67012230D02*
X79271021Y-67045563D01*
X79271021Y-67045563D02*
X79337688Y-67112230D01*
X79337688Y-67112230D02*
X79371021Y-67178897D01*
X79371021Y-67178897D02*
X79404354Y-67312230D01*
X79404354Y-67312230D02*
X79404354Y-67412230D01*
X79404354Y-67412230D02*
X79371021Y-67545563D01*
X79371021Y-67545563D02*
X79337688Y-67612230D01*
X79337688Y-67612230D02*
X79271021Y-67678897D01*
X79271021Y-67678897D02*
X79171021Y-67712230D01*
X79171021Y-67712230D02*
X79004354Y-67712230D01*
X79637688Y-67012230D02*
X80071021Y-67012230D01*
X80071021Y-67012230D02*
X79837688Y-67278897D01*
X79837688Y-67278897D02*
X79937688Y-67278897D01*
X79937688Y-67278897D02*
X80004354Y-67312230D01*
X80004354Y-67312230D02*
X80037688Y-67345563D01*
X80037688Y-67345563D02*
X80071021Y-67412230D01*
X80071021Y-67412230D02*
X80071021Y-67578897D01*
X80071021Y-67578897D02*
X80037688Y-67645563D01*
X80037688Y-67645563D02*
X80004354Y-67678897D01*
X80004354Y-67678897D02*
X79937688Y-67712230D01*
X79937688Y-67712230D02*
X79737688Y-67712230D01*
X79737688Y-67712230D02*
X79671021Y-67678897D01*
X79671021Y-67678897D02*
X79637688Y-67645563D01*
X109866666Y-78616033D02*
X109866666Y-79182700D01*
X109866666Y-79182700D02*
X109900000Y-79249366D01*
X109900000Y-79249366D02*
X109933333Y-79282700D01*
X109933333Y-79282700D02*
X110000000Y-79316033D01*
X110000000Y-79316033D02*
X110133333Y-79316033D01*
X110133333Y-79316033D02*
X110200000Y-79282700D01*
X110200000Y-79282700D02*
X110233333Y-79249366D01*
X110233333Y-79249366D02*
X110266666Y-79182700D01*
X110266666Y-79182700D02*
X110266666Y-78616033D01*
X110899999Y-78616033D02*
X110766666Y-78616033D01*
X110766666Y-78616033D02*
X110699999Y-78649366D01*
X110699999Y-78649366D02*
X110666666Y-78682700D01*
X110666666Y-78682700D02*
X110599999Y-78782700D01*
X110599999Y-78782700D02*
X110566666Y-78916033D01*
X110566666Y-78916033D02*
X110566666Y-79182700D01*
X110566666Y-79182700D02*
X110599999Y-79249366D01*
X110599999Y-79249366D02*
X110633333Y-79282700D01*
X110633333Y-79282700D02*
X110699999Y-79316033D01*
X110699999Y-79316033D02*
X110833333Y-79316033D01*
X110833333Y-79316033D02*
X110899999Y-79282700D01*
X110899999Y-79282700D02*
X110933333Y-79249366D01*
X110933333Y-79249366D02*
X110966666Y-79182700D01*
X110966666Y-79182700D02*
X110966666Y-79016033D01*
X110966666Y-79016033D02*
X110933333Y-78949366D01*
X110933333Y-78949366D02*
X110899999Y-78916033D01*
X110899999Y-78916033D02*
X110833333Y-78882700D01*
X110833333Y-78882700D02*
X110699999Y-78882700D01*
X110699999Y-78882700D02*
X110633333Y-78916033D01*
X110633333Y-78916033D02*
X110599999Y-78949366D01*
X110599999Y-78949366D02*
X110566666Y-79016033D01*
D16*
%TO.C,SW1*%
X83956551Y-77601712D02*
X84025551Y-77601712D01*
X83956551Y-81201712D02*
X83956551Y-77601712D01*
X83956551Y-81201712D02*
X84025551Y-81201712D01*
X85287551Y-77601712D02*
X85625551Y-77601712D01*
X85287551Y-81201712D02*
X85625551Y-81201712D01*
X86887551Y-77601712D02*
X86956551Y-77601712D01*
X86887551Y-81201712D02*
X86956551Y-81201712D01*
X86956551Y-81201712D02*
X86956551Y-77601712D01*
D14*
X83956552Y-81901712D02*
X83956552Y-81901712D01*
X83956552Y-81901712D01*
X83956552Y-81901712D01*
X83956552Y-81901712D01*
X83956552Y-81901712D01*
X83956552Y-81901713D01*
X83956552Y-81901713D01*
X83956552Y-81901713D01*
X83956552Y-81901713D01*
X83956552Y-81901713D01*
X83956552Y-81901713D01*
X83956552Y-81901713D01*
X83956551Y-81901713D01*
X83956551Y-81901713D01*
X83956551Y-81901713D01*
X83956551Y-81901713D01*
X83956551Y-81901713D01*
X83956551Y-81901713D01*
X83956551Y-81901713D01*
X83956551Y-81901713D01*
X83956551Y-81901713D01*
X83956551Y-81901713D01*
X83956551Y-81901713D01*
X83956551Y-81901713D01*
X83956550Y-81901713D01*
X83956550Y-81901713D01*
X83956550Y-81901713D01*
X83956550Y-81901713D01*
X83956550Y-81901713D01*
X83956550Y-81901713D01*
X83956550Y-81901712D01*
X83956550Y-81901712D01*
X83956550Y-81901712D01*
X83956550Y-81901712D01*
X83956550Y-81901712D01*
X83956550Y-81901712D01*
X83956550Y-81901712D02*
X83956550Y-81901712D01*
X83956550Y-81901712D01*
X83956550Y-81901712D01*
X83956550Y-81901712D01*
X83956550Y-81901712D01*
X83956550Y-81901712D01*
X83956550Y-81901711D01*
X83956550Y-81901711D01*
X83956550Y-81901711D01*
X83956550Y-81901711D01*
X83956550Y-81901711D01*
X83956551Y-81901711D01*
X83956551Y-81901711D01*
X83956551Y-81901711D01*
X83956551Y-81901711D01*
X83956551Y-81901711D01*
X83956551Y-81901711D01*
X83956551Y-81901711D01*
X83956551Y-81901711D01*
X83956551Y-81901711D01*
X83956551Y-81901711D01*
X83956551Y-81901711D01*
X83956551Y-81901711D01*
X83956552Y-81901711D01*
X83956552Y-81901711D01*
X83956552Y-81901711D01*
X83956552Y-81901711D01*
X83956552Y-81901711D01*
X83956552Y-81901711D01*
X83956552Y-81901712D01*
X83956552Y-81901712D01*
X83956552Y-81901712D01*
X83956552Y-81901712D01*
X83956552Y-81901712D01*
X83956552Y-81901712D01*
X83956552Y-81901712D01*
D16*
X86448551Y-79401712D02*
G75*
G02*
X84464551Y-79401712I-992000J0D01*
G01*
X84464551Y-79401712D02*
G75*
G02*
X86448551Y-79401712I992000J0D01*
G01*
D11*
%TO.C,D1*%
X122350000Y-99490000D02*
X122350000Y-105000000D01*
X125650000Y-99490000D02*
X122350000Y-99490000D01*
X125650000Y-99490000D02*
X125650000Y-105000000D01*
%TO.C,C2*%
X92051306Y-85086806D02*
X92838806Y-85086806D01*
X92445056Y-84693056D02*
X92445056Y-85480556D01*
X93078806Y-84588743D02*
X93078806Y-85874306D01*
X93078806Y-84588743D02*
X94143243Y-83524306D01*
X93078806Y-89279869D02*
X93078806Y-87994306D01*
X93078806Y-89279869D02*
X94143243Y-90344306D01*
X94143243Y-83524306D02*
X99898806Y-83524306D01*
X94143243Y-90344306D02*
X99898806Y-90344306D01*
X99898806Y-83524306D02*
X99898806Y-85874306D01*
X99898806Y-90344306D02*
X99898806Y-87994306D01*
%TO.C,R2*%
X82846359Y-73385100D02*
X83153641Y-73385100D01*
X82846359Y-74145100D02*
X83153641Y-74145100D01*
D16*
%TO.C,J3*%
X128673352Y-60368518D02*
X143073352Y-60368518D01*
X128673352Y-62203518D02*
X143073352Y-62203518D01*
X128673352Y-89768518D02*
X128673352Y-60368518D01*
X143073352Y-60368518D02*
X143073352Y-89768518D01*
X143073352Y-89768518D02*
X128673352Y-89768518D01*
D11*
%TO.C,U10*%
X104061651Y-57686180D02*
X104061651Y-56216180D01*
X105361651Y-57686180D02*
X104981651Y-57686180D01*
X106281651Y-56351928D02*
X106281651Y-57686180D01*
X106481651Y-56201180D02*
X106291651Y-56061180D01*
X106481651Y-55921180D01*
X106481651Y-56201180D01*
G36*
X106481651Y-56201180D02*
G01*
X106291651Y-56061180D01*
X106481651Y-55921180D01*
X106481651Y-56201180D01*
G37*
D16*
%TO.C,SW2*%
X101113499Y-77601712D02*
X101182499Y-77601712D01*
X101113499Y-81201712D02*
X101113499Y-77601712D01*
X101113499Y-81201712D02*
X101182499Y-81201712D01*
X102444499Y-77601712D02*
X102782499Y-77601712D01*
X102444499Y-81201712D02*
X102782499Y-81201712D01*
X104044499Y-77601712D02*
X104113499Y-77601712D01*
X104044499Y-81201712D02*
X104113499Y-81201712D01*
X104113499Y-81201712D02*
X104113499Y-77601712D01*
D14*
X101113500Y-81901712D02*
X101113500Y-81901712D01*
X101113500Y-81901712D01*
X101113500Y-81901712D01*
X101113500Y-81901712D01*
X101113500Y-81901712D01*
X101113500Y-81901713D01*
X101113500Y-81901713D01*
X101113500Y-81901713D01*
X101113500Y-81901713D01*
X101113500Y-81901713D01*
X101113500Y-81901713D01*
X101113500Y-81901713D01*
X101113499Y-81901713D01*
X101113499Y-81901713D01*
X101113499Y-81901713D01*
X101113499Y-81901713D01*
X101113499Y-81901713D01*
X101113499Y-81901713D01*
X101113499Y-81901713D01*
X101113499Y-81901713D01*
X101113499Y-81901713D01*
X101113499Y-81901713D01*
X101113499Y-81901713D01*
X101113499Y-81901713D01*
X101113498Y-81901713D01*
X101113498Y-81901713D01*
X101113498Y-81901713D01*
X101113498Y-81901713D01*
X101113498Y-81901713D01*
X101113498Y-81901713D01*
X101113498Y-81901712D01*
X101113498Y-81901712D01*
X101113498Y-81901712D01*
X101113498Y-81901712D01*
X101113498Y-81901712D01*
X101113498Y-81901712D01*
X101113498Y-81901712D02*
X101113498Y-81901712D01*
X101113498Y-81901712D01*
X101113498Y-81901712D01*
X101113498Y-81901712D01*
X101113498Y-81901712D01*
X101113498Y-81901712D01*
X101113498Y-81901711D01*
X101113498Y-81901711D01*
X101113498Y-81901711D01*
X101113498Y-81901711D01*
X101113498Y-81901711D01*
X101113499Y-81901711D01*
X101113499Y-81901711D01*
X101113499Y-81901711D01*
X101113499Y-81901711D01*
X101113499Y-81901711D01*
X101113499Y-81901711D01*
X101113499Y-81901711D01*
X101113499Y-81901711D01*
X101113499Y-81901711D01*
X101113499Y-81901711D01*
X101113499Y-81901711D01*
X101113499Y-81901711D01*
X101113500Y-81901711D01*
X101113500Y-81901711D01*
X101113500Y-81901711D01*
X101113500Y-81901711D01*
X101113500Y-81901711D01*
X101113500Y-81901711D01*
X101113500Y-81901712D01*
X101113500Y-81901712D01*
X101113500Y-81901712D01*
X101113500Y-81901712D01*
X101113500Y-81901712D01*
X101113500Y-81901712D01*
X101113500Y-81901712D01*
D16*
X103605499Y-79401712D02*
G75*
G02*
X101621499Y-79401712I-992000J0D01*
G01*
X101621499Y-79401712D02*
G75*
G02*
X103605499Y-79401712I992000J0D01*
G01*
D11*
%TO.C,U11*%
X106940000Y-82075000D02*
X111060000Y-82075000D01*
X106940000Y-82170000D02*
X106940000Y-82075000D01*
X106940000Y-87195000D02*
X106940000Y-87100000D01*
X111060000Y-82075000D02*
X111060000Y-82170000D01*
X111060000Y-87100000D02*
X111060000Y-87195000D01*
X111060000Y-87195000D02*
X106940000Y-87195000D01*
X111840000Y-87435000D02*
X111360000Y-87435000D01*
X111600000Y-87105000D01*
X111840000Y-87435000D01*
G36*
X111840000Y-87435000D02*
G01*
X111360000Y-87435000D01*
X111600000Y-87105000D01*
X111840000Y-87435000D01*
G37*
%TO.C,U7*%
X109015345Y-50547427D02*
X109015345Y-51807427D01*
X109015345Y-57367427D02*
X109015345Y-56107427D01*
X112775345Y-50547427D02*
X109015345Y-50547427D01*
X112775345Y-57367427D02*
X109015345Y-57367427D01*
X114295345Y-57597427D02*
X113815345Y-57597427D01*
X114055345Y-57267427D01*
X114295345Y-57597427D01*
G36*
X114295345Y-57597427D02*
G01*
X113815345Y-57597427D01*
X114055345Y-57267427D01*
X114295345Y-57597427D01*
G37*
%TO.C,J1*%
X130596898Y-100750000D02*
X130596898Y-101800000D01*
X130796898Y-92400000D02*
X132696898Y-92400000D01*
X130796898Y-95100000D02*
X130796898Y-92400000D01*
X130796898Y-101600000D02*
X130796898Y-99000000D01*
X131646898Y-101800000D02*
X130596898Y-101800000D01*
X136696898Y-92400000D02*
X145496898Y-92400000D01*
X145496898Y-92400000D02*
X145496898Y-101600000D01*
X145496898Y-101600000D02*
X130796898Y-101600000D01*
D14*
%TO.C,U4*%
X108400000Y-59887500D02*
X112400000Y-59887500D01*
X108400000Y-65287500D02*
X112400000Y-65287500D01*
D11*
X108050000Y-59887500D02*
X107810000Y-59557500D01*
X108290000Y-59557500D01*
X108050000Y-59887500D01*
G36*
X108050000Y-59887500D02*
G01*
X107810000Y-59557500D01*
X108290000Y-59557500D01*
X108050000Y-59887500D01*
G37*
D17*
%TO.C,J2*%
X77369556Y-90294270D02*
X77369556Y-99234270D01*
X77369556Y-90294270D02*
X78719556Y-90294270D01*
X77369556Y-99234270D02*
X78719556Y-99234270D01*
X82719556Y-90294270D02*
X81219556Y-90294270D01*
X82719556Y-99234270D02*
X81219556Y-99234270D01*
D15*
X86069556Y-91564270D02*
G75*
G02*
X85869556Y-91564270I-100000J0D01*
G01*
X85869556Y-91564270D02*
G75*
G02*
X86069556Y-91564270I100000J0D01*
G01*
D11*
%TO.C,U3*%
X85000000Y-49750000D02*
X85000000Y-56500000D01*
X85000000Y-49750000D02*
X103000000Y-49750000D01*
X85000000Y-74500000D02*
X85000000Y-75250000D01*
X85000000Y-75250000D02*
X86000000Y-75250000D01*
X103000000Y-49750000D02*
X103000000Y-56500000D01*
X103000000Y-55690000D02*
X85000000Y-55690000D01*
X103000000Y-74500000D02*
X103000000Y-75250000D01*
X103000000Y-75250000D02*
X102000000Y-75250000D01*
%TO.C,U2*%
X94786663Y-79142787D02*
X96606663Y-79142787D01*
X94786663Y-79192787D02*
X94786663Y-79142787D01*
X94786663Y-82262787D02*
X94786663Y-82212787D01*
X96606663Y-79142787D02*
X96606663Y-79192787D01*
X96606663Y-80312787D02*
X96606663Y-81092787D01*
X96606663Y-82212787D02*
X96606663Y-82262787D01*
X96606663Y-82262787D02*
X94786663Y-82262787D01*
X94246663Y-79192787D02*
X94006663Y-78862787D01*
X94486663Y-78862787D01*
X94246663Y-79192787D01*
G36*
X94246663Y-79192787D02*
G01*
X94006663Y-78862787D01*
X94486663Y-78862787D01*
X94246663Y-79192787D01*
G37*
%TO.C,R4*%
X86680671Y-96144813D02*
X86373389Y-96144813D01*
X86680671Y-96904813D02*
X86373389Y-96904813D01*
D14*
%TO.C,U5*%
X108400000Y-66252500D02*
X112400000Y-66252500D01*
X108400000Y-71652500D02*
X112400000Y-71652500D01*
D11*
X108050000Y-66252500D02*
X107810000Y-65922500D01*
X108290000Y-65922500D01*
X108050000Y-66252500D01*
G36*
X108050000Y-66252500D02*
G01*
X107810000Y-65922500D01*
X108290000Y-65922500D01*
X108050000Y-66252500D01*
G37*
%TO.C,R3*%
X82846359Y-72144078D02*
X83153641Y-72144078D01*
X82846359Y-72904078D02*
X83153641Y-72904078D01*
%TO.C,C11*%
X115229206Y-51898149D02*
X116479206Y-51898149D01*
X115854206Y-51273149D02*
X115854206Y-52523149D01*
X116719206Y-50362586D02*
X116719206Y-53148149D01*
X116719206Y-50362586D02*
X117783643Y-49298149D01*
X116719206Y-58953712D02*
X116719206Y-56168149D01*
X116719206Y-58953712D02*
X117783643Y-60018149D01*
X117783643Y-49298149D02*
X127439206Y-49298149D01*
X117783643Y-60018149D02*
X127439206Y-60018149D01*
X127439206Y-49298149D02*
X127439206Y-53148149D01*
X127439206Y-60018149D02*
X127439206Y-56168149D01*
%TO.C,U9*%
X117790000Y-72379034D02*
X117965000Y-72379034D01*
X117790000Y-77899034D02*
X117790000Y-72379034D01*
X117965000Y-77899034D02*
X117790000Y-77899034D01*
X126035000Y-72379034D02*
X126210000Y-72379034D01*
X126210000Y-72379034D02*
X126210000Y-77899034D01*
X126210000Y-77899034D02*
X126035000Y-77899034D01*
X117960000Y-78639034D02*
X117490000Y-78979034D01*
X117490000Y-78299034D01*
X117960000Y-78639034D01*
G36*
X117960000Y-78639034D02*
G01*
X117490000Y-78979034D01*
X117490000Y-78299034D01*
X117960000Y-78639034D01*
G37*
%TO.C,U8*%
X117790000Y-62785950D02*
X117965000Y-62785950D01*
X117790000Y-68305950D02*
X117790000Y-62785950D01*
X117965000Y-68305950D02*
X117790000Y-68305950D01*
X126035000Y-62785950D02*
X126210000Y-62785950D01*
X126210000Y-62785950D02*
X126210000Y-68305950D01*
X126210000Y-68305950D02*
X126035000Y-68305950D01*
X117960000Y-69045950D02*
X117490000Y-69385950D01*
X117490000Y-68705950D01*
X117960000Y-69045950D01*
G36*
X117960000Y-69045950D02*
G01*
X117490000Y-69385950D01*
X117490000Y-68705950D01*
X117960000Y-69045950D01*
G37*
%TO.C,U1*%
D10*
X115930000Y-91100000D02*
X93830000Y-91100000D01*
X93830000Y-104900000D01*
X115930000Y-104900000D01*
X115930000Y-91100000D01*
X116170000Y-104480000D02*
X115070000Y-104480000D01*
X114670000Y-104480000D02*
X113570000Y-104480000D01*
X113170000Y-104480000D02*
X112070000Y-104480000D01*
X111670000Y-104480000D02*
X110570000Y-104480000D01*
X110170000Y-104480000D02*
X109070000Y-104480000D01*
X108670000Y-104480000D02*
X107570000Y-104480000D01*
X107170000Y-104480000D02*
X106070000Y-104480000D01*
X105670000Y-104480000D02*
X104570000Y-104480000D01*
X104170000Y-104480000D02*
X103070000Y-104480000D01*
X102670000Y-104480000D02*
X101570000Y-104480000D01*
X101170000Y-104480000D02*
X100070000Y-104480000D01*
X99670000Y-104480000D02*
X98570000Y-104480000D01*
X98170000Y-104480000D02*
X97070000Y-104480000D01*
X96670000Y-104480000D02*
X96620000Y-104480000D01*
X96620000Y-104480000D02*
X96620000Y-103380000D01*
X96620000Y-102980000D02*
X96620000Y-101880000D01*
X96620000Y-101480000D02*
X96620000Y-100380000D01*
X96620000Y-99980000D02*
X96620000Y-98880000D01*
X96620000Y-98480000D02*
X96620000Y-97380000D01*
X96620000Y-96980000D02*
X96620000Y-96880000D01*
X96620000Y-96880000D02*
X97720000Y-96880000D01*
X98120000Y-96880000D02*
X99220000Y-96880000D01*
X99620000Y-96880000D02*
X100720000Y-96880000D01*
X101120000Y-96880000D02*
X102220000Y-96880000D01*
X102620000Y-96880000D02*
X103720000Y-96880000D01*
X104120000Y-96880000D02*
X105220000Y-96880000D01*
X105620000Y-96880000D02*
X106720000Y-96880000D01*
X107120000Y-96880000D02*
X108220000Y-96880000D01*
X108620000Y-96880000D02*
X109720000Y-96880000D01*
X110120000Y-96880000D02*
X111220000Y-96880000D01*
X111620000Y-96880000D02*
X112720000Y-96880000D01*
X113120000Y-96880000D02*
X114220000Y-96880000D01*
X114620000Y-96880000D02*
X115720000Y-96880000D01*
X116120000Y-96880000D02*
X116170000Y-96880000D01*
X116170000Y-96880000D02*
X116170000Y-97980000D01*
X116170000Y-98380000D02*
X116170000Y-99480000D01*
X116170000Y-99880000D02*
X116170000Y-100980000D01*
X116170000Y-101380000D02*
X116170000Y-102480000D01*
X116170000Y-102880000D02*
X116170000Y-103980000D01*
X116170000Y-104380000D02*
X116170000Y-104480000D01*
X115930000Y-92030000D02*
X115270000Y-91100000D01*
X115930000Y-91100000D01*
X115930000Y-92030000D01*
G36*
X115930000Y-92030000D02*
G01*
X115270000Y-91100000D01*
X115930000Y-91100000D01*
X115930000Y-92030000D01*
G37*
X116170000Y-98000000D02*
X115270000Y-96880000D01*
X116170000Y-96880000D01*
X116170000Y-98000000D01*
G36*
X116170000Y-98000000D02*
G01*
X115270000Y-96880000D01*
X116170000Y-96880000D01*
X116170000Y-98000000D01*
G37*
D11*
%TO.C,R1*%
X86680671Y-92807434D02*
X86373389Y-92807434D01*
X86680671Y-93567434D02*
X86373389Y-93567434D01*
%TO.C,D2*%
X90240000Y-92440000D02*
X91760000Y-92440000D01*
X90240000Y-92490000D02*
X90240000Y-92440000D01*
X90240000Y-94390000D02*
X90240000Y-93610000D01*
X90240000Y-95560000D02*
X90240000Y-95510000D01*
X91760000Y-92440000D02*
X91760000Y-93440000D01*
X91760000Y-94560000D02*
X91760000Y-95560000D01*
X91760000Y-95560000D02*
X90240000Y-95560000D01*
X89940000Y-93950000D02*
X89460000Y-93950000D01*
X89700000Y-93620000D01*
X89940000Y-93950000D01*
G36*
X89940000Y-93950000D02*
G01*
X89460000Y-93950000D01*
X89700000Y-93620000D01*
X89940000Y-93950000D01*
G37*
%TO.C,C12*%
X113150000Y-82938884D02*
X114400000Y-82938884D01*
X113775000Y-82313884D02*
X113775000Y-83563884D01*
X114640000Y-81403321D02*
X114640000Y-84188884D01*
X114640000Y-81403321D02*
X115704437Y-80338884D01*
X114640000Y-89994447D02*
X114640000Y-87208884D01*
X114640000Y-89994447D02*
X115704437Y-91058884D01*
X115704437Y-80338884D02*
X125360000Y-80338884D01*
X115704437Y-91058884D02*
X125360000Y-91058884D01*
X125360000Y-80338884D02*
X125360000Y-84188884D01*
X125360000Y-91058884D02*
X125360000Y-87208884D01*
D14*
%TO.C,D3*%
X78734184Y-68515769D02*
X78734184Y-71205769D01*
X78734184Y-71205769D02*
X80654184Y-71205769D01*
X80654184Y-71205769D02*
X80654184Y-68515769D01*
%TO.C,U6*%
X108400000Y-72887500D02*
X112400000Y-72887500D01*
X108400000Y-78287500D02*
X112400000Y-78287500D01*
D11*
X108050000Y-72887500D02*
X107810000Y-72557500D01*
X108290000Y-72557500D01*
X108050000Y-72887500D01*
G36*
X108050000Y-72887500D02*
G01*
X107810000Y-72557500D01*
X108290000Y-72557500D01*
X108050000Y-72887500D01*
G37*
%TD*%
%LPC*%
D18*
%TO.C,H2*%
X80585542Y-52596945D03*
%TD*%
D19*
%TO.C,SW1*%
X84656551Y-81326712D03*
X84656551Y-77476712D03*
X86256551Y-77476712D03*
X86256551Y-81326712D03*
%TD*%
D20*
%TO.C,D1*%
X124000000Y-101000000D03*
X124000000Y-105000000D03*
%TD*%
D21*
%TO.C,C2*%
X93688806Y-86934306D03*
X99288806Y-86934306D03*
%TD*%
D22*
%TO.C,R2*%
X82490000Y-73765100D03*
X83510000Y-73765100D03*
%TD*%
D23*
%TO.C,J3*%
X131203352Y-88468518D03*
X139403352Y-88468518D03*
X131203352Y-84968518D03*
X139403352Y-84968518D03*
X131203352Y-81468518D03*
X139403352Y-81468518D03*
X131203352Y-77968518D03*
X139403352Y-77968518D03*
X131203352Y-74468518D03*
X139403352Y-74468518D03*
X131203352Y-70968518D03*
X139403352Y-70968518D03*
X131203352Y-67468518D03*
X139403352Y-67468518D03*
X131203352Y-63968518D03*
X139403352Y-63968518D03*
%TD*%
D24*
%TO.C,U10*%
X105821651Y-56063680D03*
X105171651Y-56063680D03*
X104521651Y-56063680D03*
X104521651Y-57838680D03*
X105821651Y-57838680D03*
%TD*%
D19*
%TO.C,SW2*%
X101813499Y-81326712D03*
X101813499Y-77476712D03*
X103413499Y-77476712D03*
X103413499Y-81326712D03*
%TD*%
D25*
%TO.C,U11*%
X111475000Y-86540000D03*
X111475000Y-85270000D03*
X111475000Y-84000000D03*
X111475000Y-82730000D03*
X106525000Y-82730000D03*
X106525000Y-84000000D03*
X106525000Y-85270000D03*
X106525000Y-86540000D03*
%TD*%
D26*
%TO.C,U7*%
X114075345Y-56257427D03*
X114075345Y-53957427D03*
D27*
X107775345Y-53957427D03*
D26*
X114075345Y-51657427D03*
%TD*%
D28*
%TO.C,J1*%
X131696898Y-97000000D03*
D29*
X137696898Y-97000000D03*
D30*
X134696898Y-92300000D03*
%TD*%
D31*
%TO.C,U4*%
X107800000Y-60365000D03*
X107800000Y-61000000D03*
X107800000Y-61635000D03*
X107800000Y-62270000D03*
X107800000Y-62905000D03*
X107800000Y-63540000D03*
X107800000Y-64175000D03*
X107800000Y-64810000D03*
X113000000Y-64810000D03*
X113000000Y-64175000D03*
X113000000Y-63540000D03*
X113000000Y-62905000D03*
X113000000Y-62270000D03*
X113000000Y-61635000D03*
X113000000Y-61000000D03*
X113000000Y-60365000D03*
%TD*%
D32*
%TO.C,J2*%
X83619556Y-91874270D03*
X83619556Y-97654270D03*
D33*
X84694556Y-91564270D03*
X84694556Y-92364270D03*
D34*
X84694556Y-93514270D03*
X84694556Y-94514270D03*
X84694556Y-95014270D03*
X84694556Y-96014270D03*
D33*
X84694556Y-97164270D03*
X84694556Y-97964270D03*
D34*
X84694556Y-96514270D03*
X84694556Y-95514270D03*
X84694556Y-94014270D03*
X84694556Y-93014270D03*
D35*
X79969556Y-90444270D03*
X79969556Y-99084270D03*
D36*
X84119556Y-90444270D03*
X84119556Y-99084270D03*
%TD*%
D37*
%TO.C,U3*%
X85250000Y-57240000D03*
X85250000Y-58510000D03*
X85250000Y-59780000D03*
X85250000Y-61050000D03*
X85250000Y-62320000D03*
X85250000Y-63590000D03*
X85250000Y-64860000D03*
X85250000Y-66130000D03*
X85250000Y-67400000D03*
X85250000Y-68670000D03*
X85250000Y-69940000D03*
X85250000Y-71210000D03*
X85250000Y-72480000D03*
X85250000Y-73750000D03*
D38*
X87015000Y-75000000D03*
X88285000Y-75000000D03*
X89555000Y-75000000D03*
X90825000Y-75000000D03*
X92095000Y-75000000D03*
X93365000Y-75000000D03*
X94635000Y-75000000D03*
X95905000Y-75000000D03*
X97175000Y-75000000D03*
X98445000Y-75000000D03*
X99715000Y-75000000D03*
X100985000Y-75000000D03*
D37*
X102750000Y-73750000D03*
X102750000Y-72480000D03*
X102750000Y-71210000D03*
X102750000Y-69940000D03*
X102750000Y-68670000D03*
X102750000Y-67400000D03*
X102750000Y-66130000D03*
X102750000Y-64860000D03*
X102750000Y-63590000D03*
X102750000Y-62320000D03*
X102750000Y-61050000D03*
X102750000Y-59780000D03*
X102750000Y-58510000D03*
X102750000Y-57240000D03*
D39*
X91100000Y-63560000D03*
X91100000Y-64960000D03*
X91100000Y-66360000D03*
X91100000Y-66360000D03*
X92500000Y-63560000D03*
X92500000Y-63560000D03*
X92500000Y-64960000D03*
X92500000Y-66360000D03*
X93900000Y-63560000D03*
X93900000Y-64960000D03*
X93900000Y-66360000D03*
%TD*%
D40*
%TO.C,U2*%
X94559163Y-79752787D03*
X94559163Y-80702787D03*
X94559163Y-81652787D03*
X96834163Y-81652787D03*
X96834163Y-79752787D03*
%TD*%
D41*
%TO.C,R4*%
X87037030Y-96524813D03*
X86017030Y-96524813D03*
%TD*%
D31*
%TO.C,U5*%
X107800000Y-66730000D03*
X107800000Y-67365000D03*
X107800000Y-68000000D03*
X107800000Y-68635000D03*
X107800000Y-69270000D03*
X107800000Y-69905000D03*
X107800000Y-70540000D03*
X107800000Y-71175000D03*
X113000000Y-71175000D03*
X113000000Y-70540000D03*
X113000000Y-69905000D03*
X113000000Y-69270000D03*
X113000000Y-68635000D03*
X113000000Y-68000000D03*
X113000000Y-67365000D03*
X113000000Y-66730000D03*
%TD*%
D22*
%TO.C,R3*%
X82490000Y-72524078D03*
X83510000Y-72524078D03*
%TD*%
D42*
%TO.C,C11*%
X117879206Y-54658149D03*
X126279206Y-54658149D03*
%TD*%
D43*
%TO.C,U9*%
X118425000Y-78639034D03*
X119075000Y-78639034D03*
X119725000Y-78639034D03*
X120375000Y-78639034D03*
X121025000Y-78639034D03*
X121675000Y-78639034D03*
X122325000Y-78639034D03*
X122975000Y-78639034D03*
X123625000Y-78639034D03*
X124275000Y-78639034D03*
X124925000Y-78639034D03*
X125575000Y-78639034D03*
X125575000Y-71639034D03*
X124925000Y-71639034D03*
X124275000Y-71639034D03*
X123625000Y-71639034D03*
X122975000Y-71639034D03*
X122325000Y-71639034D03*
X121675000Y-71639034D03*
X121025000Y-71639034D03*
X120375000Y-71639034D03*
X119725000Y-71639034D03*
X119075000Y-71639034D03*
X118425000Y-71639034D03*
%TD*%
D18*
%TO.C,H1*%
X138532331Y-52596945D03*
%TD*%
D43*
%TO.C,U8*%
X118425000Y-69045950D03*
X119075000Y-69045950D03*
X119725000Y-69045950D03*
X120375000Y-69045950D03*
X121025000Y-69045950D03*
X121675000Y-69045950D03*
X122325000Y-69045950D03*
X122975000Y-69045950D03*
X123625000Y-69045950D03*
X124275000Y-69045950D03*
X124925000Y-69045950D03*
X125575000Y-69045950D03*
X125575000Y-62045950D03*
X124925000Y-62045950D03*
X124275000Y-62045950D03*
X123625000Y-62045950D03*
X122975000Y-62045950D03*
X122325000Y-62045950D03*
X121675000Y-62045950D03*
X121025000Y-62045950D03*
X120375000Y-62045950D03*
X119725000Y-62045950D03*
X119075000Y-62045950D03*
X118425000Y-62045950D03*
%TD*%
D18*
%TO.C,H3*%
X138532331Y-105433466D03*
%TD*%
D44*
%TO.C,U1*%
X113770000Y-103030000D03*
X113770000Y-92870000D03*
X111230000Y-103030000D03*
X101070000Y-103030000D03*
X95990000Y-103030000D03*
X106150000Y-103030000D03*
X98530000Y-103030000D03*
X103610000Y-103030000D03*
X98530000Y-92870000D03*
X95990000Y-92870000D03*
%TD*%
D41*
%TO.C,R1*%
X87037030Y-93187434D03*
X86017030Y-93187434D03*
%TD*%
D45*
%TO.C,D2*%
X90062500Y-93050000D03*
X90062500Y-94950000D03*
X91937500Y-94000000D03*
%TD*%
D42*
%TO.C,C12*%
X115800000Y-85698884D03*
X124200000Y-85698884D03*
%TD*%
D18*
%TO.C,H4*%
X80585542Y-105433466D03*
%TD*%
D46*
%TO.C,D3*%
X79694184Y-70455769D03*
X79694184Y-68575769D03*
%TD*%
D31*
%TO.C,U6*%
X107800000Y-73365000D03*
X107800000Y-74000000D03*
X107800000Y-74635000D03*
X107800000Y-75270000D03*
X107800000Y-75905000D03*
X107800000Y-76540000D03*
X107800000Y-77175000D03*
X107800000Y-77810000D03*
X113000000Y-77810000D03*
X113000000Y-77175000D03*
X113000000Y-76540000D03*
X113000000Y-75905000D03*
X113000000Y-75270000D03*
X113000000Y-74635000D03*
X113000000Y-74000000D03*
X113000000Y-73365000D03*
%TD*%
%LPD*%
M02*
