%TF.GenerationSoftware,KiCad,Pcbnew,9.0.8-9.0.8~ubuntu24.04.1*%
%TF.CreationDate,2026-04-24T13:10:00-07:00*%
%TF.ProjectId,barn-blinds-controller,6261726e-2d62-46c6-996e-64732d636f6e,rev?*%
%TF.SameCoordinates,Original*%
%TF.FileFunction,Copper,L2,Inr*%
%TF.FilePolarity,Positive*%
%FSLAX46Y46*%
G04 Gerber Fmt 4.6, Leading zero omitted, Abs format (unit mm)*
G04 Created by KiCad (PCBNEW 9.0.8-9.0.8~ubuntu24.04.1) date 2026-04-24 13:10:00*
%MOMM*%
%LPD*%
G01*
G04 APERTURE LIST*
G04 Aperture macros list*
%AMRoundRect*
0 Rectangle with rounded corners*
0 $1 Rounding radius*
0 $2 $3 $4 $5 $6 $7 $8 $9 X,Y pos of 4 corners*
0 Add a 4 corners polygon primitive as box body*
4,1,4,$2,$3,$4,$5,$6,$7,$8,$9,$2,$3,0*
0 Add four circle primitives for the rounded corners*
1,1,$1+$1,$2,$3*
1,1,$1+$1,$4,$5*
1,1,$1+$1,$6,$7*
1,1,$1+$1,$8,$9*
0 Add four rect primitives between the rounded corners*
20,1,$1+$1,$2,$3,$4,$5,0*
20,1,$1+$1,$4,$5,$6,$7,0*
20,1,$1+$1,$6,$7,$8,$9,0*
20,1,$1+$1,$8,$9,$2,$3,0*%
G04 Aperture macros list end*
%TA.AperFunction,ComponentPad*%
%ADD10C,2.000000*%
%TD*%
%TA.AperFunction,ComponentPad*%
%ADD11R,3.500000X3.500000*%
%TD*%
%TA.AperFunction,ComponentPad*%
%ADD12RoundRect,0.750000X0.750000X1.000000X-0.750000X1.000000X-0.750000X-1.000000X0.750000X-1.000000X0*%
%TD*%
%TA.AperFunction,ComponentPad*%
%ADD13RoundRect,0.875000X0.875000X0.875000X-0.875000X0.875000X-0.875000X-0.875000X0.875000X-0.875000X0*%
%TD*%
%TA.AperFunction,ComponentPad*%
%ADD14O,1.850000X1.050000*%
%TD*%
%TA.AperFunction,ComponentPad*%
%ADD15O,2.150000X1.050000*%
%TD*%
%TA.AperFunction,ComponentPad*%
%ADD16C,1.600000*%
%TD*%
%TA.AperFunction,ViaPad*%
%ADD17C,0.600000*%
%TD*%
%TA.AperFunction,ViaPad*%
%ADD18C,0.500000*%
%TD*%
%TA.AperFunction,ViaPad*%
%ADD19C,0.400000*%
%TD*%
%TA.AperFunction,ViaPad*%
%ADD20C,0.300000*%
%TD*%
G04 APERTURE END LIST*
D10*
%TO.N,U3_B02*%
%TO.C,J3*%
X131203352Y-88468518D03*
X139403352Y-88468518D03*
%TO.N,Net-(D5-Pad2)*%
X131203352Y-84968518D03*
X139403352Y-84968518D03*
%TO.N,U3_A02*%
X131203352Y-81468518D03*
X139403352Y-81468518D03*
%TO.N,Net-(D7-Pad2)*%
X131203352Y-77968518D03*
X139403352Y-77968518D03*
%TO.N,U2_B02*%
X131203352Y-74468518D03*
X139403352Y-74468518D03*
%TO.N,Net-(D6-Pad2)*%
X131203352Y-70968518D03*
X139403352Y-70968518D03*
%TO.N,Net-(D4-Pad2)*%
X131203352Y-67468518D03*
X139403352Y-67468518D03*
%TO.N,U2_A01*%
X131203352Y-63968518D03*
X139403352Y-63968518D03*
%TD*%
D11*
%TO.N,Net-(D1-A)*%
%TO.C,J1*%
X131696898Y-97000000D03*
D12*
%TO.N,GND_MOTOR*%
X137696898Y-97000000D03*
D13*
%TO.N,N/C*%
X134696898Y-92300000D03*
%TD*%
D14*
%TO.N,GND_ISO*%
%TO.C,J2*%
X79969556Y-90444270D03*
X79969556Y-99084270D03*
D15*
X84119556Y-90444270D03*
X84119556Y-99084270D03*
%TD*%
D16*
%TO.N,+12V_RAW*%
%TO.C,U1*%
X113770000Y-103030000D03*
%TO.N,GND_MOTOR*%
X113770000Y-92870000D03*
X111230000Y-103030000D03*
%TO.N,+5V_ISO*%
X101070000Y-103030000D03*
X95990000Y-103030000D03*
%TO.N,GND_ISO*%
X106150000Y-103030000D03*
X98530000Y-103030000D03*
%TO.N,N/C*%
X103610000Y-103030000D03*
X98530000Y-92870000D03*
X95990000Y-92870000D03*
%TD*%
D17*
%TO.N,+12V*%
X126764525Y-64000000D03*
D18*
X111960999Y-82734904D03*
X112000000Y-84000000D03*
D19*
X117825000Y-70000000D03*
D17*
X126764525Y-69000000D03*
D19*
X111475000Y-84000000D03*
D17*
X115852346Y-77479845D03*
D19*
X115800000Y-85698884D03*
D17*
X117879206Y-54658149D03*
X126764525Y-67000000D03*
D19*
X111475000Y-82730000D03*
X118425000Y-63000000D03*
D17*
%TO.N,+12V_RAW*%
X119183198Y-103000000D03*
D19*
%TO.N,GND_ISO*%
X81000000Y-82000000D03*
X81000000Y-95000000D03*
X106225000Y-60000000D03*
D18*
X106525000Y-82730000D03*
D19*
X99000000Y-78000000D03*
X95943426Y-73124418D03*
X94630499Y-77991484D03*
X98000000Y-66000000D03*
X88000000Y-95000000D03*
X104000000Y-84000000D03*
X89225000Y-84000000D03*
X98000000Y-70000000D03*
X94442762Y-60000000D03*
X89050000Y-81125000D03*
D20*
X107800000Y-74635000D03*
D19*
X103000000Y-93000000D03*
X88000000Y-100000000D03*
X101000000Y-80000000D03*
X107000000Y-81000000D03*
X105000000Y-74000000D03*
X106179158Y-66545081D03*
X81000000Y-62000000D03*
X85000000Y-86000000D03*
X107000000Y-58000000D03*
X88007237Y-60000000D03*
X93000000Y-81000000D03*
X89225000Y-87000000D03*
D20*
X107800000Y-75270000D03*
D19*
X102750000Y-57240000D03*
X91000000Y-103000000D03*
X85000000Y-103000000D03*
X81000000Y-57000000D03*
X97705525Y-60000000D03*
X98000000Y-98000000D03*
X105171651Y-56063680D03*
X89000000Y-91000000D03*
X89050000Y-78000000D03*
X91000000Y-70000000D03*
X96000000Y-84000000D03*
%TO.N,+5V_ISO*%
X93688806Y-86934306D03*
X90062500Y-94950000D03*
%TO.N,+5V_OR*%
X90950000Y-78000000D03*
%TO.N,+3.3V_ISO*%
X90950000Y-81125000D03*
X96180499Y-77991484D03*
D17*
X104700000Y-57887500D03*
D19*
X85250000Y-58510000D03*
D20*
X107800000Y-66730000D03*
D19*
X90775000Y-84000000D03*
D18*
X106525000Y-86540000D03*
D20*
X107800000Y-60365000D03*
D17*
X95992762Y-60000000D03*
D20*
X107800000Y-73365000D03*
D19*
X105161782Y-77409507D03*
X96834163Y-79752787D03*
D17*
X99605525Y-60000000D03*
X92825000Y-60000000D03*
X89557237Y-60000000D03*
D20*
%TO.N,+3.3V_MOTOR*%
X113000000Y-66730000D03*
X113000000Y-73365000D03*
X113000000Y-60365000D03*
D19*
X111571442Y-57886181D03*
D20*
X121025000Y-62045950D03*
X121025000Y-71000000D03*
D18*
X124450000Y-82000000D03*
D19*
X110008365Y-57928049D03*
D20*
X124175000Y-60000000D03*
D19*
%TO.N,/GPIO14*%
X95943426Y-74674418D03*
D17*
%TO.N,Net-(D3-Pad2)*%
X79571542Y-68562966D03*
D19*
%TO.N,U2_A02*%
X121675000Y-69045950D03*
%TO.N,U2_B02*%
X122975000Y-69045950D03*
%TO.N,U3_B02*%
X122325000Y-78639034D03*
%TO.N,U2_A01*%
X119075000Y-69045950D03*
%TO.N,U2_B01*%
X125575000Y-69045950D03*
%TO.N,U3_A01*%
X119075000Y-78639034D03*
%TO.N,U3_B01*%
X125575000Y-78639034D03*
D18*
%TO.N,Net-(U11-BW_SEL)*%
X106525000Y-84000000D03*
D17*
%TO.N,/STBY*%
X121073141Y-73524512D03*
D20*
X122015122Y-60695950D03*
D17*
X124000000Y-75000000D03*
D20*
%TO.N,/PWM_M1*%
X119075000Y-62045950D03*
%TO.N,/PWM_M2*%
X124275000Y-62045950D03*
%TO.N,/PWM_M3*%
X119075000Y-70995950D03*
%TO.N,/PWM_M4*%
X124275000Y-70995950D03*
D19*
%TO.N,Net-(U3-EN)*%
X91175000Y-60000000D03*
X84656551Y-77476712D03*
%TO.N,Net-(U3-GPIO0{slash}BOOT)*%
X103511782Y-77409507D03*
%TO.N,Net-(U3-GPIO16{slash}U0CTS{slash}ADC2_CH5{slash}XTAL_32K_N)*%
X79571542Y-66912966D03*
%TO.N,GND_MOTOR*%
X123000000Y-57000000D03*
X131000000Y-105000000D03*
X123000000Y-91000000D03*
D17*
X135000000Y-55000000D03*
D19*
X129000000Y-51000000D03*
X117000000Y-82000000D03*
X122000000Y-52000000D03*
X128000000Y-106000000D03*
X120000000Y-95000000D03*
X135000000Y-102000000D03*
D18*
X120000000Y-68000000D03*
D19*
X128000000Y-76000000D03*
D18*
X122325000Y-62045950D03*
D19*
X120375000Y-78639034D03*
X113000000Y-81000000D03*
D17*
X138000000Y-92000000D03*
D18*
X126000000Y-82000000D03*
D17*
X114075345Y-56257427D03*
D20*
X122325000Y-70995950D03*
D19*
X118000000Y-99000000D03*
D17*
X114735445Y-78635517D03*
X122000000Y-59000000D03*
D18*
X123625000Y-69045950D03*
X119725000Y-69045950D03*
X124275000Y-69045950D03*
D19*
X125000000Y-95000000D03*
D17*
X117283198Y-103000000D03*
D19*
X114000000Y-98000000D03*
X124200000Y-85698884D03*
D17*
X114978091Y-76736421D03*
D19*
X116000000Y-52000000D03*
X127000000Y-93000000D03*
D17*
X126279206Y-54658149D03*
D18*
X125086851Y-76322121D03*
%TD*%
%TA.AperFunction,Conductor*%
%TO.N,GND_MOTOR*%
G36*
X140516943Y-50019685D02*
G01*
X140526377Y-50026389D01*
X140651573Y-50124474D01*
X140662781Y-50134404D01*
X140865596Y-50337219D01*
X140875525Y-50348426D01*
X140973611Y-50473623D01*
X140999460Y-50538532D01*
X141000000Y-50550094D01*
X141000000Y-107449903D01*
X140980315Y-107516942D01*
X140973611Y-107526376D01*
X140875525Y-107651573D01*
X140865595Y-107662781D01*
X140662781Y-107865595D01*
X140651574Y-107875524D01*
X140526378Y-107973610D01*
X140461466Y-107999460D01*
X140449904Y-108000000D01*
X110124000Y-108000000D01*
X110056961Y-107980315D01*
X110011206Y-107927511D01*
X110000000Y-107876000D01*
X110000000Y-105312177D01*
X136681831Y-105312177D01*
X136681831Y-105554754D01*
X136713492Y-105795251D01*
X136776278Y-106029570D01*
X136835262Y-106171969D01*
X136869107Y-106253678D01*
X136990395Y-106463755D01*
X136990397Y-106463758D01*
X136990398Y-106463759D01*
X137138064Y-106656202D01*
X137138070Y-106656209D01*
X137309587Y-106827726D01*
X137309593Y-106827731D01*
X137502042Y-106975402D01*
X137712119Y-107096690D01*
X137936231Y-107189520D01*
X138170542Y-107252304D01*
X138350917Y-107276050D01*
X138411042Y-107283966D01*
X138411043Y-107283966D01*
X138653620Y-107283966D01*
X138701719Y-107277633D01*
X138894120Y-107252304D01*
X139128431Y-107189520D01*
X139352543Y-107096690D01*
X139562620Y-106975402D01*
X139755069Y-106827731D01*
X139926596Y-106656204D01*
X140074267Y-106463755D01*
X140195555Y-106253678D01*
X140288385Y-106029566D01*
X140351169Y-105795255D01*
X140382831Y-105554754D01*
X140382831Y-105312178D01*
X140351169Y-105071677D01*
X140288385Y-104837366D01*
X140195555Y-104613254D01*
X140074267Y-104403177D01*
X139926596Y-104210728D01*
X139926591Y-104210722D01*
X139755074Y-104039205D01*
X139755067Y-104039199D01*
X139562624Y-103891533D01*
X139562623Y-103891532D01*
X139562620Y-103891530D01*
X139352543Y-103770242D01*
X139352536Y-103770239D01*
X139128435Y-103677413D01*
X138894116Y-103614627D01*
X138653620Y-103582966D01*
X138653619Y-103582966D01*
X138411043Y-103582966D01*
X138411042Y-103582966D01*
X138170545Y-103614627D01*
X137936226Y-103677413D01*
X137712125Y-103770239D01*
X137712116Y-103770243D01*
X137502037Y-103891533D01*
X137309594Y-104039199D01*
X137309587Y-104039205D01*
X137138070Y-104210722D01*
X137138064Y-104210729D01*
X136990398Y-104403172D01*
X136869108Y-104613251D01*
X136869104Y-104613260D01*
X136776278Y-104837361D01*
X136713492Y-105071680D01*
X136681831Y-105312177D01*
X110000000Y-105312177D01*
X110000000Y-103878218D01*
X110019685Y-103811179D01*
X110072489Y-103765424D01*
X110133729Y-103754600D01*
X110150525Y-103755921D01*
X110787861Y-103118584D01*
X110810667Y-103203694D01*
X110869910Y-103306306D01*
X110953694Y-103390090D01*
X111056306Y-103449333D01*
X111141414Y-103472137D01*
X110504076Y-104109474D01*
X110548650Y-104141859D01*
X110730968Y-104234755D01*
X110925582Y-104297990D01*
X111127683Y-104330000D01*
X111332317Y-104330000D01*
X111534417Y-104297990D01*
X111729031Y-104234755D01*
X111911349Y-104141859D01*
X111955921Y-104109474D01*
X111318585Y-103472138D01*
X111403694Y-103449333D01*
X111506306Y-103390090D01*
X111590090Y-103306306D01*
X111649333Y-103203694D01*
X111672138Y-103118585D01*
X112309474Y-103755921D01*
X112341859Y-103711349D01*
X112434755Y-103529031D01*
X112497990Y-103334417D01*
X112527875Y-103145731D01*
X112557804Y-103082596D01*
X112617116Y-103045665D01*
X112686978Y-103046663D01*
X112745211Y-103085273D01*
X112771965Y-103140937D01*
X112807947Y-103321829D01*
X112807950Y-103321839D01*
X112883364Y-103503907D01*
X112883371Y-103503920D01*
X112992860Y-103667781D01*
X112992863Y-103667785D01*
X113132214Y-103807136D01*
X113132218Y-103807139D01*
X113296079Y-103916628D01*
X113296092Y-103916635D01*
X113478160Y-103992049D01*
X113478165Y-103992051D01*
X113478169Y-103992051D01*
X113478170Y-103992052D01*
X113671456Y-104030500D01*
X113671459Y-104030500D01*
X113868543Y-104030500D01*
X113998582Y-104004632D01*
X114061835Y-103992051D01*
X114243914Y-103916632D01*
X114407782Y-103807139D01*
X114547139Y-103667782D01*
X114656632Y-103503914D01*
X114732051Y-103321835D01*
X114767081Y-103145731D01*
X114770500Y-103128543D01*
X114770500Y-102934108D01*
X118682698Y-102934108D01*
X118682698Y-103065891D01*
X118716806Y-103193187D01*
X118749752Y-103250250D01*
X118782698Y-103307314D01*
X118875884Y-103400500D01*
X118990012Y-103466392D01*
X119117306Y-103500500D01*
X119117308Y-103500500D01*
X119249088Y-103500500D01*
X119249090Y-103500500D01*
X119376384Y-103466392D01*
X119490512Y-103400500D01*
X119583698Y-103307314D01*
X119649590Y-103193186D01*
X119683698Y-103065892D01*
X119683698Y-102934108D01*
X119649590Y-102806814D01*
X119583698Y-102692686D01*
X119490512Y-102599500D01*
X119433448Y-102566554D01*
X119376385Y-102533608D01*
X119312737Y-102516554D01*
X119249090Y-102499500D01*
X119117306Y-102499500D01*
X118990010Y-102533608D01*
X118875884Y-102599500D01*
X118875881Y-102599502D01*
X118782700Y-102692683D01*
X118782698Y-102692686D01*
X118716806Y-102806812D01*
X118682698Y-102934108D01*
X114770500Y-102934108D01*
X114770500Y-102931456D01*
X114732052Y-102738170D01*
X114732051Y-102738169D01*
X114732051Y-102738165D01*
X114713212Y-102692683D01*
X114656635Y-102556092D01*
X114656628Y-102556079D01*
X114547139Y-102392218D01*
X114547136Y-102392214D01*
X114407785Y-102252863D01*
X114407781Y-102252860D01*
X114243920Y-102143371D01*
X114243907Y-102143364D01*
X114061839Y-102067950D01*
X114061829Y-102067947D01*
X113868543Y-102029500D01*
X113868541Y-102029500D01*
X113671459Y-102029500D01*
X113671457Y-102029500D01*
X113478170Y-102067947D01*
X113478160Y-102067950D01*
X113296092Y-102143364D01*
X113296079Y-102143371D01*
X113132218Y-102252860D01*
X113132214Y-102252863D01*
X112992863Y-102392214D01*
X112992860Y-102392218D01*
X112883371Y-102556079D01*
X112883364Y-102556092D01*
X112807950Y-102738160D01*
X112807947Y-102738170D01*
X112771965Y-102919062D01*
X112739580Y-102980973D01*
X112678864Y-103015547D01*
X112609094Y-103011806D01*
X112552423Y-102970940D01*
X112527875Y-102914268D01*
X112497990Y-102725582D01*
X112434755Y-102530968D01*
X112341859Y-102348650D01*
X112309474Y-102304077D01*
X112309474Y-102304076D01*
X111672137Y-102941413D01*
X111649333Y-102856306D01*
X111590090Y-102753694D01*
X111506306Y-102669910D01*
X111403694Y-102610667D01*
X111318584Y-102587861D01*
X111955922Y-101950524D01*
X111955921Y-101950523D01*
X111911359Y-101918147D01*
X111911350Y-101918141D01*
X111729031Y-101825244D01*
X111534417Y-101762009D01*
X111332317Y-101730000D01*
X111127683Y-101730000D01*
X110925582Y-101762009D01*
X110730968Y-101825244D01*
X110548644Y-101918143D01*
X110504077Y-101950523D01*
X110504077Y-101950524D01*
X111141415Y-102587861D01*
X111056306Y-102610667D01*
X110953694Y-102669910D01*
X110869910Y-102753694D01*
X110810667Y-102856306D01*
X110787861Y-102941414D01*
X110150524Y-102304077D01*
X110133729Y-102305399D01*
X110120118Y-102302539D01*
X110106353Y-102304519D01*
X110086601Y-102295498D01*
X110065352Y-102291035D01*
X110055447Y-102281271D01*
X110042797Y-102275494D01*
X110031057Y-102257227D01*
X110015595Y-102241984D01*
X110011768Y-102227212D01*
X110005023Y-102216716D01*
X110000000Y-102181781D01*
X110000000Y-95230247D01*
X129746398Y-95230247D01*
X129746398Y-98769752D01*
X129758029Y-98828229D01*
X129758030Y-98828230D01*
X129802345Y-98894552D01*
X129868667Y-98938867D01*
X129868668Y-98938868D01*
X129927145Y-98950499D01*
X129927148Y-98950500D01*
X129927150Y-98950500D01*
X133466648Y-98950500D01*
X133466649Y-98950499D01*
X133481466Y-98947552D01*
X133525127Y-98938868D01*
X133525127Y-98938867D01*
X133525129Y-98938867D01*
X133591450Y-98894552D01*
X133635765Y-98828231D01*
X133635765Y-98828229D01*
X133635766Y-98828229D01*
X133647397Y-98769752D01*
X133647398Y-98769750D01*
X133647398Y-95935803D01*
X135696898Y-95935803D01*
X135696898Y-96750000D01*
X137196898Y-96750000D01*
X137196898Y-97250000D01*
X135696899Y-97250000D01*
X135696899Y-98064197D01*
X135707298Y-98196332D01*
X135762275Y-98414519D01*
X135855326Y-98619374D01*
X135855329Y-98619380D01*
X135983457Y-98804323D01*
X135983467Y-98804335D01*
X136142562Y-98963430D01*
X136142574Y-98963440D01*
X136327517Y-99091568D01*
X136327523Y-99091571D01*
X136532378Y-99184622D01*
X136750565Y-99239599D01*
X136882708Y-99249999D01*
X137446897Y-99249999D01*
X137446898Y-99249998D01*
X137446898Y-98433012D01*
X137503905Y-98465925D01*
X137631072Y-98500000D01*
X137762724Y-98500000D01*
X137889891Y-98465925D01*
X137946898Y-98433012D01*
X137946898Y-99249999D01*
X138511080Y-99249999D01*
X138511095Y-99249998D01*
X138643230Y-99239599D01*
X138861417Y-99184622D01*
X139066272Y-99091571D01*
X139066278Y-99091568D01*
X139251221Y-98963440D01*
X139251233Y-98963430D01*
X139410328Y-98804335D01*
X139410338Y-98804323D01*
X139538466Y-98619380D01*
X139538469Y-98619374D01*
X139631520Y-98414519D01*
X139686497Y-98196332D01*
X139696897Y-98064196D01*
X139696898Y-98064184D01*
X139696898Y-97250000D01*
X138196898Y-97250000D01*
X138196898Y-96750000D01*
X139696897Y-96750000D01*
X139696897Y-95935817D01*
X139696896Y-95935802D01*
X139686497Y-95803667D01*
X139631520Y-95585480D01*
X139538469Y-95380625D01*
X139538466Y-95380619D01*
X139410338Y-95195676D01*
X139410328Y-95195664D01*
X139251233Y-95036569D01*
X139251221Y-95036559D01*
X139066278Y-94908431D01*
X139066272Y-94908428D01*
X138861417Y-94815377D01*
X138643230Y-94760400D01*
X138511094Y-94750000D01*
X137946898Y-94750000D01*
X137946898Y-95566988D01*
X137889891Y-95534075D01*
X137762724Y-95500000D01*
X137631072Y-95500000D01*
X137503905Y-95534075D01*
X137446898Y-95566988D01*
X137446898Y-94750000D01*
X136882715Y-94750000D01*
X136882700Y-94750001D01*
X136750565Y-94760400D01*
X136532378Y-94815377D01*
X136327523Y-94908428D01*
X136327517Y-94908431D01*
X136142574Y-95036559D01*
X136142562Y-95036569D01*
X135983467Y-95195664D01*
X135983457Y-95195676D01*
X135855329Y-95380619D01*
X135855326Y-95380625D01*
X135762275Y-95585480D01*
X135707298Y-95803667D01*
X135696898Y-95935803D01*
X133647398Y-95935803D01*
X133647398Y-95230249D01*
X133647397Y-95230247D01*
X133635766Y-95171770D01*
X133635765Y-95171769D01*
X133591450Y-95105447D01*
X133525128Y-95061132D01*
X133525127Y-95061131D01*
X133466650Y-95049500D01*
X133466646Y-95049500D01*
X129927150Y-95049500D01*
X129927145Y-95049500D01*
X129868668Y-95061131D01*
X129868667Y-95061132D01*
X129802345Y-95105447D01*
X129758030Y-95171769D01*
X129758029Y-95171770D01*
X129746398Y-95230247D01*
X110000000Y-95230247D01*
X110000000Y-92767682D01*
X112470000Y-92767682D01*
X112470000Y-92972317D01*
X112502009Y-93174417D01*
X112565244Y-93369031D01*
X112658141Y-93551350D01*
X112658147Y-93551359D01*
X112690523Y-93595921D01*
X112690524Y-93595922D01*
X113327861Y-92958584D01*
X113350667Y-93043694D01*
X113409910Y-93146306D01*
X113493694Y-93230090D01*
X113596306Y-93289333D01*
X113681414Y-93312137D01*
X113044076Y-93949474D01*
X113088650Y-93981859D01*
X113270968Y-94074755D01*
X113465582Y-94137990D01*
X113667683Y-94170000D01*
X113872317Y-94170000D01*
X114074417Y-94137990D01*
X114269031Y-94074755D01*
X114451349Y-93981859D01*
X114495921Y-93949474D01*
X113858585Y-93312138D01*
X113943694Y-93289333D01*
X114046306Y-93230090D01*
X114130090Y-93146306D01*
X114189333Y-93043694D01*
X114212138Y-92958585D01*
X114849474Y-93595921D01*
X114881859Y-93551349D01*
X114974755Y-93369031D01*
X115037990Y-93174417D01*
X115070000Y-92972317D01*
X115070000Y-92767682D01*
X115037990Y-92565582D01*
X114974755Y-92370968D01*
X114881859Y-92188650D01*
X114849474Y-92144077D01*
X114849474Y-92144076D01*
X114212137Y-92781413D01*
X114189333Y-92696306D01*
X114130090Y-92593694D01*
X114046306Y-92509910D01*
X113943694Y-92450667D01*
X113858584Y-92427861D01*
X114495922Y-91790524D01*
X114495921Y-91790523D01*
X114451359Y-91758147D01*
X114451350Y-91758141D01*
X114269031Y-91665244D01*
X114074417Y-91602009D01*
X113872317Y-91570000D01*
X113667683Y-91570000D01*
X113465582Y-91602009D01*
X113270968Y-91665244D01*
X113088644Y-91758143D01*
X113044077Y-91790523D01*
X113044077Y-91790524D01*
X113681415Y-92427861D01*
X113596306Y-92450667D01*
X113493694Y-92509910D01*
X113409910Y-92593694D01*
X113350667Y-92696306D01*
X113327861Y-92781414D01*
X112690524Y-92144077D01*
X112690523Y-92144077D01*
X112658143Y-92188644D01*
X112565244Y-92370968D01*
X112502009Y-92565582D01*
X112470000Y-92767682D01*
X110000000Y-92767682D01*
X110000000Y-91342882D01*
X132746398Y-91342882D01*
X132746398Y-93257118D01*
X132749147Y-93303263D01*
X132749147Y-93303267D01*
X132749148Y-93303268D01*
X132792805Y-93503961D01*
X132792807Y-93503968D01*
X132873658Y-93692771D01*
X132873661Y-93692777D01*
X132873664Y-93692781D01*
X132988780Y-93862868D01*
X132988788Y-93862877D01*
X133134020Y-94008109D01*
X133134029Y-94008117D01*
X133236747Y-94077637D01*
X133304121Y-94123237D01*
X133304126Y-94123239D01*
X133492929Y-94204090D01*
X133492936Y-94204092D01*
X133559833Y-94218644D01*
X133693635Y-94247751D01*
X133739780Y-94250500D01*
X133739791Y-94250500D01*
X135654005Y-94250500D01*
X135654016Y-94250500D01*
X135700161Y-94247751D01*
X135875852Y-94209531D01*
X135900859Y-94204092D01*
X135900866Y-94204090D01*
X136055223Y-94137990D01*
X136089675Y-94123237D01*
X136259773Y-94008112D01*
X136405010Y-93862875D01*
X136520135Y-93692777D01*
X136600989Y-93503965D01*
X136644649Y-93303263D01*
X136647398Y-93257118D01*
X136647398Y-91342882D01*
X136644649Y-91296737D01*
X136600989Y-91096035D01*
X136600988Y-91096031D01*
X136520137Y-90907228D01*
X136520135Y-90907223D01*
X136474535Y-90839849D01*
X136405015Y-90737131D01*
X136405007Y-90737122D01*
X136259775Y-90591890D01*
X136259766Y-90591882D01*
X136089679Y-90476766D01*
X136089675Y-90476763D01*
X136089671Y-90476761D01*
X136089669Y-90476760D01*
X135900866Y-90395909D01*
X135900859Y-90395907D01*
X135700166Y-90352250D01*
X135700165Y-90352249D01*
X135700161Y-90352249D01*
X135654016Y-90349500D01*
X133739780Y-90349500D01*
X133693635Y-90352249D01*
X133693630Y-90352249D01*
X133693629Y-90352250D01*
X133492936Y-90395907D01*
X133492929Y-90395909D01*
X133304126Y-90476760D01*
X133304116Y-90476766D01*
X133134029Y-90591882D01*
X133134020Y-90591890D01*
X132988788Y-90737122D01*
X132988780Y-90737131D01*
X132873664Y-90907218D01*
X132873658Y-90907228D01*
X132792807Y-91096031D01*
X132792805Y-91096038D01*
X132749148Y-91296731D01*
X132749147Y-91296737D01*
X132746398Y-91342882D01*
X110000000Y-91342882D01*
X110000000Y-88374031D01*
X130002852Y-88374031D01*
X130002852Y-88563004D01*
X130032411Y-88749636D01*
X130090806Y-88929354D01*
X130176592Y-89097717D01*
X130287662Y-89250591D01*
X130421279Y-89384208D01*
X130574153Y-89495278D01*
X130653699Y-89535808D01*
X130742515Y-89581063D01*
X130742517Y-89581063D01*
X130742520Y-89581065D01*
X130838849Y-89612364D01*
X130922233Y-89639458D01*
X131108866Y-89669018D01*
X131108871Y-89669018D01*
X131297838Y-89669018D01*
X131484470Y-89639458D01*
X131664184Y-89581065D01*
X131832551Y-89495278D01*
X131985425Y-89384208D01*
X132119042Y-89250591D01*
X132230112Y-89097717D01*
X132315899Y-88929350D01*
X132374292Y-88749636D01*
X132403852Y-88563004D01*
X132403852Y-88374031D01*
X138202852Y-88374031D01*
X138202852Y-88563004D01*
X138232411Y-88749636D01*
X138290806Y-88929354D01*
X138376592Y-89097717D01*
X138487662Y-89250591D01*
X138621279Y-89384208D01*
X138774153Y-89495278D01*
X138853699Y-89535808D01*
X138942515Y-89581063D01*
X138942517Y-89581063D01*
X138942520Y-89581065D01*
X139038849Y-89612364D01*
X139122233Y-89639458D01*
X139308866Y-89669018D01*
X139308871Y-89669018D01*
X139497838Y-89669018D01*
X139684470Y-89639458D01*
X139864184Y-89581065D01*
X140032551Y-89495278D01*
X140185425Y-89384208D01*
X140319042Y-89250591D01*
X140430112Y-89097717D01*
X140515899Y-88929350D01*
X140574292Y-88749636D01*
X140603852Y-88563004D01*
X140603852Y-88374031D01*
X140574292Y-88187399D01*
X140515897Y-88007681D01*
X140430111Y-87839318D01*
X140319042Y-87686445D01*
X140185425Y-87552828D01*
X140032551Y-87441758D01*
X139864188Y-87355972D01*
X139684470Y-87297577D01*
X139497838Y-87268018D01*
X139497833Y-87268018D01*
X139308871Y-87268018D01*
X139308866Y-87268018D01*
X139122233Y-87297577D01*
X138942515Y-87355972D01*
X138774152Y-87441758D01*
X138686931Y-87505128D01*
X138621279Y-87552828D01*
X138621277Y-87552830D01*
X138621276Y-87552830D01*
X138487664Y-87686442D01*
X138487664Y-87686443D01*
X138487662Y-87686445D01*
X138439962Y-87752097D01*
X138376592Y-87839318D01*
X138290806Y-88007681D01*
X138232411Y-88187399D01*
X138202852Y-88374031D01*
X132403852Y-88374031D01*
X132374292Y-88187399D01*
X132315897Y-88007681D01*
X132230111Y-87839318D01*
X132119042Y-87686445D01*
X131985425Y-87552828D01*
X131832551Y-87441758D01*
X131664188Y-87355972D01*
X131484470Y-87297577D01*
X131297838Y-87268018D01*
X131297833Y-87268018D01*
X131108871Y-87268018D01*
X131108866Y-87268018D01*
X130922233Y-87297577D01*
X130742515Y-87355972D01*
X130574152Y-87441758D01*
X130486931Y-87505128D01*
X130421279Y-87552828D01*
X130421277Y-87552830D01*
X130421276Y-87552830D01*
X130287664Y-87686442D01*
X130287664Y-87686443D01*
X130287662Y-87686445D01*
X130239962Y-87752097D01*
X130176592Y-87839318D01*
X130090806Y-88007681D01*
X130032411Y-88187399D01*
X130002852Y-88374031D01*
X110000000Y-88374031D01*
X110000000Y-85646157D01*
X115399500Y-85646157D01*
X115399500Y-85751611D01*
X115426793Y-85853471D01*
X115479520Y-85944797D01*
X115554087Y-86019364D01*
X115645413Y-86072091D01*
X115747273Y-86099384D01*
X115747275Y-86099384D01*
X115852725Y-86099384D01*
X115852727Y-86099384D01*
X115954587Y-86072091D01*
X116045913Y-86019364D01*
X116120480Y-85944797D01*
X116173207Y-85853471D01*
X116200500Y-85751611D01*
X116200500Y-85646157D01*
X116173207Y-85544297D01*
X116120480Y-85452971D01*
X116045913Y-85378404D01*
X115954587Y-85325677D01*
X115852727Y-85298384D01*
X115747273Y-85298384D01*
X115645413Y-85325677D01*
X115645410Y-85325678D01*
X115554085Y-85378405D01*
X115479521Y-85452969D01*
X115426794Y-85544294D01*
X115426793Y-85544297D01*
X115399500Y-85646157D01*
X110000000Y-85646157D01*
X110000000Y-84874031D01*
X130002852Y-84874031D01*
X130002852Y-85063004D01*
X130032411Y-85249636D01*
X130090806Y-85429354D01*
X130149373Y-85544297D01*
X130176592Y-85597717D01*
X130287662Y-85750591D01*
X130421279Y-85884208D01*
X130574153Y-85995278D01*
X130621421Y-86019362D01*
X130742515Y-86081063D01*
X130742517Y-86081063D01*
X130742520Y-86081065D01*
X130798897Y-86099383D01*
X130922233Y-86139458D01*
X131108866Y-86169018D01*
X131108871Y-86169018D01*
X131297838Y-86169018D01*
X131484470Y-86139458D01*
X131664184Y-86081065D01*
X131832551Y-85995278D01*
X131985425Y-85884208D01*
X132119042Y-85750591D01*
X132230112Y-85597717D01*
X132315899Y-85429350D01*
X132374292Y-85249636D01*
X132403852Y-85063004D01*
X132403852Y-84874031D01*
X138202852Y-84874031D01*
X138202852Y-85063004D01*
X138232411Y-85249636D01*
X138290806Y-85429354D01*
X138349373Y-85544297D01*
X138376592Y-85597717D01*
X138487662Y-85750591D01*
X138621279Y-85884208D01*
X138774153Y-85995278D01*
X138821421Y-86019362D01*
X138942515Y-86081063D01*
X138942517Y-86081063D01*
X138942520Y-86081065D01*
X138998897Y-86099383D01*
X139122233Y-86139458D01*
X139308866Y-86169018D01*
X139308871Y-86169018D01*
X139497838Y-86169018D01*
X139684470Y-86139458D01*
X139864184Y-86081065D01*
X140032551Y-85995278D01*
X140185425Y-85884208D01*
X140319042Y-85750591D01*
X140430112Y-85597717D01*
X140515899Y-85429350D01*
X140574292Y-85249636D01*
X140603852Y-85063004D01*
X140603852Y-84874031D01*
X140574292Y-84687399D01*
X140515897Y-84507681D01*
X140461285Y-84400499D01*
X140430112Y-84339319D01*
X140319042Y-84186445D01*
X140185425Y-84052828D01*
X140032551Y-83941758D01*
X140030457Y-83940691D01*
X139864188Y-83855972D01*
X139684470Y-83797577D01*
X139497838Y-83768018D01*
X139497833Y-83768018D01*
X139308871Y-83768018D01*
X139308866Y-83768018D01*
X139122233Y-83797577D01*
X138942515Y-83855972D01*
X138774152Y-83941758D01*
X138686931Y-84005128D01*
X138621279Y-84052828D01*
X138621277Y-84052830D01*
X138621276Y-84052830D01*
X138487664Y-84186442D01*
X138487664Y-84186443D01*
X138487662Y-84186445D01*
X138444456Y-84245913D01*
X138376592Y-84339318D01*
X138290806Y-84507681D01*
X138232411Y-84687399D01*
X138202852Y-84874031D01*
X132403852Y-84874031D01*
X132374292Y-84687399D01*
X132315897Y-84507681D01*
X132261285Y-84400499D01*
X132230112Y-84339319D01*
X132119042Y-84186445D01*
X131985425Y-84052828D01*
X131832551Y-83941758D01*
X131830457Y-83940691D01*
X131664188Y-83855972D01*
X131484470Y-83797577D01*
X131297838Y-83768018D01*
X131297833Y-83768018D01*
X131108871Y-83768018D01*
X131108866Y-83768018D01*
X130922233Y-83797577D01*
X130742515Y-83855972D01*
X130574152Y-83941758D01*
X130486931Y-84005128D01*
X130421279Y-84052828D01*
X130421277Y-84052830D01*
X130421276Y-84052830D01*
X130287664Y-84186442D01*
X130287664Y-84186443D01*
X130287662Y-84186445D01*
X130244456Y-84245913D01*
X130176592Y-84339318D01*
X130090806Y-84507681D01*
X130032411Y-84687399D01*
X130002852Y-84874031D01*
X110000000Y-84874031D01*
X110000000Y-83947273D01*
X111074500Y-83947273D01*
X111074500Y-84052727D01*
X111101793Y-84154587D01*
X111154520Y-84245913D01*
X111229087Y-84320480D01*
X111320413Y-84373207D01*
X111422273Y-84400500D01*
X111422275Y-84400500D01*
X111527725Y-84400500D01*
X111527727Y-84400500D01*
X111629587Y-84373207D01*
X111629593Y-84373203D01*
X111637094Y-84370097D01*
X111638096Y-84372515D01*
X111693361Y-84359091D01*
X111749501Y-84375566D01*
X111826108Y-84419796D01*
X111826109Y-84419797D01*
X111826111Y-84419797D01*
X111826114Y-84419799D01*
X111940691Y-84450500D01*
X111940694Y-84450500D01*
X112059306Y-84450500D01*
X112059309Y-84450500D01*
X112173886Y-84419799D01*
X112276613Y-84360489D01*
X112360489Y-84276613D01*
X112419799Y-84173886D01*
X112450500Y-84059309D01*
X112450500Y-83940691D01*
X112419799Y-83826114D01*
X112360489Y-83723387D01*
X112276613Y-83639511D01*
X112173886Y-83580201D01*
X112059309Y-83549500D01*
X111940691Y-83549500D01*
X111835505Y-83577684D01*
X111826110Y-83580202D01*
X111749501Y-83624433D01*
X111681601Y-83640906D01*
X111637863Y-83628064D01*
X111637101Y-83629905D01*
X111629589Y-83626794D01*
X111629588Y-83626793D01*
X111629587Y-83626793D01*
X111527727Y-83599500D01*
X111422273Y-83599500D01*
X111320413Y-83626793D01*
X111320410Y-83626794D01*
X111229085Y-83679521D01*
X111154521Y-83754085D01*
X111101794Y-83845410D01*
X111101793Y-83845413D01*
X111074500Y-83947273D01*
X110000000Y-83947273D01*
X110000000Y-82677273D01*
X111074500Y-82677273D01*
X111074500Y-82782727D01*
X111101793Y-82884587D01*
X111154520Y-82975913D01*
X111229087Y-83050480D01*
X111320413Y-83103207D01*
X111422273Y-83130500D01*
X111422275Y-83130500D01*
X111527724Y-83130500D01*
X111527727Y-83130500D01*
X111626649Y-83103994D01*
X111696496Y-83105657D01*
X111720741Y-83116383D01*
X111787107Y-83154700D01*
X111787108Y-83154701D01*
X111787110Y-83154701D01*
X111787113Y-83154703D01*
X111901690Y-83185404D01*
X111901693Y-83185404D01*
X112020305Y-83185404D01*
X112020308Y-83185404D01*
X112134885Y-83154703D01*
X112237612Y-83095393D01*
X112321488Y-83011517D01*
X112380798Y-82908790D01*
X112411499Y-82794213D01*
X112411499Y-82675595D01*
X112380798Y-82561018D01*
X112321488Y-82458291D01*
X112237612Y-82374415D01*
X112134885Y-82315105D01*
X112020308Y-82284404D01*
X111901690Y-82284404D01*
X111787113Y-82315105D01*
X111787112Y-82315105D01*
X111787110Y-82315106D01*
X111732221Y-82346796D01*
X111664321Y-82363267D01*
X111637850Y-82357354D01*
X111637437Y-82358897D01*
X111629588Y-82356794D01*
X111629587Y-82356793D01*
X111527727Y-82329500D01*
X111422273Y-82329500D01*
X111320413Y-82356793D01*
X111320410Y-82356794D01*
X111229085Y-82409521D01*
X111154521Y-82484085D01*
X111101794Y-82575410D01*
X111101793Y-82575413D01*
X111074500Y-82677273D01*
X110000000Y-82677273D01*
X110000000Y-81940691D01*
X123999500Y-81940691D01*
X123999500Y-82059309D01*
X124030201Y-82173886D01*
X124089511Y-82276613D01*
X124173387Y-82360489D01*
X124276114Y-82419799D01*
X124390691Y-82450500D01*
X124390694Y-82450500D01*
X124509306Y-82450500D01*
X124509309Y-82450500D01*
X124623886Y-82419799D01*
X124726613Y-82360489D01*
X124810489Y-82276613D01*
X124869799Y-82173886D01*
X124900500Y-82059309D01*
X124900500Y-81940691D01*
X124869799Y-81826114D01*
X124810489Y-81723387D01*
X124726613Y-81639511D01*
X124623886Y-81580201D01*
X124509309Y-81549500D01*
X124390691Y-81549500D01*
X124276114Y-81580201D01*
X124276112Y-81580201D01*
X124276112Y-81580202D01*
X124173387Y-81639511D01*
X124173384Y-81639513D01*
X124089513Y-81723384D01*
X124089511Y-81723387D01*
X124030201Y-81826114D01*
X123999500Y-81940691D01*
X110000000Y-81940691D01*
X110000000Y-81374031D01*
X130002852Y-81374031D01*
X130002852Y-81563004D01*
X130032411Y-81749636D01*
X130090806Y-81929354D01*
X130157022Y-82059309D01*
X130176592Y-82097717D01*
X130287662Y-82250591D01*
X130421279Y-82384208D01*
X130574153Y-82495278D01*
X130653699Y-82535808D01*
X130742515Y-82581063D01*
X130742517Y-82581063D01*
X130742520Y-82581065D01*
X130838849Y-82612364D01*
X130922233Y-82639458D01*
X131108866Y-82669018D01*
X131108871Y-82669018D01*
X131297838Y-82669018D01*
X131484470Y-82639458D01*
X131664184Y-82581065D01*
X131832551Y-82495278D01*
X131985425Y-82384208D01*
X132119042Y-82250591D01*
X132230112Y-82097717D01*
X132315899Y-81929350D01*
X132374292Y-81749636D01*
X132391734Y-81639511D01*
X132403852Y-81563004D01*
X132403852Y-81374031D01*
X138202852Y-81374031D01*
X138202852Y-81563004D01*
X138232411Y-81749636D01*
X138290806Y-81929354D01*
X138357022Y-82059309D01*
X138376592Y-82097717D01*
X138487662Y-82250591D01*
X138621279Y-82384208D01*
X138774153Y-82495278D01*
X138853699Y-82535808D01*
X138942515Y-82581063D01*
X138942517Y-82581063D01*
X138942520Y-82581065D01*
X139038849Y-82612364D01*
X139122233Y-82639458D01*
X139308866Y-82669018D01*
X139308871Y-82669018D01*
X139497838Y-82669018D01*
X139684470Y-82639458D01*
X139864184Y-82581065D01*
X140032551Y-82495278D01*
X140185425Y-82384208D01*
X140319042Y-82250591D01*
X140430112Y-82097717D01*
X140515899Y-81929350D01*
X140574292Y-81749636D01*
X140591734Y-81639511D01*
X140603852Y-81563004D01*
X140603852Y-81374031D01*
X140574292Y-81187399D01*
X140515897Y-81007681D01*
X140430111Y-80839318D01*
X140319042Y-80686445D01*
X140185425Y-80552828D01*
X140032551Y-80441758D01*
X139864188Y-80355972D01*
X139684470Y-80297577D01*
X139497838Y-80268018D01*
X139497833Y-80268018D01*
X139308871Y-80268018D01*
X139308866Y-80268018D01*
X139122233Y-80297577D01*
X138942515Y-80355972D01*
X138774152Y-80441758D01*
X138686931Y-80505128D01*
X138621279Y-80552828D01*
X138621277Y-80552830D01*
X138621276Y-80552830D01*
X138487664Y-80686442D01*
X138487664Y-80686443D01*
X138487662Y-80686445D01*
X138439962Y-80752097D01*
X138376592Y-80839318D01*
X138290806Y-81007681D01*
X138232411Y-81187399D01*
X138202852Y-81374031D01*
X132403852Y-81374031D01*
X132374292Y-81187399D01*
X132315897Y-81007681D01*
X132230111Y-80839318D01*
X132119042Y-80686445D01*
X131985425Y-80552828D01*
X131832551Y-80441758D01*
X131664188Y-80355972D01*
X131484470Y-80297577D01*
X131297838Y-80268018D01*
X131297833Y-80268018D01*
X131108871Y-80268018D01*
X131108866Y-80268018D01*
X130922233Y-80297577D01*
X130742515Y-80355972D01*
X130574152Y-80441758D01*
X130486931Y-80505128D01*
X130421279Y-80552828D01*
X130421277Y-80552830D01*
X130421276Y-80552830D01*
X130287664Y-80686442D01*
X130287664Y-80686443D01*
X130287662Y-80686445D01*
X130239962Y-80752097D01*
X130176592Y-80839318D01*
X130090806Y-81007681D01*
X130032411Y-81187399D01*
X130002852Y-81374031D01*
X110000000Y-81374031D01*
X110000000Y-78586307D01*
X118674500Y-78586307D01*
X118674500Y-78691761D01*
X118701793Y-78793621D01*
X118754520Y-78884947D01*
X118829087Y-78959514D01*
X118920413Y-79012241D01*
X119022273Y-79039534D01*
X119022275Y-79039534D01*
X119127725Y-79039534D01*
X119127727Y-79039534D01*
X119229587Y-79012241D01*
X119320913Y-78959514D01*
X119395480Y-78884947D01*
X119448207Y-78793621D01*
X119475500Y-78691761D01*
X119475500Y-78586307D01*
X121924500Y-78586307D01*
X121924500Y-78691761D01*
X121951793Y-78793621D01*
X122004520Y-78884947D01*
X122079087Y-78959514D01*
X122170413Y-79012241D01*
X122272273Y-79039534D01*
X122272275Y-79039534D01*
X122377725Y-79039534D01*
X122377727Y-79039534D01*
X122479587Y-79012241D01*
X122570913Y-78959514D01*
X122645480Y-78884947D01*
X122698207Y-78793621D01*
X122725500Y-78691761D01*
X122725500Y-78586307D01*
X125174500Y-78586307D01*
X125174500Y-78691761D01*
X125201793Y-78793621D01*
X125254520Y-78884947D01*
X125329087Y-78959514D01*
X125420413Y-79012241D01*
X125522273Y-79039534D01*
X125522275Y-79039534D01*
X125627725Y-79039534D01*
X125627727Y-79039534D01*
X125729587Y-79012241D01*
X125820913Y-78959514D01*
X125895480Y-78884947D01*
X125948207Y-78793621D01*
X125975500Y-78691761D01*
X125975500Y-78586307D01*
X125948207Y-78484447D01*
X125895480Y-78393121D01*
X125820913Y-78318554D01*
X125729587Y-78265827D01*
X125627727Y-78238534D01*
X125522273Y-78238534D01*
X125420413Y-78265827D01*
X125420410Y-78265828D01*
X125329085Y-78318555D01*
X125254521Y-78393119D01*
X125201794Y-78484444D01*
X125201793Y-78484447D01*
X125174500Y-78586307D01*
X122725500Y-78586307D01*
X122698207Y-78484447D01*
X122645480Y-78393121D01*
X122570913Y-78318554D01*
X122479587Y-78265827D01*
X122377727Y-78238534D01*
X122272273Y-78238534D01*
X122170413Y-78265827D01*
X122170410Y-78265828D01*
X122079085Y-78318555D01*
X122004521Y-78393119D01*
X121951794Y-78484444D01*
X121951793Y-78484447D01*
X121924500Y-78586307D01*
X119475500Y-78586307D01*
X119448207Y-78484447D01*
X119395480Y-78393121D01*
X119320913Y-78318554D01*
X119229587Y-78265827D01*
X119127727Y-78238534D01*
X119022273Y-78238534D01*
X118920413Y-78265827D01*
X118920410Y-78265828D01*
X118829085Y-78318555D01*
X118754521Y-78393119D01*
X118701794Y-78484444D01*
X118701793Y-78484447D01*
X118674500Y-78586307D01*
X110000000Y-78586307D01*
X110000000Y-77413953D01*
X115351846Y-77413953D01*
X115351846Y-77545736D01*
X115385954Y-77673032D01*
X115394249Y-77687399D01*
X115451846Y-77787159D01*
X115545032Y-77880345D01*
X115659160Y-77946237D01*
X115786454Y-77980345D01*
X115786456Y-77980345D01*
X115918236Y-77980345D01*
X115918238Y-77980345D01*
X116045532Y-77946237D01*
X116159660Y-77880345D01*
X116165974Y-77874031D01*
X130002852Y-77874031D01*
X130002852Y-78063004D01*
X130032411Y-78249636D01*
X130090806Y-78429354D01*
X130118878Y-78484447D01*
X130176592Y-78597717D01*
X130287662Y-78750591D01*
X130421279Y-78884208D01*
X130574153Y-78995278D01*
X130607443Y-79012240D01*
X130742515Y-79081063D01*
X130742517Y-79081063D01*
X130742520Y-79081065D01*
X130838849Y-79112364D01*
X130922233Y-79139458D01*
X131108866Y-79169018D01*
X131108871Y-79169018D01*
X131297838Y-79169018D01*
X131484470Y-79139458D01*
X131664184Y-79081065D01*
X131832551Y-78995278D01*
X131985425Y-78884208D01*
X132119042Y-78750591D01*
X132230112Y-78597717D01*
X132315899Y-78429350D01*
X132374292Y-78249636D01*
X132376050Y-78238534D01*
X132403852Y-78063004D01*
X132403852Y-77874031D01*
X138202852Y-77874031D01*
X138202852Y-78063004D01*
X138232411Y-78249636D01*
X138290806Y-78429354D01*
X138318878Y-78484447D01*
X138376592Y-78597717D01*
X138487662Y-78750591D01*
X138621279Y-78884208D01*
X138774153Y-78995278D01*
X138807443Y-79012240D01*
X138942515Y-79081063D01*
X138942517Y-79081063D01*
X138942520Y-79081065D01*
X139038849Y-79112364D01*
X139122233Y-79139458D01*
X139308866Y-79169018D01*
X139308871Y-79169018D01*
X139497838Y-79169018D01*
X139684470Y-79139458D01*
X139864184Y-79081065D01*
X140032551Y-78995278D01*
X140185425Y-78884208D01*
X140319042Y-78750591D01*
X140430112Y-78597717D01*
X140515899Y-78429350D01*
X140574292Y-78249636D01*
X140576050Y-78238534D01*
X140603852Y-78063004D01*
X140603852Y-77874031D01*
X140574292Y-77687399D01*
X140547198Y-77604015D01*
X140515899Y-77507686D01*
X140515897Y-77507683D01*
X140515897Y-77507681D01*
X140430111Y-77339318D01*
X140319042Y-77186445D01*
X140185425Y-77052828D01*
X140032551Y-76941758D01*
X139864188Y-76855972D01*
X139684470Y-76797577D01*
X139497838Y-76768018D01*
X139497833Y-76768018D01*
X139308871Y-76768018D01*
X139308866Y-76768018D01*
X139122233Y-76797577D01*
X138942515Y-76855972D01*
X138774152Y-76941758D01*
X138722419Y-76979345D01*
X138621279Y-77052828D01*
X138621277Y-77052830D01*
X138621276Y-77052830D01*
X138487664Y-77186442D01*
X138487664Y-77186443D01*
X138487662Y-77186445D01*
X138439962Y-77252097D01*
X138376592Y-77339318D01*
X138290806Y-77507681D01*
X138232411Y-77687399D01*
X138202852Y-77874031D01*
X132403852Y-77874031D01*
X132374292Y-77687399D01*
X132347198Y-77604015D01*
X132315899Y-77507686D01*
X132315897Y-77507683D01*
X132315897Y-77507681D01*
X132230111Y-77339318D01*
X132119042Y-77186445D01*
X131985425Y-77052828D01*
X131832551Y-76941758D01*
X131664188Y-76855972D01*
X131484470Y-76797577D01*
X131297838Y-76768018D01*
X131297833Y-76768018D01*
X131108871Y-76768018D01*
X131108866Y-76768018D01*
X130922233Y-76797577D01*
X130742515Y-76855972D01*
X130574152Y-76941758D01*
X130522419Y-76979345D01*
X130421279Y-77052828D01*
X130421277Y-77052830D01*
X130421276Y-77052830D01*
X130287664Y-77186442D01*
X130287664Y-77186443D01*
X130287662Y-77186445D01*
X130239962Y-77252097D01*
X130176592Y-77339318D01*
X130090806Y-77507681D01*
X130032411Y-77687399D01*
X130002852Y-77874031D01*
X116165974Y-77874031D01*
X116252846Y-77787159D01*
X116318738Y-77673031D01*
X116352846Y-77545737D01*
X116352846Y-77413953D01*
X116318738Y-77286659D01*
X116252846Y-77172531D01*
X116159660Y-77079345D01*
X116102596Y-77046399D01*
X116045533Y-77013453D01*
X115981885Y-76996399D01*
X115918238Y-76979345D01*
X115786454Y-76979345D01*
X115659158Y-77013453D01*
X115545032Y-77079345D01*
X115545029Y-77079347D01*
X115451848Y-77172528D01*
X115451846Y-77172531D01*
X115385954Y-77286657D01*
X115351846Y-77413953D01*
X110000000Y-77413953D01*
X110000000Y-74934108D01*
X123499500Y-74934108D01*
X123499500Y-75065892D01*
X123516554Y-75129539D01*
X123533608Y-75193187D01*
X123566554Y-75250250D01*
X123599500Y-75307314D01*
X123692686Y-75400500D01*
X123806814Y-75466392D01*
X123934108Y-75500500D01*
X123934110Y-75500500D01*
X124065890Y-75500500D01*
X124065892Y-75500500D01*
X124193186Y-75466392D01*
X124307314Y-75400500D01*
X124400500Y-75307314D01*
X124466392Y-75193186D01*
X124500500Y-75065892D01*
X124500500Y-74934108D01*
X124466392Y-74806814D01*
X124400500Y-74692686D01*
X124307314Y-74599500D01*
X124244093Y-74562999D01*
X124193187Y-74533608D01*
X124129539Y-74516554D01*
X124065892Y-74499500D01*
X123934108Y-74499500D01*
X123806812Y-74533608D01*
X123692686Y-74599500D01*
X123692683Y-74599502D01*
X123599502Y-74692683D01*
X123599500Y-74692686D01*
X123533608Y-74806812D01*
X123500775Y-74929350D01*
X123499500Y-74934108D01*
X110000000Y-74934108D01*
X110000000Y-74374031D01*
X130002852Y-74374031D01*
X130002852Y-74563004D01*
X130032411Y-74749636D01*
X130090806Y-74929354D01*
X130160375Y-75065890D01*
X130176592Y-75097717D01*
X130287662Y-75250591D01*
X130421279Y-75384208D01*
X130574153Y-75495278D01*
X130653699Y-75535808D01*
X130742515Y-75581063D01*
X130742517Y-75581063D01*
X130742520Y-75581065D01*
X130838849Y-75612364D01*
X130922233Y-75639458D01*
X131108866Y-75669018D01*
X131108871Y-75669018D01*
X131297838Y-75669018D01*
X131484470Y-75639458D01*
X131664184Y-75581065D01*
X131832551Y-75495278D01*
X131985425Y-75384208D01*
X132119042Y-75250591D01*
X132230112Y-75097717D01*
X132315899Y-74929350D01*
X132374292Y-74749636D01*
X132383312Y-74692686D01*
X132403852Y-74563004D01*
X132403852Y-74374031D01*
X138202852Y-74374031D01*
X138202852Y-74563004D01*
X138232411Y-74749636D01*
X138290806Y-74929354D01*
X138360375Y-75065890D01*
X138376592Y-75097717D01*
X138487662Y-75250591D01*
X138621279Y-75384208D01*
X138774153Y-75495278D01*
X138853699Y-75535808D01*
X138942515Y-75581063D01*
X138942517Y-75581063D01*
X138942520Y-75581065D01*
X139038849Y-75612364D01*
X139122233Y-75639458D01*
X139308866Y-75669018D01*
X139308871Y-75669018D01*
X139497838Y-75669018D01*
X139684470Y-75639458D01*
X139864184Y-75581065D01*
X140032551Y-75495278D01*
X140185425Y-75384208D01*
X140319042Y-75250591D01*
X140430112Y-75097717D01*
X140515899Y-74929350D01*
X140574292Y-74749636D01*
X140583312Y-74692686D01*
X140603852Y-74563004D01*
X140603852Y-74374031D01*
X140574292Y-74187399D01*
X140547198Y-74104015D01*
X140515899Y-74007686D01*
X140515897Y-74007683D01*
X140515897Y-74007681D01*
X140430111Y-73839318D01*
X140424667Y-73831825D01*
X140319042Y-73686445D01*
X140185425Y-73552828D01*
X140032551Y-73441758D01*
X139864188Y-73355972D01*
X139684470Y-73297577D01*
X139497838Y-73268018D01*
X139497833Y-73268018D01*
X139308871Y-73268018D01*
X139308866Y-73268018D01*
X139122233Y-73297577D01*
X138942515Y-73355972D01*
X138774152Y-73441758D01*
X138693594Y-73500288D01*
X138621279Y-73552828D01*
X138621277Y-73552830D01*
X138621276Y-73552830D01*
X138487664Y-73686442D01*
X138487664Y-73686443D01*
X138487662Y-73686445D01*
X138464955Y-73717699D01*
X138376592Y-73839318D01*
X138290806Y-74007681D01*
X138232411Y-74187399D01*
X138202852Y-74374031D01*
X132403852Y-74374031D01*
X132374292Y-74187399D01*
X132347198Y-74104015D01*
X132315899Y-74007686D01*
X132315897Y-74007683D01*
X132315897Y-74007681D01*
X132230111Y-73839318D01*
X132224667Y-73831825D01*
X132119042Y-73686445D01*
X131985425Y-73552828D01*
X131832551Y-73441758D01*
X131664188Y-73355972D01*
X131484470Y-73297577D01*
X131297838Y-73268018D01*
X131297833Y-73268018D01*
X131108871Y-73268018D01*
X131108866Y-73268018D01*
X130922233Y-73297577D01*
X130742515Y-73355972D01*
X130574152Y-73441758D01*
X130493594Y-73500288D01*
X130421279Y-73552828D01*
X130421277Y-73552830D01*
X130421276Y-73552830D01*
X130287664Y-73686442D01*
X130287664Y-73686443D01*
X130287662Y-73686445D01*
X130264955Y-73717699D01*
X130176592Y-73839318D01*
X130090806Y-74007681D01*
X130032411Y-74187399D01*
X130002852Y-74374031D01*
X110000000Y-74374031D01*
X110000000Y-73318856D01*
X112649500Y-73318856D01*
X112649500Y-73411144D01*
X112651444Y-73418400D01*
X112673387Y-73500290D01*
X112673388Y-73500293D01*
X112719526Y-73580205D01*
X112719529Y-73580209D01*
X112719531Y-73580212D01*
X112784788Y-73645469D01*
X112784791Y-73645470D01*
X112784794Y-73645473D01*
X112864706Y-73691611D01*
X112864707Y-73691611D01*
X112864712Y-73691614D01*
X112953856Y-73715500D01*
X112953858Y-73715500D01*
X113046142Y-73715500D01*
X113046144Y-73715500D01*
X113135288Y-73691614D01*
X113215212Y-73645469D01*
X113280469Y-73580212D01*
X113326614Y-73500288D01*
X113337779Y-73458620D01*
X120572641Y-73458620D01*
X120572641Y-73590404D01*
X120587397Y-73645473D01*
X120606749Y-73717699D01*
X120639695Y-73774762D01*
X120672641Y-73831826D01*
X120765827Y-73925012D01*
X120879955Y-73990904D01*
X121007249Y-74025012D01*
X121007251Y-74025012D01*
X121139031Y-74025012D01*
X121139033Y-74025012D01*
X121266327Y-73990904D01*
X121380455Y-73925012D01*
X121473641Y-73831826D01*
X121539533Y-73717698D01*
X121573641Y-73590404D01*
X121573641Y-73458620D01*
X121539533Y-73331326D01*
X121473641Y-73217198D01*
X121380455Y-73124012D01*
X121312072Y-73084531D01*
X121266328Y-73058120D01*
X121192678Y-73038386D01*
X121139033Y-73024012D01*
X121007249Y-73024012D01*
X120879953Y-73058120D01*
X120765827Y-73124012D01*
X120765824Y-73124014D01*
X120672643Y-73217195D01*
X120672641Y-73217198D01*
X120606749Y-73331324D01*
X120583418Y-73418399D01*
X120572641Y-73458620D01*
X113337779Y-73458620D01*
X113350500Y-73411144D01*
X113350500Y-73318856D01*
X113326614Y-73229712D01*
X113319389Y-73217198D01*
X113280473Y-73149794D01*
X113280470Y-73149791D01*
X113280469Y-73149788D01*
X113215212Y-73084531D01*
X113215209Y-73084529D01*
X113215205Y-73084526D01*
X113135293Y-73038388D01*
X113135290Y-73038387D01*
X113135289Y-73038386D01*
X113135288Y-73038386D01*
X113046144Y-73014500D01*
X112953856Y-73014500D01*
X112864712Y-73038386D01*
X112864711Y-73038386D01*
X112864709Y-73038387D01*
X112864706Y-73038388D01*
X112784794Y-73084526D01*
X112784785Y-73084533D01*
X112719533Y-73149785D01*
X112719526Y-73149794D01*
X112673388Y-73229706D01*
X112673387Y-73229709D01*
X112673386Y-73229711D01*
X112673386Y-73229712D01*
X112649500Y-73318856D01*
X110000000Y-73318856D01*
X110000000Y-70949806D01*
X118724500Y-70949806D01*
X118724500Y-71042094D01*
X118730101Y-71062999D01*
X118748387Y-71131240D01*
X118748388Y-71131243D01*
X118794526Y-71211155D01*
X118794529Y-71211159D01*
X118794531Y-71211162D01*
X118859788Y-71276419D01*
X118859791Y-71276420D01*
X118859794Y-71276423D01*
X118939706Y-71322561D01*
X118939707Y-71322561D01*
X118939712Y-71322564D01*
X119028856Y-71346450D01*
X119028858Y-71346450D01*
X119121142Y-71346450D01*
X119121144Y-71346450D01*
X119210288Y-71322564D01*
X119290212Y-71276419D01*
X119355469Y-71211162D01*
X119401614Y-71131238D01*
X119425500Y-71042094D01*
X119425500Y-70953856D01*
X120674500Y-70953856D01*
X120674500Y-71046144D01*
X120697302Y-71131243D01*
X120698387Y-71135290D01*
X120698388Y-71135293D01*
X120744526Y-71215205D01*
X120744529Y-71215209D01*
X120744531Y-71215212D01*
X120809788Y-71280469D01*
X120809791Y-71280470D01*
X120809794Y-71280473D01*
X120889706Y-71326611D01*
X120889707Y-71326611D01*
X120889712Y-71326614D01*
X120978856Y-71350500D01*
X120978858Y-71350500D01*
X121071142Y-71350500D01*
X121071144Y-71350500D01*
X121160288Y-71326614D01*
X121240212Y-71280469D01*
X121305469Y-71215212D01*
X121351614Y-71135288D01*
X121375500Y-71046144D01*
X121375500Y-70953856D01*
X121374415Y-70949806D01*
X123924500Y-70949806D01*
X123924500Y-71042094D01*
X123930101Y-71062999D01*
X123948387Y-71131240D01*
X123948388Y-71131243D01*
X123994526Y-71211155D01*
X123994529Y-71211159D01*
X123994531Y-71211162D01*
X124059788Y-71276419D01*
X124059791Y-71276420D01*
X124059794Y-71276423D01*
X124139706Y-71322561D01*
X124139707Y-71322561D01*
X124139712Y-71322564D01*
X124228856Y-71346450D01*
X124228858Y-71346450D01*
X124321142Y-71346450D01*
X124321144Y-71346450D01*
X124410288Y-71322564D01*
X124490212Y-71276419D01*
X124555469Y-71211162D01*
X124601614Y-71131238D01*
X124625500Y-71042094D01*
X124625500Y-70949806D01*
X124605196Y-70874031D01*
X130002852Y-70874031D01*
X130002852Y-71063004D01*
X130032411Y-71249636D01*
X130090806Y-71429354D01*
X130176592Y-71597717D01*
X130287662Y-71750591D01*
X130421279Y-71884208D01*
X130574153Y-71995278D01*
X130653699Y-72035808D01*
X130742515Y-72081063D01*
X130742517Y-72081063D01*
X130742520Y-72081065D01*
X130838849Y-72112364D01*
X130922233Y-72139458D01*
X131108866Y-72169018D01*
X131108871Y-72169018D01*
X131297838Y-72169018D01*
X131484470Y-72139458D01*
X131664184Y-72081065D01*
X131832551Y-71995278D01*
X131985425Y-71884208D01*
X132119042Y-71750591D01*
X132230112Y-71597717D01*
X132315899Y-71429350D01*
X132374292Y-71249636D01*
X132392402Y-71135293D01*
X132403852Y-71063004D01*
X132403852Y-70874031D01*
X138202852Y-70874031D01*
X138202852Y-71063004D01*
X138232411Y-71249636D01*
X138290806Y-71429354D01*
X138376592Y-71597717D01*
X138487662Y-71750591D01*
X138621279Y-71884208D01*
X138774153Y-71995278D01*
X138853699Y-72035808D01*
X138942515Y-72081063D01*
X138942517Y-72081063D01*
X138942520Y-72081065D01*
X139038849Y-72112364D01*
X139122233Y-72139458D01*
X139308866Y-72169018D01*
X139308871Y-72169018D01*
X139497838Y-72169018D01*
X139684470Y-72139458D01*
X139864184Y-72081065D01*
X140032551Y-71995278D01*
X140185425Y-71884208D01*
X140319042Y-71750591D01*
X140430112Y-71597717D01*
X140515899Y-71429350D01*
X140574292Y-71249636D01*
X140592402Y-71135293D01*
X140603852Y-71063004D01*
X140603852Y-70874031D01*
X140574292Y-70687399D01*
X140515897Y-70507681D01*
X140461285Y-70400499D01*
X140430112Y-70339319D01*
X140319042Y-70186445D01*
X140185425Y-70052828D01*
X140032551Y-69941758D01*
X139864188Y-69855972D01*
X139684470Y-69797577D01*
X139497838Y-69768018D01*
X139497833Y-69768018D01*
X139308871Y-69768018D01*
X139308866Y-69768018D01*
X139122233Y-69797577D01*
X138942515Y-69855972D01*
X138774152Y-69941758D01*
X138686931Y-70005128D01*
X138621279Y-70052828D01*
X138621277Y-70052830D01*
X138621276Y-70052830D01*
X138487664Y-70186442D01*
X138487664Y-70186443D01*
X138487662Y-70186445D01*
X138444456Y-70245913D01*
X138376592Y-70339318D01*
X138290806Y-70507681D01*
X138232411Y-70687399D01*
X138202852Y-70874031D01*
X132403852Y-70874031D01*
X132374292Y-70687399D01*
X132315897Y-70507681D01*
X132261285Y-70400499D01*
X132230112Y-70339319D01*
X132119042Y-70186445D01*
X131985425Y-70052828D01*
X131832551Y-69941758D01*
X131664188Y-69855972D01*
X131484470Y-69797577D01*
X131297838Y-69768018D01*
X131297833Y-69768018D01*
X131108871Y-69768018D01*
X131108866Y-69768018D01*
X130922233Y-69797577D01*
X130742515Y-69855972D01*
X130574152Y-69941758D01*
X130486931Y-70005128D01*
X130421279Y-70052828D01*
X130421277Y-70052830D01*
X130421276Y-70052830D01*
X130287664Y-70186442D01*
X130287664Y-70186443D01*
X130287662Y-70186445D01*
X130244456Y-70245913D01*
X130176592Y-70339318D01*
X130090806Y-70507681D01*
X130032411Y-70687399D01*
X130002852Y-70874031D01*
X124605196Y-70874031D01*
X124601614Y-70860662D01*
X124557811Y-70784794D01*
X124555473Y-70780744D01*
X124555470Y-70780741D01*
X124555469Y-70780738D01*
X124490212Y-70715481D01*
X124490209Y-70715479D01*
X124490205Y-70715476D01*
X124410293Y-70669338D01*
X124410290Y-70669337D01*
X124410289Y-70669336D01*
X124410288Y-70669336D01*
X124321144Y-70645450D01*
X124228856Y-70645450D01*
X124139712Y-70669336D01*
X124139711Y-70669336D01*
X124139709Y-70669337D01*
X124139706Y-70669338D01*
X124059794Y-70715476D01*
X124059785Y-70715483D01*
X123994533Y-70780735D01*
X123994526Y-70780744D01*
X123948388Y-70860656D01*
X123948387Y-70860659D01*
X123948386Y-70860661D01*
X123948386Y-70860662D01*
X123924500Y-70949806D01*
X121374415Y-70949806D01*
X121351614Y-70864712D01*
X121349274Y-70860659D01*
X121305473Y-70784794D01*
X121305470Y-70784791D01*
X121305469Y-70784788D01*
X121240212Y-70719531D01*
X121240209Y-70719529D01*
X121240205Y-70719526D01*
X121160293Y-70673388D01*
X121160290Y-70673387D01*
X121160289Y-70673386D01*
X121160288Y-70673386D01*
X121071144Y-70649500D01*
X120978856Y-70649500D01*
X120889712Y-70673386D01*
X120889711Y-70673386D01*
X120889709Y-70673387D01*
X120889706Y-70673388D01*
X120809794Y-70719526D01*
X120809785Y-70719533D01*
X120744533Y-70784785D01*
X120744526Y-70784794D01*
X120698388Y-70864706D01*
X120698387Y-70864709D01*
X120698386Y-70864711D01*
X120698386Y-70864712D01*
X120674500Y-70953856D01*
X119425500Y-70953856D01*
X119425500Y-70949806D01*
X119401614Y-70860662D01*
X119357811Y-70784794D01*
X119355473Y-70780744D01*
X119355470Y-70780741D01*
X119355469Y-70780738D01*
X119290212Y-70715481D01*
X119290209Y-70715479D01*
X119290205Y-70715476D01*
X119210293Y-70669338D01*
X119210290Y-70669337D01*
X119210289Y-70669336D01*
X119210288Y-70669336D01*
X119121144Y-70645450D01*
X119028856Y-70645450D01*
X118939712Y-70669336D01*
X118939711Y-70669336D01*
X118939709Y-70669337D01*
X118939706Y-70669338D01*
X118859794Y-70715476D01*
X118859785Y-70715483D01*
X118794533Y-70780735D01*
X118794526Y-70780744D01*
X118748388Y-70860656D01*
X118748387Y-70860659D01*
X118748386Y-70860661D01*
X118748386Y-70860662D01*
X118724500Y-70949806D01*
X110000000Y-70949806D01*
X110000000Y-69947273D01*
X117424500Y-69947273D01*
X117424500Y-70052727D01*
X117451793Y-70154587D01*
X117504520Y-70245913D01*
X117579087Y-70320480D01*
X117670413Y-70373207D01*
X117772273Y-70400500D01*
X117772275Y-70400500D01*
X117877725Y-70400500D01*
X117877727Y-70400500D01*
X117979587Y-70373207D01*
X118070913Y-70320480D01*
X118145480Y-70245913D01*
X118198207Y-70154587D01*
X118225500Y-70052727D01*
X118225500Y-69947273D01*
X118198207Y-69845413D01*
X118145480Y-69754087D01*
X118070913Y-69679520D01*
X117979587Y-69626793D01*
X117877727Y-69599500D01*
X117772273Y-69599500D01*
X117670413Y-69626793D01*
X117670410Y-69626794D01*
X117579085Y-69679521D01*
X117504521Y-69754085D01*
X117451794Y-69845410D01*
X117451793Y-69845413D01*
X117424500Y-69947273D01*
X110000000Y-69947273D01*
X110000000Y-68993223D01*
X118674500Y-68993223D01*
X118674500Y-69098677D01*
X118701793Y-69200537D01*
X118754520Y-69291863D01*
X118829087Y-69366430D01*
X118920413Y-69419157D01*
X119022273Y-69446450D01*
X119022275Y-69446450D01*
X119127725Y-69446450D01*
X119127727Y-69446450D01*
X119229587Y-69419157D01*
X119320913Y-69366430D01*
X119395480Y-69291863D01*
X119448207Y-69200537D01*
X119475500Y-69098677D01*
X119475500Y-68993223D01*
X121274500Y-68993223D01*
X121274500Y-69098677D01*
X121301793Y-69200537D01*
X121354520Y-69291863D01*
X121429087Y-69366430D01*
X121520413Y-69419157D01*
X121622273Y-69446450D01*
X121622275Y-69446450D01*
X121727725Y-69446450D01*
X121727727Y-69446450D01*
X121829587Y-69419157D01*
X121920913Y-69366430D01*
X121995480Y-69291863D01*
X122048207Y-69200537D01*
X122075500Y-69098677D01*
X122075500Y-68993223D01*
X122574500Y-68993223D01*
X122574500Y-69098677D01*
X122601793Y-69200537D01*
X122654520Y-69291863D01*
X122729087Y-69366430D01*
X122820413Y-69419157D01*
X122922273Y-69446450D01*
X122922275Y-69446450D01*
X123027725Y-69446450D01*
X123027727Y-69446450D01*
X123129587Y-69419157D01*
X123220913Y-69366430D01*
X123295480Y-69291863D01*
X123348207Y-69200537D01*
X123375500Y-69098677D01*
X123375500Y-68993223D01*
X125174500Y-68993223D01*
X125174500Y-69098677D01*
X125201793Y-69200537D01*
X125254520Y-69291863D01*
X125329087Y-69366430D01*
X125420413Y-69419157D01*
X125522273Y-69446450D01*
X125522275Y-69446450D01*
X125627725Y-69446450D01*
X125627727Y-69446450D01*
X125729587Y-69419157D01*
X125820913Y-69366430D01*
X125895480Y-69291863D01*
X125948207Y-69200537D01*
X125975500Y-69098677D01*
X125975500Y-68993223D01*
X125959660Y-68934108D01*
X126264025Y-68934108D01*
X126264025Y-69065891D01*
X126298133Y-69193187D01*
X126302377Y-69200537D01*
X126364025Y-69307314D01*
X126457211Y-69400500D01*
X126571339Y-69466392D01*
X126698633Y-69500500D01*
X126698635Y-69500500D01*
X126830415Y-69500500D01*
X126830417Y-69500500D01*
X126957711Y-69466392D01*
X127071839Y-69400500D01*
X127165025Y-69307314D01*
X127230917Y-69193186D01*
X127265025Y-69065892D01*
X127265025Y-68934108D01*
X127230917Y-68806814D01*
X127165025Y-68692686D01*
X127071839Y-68599500D01*
X127014775Y-68566554D01*
X126957712Y-68533608D01*
X126894064Y-68516554D01*
X126830417Y-68499500D01*
X126698633Y-68499500D01*
X126571337Y-68533608D01*
X126457211Y-68599500D01*
X126457208Y-68599502D01*
X126364027Y-68692683D01*
X126364025Y-68692686D01*
X126298133Y-68806812D01*
X126264025Y-68934108D01*
X125959660Y-68934108D01*
X125948207Y-68891363D01*
X125895480Y-68800037D01*
X125820913Y-68725470D01*
X125729587Y-68672743D01*
X125627727Y-68645450D01*
X125522273Y-68645450D01*
X125420413Y-68672743D01*
X125420410Y-68672744D01*
X125329085Y-68725471D01*
X125254521Y-68800035D01*
X125201794Y-68891360D01*
X125201794Y-68891361D01*
X125201793Y-68891363D01*
X125174500Y-68993223D01*
X123375500Y-68993223D01*
X123348207Y-68891363D01*
X123295480Y-68800037D01*
X123220913Y-68725470D01*
X123129587Y-68672743D01*
X123027727Y-68645450D01*
X122922273Y-68645450D01*
X122820413Y-68672743D01*
X122820410Y-68672744D01*
X122729085Y-68725471D01*
X122654521Y-68800035D01*
X122601794Y-68891360D01*
X122601794Y-68891361D01*
X122601793Y-68891363D01*
X122574500Y-68993223D01*
X122075500Y-68993223D01*
X122048207Y-68891363D01*
X121995480Y-68800037D01*
X121920913Y-68725470D01*
X121829587Y-68672743D01*
X121727727Y-68645450D01*
X121622273Y-68645450D01*
X121520413Y-68672743D01*
X121520410Y-68672744D01*
X121429085Y-68725471D01*
X121354521Y-68800035D01*
X121301794Y-68891360D01*
X121301794Y-68891361D01*
X121301793Y-68891363D01*
X121274500Y-68993223D01*
X119475500Y-68993223D01*
X119448207Y-68891363D01*
X119395480Y-68800037D01*
X119320913Y-68725470D01*
X119229587Y-68672743D01*
X119127727Y-68645450D01*
X119022273Y-68645450D01*
X118920413Y-68672743D01*
X118920410Y-68672744D01*
X118829085Y-68725471D01*
X118754521Y-68800035D01*
X118701794Y-68891360D01*
X118701794Y-68891361D01*
X118701793Y-68891363D01*
X118674500Y-68993223D01*
X110000000Y-68993223D01*
X110000000Y-66683856D01*
X112649500Y-66683856D01*
X112649500Y-66776144D01*
X112666427Y-66839318D01*
X112673387Y-66865290D01*
X112673388Y-66865293D01*
X112719526Y-66945205D01*
X112719529Y-66945209D01*
X112719531Y-66945212D01*
X112784788Y-67010469D01*
X112784791Y-67010470D01*
X112784794Y-67010473D01*
X112864706Y-67056611D01*
X112864707Y-67056611D01*
X112864712Y-67056614D01*
X112953856Y-67080500D01*
X112953858Y-67080500D01*
X113046142Y-67080500D01*
X113046144Y-67080500D01*
X113135288Y-67056614D01*
X113215212Y-67010469D01*
X113280469Y-66945212D01*
X113286880Y-66934108D01*
X126264025Y-66934108D01*
X126264025Y-67065891D01*
X126298133Y-67193187D01*
X126331079Y-67250250D01*
X126364025Y-67307314D01*
X126457211Y-67400500D01*
X126571339Y-67466392D01*
X126698633Y-67500500D01*
X126698635Y-67500500D01*
X126830415Y-67500500D01*
X126830417Y-67500500D01*
X126957711Y-67466392D01*
X127071839Y-67400500D01*
X127098308Y-67374031D01*
X130002852Y-67374031D01*
X130002852Y-67563004D01*
X130032411Y-67749636D01*
X130090806Y-67929354D01*
X130176592Y-68097717D01*
X130287662Y-68250591D01*
X130421279Y-68384208D01*
X130574153Y-68495278D01*
X130649380Y-68533608D01*
X130742515Y-68581063D01*
X130742517Y-68581063D01*
X130742520Y-68581065D01*
X130799257Y-68599500D01*
X130922233Y-68639458D01*
X131108866Y-68669018D01*
X131108871Y-68669018D01*
X131297838Y-68669018D01*
X131484470Y-68639458D01*
X131664184Y-68581065D01*
X131832551Y-68495278D01*
X131985425Y-68384208D01*
X132119042Y-68250591D01*
X132230112Y-68097717D01*
X132315899Y-67929350D01*
X132374292Y-67749636D01*
X132403852Y-67563004D01*
X132403852Y-67374031D01*
X138202852Y-67374031D01*
X138202852Y-67563004D01*
X138232411Y-67749636D01*
X138290806Y-67929354D01*
X138376592Y-68097717D01*
X138487662Y-68250591D01*
X138621279Y-68384208D01*
X138774153Y-68495278D01*
X138849380Y-68533608D01*
X138942515Y-68581063D01*
X138942517Y-68581063D01*
X138942520Y-68581065D01*
X138999257Y-68599500D01*
X139122233Y-68639458D01*
X139308866Y-68669018D01*
X139308871Y-68669018D01*
X139497838Y-68669018D01*
X139684470Y-68639458D01*
X139864184Y-68581065D01*
X140032551Y-68495278D01*
X140185425Y-68384208D01*
X140319042Y-68250591D01*
X140430112Y-68097717D01*
X140515899Y-67929350D01*
X140574292Y-67749636D01*
X140603852Y-67563004D01*
X140603852Y-67374031D01*
X140574292Y-67187399D01*
X140539558Y-67080500D01*
X140515899Y-67007686D01*
X140515897Y-67007683D01*
X140515897Y-67007681D01*
X140443345Y-66865290D01*
X140430112Y-66839319D01*
X140319042Y-66686445D01*
X140185425Y-66552828D01*
X140032551Y-66441758D01*
X139864188Y-66355972D01*
X139684470Y-66297577D01*
X139497838Y-66268018D01*
X139497833Y-66268018D01*
X139308871Y-66268018D01*
X139308866Y-66268018D01*
X139122233Y-66297577D01*
X138942515Y-66355972D01*
X138774152Y-66441758D01*
X138694678Y-66499500D01*
X138621279Y-66552828D01*
X138621277Y-66552830D01*
X138621276Y-66552830D01*
X138487664Y-66686442D01*
X138487664Y-66686443D01*
X138487662Y-66686445D01*
X138483130Y-66692683D01*
X138376592Y-66839318D01*
X138290806Y-67007681D01*
X138232411Y-67187399D01*
X138202852Y-67374031D01*
X132403852Y-67374031D01*
X132374292Y-67187399D01*
X132339558Y-67080500D01*
X132315899Y-67007686D01*
X132315897Y-67007683D01*
X132315897Y-67007681D01*
X132243345Y-66865290D01*
X132230112Y-66839319D01*
X132119042Y-66686445D01*
X131985425Y-66552828D01*
X131832551Y-66441758D01*
X131664188Y-66355972D01*
X131484470Y-66297577D01*
X131297838Y-66268018D01*
X131297833Y-66268018D01*
X131108871Y-66268018D01*
X131108866Y-66268018D01*
X130922233Y-66297577D01*
X130742515Y-66355972D01*
X130574152Y-66441758D01*
X130494678Y-66499500D01*
X130421279Y-66552828D01*
X130421277Y-66552830D01*
X130421276Y-66552830D01*
X130287664Y-66686442D01*
X130287664Y-66686443D01*
X130287662Y-66686445D01*
X130283130Y-66692683D01*
X130176592Y-66839318D01*
X130090806Y-67007681D01*
X130032411Y-67187399D01*
X130002852Y-67374031D01*
X127098308Y-67374031D01*
X127165025Y-67307314D01*
X127230917Y-67193186D01*
X127265025Y-67065892D01*
X127265025Y-66934108D01*
X127230917Y-66806814D01*
X127165025Y-66692686D01*
X127071839Y-66599500D01*
X127014775Y-66566554D01*
X126957712Y-66533608D01*
X126894064Y-66516554D01*
X126830417Y-66499500D01*
X126698633Y-66499500D01*
X126571337Y-66533608D01*
X126457211Y-66599500D01*
X126457208Y-66599502D01*
X126364027Y-66692683D01*
X126364025Y-66692686D01*
X126298133Y-66806812D01*
X126264025Y-66934108D01*
X113286880Y-66934108D01*
X113326614Y-66865288D01*
X113350500Y-66776144D01*
X113350500Y-66683856D01*
X113326614Y-66594712D01*
X113291335Y-66533608D01*
X113280473Y-66514794D01*
X113280470Y-66514791D01*
X113280469Y-66514788D01*
X113215212Y-66449531D01*
X113215209Y-66449529D01*
X113215205Y-66449526D01*
X113135293Y-66403388D01*
X113135290Y-66403387D01*
X113135289Y-66403386D01*
X113135288Y-66403386D01*
X113046144Y-66379500D01*
X112953856Y-66379500D01*
X112864712Y-66403386D01*
X112864711Y-66403386D01*
X112864709Y-66403387D01*
X112864706Y-66403388D01*
X112784794Y-66449526D01*
X112784785Y-66449533D01*
X112719533Y-66514785D01*
X112719526Y-66514794D01*
X112673388Y-66594706D01*
X112673387Y-66594709D01*
X112673386Y-66594711D01*
X112673386Y-66594712D01*
X112649500Y-66683856D01*
X110000000Y-66683856D01*
X110000000Y-63934108D01*
X126264025Y-63934108D01*
X126264025Y-64065891D01*
X126298133Y-64193187D01*
X126331079Y-64250250D01*
X126364025Y-64307314D01*
X126457211Y-64400500D01*
X126571339Y-64466392D01*
X126698633Y-64500500D01*
X126698635Y-64500500D01*
X126830415Y-64500500D01*
X126830417Y-64500500D01*
X126957711Y-64466392D01*
X127071839Y-64400500D01*
X127165025Y-64307314D01*
X127230917Y-64193186D01*
X127265025Y-64065892D01*
X127265025Y-63934108D01*
X127248928Y-63874031D01*
X130002852Y-63874031D01*
X130002852Y-64063004D01*
X130032411Y-64249636D01*
X130090806Y-64429354D01*
X130176592Y-64597717D01*
X130287662Y-64750591D01*
X130421279Y-64884208D01*
X130574153Y-64995278D01*
X130653699Y-65035808D01*
X130742515Y-65081063D01*
X130742517Y-65081063D01*
X130742520Y-65081065D01*
X130838849Y-65112364D01*
X130922233Y-65139458D01*
X131108866Y-65169018D01*
X131108871Y-65169018D01*
X131297838Y-65169018D01*
X131484470Y-65139458D01*
X131664184Y-65081065D01*
X131832551Y-64995278D01*
X131985425Y-64884208D01*
X132119042Y-64750591D01*
X132230112Y-64597717D01*
X132315899Y-64429350D01*
X132374292Y-64249636D01*
X132383233Y-64193186D01*
X132403852Y-64063004D01*
X132403852Y-63874031D01*
X138202852Y-63874031D01*
X138202852Y-64063004D01*
X138232411Y-64249636D01*
X138290806Y-64429354D01*
X138376592Y-64597717D01*
X138487662Y-64750591D01*
X138621279Y-64884208D01*
X138774153Y-64995278D01*
X138853699Y-65035808D01*
X138942515Y-65081063D01*
X138942517Y-65081063D01*
X138942520Y-65081065D01*
X139038849Y-65112364D01*
X139122233Y-65139458D01*
X139308866Y-65169018D01*
X139308871Y-65169018D01*
X139497838Y-65169018D01*
X139684470Y-65139458D01*
X139864184Y-65081065D01*
X140032551Y-64995278D01*
X140185425Y-64884208D01*
X140319042Y-64750591D01*
X140430112Y-64597717D01*
X140515899Y-64429350D01*
X140574292Y-64249636D01*
X140583233Y-64193186D01*
X140603852Y-64063004D01*
X140603852Y-63874031D01*
X140574292Y-63687399D01*
X140545731Y-63599500D01*
X140515899Y-63507686D01*
X140515897Y-63507683D01*
X140515897Y-63507681D01*
X140461285Y-63400499D01*
X140430112Y-63339319D01*
X140319042Y-63186445D01*
X140185425Y-63052828D01*
X140032551Y-62941758D01*
X139864188Y-62855972D01*
X139684470Y-62797577D01*
X139497838Y-62768018D01*
X139497833Y-62768018D01*
X139308871Y-62768018D01*
X139308866Y-62768018D01*
X139122233Y-62797577D01*
X138942515Y-62855972D01*
X138774152Y-62941758D01*
X138686931Y-63005128D01*
X138621279Y-63052828D01*
X138621277Y-63052830D01*
X138621276Y-63052830D01*
X138487664Y-63186442D01*
X138487664Y-63186443D01*
X138487662Y-63186445D01*
X138444456Y-63245913D01*
X138376592Y-63339318D01*
X138290806Y-63507681D01*
X138232411Y-63687399D01*
X138202852Y-63874031D01*
X132403852Y-63874031D01*
X132374292Y-63687399D01*
X132345731Y-63599500D01*
X132315899Y-63507686D01*
X132315897Y-63507683D01*
X132315897Y-63507681D01*
X132261285Y-63400499D01*
X132230112Y-63339319D01*
X132119042Y-63186445D01*
X131985425Y-63052828D01*
X131832551Y-62941758D01*
X131664188Y-62855972D01*
X131484470Y-62797577D01*
X131297838Y-62768018D01*
X131297833Y-62768018D01*
X131108871Y-62768018D01*
X131108866Y-62768018D01*
X130922233Y-62797577D01*
X130742515Y-62855972D01*
X130574152Y-62941758D01*
X130486931Y-63005128D01*
X130421279Y-63052828D01*
X130421277Y-63052830D01*
X130421276Y-63052830D01*
X130287664Y-63186442D01*
X130287664Y-63186443D01*
X130287662Y-63186445D01*
X130244456Y-63245913D01*
X130176592Y-63339318D01*
X130090806Y-63507681D01*
X130032411Y-63687399D01*
X130002852Y-63874031D01*
X127248928Y-63874031D01*
X127230917Y-63806814D01*
X127165025Y-63692686D01*
X127071839Y-63599500D01*
X127014775Y-63566554D01*
X126957712Y-63533608D01*
X126894064Y-63516554D01*
X126830417Y-63499500D01*
X126698633Y-63499500D01*
X126571337Y-63533608D01*
X126457211Y-63599500D01*
X126457208Y-63599502D01*
X126364027Y-63692683D01*
X126364025Y-63692686D01*
X126298133Y-63806812D01*
X126264025Y-63934108D01*
X110000000Y-63934108D01*
X110000000Y-62947273D01*
X118024500Y-62947273D01*
X118024500Y-63052727D01*
X118051793Y-63154587D01*
X118104520Y-63245913D01*
X118179087Y-63320480D01*
X118270413Y-63373207D01*
X118372273Y-63400500D01*
X118372275Y-63400500D01*
X118477725Y-63400500D01*
X118477727Y-63400500D01*
X118579587Y-63373207D01*
X118670913Y-63320480D01*
X118745480Y-63245913D01*
X118798207Y-63154587D01*
X118825500Y-63052727D01*
X118825500Y-62947273D01*
X118798207Y-62845413D01*
X118745480Y-62754087D01*
X118670913Y-62679520D01*
X118579587Y-62626793D01*
X118477727Y-62599500D01*
X118372273Y-62599500D01*
X118270413Y-62626793D01*
X118270410Y-62626794D01*
X118179085Y-62679521D01*
X118104521Y-62754085D01*
X118051794Y-62845410D01*
X118051793Y-62845413D01*
X118024500Y-62947273D01*
X110000000Y-62947273D01*
X110000000Y-61999806D01*
X118724500Y-61999806D01*
X118724500Y-62092093D01*
X118748387Y-62181240D01*
X118748388Y-62181243D01*
X118794526Y-62261155D01*
X118794529Y-62261159D01*
X118794531Y-62261162D01*
X118859788Y-62326419D01*
X118859791Y-62326420D01*
X118859794Y-62326423D01*
X118939706Y-62372561D01*
X118939707Y-62372561D01*
X118939712Y-62372564D01*
X119028856Y-62396450D01*
X119028858Y-62396450D01*
X119121142Y-62396450D01*
X119121144Y-62396450D01*
X119210288Y-62372564D01*
X119290212Y-62326419D01*
X119355469Y-62261162D01*
X119401614Y-62181238D01*
X119425500Y-62092094D01*
X119425500Y-61999806D01*
X120674500Y-61999806D01*
X120674500Y-62092093D01*
X120698387Y-62181240D01*
X120698388Y-62181243D01*
X120744526Y-62261155D01*
X120744529Y-62261159D01*
X120744531Y-62261162D01*
X120809788Y-62326419D01*
X120809791Y-62326420D01*
X120809794Y-62326423D01*
X120889706Y-62372561D01*
X120889707Y-62372561D01*
X120889712Y-62372564D01*
X120978856Y-62396450D01*
X120978858Y-62396450D01*
X121071142Y-62396450D01*
X121071144Y-62396450D01*
X121160288Y-62372564D01*
X121240212Y-62326419D01*
X121305469Y-62261162D01*
X121351614Y-62181238D01*
X121375500Y-62092094D01*
X121375500Y-61999806D01*
X123924500Y-61999806D01*
X123924500Y-62092093D01*
X123948387Y-62181240D01*
X123948388Y-62181243D01*
X123994526Y-62261155D01*
X123994529Y-62261159D01*
X123994531Y-62261162D01*
X124059788Y-62326419D01*
X124059791Y-62326420D01*
X124059794Y-62326423D01*
X124139706Y-62372561D01*
X124139707Y-62372561D01*
X124139712Y-62372564D01*
X124228856Y-62396450D01*
X124228858Y-62396450D01*
X124321142Y-62396450D01*
X124321144Y-62396450D01*
X124410288Y-62372564D01*
X124490212Y-62326419D01*
X124555469Y-62261162D01*
X124601614Y-62181238D01*
X124625500Y-62092094D01*
X124625500Y-61999806D01*
X124601614Y-61910662D01*
X124601611Y-61910656D01*
X124555473Y-61830744D01*
X124555470Y-61830741D01*
X124555469Y-61830738D01*
X124490212Y-61765481D01*
X124490209Y-61765479D01*
X124490205Y-61765476D01*
X124410293Y-61719338D01*
X124410290Y-61719337D01*
X124410289Y-61719336D01*
X124410288Y-61719336D01*
X124321144Y-61695450D01*
X124228856Y-61695450D01*
X124139712Y-61719336D01*
X124139711Y-61719336D01*
X124139709Y-61719337D01*
X124139706Y-61719338D01*
X124059794Y-61765476D01*
X124059785Y-61765483D01*
X123994533Y-61830735D01*
X123994526Y-61830744D01*
X123948388Y-61910656D01*
X123948387Y-61910659D01*
X123924500Y-61999806D01*
X121375500Y-61999806D01*
X121351614Y-61910662D01*
X121351611Y-61910656D01*
X121305473Y-61830744D01*
X121305470Y-61830741D01*
X121305469Y-61830738D01*
X121240212Y-61765481D01*
X121240209Y-61765479D01*
X121240205Y-61765476D01*
X121160293Y-61719338D01*
X121160290Y-61719337D01*
X121160289Y-61719336D01*
X121160288Y-61719336D01*
X121071144Y-61695450D01*
X120978856Y-61695450D01*
X120889712Y-61719336D01*
X120889711Y-61719336D01*
X120889709Y-61719337D01*
X120889706Y-61719338D01*
X120809794Y-61765476D01*
X120809785Y-61765483D01*
X120744533Y-61830735D01*
X120744526Y-61830744D01*
X120698388Y-61910656D01*
X120698387Y-61910659D01*
X120674500Y-61999806D01*
X119425500Y-61999806D01*
X119401614Y-61910662D01*
X119401611Y-61910656D01*
X119355473Y-61830744D01*
X119355470Y-61830741D01*
X119355469Y-61830738D01*
X119290212Y-61765481D01*
X119290209Y-61765479D01*
X119290205Y-61765476D01*
X119210293Y-61719338D01*
X119210290Y-61719337D01*
X119210289Y-61719336D01*
X119210288Y-61719336D01*
X119121144Y-61695450D01*
X119028856Y-61695450D01*
X118939712Y-61719336D01*
X118939711Y-61719336D01*
X118939709Y-61719337D01*
X118939706Y-61719338D01*
X118859794Y-61765476D01*
X118859785Y-61765483D01*
X118794533Y-61830735D01*
X118794526Y-61830744D01*
X118748388Y-61910656D01*
X118748387Y-61910659D01*
X118724500Y-61999806D01*
X110000000Y-61999806D01*
X110000000Y-60318856D01*
X112649500Y-60318856D01*
X112649500Y-60411144D01*
X112668149Y-60480744D01*
X112673387Y-60500290D01*
X112673388Y-60500293D01*
X112719526Y-60580205D01*
X112719529Y-60580209D01*
X112719531Y-60580212D01*
X112784788Y-60645469D01*
X112784791Y-60645470D01*
X112784794Y-60645473D01*
X112864706Y-60691611D01*
X112864707Y-60691611D01*
X112864712Y-60691614D01*
X112953856Y-60715500D01*
X112953858Y-60715500D01*
X113046142Y-60715500D01*
X113046144Y-60715500D01*
X113135288Y-60691614D01*
X113207700Y-60649806D01*
X121664622Y-60649806D01*
X121664622Y-60742093D01*
X121688509Y-60831240D01*
X121688510Y-60831243D01*
X121734648Y-60911155D01*
X121734651Y-60911159D01*
X121734653Y-60911162D01*
X121799910Y-60976419D01*
X121799913Y-60976420D01*
X121799916Y-60976423D01*
X121879828Y-61022561D01*
X121879829Y-61022561D01*
X121879834Y-61022564D01*
X121968978Y-61046450D01*
X121968980Y-61046450D01*
X122061264Y-61046450D01*
X122061266Y-61046450D01*
X122150410Y-61022564D01*
X122230334Y-60976419D01*
X122295591Y-60911162D01*
X122341736Y-60831238D01*
X122365622Y-60742094D01*
X122365622Y-60649806D01*
X122341736Y-60560662D01*
X122341733Y-60560656D01*
X122295595Y-60480744D01*
X122295592Y-60480741D01*
X122295591Y-60480738D01*
X122230334Y-60415481D01*
X122230331Y-60415479D01*
X122230327Y-60415476D01*
X122150415Y-60369338D01*
X122150412Y-60369337D01*
X122150411Y-60369336D01*
X122150410Y-60369336D01*
X122061266Y-60345450D01*
X121968978Y-60345450D01*
X121879834Y-60369336D01*
X121879833Y-60369336D01*
X121879831Y-60369337D01*
X121879828Y-60369338D01*
X121799916Y-60415476D01*
X121799907Y-60415483D01*
X121734655Y-60480735D01*
X121734648Y-60480744D01*
X121688510Y-60560656D01*
X121688509Y-60560659D01*
X121688508Y-60560661D01*
X121688508Y-60560662D01*
X121683270Y-60580212D01*
X121664622Y-60649806D01*
X113207700Y-60649806D01*
X113215212Y-60645469D01*
X113280469Y-60580212D01*
X113326614Y-60500288D01*
X113350500Y-60411144D01*
X113350500Y-60318856D01*
X113326614Y-60229712D01*
X113326611Y-60229706D01*
X113280473Y-60149794D01*
X113280470Y-60149791D01*
X113280469Y-60149788D01*
X113215212Y-60084531D01*
X113160799Y-60053115D01*
X113135290Y-60038386D01*
X113075858Y-60022462D01*
X113046144Y-60014500D01*
X112953856Y-60014500D01*
X112864712Y-60038386D01*
X112864711Y-60038386D01*
X112864709Y-60038387D01*
X112864706Y-60038388D01*
X112784794Y-60084526D01*
X112784785Y-60084533D01*
X112719533Y-60149785D01*
X112719526Y-60149794D01*
X112673388Y-60229706D01*
X112673387Y-60229709D01*
X112673386Y-60229711D01*
X112673386Y-60229712D01*
X112649500Y-60318856D01*
X110000000Y-60318856D01*
X110000000Y-59953856D01*
X123824500Y-59953856D01*
X123824500Y-60046144D01*
X123834786Y-60084533D01*
X123848387Y-60135290D01*
X123848388Y-60135293D01*
X123894526Y-60215205D01*
X123894529Y-60215209D01*
X123894531Y-60215212D01*
X123959788Y-60280469D01*
X123959791Y-60280470D01*
X123959794Y-60280473D01*
X124039706Y-60326611D01*
X124039707Y-60326611D01*
X124039712Y-60326614D01*
X124128856Y-60350500D01*
X124128858Y-60350500D01*
X124221142Y-60350500D01*
X124221144Y-60350500D01*
X124310288Y-60326614D01*
X124390212Y-60280469D01*
X124455469Y-60215212D01*
X124501614Y-60135288D01*
X124525500Y-60046144D01*
X124525500Y-59953856D01*
X124501614Y-59864712D01*
X124501611Y-59864706D01*
X124455473Y-59784794D01*
X124455470Y-59784791D01*
X124455469Y-59784788D01*
X124390212Y-59719531D01*
X124390209Y-59719529D01*
X124390205Y-59719526D01*
X124310293Y-59673388D01*
X124310290Y-59673387D01*
X124310289Y-59673386D01*
X124310288Y-59673386D01*
X124221144Y-59649500D01*
X124128856Y-59649500D01*
X124039712Y-59673386D01*
X124039711Y-59673386D01*
X124039709Y-59673387D01*
X124039706Y-59673388D01*
X123959794Y-59719526D01*
X123959785Y-59719533D01*
X123894533Y-59784785D01*
X123894526Y-59784794D01*
X123848388Y-59864706D01*
X123848387Y-59864709D01*
X123848386Y-59864711D01*
X123848386Y-59864712D01*
X123824500Y-59953856D01*
X110000000Y-59953856D01*
X110000000Y-58440066D01*
X110019685Y-58373027D01*
X110072489Y-58327272D01*
X110091897Y-58320294D01*
X110162952Y-58301256D01*
X110254278Y-58248529D01*
X110328845Y-58173962D01*
X110381572Y-58082636D01*
X110408865Y-57980776D01*
X110408865Y-57875322D01*
X110397647Y-57833454D01*
X111170942Y-57833454D01*
X111170942Y-57938908D01*
X111198235Y-58040768D01*
X111250962Y-58132094D01*
X111325529Y-58206661D01*
X111416855Y-58259388D01*
X111518715Y-58286681D01*
X111518717Y-58286681D01*
X111624167Y-58286681D01*
X111624169Y-58286681D01*
X111726029Y-58259388D01*
X111817355Y-58206661D01*
X111891922Y-58132094D01*
X111944649Y-58040768D01*
X111971942Y-57938908D01*
X111971942Y-57833454D01*
X111944649Y-57731594D01*
X111891922Y-57640268D01*
X111817355Y-57565701D01*
X111726029Y-57512974D01*
X111624169Y-57485681D01*
X111518715Y-57485681D01*
X111416855Y-57512974D01*
X111416852Y-57512975D01*
X111325527Y-57565702D01*
X111250963Y-57640266D01*
X111198236Y-57731591D01*
X111198235Y-57731594D01*
X111170942Y-57833454D01*
X110397647Y-57833454D01*
X110381572Y-57773462D01*
X110328845Y-57682136D01*
X110254278Y-57607569D01*
X110162952Y-57554842D01*
X110091906Y-57535805D01*
X110032246Y-57499441D01*
X110001717Y-57436594D01*
X110000000Y-57416031D01*
X110000000Y-54592257D01*
X117378706Y-54592257D01*
X117378706Y-54724040D01*
X117412814Y-54851336D01*
X117445760Y-54908399D01*
X117478706Y-54965463D01*
X117571892Y-55058649D01*
X117686020Y-55124541D01*
X117813314Y-55158649D01*
X117813316Y-55158649D01*
X117945096Y-55158649D01*
X117945098Y-55158649D01*
X118072392Y-55124541D01*
X118186520Y-55058649D01*
X118279706Y-54965463D01*
X118345598Y-54851335D01*
X118379706Y-54724041D01*
X118379706Y-54592257D01*
X118345598Y-54464963D01*
X118279706Y-54350835D01*
X118186520Y-54257649D01*
X118129456Y-54224703D01*
X118072393Y-54191757D01*
X118008745Y-54174703D01*
X117945098Y-54157649D01*
X117813314Y-54157649D01*
X117686018Y-54191757D01*
X117571892Y-54257649D01*
X117571889Y-54257651D01*
X117478708Y-54350832D01*
X117478706Y-54350835D01*
X117412814Y-54464961D01*
X117378706Y-54592257D01*
X110000000Y-54592257D01*
X110000000Y-52475656D01*
X136681831Y-52475656D01*
X136681831Y-52718233D01*
X136713492Y-52958730D01*
X136776278Y-53193049D01*
X136869104Y-53417150D01*
X136869107Y-53417157D01*
X136990395Y-53627234D01*
X136990397Y-53627237D01*
X136990398Y-53627238D01*
X137138064Y-53819681D01*
X137138070Y-53819688D01*
X137309587Y-53991205D01*
X137309593Y-53991210D01*
X137502042Y-54138881D01*
X137712119Y-54260169D01*
X137907600Y-54341140D01*
X137931006Y-54350835D01*
X137936231Y-54352999D01*
X138170542Y-54415783D01*
X138350917Y-54439529D01*
X138411042Y-54447445D01*
X138411043Y-54447445D01*
X138653620Y-54447445D01*
X138701719Y-54441112D01*
X138894120Y-54415783D01*
X139128431Y-54352999D01*
X139352543Y-54260169D01*
X139562620Y-54138881D01*
X139755069Y-53991210D01*
X139926596Y-53819683D01*
X140074267Y-53627234D01*
X140195555Y-53417157D01*
X140288385Y-53193045D01*
X140351169Y-52958734D01*
X140382831Y-52718233D01*
X140382831Y-52475657D01*
X140351169Y-52235156D01*
X140288385Y-52000845D01*
X140195555Y-51776733D01*
X140074267Y-51566656D01*
X139926596Y-51374207D01*
X139926591Y-51374201D01*
X139755074Y-51202684D01*
X139755067Y-51202678D01*
X139562624Y-51055012D01*
X139562623Y-51055011D01*
X139562620Y-51055009D01*
X139352543Y-50933721D01*
X139352536Y-50933718D01*
X139128435Y-50840892D01*
X138894116Y-50778106D01*
X138653620Y-50746445D01*
X138653619Y-50746445D01*
X138411043Y-50746445D01*
X138411042Y-50746445D01*
X138170545Y-50778106D01*
X137936226Y-50840892D01*
X137712125Y-50933718D01*
X137712116Y-50933722D01*
X137502037Y-51055012D01*
X137309594Y-51202678D01*
X137309587Y-51202684D01*
X137138070Y-51374201D01*
X137138064Y-51374208D01*
X136990398Y-51566651D01*
X136869108Y-51776730D01*
X136869104Y-51776739D01*
X136776278Y-52000840D01*
X136713492Y-52235159D01*
X136681831Y-52475656D01*
X110000000Y-52475656D01*
X110000000Y-50124000D01*
X110019685Y-50056961D01*
X110072489Y-50011206D01*
X110124000Y-50000000D01*
X140449904Y-50000000D01*
X140516943Y-50019685D01*
G37*
%TD.AperFunction*%
%TD*%
%TA.AperFunction,Conductor*%
%TO.N,GND_ISO*%
G36*
X108942196Y-49770151D02*
G01*
X108988375Y-49822585D01*
X109000000Y-49875004D01*
X109000000Y-107876000D01*
X108980315Y-107943039D01*
X108927511Y-107988794D01*
X108876000Y-108000000D01*
X78550096Y-108000000D01*
X78527584Y-107993389D01*
X78504220Y-107991202D01*
X78487607Y-107981651D01*
X78483057Y-107980315D01*
X78473623Y-107973611D01*
X78348426Y-107875525D01*
X78337218Y-107865595D01*
X78134404Y-107662781D01*
X78124474Y-107651573D01*
X78026389Y-107526376D01*
X78000540Y-107461464D01*
X78000000Y-107449903D01*
X78000000Y-105312177D01*
X78735042Y-105312177D01*
X78735042Y-105554754D01*
X78766703Y-105795251D01*
X78829489Y-106029570D01*
X78888473Y-106171969D01*
X78922318Y-106253678D01*
X79043606Y-106463755D01*
X79043608Y-106463758D01*
X79043609Y-106463759D01*
X79191275Y-106656202D01*
X79191281Y-106656209D01*
X79362798Y-106827726D01*
X79362804Y-106827731D01*
X79555253Y-106975402D01*
X79765330Y-107096690D01*
X79989442Y-107189520D01*
X80223753Y-107252304D01*
X80404128Y-107276050D01*
X80464253Y-107283966D01*
X80464254Y-107283966D01*
X80706831Y-107283966D01*
X80754930Y-107277633D01*
X80947331Y-107252304D01*
X81181642Y-107189520D01*
X81405754Y-107096690D01*
X81615831Y-106975402D01*
X81808280Y-106827731D01*
X81979807Y-106656204D01*
X82127478Y-106463755D01*
X82248766Y-106253678D01*
X82341596Y-106029566D01*
X82404380Y-105795255D01*
X82436042Y-105554754D01*
X82436042Y-105312178D01*
X82404380Y-105071677D01*
X82341596Y-104837366D01*
X82248766Y-104613254D01*
X82127478Y-104403177D01*
X81979807Y-104210728D01*
X81979802Y-104210722D01*
X81808285Y-104039205D01*
X81808278Y-104039199D01*
X81615835Y-103891533D01*
X81615834Y-103891532D01*
X81615831Y-103891530D01*
X81405754Y-103770242D01*
X81405747Y-103770239D01*
X81181646Y-103677413D01*
X80947327Y-103614627D01*
X80706831Y-103582966D01*
X80706830Y-103582966D01*
X80464254Y-103582966D01*
X80464253Y-103582966D01*
X80223756Y-103614627D01*
X79989437Y-103677413D01*
X79765336Y-103770239D01*
X79765327Y-103770243D01*
X79555248Y-103891533D01*
X79362805Y-104039199D01*
X79362798Y-104039205D01*
X79191281Y-104210722D01*
X79191275Y-104210729D01*
X79043609Y-104403172D01*
X78922319Y-104613251D01*
X78922315Y-104613260D01*
X78829489Y-104837361D01*
X78766703Y-105071680D01*
X78735042Y-105312177D01*
X78000000Y-105312177D01*
X78000000Y-103128543D01*
X94989499Y-103128543D01*
X95027947Y-103321829D01*
X95027950Y-103321839D01*
X95103364Y-103503907D01*
X95103371Y-103503920D01*
X95212860Y-103667781D01*
X95212863Y-103667785D01*
X95352214Y-103807136D01*
X95352218Y-103807139D01*
X95516079Y-103916628D01*
X95516092Y-103916635D01*
X95590980Y-103947654D01*
X95698165Y-103992051D01*
X95698169Y-103992051D01*
X95698170Y-103992052D01*
X95891456Y-104030500D01*
X95891459Y-104030500D01*
X96088543Y-104030500D01*
X96218582Y-104004632D01*
X96281835Y-103992051D01*
X96323164Y-103974931D01*
X96389021Y-103947654D01*
X96463907Y-103916635D01*
X96463907Y-103916634D01*
X96463914Y-103916632D01*
X96627782Y-103807139D01*
X96767139Y-103667782D01*
X96876632Y-103503914D01*
X96952051Y-103321835D01*
X96988034Y-103140937D01*
X97020419Y-103079027D01*
X97081134Y-103044453D01*
X97150904Y-103048192D01*
X97207576Y-103089059D01*
X97232124Y-103145731D01*
X97262009Y-103334417D01*
X97325244Y-103529031D01*
X97418141Y-103711350D01*
X97418147Y-103711359D01*
X97450523Y-103755921D01*
X97450524Y-103755922D01*
X98087861Y-103118584D01*
X98110667Y-103203694D01*
X98169910Y-103306306D01*
X98253694Y-103390090D01*
X98356306Y-103449333D01*
X98441414Y-103472137D01*
X97804076Y-104109474D01*
X97848650Y-104141859D01*
X98030968Y-104234755D01*
X98225582Y-104297990D01*
X98427683Y-104330000D01*
X98632317Y-104330000D01*
X98834417Y-104297990D01*
X99029031Y-104234755D01*
X99211349Y-104141859D01*
X99255921Y-104109474D01*
X98618585Y-103472138D01*
X98703694Y-103449333D01*
X98806306Y-103390090D01*
X98890090Y-103306306D01*
X98949333Y-103203694D01*
X98972138Y-103118585D01*
X99609474Y-103755921D01*
X99641859Y-103711349D01*
X99734755Y-103529031D01*
X99797990Y-103334417D01*
X99827875Y-103145731D01*
X99857804Y-103082596D01*
X99917116Y-103045665D01*
X99986978Y-103046663D01*
X100045211Y-103085273D01*
X100071965Y-103140937D01*
X100107947Y-103321829D01*
X100107950Y-103321839D01*
X100183364Y-103503907D01*
X100183371Y-103503920D01*
X100292860Y-103667781D01*
X100292863Y-103667785D01*
X100432214Y-103807136D01*
X100432218Y-103807139D01*
X100596079Y-103916628D01*
X100596092Y-103916635D01*
X100670980Y-103947654D01*
X100778165Y-103992051D01*
X100778169Y-103992051D01*
X100778170Y-103992052D01*
X100971456Y-104030500D01*
X100971459Y-104030500D01*
X101168543Y-104030500D01*
X101298582Y-104004632D01*
X101361835Y-103992051D01*
X101543914Y-103916632D01*
X101707782Y-103807139D01*
X101847139Y-103667782D01*
X101956632Y-103503914D01*
X102032051Y-103321835D01*
X102068034Y-103140938D01*
X102070500Y-103128543D01*
X102609499Y-103128543D01*
X102647947Y-103321829D01*
X102647950Y-103321839D01*
X102723364Y-103503907D01*
X102723371Y-103503920D01*
X102832860Y-103667781D01*
X102832863Y-103667785D01*
X102972214Y-103807136D01*
X102972218Y-103807139D01*
X103136079Y-103916628D01*
X103136092Y-103916635D01*
X103210980Y-103947654D01*
X103318165Y-103992051D01*
X103318169Y-103992051D01*
X103318170Y-103992052D01*
X103511456Y-104030500D01*
X103511459Y-104030500D01*
X103708543Y-104030500D01*
X103838582Y-104004632D01*
X103901835Y-103992051D01*
X103943164Y-103974931D01*
X104009021Y-103947654D01*
X104083907Y-103916635D01*
X104083907Y-103916634D01*
X104083914Y-103916632D01*
X104247782Y-103807139D01*
X104387139Y-103667782D01*
X104496632Y-103503914D01*
X104572051Y-103321835D01*
X104608034Y-103140937D01*
X104640419Y-103079027D01*
X104701134Y-103044453D01*
X104770904Y-103048192D01*
X104827576Y-103089059D01*
X104852124Y-103145731D01*
X104882009Y-103334417D01*
X104945244Y-103529031D01*
X105038141Y-103711350D01*
X105038147Y-103711359D01*
X105070523Y-103755921D01*
X105070524Y-103755922D01*
X105707861Y-103118584D01*
X105730667Y-103203694D01*
X105789910Y-103306306D01*
X105873694Y-103390090D01*
X105976306Y-103449333D01*
X106061414Y-103472137D01*
X105424076Y-104109474D01*
X105468650Y-104141859D01*
X105650968Y-104234755D01*
X105845582Y-104297990D01*
X106047683Y-104330000D01*
X106252317Y-104330000D01*
X106454417Y-104297990D01*
X106649031Y-104234755D01*
X106831349Y-104141859D01*
X106875921Y-104109474D01*
X106238585Y-103472138D01*
X106323694Y-103449333D01*
X106426306Y-103390090D01*
X106510090Y-103306306D01*
X106569333Y-103203694D01*
X106592137Y-103118585D01*
X107229474Y-103755922D01*
X107229474Y-103755921D01*
X107261859Y-103711349D01*
X107354755Y-103529031D01*
X107417990Y-103334417D01*
X107450000Y-103132317D01*
X107450000Y-102927682D01*
X107417990Y-102725582D01*
X107354755Y-102530968D01*
X107261859Y-102348650D01*
X107229474Y-102304077D01*
X107229474Y-102304076D01*
X106592137Y-102941413D01*
X106569333Y-102856306D01*
X106510090Y-102753694D01*
X106426306Y-102669910D01*
X106323694Y-102610667D01*
X106238584Y-102587861D01*
X106875922Y-101950524D01*
X106875921Y-101950523D01*
X106831359Y-101918147D01*
X106831350Y-101918141D01*
X106649031Y-101825244D01*
X106454417Y-101762009D01*
X106252317Y-101730000D01*
X106047683Y-101730000D01*
X105845582Y-101762009D01*
X105650968Y-101825244D01*
X105468644Y-101918143D01*
X105424077Y-101950523D01*
X105424077Y-101950524D01*
X106061415Y-102587861D01*
X105976306Y-102610667D01*
X105873694Y-102669910D01*
X105789910Y-102753694D01*
X105730667Y-102856306D01*
X105707861Y-102941414D01*
X105070524Y-102304077D01*
X105070523Y-102304077D01*
X105038143Y-102348644D01*
X104945244Y-102530968D01*
X104882010Y-102725581D01*
X104852124Y-102914269D01*
X104822194Y-102977403D01*
X104762883Y-103014334D01*
X104693020Y-103013336D01*
X104634788Y-102974726D01*
X104608034Y-102919061D01*
X104572052Y-102738172D01*
X104572052Y-102738170D01*
X104572051Y-102738165D01*
X104566839Y-102725581D01*
X104496635Y-102556092D01*
X104496628Y-102556079D01*
X104387139Y-102392218D01*
X104387136Y-102392214D01*
X104247785Y-102252863D01*
X104247781Y-102252860D01*
X104083920Y-102143371D01*
X104083907Y-102143364D01*
X104009016Y-102112344D01*
X103901839Y-102067950D01*
X103901829Y-102067947D01*
X103708543Y-102029500D01*
X103708541Y-102029500D01*
X103511459Y-102029500D01*
X103511457Y-102029500D01*
X103318170Y-102067947D01*
X103318160Y-102067950D01*
X103136092Y-102143364D01*
X103136079Y-102143371D01*
X102972218Y-102252860D01*
X102972214Y-102252863D01*
X102832863Y-102392214D01*
X102832860Y-102392218D01*
X102723371Y-102556079D01*
X102723364Y-102556092D01*
X102647950Y-102738160D01*
X102647947Y-102738170D01*
X102609500Y-102931456D01*
X102609500Y-102931459D01*
X102609500Y-103128541D01*
X102609500Y-103128543D01*
X102609499Y-103128543D01*
X102070500Y-103128543D01*
X102070500Y-102931456D01*
X102032052Y-102738170D01*
X102032051Y-102738169D01*
X102032051Y-102738165D01*
X102026839Y-102725581D01*
X101956635Y-102556092D01*
X101956628Y-102556079D01*
X101847139Y-102392218D01*
X101847136Y-102392214D01*
X101707785Y-102252863D01*
X101707781Y-102252860D01*
X101543920Y-102143371D01*
X101543907Y-102143364D01*
X101361839Y-102067950D01*
X101361829Y-102067947D01*
X101168543Y-102029500D01*
X101168541Y-102029500D01*
X100971459Y-102029500D01*
X100971457Y-102029500D01*
X100778170Y-102067947D01*
X100778160Y-102067950D01*
X100596092Y-102143364D01*
X100596079Y-102143371D01*
X100432218Y-102252860D01*
X100432214Y-102252863D01*
X100292863Y-102392214D01*
X100292860Y-102392218D01*
X100183371Y-102556079D01*
X100183364Y-102556092D01*
X100107950Y-102738160D01*
X100107947Y-102738170D01*
X100071965Y-102919062D01*
X100039580Y-102980973D01*
X99978864Y-103015547D01*
X99909094Y-103011806D01*
X99852423Y-102970940D01*
X99827875Y-102914268D01*
X99797990Y-102725582D01*
X99734755Y-102530968D01*
X99641859Y-102348650D01*
X99609474Y-102304077D01*
X99609474Y-102304076D01*
X98972137Y-102941413D01*
X98949333Y-102856306D01*
X98890090Y-102753694D01*
X98806306Y-102669910D01*
X98703694Y-102610667D01*
X98618584Y-102587861D01*
X99255922Y-101950524D01*
X99255921Y-101950523D01*
X99211359Y-101918147D01*
X99211350Y-101918141D01*
X99029031Y-101825244D01*
X98834417Y-101762009D01*
X98632317Y-101730000D01*
X98427683Y-101730000D01*
X98225582Y-101762009D01*
X98030968Y-101825244D01*
X97848644Y-101918143D01*
X97804077Y-101950523D01*
X97804077Y-101950524D01*
X98441415Y-102587861D01*
X98356306Y-102610667D01*
X98253694Y-102669910D01*
X98169910Y-102753694D01*
X98110667Y-102856306D01*
X98087861Y-102941414D01*
X97450524Y-102304077D01*
X97450523Y-102304077D01*
X97418143Y-102348644D01*
X97325244Y-102530968D01*
X97262010Y-102725581D01*
X97232124Y-102914269D01*
X97202194Y-102977403D01*
X97142883Y-103014334D01*
X97073020Y-103013336D01*
X97014788Y-102974726D01*
X96988034Y-102919061D01*
X96952052Y-102738172D01*
X96952052Y-102738170D01*
X96952051Y-102738165D01*
X96946839Y-102725581D01*
X96876635Y-102556092D01*
X96876628Y-102556079D01*
X96767139Y-102392218D01*
X96767136Y-102392214D01*
X96627785Y-102252863D01*
X96627781Y-102252860D01*
X96463920Y-102143371D01*
X96463907Y-102143364D01*
X96389016Y-102112344D01*
X96281839Y-102067950D01*
X96281829Y-102067947D01*
X96088543Y-102029500D01*
X96088541Y-102029500D01*
X95891459Y-102029500D01*
X95891457Y-102029500D01*
X95698170Y-102067947D01*
X95698160Y-102067950D01*
X95516092Y-102143364D01*
X95516079Y-102143371D01*
X95352218Y-102252860D01*
X95352214Y-102252863D01*
X95212863Y-102392214D01*
X95212860Y-102392218D01*
X95103371Y-102556079D01*
X95103364Y-102556092D01*
X95027950Y-102738160D01*
X95027947Y-102738170D01*
X94989500Y-102931456D01*
X94989500Y-102931459D01*
X94989500Y-103128541D01*
X94989500Y-103128543D01*
X94989499Y-103128543D01*
X78000000Y-103128543D01*
X78000000Y-98834270D01*
X78574203Y-98834270D01*
X79359938Y-98834270D01*
X79309492Y-98884716D01*
X79266705Y-98958825D01*
X79244556Y-99041483D01*
X79244556Y-99127057D01*
X79266705Y-99209715D01*
X79309492Y-99283824D01*
X79359938Y-99334270D01*
X78574203Y-99334270D01*
X78583943Y-99383244D01*
X78583946Y-99383253D01*
X78661208Y-99569783D01*
X78661215Y-99569796D01*
X78773385Y-99737669D01*
X78773388Y-99737673D01*
X78916152Y-99880437D01*
X78916156Y-99880440D01*
X79084029Y-99992610D01*
X79084042Y-99992617D01*
X79270572Y-100069879D01*
X79270581Y-100069882D01*
X79468597Y-100109269D01*
X79468601Y-100109270D01*
X79719556Y-100109270D01*
X79719556Y-99409270D01*
X80219556Y-99409270D01*
X80219556Y-100109270D01*
X80470511Y-100109270D01*
X80470514Y-100109269D01*
X80668530Y-100069882D01*
X80668539Y-100069879D01*
X80855069Y-99992617D01*
X80855082Y-99992610D01*
X81022955Y-99880440D01*
X81022959Y-99880437D01*
X81165723Y-99737673D01*
X81165726Y-99737669D01*
X81277896Y-99569796D01*
X81277903Y-99569783D01*
X81355165Y-99383253D01*
X81355168Y-99383244D01*
X81364909Y-99334270D01*
X80579174Y-99334270D01*
X80629620Y-99283824D01*
X80672407Y-99209715D01*
X80694556Y-99127057D01*
X80694556Y-99041483D01*
X80672407Y-98958825D01*
X80629620Y-98884716D01*
X80579174Y-98834270D01*
X81364909Y-98834270D01*
X82574203Y-98834270D01*
X83359938Y-98834270D01*
X83309492Y-98884716D01*
X83266705Y-98958825D01*
X83244556Y-99041483D01*
X83244556Y-99127057D01*
X83266705Y-99209715D01*
X83309492Y-99283824D01*
X83359938Y-99334270D01*
X82574203Y-99334270D01*
X82583943Y-99383244D01*
X82583946Y-99383253D01*
X82661208Y-99569783D01*
X82661215Y-99569796D01*
X82773385Y-99737669D01*
X82773388Y-99737673D01*
X82916152Y-99880437D01*
X82916156Y-99880440D01*
X83084029Y-99992610D01*
X83084042Y-99992617D01*
X83270572Y-100069879D01*
X83270581Y-100069882D01*
X83468597Y-100109269D01*
X83468601Y-100109270D01*
X83869556Y-100109270D01*
X83869556Y-99409270D01*
X84369556Y-99409270D01*
X84369556Y-100109270D01*
X84770511Y-100109270D01*
X84770514Y-100109269D01*
X84968530Y-100069882D01*
X84968539Y-100069879D01*
X85155069Y-99992617D01*
X85155082Y-99992610D01*
X85322955Y-99880440D01*
X85322959Y-99880437D01*
X85465723Y-99737673D01*
X85465726Y-99737669D01*
X85577896Y-99569796D01*
X85577903Y-99569783D01*
X85655165Y-99383253D01*
X85655168Y-99383244D01*
X85664909Y-99334270D01*
X84879174Y-99334270D01*
X84929620Y-99283824D01*
X84972407Y-99209715D01*
X84994556Y-99127057D01*
X84994556Y-99041483D01*
X84972407Y-98958825D01*
X84929620Y-98884716D01*
X84879174Y-98834270D01*
X85664909Y-98834270D01*
X85655168Y-98785295D01*
X85655165Y-98785286D01*
X85577903Y-98598756D01*
X85577896Y-98598743D01*
X85465726Y-98430870D01*
X85465723Y-98430866D01*
X85322959Y-98288102D01*
X85322955Y-98288099D01*
X85155082Y-98175929D01*
X85155069Y-98175922D01*
X84968539Y-98098660D01*
X84968530Y-98098657D01*
X84770514Y-98059270D01*
X84292964Y-98059270D01*
X84225925Y-98039585D01*
X84180170Y-97986781D01*
X84170226Y-97917623D01*
X84178400Y-97887823D01*
X84179128Y-97886062D01*
X84179133Y-97886054D01*
X84220056Y-97733327D01*
X84220056Y-97575213D01*
X84179133Y-97422486D01*
X84179129Y-97422479D01*
X84100080Y-97285560D01*
X84100074Y-97285552D01*
X83988273Y-97173751D01*
X83988265Y-97173745D01*
X83851346Y-97094696D01*
X83851342Y-97094694D01*
X83851340Y-97094693D01*
X83698613Y-97053770D01*
X83540499Y-97053770D01*
X83387772Y-97094693D01*
X83387765Y-97094696D01*
X83250846Y-97173745D01*
X83250838Y-97173751D01*
X83139037Y-97285552D01*
X83139031Y-97285560D01*
X83059982Y-97422479D01*
X83059979Y-97422486D01*
X83019056Y-97575213D01*
X83019056Y-97733326D01*
X83059979Y-97886053D01*
X83059979Y-97886054D01*
X83129479Y-98006434D01*
X83145950Y-98074334D01*
X83123098Y-98140361D01*
X83088146Y-98171112D01*
X83089101Y-98172541D01*
X82916156Y-98288099D01*
X82916152Y-98288102D01*
X82773388Y-98430866D01*
X82773385Y-98430870D01*
X82661215Y-98598743D01*
X82661208Y-98598756D01*
X82583946Y-98785286D01*
X82583943Y-98785295D01*
X82574203Y-98834270D01*
X81364909Y-98834270D01*
X81355168Y-98785295D01*
X81355165Y-98785286D01*
X81277903Y-98598756D01*
X81277896Y-98598743D01*
X81165726Y-98430870D01*
X81165723Y-98430866D01*
X81022959Y-98288102D01*
X81022955Y-98288099D01*
X80855082Y-98175929D01*
X80855069Y-98175922D01*
X80668539Y-98098660D01*
X80668530Y-98098657D01*
X80470514Y-98059270D01*
X80219556Y-98059270D01*
X80219556Y-98759270D01*
X79719556Y-98759270D01*
X79719556Y-98059270D01*
X79468597Y-98059270D01*
X79270581Y-98098657D01*
X79270572Y-98098660D01*
X79084042Y-98175922D01*
X79084029Y-98175929D01*
X78916156Y-98288099D01*
X78916152Y-98288102D01*
X78773388Y-98430866D01*
X78773385Y-98430870D01*
X78661215Y-98598743D01*
X78661208Y-98598756D01*
X78583946Y-98785286D01*
X78583943Y-98785295D01*
X78574203Y-98834270D01*
X78000000Y-98834270D01*
X78000000Y-94897273D01*
X89662000Y-94897273D01*
X89662000Y-95002727D01*
X89689293Y-95104587D01*
X89742020Y-95195913D01*
X89816587Y-95270480D01*
X89907913Y-95323207D01*
X90009773Y-95350500D01*
X90009775Y-95350500D01*
X90115225Y-95350500D01*
X90115227Y-95350500D01*
X90217087Y-95323207D01*
X90308413Y-95270480D01*
X90382980Y-95195913D01*
X90435707Y-95104587D01*
X90463000Y-95002727D01*
X90463000Y-94897273D01*
X90435707Y-94795413D01*
X90382980Y-94704087D01*
X90308413Y-94629520D01*
X90217087Y-94576793D01*
X90115227Y-94549500D01*
X90009773Y-94549500D01*
X89907913Y-94576793D01*
X89907910Y-94576794D01*
X89816585Y-94629521D01*
X89742021Y-94704085D01*
X89689294Y-94795410D01*
X89689293Y-94795413D01*
X89662000Y-94897273D01*
X78000000Y-94897273D01*
X78000000Y-92968543D01*
X94989499Y-92968543D01*
X95027947Y-93161829D01*
X95027950Y-93161839D01*
X95103364Y-93343907D01*
X95103371Y-93343920D01*
X95212860Y-93507781D01*
X95212863Y-93507785D01*
X95352214Y-93647136D01*
X95352218Y-93647139D01*
X95516079Y-93756628D01*
X95516092Y-93756635D01*
X95698160Y-93832049D01*
X95698165Y-93832051D01*
X95698169Y-93832051D01*
X95698170Y-93832052D01*
X95891456Y-93870500D01*
X95891459Y-93870500D01*
X96088543Y-93870500D01*
X96218582Y-93844632D01*
X96281835Y-93832051D01*
X96463914Y-93756632D01*
X96627782Y-93647139D01*
X96767139Y-93507782D01*
X96876632Y-93343914D01*
X96952051Y-93161835D01*
X96990500Y-92968543D01*
X97529499Y-92968543D01*
X97567947Y-93161829D01*
X97567950Y-93161839D01*
X97643364Y-93343907D01*
X97643371Y-93343920D01*
X97752860Y-93507781D01*
X97752863Y-93507785D01*
X97892214Y-93647136D01*
X97892218Y-93647139D01*
X98056079Y-93756628D01*
X98056092Y-93756635D01*
X98238160Y-93832049D01*
X98238165Y-93832051D01*
X98238169Y-93832051D01*
X98238170Y-93832052D01*
X98431456Y-93870500D01*
X98431459Y-93870500D01*
X98628543Y-93870500D01*
X98758582Y-93844632D01*
X98821835Y-93832051D01*
X99003914Y-93756632D01*
X99167782Y-93647139D01*
X99307139Y-93507782D01*
X99416632Y-93343914D01*
X99492051Y-93161835D01*
X99530500Y-92968541D01*
X99530500Y-92771459D01*
X99530500Y-92771456D01*
X99492052Y-92578170D01*
X99492051Y-92578169D01*
X99492051Y-92578165D01*
X99449224Y-92474770D01*
X99416635Y-92396092D01*
X99416628Y-92396079D01*
X99307139Y-92232218D01*
X99307136Y-92232214D01*
X99167785Y-92092863D01*
X99167781Y-92092860D01*
X99003920Y-91983371D01*
X99003907Y-91983364D01*
X98821839Y-91907950D01*
X98821829Y-91907947D01*
X98628543Y-91869500D01*
X98628541Y-91869500D01*
X98431459Y-91869500D01*
X98431457Y-91869500D01*
X98238170Y-91907947D01*
X98238160Y-91907950D01*
X98056092Y-91983364D01*
X98056079Y-91983371D01*
X97892218Y-92092860D01*
X97892214Y-92092863D01*
X97752863Y-92232214D01*
X97752860Y-92232218D01*
X97643371Y-92396079D01*
X97643364Y-92396092D01*
X97567950Y-92578160D01*
X97567947Y-92578170D01*
X97529500Y-92771456D01*
X97529500Y-92771459D01*
X97529500Y-92968541D01*
X97529500Y-92968543D01*
X97529499Y-92968543D01*
X96990500Y-92968543D01*
X96990500Y-92968541D01*
X96990500Y-92771459D01*
X96990500Y-92771456D01*
X96952052Y-92578170D01*
X96952051Y-92578169D01*
X96952051Y-92578165D01*
X96909224Y-92474770D01*
X96876635Y-92396092D01*
X96876628Y-92396079D01*
X96767139Y-92232218D01*
X96767136Y-92232214D01*
X96627785Y-92092863D01*
X96627781Y-92092860D01*
X96463920Y-91983371D01*
X96463907Y-91983364D01*
X96281839Y-91907950D01*
X96281829Y-91907947D01*
X96088543Y-91869500D01*
X96088541Y-91869500D01*
X95891459Y-91869500D01*
X95891457Y-91869500D01*
X95698170Y-91907947D01*
X95698160Y-91907950D01*
X95516092Y-91983364D01*
X95516079Y-91983371D01*
X95352218Y-92092860D01*
X95352214Y-92092863D01*
X95212863Y-92232214D01*
X95212860Y-92232218D01*
X95103371Y-92396079D01*
X95103364Y-92396092D01*
X95027950Y-92578160D01*
X95027947Y-92578170D01*
X94989500Y-92771456D01*
X94989500Y-92771459D01*
X94989500Y-92968541D01*
X94989500Y-92968543D01*
X94989499Y-92968543D01*
X78000000Y-92968543D01*
X78000000Y-90194270D01*
X78574203Y-90194270D01*
X79359938Y-90194270D01*
X79309492Y-90244716D01*
X79266705Y-90318825D01*
X79244556Y-90401483D01*
X79244556Y-90487057D01*
X79266705Y-90569715D01*
X79309492Y-90643824D01*
X79359938Y-90694270D01*
X78574203Y-90694270D01*
X78583943Y-90743244D01*
X78583946Y-90743253D01*
X78661208Y-90929783D01*
X78661215Y-90929796D01*
X78773385Y-91097669D01*
X78773388Y-91097673D01*
X78916152Y-91240437D01*
X78916156Y-91240440D01*
X79084029Y-91352610D01*
X79084042Y-91352617D01*
X79270572Y-91429879D01*
X79270581Y-91429882D01*
X79468597Y-91469269D01*
X79468601Y-91469270D01*
X79719556Y-91469270D01*
X79719556Y-90769270D01*
X80219556Y-90769270D01*
X80219556Y-91469270D01*
X80470511Y-91469270D01*
X80470514Y-91469269D01*
X80668530Y-91429882D01*
X80668539Y-91429879D01*
X80855069Y-91352617D01*
X80855082Y-91352610D01*
X81022955Y-91240440D01*
X81022959Y-91240437D01*
X81165723Y-91097673D01*
X81165726Y-91097669D01*
X81277896Y-90929796D01*
X81277903Y-90929783D01*
X81355165Y-90743253D01*
X81355168Y-90743244D01*
X81364909Y-90694270D01*
X80579174Y-90694270D01*
X80629620Y-90643824D01*
X80672407Y-90569715D01*
X80694556Y-90487057D01*
X80694556Y-90401483D01*
X80672407Y-90318825D01*
X80629620Y-90244716D01*
X80579174Y-90194270D01*
X81364909Y-90194270D01*
X82574203Y-90194270D01*
X83359938Y-90194270D01*
X83309492Y-90244716D01*
X83266705Y-90318825D01*
X83244556Y-90401483D01*
X83244556Y-90487057D01*
X83266705Y-90569715D01*
X83309492Y-90643824D01*
X83359938Y-90694270D01*
X82574203Y-90694270D01*
X82583943Y-90743244D01*
X82583946Y-90743253D01*
X82661208Y-90929783D01*
X82661215Y-90929796D01*
X82773385Y-91097669D01*
X82773388Y-91097673D01*
X82916155Y-91240440D01*
X83089102Y-91355999D01*
X83087826Y-91357907D01*
X83130379Y-91399692D01*
X83145851Y-91467827D01*
X83129480Y-91522105D01*
X83059979Y-91642485D01*
X83059979Y-91642486D01*
X83019056Y-91795213D01*
X83019056Y-91953327D01*
X83056445Y-92092863D01*
X83059979Y-92106053D01*
X83059982Y-92106060D01*
X83139031Y-92242979D01*
X83139035Y-92242984D01*
X83139036Y-92242986D01*
X83250840Y-92354790D01*
X83250842Y-92354791D01*
X83250846Y-92354794D01*
X83387765Y-92433843D01*
X83387772Y-92433847D01*
X83540499Y-92474770D01*
X83540501Y-92474770D01*
X83698611Y-92474770D01*
X83698613Y-92474770D01*
X83851340Y-92433847D01*
X83988272Y-92354790D01*
X84100076Y-92242986D01*
X84179133Y-92106054D01*
X84220056Y-91953327D01*
X84220056Y-91795213D01*
X84179133Y-91642486D01*
X84179129Y-91642479D01*
X84178400Y-91640717D01*
X84178226Y-91639105D01*
X84177029Y-91634635D01*
X84177726Y-91634448D01*
X84170935Y-91571247D01*
X84202214Y-91508769D01*
X84262304Y-91473120D01*
X84292964Y-91469270D01*
X84770511Y-91469270D01*
X84770514Y-91469269D01*
X84968530Y-91429882D01*
X84968539Y-91429879D01*
X85155069Y-91352617D01*
X85155082Y-91352610D01*
X85322955Y-91240440D01*
X85322959Y-91240437D01*
X85465723Y-91097673D01*
X85465726Y-91097669D01*
X85577896Y-90929796D01*
X85577903Y-90929783D01*
X85655165Y-90743253D01*
X85655168Y-90743244D01*
X85664909Y-90694270D01*
X84879174Y-90694270D01*
X84929620Y-90643824D01*
X84972407Y-90569715D01*
X84994556Y-90487057D01*
X84994556Y-90401483D01*
X84972407Y-90318825D01*
X84929620Y-90244716D01*
X84879174Y-90194270D01*
X85664909Y-90194270D01*
X85655168Y-90145295D01*
X85655165Y-90145286D01*
X85577903Y-89958756D01*
X85577896Y-89958743D01*
X85465726Y-89790870D01*
X85465723Y-89790866D01*
X85322959Y-89648102D01*
X85322955Y-89648099D01*
X85155082Y-89535929D01*
X85155069Y-89535922D01*
X84968539Y-89458660D01*
X84968530Y-89458657D01*
X84770514Y-89419270D01*
X84369556Y-89419270D01*
X84369556Y-90119270D01*
X83869556Y-90119270D01*
X83869556Y-89419270D01*
X83468597Y-89419270D01*
X83270581Y-89458657D01*
X83270572Y-89458660D01*
X83084042Y-89535922D01*
X83084029Y-89535929D01*
X82916156Y-89648099D01*
X82916152Y-89648102D01*
X82773388Y-89790866D01*
X82773385Y-89790870D01*
X82661215Y-89958743D01*
X82661208Y-89958756D01*
X82583946Y-90145286D01*
X82583943Y-90145295D01*
X82574203Y-90194270D01*
X81364909Y-90194270D01*
X81355168Y-90145295D01*
X81355165Y-90145286D01*
X81277903Y-89958756D01*
X81277896Y-89958743D01*
X81165726Y-89790870D01*
X81165723Y-89790866D01*
X81022959Y-89648102D01*
X81022955Y-89648099D01*
X80855082Y-89535929D01*
X80855069Y-89535922D01*
X80668539Y-89458660D01*
X80668530Y-89458657D01*
X80470514Y-89419270D01*
X80219556Y-89419270D01*
X80219556Y-90119270D01*
X79719556Y-90119270D01*
X79719556Y-89419270D01*
X79468597Y-89419270D01*
X79270581Y-89458657D01*
X79270572Y-89458660D01*
X79084042Y-89535922D01*
X79084029Y-89535929D01*
X78916156Y-89648099D01*
X78916152Y-89648102D01*
X78773388Y-89790866D01*
X78773385Y-89790870D01*
X78661215Y-89958743D01*
X78661208Y-89958756D01*
X78583946Y-90145286D01*
X78583943Y-90145295D01*
X78574203Y-90194270D01*
X78000000Y-90194270D01*
X78000000Y-86881579D01*
X93288306Y-86881579D01*
X93288306Y-86987033D01*
X93315599Y-87088893D01*
X93368326Y-87180219D01*
X93442893Y-87254786D01*
X93534219Y-87307513D01*
X93636079Y-87334806D01*
X93636081Y-87334806D01*
X93741531Y-87334806D01*
X93741533Y-87334806D01*
X93843393Y-87307513D01*
X93934719Y-87254786D01*
X94009286Y-87180219D01*
X94062013Y-87088893D01*
X94089306Y-86987033D01*
X94089306Y-86881579D01*
X94062013Y-86779719D01*
X94009286Y-86688393D01*
X93934719Y-86613826D01*
X93843393Y-86561099D01*
X93741533Y-86533806D01*
X93636079Y-86533806D01*
X93534219Y-86561099D01*
X93534216Y-86561100D01*
X93442891Y-86613827D01*
X93368327Y-86688391D01*
X93315600Y-86779716D01*
X93315599Y-86779719D01*
X93288306Y-86881579D01*
X78000000Y-86881579D01*
X78000000Y-86480691D01*
X106074500Y-86480691D01*
X106074500Y-86599309D01*
X106105201Y-86713886D01*
X106164511Y-86816613D01*
X106248387Y-86900489D01*
X106351114Y-86959799D01*
X106465691Y-86990500D01*
X106465694Y-86990500D01*
X106584306Y-86990500D01*
X106584309Y-86990500D01*
X106698886Y-86959799D01*
X106801613Y-86900489D01*
X106885489Y-86816613D01*
X106944799Y-86713886D01*
X106975500Y-86599309D01*
X106975500Y-86480691D01*
X106944799Y-86366114D01*
X106885489Y-86263387D01*
X106801613Y-86179511D01*
X106698886Y-86120201D01*
X106584309Y-86089500D01*
X106465691Y-86089500D01*
X106351114Y-86120201D01*
X106351112Y-86120201D01*
X106351112Y-86120202D01*
X106248387Y-86179511D01*
X106248384Y-86179513D01*
X106164513Y-86263384D01*
X106164511Y-86263387D01*
X106105201Y-86366114D01*
X106074500Y-86480691D01*
X78000000Y-86480691D01*
X78000000Y-83947273D01*
X90374500Y-83947273D01*
X90374500Y-84052727D01*
X90401793Y-84154587D01*
X90454520Y-84245913D01*
X90529087Y-84320480D01*
X90620413Y-84373207D01*
X90722273Y-84400500D01*
X90722275Y-84400500D01*
X90827725Y-84400500D01*
X90827727Y-84400500D01*
X90929587Y-84373207D01*
X91020913Y-84320480D01*
X91095480Y-84245913D01*
X91148207Y-84154587D01*
X91175500Y-84052727D01*
X91175500Y-83947273D01*
X91173736Y-83940691D01*
X106074500Y-83940691D01*
X106074500Y-84059309D01*
X106105201Y-84173886D01*
X106164511Y-84276613D01*
X106248387Y-84360489D01*
X106351114Y-84419799D01*
X106465691Y-84450500D01*
X106465694Y-84450500D01*
X106584306Y-84450500D01*
X106584309Y-84450500D01*
X106698886Y-84419799D01*
X106801613Y-84360489D01*
X106885489Y-84276613D01*
X106944799Y-84173886D01*
X106975500Y-84059309D01*
X106975500Y-83940691D01*
X106944799Y-83826114D01*
X106885489Y-83723387D01*
X106801613Y-83639511D01*
X106698886Y-83580201D01*
X106584309Y-83549500D01*
X106465691Y-83549500D01*
X106351114Y-83580201D01*
X106351112Y-83580201D01*
X106351112Y-83580202D01*
X106248387Y-83639511D01*
X106248384Y-83639513D01*
X106164513Y-83723384D01*
X106164511Y-83723387D01*
X106105201Y-83826114D01*
X106074500Y-83940691D01*
X91173736Y-83940691D01*
X91148207Y-83845413D01*
X91095480Y-83754087D01*
X91020913Y-83679520D01*
X90929587Y-83626793D01*
X90827727Y-83599500D01*
X90722273Y-83599500D01*
X90620413Y-83626793D01*
X90620410Y-83626794D01*
X90529085Y-83679521D01*
X90454521Y-83754085D01*
X90401794Y-83845410D01*
X90401793Y-83845413D01*
X90374500Y-83947273D01*
X78000000Y-83947273D01*
X78000000Y-81072273D01*
X90549500Y-81072273D01*
X90549500Y-81177727D01*
X90576793Y-81279587D01*
X90629520Y-81370913D01*
X90704087Y-81445480D01*
X90795413Y-81498207D01*
X90897273Y-81525500D01*
X90897275Y-81525500D01*
X91002725Y-81525500D01*
X91002727Y-81525500D01*
X91104587Y-81498207D01*
X91195913Y-81445480D01*
X91270480Y-81370913D01*
X91323207Y-81279587D01*
X91350500Y-81177727D01*
X91350500Y-81072273D01*
X91323207Y-80970413D01*
X91270480Y-80879087D01*
X91195913Y-80804520D01*
X91104587Y-80751793D01*
X91002727Y-80724500D01*
X90897273Y-80724500D01*
X90795413Y-80751793D01*
X90795410Y-80751794D01*
X90704085Y-80804521D01*
X90629521Y-80879085D01*
X90576794Y-80970410D01*
X90576793Y-80970413D01*
X90549500Y-81072273D01*
X78000000Y-81072273D01*
X78000000Y-79700060D01*
X96433663Y-79700060D01*
X96433663Y-79805514D01*
X96460956Y-79907374D01*
X96513683Y-79998700D01*
X96588250Y-80073267D01*
X96679576Y-80125994D01*
X96781436Y-80153287D01*
X96781438Y-80153287D01*
X96886888Y-80153287D01*
X96886890Y-80153287D01*
X96988750Y-80125994D01*
X97080076Y-80073267D01*
X97154643Y-79998700D01*
X97207370Y-79907374D01*
X97234663Y-79805514D01*
X97234663Y-79700060D01*
X97207370Y-79598200D01*
X97154643Y-79506874D01*
X97080076Y-79432307D01*
X96988750Y-79379580D01*
X96886890Y-79352287D01*
X96781436Y-79352287D01*
X96679576Y-79379580D01*
X96679573Y-79379581D01*
X96588248Y-79432308D01*
X96513684Y-79506872D01*
X96460957Y-79598197D01*
X96460956Y-79598200D01*
X96433663Y-79700060D01*
X78000000Y-79700060D01*
X78000000Y-77947273D01*
X90549500Y-77947273D01*
X90549500Y-78052727D01*
X90576793Y-78154587D01*
X90629520Y-78245913D01*
X90704087Y-78320480D01*
X90795413Y-78373207D01*
X90897273Y-78400500D01*
X90897275Y-78400500D01*
X91002725Y-78400500D01*
X91002727Y-78400500D01*
X91104587Y-78373207D01*
X91195913Y-78320480D01*
X91270480Y-78245913D01*
X91323207Y-78154587D01*
X91350500Y-78052727D01*
X91350500Y-77947273D01*
X91348218Y-77938757D01*
X95779999Y-77938757D01*
X95779999Y-78044211D01*
X95807292Y-78146071D01*
X95860019Y-78237397D01*
X95934586Y-78311964D01*
X96025912Y-78364691D01*
X96127772Y-78391984D01*
X96127774Y-78391984D01*
X96233224Y-78391984D01*
X96233226Y-78391984D01*
X96335086Y-78364691D01*
X96426412Y-78311964D01*
X96500979Y-78237397D01*
X96553706Y-78146071D01*
X96580999Y-78044211D01*
X96580999Y-77938757D01*
X96553706Y-77836897D01*
X96500979Y-77745571D01*
X96426412Y-77671004D01*
X96335086Y-77618277D01*
X96233226Y-77590984D01*
X96127772Y-77590984D01*
X96025912Y-77618277D01*
X96025909Y-77618278D01*
X95934584Y-77671005D01*
X95860020Y-77745569D01*
X95807293Y-77836894D01*
X95807292Y-77836897D01*
X95779999Y-77938757D01*
X91348218Y-77938757D01*
X91323207Y-77845413D01*
X91270480Y-77754087D01*
X91195913Y-77679520D01*
X91104587Y-77626793D01*
X91002727Y-77599500D01*
X90897273Y-77599500D01*
X90795413Y-77626793D01*
X90795410Y-77626794D01*
X90704085Y-77679521D01*
X90629521Y-77754085D01*
X90576794Y-77845410D01*
X90576793Y-77845413D01*
X90549500Y-77947273D01*
X78000000Y-77947273D01*
X78000000Y-77423985D01*
X84256051Y-77423985D01*
X84256051Y-77529439D01*
X84283344Y-77631299D01*
X84336071Y-77722625D01*
X84410638Y-77797192D01*
X84501964Y-77849919D01*
X84603824Y-77877212D01*
X84603826Y-77877212D01*
X84709276Y-77877212D01*
X84709278Y-77877212D01*
X84811138Y-77849919D01*
X84902464Y-77797192D01*
X84977031Y-77722625D01*
X85029758Y-77631299D01*
X85057051Y-77529439D01*
X85057051Y-77423985D01*
X85039044Y-77356780D01*
X103111282Y-77356780D01*
X103111282Y-77462234D01*
X103138575Y-77564094D01*
X103191302Y-77655420D01*
X103265869Y-77729987D01*
X103357195Y-77782714D01*
X103459055Y-77810007D01*
X103459057Y-77810007D01*
X103564507Y-77810007D01*
X103564509Y-77810007D01*
X103666369Y-77782714D01*
X103757695Y-77729987D01*
X103832262Y-77655420D01*
X103884989Y-77564094D01*
X103912282Y-77462234D01*
X103912282Y-77356780D01*
X104761282Y-77356780D01*
X104761282Y-77462234D01*
X104788575Y-77564094D01*
X104841302Y-77655420D01*
X104915869Y-77729987D01*
X105007195Y-77782714D01*
X105109055Y-77810007D01*
X105109057Y-77810007D01*
X105214507Y-77810007D01*
X105214509Y-77810007D01*
X105316369Y-77782714D01*
X105407695Y-77729987D01*
X105482262Y-77655420D01*
X105534989Y-77564094D01*
X105562282Y-77462234D01*
X105562282Y-77356780D01*
X105534989Y-77254920D01*
X105482262Y-77163594D01*
X105407695Y-77089027D01*
X105316369Y-77036300D01*
X105214509Y-77009007D01*
X105109055Y-77009007D01*
X105007195Y-77036300D01*
X105007192Y-77036301D01*
X104915867Y-77089028D01*
X104841303Y-77163592D01*
X104788576Y-77254917D01*
X104788575Y-77254920D01*
X104761282Y-77356780D01*
X103912282Y-77356780D01*
X103884989Y-77254920D01*
X103832262Y-77163594D01*
X103757695Y-77089027D01*
X103666369Y-77036300D01*
X103564509Y-77009007D01*
X103459055Y-77009007D01*
X103357195Y-77036300D01*
X103357192Y-77036301D01*
X103265867Y-77089028D01*
X103191303Y-77163592D01*
X103138576Y-77254917D01*
X103138575Y-77254920D01*
X103111282Y-77356780D01*
X85039044Y-77356780D01*
X85029758Y-77322125D01*
X84977031Y-77230799D01*
X84902464Y-77156232D01*
X84811138Y-77103505D01*
X84709278Y-77076212D01*
X84603824Y-77076212D01*
X84501964Y-77103505D01*
X84501961Y-77103506D01*
X84410636Y-77156233D01*
X84336072Y-77230797D01*
X84283345Y-77322122D01*
X84283344Y-77322125D01*
X84256051Y-77423985D01*
X78000000Y-77423985D01*
X78000000Y-74621691D01*
X95542926Y-74621691D01*
X95542926Y-74727145D01*
X95570219Y-74829005D01*
X95622946Y-74920331D01*
X95697513Y-74994898D01*
X95788839Y-75047625D01*
X95890699Y-75074918D01*
X95890701Y-75074918D01*
X95996151Y-75074918D01*
X95996153Y-75074918D01*
X96098013Y-75047625D01*
X96189339Y-74994898D01*
X96263906Y-74920331D01*
X96316633Y-74829005D01*
X96343926Y-74727145D01*
X96343926Y-74621691D01*
X96316633Y-74519831D01*
X96263906Y-74428505D01*
X96189339Y-74353938D01*
X96098013Y-74301211D01*
X95996153Y-74273918D01*
X95890699Y-74273918D01*
X95788839Y-74301211D01*
X95788836Y-74301212D01*
X95697511Y-74353939D01*
X95622947Y-74428503D01*
X95570220Y-74519828D01*
X95570219Y-74519831D01*
X95542926Y-74621691D01*
X78000000Y-74621691D01*
X78000000Y-73318856D01*
X107449500Y-73318856D01*
X107449500Y-73411143D01*
X107473387Y-73500290D01*
X107473388Y-73500293D01*
X107519526Y-73580205D01*
X107519529Y-73580209D01*
X107519531Y-73580212D01*
X107584788Y-73645469D01*
X107584791Y-73645470D01*
X107584794Y-73645473D01*
X107664706Y-73691611D01*
X107664707Y-73691611D01*
X107664712Y-73691614D01*
X107753856Y-73715500D01*
X107753858Y-73715500D01*
X107846142Y-73715500D01*
X107846144Y-73715500D01*
X107935288Y-73691614D01*
X108015212Y-73645469D01*
X108080469Y-73580212D01*
X108126614Y-73500288D01*
X108150500Y-73411144D01*
X108150500Y-73318856D01*
X108126614Y-73229712D01*
X108126611Y-73229706D01*
X108080473Y-73149794D01*
X108080470Y-73149791D01*
X108080469Y-73149788D01*
X108015212Y-73084531D01*
X108015209Y-73084529D01*
X108015205Y-73084526D01*
X107935293Y-73038388D01*
X107935290Y-73038387D01*
X107935289Y-73038386D01*
X107935288Y-73038386D01*
X107846144Y-73014500D01*
X107753856Y-73014500D01*
X107664712Y-73038386D01*
X107664711Y-73038386D01*
X107664709Y-73038387D01*
X107664706Y-73038388D01*
X107584794Y-73084526D01*
X107584785Y-73084533D01*
X107519533Y-73149785D01*
X107519526Y-73149794D01*
X107473388Y-73229706D01*
X107473387Y-73229709D01*
X107449500Y-73318856D01*
X78000000Y-73318856D01*
X78000000Y-68497074D01*
X79071042Y-68497074D01*
X79071042Y-68628857D01*
X79105150Y-68756153D01*
X79138096Y-68813216D01*
X79171042Y-68870280D01*
X79264228Y-68963466D01*
X79378356Y-69029358D01*
X79505650Y-69063466D01*
X79505652Y-69063466D01*
X79637432Y-69063466D01*
X79637434Y-69063466D01*
X79764728Y-69029358D01*
X79878856Y-68963466D01*
X79972042Y-68870280D01*
X80037934Y-68756152D01*
X80072042Y-68628858D01*
X80072042Y-68497074D01*
X80037934Y-68369780D01*
X79972042Y-68255652D01*
X79878856Y-68162466D01*
X79821792Y-68129520D01*
X79764729Y-68096574D01*
X79701081Y-68079520D01*
X79637434Y-68062466D01*
X79505650Y-68062466D01*
X79378354Y-68096574D01*
X79264228Y-68162466D01*
X79264225Y-68162468D01*
X79171044Y-68255649D01*
X79171042Y-68255652D01*
X79105150Y-68369778D01*
X79071042Y-68497074D01*
X78000000Y-68497074D01*
X78000000Y-66860239D01*
X79171042Y-66860239D01*
X79171042Y-66965693D01*
X79198335Y-67067553D01*
X79251062Y-67158879D01*
X79325629Y-67233446D01*
X79416955Y-67286173D01*
X79518815Y-67313466D01*
X79518817Y-67313466D01*
X79624267Y-67313466D01*
X79624269Y-67313466D01*
X79726129Y-67286173D01*
X79817455Y-67233446D01*
X79892022Y-67158879D01*
X79944749Y-67067553D01*
X79972042Y-66965693D01*
X79972042Y-66860239D01*
X79944749Y-66758379D01*
X79901723Y-66683856D01*
X107449500Y-66683856D01*
X107449500Y-66776144D01*
X107472033Y-66860239D01*
X107473387Y-66865290D01*
X107473388Y-66865293D01*
X107519526Y-66945205D01*
X107519529Y-66945209D01*
X107519531Y-66945212D01*
X107584788Y-67010469D01*
X107584791Y-67010470D01*
X107584794Y-67010473D01*
X107664706Y-67056611D01*
X107664707Y-67056611D01*
X107664712Y-67056614D01*
X107753856Y-67080500D01*
X107753858Y-67080500D01*
X107846142Y-67080500D01*
X107846144Y-67080500D01*
X107935288Y-67056614D01*
X108015212Y-67010469D01*
X108080469Y-66945212D01*
X108126614Y-66865288D01*
X108150500Y-66776144D01*
X108150500Y-66683856D01*
X108126614Y-66594712D01*
X108126611Y-66594706D01*
X108080473Y-66514794D01*
X108080470Y-66514791D01*
X108080469Y-66514788D01*
X108015212Y-66449531D01*
X108015209Y-66449529D01*
X108015205Y-66449526D01*
X107935293Y-66403388D01*
X107935290Y-66403387D01*
X107935289Y-66403386D01*
X107935288Y-66403386D01*
X107846144Y-66379500D01*
X107753856Y-66379500D01*
X107664712Y-66403386D01*
X107664711Y-66403386D01*
X107664709Y-66403387D01*
X107664706Y-66403388D01*
X107584794Y-66449526D01*
X107584785Y-66449533D01*
X107519533Y-66514785D01*
X107519526Y-66514794D01*
X107473388Y-66594706D01*
X107473387Y-66594709D01*
X107473386Y-66594711D01*
X107473386Y-66594712D01*
X107449500Y-66683856D01*
X79901723Y-66683856D01*
X79892022Y-66667053D01*
X79817455Y-66592486D01*
X79726129Y-66539759D01*
X79624269Y-66512466D01*
X79518815Y-66512466D01*
X79416955Y-66539759D01*
X79416952Y-66539760D01*
X79325627Y-66592487D01*
X79251063Y-66667051D01*
X79198336Y-66758376D01*
X79198335Y-66758379D01*
X79171042Y-66860239D01*
X78000000Y-66860239D01*
X78000000Y-59934108D01*
X89056737Y-59934108D01*
X89056737Y-60065891D01*
X89090845Y-60193187D01*
X89111933Y-60229712D01*
X89156737Y-60307314D01*
X89249923Y-60400500D01*
X89364051Y-60466392D01*
X89491345Y-60500500D01*
X89491347Y-60500500D01*
X89623127Y-60500500D01*
X89623129Y-60500500D01*
X89750423Y-60466392D01*
X89864551Y-60400500D01*
X89957737Y-60307314D01*
X90023629Y-60193186D01*
X90057737Y-60065892D01*
X90057737Y-59947273D01*
X90774500Y-59947273D01*
X90774500Y-60052727D01*
X90801793Y-60154587D01*
X90854520Y-60245913D01*
X90929087Y-60320480D01*
X91020413Y-60373207D01*
X91122273Y-60400500D01*
X91122275Y-60400500D01*
X91227725Y-60400500D01*
X91227727Y-60400500D01*
X91329587Y-60373207D01*
X91420913Y-60320480D01*
X91495480Y-60245913D01*
X91548207Y-60154587D01*
X91575500Y-60052727D01*
X91575500Y-59947273D01*
X91571972Y-59934108D01*
X92324500Y-59934108D01*
X92324500Y-60065891D01*
X92358608Y-60193187D01*
X92379696Y-60229712D01*
X92424500Y-60307314D01*
X92517686Y-60400500D01*
X92631814Y-60466392D01*
X92759108Y-60500500D01*
X92759110Y-60500500D01*
X92890890Y-60500500D01*
X92890892Y-60500500D01*
X93018186Y-60466392D01*
X93132314Y-60400500D01*
X93225500Y-60307314D01*
X93291392Y-60193186D01*
X93325500Y-60065892D01*
X93325500Y-59934108D01*
X95492262Y-59934108D01*
X95492262Y-60065891D01*
X95526370Y-60193187D01*
X95547458Y-60229712D01*
X95592262Y-60307314D01*
X95685448Y-60400500D01*
X95799576Y-60466392D01*
X95926870Y-60500500D01*
X95926872Y-60500500D01*
X96058652Y-60500500D01*
X96058654Y-60500500D01*
X96185948Y-60466392D01*
X96300076Y-60400500D01*
X96393262Y-60307314D01*
X96459154Y-60193186D01*
X96493262Y-60065892D01*
X96493262Y-59934108D01*
X99105025Y-59934108D01*
X99105025Y-60065891D01*
X99139133Y-60193187D01*
X99160221Y-60229712D01*
X99205025Y-60307314D01*
X99298211Y-60400500D01*
X99412339Y-60466392D01*
X99539633Y-60500500D01*
X99539635Y-60500500D01*
X99671415Y-60500500D01*
X99671417Y-60500500D01*
X99798711Y-60466392D01*
X99912839Y-60400500D01*
X99994483Y-60318856D01*
X107449500Y-60318856D01*
X107449500Y-60411144D01*
X107464303Y-60466391D01*
X107473387Y-60500290D01*
X107473388Y-60500293D01*
X107519526Y-60580205D01*
X107519529Y-60580209D01*
X107519531Y-60580212D01*
X107584788Y-60645469D01*
X107584791Y-60645470D01*
X107584794Y-60645473D01*
X107664706Y-60691611D01*
X107664707Y-60691611D01*
X107664712Y-60691614D01*
X107753856Y-60715500D01*
X107753858Y-60715500D01*
X107846142Y-60715500D01*
X107846144Y-60715500D01*
X107935288Y-60691614D01*
X108015212Y-60645469D01*
X108080469Y-60580212D01*
X108126614Y-60500288D01*
X108150500Y-60411144D01*
X108150500Y-60318856D01*
X108126614Y-60229712D01*
X108105526Y-60193187D01*
X108080473Y-60149794D01*
X108080470Y-60149791D01*
X108080469Y-60149788D01*
X108015212Y-60084531D01*
X108015209Y-60084529D01*
X108015205Y-60084526D01*
X107935293Y-60038388D01*
X107935290Y-60038387D01*
X107935289Y-60038386D01*
X107935288Y-60038386D01*
X107846144Y-60014500D01*
X107753856Y-60014500D01*
X107664712Y-60038386D01*
X107664711Y-60038386D01*
X107664709Y-60038387D01*
X107664706Y-60038388D01*
X107584794Y-60084526D01*
X107584785Y-60084533D01*
X107519533Y-60149785D01*
X107519526Y-60149794D01*
X107473388Y-60229706D01*
X107473387Y-60229709D01*
X107473386Y-60229711D01*
X107473386Y-60229712D01*
X107449500Y-60318856D01*
X99994483Y-60318856D01*
X100006025Y-60307314D01*
X100071917Y-60193186D01*
X100106025Y-60065892D01*
X100106025Y-59934108D01*
X100071917Y-59806814D01*
X100006025Y-59692686D01*
X99912839Y-59599500D01*
X99855775Y-59566554D01*
X99798712Y-59533608D01*
X99735064Y-59516554D01*
X99671417Y-59499500D01*
X99539633Y-59499500D01*
X99412337Y-59533608D01*
X99298211Y-59599500D01*
X99298208Y-59599502D01*
X99205027Y-59692683D01*
X99205025Y-59692686D01*
X99139133Y-59806812D01*
X99105025Y-59934108D01*
X96493262Y-59934108D01*
X96459154Y-59806814D01*
X96393262Y-59692686D01*
X96300076Y-59599500D01*
X96243012Y-59566554D01*
X96185949Y-59533608D01*
X96122301Y-59516554D01*
X96058654Y-59499500D01*
X95926870Y-59499500D01*
X95799574Y-59533608D01*
X95685448Y-59599500D01*
X95685445Y-59599502D01*
X95592264Y-59692683D01*
X95592262Y-59692686D01*
X95526370Y-59806812D01*
X95492262Y-59934108D01*
X93325500Y-59934108D01*
X93291392Y-59806814D01*
X93225500Y-59692686D01*
X93132314Y-59599500D01*
X93075250Y-59566554D01*
X93018187Y-59533608D01*
X92954539Y-59516554D01*
X92890892Y-59499500D01*
X92759108Y-59499500D01*
X92631812Y-59533608D01*
X92517686Y-59599500D01*
X92517683Y-59599502D01*
X92424502Y-59692683D01*
X92424500Y-59692686D01*
X92358608Y-59806812D01*
X92324500Y-59934108D01*
X91571972Y-59934108D01*
X91548207Y-59845413D01*
X91495480Y-59754087D01*
X91420913Y-59679520D01*
X91329587Y-59626793D01*
X91227727Y-59599500D01*
X91122273Y-59599500D01*
X91020413Y-59626793D01*
X91020410Y-59626794D01*
X90929085Y-59679521D01*
X90854521Y-59754085D01*
X90801794Y-59845410D01*
X90801793Y-59845413D01*
X90774500Y-59947273D01*
X90057737Y-59947273D01*
X90057737Y-59934108D01*
X90023629Y-59806814D01*
X89957737Y-59692686D01*
X89864551Y-59599500D01*
X89807487Y-59566554D01*
X89750424Y-59533608D01*
X89686776Y-59516554D01*
X89623129Y-59499500D01*
X89491345Y-59499500D01*
X89364049Y-59533608D01*
X89249923Y-59599500D01*
X89249920Y-59599502D01*
X89156739Y-59692683D01*
X89156737Y-59692686D01*
X89090845Y-59806812D01*
X89056737Y-59934108D01*
X78000000Y-59934108D01*
X78000000Y-58457273D01*
X84849500Y-58457273D01*
X84849500Y-58562727D01*
X84876793Y-58664587D01*
X84929520Y-58755913D01*
X85004087Y-58830480D01*
X85095413Y-58883207D01*
X85197273Y-58910500D01*
X85197275Y-58910500D01*
X85302725Y-58910500D01*
X85302727Y-58910500D01*
X85404587Y-58883207D01*
X85495913Y-58830480D01*
X85570480Y-58755913D01*
X85623207Y-58664587D01*
X85650500Y-58562727D01*
X85650500Y-58457273D01*
X85623207Y-58355413D01*
X85570480Y-58264087D01*
X85495913Y-58189520D01*
X85404587Y-58136793D01*
X85302727Y-58109500D01*
X85197273Y-58109500D01*
X85095413Y-58136793D01*
X85095410Y-58136794D01*
X85004085Y-58189521D01*
X84929521Y-58264085D01*
X84876794Y-58355410D01*
X84876793Y-58355413D01*
X84849500Y-58457273D01*
X78000000Y-58457273D01*
X78000000Y-57821608D01*
X104199500Y-57821608D01*
X104199500Y-57953391D01*
X104233608Y-58080687D01*
X104250244Y-58109500D01*
X104299500Y-58194814D01*
X104392686Y-58288000D01*
X104506814Y-58353892D01*
X104634108Y-58388000D01*
X104634110Y-58388000D01*
X104765890Y-58388000D01*
X104765892Y-58388000D01*
X104893186Y-58353892D01*
X105007314Y-58288000D01*
X105100500Y-58194814D01*
X105166392Y-58080686D01*
X105200500Y-57953392D01*
X105200500Y-57821608D01*
X105166392Y-57694314D01*
X105100500Y-57580186D01*
X105007314Y-57487000D01*
X104950250Y-57454054D01*
X104893187Y-57421108D01*
X104829539Y-57404054D01*
X104765892Y-57387000D01*
X104634108Y-57387000D01*
X104506812Y-57421108D01*
X104392686Y-57487000D01*
X104392683Y-57487002D01*
X104299502Y-57580183D01*
X104299500Y-57580186D01*
X104233608Y-57694312D01*
X104199500Y-57821608D01*
X78000000Y-57821608D01*
X78000000Y-52475656D01*
X78735042Y-52475656D01*
X78735042Y-52718233D01*
X78766703Y-52958730D01*
X78829489Y-53193049D01*
X78922315Y-53417150D01*
X78922318Y-53417157D01*
X79043606Y-53627234D01*
X79043608Y-53627237D01*
X79043609Y-53627238D01*
X79191275Y-53819681D01*
X79191281Y-53819688D01*
X79362798Y-53991205D01*
X79362804Y-53991210D01*
X79555253Y-54138881D01*
X79765330Y-54260169D01*
X79989442Y-54352999D01*
X80223753Y-54415783D01*
X80404128Y-54439529D01*
X80464253Y-54447445D01*
X80464254Y-54447445D01*
X80706831Y-54447445D01*
X80754930Y-54441112D01*
X80947331Y-54415783D01*
X81181642Y-54352999D01*
X81405754Y-54260169D01*
X81615831Y-54138881D01*
X81808280Y-53991210D01*
X81979807Y-53819683D01*
X82127478Y-53627234D01*
X82248766Y-53417157D01*
X82341596Y-53193045D01*
X82404380Y-52958734D01*
X82436042Y-52718233D01*
X82436042Y-52475657D01*
X82404380Y-52235156D01*
X82341596Y-52000845D01*
X82248766Y-51776733D01*
X82127478Y-51566656D01*
X81979807Y-51374207D01*
X81979802Y-51374201D01*
X81808285Y-51202684D01*
X81808278Y-51202678D01*
X81615835Y-51055012D01*
X81615834Y-51055011D01*
X81615831Y-51055009D01*
X81405754Y-50933721D01*
X81405747Y-50933718D01*
X81181646Y-50840892D01*
X80947327Y-50778106D01*
X80706831Y-50746445D01*
X80706830Y-50746445D01*
X80464254Y-50746445D01*
X80464253Y-50746445D01*
X80223756Y-50778106D01*
X79989437Y-50840892D01*
X79765336Y-50933718D01*
X79765327Y-50933722D01*
X79555248Y-51055012D01*
X79362805Y-51202678D01*
X79362798Y-51202684D01*
X79191281Y-51374201D01*
X79191275Y-51374208D01*
X79043609Y-51566651D01*
X78922319Y-51776730D01*
X78922315Y-51776739D01*
X78829489Y-52000840D01*
X78766703Y-52235159D01*
X78735042Y-52475656D01*
X78000000Y-52475656D01*
X78000000Y-50550094D01*
X78006610Y-50527582D01*
X78008798Y-50504218D01*
X78018348Y-50487606D01*
X78019685Y-50483055D01*
X78026377Y-50473637D01*
X78124481Y-50348417D01*
X78134395Y-50337227D01*
X78337226Y-50134396D01*
X78348418Y-50124480D01*
X78479340Y-50021909D01*
X78544249Y-49996061D01*
X78554794Y-49995525D01*
X83885141Y-49952539D01*
X83952337Y-49971682D01*
X83998516Y-50024116D01*
X84010141Y-50076535D01*
X84010141Y-56098849D01*
X104010141Y-56098849D01*
X104010141Y-49913244D01*
X104029826Y-49846205D01*
X104082630Y-49800450D01*
X104133136Y-49789248D01*
X108875000Y-49751008D01*
X108942196Y-49770151D01*
G37*
%TD.AperFunction*%
%TD*%
M02*
