%TF.GenerationSoftware,KiCad,Pcbnew,9.0.8-9.0.8~ubuntu24.04.1*%
%TF.CreationDate,2026-04-24T13:10:01-07:00*%
%TF.ProjectId,barn-blinds-controller,6261726e-2d62-46c6-996e-64732d636f6e,rev?*%
%TF.SameCoordinates,Original*%
%TF.FileFunction,Legend,Bot*%
%TF.FilePolarity,Positive*%
%FSLAX46Y46*%
G04 Gerber Fmt 4.6, Leading zero omitted, Abs format (unit mm)*
G04 Created by KiCad (PCBNEW 9.0.8-9.0.8~ubuntu24.04.1) date 2026-04-24 13:10:01*
%MOMM*%
%LPD*%
G01*
G04 APERTURE LIST*
G04 Aperture macros list*
%AMRoundRect*
0 Rectangle with rounded corners*
0 $1 Rounding radius*
0 $2 $3 $4 $5 $6 $7 $8 $9 X,Y pos of 4 corners*
0 Add a 4 corners polygon primitive as box body*
4,1,4,$2,$3,$4,$5,$6,$7,$8,$9,$2,$3,0*
0 Add four circle primitives for the rounded corners*
1,1,$1+$1,$2,$3*
1,1,$1+$1,$4,$5*
1,1,$1+$1,$6,$7*
1,1,$1+$1,$8,$9*
0 Add four rect primitives between the rounded corners*
20,1,$1+$1,$2,$3,$4,$5,0*
20,1,$1+$1,$4,$5,$6,$7,0*
20,1,$1+$1,$6,$7,$8,$9,0*
20,1,$1+$1,$8,$9,$2,$3,0*%
G04 Aperture macros list end*
%ADD10C,0.150000*%
%ADD11C,0.120000*%
%ADD12C,3.200000*%
%ADD13C,2.000000*%
%ADD14R,3.500000X3.500000*%
%ADD15RoundRect,0.750000X0.750000X1.000000X-0.750000X1.000000X-0.750000X-1.000000X0.750000X-1.000000X0*%
%ADD16RoundRect,0.875000X0.875000X0.875000X-0.875000X0.875000X-0.875000X-0.875000X0.875000X-0.875000X0*%
%ADD17C,0.700000*%
%ADD18O,2.054000X1.254000*%
%ADD19O,2.354000X1.254000*%
%ADD20C,1.600000*%
%ADD21RoundRect,0.250000X0.250000X0.475000X-0.250000X0.475000X-0.250000X-0.475000X0.250000X-0.475000X0*%
%ADD22RoundRect,0.225000X0.225000X0.250000X-0.225000X0.250000X-0.225000X-0.250000X0.225000X-0.250000X0*%
%ADD23RoundRect,0.225000X0.250000X-0.225000X0.250000X0.225000X-0.250000X0.225000X-0.250000X-0.225000X0*%
%ADD24RoundRect,0.250000X-1.450000X0.312500X-1.450000X-0.312500X1.450000X-0.312500X1.450000X0.312500X0*%
%ADD25RoundRect,0.225000X-0.225000X-0.250000X0.225000X-0.250000X0.225000X0.250000X-0.225000X0.250000X0*%
%ADD26RoundRect,0.200000X0.200000X0.275000X-0.200000X0.275000X-0.200000X-0.275000X0.200000X-0.275000X0*%
%ADD27RoundRect,0.258261X-0.929739X1.029739X-0.929739X-1.029739X0.929739X-1.029739X0.929739X1.029739X0*%
%ADD28RoundRect,0.258261X0.929739X-1.029739X0.929739X1.029739X-0.929739X1.029739X-0.929739X-1.029739X0*%
%ADD29RoundRect,0.200000X0.275000X-0.200000X0.275000X0.200000X-0.275000X0.200000X-0.275000X-0.200000X0*%
%ADD30RoundRect,0.250000X-0.250000X-0.475000X0.250000X-0.475000X0.250000X0.475000X-0.250000X0.475000X0*%
%ADD31RoundRect,0.258261X-1.029739X-0.929739X1.029739X-0.929739X1.029739X0.929739X-1.029739X0.929739X0*%
%ADD32RoundRect,0.200000X-0.200000X-0.275000X0.200000X-0.275000X0.200000X0.275000X-0.200000X0.275000X0*%
%ADD33RoundRect,0.250000X0.312500X1.450000X-0.312500X1.450000X-0.312500X-1.450000X0.312500X-1.450000X0*%
G04 APERTURE END LIST*
D10*
X113510512Y-73659978D02*
X113543845Y-73693312D01*
X113543845Y-73693312D02*
X113643845Y-73726645D01*
X113643845Y-73726645D02*
X113710512Y-73726645D01*
X113710512Y-73726645D02*
X113810512Y-73693312D01*
X113810512Y-73693312D02*
X113877179Y-73626645D01*
X113877179Y-73626645D02*
X113910512Y-73559978D01*
X113910512Y-73559978D02*
X113943845Y-73426645D01*
X113943845Y-73426645D02*
X113943845Y-73326645D01*
X113943845Y-73326645D02*
X113910512Y-73193312D01*
X113910512Y-73193312D02*
X113877179Y-73126645D01*
X113877179Y-73126645D02*
X113810512Y-73059978D01*
X113810512Y-73059978D02*
X113710512Y-73026645D01*
X113710512Y-73026645D02*
X113643845Y-73026645D01*
X113643845Y-73026645D02*
X113543845Y-73059978D01*
X113543845Y-73059978D02*
X113510512Y-73093312D01*
X113377179Y-73793312D02*
X112843845Y-73793312D01*
X112777179Y-73026645D02*
X112543846Y-73726645D01*
X112543846Y-73726645D02*
X112310512Y-73026645D01*
X112077179Y-73726645D02*
X112077179Y-73026645D01*
X112077179Y-73026645D02*
X111843846Y-73526645D01*
X111843846Y-73526645D02*
X111610512Y-73026645D01*
X111610512Y-73026645D02*
X111610512Y-73726645D01*
X111443846Y-73793312D02*
X110910512Y-73793312D01*
X110777179Y-73526645D02*
X110443846Y-73526645D01*
X110843846Y-73726645D02*
X110610513Y-73026645D01*
X110610513Y-73026645D02*
X110377179Y-73726645D01*
X110177179Y-73093312D02*
X110143846Y-73059978D01*
X110143846Y-73059978D02*
X110077179Y-73026645D01*
X110077179Y-73026645D02*
X109910513Y-73026645D01*
X109910513Y-73026645D02*
X109843846Y-73059978D01*
X109843846Y-73059978D02*
X109810513Y-73093312D01*
X109810513Y-73093312D02*
X109777179Y-73159978D01*
X109777179Y-73159978D02*
X109777179Y-73226645D01*
X109777179Y-73226645D02*
X109810513Y-73326645D01*
X109810513Y-73326645D02*
X110210513Y-73726645D01*
X110210513Y-73726645D02*
X109777179Y-73726645D01*
X113450492Y-76850551D02*
X113483825Y-76883885D01*
X113483825Y-76883885D02*
X113583825Y-76917218D01*
X113583825Y-76917218D02*
X113650492Y-76917218D01*
X113650492Y-76917218D02*
X113750492Y-76883885D01*
X113750492Y-76883885D02*
X113817159Y-76817218D01*
X113817159Y-76817218D02*
X113850492Y-76750551D01*
X113850492Y-76750551D02*
X113883825Y-76617218D01*
X113883825Y-76617218D02*
X113883825Y-76517218D01*
X113883825Y-76517218D02*
X113850492Y-76383885D01*
X113850492Y-76383885D02*
X113817159Y-76317218D01*
X113817159Y-76317218D02*
X113750492Y-76250551D01*
X113750492Y-76250551D02*
X113650492Y-76217218D01*
X113650492Y-76217218D02*
X113583825Y-76217218D01*
X113583825Y-76217218D02*
X113483825Y-76250551D01*
X113483825Y-76250551D02*
X113450492Y-76283885D01*
X113317159Y-76983885D02*
X112783825Y-76983885D01*
X112717159Y-76217218D02*
X112483826Y-76917218D01*
X112483826Y-76917218D02*
X112250492Y-76217218D01*
X112017159Y-76917218D02*
X112017159Y-76217218D01*
X112017159Y-76217218D02*
X111783826Y-76717218D01*
X111783826Y-76717218D02*
X111550492Y-76217218D01*
X111550492Y-76217218D02*
X111550492Y-76917218D01*
X111383826Y-76983885D02*
X110850492Y-76983885D01*
X110450493Y-76550551D02*
X110350493Y-76583885D01*
X110350493Y-76583885D02*
X110317159Y-76617218D01*
X110317159Y-76617218D02*
X110283826Y-76683885D01*
X110283826Y-76683885D02*
X110283826Y-76783885D01*
X110283826Y-76783885D02*
X110317159Y-76850551D01*
X110317159Y-76850551D02*
X110350493Y-76883885D01*
X110350493Y-76883885D02*
X110417159Y-76917218D01*
X110417159Y-76917218D02*
X110683826Y-76917218D01*
X110683826Y-76917218D02*
X110683826Y-76217218D01*
X110683826Y-76217218D02*
X110450493Y-76217218D01*
X110450493Y-76217218D02*
X110383826Y-76250551D01*
X110383826Y-76250551D02*
X110350493Y-76283885D01*
X110350493Y-76283885D02*
X110317159Y-76350551D01*
X110317159Y-76350551D02*
X110317159Y-76417218D01*
X110317159Y-76417218D02*
X110350493Y-76483885D01*
X110350493Y-76483885D02*
X110383826Y-76517218D01*
X110383826Y-76517218D02*
X110450493Y-76550551D01*
X110450493Y-76550551D02*
X110683826Y-76550551D01*
X109617159Y-76917218D02*
X110017159Y-76917218D01*
X109817159Y-76917218D02*
X109817159Y-76217218D01*
X109817159Y-76217218D02*
X109883826Y-76317218D01*
X109883826Y-76317218D02*
X109950493Y-76383885D01*
X109950493Y-76383885D02*
X110017159Y-76417218D01*
X108486174Y-57300225D02*
X108519507Y-57333559D01*
X108519507Y-57333559D02*
X108619507Y-57366892D01*
X108619507Y-57366892D02*
X108686174Y-57366892D01*
X108686174Y-57366892D02*
X108786174Y-57333559D01*
X108786174Y-57333559D02*
X108852841Y-57266892D01*
X108852841Y-57266892D02*
X108886174Y-57200225D01*
X108886174Y-57200225D02*
X108919507Y-57066892D01*
X108919507Y-57066892D02*
X108919507Y-56966892D01*
X108919507Y-56966892D02*
X108886174Y-56833559D01*
X108886174Y-56833559D02*
X108852841Y-56766892D01*
X108852841Y-56766892D02*
X108786174Y-56700225D01*
X108786174Y-56700225D02*
X108686174Y-56666892D01*
X108686174Y-56666892D02*
X108619507Y-56666892D01*
X108619507Y-56666892D02*
X108519507Y-56700225D01*
X108519507Y-56700225D02*
X108486174Y-56733559D01*
X108352841Y-57433559D02*
X107819507Y-57433559D01*
X107652841Y-57366892D02*
X107652841Y-56666892D01*
X107352841Y-57333559D02*
X107252841Y-57366892D01*
X107252841Y-57366892D02*
X107086175Y-57366892D01*
X107086175Y-57366892D02*
X107019508Y-57333559D01*
X107019508Y-57333559D02*
X106986175Y-57300225D01*
X106986175Y-57300225D02*
X106952841Y-57233559D01*
X106952841Y-57233559D02*
X106952841Y-57166892D01*
X106952841Y-57166892D02*
X106986175Y-57100225D01*
X106986175Y-57100225D02*
X107019508Y-57066892D01*
X107019508Y-57066892D02*
X107086175Y-57033559D01*
X107086175Y-57033559D02*
X107219508Y-57000225D01*
X107219508Y-57000225D02*
X107286175Y-56966892D01*
X107286175Y-56966892D02*
X107319508Y-56933559D01*
X107319508Y-56933559D02*
X107352841Y-56866892D01*
X107352841Y-56866892D02*
X107352841Y-56800225D01*
X107352841Y-56800225D02*
X107319508Y-56733559D01*
X107319508Y-56733559D02*
X107286175Y-56700225D01*
X107286175Y-56700225D02*
X107219508Y-56666892D01*
X107219508Y-56666892D02*
X107052841Y-56666892D01*
X107052841Y-56666892D02*
X106952841Y-56700225D01*
X106519508Y-56666892D02*
X106386174Y-56666892D01*
X106386174Y-56666892D02*
X106319508Y-56700225D01*
X106319508Y-56700225D02*
X106252841Y-56766892D01*
X106252841Y-56766892D02*
X106219508Y-56900225D01*
X106219508Y-56900225D02*
X106219508Y-57133559D01*
X106219508Y-57133559D02*
X106252841Y-57266892D01*
X106252841Y-57266892D02*
X106319508Y-57333559D01*
X106319508Y-57333559D02*
X106386174Y-57366892D01*
X106386174Y-57366892D02*
X106519508Y-57366892D01*
X106519508Y-57366892D02*
X106586174Y-57333559D01*
X106586174Y-57333559D02*
X106652841Y-57266892D01*
X106652841Y-57266892D02*
X106686174Y-57133559D01*
X106686174Y-57133559D02*
X106686174Y-56900225D01*
X106686174Y-56900225D02*
X106652841Y-56766892D01*
X106652841Y-56766892D02*
X106586174Y-56700225D01*
X106586174Y-56700225D02*
X106519508Y-56666892D01*
X106086175Y-57433559D02*
X105552841Y-57433559D01*
X105386175Y-57366892D02*
X105386175Y-56666892D01*
X105386175Y-56666892D02*
X105219508Y-56666892D01*
X105219508Y-56666892D02*
X105119508Y-56700225D01*
X105119508Y-56700225D02*
X105052842Y-56766892D01*
X105052842Y-56766892D02*
X105019508Y-56833559D01*
X105019508Y-56833559D02*
X104986175Y-56966892D01*
X104986175Y-56966892D02*
X104986175Y-57066892D01*
X104986175Y-57066892D02*
X105019508Y-57200225D01*
X105019508Y-57200225D02*
X105052842Y-57266892D01*
X105052842Y-57266892D02*
X105119508Y-57333559D01*
X105119508Y-57333559D02*
X105219508Y-57366892D01*
X105219508Y-57366892D02*
X105386175Y-57366892D01*
X104319508Y-57366892D02*
X104719508Y-57366892D01*
X104519508Y-57366892D02*
X104519508Y-56666892D01*
X104519508Y-56666892D02*
X104586175Y-56766892D01*
X104586175Y-56766892D02*
X104652842Y-56833559D01*
X104652842Y-56833559D02*
X104719508Y-56866892D01*
X95192717Y-61709862D02*
X95226050Y-61743196D01*
X95226050Y-61743196D02*
X95326050Y-61776529D01*
X95326050Y-61776529D02*
X95392717Y-61776529D01*
X95392717Y-61776529D02*
X95492717Y-61743196D01*
X95492717Y-61743196D02*
X95559384Y-61676529D01*
X95559384Y-61676529D02*
X95592717Y-61609862D01*
X95592717Y-61609862D02*
X95626050Y-61476529D01*
X95626050Y-61476529D02*
X95626050Y-61376529D01*
X95626050Y-61376529D02*
X95592717Y-61243196D01*
X95592717Y-61243196D02*
X95559384Y-61176529D01*
X95559384Y-61176529D02*
X95492717Y-61109862D01*
X95492717Y-61109862D02*
X95392717Y-61076529D01*
X95392717Y-61076529D02*
X95326050Y-61076529D01*
X95326050Y-61076529D02*
X95226050Y-61109862D01*
X95226050Y-61109862D02*
X95192717Y-61143196D01*
X94959384Y-61076529D02*
X94492717Y-61076529D01*
X94492717Y-61076529D02*
X94792717Y-61776529D01*
X132660524Y-72854096D02*
X132893857Y-72854096D01*
X132893857Y-73220763D02*
X132893857Y-72520763D01*
X132893857Y-72520763D02*
X132560524Y-72520763D01*
X132360524Y-72520763D02*
X131927190Y-72520763D01*
X131927190Y-72520763D02*
X132160524Y-72787430D01*
X132160524Y-72787430D02*
X132060524Y-72787430D01*
X132060524Y-72787430D02*
X131993857Y-72820763D01*
X131993857Y-72820763D02*
X131960524Y-72854096D01*
X131960524Y-72854096D02*
X131927190Y-72920763D01*
X131927190Y-72920763D02*
X131927190Y-73087430D01*
X131927190Y-73087430D02*
X131960524Y-73154096D01*
X131960524Y-73154096D02*
X131993857Y-73187430D01*
X131993857Y-73187430D02*
X132060524Y-73220763D01*
X132060524Y-73220763D02*
X132260524Y-73220763D01*
X132260524Y-73220763D02*
X132327190Y-73187430D01*
X132327190Y-73187430D02*
X132360524Y-73154096D01*
X96756625Y-79900765D02*
X96789958Y-79934099D01*
X96789958Y-79934099D02*
X96889958Y-79967432D01*
X96889958Y-79967432D02*
X96956625Y-79967432D01*
X96956625Y-79967432D02*
X97056625Y-79934099D01*
X97056625Y-79934099D02*
X97123292Y-79867432D01*
X97123292Y-79867432D02*
X97156625Y-79800765D01*
X97156625Y-79800765D02*
X97189958Y-79667432D01*
X97189958Y-79667432D02*
X97189958Y-79567432D01*
X97189958Y-79567432D02*
X97156625Y-79434099D01*
X97156625Y-79434099D02*
X97123292Y-79367432D01*
X97123292Y-79367432D02*
X97056625Y-79300765D01*
X97056625Y-79300765D02*
X96956625Y-79267432D01*
X96956625Y-79267432D02*
X96889958Y-79267432D01*
X96889958Y-79267432D02*
X96789958Y-79300765D01*
X96789958Y-79300765D02*
X96756625Y-79334099D01*
X96623292Y-80034099D02*
X96089958Y-80034099D01*
X96023292Y-79267432D02*
X95623292Y-79267432D01*
X95823292Y-79967432D02*
X95823292Y-79267432D01*
X95389959Y-79967432D02*
X95389959Y-79267432D01*
X95389959Y-79267432D02*
X95156626Y-79767432D01*
X95156626Y-79767432D02*
X94923292Y-79267432D01*
X94923292Y-79267432D02*
X94923292Y-79967432D01*
X94589959Y-79967432D02*
X94589959Y-79267432D01*
X94589959Y-79267432D02*
X94323292Y-79267432D01*
X94323292Y-79267432D02*
X94256626Y-79300765D01*
X94256626Y-79300765D02*
X94223292Y-79334099D01*
X94223292Y-79334099D02*
X94189959Y-79400765D01*
X94189959Y-79400765D02*
X94189959Y-79500765D01*
X94189959Y-79500765D02*
X94223292Y-79567432D01*
X94223292Y-79567432D02*
X94256626Y-79600765D01*
X94256626Y-79600765D02*
X94323292Y-79634099D01*
X94323292Y-79634099D02*
X94589959Y-79634099D01*
X93523292Y-79967432D02*
X93923292Y-79967432D01*
X93723292Y-79967432D02*
X93723292Y-79267432D01*
X93723292Y-79267432D02*
X93789959Y-79367432D01*
X93789959Y-79367432D02*
X93856626Y-79434099D01*
X93856626Y-79434099D02*
X93923292Y-79467432D01*
X108177790Y-58904680D02*
X108211123Y-58938014D01*
X108211123Y-58938014D02*
X108311123Y-58971347D01*
X108311123Y-58971347D02*
X108377790Y-58971347D01*
X108377790Y-58971347D02*
X108477790Y-58938014D01*
X108477790Y-58938014D02*
X108544457Y-58871347D01*
X108544457Y-58871347D02*
X108577790Y-58804680D01*
X108577790Y-58804680D02*
X108611123Y-58671347D01*
X108611123Y-58671347D02*
X108611123Y-58571347D01*
X108611123Y-58571347D02*
X108577790Y-58438014D01*
X108577790Y-58438014D02*
X108544457Y-58371347D01*
X108544457Y-58371347D02*
X108477790Y-58304680D01*
X108477790Y-58304680D02*
X108377790Y-58271347D01*
X108377790Y-58271347D02*
X108311123Y-58271347D01*
X108311123Y-58271347D02*
X108211123Y-58304680D01*
X108211123Y-58304680D02*
X108177790Y-58338014D01*
X108044457Y-59038014D02*
X107511123Y-59038014D01*
X107344457Y-58971347D02*
X107344457Y-58271347D01*
X107044457Y-58938014D02*
X106944457Y-58971347D01*
X106944457Y-58971347D02*
X106777791Y-58971347D01*
X106777791Y-58971347D02*
X106711124Y-58938014D01*
X106711124Y-58938014D02*
X106677791Y-58904680D01*
X106677791Y-58904680D02*
X106644457Y-58838014D01*
X106644457Y-58838014D02*
X106644457Y-58771347D01*
X106644457Y-58771347D02*
X106677791Y-58704680D01*
X106677791Y-58704680D02*
X106711124Y-58671347D01*
X106711124Y-58671347D02*
X106777791Y-58638014D01*
X106777791Y-58638014D02*
X106911124Y-58604680D01*
X106911124Y-58604680D02*
X106977791Y-58571347D01*
X106977791Y-58571347D02*
X107011124Y-58538014D01*
X107011124Y-58538014D02*
X107044457Y-58471347D01*
X107044457Y-58471347D02*
X107044457Y-58404680D01*
X107044457Y-58404680D02*
X107011124Y-58338014D01*
X107011124Y-58338014D02*
X106977791Y-58304680D01*
X106977791Y-58304680D02*
X106911124Y-58271347D01*
X106911124Y-58271347D02*
X106744457Y-58271347D01*
X106744457Y-58271347D02*
X106644457Y-58304680D01*
X106211124Y-58271347D02*
X106077790Y-58271347D01*
X106077790Y-58271347D02*
X106011124Y-58304680D01*
X106011124Y-58304680D02*
X105944457Y-58371347D01*
X105944457Y-58371347D02*
X105911124Y-58504680D01*
X105911124Y-58504680D02*
X105911124Y-58738014D01*
X105911124Y-58738014D02*
X105944457Y-58871347D01*
X105944457Y-58871347D02*
X106011124Y-58938014D01*
X106011124Y-58938014D02*
X106077790Y-58971347D01*
X106077790Y-58971347D02*
X106211124Y-58971347D01*
X106211124Y-58971347D02*
X106277790Y-58938014D01*
X106277790Y-58938014D02*
X106344457Y-58871347D01*
X106344457Y-58871347D02*
X106377790Y-58738014D01*
X106377790Y-58738014D02*
X106377790Y-58504680D01*
X106377790Y-58504680D02*
X106344457Y-58371347D01*
X106344457Y-58371347D02*
X106277790Y-58304680D01*
X106277790Y-58304680D02*
X106211124Y-58271347D01*
X105777791Y-59038014D02*
X105244457Y-59038014D01*
X105077791Y-58604680D02*
X104844458Y-58604680D01*
X104744458Y-58971347D02*
X105077791Y-58971347D01*
X105077791Y-58971347D02*
X105077791Y-58271347D01*
X105077791Y-58271347D02*
X104744458Y-58271347D01*
X104077791Y-58971347D02*
X104477791Y-58971347D01*
X104277791Y-58971347D02*
X104277791Y-58271347D01*
X104277791Y-58271347D02*
X104344458Y-58371347D01*
X104344458Y-58371347D02*
X104411125Y-58438014D01*
X104411125Y-58438014D02*
X104477791Y-58471347D01*
X133010524Y-86716596D02*
X133243857Y-86716596D01*
X133243857Y-87083263D02*
X133243857Y-86383263D01*
X133243857Y-86383263D02*
X132910524Y-86383263D01*
X132677190Y-86449930D02*
X132643857Y-86416596D01*
X132643857Y-86416596D02*
X132577190Y-86383263D01*
X132577190Y-86383263D02*
X132410524Y-86383263D01*
X132410524Y-86383263D02*
X132343857Y-86416596D01*
X132343857Y-86416596D02*
X132310524Y-86449930D01*
X132310524Y-86449930D02*
X132277190Y-86516596D01*
X132277190Y-86516596D02*
X132277190Y-86583263D01*
X132277190Y-86583263D02*
X132310524Y-86683263D01*
X132310524Y-86683263D02*
X132710524Y-87083263D01*
X132710524Y-87083263D02*
X132277190Y-87083263D01*
X115802111Y-80249366D02*
X115835444Y-80282700D01*
X115835444Y-80282700D02*
X115935444Y-80316033D01*
X115935444Y-80316033D02*
X116002111Y-80316033D01*
X116002111Y-80316033D02*
X116102111Y-80282700D01*
X116102111Y-80282700D02*
X116168778Y-80216033D01*
X116168778Y-80216033D02*
X116202111Y-80149366D01*
X116202111Y-80149366D02*
X116235444Y-80016033D01*
X116235444Y-80016033D02*
X116235444Y-79916033D01*
X116235444Y-79916033D02*
X116202111Y-79782700D01*
X116202111Y-79782700D02*
X116168778Y-79716033D01*
X116168778Y-79716033D02*
X116102111Y-79649366D01*
X116102111Y-79649366D02*
X116002111Y-79616033D01*
X116002111Y-79616033D02*
X115935444Y-79616033D01*
X115935444Y-79616033D02*
X115835444Y-79649366D01*
X115835444Y-79649366D02*
X115802111Y-79682700D01*
X115468778Y-80316033D02*
X115335444Y-80316033D01*
X115335444Y-80316033D02*
X115268778Y-80282700D01*
X115268778Y-80282700D02*
X115235444Y-80249366D01*
X115235444Y-80249366D02*
X115168778Y-80149366D01*
X115168778Y-80149366D02*
X115135444Y-80016033D01*
X115135444Y-80016033D02*
X115135444Y-79749366D01*
X115135444Y-79749366D02*
X115168778Y-79682700D01*
X115168778Y-79682700D02*
X115202111Y-79649366D01*
X115202111Y-79649366D02*
X115268778Y-79616033D01*
X115268778Y-79616033D02*
X115402111Y-79616033D01*
X115402111Y-79616033D02*
X115468778Y-79649366D01*
X115468778Y-79649366D02*
X115502111Y-79682700D01*
X115502111Y-79682700D02*
X115535444Y-79749366D01*
X115535444Y-79749366D02*
X115535444Y-79916033D01*
X115535444Y-79916033D02*
X115502111Y-79982700D01*
X115502111Y-79982700D02*
X115468778Y-80016033D01*
X115468778Y-80016033D02*
X115402111Y-80049366D01*
X115402111Y-80049366D02*
X115268778Y-80049366D01*
X115268778Y-80049366D02*
X115202111Y-80016033D01*
X115202111Y-80016033D02*
X115168778Y-79982700D01*
X115168778Y-79982700D02*
X115135444Y-79916033D01*
X90044076Y-79742178D02*
X90077409Y-79775512D01*
X90077409Y-79775512D02*
X90177409Y-79808845D01*
X90177409Y-79808845D02*
X90244076Y-79808845D01*
X90244076Y-79808845D02*
X90344076Y-79775512D01*
X90344076Y-79775512D02*
X90410743Y-79708845D01*
X90410743Y-79708845D02*
X90444076Y-79642178D01*
X90444076Y-79642178D02*
X90477409Y-79508845D01*
X90477409Y-79508845D02*
X90477409Y-79408845D01*
X90477409Y-79408845D02*
X90444076Y-79275512D01*
X90444076Y-79275512D02*
X90410743Y-79208845D01*
X90410743Y-79208845D02*
X90344076Y-79142178D01*
X90344076Y-79142178D02*
X90244076Y-79108845D01*
X90244076Y-79108845D02*
X90177409Y-79108845D01*
X90177409Y-79108845D02*
X90077409Y-79142178D01*
X90077409Y-79142178D02*
X90044076Y-79175512D01*
X89444076Y-79342178D02*
X89444076Y-79808845D01*
X89610743Y-79075512D02*
X89777409Y-79575512D01*
X89777409Y-79575512D02*
X89344076Y-79575512D01*
X118349864Y-101569366D02*
X118383197Y-101602700D01*
X118383197Y-101602700D02*
X118483197Y-101636033D01*
X118483197Y-101636033D02*
X118549864Y-101636033D01*
X118549864Y-101636033D02*
X118649864Y-101602700D01*
X118649864Y-101602700D02*
X118716531Y-101536033D01*
X118716531Y-101536033D02*
X118749864Y-101469366D01*
X118749864Y-101469366D02*
X118783197Y-101336033D01*
X118783197Y-101336033D02*
X118783197Y-101236033D01*
X118783197Y-101236033D02*
X118749864Y-101102700D01*
X118749864Y-101102700D02*
X118716531Y-101036033D01*
X118716531Y-101036033D02*
X118649864Y-100969366D01*
X118649864Y-100969366D02*
X118549864Y-100936033D01*
X118549864Y-100936033D02*
X118483197Y-100936033D01*
X118483197Y-100936033D02*
X118383197Y-100969366D01*
X118383197Y-100969366D02*
X118349864Y-101002700D01*
X117683197Y-101636033D02*
X118083197Y-101636033D01*
X117883197Y-101636033D02*
X117883197Y-100936033D01*
X117883197Y-100936033D02*
X117949864Y-101036033D01*
X117949864Y-101036033D02*
X118016531Y-101102700D01*
X118016531Y-101102700D02*
X118083197Y-101136033D01*
X107803532Y-85519366D02*
X107836865Y-85552700D01*
X107836865Y-85552700D02*
X107936865Y-85586033D01*
X107936865Y-85586033D02*
X108003532Y-85586033D01*
X108003532Y-85586033D02*
X108103532Y-85552700D01*
X108103532Y-85552700D02*
X108170199Y-85486033D01*
X108170199Y-85486033D02*
X108203532Y-85419366D01*
X108203532Y-85419366D02*
X108236865Y-85286033D01*
X108236865Y-85286033D02*
X108236865Y-85186033D01*
X108236865Y-85186033D02*
X108203532Y-85052700D01*
X108203532Y-85052700D02*
X108170199Y-84986033D01*
X108170199Y-84986033D02*
X108103532Y-84919366D01*
X108103532Y-84919366D02*
X108003532Y-84886033D01*
X108003532Y-84886033D02*
X107936865Y-84886033D01*
X107936865Y-84886033D02*
X107836865Y-84919366D01*
X107836865Y-84919366D02*
X107803532Y-84952700D01*
X107670199Y-85652700D02*
X107136865Y-85652700D01*
X106736866Y-85219366D02*
X106970199Y-85219366D01*
X106970199Y-85586033D02*
X106970199Y-84886033D01*
X106970199Y-84886033D02*
X106636866Y-84886033D01*
X106370199Y-85586033D02*
X106370199Y-84886033D01*
X105703533Y-85586033D02*
X106036866Y-85586033D01*
X106036866Y-85586033D02*
X106036866Y-84886033D01*
X105570199Y-84886033D02*
X105170199Y-84886033D01*
X105370199Y-85586033D02*
X105370199Y-84886033D01*
X104570199Y-85586033D02*
X104970199Y-85586033D01*
X104770199Y-85586033D02*
X104770199Y-84886033D01*
X104770199Y-84886033D02*
X104836866Y-84986033D01*
X104836866Y-84986033D02*
X104903533Y-85052700D01*
X104903533Y-85052700D02*
X104970199Y-85086033D01*
X90044076Y-85827013D02*
X90077409Y-85860347D01*
X90077409Y-85860347D02*
X90177409Y-85893680D01*
X90177409Y-85893680D02*
X90244076Y-85893680D01*
X90244076Y-85893680D02*
X90344076Y-85860347D01*
X90344076Y-85860347D02*
X90410743Y-85793680D01*
X90410743Y-85793680D02*
X90444076Y-85727013D01*
X90444076Y-85727013D02*
X90477409Y-85593680D01*
X90477409Y-85593680D02*
X90477409Y-85493680D01*
X90477409Y-85493680D02*
X90444076Y-85360347D01*
X90444076Y-85360347D02*
X90410743Y-85293680D01*
X90410743Y-85293680D02*
X90344076Y-85227013D01*
X90344076Y-85227013D02*
X90244076Y-85193680D01*
X90244076Y-85193680D02*
X90177409Y-85193680D01*
X90177409Y-85193680D02*
X90077409Y-85227013D01*
X90077409Y-85227013D02*
X90044076Y-85260347D01*
X89444076Y-85193680D02*
X89577409Y-85193680D01*
X89577409Y-85193680D02*
X89644076Y-85227013D01*
X89644076Y-85227013D02*
X89677409Y-85260347D01*
X89677409Y-85260347D02*
X89744076Y-85360347D01*
X89744076Y-85360347D02*
X89777409Y-85493680D01*
X89777409Y-85493680D02*
X89777409Y-85760347D01*
X89777409Y-85760347D02*
X89744076Y-85827013D01*
X89744076Y-85827013D02*
X89710743Y-85860347D01*
X89710743Y-85860347D02*
X89644076Y-85893680D01*
X89644076Y-85893680D02*
X89510743Y-85893680D01*
X89510743Y-85893680D02*
X89444076Y-85860347D01*
X89444076Y-85860347D02*
X89410743Y-85827013D01*
X89410743Y-85827013D02*
X89377409Y-85760347D01*
X89377409Y-85760347D02*
X89377409Y-85593680D01*
X89377409Y-85593680D02*
X89410743Y-85527013D01*
X89410743Y-85527013D02*
X89444076Y-85493680D01*
X89444076Y-85493680D02*
X89510743Y-85460347D01*
X89510743Y-85460347D02*
X89644076Y-85460347D01*
X89644076Y-85460347D02*
X89710743Y-85493680D01*
X89710743Y-85493680D02*
X89744076Y-85527013D01*
X89744076Y-85527013D02*
X89777409Y-85593680D01*
X121442968Y-64316033D02*
X121676301Y-63982700D01*
X121842968Y-64316033D02*
X121842968Y-63616033D01*
X121842968Y-63616033D02*
X121576301Y-63616033D01*
X121576301Y-63616033D02*
X121509635Y-63649366D01*
X121509635Y-63649366D02*
X121476301Y-63682700D01*
X121476301Y-63682700D02*
X121442968Y-63749366D01*
X121442968Y-63749366D02*
X121442968Y-63849366D01*
X121442968Y-63849366D02*
X121476301Y-63916033D01*
X121476301Y-63916033D02*
X121509635Y-63949366D01*
X121509635Y-63949366D02*
X121576301Y-63982700D01*
X121576301Y-63982700D02*
X121842968Y-63982700D01*
X120842968Y-63616033D02*
X120976301Y-63616033D01*
X120976301Y-63616033D02*
X121042968Y-63649366D01*
X121042968Y-63649366D02*
X121076301Y-63682700D01*
X121076301Y-63682700D02*
X121142968Y-63782700D01*
X121142968Y-63782700D02*
X121176301Y-63916033D01*
X121176301Y-63916033D02*
X121176301Y-64182700D01*
X121176301Y-64182700D02*
X121142968Y-64249366D01*
X121142968Y-64249366D02*
X121109635Y-64282700D01*
X121109635Y-64282700D02*
X121042968Y-64316033D01*
X121042968Y-64316033D02*
X120909635Y-64316033D01*
X120909635Y-64316033D02*
X120842968Y-64282700D01*
X120842968Y-64282700D02*
X120809635Y-64249366D01*
X120809635Y-64249366D02*
X120776301Y-64182700D01*
X120776301Y-64182700D02*
X120776301Y-64016033D01*
X120776301Y-64016033D02*
X120809635Y-63949366D01*
X120809635Y-63949366D02*
X120842968Y-63916033D01*
X120842968Y-63916033D02*
X120909635Y-63882700D01*
X120909635Y-63882700D02*
X121042968Y-63882700D01*
X121042968Y-63882700D02*
X121109635Y-63916033D01*
X121109635Y-63916033D02*
X121142968Y-63949366D01*
X121142968Y-63949366D02*
X121176301Y-64016033D01*
X92105889Y-62167298D02*
X92339222Y-61833965D01*
X92505889Y-62167298D02*
X92505889Y-61467298D01*
X92505889Y-61467298D02*
X92239222Y-61467298D01*
X92239222Y-61467298D02*
X92172556Y-61500631D01*
X92172556Y-61500631D02*
X92139222Y-61533965D01*
X92139222Y-61533965D02*
X92105889Y-61600631D01*
X92105889Y-61600631D02*
X92105889Y-61700631D01*
X92105889Y-61700631D02*
X92139222Y-61767298D01*
X92139222Y-61767298D02*
X92172556Y-61800631D01*
X92172556Y-61800631D02*
X92239222Y-61833965D01*
X92239222Y-61833965D02*
X92505889Y-61833965D01*
X91472556Y-61467298D02*
X91805889Y-61467298D01*
X91805889Y-61467298D02*
X91839222Y-61800631D01*
X91839222Y-61800631D02*
X91805889Y-61767298D01*
X91805889Y-61767298D02*
X91739222Y-61733965D01*
X91739222Y-61733965D02*
X91572556Y-61733965D01*
X91572556Y-61733965D02*
X91505889Y-61767298D01*
X91505889Y-61767298D02*
X91472556Y-61800631D01*
X91472556Y-61800631D02*
X91439222Y-61867298D01*
X91439222Y-61867298D02*
X91439222Y-62033965D01*
X91439222Y-62033965D02*
X91472556Y-62100631D01*
X91472556Y-62100631D02*
X91505889Y-62133965D01*
X91505889Y-62133965D02*
X91572556Y-62167298D01*
X91572556Y-62167298D02*
X91739222Y-62167298D01*
X91739222Y-62167298D02*
X91805889Y-62133965D01*
X91805889Y-62133965D02*
X91839222Y-62100631D01*
X113532516Y-71833650D02*
X113565849Y-71866984D01*
X113565849Y-71866984D02*
X113665849Y-71900317D01*
X113665849Y-71900317D02*
X113732516Y-71900317D01*
X113732516Y-71900317D02*
X113832516Y-71866984D01*
X113832516Y-71866984D02*
X113899183Y-71800317D01*
X113899183Y-71800317D02*
X113932516Y-71733650D01*
X113932516Y-71733650D02*
X113965849Y-71600317D01*
X113965849Y-71600317D02*
X113965849Y-71500317D01*
X113965849Y-71500317D02*
X113932516Y-71366984D01*
X113932516Y-71366984D02*
X113899183Y-71300317D01*
X113899183Y-71300317D02*
X113832516Y-71233650D01*
X113832516Y-71233650D02*
X113732516Y-71200317D01*
X113732516Y-71200317D02*
X113665849Y-71200317D01*
X113665849Y-71200317D02*
X113565849Y-71233650D01*
X113565849Y-71233650D02*
X113532516Y-71266984D01*
X113399183Y-71966984D02*
X112865849Y-71966984D01*
X112799183Y-71200317D02*
X112565850Y-71900317D01*
X112565850Y-71900317D02*
X112332516Y-71200317D01*
X112099183Y-71900317D02*
X112099183Y-71200317D01*
X112099183Y-71200317D02*
X111865850Y-71700317D01*
X111865850Y-71700317D02*
X111632516Y-71200317D01*
X111632516Y-71200317D02*
X111632516Y-71900317D01*
X111465850Y-71966984D02*
X110932516Y-71966984D01*
X110799183Y-71700317D02*
X110465850Y-71700317D01*
X110865850Y-71900317D02*
X110632517Y-71200317D01*
X110632517Y-71200317D02*
X110399183Y-71900317D01*
X109799183Y-71900317D02*
X110199183Y-71900317D01*
X109999183Y-71900317D02*
X109999183Y-71200317D01*
X109999183Y-71200317D02*
X110065850Y-71300317D01*
X110065850Y-71300317D02*
X110132517Y-71366984D01*
X110132517Y-71366984D02*
X110199183Y-71400317D01*
X116922120Y-57249366D02*
X116955453Y-57282700D01*
X116955453Y-57282700D02*
X117055453Y-57316033D01*
X117055453Y-57316033D02*
X117122120Y-57316033D01*
X117122120Y-57316033D02*
X117222120Y-57282700D01*
X117222120Y-57282700D02*
X117288787Y-57216033D01*
X117288787Y-57216033D02*
X117322120Y-57149366D01*
X117322120Y-57149366D02*
X117355453Y-57016033D01*
X117355453Y-57016033D02*
X117355453Y-56916033D01*
X117355453Y-56916033D02*
X117322120Y-56782700D01*
X117322120Y-56782700D02*
X117288787Y-56716033D01*
X117288787Y-56716033D02*
X117222120Y-56649366D01*
X117222120Y-56649366D02*
X117122120Y-56616033D01*
X117122120Y-56616033D02*
X117055453Y-56616033D01*
X117055453Y-56616033D02*
X116955453Y-56649366D01*
X116955453Y-56649366D02*
X116922120Y-56682700D01*
X116788787Y-57382700D02*
X116255453Y-57382700D01*
X116088787Y-57316033D02*
X116088787Y-56616033D01*
X115788787Y-57282700D02*
X115688787Y-57316033D01*
X115688787Y-57316033D02*
X115522121Y-57316033D01*
X115522121Y-57316033D02*
X115455454Y-57282700D01*
X115455454Y-57282700D02*
X115422121Y-57249366D01*
X115422121Y-57249366D02*
X115388787Y-57182700D01*
X115388787Y-57182700D02*
X115388787Y-57116033D01*
X115388787Y-57116033D02*
X115422121Y-57049366D01*
X115422121Y-57049366D02*
X115455454Y-57016033D01*
X115455454Y-57016033D02*
X115522121Y-56982700D01*
X115522121Y-56982700D02*
X115655454Y-56949366D01*
X115655454Y-56949366D02*
X115722121Y-56916033D01*
X115722121Y-56916033D02*
X115755454Y-56882700D01*
X115755454Y-56882700D02*
X115788787Y-56816033D01*
X115788787Y-56816033D02*
X115788787Y-56749366D01*
X115788787Y-56749366D02*
X115755454Y-56682700D01*
X115755454Y-56682700D02*
X115722121Y-56649366D01*
X115722121Y-56649366D02*
X115655454Y-56616033D01*
X115655454Y-56616033D02*
X115488787Y-56616033D01*
X115488787Y-56616033D02*
X115388787Y-56649366D01*
X114955454Y-56616033D02*
X114822120Y-56616033D01*
X114822120Y-56616033D02*
X114755454Y-56649366D01*
X114755454Y-56649366D02*
X114688787Y-56716033D01*
X114688787Y-56716033D02*
X114655454Y-56849366D01*
X114655454Y-56849366D02*
X114655454Y-57082700D01*
X114655454Y-57082700D02*
X114688787Y-57216033D01*
X114688787Y-57216033D02*
X114755454Y-57282700D01*
X114755454Y-57282700D02*
X114822120Y-57316033D01*
X114822120Y-57316033D02*
X114955454Y-57316033D01*
X114955454Y-57316033D02*
X115022120Y-57282700D01*
X115022120Y-57282700D02*
X115088787Y-57216033D01*
X115088787Y-57216033D02*
X115122120Y-57082700D01*
X115122120Y-57082700D02*
X115122120Y-56849366D01*
X115122120Y-56849366D02*
X115088787Y-56716033D01*
X115088787Y-56716033D02*
X115022120Y-56649366D01*
X115022120Y-56649366D02*
X114955454Y-56616033D01*
X114522121Y-57382700D02*
X113988787Y-57382700D01*
X113588788Y-56949366D02*
X113488788Y-56982700D01*
X113488788Y-56982700D02*
X113455454Y-57016033D01*
X113455454Y-57016033D02*
X113422121Y-57082700D01*
X113422121Y-57082700D02*
X113422121Y-57182700D01*
X113422121Y-57182700D02*
X113455454Y-57249366D01*
X113455454Y-57249366D02*
X113488788Y-57282700D01*
X113488788Y-57282700D02*
X113555454Y-57316033D01*
X113555454Y-57316033D02*
X113822121Y-57316033D01*
X113822121Y-57316033D02*
X113822121Y-56616033D01*
X113822121Y-56616033D02*
X113588788Y-56616033D01*
X113588788Y-56616033D02*
X113522121Y-56649366D01*
X113522121Y-56649366D02*
X113488788Y-56682700D01*
X113488788Y-56682700D02*
X113455454Y-56749366D01*
X113455454Y-56749366D02*
X113455454Y-56816033D01*
X113455454Y-56816033D02*
X113488788Y-56882700D01*
X113488788Y-56882700D02*
X113522121Y-56916033D01*
X113522121Y-56916033D02*
X113588788Y-56949366D01*
X113588788Y-56949366D02*
X113822121Y-56949366D01*
X112755454Y-57316033D02*
X113155454Y-57316033D01*
X112955454Y-57316033D02*
X112955454Y-56616033D01*
X112955454Y-56616033D02*
X113022121Y-56716033D01*
X113022121Y-56716033D02*
X113088788Y-56782700D01*
X113088788Y-56782700D02*
X113155454Y-56816033D01*
X132808979Y-76851473D02*
X132808979Y-76151473D01*
X132808979Y-76151473D02*
X132642312Y-76151473D01*
X132642312Y-76151473D02*
X132542312Y-76184806D01*
X132542312Y-76184806D02*
X132475646Y-76251473D01*
X132475646Y-76251473D02*
X132442312Y-76318140D01*
X132442312Y-76318140D02*
X132408979Y-76451473D01*
X132408979Y-76451473D02*
X132408979Y-76551473D01*
X132408979Y-76551473D02*
X132442312Y-76684806D01*
X132442312Y-76684806D02*
X132475646Y-76751473D01*
X132475646Y-76751473D02*
X132542312Y-76818140D01*
X132542312Y-76818140D02*
X132642312Y-76851473D01*
X132642312Y-76851473D02*
X132808979Y-76851473D01*
X132175646Y-76151473D02*
X131708979Y-76151473D01*
X131708979Y-76151473D02*
X132008979Y-76851473D01*
X131981227Y-52192226D02*
X131981227Y-51492226D01*
X131981227Y-51492226D02*
X131814560Y-51492226D01*
X131814560Y-51492226D02*
X131714560Y-51525559D01*
X131714560Y-51525559D02*
X131647894Y-51592226D01*
X131647894Y-51592226D02*
X131614560Y-51658893D01*
X131614560Y-51658893D02*
X131581227Y-51792226D01*
X131581227Y-51792226D02*
X131581227Y-51892226D01*
X131581227Y-51892226D02*
X131614560Y-52025559D01*
X131614560Y-52025559D02*
X131647894Y-52092226D01*
X131647894Y-52092226D02*
X131714560Y-52158893D01*
X131714560Y-52158893D02*
X131814560Y-52192226D01*
X131814560Y-52192226D02*
X131981227Y-52192226D01*
X130981227Y-51725559D02*
X130981227Y-52192226D01*
X131147894Y-51458893D02*
X131314560Y-51958893D01*
X131314560Y-51958893D02*
X130881227Y-51958893D01*
X113472496Y-75307915D02*
X113505829Y-75341249D01*
X113505829Y-75341249D02*
X113605829Y-75374582D01*
X113605829Y-75374582D02*
X113672496Y-75374582D01*
X113672496Y-75374582D02*
X113772496Y-75341249D01*
X113772496Y-75341249D02*
X113839163Y-75274582D01*
X113839163Y-75274582D02*
X113872496Y-75207915D01*
X113872496Y-75207915D02*
X113905829Y-75074582D01*
X113905829Y-75074582D02*
X113905829Y-74974582D01*
X113905829Y-74974582D02*
X113872496Y-74841249D01*
X113872496Y-74841249D02*
X113839163Y-74774582D01*
X113839163Y-74774582D02*
X113772496Y-74707915D01*
X113772496Y-74707915D02*
X113672496Y-74674582D01*
X113672496Y-74674582D02*
X113605829Y-74674582D01*
X113605829Y-74674582D02*
X113505829Y-74707915D01*
X113505829Y-74707915D02*
X113472496Y-74741249D01*
X113339163Y-75441249D02*
X112805829Y-75441249D01*
X112739163Y-74674582D02*
X112505830Y-75374582D01*
X112505830Y-75374582D02*
X112272496Y-74674582D01*
X112039163Y-75374582D02*
X112039163Y-74674582D01*
X112039163Y-74674582D02*
X111805830Y-75174582D01*
X111805830Y-75174582D02*
X111572496Y-74674582D01*
X111572496Y-74674582D02*
X111572496Y-75374582D01*
X111405830Y-75441249D02*
X110872496Y-75441249D01*
X110472497Y-75007915D02*
X110372497Y-75041249D01*
X110372497Y-75041249D02*
X110339163Y-75074582D01*
X110339163Y-75074582D02*
X110305830Y-75141249D01*
X110305830Y-75141249D02*
X110305830Y-75241249D01*
X110305830Y-75241249D02*
X110339163Y-75307915D01*
X110339163Y-75307915D02*
X110372497Y-75341249D01*
X110372497Y-75341249D02*
X110439163Y-75374582D01*
X110439163Y-75374582D02*
X110705830Y-75374582D01*
X110705830Y-75374582D02*
X110705830Y-74674582D01*
X110705830Y-74674582D02*
X110472497Y-74674582D01*
X110472497Y-74674582D02*
X110405830Y-74707915D01*
X110405830Y-74707915D02*
X110372497Y-74741249D01*
X110372497Y-74741249D02*
X110339163Y-74807915D01*
X110339163Y-74807915D02*
X110339163Y-74874582D01*
X110339163Y-74874582D02*
X110372497Y-74941249D01*
X110372497Y-74941249D02*
X110405830Y-74974582D01*
X110405830Y-74974582D02*
X110472497Y-75007915D01*
X110472497Y-75007915D02*
X110705830Y-75007915D01*
X110039163Y-74741249D02*
X110005830Y-74707915D01*
X110005830Y-74707915D02*
X109939163Y-74674582D01*
X109939163Y-74674582D02*
X109772497Y-74674582D01*
X109772497Y-74674582D02*
X109705830Y-74707915D01*
X109705830Y-74707915D02*
X109672497Y-74741249D01*
X109672497Y-74741249D02*
X109639163Y-74807915D01*
X109639163Y-74807915D02*
X109639163Y-74874582D01*
X109639163Y-74874582D02*
X109672497Y-74974582D01*
X109672497Y-74974582D02*
X110072497Y-75374582D01*
X110072497Y-75374582D02*
X109639163Y-75374582D01*
X112979327Y-66673963D02*
X113012660Y-66707297D01*
X113012660Y-66707297D02*
X113112660Y-66740630D01*
X113112660Y-66740630D02*
X113179327Y-66740630D01*
X113179327Y-66740630D02*
X113279327Y-66707297D01*
X113279327Y-66707297D02*
X113345994Y-66640630D01*
X113345994Y-66640630D02*
X113379327Y-66573963D01*
X113379327Y-66573963D02*
X113412660Y-66440630D01*
X113412660Y-66440630D02*
X113412660Y-66340630D01*
X113412660Y-66340630D02*
X113379327Y-66207297D01*
X113379327Y-66207297D02*
X113345994Y-66140630D01*
X113345994Y-66140630D02*
X113279327Y-66073963D01*
X113279327Y-66073963D02*
X113179327Y-66040630D01*
X113179327Y-66040630D02*
X113112660Y-66040630D01*
X113112660Y-66040630D02*
X113012660Y-66073963D01*
X113012660Y-66073963D02*
X112979327Y-66107297D01*
X112845994Y-66807297D02*
X112312660Y-66807297D01*
X112145994Y-66740630D02*
X112145994Y-66040630D01*
X111845994Y-66707297D02*
X111745994Y-66740630D01*
X111745994Y-66740630D02*
X111579328Y-66740630D01*
X111579328Y-66740630D02*
X111512661Y-66707297D01*
X111512661Y-66707297D02*
X111479328Y-66673963D01*
X111479328Y-66673963D02*
X111445994Y-66607297D01*
X111445994Y-66607297D02*
X111445994Y-66540630D01*
X111445994Y-66540630D02*
X111479328Y-66473963D01*
X111479328Y-66473963D02*
X111512661Y-66440630D01*
X111512661Y-66440630D02*
X111579328Y-66407297D01*
X111579328Y-66407297D02*
X111712661Y-66373963D01*
X111712661Y-66373963D02*
X111779328Y-66340630D01*
X111779328Y-66340630D02*
X111812661Y-66307297D01*
X111812661Y-66307297D02*
X111845994Y-66240630D01*
X111845994Y-66240630D02*
X111845994Y-66173963D01*
X111845994Y-66173963D02*
X111812661Y-66107297D01*
X111812661Y-66107297D02*
X111779328Y-66073963D01*
X111779328Y-66073963D02*
X111712661Y-66040630D01*
X111712661Y-66040630D02*
X111545994Y-66040630D01*
X111545994Y-66040630D02*
X111445994Y-66073963D01*
X111012661Y-66040630D02*
X110879327Y-66040630D01*
X110879327Y-66040630D02*
X110812661Y-66073963D01*
X110812661Y-66073963D02*
X110745994Y-66140630D01*
X110745994Y-66140630D02*
X110712661Y-66273963D01*
X110712661Y-66273963D02*
X110712661Y-66507297D01*
X110712661Y-66507297D02*
X110745994Y-66640630D01*
X110745994Y-66640630D02*
X110812661Y-66707297D01*
X110812661Y-66707297D02*
X110879327Y-66740630D01*
X110879327Y-66740630D02*
X111012661Y-66740630D01*
X111012661Y-66740630D02*
X111079327Y-66707297D01*
X111079327Y-66707297D02*
X111145994Y-66640630D01*
X111145994Y-66640630D02*
X111179327Y-66507297D01*
X111179327Y-66507297D02*
X111179327Y-66273963D01*
X111179327Y-66273963D02*
X111145994Y-66140630D01*
X111145994Y-66140630D02*
X111079327Y-66073963D01*
X111079327Y-66073963D02*
X111012661Y-66040630D01*
X110579328Y-66807297D02*
X110045994Y-66807297D01*
X109479328Y-66673963D02*
X109512661Y-66707297D01*
X109512661Y-66707297D02*
X109612661Y-66740630D01*
X109612661Y-66740630D02*
X109679328Y-66740630D01*
X109679328Y-66740630D02*
X109779328Y-66707297D01*
X109779328Y-66707297D02*
X109845995Y-66640630D01*
X109845995Y-66640630D02*
X109879328Y-66573963D01*
X109879328Y-66573963D02*
X109912661Y-66440630D01*
X109912661Y-66440630D02*
X109912661Y-66340630D01*
X109912661Y-66340630D02*
X109879328Y-66207297D01*
X109879328Y-66207297D02*
X109845995Y-66140630D01*
X109845995Y-66140630D02*
X109779328Y-66073963D01*
X109779328Y-66073963D02*
X109679328Y-66040630D01*
X109679328Y-66040630D02*
X109612661Y-66040630D01*
X109612661Y-66040630D02*
X109512661Y-66073963D01*
X109512661Y-66073963D02*
X109479328Y-66107297D01*
X108812661Y-66740630D02*
X109212661Y-66740630D01*
X109012661Y-66740630D02*
X109012661Y-66040630D01*
X109012661Y-66040630D02*
X109079328Y-66140630D01*
X109079328Y-66140630D02*
X109145995Y-66207297D01*
X109145995Y-66207297D02*
X109212661Y-66240630D01*
X124622204Y-64013230D02*
X124855537Y-63679897D01*
X125022204Y-64013230D02*
X125022204Y-63313230D01*
X125022204Y-63313230D02*
X124755537Y-63313230D01*
X124755537Y-63313230D02*
X124688871Y-63346563D01*
X124688871Y-63346563D02*
X124655537Y-63379897D01*
X124655537Y-63379897D02*
X124622204Y-63446563D01*
X124622204Y-63446563D02*
X124622204Y-63546563D01*
X124622204Y-63546563D02*
X124655537Y-63613230D01*
X124655537Y-63613230D02*
X124688871Y-63646563D01*
X124688871Y-63646563D02*
X124755537Y-63679897D01*
X124755537Y-63679897D02*
X125022204Y-63679897D01*
X124388871Y-63313230D02*
X123922204Y-63313230D01*
X123922204Y-63313230D02*
X124222204Y-64013230D01*
X98772191Y-62249366D02*
X98805524Y-62282700D01*
X98805524Y-62282700D02*
X98905524Y-62316033D01*
X98905524Y-62316033D02*
X98972191Y-62316033D01*
X98972191Y-62316033D02*
X99072191Y-62282700D01*
X99072191Y-62282700D02*
X99138858Y-62216033D01*
X99138858Y-62216033D02*
X99172191Y-62149366D01*
X99172191Y-62149366D02*
X99205524Y-62016033D01*
X99205524Y-62016033D02*
X99205524Y-61916033D01*
X99205524Y-61916033D02*
X99172191Y-61782700D01*
X99172191Y-61782700D02*
X99138858Y-61716033D01*
X99138858Y-61716033D02*
X99072191Y-61649366D01*
X99072191Y-61649366D02*
X98972191Y-61616033D01*
X98972191Y-61616033D02*
X98905524Y-61616033D01*
X98905524Y-61616033D02*
X98805524Y-61649366D01*
X98805524Y-61649366D02*
X98772191Y-61682700D01*
X98372191Y-61916033D02*
X98438858Y-61882700D01*
X98438858Y-61882700D02*
X98472191Y-61849366D01*
X98472191Y-61849366D02*
X98505524Y-61782700D01*
X98505524Y-61782700D02*
X98505524Y-61749366D01*
X98505524Y-61749366D02*
X98472191Y-61682700D01*
X98472191Y-61682700D02*
X98438858Y-61649366D01*
X98438858Y-61649366D02*
X98372191Y-61616033D01*
X98372191Y-61616033D02*
X98238858Y-61616033D01*
X98238858Y-61616033D02*
X98172191Y-61649366D01*
X98172191Y-61649366D02*
X98138858Y-61682700D01*
X98138858Y-61682700D02*
X98105524Y-61749366D01*
X98105524Y-61749366D02*
X98105524Y-61782700D01*
X98105524Y-61782700D02*
X98138858Y-61849366D01*
X98138858Y-61849366D02*
X98172191Y-61882700D01*
X98172191Y-61882700D02*
X98238858Y-61916033D01*
X98238858Y-61916033D02*
X98372191Y-61916033D01*
X98372191Y-61916033D02*
X98438858Y-61949366D01*
X98438858Y-61949366D02*
X98472191Y-61982700D01*
X98472191Y-61982700D02*
X98505524Y-62049366D01*
X98505524Y-62049366D02*
X98505524Y-62182700D01*
X98505524Y-62182700D02*
X98472191Y-62249366D01*
X98472191Y-62249366D02*
X98438858Y-62282700D01*
X98438858Y-62282700D02*
X98372191Y-62316033D01*
X98372191Y-62316033D02*
X98238858Y-62316033D01*
X98238858Y-62316033D02*
X98172191Y-62282700D01*
X98172191Y-62282700D02*
X98138858Y-62249366D01*
X98138858Y-62249366D02*
X98105524Y-62182700D01*
X98105524Y-62182700D02*
X98105524Y-62049366D01*
X98105524Y-62049366D02*
X98138858Y-61982700D01*
X98138858Y-61982700D02*
X98172191Y-61949366D01*
X98172191Y-61949366D02*
X98238858Y-61916033D01*
X124586851Y-78251487D02*
X124620184Y-78284821D01*
X124620184Y-78284821D02*
X124720184Y-78318154D01*
X124720184Y-78318154D02*
X124786851Y-78318154D01*
X124786851Y-78318154D02*
X124886851Y-78284821D01*
X124886851Y-78284821D02*
X124953518Y-78218154D01*
X124953518Y-78218154D02*
X124986851Y-78151487D01*
X124986851Y-78151487D02*
X125020184Y-78018154D01*
X125020184Y-78018154D02*
X125020184Y-77918154D01*
X125020184Y-77918154D02*
X124986851Y-77784821D01*
X124986851Y-77784821D02*
X124953518Y-77718154D01*
X124953518Y-77718154D02*
X124886851Y-77651487D01*
X124886851Y-77651487D02*
X124786851Y-77618154D01*
X124786851Y-77618154D02*
X124720184Y-77618154D01*
X124720184Y-77618154D02*
X124620184Y-77651487D01*
X124620184Y-77651487D02*
X124586851Y-77684821D01*
X123920184Y-78318154D02*
X124320184Y-78318154D01*
X124120184Y-78318154D02*
X124120184Y-77618154D01*
X124120184Y-77618154D02*
X124186851Y-77718154D01*
X124186851Y-77718154D02*
X124253518Y-77784821D01*
X124253518Y-77784821D02*
X124320184Y-77818154D01*
X123486851Y-77618154D02*
X123420184Y-77618154D01*
X123420184Y-77618154D02*
X123353517Y-77651487D01*
X123353517Y-77651487D02*
X123320184Y-77684821D01*
X123320184Y-77684821D02*
X123286851Y-77751487D01*
X123286851Y-77751487D02*
X123253517Y-77884821D01*
X123253517Y-77884821D02*
X123253517Y-78051487D01*
X123253517Y-78051487D02*
X123286851Y-78184821D01*
X123286851Y-78184821D02*
X123320184Y-78251487D01*
X123320184Y-78251487D02*
X123353517Y-78284821D01*
X123353517Y-78284821D02*
X123420184Y-78318154D01*
X123420184Y-78318154D02*
X123486851Y-78318154D01*
X123486851Y-78318154D02*
X123553517Y-78284821D01*
X123553517Y-78284821D02*
X123586851Y-78251487D01*
X123586851Y-78251487D02*
X123620184Y-78184821D01*
X123620184Y-78184821D02*
X123653517Y-78051487D01*
X123653517Y-78051487D02*
X123653517Y-77884821D01*
X123653517Y-77884821D02*
X123620184Y-77751487D01*
X123620184Y-77751487D02*
X123586851Y-77684821D01*
X123586851Y-77684821D02*
X123553517Y-77651487D01*
X123553517Y-77651487D02*
X123486851Y-77618154D01*
X127516666Y-89316033D02*
X127516666Y-88616033D01*
X127516666Y-88616033D02*
X127349999Y-88616033D01*
X127349999Y-88616033D02*
X127249999Y-88649366D01*
X127249999Y-88649366D02*
X127183333Y-88716033D01*
X127183333Y-88716033D02*
X127149999Y-88782700D01*
X127149999Y-88782700D02*
X127116666Y-88916033D01*
X127116666Y-88916033D02*
X127116666Y-89016033D01*
X127116666Y-89016033D02*
X127149999Y-89149366D01*
X127149999Y-89149366D02*
X127183333Y-89216033D01*
X127183333Y-89216033D02*
X127249999Y-89282700D01*
X127249999Y-89282700D02*
X127349999Y-89316033D01*
X127349999Y-89316033D02*
X127516666Y-89316033D01*
X126483333Y-88616033D02*
X126816666Y-88616033D01*
X126816666Y-88616033D02*
X126849999Y-88949366D01*
X126849999Y-88949366D02*
X126816666Y-88916033D01*
X126816666Y-88916033D02*
X126749999Y-88882700D01*
X126749999Y-88882700D02*
X126583333Y-88882700D01*
X126583333Y-88882700D02*
X126516666Y-88916033D01*
X126516666Y-88916033D02*
X126483333Y-88949366D01*
X126483333Y-88949366D02*
X126449999Y-89016033D01*
X126449999Y-89016033D02*
X126449999Y-89182700D01*
X126449999Y-89182700D02*
X126483333Y-89249366D01*
X126483333Y-89249366D02*
X126516666Y-89282700D01*
X126516666Y-89282700D02*
X126583333Y-89316033D01*
X126583333Y-89316033D02*
X126749999Y-89316033D01*
X126749999Y-89316033D02*
X126816666Y-89282700D01*
X126816666Y-89282700D02*
X126849999Y-89249366D01*
X108802906Y-72229294D02*
X108836239Y-72262628D01*
X108836239Y-72262628D02*
X108936239Y-72295961D01*
X108936239Y-72295961D02*
X109002906Y-72295961D01*
X109002906Y-72295961D02*
X109102906Y-72262628D01*
X109102906Y-72262628D02*
X109169573Y-72195961D01*
X109169573Y-72195961D02*
X109202906Y-72129294D01*
X109202906Y-72129294D02*
X109236239Y-71995961D01*
X109236239Y-71995961D02*
X109236239Y-71895961D01*
X109236239Y-71895961D02*
X109202906Y-71762628D01*
X109202906Y-71762628D02*
X109169573Y-71695961D01*
X109169573Y-71695961D02*
X109102906Y-71629294D01*
X109102906Y-71629294D02*
X109002906Y-71595961D01*
X109002906Y-71595961D02*
X108936239Y-71595961D01*
X108936239Y-71595961D02*
X108836239Y-71629294D01*
X108836239Y-71629294D02*
X108802906Y-71662628D01*
X108669573Y-72362628D02*
X108136239Y-72362628D01*
X107969573Y-72295961D02*
X107969573Y-71595961D01*
X107669573Y-72262628D02*
X107569573Y-72295961D01*
X107569573Y-72295961D02*
X107402907Y-72295961D01*
X107402907Y-72295961D02*
X107336240Y-72262628D01*
X107336240Y-72262628D02*
X107302907Y-72229294D01*
X107302907Y-72229294D02*
X107269573Y-72162628D01*
X107269573Y-72162628D02*
X107269573Y-72095961D01*
X107269573Y-72095961D02*
X107302907Y-72029294D01*
X107302907Y-72029294D02*
X107336240Y-71995961D01*
X107336240Y-71995961D02*
X107402907Y-71962628D01*
X107402907Y-71962628D02*
X107536240Y-71929294D01*
X107536240Y-71929294D02*
X107602907Y-71895961D01*
X107602907Y-71895961D02*
X107636240Y-71862628D01*
X107636240Y-71862628D02*
X107669573Y-71795961D01*
X107669573Y-71795961D02*
X107669573Y-71729294D01*
X107669573Y-71729294D02*
X107636240Y-71662628D01*
X107636240Y-71662628D02*
X107602907Y-71629294D01*
X107602907Y-71629294D02*
X107536240Y-71595961D01*
X107536240Y-71595961D02*
X107369573Y-71595961D01*
X107369573Y-71595961D02*
X107269573Y-71629294D01*
X106836240Y-71595961D02*
X106702906Y-71595961D01*
X106702906Y-71595961D02*
X106636240Y-71629294D01*
X106636240Y-71629294D02*
X106569573Y-71695961D01*
X106569573Y-71695961D02*
X106536240Y-71829294D01*
X106536240Y-71829294D02*
X106536240Y-72062628D01*
X106536240Y-72062628D02*
X106569573Y-72195961D01*
X106569573Y-72195961D02*
X106636240Y-72262628D01*
X106636240Y-72262628D02*
X106702906Y-72295961D01*
X106702906Y-72295961D02*
X106836240Y-72295961D01*
X106836240Y-72295961D02*
X106902906Y-72262628D01*
X106902906Y-72262628D02*
X106969573Y-72195961D01*
X106969573Y-72195961D02*
X107002906Y-72062628D01*
X107002906Y-72062628D02*
X107002906Y-71829294D01*
X107002906Y-71829294D02*
X106969573Y-71695961D01*
X106969573Y-71695961D02*
X106902906Y-71629294D01*
X106902906Y-71629294D02*
X106836240Y-71595961D01*
X106402907Y-72362628D02*
X105869573Y-72362628D01*
X105736240Y-72095961D02*
X105402907Y-72095961D01*
X105802907Y-72295961D02*
X105569574Y-71595961D01*
X105569574Y-71595961D02*
X105336240Y-72295961D01*
X104736240Y-72295961D02*
X105136240Y-72295961D01*
X104936240Y-72295961D02*
X104936240Y-71595961D01*
X104936240Y-71595961D02*
X105002907Y-71695961D01*
X105002907Y-71695961D02*
X105069574Y-71762628D01*
X105069574Y-71762628D02*
X105136240Y-71795961D01*
X90044076Y-82937508D02*
X90077409Y-82970842D01*
X90077409Y-82970842D02*
X90177409Y-83004175D01*
X90177409Y-83004175D02*
X90244076Y-83004175D01*
X90244076Y-83004175D02*
X90344076Y-82970842D01*
X90344076Y-82970842D02*
X90410743Y-82904175D01*
X90410743Y-82904175D02*
X90444076Y-82837508D01*
X90444076Y-82837508D02*
X90477409Y-82704175D01*
X90477409Y-82704175D02*
X90477409Y-82604175D01*
X90477409Y-82604175D02*
X90444076Y-82470842D01*
X90444076Y-82470842D02*
X90410743Y-82404175D01*
X90410743Y-82404175D02*
X90344076Y-82337508D01*
X90344076Y-82337508D02*
X90244076Y-82304175D01*
X90244076Y-82304175D02*
X90177409Y-82304175D01*
X90177409Y-82304175D02*
X90077409Y-82337508D01*
X90077409Y-82337508D02*
X90044076Y-82370842D01*
X89410743Y-82304175D02*
X89744076Y-82304175D01*
X89744076Y-82304175D02*
X89777409Y-82637508D01*
X89777409Y-82637508D02*
X89744076Y-82604175D01*
X89744076Y-82604175D02*
X89677409Y-82570842D01*
X89677409Y-82570842D02*
X89510743Y-82570842D01*
X89510743Y-82570842D02*
X89444076Y-82604175D01*
X89444076Y-82604175D02*
X89410743Y-82637508D01*
X89410743Y-82637508D02*
X89377409Y-82704175D01*
X89377409Y-82704175D02*
X89377409Y-82870842D01*
X89377409Y-82870842D02*
X89410743Y-82937508D01*
X89410743Y-82937508D02*
X89444076Y-82970842D01*
X89444076Y-82970842D02*
X89510743Y-83004175D01*
X89510743Y-83004175D02*
X89677409Y-83004175D01*
X89677409Y-83004175D02*
X89744076Y-82970842D01*
X89744076Y-82970842D02*
X89777409Y-82937508D01*
X106070114Y-79155540D02*
X106303447Y-78822207D01*
X106470114Y-79155540D02*
X106470114Y-78455540D01*
X106470114Y-78455540D02*
X106203447Y-78455540D01*
X106203447Y-78455540D02*
X106136781Y-78488873D01*
X106136781Y-78488873D02*
X106103447Y-78522207D01*
X106103447Y-78522207D02*
X106070114Y-78588873D01*
X106070114Y-78588873D02*
X106070114Y-78688873D01*
X106070114Y-78688873D02*
X106103447Y-78755540D01*
X106103447Y-78755540D02*
X106136781Y-78788873D01*
X106136781Y-78788873D02*
X106203447Y-78822207D01*
X106203447Y-78822207D02*
X106470114Y-78822207D01*
X105936781Y-79222207D02*
X105403447Y-79222207D01*
X105003448Y-78788873D02*
X104903448Y-78822207D01*
X104903448Y-78822207D02*
X104870114Y-78855540D01*
X104870114Y-78855540D02*
X104836781Y-78922207D01*
X104836781Y-78922207D02*
X104836781Y-79022207D01*
X104836781Y-79022207D02*
X104870114Y-79088873D01*
X104870114Y-79088873D02*
X104903448Y-79122207D01*
X104903448Y-79122207D02*
X104970114Y-79155540D01*
X104970114Y-79155540D02*
X105236781Y-79155540D01*
X105236781Y-79155540D02*
X105236781Y-78455540D01*
X105236781Y-78455540D02*
X105003448Y-78455540D01*
X105003448Y-78455540D02*
X104936781Y-78488873D01*
X104936781Y-78488873D02*
X104903448Y-78522207D01*
X104903448Y-78522207D02*
X104870114Y-78588873D01*
X104870114Y-78588873D02*
X104870114Y-78655540D01*
X104870114Y-78655540D02*
X104903448Y-78722207D01*
X104903448Y-78722207D02*
X104936781Y-78755540D01*
X104936781Y-78755540D02*
X105003448Y-78788873D01*
X105003448Y-78788873D02*
X105236781Y-78788873D01*
X104403448Y-78455540D02*
X104270114Y-78455540D01*
X104270114Y-78455540D02*
X104203448Y-78488873D01*
X104203448Y-78488873D02*
X104136781Y-78555540D01*
X104136781Y-78555540D02*
X104103448Y-78688873D01*
X104103448Y-78688873D02*
X104103448Y-78922207D01*
X104103448Y-78922207D02*
X104136781Y-79055540D01*
X104136781Y-79055540D02*
X104203448Y-79122207D01*
X104203448Y-79122207D02*
X104270114Y-79155540D01*
X104270114Y-79155540D02*
X104403448Y-79155540D01*
X104403448Y-79155540D02*
X104470114Y-79122207D01*
X104470114Y-79122207D02*
X104536781Y-79055540D01*
X104536781Y-79055540D02*
X104570114Y-78922207D01*
X104570114Y-78922207D02*
X104570114Y-78688873D01*
X104570114Y-78688873D02*
X104536781Y-78555540D01*
X104536781Y-78555540D02*
X104470114Y-78488873D01*
X104470114Y-78488873D02*
X104403448Y-78455540D01*
X103670115Y-78455540D02*
X103536781Y-78455540D01*
X103536781Y-78455540D02*
X103470115Y-78488873D01*
X103470115Y-78488873D02*
X103403448Y-78555540D01*
X103403448Y-78555540D02*
X103370115Y-78688873D01*
X103370115Y-78688873D02*
X103370115Y-78922207D01*
X103370115Y-78922207D02*
X103403448Y-79055540D01*
X103403448Y-79055540D02*
X103470115Y-79122207D01*
X103470115Y-79122207D02*
X103536781Y-79155540D01*
X103536781Y-79155540D02*
X103670115Y-79155540D01*
X103670115Y-79155540D02*
X103736781Y-79122207D01*
X103736781Y-79122207D02*
X103803448Y-79055540D01*
X103803448Y-79055540D02*
X103836781Y-78922207D01*
X103836781Y-78922207D02*
X103836781Y-78688873D01*
X103836781Y-78688873D02*
X103803448Y-78555540D01*
X103803448Y-78555540D02*
X103736781Y-78488873D01*
X103736781Y-78488873D02*
X103670115Y-78455540D01*
X103170115Y-78455540D02*
X102770115Y-78455540D01*
X102970115Y-79155540D02*
X102970115Y-78455540D01*
X102170115Y-79155540D02*
X102570115Y-79155540D01*
X102370115Y-79155540D02*
X102370115Y-78455540D01*
X102370115Y-78455540D02*
X102436782Y-78555540D01*
X102436782Y-78555540D02*
X102503449Y-78622207D01*
X102503449Y-78622207D02*
X102570115Y-78655540D01*
X132943857Y-63057761D02*
X132943857Y-62357761D01*
X132943857Y-62357761D02*
X132777190Y-62357761D01*
X132777190Y-62357761D02*
X132677190Y-62391094D01*
X132677190Y-62391094D02*
X132610524Y-62457761D01*
X132610524Y-62457761D02*
X132577190Y-62524428D01*
X132577190Y-62524428D02*
X132543857Y-62657761D01*
X132543857Y-62657761D02*
X132543857Y-62757761D01*
X132543857Y-62757761D02*
X132577190Y-62891094D01*
X132577190Y-62891094D02*
X132610524Y-62957761D01*
X132610524Y-62957761D02*
X132677190Y-63024428D01*
X132677190Y-63024428D02*
X132777190Y-63057761D01*
X132777190Y-63057761D02*
X132943857Y-63057761D01*
X131943857Y-62357761D02*
X132077190Y-62357761D01*
X132077190Y-62357761D02*
X132143857Y-62391094D01*
X132143857Y-62391094D02*
X132177190Y-62424428D01*
X132177190Y-62424428D02*
X132243857Y-62524428D01*
X132243857Y-62524428D02*
X132277190Y-62657761D01*
X132277190Y-62657761D02*
X132277190Y-62924428D01*
X132277190Y-62924428D02*
X132243857Y-62991094D01*
X132243857Y-62991094D02*
X132210524Y-63024428D01*
X132210524Y-63024428D02*
X132143857Y-63057761D01*
X132143857Y-63057761D02*
X132010524Y-63057761D01*
X132010524Y-63057761D02*
X131943857Y-63024428D01*
X131943857Y-63024428D02*
X131910524Y-62991094D01*
X131910524Y-62991094D02*
X131877190Y-62924428D01*
X131877190Y-62924428D02*
X131877190Y-62757761D01*
X131877190Y-62757761D02*
X131910524Y-62691094D01*
X131910524Y-62691094D02*
X131943857Y-62657761D01*
X131943857Y-62657761D02*
X132010524Y-62624428D01*
X132010524Y-62624428D02*
X132143857Y-62624428D01*
X132143857Y-62624428D02*
X132210524Y-62657761D01*
X132210524Y-62657761D02*
X132243857Y-62691094D01*
X132243857Y-62691094D02*
X132277190Y-62757761D01*
X122233333Y-96949366D02*
X122466666Y-96949366D01*
X122466666Y-97316033D02*
X122466666Y-96616033D01*
X122466666Y-96616033D02*
X122133333Y-96616033D01*
X121566666Y-96849366D02*
X121566666Y-97316033D01*
X121733333Y-96582700D02*
X121899999Y-97082700D01*
X121899999Y-97082700D02*
X121466666Y-97082700D01*
X80835139Y-70374559D02*
X81068472Y-70041226D01*
X81235139Y-70374559D02*
X81235139Y-69674559D01*
X81235139Y-69674559D02*
X80968472Y-69674559D01*
X80968472Y-69674559D02*
X80901806Y-69707892D01*
X80901806Y-69707892D02*
X80868472Y-69741226D01*
X80868472Y-69741226D02*
X80835139Y-69807892D01*
X80835139Y-69807892D02*
X80835139Y-69907892D01*
X80835139Y-69907892D02*
X80868472Y-69974559D01*
X80868472Y-69974559D02*
X80901806Y-70007892D01*
X80901806Y-70007892D02*
X80968472Y-70041226D01*
X80968472Y-70041226D02*
X81235139Y-70041226D01*
X80701806Y-70441226D02*
X80168472Y-70441226D01*
X79668473Y-70374559D02*
X80001806Y-70374559D01*
X80001806Y-70374559D02*
X80001806Y-69674559D01*
X79435139Y-70007892D02*
X79201806Y-70007892D01*
X79101806Y-70374559D02*
X79435139Y-70374559D01*
X79435139Y-70374559D02*
X79435139Y-69674559D01*
X79435139Y-69674559D02*
X79101806Y-69674559D01*
X78801806Y-70374559D02*
X78801806Y-69674559D01*
X78801806Y-69674559D02*
X78635139Y-69674559D01*
X78635139Y-69674559D02*
X78535139Y-69707892D01*
X78535139Y-69707892D02*
X78468473Y-69774559D01*
X78468473Y-69774559D02*
X78435139Y-69841226D01*
X78435139Y-69841226D02*
X78401806Y-69974559D01*
X78401806Y-69974559D02*
X78401806Y-70074559D01*
X78401806Y-70074559D02*
X78435139Y-70207892D01*
X78435139Y-70207892D02*
X78468473Y-70274559D01*
X78468473Y-70274559D02*
X78535139Y-70341226D01*
X78535139Y-70341226D02*
X78635139Y-70374559D01*
X78635139Y-70374559D02*
X78801806Y-70374559D01*
X77735139Y-70374559D02*
X78135139Y-70374559D01*
X77935139Y-70374559D02*
X77935139Y-69674559D01*
X77935139Y-69674559D02*
X78001806Y-69774559D01*
X78001806Y-69774559D02*
X78068473Y-69841226D01*
X78068473Y-69841226D02*
X78135139Y-69874559D01*
X122249676Y-73779670D02*
X122483009Y-73446337D01*
X122649676Y-73779670D02*
X122649676Y-73079670D01*
X122649676Y-73079670D02*
X122383009Y-73079670D01*
X122383009Y-73079670D02*
X122316343Y-73113003D01*
X122316343Y-73113003D02*
X122283009Y-73146337D01*
X122283009Y-73146337D02*
X122249676Y-73213003D01*
X122249676Y-73213003D02*
X122249676Y-73313003D01*
X122249676Y-73313003D02*
X122283009Y-73379670D01*
X122283009Y-73379670D02*
X122316343Y-73413003D01*
X122316343Y-73413003D02*
X122383009Y-73446337D01*
X122383009Y-73446337D02*
X122649676Y-73446337D01*
X121916343Y-73779670D02*
X121783009Y-73779670D01*
X121783009Y-73779670D02*
X121716343Y-73746337D01*
X121716343Y-73746337D02*
X121683009Y-73713003D01*
X121683009Y-73713003D02*
X121616343Y-73613003D01*
X121616343Y-73613003D02*
X121583009Y-73479670D01*
X121583009Y-73479670D02*
X121583009Y-73213003D01*
X121583009Y-73213003D02*
X121616343Y-73146337D01*
X121616343Y-73146337D02*
X121649676Y-73113003D01*
X121649676Y-73113003D02*
X121716343Y-73079670D01*
X121716343Y-73079670D02*
X121849676Y-73079670D01*
X121849676Y-73079670D02*
X121916343Y-73113003D01*
X121916343Y-73113003D02*
X121949676Y-73146337D01*
X121949676Y-73146337D02*
X121983009Y-73213003D01*
X121983009Y-73213003D02*
X121983009Y-73379670D01*
X121983009Y-73379670D02*
X121949676Y-73446337D01*
X121949676Y-73446337D02*
X121916343Y-73479670D01*
X121916343Y-73479670D02*
X121849676Y-73513003D01*
X121849676Y-73513003D02*
X121716343Y-73513003D01*
X121716343Y-73513003D02*
X121649676Y-73479670D01*
X121649676Y-73479670D02*
X121616343Y-73446337D01*
X121616343Y-73446337D02*
X121583009Y-73379670D01*
X90110700Y-62066773D02*
X90144033Y-62100107D01*
X90144033Y-62100107D02*
X90244033Y-62133440D01*
X90244033Y-62133440D02*
X90310700Y-62133440D01*
X90310700Y-62133440D02*
X90410700Y-62100107D01*
X90410700Y-62100107D02*
X90477367Y-62033440D01*
X90477367Y-62033440D02*
X90510700Y-61966773D01*
X90510700Y-61966773D02*
X90544033Y-61833440D01*
X90544033Y-61833440D02*
X90544033Y-61733440D01*
X90544033Y-61733440D02*
X90510700Y-61600107D01*
X90510700Y-61600107D02*
X90477367Y-61533440D01*
X90477367Y-61533440D02*
X90410700Y-61466773D01*
X90410700Y-61466773D02*
X90310700Y-61433440D01*
X90310700Y-61433440D02*
X90244033Y-61433440D01*
X90244033Y-61433440D02*
X90144033Y-61466773D01*
X90144033Y-61466773D02*
X90110700Y-61500107D01*
X89977367Y-62200107D02*
X89444033Y-62200107D01*
X89310700Y-61933440D02*
X88977367Y-61933440D01*
X89377367Y-62133440D02*
X89144034Y-61433440D01*
X89144034Y-61433440D02*
X88910700Y-62133440D01*
X88277367Y-62066773D02*
X88310700Y-62100107D01*
X88310700Y-62100107D02*
X88410700Y-62133440D01*
X88410700Y-62133440D02*
X88477367Y-62133440D01*
X88477367Y-62133440D02*
X88577367Y-62100107D01*
X88577367Y-62100107D02*
X88644034Y-62033440D01*
X88644034Y-62033440D02*
X88677367Y-61966773D01*
X88677367Y-61966773D02*
X88710700Y-61833440D01*
X88710700Y-61833440D02*
X88710700Y-61733440D01*
X88710700Y-61733440D02*
X88677367Y-61600107D01*
X88677367Y-61600107D02*
X88644034Y-61533440D01*
X88644034Y-61533440D02*
X88577367Y-61466773D01*
X88577367Y-61466773D02*
X88477367Y-61433440D01*
X88477367Y-61433440D02*
X88410700Y-61433440D01*
X88410700Y-61433440D02*
X88310700Y-61466773D01*
X88310700Y-61466773D02*
X88277367Y-61500107D01*
X88010700Y-62100107D02*
X87910700Y-62133440D01*
X87910700Y-62133440D02*
X87744034Y-62133440D01*
X87744034Y-62133440D02*
X87677367Y-62100107D01*
X87677367Y-62100107D02*
X87644034Y-62066773D01*
X87644034Y-62066773D02*
X87610700Y-62000107D01*
X87610700Y-62000107D02*
X87610700Y-61933440D01*
X87610700Y-61933440D02*
X87644034Y-61866773D01*
X87644034Y-61866773D02*
X87677367Y-61833440D01*
X87677367Y-61833440D02*
X87744034Y-61800107D01*
X87744034Y-61800107D02*
X87877367Y-61766773D01*
X87877367Y-61766773D02*
X87944034Y-61733440D01*
X87944034Y-61733440D02*
X87977367Y-61700107D01*
X87977367Y-61700107D02*
X88010700Y-61633440D01*
X88010700Y-61633440D02*
X88010700Y-61566773D01*
X88010700Y-61566773D02*
X87977367Y-61500107D01*
X87977367Y-61500107D02*
X87944034Y-61466773D01*
X87944034Y-61466773D02*
X87877367Y-61433440D01*
X87877367Y-61433440D02*
X87710700Y-61433440D01*
X87710700Y-61433440D02*
X87610700Y-61466773D01*
X86944033Y-62133440D02*
X87344033Y-62133440D01*
X87144033Y-62133440D02*
X87144033Y-61433440D01*
X87144033Y-61433440D02*
X87210700Y-61533440D01*
X87210700Y-61533440D02*
X87277367Y-61600107D01*
X87277367Y-61600107D02*
X87344033Y-61633440D01*
X124342350Y-69764838D02*
X124375683Y-69798172D01*
X124375683Y-69798172D02*
X124475683Y-69831505D01*
X124475683Y-69831505D02*
X124542350Y-69831505D01*
X124542350Y-69831505D02*
X124642350Y-69798172D01*
X124642350Y-69798172D02*
X124709017Y-69731505D01*
X124709017Y-69731505D02*
X124742350Y-69664838D01*
X124742350Y-69664838D02*
X124775683Y-69531505D01*
X124775683Y-69531505D02*
X124775683Y-69431505D01*
X124775683Y-69431505D02*
X124742350Y-69298172D01*
X124742350Y-69298172D02*
X124709017Y-69231505D01*
X124709017Y-69231505D02*
X124642350Y-69164838D01*
X124642350Y-69164838D02*
X124542350Y-69131505D01*
X124542350Y-69131505D02*
X124475683Y-69131505D01*
X124475683Y-69131505D02*
X124375683Y-69164838D01*
X124375683Y-69164838D02*
X124342350Y-69198172D01*
X124209017Y-69898172D02*
X123675683Y-69898172D01*
X123609017Y-69131505D02*
X123375684Y-69831505D01*
X123375684Y-69831505D02*
X123142350Y-69131505D01*
X122509017Y-69764838D02*
X122542350Y-69798172D01*
X122542350Y-69798172D02*
X122642350Y-69831505D01*
X122642350Y-69831505D02*
X122709017Y-69831505D01*
X122709017Y-69831505D02*
X122809017Y-69798172D01*
X122809017Y-69798172D02*
X122875684Y-69731505D01*
X122875684Y-69731505D02*
X122909017Y-69664838D01*
X122909017Y-69664838D02*
X122942350Y-69531505D01*
X122942350Y-69531505D02*
X122942350Y-69431505D01*
X122942350Y-69431505D02*
X122909017Y-69298172D01*
X122909017Y-69298172D02*
X122875684Y-69231505D01*
X122875684Y-69231505D02*
X122809017Y-69164838D01*
X122809017Y-69164838D02*
X122709017Y-69131505D01*
X122709017Y-69131505D02*
X122642350Y-69131505D01*
X122642350Y-69131505D02*
X122542350Y-69164838D01*
X122542350Y-69164838D02*
X122509017Y-69198172D01*
X121809017Y-69764838D02*
X121842350Y-69798172D01*
X121842350Y-69798172D02*
X121942350Y-69831505D01*
X121942350Y-69831505D02*
X122009017Y-69831505D01*
X122009017Y-69831505D02*
X122109017Y-69798172D01*
X122109017Y-69798172D02*
X122175684Y-69731505D01*
X122175684Y-69731505D02*
X122209017Y-69664838D01*
X122209017Y-69664838D02*
X122242350Y-69531505D01*
X122242350Y-69531505D02*
X122242350Y-69431505D01*
X122242350Y-69431505D02*
X122209017Y-69298172D01*
X122209017Y-69298172D02*
X122175684Y-69231505D01*
X122175684Y-69231505D02*
X122109017Y-69164838D01*
X122109017Y-69164838D02*
X122009017Y-69131505D01*
X122009017Y-69131505D02*
X121942350Y-69131505D01*
X121942350Y-69131505D02*
X121842350Y-69164838D01*
X121842350Y-69164838D02*
X121809017Y-69198172D01*
X121675684Y-69898172D02*
X121142350Y-69898172D01*
X120742351Y-69464838D02*
X120642351Y-69498172D01*
X120642351Y-69498172D02*
X120609017Y-69531505D01*
X120609017Y-69531505D02*
X120575684Y-69598172D01*
X120575684Y-69598172D02*
X120575684Y-69698172D01*
X120575684Y-69698172D02*
X120609017Y-69764838D01*
X120609017Y-69764838D02*
X120642351Y-69798172D01*
X120642351Y-69798172D02*
X120709017Y-69831505D01*
X120709017Y-69831505D02*
X120975684Y-69831505D01*
X120975684Y-69831505D02*
X120975684Y-69131505D01*
X120975684Y-69131505D02*
X120742351Y-69131505D01*
X120742351Y-69131505D02*
X120675684Y-69164838D01*
X120675684Y-69164838D02*
X120642351Y-69198172D01*
X120642351Y-69198172D02*
X120609017Y-69264838D01*
X120609017Y-69264838D02*
X120609017Y-69331505D01*
X120609017Y-69331505D02*
X120642351Y-69398172D01*
X120642351Y-69398172D02*
X120675684Y-69431505D01*
X120675684Y-69431505D02*
X120742351Y-69464838D01*
X120742351Y-69464838D02*
X120975684Y-69464838D01*
X119909017Y-69831505D02*
X120309017Y-69831505D01*
X120109017Y-69831505D02*
X120109017Y-69131505D01*
X120109017Y-69131505D02*
X120175684Y-69231505D01*
X120175684Y-69231505D02*
X120242351Y-69298172D01*
X120242351Y-69298172D02*
X120309017Y-69331505D01*
X97486123Y-72014401D02*
X97519456Y-72047735D01*
X97519456Y-72047735D02*
X97619456Y-72081068D01*
X97619456Y-72081068D02*
X97686123Y-72081068D01*
X97686123Y-72081068D02*
X97786123Y-72047735D01*
X97786123Y-72047735D02*
X97852790Y-71981068D01*
X97852790Y-71981068D02*
X97886123Y-71914401D01*
X97886123Y-71914401D02*
X97919456Y-71781068D01*
X97919456Y-71781068D02*
X97919456Y-71681068D01*
X97919456Y-71681068D02*
X97886123Y-71547735D01*
X97886123Y-71547735D02*
X97852790Y-71481068D01*
X97852790Y-71481068D02*
X97786123Y-71414401D01*
X97786123Y-71414401D02*
X97686123Y-71381068D01*
X97686123Y-71381068D02*
X97619456Y-71381068D01*
X97619456Y-71381068D02*
X97519456Y-71414401D01*
X97519456Y-71414401D02*
X97486123Y-71447735D01*
X97352790Y-72147735D02*
X96819456Y-72147735D01*
X96686123Y-71881068D02*
X96352790Y-71881068D01*
X96752790Y-72081068D02*
X96519457Y-71381068D01*
X96519457Y-71381068D02*
X96286123Y-72081068D01*
X95652790Y-72014401D02*
X95686123Y-72047735D01*
X95686123Y-72047735D02*
X95786123Y-72081068D01*
X95786123Y-72081068D02*
X95852790Y-72081068D01*
X95852790Y-72081068D02*
X95952790Y-72047735D01*
X95952790Y-72047735D02*
X96019457Y-71981068D01*
X96019457Y-71981068D02*
X96052790Y-71914401D01*
X96052790Y-71914401D02*
X96086123Y-71781068D01*
X96086123Y-71781068D02*
X96086123Y-71681068D01*
X96086123Y-71681068D02*
X96052790Y-71547735D01*
X96052790Y-71547735D02*
X96019457Y-71481068D01*
X96019457Y-71481068D02*
X95952790Y-71414401D01*
X95952790Y-71414401D02*
X95852790Y-71381068D01*
X95852790Y-71381068D02*
X95786123Y-71381068D01*
X95786123Y-71381068D02*
X95686123Y-71414401D01*
X95686123Y-71414401D02*
X95652790Y-71447735D01*
X95386123Y-72047735D02*
X95286123Y-72081068D01*
X95286123Y-72081068D02*
X95119457Y-72081068D01*
X95119457Y-72081068D02*
X95052790Y-72047735D01*
X95052790Y-72047735D02*
X95019457Y-72014401D01*
X95019457Y-72014401D02*
X94986123Y-71947735D01*
X94986123Y-71947735D02*
X94986123Y-71881068D01*
X94986123Y-71881068D02*
X95019457Y-71814401D01*
X95019457Y-71814401D02*
X95052790Y-71781068D01*
X95052790Y-71781068D02*
X95119457Y-71747735D01*
X95119457Y-71747735D02*
X95252790Y-71714401D01*
X95252790Y-71714401D02*
X95319457Y-71681068D01*
X95319457Y-71681068D02*
X95352790Y-71647735D01*
X95352790Y-71647735D02*
X95386123Y-71581068D01*
X95386123Y-71581068D02*
X95386123Y-71514401D01*
X95386123Y-71514401D02*
X95352790Y-71447735D01*
X95352790Y-71447735D02*
X95319457Y-71414401D01*
X95319457Y-71414401D02*
X95252790Y-71381068D01*
X95252790Y-71381068D02*
X95086123Y-71381068D01*
X95086123Y-71381068D02*
X94986123Y-71414401D01*
X94719456Y-71447735D02*
X94686123Y-71414401D01*
X94686123Y-71414401D02*
X94619456Y-71381068D01*
X94619456Y-71381068D02*
X94452790Y-71381068D01*
X94452790Y-71381068D02*
X94386123Y-71414401D01*
X94386123Y-71414401D02*
X94352790Y-71447735D01*
X94352790Y-71447735D02*
X94319456Y-71514401D01*
X94319456Y-71514401D02*
X94319456Y-71581068D01*
X94319456Y-71581068D02*
X94352790Y-71681068D01*
X94352790Y-71681068D02*
X94752790Y-72081068D01*
X94752790Y-72081068D02*
X94319456Y-72081068D01*
X119291666Y-72316033D02*
X119524999Y-71982700D01*
X119691666Y-72316033D02*
X119691666Y-71616033D01*
X119691666Y-71616033D02*
X119424999Y-71616033D01*
X119424999Y-71616033D02*
X119358333Y-71649366D01*
X119358333Y-71649366D02*
X119324999Y-71682700D01*
X119324999Y-71682700D02*
X119291666Y-71749366D01*
X119291666Y-71749366D02*
X119291666Y-71849366D01*
X119291666Y-71849366D02*
X119324999Y-71916033D01*
X119324999Y-71916033D02*
X119358333Y-71949366D01*
X119358333Y-71949366D02*
X119424999Y-71982700D01*
X119424999Y-71982700D02*
X119691666Y-71982700D01*
X118891666Y-71916033D02*
X118958333Y-71882700D01*
X118958333Y-71882700D02*
X118991666Y-71849366D01*
X118991666Y-71849366D02*
X119024999Y-71782700D01*
X119024999Y-71782700D02*
X119024999Y-71749366D01*
X119024999Y-71749366D02*
X118991666Y-71682700D01*
X118991666Y-71682700D02*
X118958333Y-71649366D01*
X118958333Y-71649366D02*
X118891666Y-71616033D01*
X118891666Y-71616033D02*
X118758333Y-71616033D01*
X118758333Y-71616033D02*
X118691666Y-71649366D01*
X118691666Y-71649366D02*
X118658333Y-71682700D01*
X118658333Y-71682700D02*
X118624999Y-71749366D01*
X118624999Y-71749366D02*
X118624999Y-71782700D01*
X118624999Y-71782700D02*
X118658333Y-71849366D01*
X118658333Y-71849366D02*
X118691666Y-71882700D01*
X118691666Y-71882700D02*
X118758333Y-71916033D01*
X118758333Y-71916033D02*
X118891666Y-71916033D01*
X118891666Y-71916033D02*
X118958333Y-71949366D01*
X118958333Y-71949366D02*
X118991666Y-71982700D01*
X118991666Y-71982700D02*
X119024999Y-72049366D01*
X119024999Y-72049366D02*
X119024999Y-72182700D01*
X119024999Y-72182700D02*
X118991666Y-72249366D01*
X118991666Y-72249366D02*
X118958333Y-72282700D01*
X118958333Y-72282700D02*
X118891666Y-72316033D01*
X118891666Y-72316033D02*
X118758333Y-72316033D01*
X118758333Y-72316033D02*
X118691666Y-72282700D01*
X118691666Y-72282700D02*
X118658333Y-72249366D01*
X118658333Y-72249366D02*
X118624999Y-72182700D01*
X118624999Y-72182700D02*
X118624999Y-72049366D01*
X118624999Y-72049366D02*
X118658333Y-71982700D01*
X118658333Y-71982700D02*
X118691666Y-71949366D01*
X118691666Y-71949366D02*
X118758333Y-71916033D01*
X121571197Y-62129164D02*
X121804530Y-61795831D01*
X121971197Y-62129164D02*
X121971197Y-61429164D01*
X121971197Y-61429164D02*
X121704530Y-61429164D01*
X121704530Y-61429164D02*
X121637864Y-61462497D01*
X121637864Y-61462497D02*
X121604530Y-61495831D01*
X121604530Y-61495831D02*
X121571197Y-61562497D01*
X121571197Y-61562497D02*
X121571197Y-61662497D01*
X121571197Y-61662497D02*
X121604530Y-61729164D01*
X121604530Y-61729164D02*
X121637864Y-61762497D01*
X121637864Y-61762497D02*
X121704530Y-61795831D01*
X121704530Y-61795831D02*
X121971197Y-61795831D01*
X120904530Y-62129164D02*
X121304530Y-62129164D01*
X121104530Y-62129164D02*
X121104530Y-61429164D01*
X121104530Y-61429164D02*
X121171197Y-61529164D01*
X121171197Y-61529164D02*
X121237864Y-61595831D01*
X121237864Y-61595831D02*
X121304530Y-61629164D01*
X120471197Y-61429164D02*
X120404530Y-61429164D01*
X120404530Y-61429164D02*
X120337863Y-61462497D01*
X120337863Y-61462497D02*
X120304530Y-61495831D01*
X120304530Y-61495831D02*
X120271197Y-61562497D01*
X120271197Y-61562497D02*
X120237863Y-61695831D01*
X120237863Y-61695831D02*
X120237863Y-61862497D01*
X120237863Y-61862497D02*
X120271197Y-61995831D01*
X120271197Y-61995831D02*
X120304530Y-62062497D01*
X120304530Y-62062497D02*
X120337863Y-62095831D01*
X120337863Y-62095831D02*
X120404530Y-62129164D01*
X120404530Y-62129164D02*
X120471197Y-62129164D01*
X120471197Y-62129164D02*
X120537863Y-62095831D01*
X120537863Y-62095831D02*
X120571197Y-62062497D01*
X120571197Y-62062497D02*
X120604530Y-61995831D01*
X120604530Y-61995831D02*
X120637863Y-61862497D01*
X120637863Y-61862497D02*
X120637863Y-61695831D01*
X120637863Y-61695831D02*
X120604530Y-61562497D01*
X120604530Y-61562497D02*
X120571197Y-61495831D01*
X120571197Y-61495831D02*
X120537863Y-61462497D01*
X120537863Y-61462497D02*
X120471197Y-61429164D01*
X121655812Y-75352838D02*
X121689145Y-75386172D01*
X121689145Y-75386172D02*
X121789145Y-75419505D01*
X121789145Y-75419505D02*
X121855812Y-75419505D01*
X121855812Y-75419505D02*
X121955812Y-75386172D01*
X121955812Y-75386172D02*
X122022479Y-75319505D01*
X122022479Y-75319505D02*
X122055812Y-75252838D01*
X122055812Y-75252838D02*
X122089145Y-75119505D01*
X122089145Y-75119505D02*
X122089145Y-75019505D01*
X122089145Y-75019505D02*
X122055812Y-74886172D01*
X122055812Y-74886172D02*
X122022479Y-74819505D01*
X122022479Y-74819505D02*
X121955812Y-74752838D01*
X121955812Y-74752838D02*
X121855812Y-74719505D01*
X121855812Y-74719505D02*
X121789145Y-74719505D01*
X121789145Y-74719505D02*
X121689145Y-74752838D01*
X121689145Y-74752838D02*
X121655812Y-74786172D01*
X121522479Y-75486172D02*
X120989145Y-75486172D01*
X120922479Y-74719505D02*
X120689146Y-75419505D01*
X120689146Y-75419505D02*
X120455812Y-74719505D01*
X119822479Y-75352838D02*
X119855812Y-75386172D01*
X119855812Y-75386172D02*
X119955812Y-75419505D01*
X119955812Y-75419505D02*
X120022479Y-75419505D01*
X120022479Y-75419505D02*
X120122479Y-75386172D01*
X120122479Y-75386172D02*
X120189146Y-75319505D01*
X120189146Y-75319505D02*
X120222479Y-75252838D01*
X120222479Y-75252838D02*
X120255812Y-75119505D01*
X120255812Y-75119505D02*
X120255812Y-75019505D01*
X120255812Y-75019505D02*
X120222479Y-74886172D01*
X120222479Y-74886172D02*
X120189146Y-74819505D01*
X120189146Y-74819505D02*
X120122479Y-74752838D01*
X120122479Y-74752838D02*
X120022479Y-74719505D01*
X120022479Y-74719505D02*
X119955812Y-74719505D01*
X119955812Y-74719505D02*
X119855812Y-74752838D01*
X119855812Y-74752838D02*
X119822479Y-74786172D01*
X119122479Y-75352838D02*
X119155812Y-75386172D01*
X119155812Y-75386172D02*
X119255812Y-75419505D01*
X119255812Y-75419505D02*
X119322479Y-75419505D01*
X119322479Y-75419505D02*
X119422479Y-75386172D01*
X119422479Y-75386172D02*
X119489146Y-75319505D01*
X119489146Y-75319505D02*
X119522479Y-75252838D01*
X119522479Y-75252838D02*
X119555812Y-75119505D01*
X119555812Y-75119505D02*
X119555812Y-75019505D01*
X119555812Y-75019505D02*
X119522479Y-74886172D01*
X119522479Y-74886172D02*
X119489146Y-74819505D01*
X119489146Y-74819505D02*
X119422479Y-74752838D01*
X119422479Y-74752838D02*
X119322479Y-74719505D01*
X119322479Y-74719505D02*
X119255812Y-74719505D01*
X119255812Y-74719505D02*
X119155812Y-74752838D01*
X119155812Y-74752838D02*
X119122479Y-74786172D01*
X118989146Y-75486172D02*
X118455812Y-75486172D01*
X118055813Y-75052838D02*
X117955813Y-75086172D01*
X117955813Y-75086172D02*
X117922479Y-75119505D01*
X117922479Y-75119505D02*
X117889146Y-75186172D01*
X117889146Y-75186172D02*
X117889146Y-75286172D01*
X117889146Y-75286172D02*
X117922479Y-75352838D01*
X117922479Y-75352838D02*
X117955813Y-75386172D01*
X117955813Y-75386172D02*
X118022479Y-75419505D01*
X118022479Y-75419505D02*
X118289146Y-75419505D01*
X118289146Y-75419505D02*
X118289146Y-74719505D01*
X118289146Y-74719505D02*
X118055813Y-74719505D01*
X118055813Y-74719505D02*
X117989146Y-74752838D01*
X117989146Y-74752838D02*
X117955813Y-74786172D01*
X117955813Y-74786172D02*
X117922479Y-74852838D01*
X117922479Y-74852838D02*
X117922479Y-74919505D01*
X117922479Y-74919505D02*
X117955813Y-74986172D01*
X117955813Y-74986172D02*
X117989146Y-75019505D01*
X117989146Y-75019505D02*
X118055813Y-75052838D01*
X118055813Y-75052838D02*
X118289146Y-75052838D01*
X117622479Y-74786172D02*
X117589146Y-74752838D01*
X117589146Y-74752838D02*
X117522479Y-74719505D01*
X117522479Y-74719505D02*
X117355813Y-74719505D01*
X117355813Y-74719505D02*
X117289146Y-74752838D01*
X117289146Y-74752838D02*
X117255813Y-74786172D01*
X117255813Y-74786172D02*
X117222479Y-74852838D01*
X117222479Y-74852838D02*
X117222479Y-74919505D01*
X117222479Y-74919505D02*
X117255813Y-75019505D01*
X117255813Y-75019505D02*
X117655813Y-75419505D01*
X117655813Y-75419505D02*
X117222479Y-75419505D01*
X90044076Y-88732684D02*
X90077409Y-88766018D01*
X90077409Y-88766018D02*
X90177409Y-88799351D01*
X90177409Y-88799351D02*
X90244076Y-88799351D01*
X90244076Y-88799351D02*
X90344076Y-88766018D01*
X90344076Y-88766018D02*
X90410743Y-88699351D01*
X90410743Y-88699351D02*
X90444076Y-88632684D01*
X90444076Y-88632684D02*
X90477409Y-88499351D01*
X90477409Y-88499351D02*
X90477409Y-88399351D01*
X90477409Y-88399351D02*
X90444076Y-88266018D01*
X90444076Y-88266018D02*
X90410743Y-88199351D01*
X90410743Y-88199351D02*
X90344076Y-88132684D01*
X90344076Y-88132684D02*
X90244076Y-88099351D01*
X90244076Y-88099351D02*
X90177409Y-88099351D01*
X90177409Y-88099351D02*
X90077409Y-88132684D01*
X90077409Y-88132684D02*
X90044076Y-88166018D01*
X89810743Y-88099351D02*
X89377409Y-88099351D01*
X89377409Y-88099351D02*
X89610743Y-88366018D01*
X89610743Y-88366018D02*
X89510743Y-88366018D01*
X89510743Y-88366018D02*
X89444076Y-88399351D01*
X89444076Y-88399351D02*
X89410743Y-88432684D01*
X89410743Y-88432684D02*
X89377409Y-88499351D01*
X89377409Y-88499351D02*
X89377409Y-88666018D01*
X89377409Y-88666018D02*
X89410743Y-88732684D01*
X89410743Y-88732684D02*
X89444076Y-88766018D01*
X89444076Y-88766018D02*
X89510743Y-88799351D01*
X89510743Y-88799351D02*
X89710743Y-88799351D01*
X89710743Y-88799351D02*
X89777409Y-88766018D01*
X89777409Y-88766018D02*
X89810743Y-88732684D01*
X116922119Y-61945503D02*
X116955452Y-61978837D01*
X116955452Y-61978837D02*
X117055452Y-62012170D01*
X117055452Y-62012170D02*
X117122119Y-62012170D01*
X117122119Y-62012170D02*
X117222119Y-61978837D01*
X117222119Y-61978837D02*
X117288786Y-61912170D01*
X117288786Y-61912170D02*
X117322119Y-61845503D01*
X117322119Y-61845503D02*
X117355452Y-61712170D01*
X117355452Y-61712170D02*
X117355452Y-61612170D01*
X117355452Y-61612170D02*
X117322119Y-61478837D01*
X117322119Y-61478837D02*
X117288786Y-61412170D01*
X117288786Y-61412170D02*
X117222119Y-61345503D01*
X117222119Y-61345503D02*
X117122119Y-61312170D01*
X117122119Y-61312170D02*
X117055452Y-61312170D01*
X117055452Y-61312170D02*
X116955452Y-61345503D01*
X116955452Y-61345503D02*
X116922119Y-61378837D01*
X116788786Y-62078837D02*
X116255452Y-62078837D01*
X116188786Y-61312170D02*
X115955453Y-62012170D01*
X115955453Y-62012170D02*
X115722119Y-61312170D01*
X115088786Y-61945503D02*
X115122119Y-61978837D01*
X115122119Y-61978837D02*
X115222119Y-62012170D01*
X115222119Y-62012170D02*
X115288786Y-62012170D01*
X115288786Y-62012170D02*
X115388786Y-61978837D01*
X115388786Y-61978837D02*
X115455453Y-61912170D01*
X115455453Y-61912170D02*
X115488786Y-61845503D01*
X115488786Y-61845503D02*
X115522119Y-61712170D01*
X115522119Y-61712170D02*
X115522119Y-61612170D01*
X115522119Y-61612170D02*
X115488786Y-61478837D01*
X115488786Y-61478837D02*
X115455453Y-61412170D01*
X115455453Y-61412170D02*
X115388786Y-61345503D01*
X115388786Y-61345503D02*
X115288786Y-61312170D01*
X115288786Y-61312170D02*
X115222119Y-61312170D01*
X115222119Y-61312170D02*
X115122119Y-61345503D01*
X115122119Y-61345503D02*
X115088786Y-61378837D01*
X114388786Y-61945503D02*
X114422119Y-61978837D01*
X114422119Y-61978837D02*
X114522119Y-62012170D01*
X114522119Y-62012170D02*
X114588786Y-62012170D01*
X114588786Y-62012170D02*
X114688786Y-61978837D01*
X114688786Y-61978837D02*
X114755453Y-61912170D01*
X114755453Y-61912170D02*
X114788786Y-61845503D01*
X114788786Y-61845503D02*
X114822119Y-61712170D01*
X114822119Y-61712170D02*
X114822119Y-61612170D01*
X114822119Y-61612170D02*
X114788786Y-61478837D01*
X114788786Y-61478837D02*
X114755453Y-61412170D01*
X114755453Y-61412170D02*
X114688786Y-61345503D01*
X114688786Y-61345503D02*
X114588786Y-61312170D01*
X114588786Y-61312170D02*
X114522119Y-61312170D01*
X114522119Y-61312170D02*
X114422119Y-61345503D01*
X114422119Y-61345503D02*
X114388786Y-61378837D01*
X114255453Y-62078837D02*
X113722119Y-62078837D01*
X113588786Y-61812170D02*
X113255453Y-61812170D01*
X113655453Y-62012170D02*
X113422120Y-61312170D01*
X113422120Y-61312170D02*
X113188786Y-62012170D01*
X112988786Y-61378837D02*
X112955453Y-61345503D01*
X112955453Y-61345503D02*
X112888786Y-61312170D01*
X112888786Y-61312170D02*
X112722120Y-61312170D01*
X112722120Y-61312170D02*
X112655453Y-61345503D01*
X112655453Y-61345503D02*
X112622120Y-61378837D01*
X112622120Y-61378837D02*
X112588786Y-61445503D01*
X112588786Y-61445503D02*
X112588786Y-61512170D01*
X112588786Y-61512170D02*
X112622120Y-61612170D01*
X112622120Y-61612170D02*
X113022120Y-62012170D01*
X113022120Y-62012170D02*
X112588786Y-62012170D01*
X137233333Y-55949366D02*
X137466666Y-55949366D01*
X137466666Y-56316033D02*
X137466666Y-55616033D01*
X137466666Y-55616033D02*
X137133333Y-55616033D01*
X136499999Y-56316033D02*
X136899999Y-56316033D01*
X136699999Y-56316033D02*
X136699999Y-55616033D01*
X136699999Y-55616033D02*
X136766666Y-55716033D01*
X136766666Y-55716033D02*
X136833333Y-55782700D01*
X136833333Y-55782700D02*
X136899999Y-55816033D01*
X126848500Y-80888575D02*
X126881833Y-80921909D01*
X126881833Y-80921909D02*
X126981833Y-80955242D01*
X126981833Y-80955242D02*
X127048500Y-80955242D01*
X127048500Y-80955242D02*
X127148500Y-80921909D01*
X127148500Y-80921909D02*
X127215167Y-80855242D01*
X127215167Y-80855242D02*
X127248500Y-80788575D01*
X127248500Y-80788575D02*
X127281833Y-80655242D01*
X127281833Y-80655242D02*
X127281833Y-80555242D01*
X127281833Y-80555242D02*
X127248500Y-80421909D01*
X127248500Y-80421909D02*
X127215167Y-80355242D01*
X127215167Y-80355242D02*
X127148500Y-80288575D01*
X127148500Y-80288575D02*
X127048500Y-80255242D01*
X127048500Y-80255242D02*
X126981833Y-80255242D01*
X126981833Y-80255242D02*
X126881833Y-80288575D01*
X126881833Y-80288575D02*
X126848500Y-80321909D01*
X126715167Y-81021909D02*
X126181833Y-81021909D01*
X126015167Y-80955242D02*
X126015167Y-80255242D01*
X125715167Y-80921909D02*
X125615167Y-80955242D01*
X125615167Y-80955242D02*
X125448501Y-80955242D01*
X125448501Y-80955242D02*
X125381834Y-80921909D01*
X125381834Y-80921909D02*
X125348501Y-80888575D01*
X125348501Y-80888575D02*
X125315167Y-80821909D01*
X125315167Y-80821909D02*
X125315167Y-80755242D01*
X125315167Y-80755242D02*
X125348501Y-80688575D01*
X125348501Y-80688575D02*
X125381834Y-80655242D01*
X125381834Y-80655242D02*
X125448501Y-80621909D01*
X125448501Y-80621909D02*
X125581834Y-80588575D01*
X125581834Y-80588575D02*
X125648501Y-80555242D01*
X125648501Y-80555242D02*
X125681834Y-80521909D01*
X125681834Y-80521909D02*
X125715167Y-80455242D01*
X125715167Y-80455242D02*
X125715167Y-80388575D01*
X125715167Y-80388575D02*
X125681834Y-80321909D01*
X125681834Y-80321909D02*
X125648501Y-80288575D01*
X125648501Y-80288575D02*
X125581834Y-80255242D01*
X125581834Y-80255242D02*
X125415167Y-80255242D01*
X125415167Y-80255242D02*
X125315167Y-80288575D01*
X124881834Y-80255242D02*
X124748500Y-80255242D01*
X124748500Y-80255242D02*
X124681834Y-80288575D01*
X124681834Y-80288575D02*
X124615167Y-80355242D01*
X124615167Y-80355242D02*
X124581834Y-80488575D01*
X124581834Y-80488575D02*
X124581834Y-80721909D01*
X124581834Y-80721909D02*
X124615167Y-80855242D01*
X124615167Y-80855242D02*
X124681834Y-80921909D01*
X124681834Y-80921909D02*
X124748500Y-80955242D01*
X124748500Y-80955242D02*
X124881834Y-80955242D01*
X124881834Y-80955242D02*
X124948500Y-80921909D01*
X124948500Y-80921909D02*
X125015167Y-80855242D01*
X125015167Y-80855242D02*
X125048500Y-80721909D01*
X125048500Y-80721909D02*
X125048500Y-80488575D01*
X125048500Y-80488575D02*
X125015167Y-80355242D01*
X125015167Y-80355242D02*
X124948500Y-80288575D01*
X124948500Y-80288575D02*
X124881834Y-80255242D01*
X124448501Y-81021909D02*
X123915167Y-81021909D01*
X123515168Y-80588575D02*
X123748501Y-80588575D01*
X123748501Y-80955242D02*
X123748501Y-80255242D01*
X123748501Y-80255242D02*
X123415168Y-80255242D01*
X122781834Y-80955242D02*
X123181834Y-80955242D01*
X122981834Y-80955242D02*
X122981834Y-80255242D01*
X122981834Y-80255242D02*
X123048501Y-80355242D01*
X123048501Y-80355242D02*
X123115168Y-80421909D01*
X123115168Y-80421909D02*
X123181834Y-80455242D01*
X116922119Y-60277246D02*
X116955452Y-60310580D01*
X116955452Y-60310580D02*
X117055452Y-60343913D01*
X117055452Y-60343913D02*
X117122119Y-60343913D01*
X117122119Y-60343913D02*
X117222119Y-60310580D01*
X117222119Y-60310580D02*
X117288786Y-60243913D01*
X117288786Y-60243913D02*
X117322119Y-60177246D01*
X117322119Y-60177246D02*
X117355452Y-60043913D01*
X117355452Y-60043913D02*
X117355452Y-59943913D01*
X117355452Y-59943913D02*
X117322119Y-59810580D01*
X117322119Y-59810580D02*
X117288786Y-59743913D01*
X117288786Y-59743913D02*
X117222119Y-59677246D01*
X117222119Y-59677246D02*
X117122119Y-59643913D01*
X117122119Y-59643913D02*
X117055452Y-59643913D01*
X117055452Y-59643913D02*
X116955452Y-59677246D01*
X116955452Y-59677246D02*
X116922119Y-59710580D01*
X116788786Y-60410580D02*
X116255452Y-60410580D01*
X116188786Y-59643913D02*
X115955453Y-60343913D01*
X115955453Y-60343913D02*
X115722119Y-59643913D01*
X115088786Y-60277246D02*
X115122119Y-60310580D01*
X115122119Y-60310580D02*
X115222119Y-60343913D01*
X115222119Y-60343913D02*
X115288786Y-60343913D01*
X115288786Y-60343913D02*
X115388786Y-60310580D01*
X115388786Y-60310580D02*
X115455453Y-60243913D01*
X115455453Y-60243913D02*
X115488786Y-60177246D01*
X115488786Y-60177246D02*
X115522119Y-60043913D01*
X115522119Y-60043913D02*
X115522119Y-59943913D01*
X115522119Y-59943913D02*
X115488786Y-59810580D01*
X115488786Y-59810580D02*
X115455453Y-59743913D01*
X115455453Y-59743913D02*
X115388786Y-59677246D01*
X115388786Y-59677246D02*
X115288786Y-59643913D01*
X115288786Y-59643913D02*
X115222119Y-59643913D01*
X115222119Y-59643913D02*
X115122119Y-59677246D01*
X115122119Y-59677246D02*
X115088786Y-59710580D01*
X114388786Y-60277246D02*
X114422119Y-60310580D01*
X114422119Y-60310580D02*
X114522119Y-60343913D01*
X114522119Y-60343913D02*
X114588786Y-60343913D01*
X114588786Y-60343913D02*
X114688786Y-60310580D01*
X114688786Y-60310580D02*
X114755453Y-60243913D01*
X114755453Y-60243913D02*
X114788786Y-60177246D01*
X114788786Y-60177246D02*
X114822119Y-60043913D01*
X114822119Y-60043913D02*
X114822119Y-59943913D01*
X114822119Y-59943913D02*
X114788786Y-59810580D01*
X114788786Y-59810580D02*
X114755453Y-59743913D01*
X114755453Y-59743913D02*
X114688786Y-59677246D01*
X114688786Y-59677246D02*
X114588786Y-59643913D01*
X114588786Y-59643913D02*
X114522119Y-59643913D01*
X114522119Y-59643913D02*
X114422119Y-59677246D01*
X114422119Y-59677246D02*
X114388786Y-59710580D01*
X114255453Y-60410580D02*
X113722119Y-60410580D01*
X113588786Y-60143913D02*
X113255453Y-60143913D01*
X113655453Y-60343913D02*
X113422120Y-59643913D01*
X113422120Y-59643913D02*
X113188786Y-60343913D01*
X112588786Y-60343913D02*
X112988786Y-60343913D01*
X112788786Y-60343913D02*
X112788786Y-59643913D01*
X112788786Y-59643913D02*
X112855453Y-59743913D01*
X112855453Y-59743913D02*
X112922120Y-59810580D01*
X112922120Y-59810580D02*
X112988786Y-59843913D01*
D11*
%TO.C,C_VM_A2*%
X116086662Y-72790494D02*
X115564158Y-72790494D01*
X116086662Y-74260494D02*
X115564158Y-74260494D01*
%TO.C,C_VM_B1*%
X115893671Y-76226421D02*
X115612511Y-76226421D01*
X115893671Y-77246421D02*
X115612511Y-77246421D01*
%TO.C,C_ISO_D1*%
X109498365Y-57293629D02*
X109498365Y-57012469D01*
X110518365Y-57293629D02*
X110518365Y-57012469D01*
%TO.C,C7*%
X95358342Y-59490000D02*
X95077182Y-59490000D01*
X95358342Y-60510000D02*
X95077182Y-60510000D01*
%TO.C,F3*%
X133717191Y-70518478D02*
X133717191Y-73290982D01*
X137137191Y-70518478D02*
X137137191Y-73290982D01*
%TO.C,C_TMP1*%
X95546079Y-77481484D02*
X95264919Y-77481484D01*
X95546079Y-78501484D02*
X95264919Y-78501484D01*
%TO.C,C_ISO_E1*%
X106859420Y-59490000D02*
X107140580Y-59490000D01*
X106859420Y-60510000D02*
X107140580Y-60510000D01*
%TO.C,F2*%
X133717191Y-85380978D02*
X133717191Y-88153482D01*
X137137191Y-85380978D02*
X137137191Y-88153482D01*
%TO.C,C9*%
X115946697Y-77900517D02*
X115424193Y-77900517D01*
X115946697Y-79370517D02*
X115424193Y-79370517D01*
%TO.C,C4*%
X90261252Y-77265000D02*
X89738748Y-77265000D01*
X90261252Y-78735000D02*
X89738748Y-78735000D01*
%TO.C,C1*%
X118494450Y-102265000D02*
X117971946Y-102265000D01*
X118494450Y-103735000D02*
X117971946Y-103735000D01*
%TO.C,C_FILT1*%
X106049092Y-83384875D02*
X106049092Y-83103715D01*
X107069092Y-83384875D02*
X107069092Y-83103715D01*
%TO.C,C6*%
X90140580Y-83490000D02*
X89859420Y-83490000D01*
X90140580Y-84510000D02*
X89859420Y-84510000D01*
%TO.C,R6*%
X121412258Y-62477500D02*
X120937742Y-62477500D01*
X121412258Y-63522500D02*
X120937742Y-63522500D01*
%TO.C,R5*%
X92237258Y-59477500D02*
X91762742Y-59477500D01*
X92237258Y-60522500D02*
X91762742Y-60522500D01*
%TO.C,C_VM_A1*%
X116086662Y-70790494D02*
X115564158Y-70790494D01*
X116086662Y-72260494D02*
X115564158Y-72260494D01*
%TO.C,C_ISO_B1*%
X111061442Y-57251761D02*
X111061442Y-56970601D01*
X112081442Y-57251761D02*
X112081442Y-56970601D01*
D10*
%TO.C,D7*%
X133277191Y-75822625D02*
X133277191Y-81632625D01*
X133277191Y-75822625D02*
X137577191Y-75822625D01*
X137577191Y-75822625D02*
X137577191Y-81632625D01*
%TO.C,D4*%
X129300817Y-59721009D02*
X129300817Y-53911009D01*
X133600817Y-59721009D02*
X129300817Y-59721009D01*
X133600817Y-59721009D02*
X133600817Y-53911009D01*
D11*
%TO.C,C_VM_B2*%
X115893671Y-74733124D02*
X115612511Y-74733124D01*
X115893671Y-75753124D02*
X115612511Y-75753124D01*
%TO.C,C_ISO_C1*%
X106813578Y-66035081D02*
X107094738Y-66035081D01*
X106813578Y-67055081D02*
X107094738Y-67055081D01*
%TO.C,R7*%
X124090882Y-62073092D02*
X124090882Y-61598576D01*
X125135882Y-62073092D02*
X125135882Y-61598576D01*
%TO.C,C8*%
X98916777Y-59265000D02*
X98394273Y-59265000D01*
X98916777Y-60735000D02*
X98394273Y-60735000D01*
%TO.C,C10*%
X123875599Y-75587121D02*
X124398103Y-75587121D01*
X123875599Y-77057121D02*
X124398103Y-77057121D01*
D10*
%TO.C,D5*%
X123340000Y-89850000D02*
X129150000Y-89850000D01*
X123340000Y-94150000D02*
X123340000Y-89850000D01*
X123340000Y-94150000D02*
X129150000Y-94150000D01*
D11*
%TO.C,C_ISO_A1*%
X107257522Y-74145171D02*
X107257522Y-73864011D01*
X108277522Y-74145171D02*
X108277522Y-73864011D01*
%TO.C,C5*%
X90261252Y-80390000D02*
X89738748Y-80390000D01*
X90261252Y-81860000D02*
X89738748Y-81860000D01*
%TO.C,R_BOOT1*%
X104099524Y-76887007D02*
X104574040Y-76887007D01*
X104099524Y-77932007D02*
X104574040Y-77932007D01*
D10*
%TO.C,D6*%
X133277191Y-61193414D02*
X133277191Y-67003414D01*
X133277191Y-61193414D02*
X137577191Y-61193414D01*
X137577191Y-61193414D02*
X137577191Y-67003414D01*
D11*
%TO.C,F4*%
X127386252Y-95290000D02*
X124613748Y-95290000D01*
X127386252Y-98710000D02*
X124613748Y-98710000D01*
%TO.C,R_LED1*%
X79049042Y-67975224D02*
X79049042Y-67500708D01*
X80094042Y-67975224D02*
X80094042Y-67500708D01*
%TO.C,R9*%
X122476486Y-72041362D02*
X122001970Y-72041362D01*
X122476486Y-73086362D02*
X122001970Y-73086362D01*
%TO.C,C_ACS1*%
X88922817Y-59490000D02*
X88641657Y-59490000D01*
X88922817Y-60510000D02*
X88641657Y-60510000D01*
%TO.C,C_VCC_B1*%
X122091589Y-70507962D02*
X122372749Y-70507962D01*
X122091589Y-71527962D02*
X122372749Y-71527962D01*
%TO.C,C_ACS2*%
X95433426Y-74039998D02*
X95433426Y-73758838D01*
X96453426Y-74039998D02*
X96453426Y-73758838D01*
%TO.C,R8*%
X119412258Y-70477500D02*
X118937742Y-70477500D01*
X119412258Y-71522500D02*
X118937742Y-71522500D01*
%TO.C,R10*%
X121492082Y-60230684D02*
X121017566Y-60230684D01*
X121492082Y-61275684D02*
X121017566Y-61275684D01*
%TO.C,C_VCC_B2*%
X119302420Y-73490000D02*
X119021260Y-73490000D01*
X119302420Y-74510000D02*
X119021260Y-74510000D01*
%TO.C,C3*%
X90140580Y-86490000D02*
X89859420Y-86490000D01*
X90140580Y-87510000D02*
X89859420Y-87510000D01*
%TO.C,C_VCC_A2*%
X110739850Y-61053416D02*
X110217346Y-61053416D01*
X110739850Y-62523416D02*
X110217346Y-62523416D01*
%TO.C,F1*%
X138386252Y-56894079D02*
X135613748Y-56894079D01*
X138386252Y-60314079D02*
X135613748Y-60314079D01*
%TO.C,C_ISO_F1*%
X125084420Y-81490000D02*
X125365580Y-81490000D01*
X125084420Y-82510000D02*
X125365580Y-82510000D01*
%TO.C,C_VCC_A1*%
X110739850Y-59053416D02*
X110217346Y-59053416D01*
X110739850Y-60523416D02*
X110217346Y-60523416D01*
%TD*%
%LPC*%
D12*
%TO.C,H2*%
X80585542Y-52596945D03*
%TD*%
D13*
%TO.C,J3*%
X131203352Y-88468518D03*
X139403352Y-88468518D03*
X131203352Y-84968518D03*
X139403352Y-84968518D03*
X131203352Y-81468518D03*
X139403352Y-81468518D03*
X131203352Y-77968518D03*
X139403352Y-77968518D03*
X131203352Y-74468518D03*
X139403352Y-74468518D03*
X131203352Y-70968518D03*
X139403352Y-70968518D03*
X131203352Y-67468518D03*
X139403352Y-67468518D03*
X131203352Y-63968518D03*
X139403352Y-63968518D03*
%TD*%
D14*
%TO.C,J1*%
X131696898Y-97000000D03*
D15*
X137696898Y-97000000D03*
D16*
X134696898Y-92300000D03*
%TD*%
D17*
%TO.C,J2*%
X83619556Y-91874270D03*
X83619556Y-97654270D03*
D18*
X79969556Y-90444270D03*
X79969556Y-99084270D03*
D19*
X84119556Y-90444270D03*
X84119556Y-99084270D03*
%TD*%
D12*
%TO.C,H1*%
X138532331Y-52596945D03*
%TD*%
%TO.C,H3*%
X138532331Y-105433466D03*
%TD*%
D20*
%TO.C,U1*%
X113770000Y-103030000D03*
X113770000Y-92870000D03*
X111230000Y-103030000D03*
X101070000Y-103030000D03*
X95990000Y-103030000D03*
X106150000Y-103030000D03*
X98530000Y-103030000D03*
X103610000Y-103030000D03*
X98530000Y-92870000D03*
X95990000Y-92870000D03*
%TD*%
D12*
%TO.C,H4*%
X80585542Y-105433466D03*
%TD*%
D21*
%TO.C,C_VM_A2*%
X116775410Y-73525494D03*
X114875410Y-73525494D03*
%TD*%
D22*
%TO.C,C_VM_B1*%
X116528091Y-76736421D03*
X114978091Y-76736421D03*
%TD*%
D23*
%TO.C,C_ISO_D1*%
X110008365Y-57928049D03*
X110008365Y-56378049D03*
%TD*%
D22*
%TO.C,C7*%
X95992762Y-60000000D03*
X94442762Y-60000000D03*
%TD*%
D24*
%TO.C,F3*%
X135427191Y-69767230D03*
X135427191Y-74042230D03*
%TD*%
D22*
%TO.C,C_TMP1*%
X96180499Y-77991484D03*
X94630499Y-77991484D03*
%TD*%
D25*
%TO.C,C_ISO_E1*%
X106225000Y-60000000D03*
X107775000Y-60000000D03*
%TD*%
D24*
%TO.C,F2*%
X135427191Y-84629730D03*
X135427191Y-88904730D03*
%TD*%
D21*
%TO.C,C9*%
X116635445Y-78635517D03*
X114735445Y-78635517D03*
%TD*%
%TO.C,C4*%
X90950000Y-78000000D03*
X89050000Y-78000000D03*
%TD*%
%TO.C,C1*%
X119183198Y-103000000D03*
X117283198Y-103000000D03*
%TD*%
D23*
%TO.C,C_FILT1*%
X106559092Y-84019295D03*
X106559092Y-82469295D03*
%TD*%
D22*
%TO.C,C6*%
X90775000Y-84000000D03*
X89225000Y-84000000D03*
%TD*%
D26*
%TO.C,R6*%
X122000000Y-63000000D03*
X120350000Y-63000000D03*
%TD*%
%TO.C,R5*%
X92825000Y-60000000D03*
X91175000Y-60000000D03*
%TD*%
D21*
%TO.C,C_VM_A1*%
X116775410Y-71525494D03*
X114875410Y-71525494D03*
%TD*%
D23*
%TO.C,C_ISO_B1*%
X111571442Y-57886181D03*
X111571442Y-56336181D03*
%TD*%
D27*
%TO.C,D7*%
X135427191Y-77332625D03*
X135427191Y-81632625D03*
%TD*%
D28*
%TO.C,D4*%
X131450817Y-58211009D03*
X131450817Y-53911009D03*
%TD*%
D22*
%TO.C,C_VM_B2*%
X116528091Y-75243124D03*
X114978091Y-75243124D03*
%TD*%
D25*
%TO.C,C_ISO_C1*%
X106179158Y-66545081D03*
X107729158Y-66545081D03*
%TD*%
D29*
%TO.C,R7*%
X124613382Y-62660834D03*
X124613382Y-61010834D03*
%TD*%
D21*
%TO.C,C8*%
X99605525Y-60000000D03*
X97705525Y-60000000D03*
%TD*%
D30*
%TO.C,C10*%
X123186851Y-76322121D03*
X125086851Y-76322121D03*
%TD*%
D31*
%TO.C,D5*%
X124850000Y-92000000D03*
X129150000Y-92000000D03*
%TD*%
D23*
%TO.C,C_ISO_A1*%
X107767522Y-74779591D03*
X107767522Y-73229591D03*
%TD*%
D21*
%TO.C,C5*%
X90950000Y-81125000D03*
X89050000Y-81125000D03*
%TD*%
D32*
%TO.C,R_BOOT1*%
X103511782Y-77409507D03*
X105161782Y-77409507D03*
%TD*%
D27*
%TO.C,D6*%
X135427191Y-62703414D03*
X135427191Y-67003414D03*
%TD*%
D33*
%TO.C,F4*%
X128137500Y-97000000D03*
X123862500Y-97000000D03*
%TD*%
D29*
%TO.C,R_LED1*%
X79571542Y-68562966D03*
X79571542Y-66912966D03*
%TD*%
D26*
%TO.C,R9*%
X123064228Y-72563862D03*
X121414228Y-72563862D03*
%TD*%
D22*
%TO.C,C_ACS1*%
X89557237Y-60000000D03*
X88007237Y-60000000D03*
%TD*%
D25*
%TO.C,C_VCC_B1*%
X121457169Y-71017962D03*
X123007169Y-71017962D03*
%TD*%
D23*
%TO.C,C_ACS2*%
X95943426Y-74674418D03*
X95943426Y-73124418D03*
%TD*%
D26*
%TO.C,R8*%
X120000000Y-71000000D03*
X118350000Y-71000000D03*
%TD*%
%TO.C,R10*%
X122079824Y-60753184D03*
X120429824Y-60753184D03*
%TD*%
D22*
%TO.C,C_VCC_B2*%
X119936840Y-74000000D03*
X118386840Y-74000000D03*
%TD*%
%TO.C,C3*%
X90775000Y-87000000D03*
X89225000Y-87000000D03*
%TD*%
D21*
%TO.C,C_VCC_A2*%
X111428598Y-61788416D03*
X109528598Y-61788416D03*
%TD*%
D33*
%TO.C,F1*%
X139137500Y-58604079D03*
X134862500Y-58604079D03*
%TD*%
D25*
%TO.C,C_ISO_F1*%
X124450000Y-82000000D03*
X126000000Y-82000000D03*
%TD*%
D21*
%TO.C,C_VCC_A1*%
X111428598Y-59788416D03*
X109528598Y-59788416D03*
%TD*%
%LPD*%
M02*
