%TF.GenerationSoftware,KiCad,Pcbnew,9.0.8-9.0.8~ubuntu24.04.1*%
%TF.CreationDate,2026-04-24T13:10:00-07:00*%
%TF.ProjectId,barn-blinds-controller,6261726e-2d62-46c6-996e-64732d636f6e,rev?*%
%TF.SameCoordinates,Original*%
%TF.FileFunction,Copper,L3,Inr*%
%TF.FilePolarity,Positive*%
%FSLAX46Y46*%
G04 Gerber Fmt 4.6, Leading zero omitted, Abs format (unit mm)*
G04 Created by KiCad (PCBNEW 9.0.8-9.0.8~ubuntu24.04.1) date 2026-04-24 13:10:00*
%MOMM*%
%LPD*%
G01*
G04 APERTURE LIST*
G04 Aperture macros list*
%AMRoundRect*
0 Rectangle with rounded corners*
0 $1 Rounding radius*
0 $2 $3 $4 $5 $6 $7 $8 $9 X,Y pos of 4 corners*
0 Add a 4 corners polygon primitive as box body*
4,1,4,$2,$3,$4,$5,$6,$7,$8,$9,$2,$3,0*
0 Add four circle primitives for the rounded corners*
1,1,$1+$1,$2,$3*
1,1,$1+$1,$4,$5*
1,1,$1+$1,$6,$7*
1,1,$1+$1,$8,$9*
0 Add four rect primitives between the rounded corners*
20,1,$1+$1,$2,$3,$4,$5,0*
20,1,$1+$1,$4,$5,$6,$7,0*
20,1,$1+$1,$6,$7,$8,$9,0*
20,1,$1+$1,$8,$9,$2,$3,0*%
G04 Aperture macros list end*
%TA.AperFunction,ComponentPad*%
%ADD10C,2.000000*%
%TD*%
%TA.AperFunction,ComponentPad*%
%ADD11R,3.500000X3.500000*%
%TD*%
%TA.AperFunction,ComponentPad*%
%ADD12RoundRect,0.750000X0.750000X1.000000X-0.750000X1.000000X-0.750000X-1.000000X0.750000X-1.000000X0*%
%TD*%
%TA.AperFunction,ComponentPad*%
%ADD13RoundRect,0.875000X0.875000X0.875000X-0.875000X0.875000X-0.875000X-0.875000X0.875000X-0.875000X0*%
%TD*%
%TA.AperFunction,ComponentPad*%
%ADD14O,1.850000X1.050000*%
%TD*%
%TA.AperFunction,ComponentPad*%
%ADD15O,2.150000X1.050000*%
%TD*%
%TA.AperFunction,ComponentPad*%
%ADD16C,1.600000*%
%TD*%
%TA.AperFunction,ViaPad*%
%ADD17C,0.600000*%
%TD*%
%TA.AperFunction,ViaPad*%
%ADD18C,0.500000*%
%TD*%
%TA.AperFunction,ViaPad*%
%ADD19C,0.400000*%
%TD*%
%TA.AperFunction,ViaPad*%
%ADD20C,0.300000*%
%TD*%
%TA.AperFunction,Conductor*%
%ADD21C,0.300000*%
%TD*%
G04 APERTURE END LIST*
D10*
%TO.N,U3_B02*%
%TO.C,J3*%
X131203352Y-88468518D03*
X139403352Y-88468518D03*
%TO.N,Net-(D5-Pad2)*%
X131203352Y-84968518D03*
X139403352Y-84968518D03*
%TO.N,U3_A02*%
X131203352Y-81468518D03*
X139403352Y-81468518D03*
%TO.N,Net-(D7-Pad2)*%
X131203352Y-77968518D03*
X139403352Y-77968518D03*
%TO.N,U2_B02*%
X131203352Y-74468518D03*
X139403352Y-74468518D03*
%TO.N,Net-(D6-Pad2)*%
X131203352Y-70968518D03*
X139403352Y-70968518D03*
%TO.N,Net-(D4-Pad2)*%
X131203352Y-67468518D03*
X139403352Y-67468518D03*
%TO.N,U2_A01*%
X131203352Y-63968518D03*
X139403352Y-63968518D03*
%TD*%
D11*
%TO.N,Net-(D1-A)*%
%TO.C,J1*%
X131696898Y-97000000D03*
D12*
%TO.N,GND_MOTOR*%
X137696898Y-97000000D03*
D13*
%TO.N,N/C*%
X134696898Y-92300000D03*
%TD*%
D14*
%TO.N,GND_ISO*%
%TO.C,J2*%
X79969556Y-90444270D03*
X79969556Y-99084270D03*
D15*
X84119556Y-90444270D03*
X84119556Y-99084270D03*
%TD*%
D16*
%TO.N,+12V_RAW*%
%TO.C,U1*%
X113770000Y-103030000D03*
%TO.N,GND_MOTOR*%
X113770000Y-92870000D03*
X111230000Y-103030000D03*
%TO.N,+5V_ISO*%
X101070000Y-103030000D03*
X95990000Y-103030000D03*
%TO.N,GND_ISO*%
X106150000Y-103030000D03*
X98530000Y-103030000D03*
%TO.N,N/C*%
X103610000Y-103030000D03*
X98530000Y-92870000D03*
X95990000Y-92870000D03*
%TD*%
D17*
%TO.N,+12V*%
X126764525Y-64000000D03*
D18*
X111960999Y-82734904D03*
X112000000Y-84000000D03*
D19*
X117825000Y-70000000D03*
D17*
X126764525Y-69000000D03*
D19*
X111475000Y-84000000D03*
D17*
X115852346Y-77479845D03*
D19*
X115800000Y-85698884D03*
D17*
X117879206Y-54658149D03*
X126764525Y-67000000D03*
D19*
X111475000Y-82730000D03*
X118425000Y-63000000D03*
D17*
%TO.N,+12V_RAW*%
X119183198Y-103000000D03*
D19*
%TO.N,GND_ISO*%
X81000000Y-82000000D03*
X81000000Y-95000000D03*
X106225000Y-60000000D03*
D18*
X106525000Y-82730000D03*
D19*
X99000000Y-78000000D03*
X95943426Y-73124418D03*
X94630499Y-77991484D03*
X98000000Y-66000000D03*
X88000000Y-95000000D03*
X104000000Y-84000000D03*
X89225000Y-84000000D03*
X98000000Y-70000000D03*
X94442762Y-60000000D03*
X89050000Y-81125000D03*
D20*
X107800000Y-74635000D03*
D19*
X103000000Y-93000000D03*
X88000000Y-100000000D03*
X101000000Y-80000000D03*
X107000000Y-81000000D03*
X105000000Y-74000000D03*
X106179158Y-66545081D03*
X81000000Y-62000000D03*
X85000000Y-86000000D03*
X107000000Y-58000000D03*
X88007237Y-60000000D03*
X93000000Y-81000000D03*
X89225000Y-87000000D03*
D20*
X107800000Y-75270000D03*
D19*
X102750000Y-57240000D03*
X91000000Y-103000000D03*
X85000000Y-103000000D03*
X81000000Y-57000000D03*
X97705525Y-60000000D03*
X98000000Y-98000000D03*
X105171651Y-56063680D03*
X89000000Y-91000000D03*
X89050000Y-78000000D03*
X91000000Y-70000000D03*
X96000000Y-84000000D03*
%TO.N,+5V_ISO*%
X93688806Y-86934306D03*
X90062500Y-94950000D03*
%TO.N,+5V_OR*%
X90950000Y-78000000D03*
%TO.N,+3.3V_ISO*%
X90950000Y-81125000D03*
X96180499Y-77991484D03*
D17*
X104700000Y-57887500D03*
D19*
X85250000Y-58510000D03*
D20*
X107800000Y-66730000D03*
D19*
X90775000Y-84000000D03*
D18*
X106525000Y-86540000D03*
D20*
X107800000Y-60365000D03*
D17*
X95992762Y-60000000D03*
D20*
X107800000Y-73365000D03*
D19*
X105161782Y-77409507D03*
X96834163Y-79752787D03*
D17*
X99605525Y-60000000D03*
X92825000Y-60000000D03*
X89557237Y-60000000D03*
D20*
%TO.N,+3.3V_MOTOR*%
X113000000Y-66730000D03*
X113000000Y-73365000D03*
X113000000Y-60365000D03*
D19*
X111571442Y-57886181D03*
D20*
X121025000Y-62045950D03*
X121025000Y-71000000D03*
D18*
X124450000Y-82000000D03*
D19*
X110008365Y-57928049D03*
D20*
X124175000Y-60000000D03*
D19*
%TO.N,/GPIO14*%
X95943426Y-74674418D03*
D17*
%TO.N,Net-(D3-Pad2)*%
X79571542Y-68562966D03*
D19*
%TO.N,U2_A02*%
X121675000Y-69045950D03*
%TO.N,U2_B02*%
X122975000Y-69045950D03*
%TO.N,U3_B02*%
X122325000Y-78639034D03*
%TO.N,U2_A01*%
X119075000Y-69045950D03*
%TO.N,U2_B01*%
X125575000Y-69045950D03*
%TO.N,U3_A01*%
X119075000Y-78639034D03*
%TO.N,U3_B01*%
X125575000Y-78639034D03*
D18*
%TO.N,Net-(U11-BW_SEL)*%
X106525000Y-84000000D03*
D17*
%TO.N,/STBY*%
X121073141Y-73524512D03*
D20*
X122015122Y-60695950D03*
D17*
X124000000Y-75000000D03*
D20*
%TO.N,/PWM_M1*%
X119075000Y-62045950D03*
%TO.N,/PWM_M2*%
X124275000Y-62045950D03*
%TO.N,/PWM_M3*%
X119075000Y-70995950D03*
%TO.N,/PWM_M4*%
X124275000Y-70995950D03*
D19*
%TO.N,Net-(U3-EN)*%
X91175000Y-60000000D03*
X84656551Y-77476712D03*
%TO.N,Net-(U3-GPIO0{slash}BOOT)*%
X103511782Y-77409507D03*
%TO.N,Net-(U3-GPIO16{slash}U0CTS{slash}ADC2_CH5{slash}XTAL_32K_N)*%
X79571542Y-66912966D03*
%TO.N,GND_MOTOR*%
X123000000Y-57000000D03*
X131000000Y-105000000D03*
X123000000Y-91000000D03*
D17*
X135000000Y-55000000D03*
D19*
X129000000Y-51000000D03*
X117000000Y-82000000D03*
X122000000Y-52000000D03*
X128000000Y-106000000D03*
X120000000Y-95000000D03*
X135000000Y-102000000D03*
D18*
X120000000Y-68000000D03*
D19*
X128000000Y-76000000D03*
D18*
X122325000Y-62045950D03*
D19*
X120375000Y-78639034D03*
X113000000Y-81000000D03*
D17*
X138000000Y-92000000D03*
D18*
X126000000Y-82000000D03*
D17*
X114075345Y-56257427D03*
D20*
X122325000Y-70995950D03*
D19*
X118000000Y-99000000D03*
D17*
X114735445Y-78635517D03*
X122000000Y-59000000D03*
D18*
X123625000Y-69045950D03*
X119725000Y-69045950D03*
X124275000Y-69045950D03*
D19*
X125000000Y-95000000D03*
D17*
X117283198Y-103000000D03*
D19*
X114000000Y-98000000D03*
X124200000Y-85698884D03*
D17*
X114978091Y-76736421D03*
D19*
X116000000Y-52000000D03*
X127000000Y-93000000D03*
D17*
X126279206Y-54658149D03*
D18*
X125086851Y-76322121D03*
%TD*%
D21*
%TO.N,+5V_ISO*%
X97960000Y-105000000D02*
X95990000Y-103030000D01*
X99100000Y-105000000D02*
X97960000Y-105000000D01*
X101070000Y-103030000D02*
X99100000Y-105000000D01*
%TD*%
%TA.AperFunction,Conductor*%
%TO.N,+12V*%
G36*
X120166972Y-52986362D02*
G01*
X120212942Y-53038979D01*
X120224359Y-53090950D01*
X120224359Y-67128329D01*
X120204674Y-67195368D01*
X120151870Y-67241123D01*
X120082712Y-67251067D01*
X120076180Y-67249949D01*
X120073922Y-67249500D01*
X120073918Y-67249500D01*
X119926082Y-67249500D01*
X119926080Y-67249500D01*
X119781092Y-67278340D01*
X119781082Y-67278343D01*
X119644511Y-67334912D01*
X119644498Y-67334919D01*
X119521584Y-67417048D01*
X119521580Y-67417051D01*
X119417051Y-67521580D01*
X119417048Y-67521584D01*
X119334919Y-67644498D01*
X119334912Y-67644511D01*
X119278343Y-67781082D01*
X119278340Y-67781092D01*
X119249500Y-67926079D01*
X119249500Y-68073922D01*
X119274080Y-68197493D01*
X119267853Y-68267084D01*
X119224990Y-68322262D01*
X119159100Y-68345506D01*
X119150085Y-68345305D01*
X119150085Y-68345450D01*
X119006005Y-68345450D01*
X118870677Y-68372368D01*
X118870667Y-68372371D01*
X118743195Y-68425171D01*
X118743182Y-68425178D01*
X118628458Y-68501835D01*
X118628454Y-68501838D01*
X118530888Y-68599404D01*
X118530885Y-68599408D01*
X118454228Y-68714132D01*
X118454221Y-68714145D01*
X118401421Y-68841617D01*
X118401418Y-68841627D01*
X118374500Y-68976954D01*
X118374500Y-68976957D01*
X118374500Y-69114943D01*
X118374500Y-69114945D01*
X118374499Y-69114945D01*
X118401418Y-69250272D01*
X118401421Y-69250282D01*
X118454221Y-69377754D01*
X118454228Y-69377767D01*
X118530885Y-69492491D01*
X118530888Y-69492495D01*
X118628454Y-69590061D01*
X118628458Y-69590064D01*
X118743182Y-69666721D01*
X118743195Y-69666728D01*
X118870667Y-69719528D01*
X118870672Y-69719530D01*
X118870676Y-69719530D01*
X118870677Y-69719531D01*
X119006004Y-69746450D01*
X119006007Y-69746450D01*
X119143995Y-69746450D01*
X119235041Y-69728339D01*
X119279328Y-69719530D01*
X119287215Y-69716262D01*
X119356683Y-69708791D01*
X119382123Y-69716261D01*
X119506082Y-69767606D01*
X119506087Y-69767608D01*
X119506091Y-69767608D01*
X119506092Y-69767609D01*
X119651079Y-69796450D01*
X119651082Y-69796450D01*
X119798920Y-69796450D01*
X119896462Y-69777046D01*
X119943913Y-69767608D01*
X120052908Y-69722460D01*
X120122375Y-69714992D01*
X120184855Y-69746267D01*
X120220507Y-69806356D01*
X120224359Y-69837022D01*
X120224359Y-72625507D01*
X120224541Y-72639090D01*
X120224719Y-72645712D01*
X120225260Y-72659201D01*
X120253329Y-72800316D01*
X120253332Y-72800329D01*
X120276568Y-72866197D01*
X120276572Y-72866205D01*
X120276574Y-72866211D01*
X120276577Y-72866216D01*
X120286318Y-72884839D01*
X120300442Y-72942313D01*
X120300442Y-73293693D01*
X120298059Y-73317885D01*
X120272641Y-73445667D01*
X120272641Y-73445670D01*
X120272641Y-73603354D01*
X120272641Y-73603356D01*
X120272640Y-73603356D01*
X120298059Y-73731137D01*
X120300442Y-73755329D01*
X120300442Y-74108417D01*
X120289236Y-74159929D01*
X120264523Y-74214040D01*
X120244835Y-74281088D01*
X120224359Y-74423507D01*
X120224359Y-77860361D01*
X120204674Y-77927400D01*
X120151870Y-77973155D01*
X120147812Y-77974922D01*
X120043192Y-78018257D01*
X120043182Y-78018262D01*
X119928458Y-78094919D01*
X119928454Y-78094922D01*
X119830888Y-78192488D01*
X119830885Y-78192492D01*
X119828102Y-78196658D01*
X119774490Y-78241463D01*
X119705165Y-78250170D01*
X119642137Y-78220015D01*
X119621898Y-78196658D01*
X119619114Y-78192492D01*
X119619111Y-78192488D01*
X119521545Y-78094922D01*
X119521541Y-78094919D01*
X119406817Y-78018262D01*
X119406804Y-78018255D01*
X119279332Y-77965455D01*
X119279322Y-77965452D01*
X119143995Y-77938534D01*
X119143993Y-77938534D01*
X119006007Y-77938534D01*
X119006005Y-77938534D01*
X118870677Y-77965452D01*
X118870667Y-77965455D01*
X118743195Y-78018255D01*
X118743182Y-78018262D01*
X118628458Y-78094919D01*
X118628454Y-78094922D01*
X118530888Y-78192488D01*
X118530885Y-78192492D01*
X118454228Y-78307216D01*
X118454221Y-78307229D01*
X118401421Y-78434701D01*
X118401418Y-78434711D01*
X118374500Y-78570038D01*
X118374500Y-78570041D01*
X118374500Y-78708027D01*
X118374500Y-78708029D01*
X118374499Y-78708029D01*
X118401418Y-78843356D01*
X118401421Y-78843366D01*
X118454221Y-78970838D01*
X118454228Y-78970851D01*
X118530885Y-79085575D01*
X118530888Y-79085579D01*
X118628454Y-79183145D01*
X118628458Y-79183148D01*
X118743182Y-79259805D01*
X118743195Y-79259812D01*
X118870667Y-79312612D01*
X118870672Y-79312614D01*
X118870676Y-79312614D01*
X118870677Y-79312615D01*
X119006004Y-79339534D01*
X119006007Y-79339534D01*
X119143995Y-79339534D01*
X119235041Y-79321423D01*
X119279328Y-79312614D01*
X119406811Y-79259809D01*
X119521542Y-79183148D01*
X119619114Y-79085576D01*
X119621895Y-79081414D01*
X119675505Y-79036606D01*
X119744829Y-79027896D01*
X119807858Y-79058047D01*
X119828105Y-79081414D01*
X119830885Y-79085575D01*
X119830888Y-79085579D01*
X119928454Y-79183145D01*
X119928458Y-79183148D01*
X120043182Y-79259805D01*
X120043195Y-79259812D01*
X120147811Y-79303145D01*
X120202215Y-79346986D01*
X120224280Y-79413280D01*
X120224359Y-79417706D01*
X120224359Y-79883239D01*
X120232902Y-79975786D01*
X120241216Y-80020428D01*
X120241216Y-80020429D01*
X120266561Y-80109852D01*
X120308798Y-80185175D01*
X120336932Y-80235348D01*
X120379430Y-80290807D01*
X120482307Y-80391395D01*
X120609355Y-80458924D01*
X120675090Y-80482603D01*
X120797759Y-80507846D01*
X120816017Y-80511604D01*
X121069881Y-80526892D01*
X122883455Y-80636110D01*
X122949189Y-80659789D01*
X122991687Y-80715248D01*
X123000000Y-80759886D01*
X123000000Y-83999999D01*
X123000000Y-84000000D01*
X126500032Y-83889107D01*
X126500032Y-82612697D01*
X126519717Y-82545658D01*
X126536352Y-82525015D01*
X126582948Y-82478419D01*
X126582951Y-82478416D01*
X126665084Y-82355495D01*
X126721658Y-82218913D01*
X126750500Y-82073918D01*
X126750500Y-81926082D01*
X126750500Y-81926079D01*
X126721659Y-81781092D01*
X126721658Y-81781091D01*
X126721658Y-81781087D01*
X126677128Y-81673581D01*
X126665087Y-81644511D01*
X126665080Y-81644498D01*
X126582951Y-81521584D01*
X126582948Y-81521580D01*
X126536351Y-81474983D01*
X126502866Y-81413660D01*
X126500032Y-81387302D01*
X126500032Y-76068995D01*
X127299499Y-76068995D01*
X127326418Y-76204322D01*
X127326421Y-76204332D01*
X127379221Y-76331804D01*
X127379228Y-76331817D01*
X127455885Y-76446541D01*
X127455888Y-76446545D01*
X127553454Y-76544111D01*
X127553458Y-76544114D01*
X127668182Y-76620771D01*
X127668195Y-76620778D01*
X127757042Y-76657579D01*
X127795672Y-76673580D01*
X127795676Y-76673580D01*
X127795677Y-76673581D01*
X127931004Y-76700500D01*
X127931007Y-76700500D01*
X128068995Y-76700500D01*
X128160041Y-76682389D01*
X128204328Y-76673580D01*
X128331811Y-76620775D01*
X128446542Y-76544114D01*
X128544114Y-76446542D01*
X128620775Y-76331811D01*
X128673580Y-76204328D01*
X128693694Y-76103208D01*
X128700500Y-76068995D01*
X128700500Y-75931004D01*
X128673581Y-75795677D01*
X128673580Y-75795676D01*
X128673580Y-75795672D01*
X128655433Y-75751861D01*
X128620778Y-75668195D01*
X128620771Y-75668182D01*
X128544114Y-75553458D01*
X128544111Y-75553454D01*
X128446545Y-75455888D01*
X128446541Y-75455885D01*
X128331817Y-75379228D01*
X128331804Y-75379221D01*
X128204332Y-75326421D01*
X128204322Y-75326418D01*
X128068995Y-75299500D01*
X128068993Y-75299500D01*
X127931007Y-75299500D01*
X127931005Y-75299500D01*
X127795677Y-75326418D01*
X127795667Y-75326421D01*
X127668195Y-75379221D01*
X127668182Y-75379228D01*
X127553458Y-75455885D01*
X127553454Y-75455888D01*
X127455888Y-75553454D01*
X127455885Y-75553458D01*
X127379228Y-75668182D01*
X127379221Y-75668195D01*
X127326421Y-75795667D01*
X127326418Y-75795677D01*
X127299500Y-75931004D01*
X127299500Y-75931007D01*
X127299500Y-76068993D01*
X127299500Y-76068995D01*
X127299499Y-76068995D01*
X126500032Y-76068995D01*
X126500032Y-59017098D01*
X126519717Y-58950059D01*
X126572521Y-58904304D01*
X126627957Y-58893160D01*
X129879929Y-58996195D01*
X129946309Y-59017993D01*
X129990369Y-59072219D01*
X130000000Y-59120133D01*
X130000000Y-63031697D01*
X129980315Y-63098736D01*
X129976318Y-63104583D01*
X129920009Y-63182084D01*
X129812785Y-63392521D01*
X129739798Y-63617149D01*
X129702852Y-63850420D01*
X129702852Y-64086615D01*
X129739798Y-64319886D01*
X129812785Y-64544514D01*
X129920011Y-64754955D01*
X129976317Y-64832452D01*
X129999798Y-64898258D01*
X130000000Y-64905338D01*
X130000000Y-66531697D01*
X129980315Y-66598736D01*
X129976318Y-66604583D01*
X129920009Y-66682084D01*
X129812785Y-66892521D01*
X129739798Y-67117149D01*
X129702852Y-67350420D01*
X129702852Y-67586615D01*
X129739798Y-67819886D01*
X129812785Y-68044514D01*
X129920011Y-68254955D01*
X129976317Y-68332452D01*
X129999798Y-68398258D01*
X130000000Y-68405338D01*
X130000000Y-70031697D01*
X129980315Y-70098736D01*
X129976318Y-70104583D01*
X129920009Y-70182084D01*
X129812785Y-70392521D01*
X129739798Y-70617149D01*
X129702852Y-70850420D01*
X129702852Y-71086615D01*
X129739798Y-71319886D01*
X129812785Y-71544514D01*
X129920011Y-71754955D01*
X129976317Y-71832452D01*
X129999798Y-71898258D01*
X130000000Y-71905338D01*
X130000000Y-73531697D01*
X129980315Y-73598736D01*
X129976318Y-73604583D01*
X129920009Y-73682084D01*
X129812785Y-73892521D01*
X129739798Y-74117149D01*
X129702852Y-74350420D01*
X129702852Y-74586615D01*
X129739798Y-74819886D01*
X129812785Y-75044514D01*
X129920011Y-75254955D01*
X129976317Y-75332452D01*
X129999798Y-75398258D01*
X130000000Y-75405338D01*
X130000000Y-77031697D01*
X129980315Y-77098736D01*
X129976323Y-77104575D01*
X129968309Y-77115606D01*
X129920009Y-77182084D01*
X129812785Y-77392521D01*
X129739798Y-77617149D01*
X129702852Y-77850420D01*
X129702852Y-78086615D01*
X129739798Y-78319886D01*
X129812785Y-78544514D01*
X129920011Y-78754955D01*
X129976317Y-78832452D01*
X129999798Y-78898258D01*
X130000000Y-78905338D01*
X130000000Y-80531697D01*
X129980315Y-80598736D01*
X129976318Y-80604583D01*
X129920009Y-80682084D01*
X129812785Y-80892521D01*
X129739798Y-81117149D01*
X129702852Y-81350420D01*
X129702852Y-81586615D01*
X129739798Y-81819886D01*
X129812785Y-82044514D01*
X129920011Y-82254955D01*
X129976317Y-82332452D01*
X129999798Y-82398258D01*
X130000000Y-82405338D01*
X130000000Y-84031697D01*
X129980315Y-84098736D01*
X129976318Y-84104583D01*
X129920009Y-84182084D01*
X129812785Y-84392521D01*
X129739798Y-84617149D01*
X129702852Y-84850420D01*
X129702852Y-85086615D01*
X129739798Y-85319886D01*
X129812785Y-85544514D01*
X129920011Y-85754955D01*
X129976317Y-85832452D01*
X129999798Y-85898258D01*
X130000000Y-85905338D01*
X130000000Y-87531697D01*
X129980315Y-87598736D01*
X129976318Y-87604583D01*
X129920009Y-87682084D01*
X129812785Y-87892521D01*
X129739798Y-88117149D01*
X129702852Y-88350420D01*
X129702852Y-88586615D01*
X129739798Y-88819886D01*
X129812785Y-89044514D01*
X129920011Y-89254955D01*
X129976317Y-89332452D01*
X129999798Y-89398258D01*
X130000000Y-89405338D01*
X130000000Y-94627261D01*
X129980315Y-94694300D01*
X129927511Y-94740055D01*
X129889254Y-94750551D01*
X129839414Y-94755908D01*
X129704569Y-94806202D01*
X129704562Y-94806206D01*
X129589353Y-94892452D01*
X129589350Y-94892455D01*
X129503104Y-95007664D01*
X129503100Y-95007671D01*
X129452806Y-95142517D01*
X129446399Y-95202116D01*
X129446398Y-95202135D01*
X129446398Y-98797870D01*
X129446399Y-98797876D01*
X129452806Y-98857483D01*
X129503100Y-98992328D01*
X129503104Y-98992335D01*
X129589350Y-99107544D01*
X129589353Y-99107547D01*
X129704562Y-99193793D01*
X129704569Y-99193797D01*
X129839415Y-99244091D01*
X129839413Y-99244091D01*
X129889256Y-99249450D01*
X129953807Y-99276188D01*
X129993655Y-99333581D01*
X130000000Y-99372739D01*
X130000000Y-107842342D01*
X129980315Y-107909381D01*
X129927511Y-107955136D01*
X129876210Y-107966342D01*
X110124210Y-107999789D01*
X110057137Y-107980218D01*
X110011293Y-107927491D01*
X110000000Y-107875789D01*
X110000000Y-106068995D01*
X127299499Y-106068995D01*
X127326418Y-106204322D01*
X127326421Y-106204332D01*
X127379221Y-106331804D01*
X127379228Y-106331817D01*
X127455885Y-106446541D01*
X127455888Y-106446545D01*
X127553454Y-106544111D01*
X127553458Y-106544114D01*
X127668182Y-106620771D01*
X127668195Y-106620778D01*
X127795667Y-106673578D01*
X127795672Y-106673580D01*
X127795676Y-106673580D01*
X127795677Y-106673581D01*
X127931004Y-106700500D01*
X127931007Y-106700500D01*
X128068995Y-106700500D01*
X128160041Y-106682389D01*
X128204328Y-106673580D01*
X128331811Y-106620775D01*
X128446542Y-106544114D01*
X128544114Y-106446542D01*
X128620775Y-106331811D01*
X128673580Y-106204328D01*
X128700500Y-106068993D01*
X128700500Y-105931007D01*
X128700500Y-105931004D01*
X128673581Y-105795677D01*
X128673580Y-105795676D01*
X128673580Y-105795672D01*
X128673578Y-105795667D01*
X128620778Y-105668195D01*
X128620771Y-105668182D01*
X128544114Y-105553458D01*
X128544111Y-105553454D01*
X128446545Y-105455888D01*
X128446541Y-105455885D01*
X128331817Y-105379228D01*
X128331804Y-105379221D01*
X128204332Y-105326421D01*
X128204322Y-105326418D01*
X128068995Y-105299500D01*
X128068993Y-105299500D01*
X127931007Y-105299500D01*
X127931005Y-105299500D01*
X127795677Y-105326418D01*
X127795667Y-105326421D01*
X127668195Y-105379221D01*
X127668182Y-105379228D01*
X127553458Y-105455885D01*
X127553454Y-105455888D01*
X127455888Y-105553454D01*
X127455885Y-105553458D01*
X127379228Y-105668182D01*
X127379221Y-105668195D01*
X127326421Y-105795667D01*
X127326418Y-105795677D01*
X127299500Y-105931004D01*
X127299500Y-105931007D01*
X127299500Y-106068993D01*
X127299500Y-106068995D01*
X127299499Y-106068995D01*
X110000000Y-106068995D01*
X110000000Y-103931226D01*
X110019685Y-103864187D01*
X110072489Y-103818432D01*
X110141647Y-103808488D01*
X110205203Y-103837513D01*
X110224320Y-103858343D01*
X110238032Y-103877217D01*
X110382786Y-104021971D01*
X110537749Y-104134556D01*
X110548390Y-104142287D01*
X110664607Y-104201503D01*
X110730776Y-104235218D01*
X110730778Y-104235218D01*
X110730781Y-104235220D01*
X110835137Y-104269127D01*
X110925465Y-104298477D01*
X111026557Y-104314488D01*
X111127648Y-104330500D01*
X111127649Y-104330500D01*
X111332351Y-104330500D01*
X111332352Y-104330500D01*
X111534534Y-104298477D01*
X111729219Y-104235220D01*
X111911610Y-104142287D01*
X112004590Y-104074732D01*
X112077213Y-104021971D01*
X112077215Y-104021968D01*
X112077219Y-104021966D01*
X112221966Y-103877219D01*
X112221968Y-103877215D01*
X112221971Y-103877213D01*
X112342284Y-103711614D01*
X112342285Y-103711613D01*
X112342287Y-103711610D01*
X112389516Y-103618917D01*
X112437489Y-103568123D01*
X112505310Y-103551328D01*
X112571445Y-103573865D01*
X112610483Y-103618917D01*
X112611947Y-103621789D01*
X112657715Y-103711614D01*
X112778028Y-103877213D01*
X112922786Y-104021971D01*
X113077749Y-104134556D01*
X113088390Y-104142287D01*
X113204607Y-104201503D01*
X113270776Y-104235218D01*
X113270778Y-104235218D01*
X113270781Y-104235220D01*
X113375137Y-104269127D01*
X113465465Y-104298477D01*
X113566557Y-104314488D01*
X113667648Y-104330500D01*
X113667649Y-104330500D01*
X113872351Y-104330500D01*
X113872352Y-104330500D01*
X114074534Y-104298477D01*
X114269219Y-104235220D01*
X114451610Y-104142287D01*
X114544590Y-104074732D01*
X114617213Y-104021971D01*
X114617215Y-104021968D01*
X114617219Y-104021966D01*
X114761966Y-103877219D01*
X114761968Y-103877215D01*
X114761971Y-103877213D01*
X114840055Y-103769738D01*
X114882287Y-103711610D01*
X114975220Y-103529219D01*
X115038477Y-103334534D01*
X115070500Y-103132352D01*
X115070500Y-102927648D01*
X115069471Y-102921153D01*
X116482698Y-102921153D01*
X116482698Y-103078846D01*
X116513459Y-103233489D01*
X116513462Y-103233501D01*
X116573800Y-103379172D01*
X116573807Y-103379185D01*
X116661408Y-103510288D01*
X116661411Y-103510292D01*
X116772905Y-103621786D01*
X116772909Y-103621789D01*
X116904012Y-103709390D01*
X116904025Y-103709397D01*
X117049696Y-103769735D01*
X117049701Y-103769737D01*
X117204351Y-103800499D01*
X117204354Y-103800500D01*
X117204356Y-103800500D01*
X117362042Y-103800500D01*
X117362043Y-103800499D01*
X117516695Y-103769737D01*
X117629364Y-103723067D01*
X117662370Y-103709397D01*
X117662370Y-103709396D01*
X117662377Y-103709394D01*
X117793487Y-103621789D01*
X117904987Y-103510289D01*
X117992592Y-103379179D01*
X118052935Y-103233497D01*
X118083698Y-103078842D01*
X118083698Y-102921158D01*
X118083698Y-102921155D01*
X118083697Y-102921153D01*
X118382698Y-102921153D01*
X118382698Y-103078846D01*
X118413459Y-103233489D01*
X118413462Y-103233501D01*
X118473800Y-103379172D01*
X118473807Y-103379185D01*
X118561408Y-103510288D01*
X118561411Y-103510292D01*
X118672905Y-103621786D01*
X118672909Y-103621789D01*
X118804012Y-103709390D01*
X118804025Y-103709397D01*
X118949696Y-103769735D01*
X118949701Y-103769737D01*
X119104351Y-103800499D01*
X119104354Y-103800500D01*
X119104356Y-103800500D01*
X119262042Y-103800500D01*
X119262043Y-103800499D01*
X119416695Y-103769737D01*
X119529364Y-103723067D01*
X119562370Y-103709397D01*
X119562370Y-103709396D01*
X119562377Y-103709394D01*
X119693487Y-103621789D01*
X119804987Y-103510289D01*
X119892592Y-103379179D01*
X119952935Y-103233497D01*
X119983698Y-103078842D01*
X119983698Y-102921158D01*
X119983698Y-102921155D01*
X119983697Y-102921153D01*
X119952936Y-102766510D01*
X119952935Y-102766503D01*
X119935937Y-102725465D01*
X119892595Y-102620827D01*
X119892588Y-102620814D01*
X119804987Y-102489711D01*
X119804984Y-102489707D01*
X119693490Y-102378213D01*
X119693486Y-102378210D01*
X119562383Y-102290609D01*
X119562370Y-102290602D01*
X119416699Y-102230264D01*
X119416687Y-102230261D01*
X119262043Y-102199500D01*
X119262040Y-102199500D01*
X119104356Y-102199500D01*
X119104353Y-102199500D01*
X118949708Y-102230261D01*
X118949696Y-102230264D01*
X118804025Y-102290602D01*
X118804012Y-102290609D01*
X118672909Y-102378210D01*
X118672905Y-102378213D01*
X118561411Y-102489707D01*
X118561408Y-102489711D01*
X118473807Y-102620814D01*
X118473800Y-102620827D01*
X118413462Y-102766498D01*
X118413459Y-102766510D01*
X118382698Y-102921153D01*
X118083697Y-102921153D01*
X118052936Y-102766510D01*
X118052935Y-102766503D01*
X118035937Y-102725465D01*
X117992595Y-102620827D01*
X117992588Y-102620814D01*
X117904987Y-102489711D01*
X117904984Y-102489707D01*
X117793490Y-102378213D01*
X117793486Y-102378210D01*
X117662383Y-102290609D01*
X117662370Y-102290602D01*
X117516699Y-102230264D01*
X117516687Y-102230261D01*
X117362043Y-102199500D01*
X117362040Y-102199500D01*
X117204356Y-102199500D01*
X117204353Y-102199500D01*
X117049708Y-102230261D01*
X117049696Y-102230264D01*
X116904025Y-102290602D01*
X116904012Y-102290609D01*
X116772909Y-102378210D01*
X116772905Y-102378213D01*
X116661411Y-102489707D01*
X116661408Y-102489711D01*
X116573807Y-102620814D01*
X116573800Y-102620827D01*
X116513462Y-102766498D01*
X116513459Y-102766510D01*
X116482698Y-102921153D01*
X115069471Y-102921153D01*
X115038477Y-102725466D01*
X114975220Y-102530781D01*
X114975218Y-102530778D01*
X114975218Y-102530776D01*
X114929515Y-102441080D01*
X114882287Y-102348390D01*
X114840302Y-102290602D01*
X114761971Y-102182786D01*
X114617213Y-102038028D01*
X114451613Y-101917715D01*
X114451612Y-101917714D01*
X114451610Y-101917713D01*
X114394653Y-101888691D01*
X114269223Y-101824781D01*
X114074534Y-101761522D01*
X113899995Y-101733878D01*
X113872352Y-101729500D01*
X113667648Y-101729500D01*
X113643329Y-101733351D01*
X113465465Y-101761522D01*
X113270776Y-101824781D01*
X113088386Y-101917715D01*
X112922786Y-102038028D01*
X112778028Y-102182786D01*
X112657715Y-102348386D01*
X112610485Y-102441080D01*
X112562510Y-102491876D01*
X112494689Y-102508671D01*
X112428554Y-102486134D01*
X112389515Y-102441080D01*
X112388883Y-102439840D01*
X112342287Y-102348390D01*
X112300302Y-102290602D01*
X112221971Y-102182786D01*
X112077213Y-102038028D01*
X111911613Y-101917715D01*
X111911612Y-101917714D01*
X111911610Y-101917713D01*
X111854653Y-101888691D01*
X111729223Y-101824781D01*
X111534534Y-101761522D01*
X111359995Y-101733878D01*
X111332352Y-101729500D01*
X111127648Y-101729500D01*
X111103329Y-101733351D01*
X110925465Y-101761522D01*
X110730776Y-101824781D01*
X110548386Y-101917715D01*
X110382786Y-102038028D01*
X110238032Y-102182782D01*
X110238028Y-102182787D01*
X110224318Y-102201658D01*
X110168988Y-102244324D01*
X110099375Y-102250303D01*
X110037580Y-102217697D01*
X110003223Y-102156859D01*
X110000000Y-102128773D01*
X110000000Y-99068995D01*
X117299499Y-99068995D01*
X117326418Y-99204322D01*
X117326421Y-99204332D01*
X117379221Y-99331804D01*
X117379228Y-99331817D01*
X117455885Y-99446541D01*
X117455888Y-99446545D01*
X117553454Y-99544111D01*
X117553458Y-99544114D01*
X117668182Y-99620771D01*
X117668195Y-99620778D01*
X117795667Y-99673578D01*
X117795672Y-99673580D01*
X117795676Y-99673580D01*
X117795677Y-99673581D01*
X117931004Y-99700500D01*
X117931007Y-99700500D01*
X118068995Y-99700500D01*
X118160041Y-99682389D01*
X118204328Y-99673580D01*
X118331811Y-99620775D01*
X118446542Y-99544114D01*
X118544114Y-99446542D01*
X118620775Y-99331811D01*
X118673580Y-99204328D01*
X118692831Y-99107547D01*
X118700500Y-99068995D01*
X118700500Y-98931004D01*
X118673581Y-98795677D01*
X118673580Y-98795676D01*
X118673580Y-98795672D01*
X118634159Y-98700500D01*
X118620778Y-98668195D01*
X118620771Y-98668182D01*
X118544114Y-98553458D01*
X118544111Y-98553454D01*
X118446545Y-98455888D01*
X118446541Y-98455885D01*
X118331817Y-98379228D01*
X118331804Y-98379221D01*
X118204332Y-98326421D01*
X118204322Y-98326418D01*
X118068995Y-98299500D01*
X118068993Y-98299500D01*
X117931007Y-98299500D01*
X117931005Y-98299500D01*
X117795677Y-98326418D01*
X117795667Y-98326421D01*
X117668195Y-98379221D01*
X117668182Y-98379228D01*
X117553458Y-98455885D01*
X117553454Y-98455888D01*
X117455888Y-98553454D01*
X117455885Y-98553458D01*
X117379228Y-98668182D01*
X117379221Y-98668195D01*
X117326421Y-98795667D01*
X117326418Y-98795677D01*
X117299500Y-98931004D01*
X117299500Y-98931007D01*
X117299500Y-99068993D01*
X117299500Y-99068995D01*
X117299499Y-99068995D01*
X110000000Y-99068995D01*
X110000000Y-98068995D01*
X113299499Y-98068995D01*
X113326418Y-98204322D01*
X113326421Y-98204332D01*
X113379221Y-98331804D01*
X113379228Y-98331817D01*
X113455885Y-98446541D01*
X113455888Y-98446545D01*
X113553454Y-98544111D01*
X113553458Y-98544114D01*
X113668182Y-98620771D01*
X113668195Y-98620778D01*
X113782640Y-98668182D01*
X113795672Y-98673580D01*
X113795676Y-98673580D01*
X113795677Y-98673581D01*
X113931004Y-98700500D01*
X113931007Y-98700500D01*
X114068995Y-98700500D01*
X114160041Y-98682389D01*
X114204328Y-98673580D01*
X114331811Y-98620775D01*
X114446542Y-98544114D01*
X114544114Y-98446542D01*
X114620775Y-98331811D01*
X114673580Y-98204328D01*
X114700500Y-98068993D01*
X114700500Y-97931007D01*
X114700500Y-97931004D01*
X114673581Y-97795677D01*
X114673580Y-97795676D01*
X114673580Y-97795672D01*
X114673578Y-97795667D01*
X114620778Y-97668195D01*
X114620771Y-97668182D01*
X114544114Y-97553458D01*
X114544111Y-97553454D01*
X114446545Y-97455888D01*
X114446541Y-97455885D01*
X114331817Y-97379228D01*
X114331804Y-97379221D01*
X114204332Y-97326421D01*
X114204322Y-97326418D01*
X114068995Y-97299500D01*
X114068993Y-97299500D01*
X113931007Y-97299500D01*
X113931005Y-97299500D01*
X113795677Y-97326418D01*
X113795667Y-97326421D01*
X113668195Y-97379221D01*
X113668182Y-97379228D01*
X113553458Y-97455885D01*
X113553454Y-97455888D01*
X113455888Y-97553454D01*
X113455885Y-97553458D01*
X113379228Y-97668182D01*
X113379221Y-97668195D01*
X113326421Y-97795667D01*
X113326418Y-97795677D01*
X113299500Y-97931004D01*
X113299500Y-97931007D01*
X113299500Y-98068993D01*
X113299500Y-98068995D01*
X113299499Y-98068995D01*
X110000000Y-98068995D01*
X110000000Y-95068995D01*
X119299499Y-95068995D01*
X119326418Y-95204322D01*
X119326421Y-95204332D01*
X119379221Y-95331804D01*
X119379228Y-95331817D01*
X119455885Y-95446541D01*
X119455888Y-95446545D01*
X119553454Y-95544111D01*
X119553458Y-95544114D01*
X119668182Y-95620771D01*
X119668195Y-95620778D01*
X119795667Y-95673578D01*
X119795672Y-95673580D01*
X119795676Y-95673580D01*
X119795677Y-95673581D01*
X119931004Y-95700500D01*
X119931007Y-95700500D01*
X120068995Y-95700500D01*
X120160041Y-95682389D01*
X120204328Y-95673580D01*
X120331811Y-95620775D01*
X120446542Y-95544114D01*
X120544114Y-95446542D01*
X120620775Y-95331811D01*
X120673580Y-95204328D01*
X120700500Y-95068995D01*
X124299499Y-95068995D01*
X124326418Y-95204322D01*
X124326421Y-95204332D01*
X124379221Y-95331804D01*
X124379228Y-95331817D01*
X124455885Y-95446541D01*
X124455888Y-95446545D01*
X124553454Y-95544111D01*
X124553458Y-95544114D01*
X124668182Y-95620771D01*
X124668195Y-95620778D01*
X124795667Y-95673578D01*
X124795672Y-95673580D01*
X124795676Y-95673580D01*
X124795677Y-95673581D01*
X124931004Y-95700500D01*
X124931007Y-95700500D01*
X125068995Y-95700500D01*
X125160041Y-95682389D01*
X125204328Y-95673580D01*
X125331811Y-95620775D01*
X125446542Y-95544114D01*
X125544114Y-95446542D01*
X125620775Y-95331811D01*
X125673580Y-95204328D01*
X125700500Y-95068993D01*
X125700500Y-94931007D01*
X125700500Y-94931004D01*
X125673581Y-94795677D01*
X125673580Y-94795676D01*
X125673580Y-94795672D01*
X125657109Y-94755908D01*
X125620778Y-94668195D01*
X125620771Y-94668182D01*
X125544114Y-94553458D01*
X125544111Y-94553454D01*
X125446545Y-94455888D01*
X125446541Y-94455885D01*
X125331817Y-94379228D01*
X125331804Y-94379221D01*
X125204332Y-94326421D01*
X125204322Y-94326418D01*
X125068995Y-94299500D01*
X125068993Y-94299500D01*
X124931007Y-94299500D01*
X124931005Y-94299500D01*
X124795677Y-94326418D01*
X124795667Y-94326421D01*
X124668195Y-94379221D01*
X124668182Y-94379228D01*
X124553458Y-94455885D01*
X124553454Y-94455888D01*
X124455888Y-94553454D01*
X124455885Y-94553458D01*
X124379228Y-94668182D01*
X124379221Y-94668195D01*
X124326421Y-94795667D01*
X124326418Y-94795677D01*
X124299500Y-94931004D01*
X124299500Y-94931007D01*
X124299500Y-95068993D01*
X124299500Y-95068995D01*
X124299499Y-95068995D01*
X120700500Y-95068995D01*
X120700500Y-95068993D01*
X120700500Y-94931007D01*
X120700500Y-94931004D01*
X120673581Y-94795677D01*
X120673580Y-94795676D01*
X120673580Y-94795672D01*
X120657109Y-94755908D01*
X120620778Y-94668195D01*
X120620771Y-94668182D01*
X120544114Y-94553458D01*
X120544111Y-94553454D01*
X120446545Y-94455888D01*
X120446541Y-94455885D01*
X120331817Y-94379228D01*
X120331804Y-94379221D01*
X120204332Y-94326421D01*
X120204322Y-94326418D01*
X120068995Y-94299500D01*
X120068993Y-94299500D01*
X119931007Y-94299500D01*
X119931005Y-94299500D01*
X119795677Y-94326418D01*
X119795667Y-94326421D01*
X119668195Y-94379221D01*
X119668182Y-94379228D01*
X119553458Y-94455885D01*
X119553454Y-94455888D01*
X119455888Y-94553454D01*
X119455885Y-94553458D01*
X119379228Y-94668182D01*
X119379221Y-94668195D01*
X119326421Y-94795667D01*
X119326418Y-94795677D01*
X119299500Y-94931004D01*
X119299500Y-94931007D01*
X119299500Y-95068993D01*
X119299500Y-95068995D01*
X119299499Y-95068995D01*
X110000000Y-95068995D01*
X110000000Y-92767648D01*
X112469500Y-92767648D01*
X112469500Y-92972351D01*
X112501522Y-93174534D01*
X112564781Y-93369223D01*
X112657715Y-93551613D01*
X112778028Y-93717213D01*
X112922786Y-93861971D01*
X113077749Y-93974556D01*
X113088390Y-93982287D01*
X113204607Y-94041503D01*
X113270776Y-94075218D01*
X113270778Y-94075218D01*
X113270781Y-94075220D01*
X113375137Y-94109127D01*
X113465465Y-94138477D01*
X113566557Y-94154488D01*
X113667648Y-94170500D01*
X113667649Y-94170500D01*
X113872351Y-94170500D01*
X113872352Y-94170500D01*
X114074534Y-94138477D01*
X114269219Y-94075220D01*
X114451610Y-93982287D01*
X114544590Y-93914732D01*
X114617213Y-93861971D01*
X114617215Y-93861968D01*
X114617219Y-93861966D01*
X114761966Y-93717219D01*
X114761968Y-93717215D01*
X114761971Y-93717213D01*
X114832039Y-93620771D01*
X114882287Y-93551610D01*
X114975220Y-93369219D01*
X115038477Y-93174534D01*
X115055193Y-93068995D01*
X126299499Y-93068995D01*
X126326418Y-93204322D01*
X126326421Y-93204332D01*
X126379221Y-93331804D01*
X126379228Y-93331817D01*
X126455885Y-93446541D01*
X126455888Y-93446545D01*
X126553454Y-93544111D01*
X126553458Y-93544114D01*
X126668182Y-93620771D01*
X126668195Y-93620778D01*
X126795667Y-93673578D01*
X126795672Y-93673580D01*
X126795676Y-93673580D01*
X126795677Y-93673581D01*
X126931004Y-93700500D01*
X126931007Y-93700500D01*
X127068995Y-93700500D01*
X127160041Y-93682389D01*
X127204328Y-93673580D01*
X127331811Y-93620775D01*
X127446542Y-93544114D01*
X127544114Y-93446542D01*
X127620775Y-93331811D01*
X127673580Y-93204328D01*
X127700500Y-93068993D01*
X127700500Y-92931007D01*
X127700500Y-92931004D01*
X127673581Y-92795677D01*
X127673580Y-92795676D01*
X127673580Y-92795672D01*
X127661972Y-92767648D01*
X127620778Y-92668195D01*
X127620771Y-92668182D01*
X127544114Y-92553458D01*
X127544111Y-92553454D01*
X127446545Y-92455888D01*
X127446541Y-92455885D01*
X127331817Y-92379228D01*
X127331804Y-92379221D01*
X127204332Y-92326421D01*
X127204322Y-92326418D01*
X127068995Y-92299500D01*
X127068993Y-92299500D01*
X126931007Y-92299500D01*
X126931005Y-92299500D01*
X126795677Y-92326418D01*
X126795667Y-92326421D01*
X126668195Y-92379221D01*
X126668182Y-92379228D01*
X126553458Y-92455885D01*
X126553454Y-92455888D01*
X126455888Y-92553454D01*
X126455885Y-92553458D01*
X126379228Y-92668182D01*
X126379221Y-92668195D01*
X126326421Y-92795667D01*
X126326418Y-92795677D01*
X126299500Y-92931004D01*
X126299500Y-92931007D01*
X126299500Y-93068993D01*
X126299500Y-93068995D01*
X126299499Y-93068995D01*
X115055193Y-93068995D01*
X115070500Y-92972352D01*
X115070500Y-92767648D01*
X115038477Y-92565466D01*
X115034575Y-92553458D01*
X115002872Y-92455885D01*
X114975220Y-92370781D01*
X114975218Y-92370778D01*
X114975218Y-92370776D01*
X114938900Y-92299500D01*
X114882287Y-92188390D01*
X114874556Y-92177749D01*
X114761971Y-92022786D01*
X114617213Y-91878028D01*
X114451613Y-91757715D01*
X114451612Y-91757714D01*
X114451610Y-91757713D01*
X114394653Y-91728691D01*
X114269223Y-91664781D01*
X114074534Y-91601522D01*
X113899995Y-91573878D01*
X113872352Y-91569500D01*
X113667648Y-91569500D01*
X113643329Y-91573351D01*
X113465465Y-91601522D01*
X113270776Y-91664781D01*
X113088386Y-91757715D01*
X112922786Y-91878028D01*
X112778028Y-92022786D01*
X112657715Y-92188386D01*
X112564781Y-92370776D01*
X112501522Y-92565465D01*
X112469500Y-92767648D01*
X110000000Y-92767648D01*
X110000000Y-91068995D01*
X122299499Y-91068995D01*
X122326418Y-91204322D01*
X122326421Y-91204332D01*
X122379221Y-91331804D01*
X122379228Y-91331817D01*
X122455885Y-91446541D01*
X122455888Y-91446545D01*
X122553454Y-91544111D01*
X122553458Y-91544114D01*
X122668182Y-91620771D01*
X122668195Y-91620778D01*
X122774429Y-91664781D01*
X122795672Y-91673580D01*
X122795676Y-91673580D01*
X122795677Y-91673581D01*
X122931004Y-91700500D01*
X122931007Y-91700500D01*
X123068995Y-91700500D01*
X123160041Y-91682389D01*
X123204328Y-91673580D01*
X123331811Y-91620775D01*
X123446542Y-91544114D01*
X123544114Y-91446542D01*
X123620775Y-91331811D01*
X123673580Y-91204328D01*
X123700500Y-91068993D01*
X123700500Y-90931007D01*
X123700500Y-90931004D01*
X123673581Y-90795677D01*
X123673580Y-90795676D01*
X123673580Y-90795672D01*
X123673578Y-90795667D01*
X123620778Y-90668195D01*
X123620771Y-90668182D01*
X123544114Y-90553458D01*
X123544111Y-90553454D01*
X123446545Y-90455888D01*
X123446541Y-90455885D01*
X123331817Y-90379228D01*
X123331804Y-90379221D01*
X123204332Y-90326421D01*
X123204322Y-90326418D01*
X123068995Y-90299500D01*
X123068993Y-90299500D01*
X122931007Y-90299500D01*
X122931005Y-90299500D01*
X122795677Y-90326418D01*
X122795667Y-90326421D01*
X122668195Y-90379221D01*
X122668182Y-90379228D01*
X122553458Y-90455885D01*
X122553454Y-90455888D01*
X122455888Y-90553454D01*
X122455885Y-90553458D01*
X122379228Y-90668182D01*
X122379221Y-90668195D01*
X122326421Y-90795667D01*
X122326418Y-90795677D01*
X122299500Y-90931004D01*
X122299500Y-90931007D01*
X122299500Y-91068993D01*
X122299500Y-91068995D01*
X122299499Y-91068995D01*
X110000000Y-91068995D01*
X110000000Y-85767879D01*
X123499499Y-85767879D01*
X123526418Y-85903206D01*
X123526421Y-85903216D01*
X123579221Y-86030688D01*
X123579228Y-86030701D01*
X123655885Y-86145425D01*
X123655888Y-86145429D01*
X123753454Y-86242995D01*
X123753458Y-86242998D01*
X123868182Y-86319655D01*
X123868195Y-86319662D01*
X123995667Y-86372462D01*
X123995672Y-86372464D01*
X123995676Y-86372464D01*
X123995677Y-86372465D01*
X124131004Y-86399384D01*
X124131007Y-86399384D01*
X124268995Y-86399384D01*
X124360041Y-86381273D01*
X124404328Y-86372464D01*
X124531811Y-86319659D01*
X124646542Y-86242998D01*
X124744114Y-86145426D01*
X124820775Y-86030695D01*
X124873580Y-85903212D01*
X124900500Y-85767877D01*
X124900500Y-85629891D01*
X124900500Y-85629888D01*
X124873581Y-85494561D01*
X124873580Y-85494560D01*
X124873580Y-85494556D01*
X124873578Y-85494551D01*
X124820778Y-85367079D01*
X124820771Y-85367066D01*
X124744114Y-85252342D01*
X124744111Y-85252338D01*
X124646545Y-85154772D01*
X124646541Y-85154769D01*
X124531817Y-85078112D01*
X124531804Y-85078105D01*
X124404332Y-85025305D01*
X124404322Y-85025302D01*
X124268995Y-84998384D01*
X124268993Y-84998384D01*
X124131007Y-84998384D01*
X124131005Y-84998384D01*
X123995677Y-85025302D01*
X123995667Y-85025305D01*
X123868195Y-85078105D01*
X123868182Y-85078112D01*
X123753458Y-85154769D01*
X123753454Y-85154772D01*
X123655888Y-85252338D01*
X123655885Y-85252342D01*
X123579228Y-85367066D01*
X123579221Y-85367079D01*
X123526421Y-85494551D01*
X123526418Y-85494561D01*
X123499500Y-85629888D01*
X123499500Y-85629891D01*
X123499500Y-85767877D01*
X123499500Y-85767879D01*
X123499499Y-85767879D01*
X110000000Y-85767879D01*
X110000000Y-82068995D01*
X116299499Y-82068995D01*
X116326418Y-82204322D01*
X116326421Y-82204332D01*
X116379221Y-82331804D01*
X116379228Y-82331817D01*
X116455885Y-82446541D01*
X116455888Y-82446545D01*
X116553454Y-82544111D01*
X116553458Y-82544114D01*
X116668182Y-82620771D01*
X116668195Y-82620778D01*
X116795667Y-82673578D01*
X116795672Y-82673580D01*
X116795676Y-82673580D01*
X116795677Y-82673581D01*
X116931004Y-82700500D01*
X116931007Y-82700500D01*
X117068995Y-82700500D01*
X117160041Y-82682389D01*
X117204328Y-82673580D01*
X117331811Y-82620775D01*
X117446542Y-82544114D01*
X117544114Y-82446542D01*
X117620775Y-82331811D01*
X117673580Y-82204328D01*
X117699520Y-82073920D01*
X117700500Y-82068995D01*
X117700500Y-81931004D01*
X117673581Y-81795677D01*
X117673580Y-81795676D01*
X117673580Y-81795672D01*
X117634159Y-81700500D01*
X117620778Y-81668195D01*
X117620771Y-81668182D01*
X117544114Y-81553458D01*
X117544111Y-81553454D01*
X117446545Y-81455888D01*
X117446541Y-81455885D01*
X117331817Y-81379228D01*
X117331804Y-81379221D01*
X117204332Y-81326421D01*
X117204322Y-81326418D01*
X117068995Y-81299500D01*
X117068993Y-81299500D01*
X116931007Y-81299500D01*
X116931005Y-81299500D01*
X116795677Y-81326418D01*
X116795667Y-81326421D01*
X116668195Y-81379221D01*
X116668182Y-81379228D01*
X116553458Y-81455885D01*
X116553454Y-81455888D01*
X116455888Y-81553454D01*
X116455885Y-81553458D01*
X116379228Y-81668182D01*
X116379221Y-81668195D01*
X116326421Y-81795667D01*
X116326418Y-81795677D01*
X116299500Y-81931004D01*
X116299500Y-81931007D01*
X116299500Y-82068993D01*
X116299500Y-82068995D01*
X116299499Y-82068995D01*
X110000000Y-82068995D01*
X110000000Y-81068995D01*
X112299499Y-81068995D01*
X112326418Y-81204322D01*
X112326421Y-81204332D01*
X112379221Y-81331804D01*
X112379228Y-81331817D01*
X112455885Y-81446541D01*
X112455888Y-81446545D01*
X112553454Y-81544111D01*
X112553458Y-81544114D01*
X112668182Y-81620771D01*
X112668195Y-81620778D01*
X112782640Y-81668182D01*
X112795672Y-81673580D01*
X112795676Y-81673580D01*
X112795677Y-81673581D01*
X112931004Y-81700500D01*
X112931007Y-81700500D01*
X113068995Y-81700500D01*
X113160041Y-81682389D01*
X113204328Y-81673580D01*
X113331811Y-81620775D01*
X113446542Y-81544114D01*
X113544114Y-81446542D01*
X113620775Y-81331811D01*
X113673580Y-81204328D01*
X113700500Y-81068993D01*
X113700500Y-80931007D01*
X113700500Y-80931004D01*
X113673581Y-80795677D01*
X113673580Y-80795676D01*
X113673580Y-80795672D01*
X113658757Y-80759886D01*
X113620778Y-80668195D01*
X113620771Y-80668182D01*
X113544114Y-80553458D01*
X113544111Y-80553454D01*
X113446545Y-80455888D01*
X113446541Y-80455885D01*
X113331817Y-80379228D01*
X113331804Y-80379221D01*
X113204332Y-80326421D01*
X113204322Y-80326418D01*
X113068995Y-80299500D01*
X113068993Y-80299500D01*
X112931007Y-80299500D01*
X112931005Y-80299500D01*
X112795677Y-80326418D01*
X112795667Y-80326421D01*
X112668195Y-80379221D01*
X112668182Y-80379228D01*
X112553458Y-80455885D01*
X112553454Y-80455888D01*
X112455888Y-80553454D01*
X112455885Y-80553458D01*
X112379228Y-80668182D01*
X112379221Y-80668195D01*
X112326421Y-80795667D01*
X112326418Y-80795677D01*
X112299500Y-80931004D01*
X112299500Y-80931007D01*
X112299500Y-81068993D01*
X112299500Y-81068995D01*
X112299499Y-81068995D01*
X110000000Y-81068995D01*
X110000000Y-79126454D01*
X110019685Y-79059415D01*
X110072489Y-79013660D01*
X110126427Y-79002478D01*
X114004827Y-79078511D01*
X114071465Y-79099505D01*
X114105495Y-79133593D01*
X114113656Y-79145807D01*
X114225152Y-79257303D01*
X114225156Y-79257306D01*
X114356259Y-79344907D01*
X114356272Y-79344914D01*
X114501943Y-79405252D01*
X114501948Y-79405254D01*
X114656598Y-79436016D01*
X114656601Y-79436017D01*
X114656603Y-79436017D01*
X114814289Y-79436017D01*
X114814290Y-79436016D01*
X114968942Y-79405254D01*
X115081611Y-79358584D01*
X115114617Y-79344914D01*
X115114617Y-79344913D01*
X115114624Y-79344911D01*
X115245734Y-79257306D01*
X115357234Y-79145806D01*
X115357236Y-79145802D01*
X115359902Y-79143137D01*
X115421225Y-79109652D01*
X115450009Y-79106842D01*
X115583901Y-79109467D01*
X115587808Y-79109544D01*
X115587808Y-79109543D01*
X115587809Y-79109544D01*
X115587809Y-77302391D01*
X115607494Y-77235352D01*
X115608707Y-77233500D01*
X115687481Y-77115606D01*
X115687481Y-77115605D01*
X115687485Y-77115600D01*
X115747828Y-76969918D01*
X115778591Y-76815263D01*
X115778591Y-76657579D01*
X115778591Y-76657576D01*
X115778590Y-76657574D01*
X115771269Y-76620771D01*
X115747828Y-76502924D01*
X115724474Y-76446541D01*
X115687488Y-76357248D01*
X115687481Y-76357235D01*
X115608707Y-76239341D01*
X115587829Y-76172663D01*
X115587809Y-76170450D01*
X115587809Y-71060021D01*
X118424499Y-71060021D01*
X118449497Y-71185688D01*
X118449499Y-71185694D01*
X118498533Y-71304074D01*
X118498538Y-71304083D01*
X118569723Y-71410618D01*
X118569726Y-71410622D01*
X118660327Y-71501223D01*
X118660331Y-71501226D01*
X118766866Y-71572411D01*
X118766872Y-71572414D01*
X118766873Y-71572415D01*
X118885256Y-71621451D01*
X118885260Y-71621451D01*
X118885261Y-71621452D01*
X119010928Y-71646450D01*
X119010931Y-71646450D01*
X119139071Y-71646450D01*
X119223615Y-71629632D01*
X119264744Y-71621451D01*
X119383127Y-71572415D01*
X119489669Y-71501226D01*
X119580276Y-71410619D01*
X119651465Y-71304077D01*
X119700501Y-71185694D01*
X119725500Y-71060019D01*
X119725500Y-70931881D01*
X119725500Y-70931878D01*
X119700502Y-70806211D01*
X119700501Y-70806210D01*
X119700501Y-70806206D01*
X119651465Y-70687823D01*
X119651464Y-70687822D01*
X119651461Y-70687816D01*
X119580276Y-70581281D01*
X119580273Y-70581277D01*
X119489672Y-70490676D01*
X119489668Y-70490673D01*
X119383133Y-70419488D01*
X119383124Y-70419483D01*
X119264744Y-70370449D01*
X119264738Y-70370447D01*
X119139071Y-70345450D01*
X119139069Y-70345450D01*
X119010931Y-70345450D01*
X119010929Y-70345450D01*
X118885261Y-70370447D01*
X118885255Y-70370449D01*
X118766875Y-70419483D01*
X118766866Y-70419488D01*
X118660331Y-70490673D01*
X118660327Y-70490676D01*
X118569726Y-70581277D01*
X118569723Y-70581281D01*
X118498538Y-70687816D01*
X118498533Y-70687825D01*
X118449499Y-70806205D01*
X118449497Y-70806211D01*
X118424500Y-70931878D01*
X118424500Y-70931881D01*
X118424500Y-71060019D01*
X118424500Y-71060021D01*
X118424499Y-71060021D01*
X115587809Y-71060021D01*
X115587809Y-62110021D01*
X118424499Y-62110021D01*
X118449497Y-62235688D01*
X118449499Y-62235694D01*
X118498533Y-62354074D01*
X118498538Y-62354083D01*
X118569723Y-62460618D01*
X118569726Y-62460622D01*
X118660327Y-62551223D01*
X118660331Y-62551226D01*
X118766866Y-62622411D01*
X118766872Y-62622414D01*
X118766873Y-62622415D01*
X118885256Y-62671451D01*
X118885260Y-62671451D01*
X118885261Y-62671452D01*
X119010928Y-62696450D01*
X119010931Y-62696450D01*
X119139071Y-62696450D01*
X119223615Y-62679632D01*
X119264744Y-62671451D01*
X119383127Y-62622415D01*
X119489669Y-62551226D01*
X119580276Y-62460619D01*
X119651465Y-62354077D01*
X119700501Y-62235694D01*
X119725500Y-62110019D01*
X119725500Y-61981881D01*
X119725500Y-61981878D01*
X119700502Y-61856211D01*
X119700501Y-61856210D01*
X119700501Y-61856206D01*
X119651465Y-61737823D01*
X119651464Y-61737822D01*
X119651461Y-61737816D01*
X119580276Y-61631281D01*
X119580273Y-61631277D01*
X119489672Y-61540676D01*
X119489668Y-61540673D01*
X119383133Y-61469488D01*
X119383124Y-61469483D01*
X119264744Y-61420449D01*
X119264738Y-61420447D01*
X119139071Y-61395450D01*
X119139069Y-61395450D01*
X119010931Y-61395450D01*
X119010929Y-61395450D01*
X118885261Y-61420447D01*
X118885255Y-61420449D01*
X118766875Y-61469483D01*
X118766866Y-61469488D01*
X118660331Y-61540673D01*
X118660327Y-61540676D01*
X118569726Y-61631277D01*
X118569723Y-61631281D01*
X118498538Y-61737816D01*
X118498533Y-61737825D01*
X118449499Y-61856205D01*
X118449497Y-61856211D01*
X118424500Y-61981878D01*
X118424500Y-61981881D01*
X118424500Y-62110019D01*
X118424500Y-62110021D01*
X118424499Y-62110021D01*
X115587809Y-62110021D01*
X115587809Y-58109544D01*
X114973932Y-58090800D01*
X114957597Y-58089215D01*
X114888711Y-58077888D01*
X114888704Y-58077887D01*
X113893392Y-58057802D01*
X113892110Y-58057769D01*
X112392158Y-58011973D01*
X112325750Y-57990252D01*
X112281628Y-57936076D01*
X112271942Y-57888031D01*
X112271942Y-57817185D01*
X112245023Y-57681858D01*
X112245022Y-57681857D01*
X112245022Y-57681853D01*
X112245020Y-57681848D01*
X112192220Y-57554376D01*
X112192213Y-57554363D01*
X112115556Y-57439639D01*
X112115553Y-57439635D01*
X112036319Y-57360401D01*
X112002834Y-57299078D01*
X112000000Y-57272720D01*
X112000000Y-56178580D01*
X113274845Y-56178580D01*
X113274845Y-56336273D01*
X113305606Y-56490916D01*
X113305609Y-56490928D01*
X113365947Y-56636599D01*
X113365954Y-56636612D01*
X113453555Y-56767715D01*
X113453558Y-56767719D01*
X113565052Y-56879213D01*
X113565056Y-56879216D01*
X113696159Y-56966817D01*
X113696172Y-56966824D01*
X113841843Y-57027162D01*
X113841848Y-57027164D01*
X113996498Y-57057926D01*
X113996501Y-57057927D01*
X113996503Y-57057927D01*
X114154189Y-57057927D01*
X114154190Y-57057926D01*
X114308842Y-57027164D01*
X114454524Y-56966821D01*
X114585634Y-56879216D01*
X114697134Y-56767716D01*
X114784739Y-56636606D01*
X114845082Y-56490924D01*
X114875845Y-56336269D01*
X114875845Y-56178585D01*
X114875845Y-56178582D01*
X114875844Y-56178580D01*
X114845083Y-56023937D01*
X114845082Y-56023930D01*
X114845080Y-56023925D01*
X114784742Y-55878254D01*
X114784735Y-55878241D01*
X114697134Y-55747138D01*
X114697131Y-55747134D01*
X114585637Y-55635640D01*
X114585633Y-55635637D01*
X114454530Y-55548036D01*
X114454517Y-55548029D01*
X114308846Y-55487691D01*
X114308834Y-55487688D01*
X114154190Y-55456927D01*
X114154187Y-55456927D01*
X113996503Y-55456927D01*
X113996500Y-55456927D01*
X113841855Y-55487688D01*
X113841843Y-55487691D01*
X113696172Y-55548029D01*
X113696159Y-55548036D01*
X113565056Y-55635637D01*
X113565052Y-55635640D01*
X113453558Y-55747134D01*
X113453555Y-55747138D01*
X113365954Y-55878241D01*
X113365947Y-55878254D01*
X113305609Y-56023925D01*
X113305606Y-56023937D01*
X113274845Y-56178580D01*
X112000000Y-56178580D01*
X112000000Y-53123495D01*
X112019685Y-53056456D01*
X112072489Y-53010701D01*
X112123493Y-52999496D01*
X120099854Y-52966951D01*
X120166972Y-52986362D01*
G37*
%TD.AperFunction*%
%TD*%
%TA.AperFunction,Conductor*%
%TO.N,+3.3V_MOTOR*%
G36*
X125310077Y-50122424D02*
G01*
X125376955Y-50142644D01*
X125422287Y-50195812D01*
X125433084Y-50246420D01*
X125433084Y-68263664D01*
X125413399Y-68330703D01*
X125360595Y-68376458D01*
X125356536Y-68378225D01*
X125243195Y-68425171D01*
X125243182Y-68425178D01*
X125128458Y-68501835D01*
X125046825Y-68583468D01*
X124985501Y-68616952D01*
X124915810Y-68611968D01*
X124862257Y-68571878D01*
X124861815Y-68572242D01*
X124860337Y-68570441D01*
X124859876Y-68570096D01*
X124858763Y-68568523D01*
X124857948Y-68567530D01*
X124753419Y-68463001D01*
X124753415Y-68462998D01*
X124630501Y-68380869D01*
X124630488Y-68380862D01*
X124493917Y-68324293D01*
X124493907Y-68324290D01*
X124348920Y-68295450D01*
X124348918Y-68295450D01*
X124201082Y-68295450D01*
X124201080Y-68295450D01*
X124056093Y-68324290D01*
X124056085Y-68324292D01*
X123997452Y-68348579D01*
X123927982Y-68356048D01*
X123902548Y-68348579D01*
X123843914Y-68324292D01*
X123843906Y-68324290D01*
X123698920Y-68295450D01*
X123698918Y-68295450D01*
X123551082Y-68295450D01*
X123551080Y-68295450D01*
X123406092Y-68324290D01*
X123406082Y-68324293D01*
X123282123Y-68375638D01*
X123212653Y-68383107D01*
X123187224Y-68375640D01*
X123179332Y-68372371D01*
X123179321Y-68372368D01*
X123043995Y-68345450D01*
X123043993Y-68345450D01*
X122906007Y-68345450D01*
X122906005Y-68345450D01*
X122770677Y-68372368D01*
X122770667Y-68372371D01*
X122643195Y-68425171D01*
X122643182Y-68425178D01*
X122528458Y-68501835D01*
X122528454Y-68501838D01*
X122430888Y-68599404D01*
X122430885Y-68599408D01*
X122428102Y-68603574D01*
X122374490Y-68648379D01*
X122305165Y-68657086D01*
X122242137Y-68626931D01*
X122221898Y-68603574D01*
X122219114Y-68599408D01*
X122219111Y-68599404D01*
X122121545Y-68501838D01*
X122121541Y-68501835D01*
X122006817Y-68425178D01*
X122006804Y-68425171D01*
X121879332Y-68372371D01*
X121879322Y-68372368D01*
X121743995Y-68345450D01*
X121743993Y-68345450D01*
X121606007Y-68345450D01*
X121606005Y-68345450D01*
X121470677Y-68372368D01*
X121470667Y-68372371D01*
X121343195Y-68425171D01*
X121343182Y-68425178D01*
X121228458Y-68501835D01*
X121228454Y-68501838D01*
X121130888Y-68599404D01*
X121130885Y-68599408D01*
X121054228Y-68714132D01*
X121054221Y-68714145D01*
X121001421Y-68841617D01*
X121001418Y-68841627D01*
X120977859Y-68960067D01*
X120977859Y-68960070D01*
X120974500Y-68976957D01*
X120974500Y-69114943D01*
X120977859Y-69131829D01*
X120977859Y-69131831D01*
X121001418Y-69250272D01*
X121001421Y-69250282D01*
X121054221Y-69377754D01*
X121054228Y-69377767D01*
X121130885Y-69492491D01*
X121130888Y-69492495D01*
X121228454Y-69590061D01*
X121228458Y-69590064D01*
X121343182Y-69666721D01*
X121343195Y-69666728D01*
X121470667Y-69719528D01*
X121470672Y-69719530D01*
X121470676Y-69719530D01*
X121470677Y-69719531D01*
X121606004Y-69746450D01*
X121606007Y-69746450D01*
X121743995Y-69746450D01*
X121858540Y-69723665D01*
X121879328Y-69719530D01*
X122006811Y-69666725D01*
X122121542Y-69590064D01*
X122219114Y-69492492D01*
X122221895Y-69488330D01*
X122275505Y-69443522D01*
X122344829Y-69434812D01*
X122407858Y-69464963D01*
X122428105Y-69488330D01*
X122430885Y-69492491D01*
X122430888Y-69492495D01*
X122528454Y-69590061D01*
X122528458Y-69590064D01*
X122643182Y-69666721D01*
X122643195Y-69666728D01*
X122770667Y-69719528D01*
X122770672Y-69719530D01*
X122770676Y-69719530D01*
X122770677Y-69719531D01*
X122906004Y-69746450D01*
X122906007Y-69746450D01*
X123043995Y-69746450D01*
X123158540Y-69723665D01*
X123179328Y-69719530D01*
X123187215Y-69716262D01*
X123256683Y-69708791D01*
X123282123Y-69716261D01*
X123381718Y-69757514D01*
X123406087Y-69767608D01*
X123406091Y-69767608D01*
X123406092Y-69767609D01*
X123551079Y-69796450D01*
X123551082Y-69796450D01*
X123698920Y-69796450D01*
X123796462Y-69777046D01*
X123843913Y-69767608D01*
X123902550Y-69743319D01*
X123972015Y-69735851D01*
X123997443Y-69743316D01*
X124056087Y-69767608D01*
X124056091Y-69767608D01*
X124056092Y-69767609D01*
X124201079Y-69796450D01*
X124201082Y-69796450D01*
X124348920Y-69796450D01*
X124446462Y-69777046D01*
X124493913Y-69767608D01*
X124630495Y-69711034D01*
X124753416Y-69628901D01*
X124857951Y-69524366D01*
X124857953Y-69524362D01*
X124861815Y-69519658D01*
X124863475Y-69521020D01*
X124909618Y-69482433D01*
X124978940Y-69473703D01*
X125041977Y-69503838D01*
X125046825Y-69508432D01*
X125128454Y-69590061D01*
X125128458Y-69590064D01*
X125243182Y-69666721D01*
X125243186Y-69666723D01*
X125243189Y-69666725D01*
X125356540Y-69713676D01*
X125410939Y-69757514D01*
X125433005Y-69823808D01*
X125433084Y-69828235D01*
X125433084Y-75474693D01*
X125413399Y-75541732D01*
X125360595Y-75587487D01*
X125291437Y-75597431D01*
X125284893Y-75596310D01*
X125160773Y-75571621D01*
X125160769Y-75571621D01*
X125012933Y-75571621D01*
X125012931Y-75571621D01*
X124867943Y-75600461D01*
X124867934Y-75600464D01*
X124821937Y-75619516D01*
X124752468Y-75626983D01*
X124689989Y-75595707D01*
X124654338Y-75535618D01*
X124656833Y-75465793D01*
X124671386Y-75436062D01*
X124709389Y-75379187D01*
X124709390Y-75379184D01*
X124709394Y-75379179D01*
X124769737Y-75233497D01*
X124800500Y-75078842D01*
X124800500Y-74921158D01*
X124800500Y-74921155D01*
X124800499Y-74921153D01*
X124769738Y-74766510D01*
X124769737Y-74766503D01*
X124769735Y-74766498D01*
X124709397Y-74620827D01*
X124709390Y-74620814D01*
X124621789Y-74489711D01*
X124621786Y-74489707D01*
X124510292Y-74378213D01*
X124510288Y-74378210D01*
X124379185Y-74290609D01*
X124379172Y-74290602D01*
X124233501Y-74230264D01*
X124233489Y-74230261D01*
X124078845Y-74199500D01*
X124078842Y-74199500D01*
X123921158Y-74199500D01*
X123921155Y-74199500D01*
X123766510Y-74230261D01*
X123766498Y-74230264D01*
X123620827Y-74290602D01*
X123620814Y-74290609D01*
X123489711Y-74378210D01*
X123489707Y-74378213D01*
X123378213Y-74489707D01*
X123378210Y-74489711D01*
X123290609Y-74620814D01*
X123290602Y-74620827D01*
X123230264Y-74766498D01*
X123230261Y-74766510D01*
X123199500Y-74921153D01*
X123199500Y-75078846D01*
X123230261Y-75233489D01*
X123230264Y-75233501D01*
X123290602Y-75379172D01*
X123290609Y-75379185D01*
X123378210Y-75510288D01*
X123378213Y-75510292D01*
X123489707Y-75621786D01*
X123489711Y-75621789D01*
X123620814Y-75709390D01*
X123620827Y-75709397D01*
X123759415Y-75766801D01*
X123766503Y-75769737D01*
X123921153Y-75800499D01*
X123921156Y-75800500D01*
X123921158Y-75800500D01*
X124078844Y-75800500D01*
X124078845Y-75800499D01*
X124233497Y-75769737D01*
X124270719Y-75754318D01*
X124298059Y-75742995D01*
X124367528Y-75735526D01*
X124430007Y-75766801D01*
X124465659Y-75826890D01*
X124463165Y-75896715D01*
X124448613Y-75926447D01*
X124421770Y-75966619D01*
X124421763Y-75966632D01*
X124365194Y-76103203D01*
X124365191Y-76103213D01*
X124336351Y-76248200D01*
X124336351Y-76248203D01*
X124336351Y-76396039D01*
X124336351Y-76396041D01*
X124336350Y-76396041D01*
X124365191Y-76541028D01*
X124365194Y-76541038D01*
X124421763Y-76677609D01*
X124421770Y-76677622D01*
X124503899Y-76800536D01*
X124503902Y-76800540D01*
X124608431Y-76905069D01*
X124608435Y-76905072D01*
X124731349Y-76987201D01*
X124731362Y-76987208D01*
X124867933Y-77043777D01*
X124867938Y-77043779D01*
X124867942Y-77043779D01*
X124867943Y-77043780D01*
X125012930Y-77072621D01*
X125012933Y-77072621D01*
X125160771Y-77072621D01*
X125284892Y-77047931D01*
X125354484Y-77054158D01*
X125409661Y-77097021D01*
X125432906Y-77162910D01*
X125433084Y-77169548D01*
X125433084Y-77856748D01*
X125413399Y-77923787D01*
X125360595Y-77969542D01*
X125356536Y-77971309D01*
X125243195Y-78018255D01*
X125243182Y-78018262D01*
X125128458Y-78094919D01*
X125128454Y-78094922D01*
X125030888Y-78192488D01*
X125030885Y-78192492D01*
X124954228Y-78307216D01*
X124954221Y-78307229D01*
X124901421Y-78434701D01*
X124901418Y-78434711D01*
X124874500Y-78570038D01*
X124874500Y-78570041D01*
X124874500Y-78708027D01*
X124874500Y-78708029D01*
X124874499Y-78708029D01*
X124901418Y-78843356D01*
X124901421Y-78843366D01*
X124954221Y-78970838D01*
X124954228Y-78970851D01*
X125030885Y-79085575D01*
X125030888Y-79085579D01*
X125128454Y-79183145D01*
X125128458Y-79183148D01*
X125243182Y-79259805D01*
X125243186Y-79259807D01*
X125243189Y-79259809D01*
X125356540Y-79306760D01*
X125410939Y-79350598D01*
X125433005Y-79416892D01*
X125433084Y-79421319D01*
X125433084Y-81459970D01*
X125413399Y-81527009D01*
X125412186Y-81528861D01*
X125334919Y-81644498D01*
X125334912Y-81644511D01*
X125278343Y-81781082D01*
X125278340Y-81781092D01*
X125249500Y-81926079D01*
X125249500Y-81926082D01*
X125249500Y-82073918D01*
X125249500Y-82073920D01*
X125249499Y-82073920D01*
X125278340Y-82218907D01*
X125278343Y-82218917D01*
X125334912Y-82355488D01*
X125334919Y-82355501D01*
X125412186Y-82471138D01*
X125433064Y-82537815D01*
X125433084Y-82540029D01*
X125433084Y-83011193D01*
X125413399Y-83078232D01*
X125360595Y-83123987D01*
X125321426Y-83134577D01*
X123858111Y-83280954D01*
X123789445Y-83268040D01*
X123738662Y-83220053D01*
X123721772Y-83156716D01*
X123742292Y-80181417D01*
X123742291Y-80181416D01*
X123742292Y-80181416D01*
X120846405Y-80007018D01*
X120780670Y-79983339D01*
X120738172Y-79927880D01*
X120729859Y-79883242D01*
X120729859Y-79310687D01*
X120749544Y-79243648D01*
X120784965Y-79207587D01*
X120821542Y-79183148D01*
X120919114Y-79085576D01*
X120995775Y-78970845D01*
X121048580Y-78843362D01*
X121057389Y-78799075D01*
X121075500Y-78708029D01*
X121624499Y-78708029D01*
X121651418Y-78843356D01*
X121651421Y-78843366D01*
X121704221Y-78970838D01*
X121704228Y-78970851D01*
X121780885Y-79085575D01*
X121780888Y-79085579D01*
X121878454Y-79183145D01*
X121878458Y-79183148D01*
X121993182Y-79259805D01*
X121993195Y-79259812D01*
X122106532Y-79306757D01*
X122120672Y-79312614D01*
X122120676Y-79312614D01*
X122120677Y-79312615D01*
X122256004Y-79339534D01*
X122256007Y-79339534D01*
X122393995Y-79339534D01*
X122485041Y-79321423D01*
X122529328Y-79312614D01*
X122656811Y-79259809D01*
X122771542Y-79183148D01*
X122869114Y-79085576D01*
X122945775Y-78970845D01*
X122998580Y-78843362D01*
X123007389Y-78799075D01*
X123025500Y-78708029D01*
X123025500Y-78570038D01*
X122998581Y-78434711D01*
X122998580Y-78434710D01*
X122998580Y-78434706D01*
X122975000Y-78377778D01*
X122945778Y-78307229D01*
X122945771Y-78307216D01*
X122869114Y-78192492D01*
X122869111Y-78192488D01*
X122771545Y-78094922D01*
X122771541Y-78094919D01*
X122656817Y-78018262D01*
X122656804Y-78018255D01*
X122529332Y-77965455D01*
X122529322Y-77965452D01*
X122393995Y-77938534D01*
X122393993Y-77938534D01*
X122256007Y-77938534D01*
X122256005Y-77938534D01*
X122120677Y-77965452D01*
X122120667Y-77965455D01*
X121993195Y-78018255D01*
X121993182Y-78018262D01*
X121878458Y-78094919D01*
X121878454Y-78094922D01*
X121780888Y-78192488D01*
X121780885Y-78192492D01*
X121704228Y-78307216D01*
X121704221Y-78307229D01*
X121651421Y-78434701D01*
X121651418Y-78434711D01*
X121624500Y-78570038D01*
X121624500Y-78570041D01*
X121624500Y-78708027D01*
X121624500Y-78708029D01*
X121624499Y-78708029D01*
X121075500Y-78708029D01*
X121075500Y-78570038D01*
X121048581Y-78434711D01*
X121048580Y-78434710D01*
X121048580Y-78434706D01*
X121025000Y-78377778D01*
X120995778Y-78307229D01*
X120995771Y-78307216D01*
X120919114Y-78192492D01*
X120919111Y-78192488D01*
X120821545Y-78094922D01*
X120821539Y-78094917D01*
X120784967Y-78070480D01*
X120740163Y-78016868D01*
X120729859Y-77967379D01*
X120729859Y-74423506D01*
X120749544Y-74356467D01*
X120802348Y-74310712D01*
X120871506Y-74300768D01*
X120878051Y-74301889D01*
X120994296Y-74325012D01*
X120994299Y-74325012D01*
X121151985Y-74325012D01*
X121151986Y-74325011D01*
X121306638Y-74294249D01*
X121452320Y-74233906D01*
X121583430Y-74146301D01*
X121694930Y-74034801D01*
X121782535Y-73903691D01*
X121842878Y-73758009D01*
X121873641Y-73603354D01*
X121873641Y-73445670D01*
X121873641Y-73445667D01*
X121873640Y-73445665D01*
X121842879Y-73291022D01*
X121842878Y-73291015D01*
X121842876Y-73291010D01*
X121782538Y-73145339D01*
X121782531Y-73145326D01*
X121694930Y-73014223D01*
X121694927Y-73014219D01*
X121583433Y-72902725D01*
X121583429Y-72902722D01*
X121452326Y-72815121D01*
X121452313Y-72815114D01*
X121306642Y-72754776D01*
X121306630Y-72754773D01*
X121151986Y-72724012D01*
X121151983Y-72724012D01*
X120994299Y-72724012D01*
X120962135Y-72730409D01*
X120878050Y-72747135D01*
X120808458Y-72740907D01*
X120753281Y-72698043D01*
X120730037Y-72632153D01*
X120729859Y-72625517D01*
X120729859Y-71060021D01*
X121674499Y-71060021D01*
X121699497Y-71185688D01*
X121699499Y-71185694D01*
X121748533Y-71304074D01*
X121748538Y-71304083D01*
X121819723Y-71410618D01*
X121819726Y-71410622D01*
X121910327Y-71501223D01*
X121910331Y-71501226D01*
X122016866Y-71572411D01*
X122016872Y-71572414D01*
X122016873Y-71572415D01*
X122135256Y-71621451D01*
X122135260Y-71621451D01*
X122135261Y-71621452D01*
X122260928Y-71646450D01*
X122260931Y-71646450D01*
X122389071Y-71646450D01*
X122473615Y-71629632D01*
X122514744Y-71621451D01*
X122633127Y-71572415D01*
X122739669Y-71501226D01*
X122830276Y-71410619D01*
X122901465Y-71304077D01*
X122950501Y-71185694D01*
X122975500Y-71060021D01*
X123624499Y-71060021D01*
X123649497Y-71185688D01*
X123649499Y-71185694D01*
X123698533Y-71304074D01*
X123698538Y-71304083D01*
X123769723Y-71410618D01*
X123769726Y-71410622D01*
X123860327Y-71501223D01*
X123860331Y-71501226D01*
X123966866Y-71572411D01*
X123966872Y-71572414D01*
X123966873Y-71572415D01*
X124085256Y-71621451D01*
X124085260Y-71621451D01*
X124085261Y-71621452D01*
X124210928Y-71646450D01*
X124210931Y-71646450D01*
X124339071Y-71646450D01*
X124423615Y-71629632D01*
X124464744Y-71621451D01*
X124583127Y-71572415D01*
X124689669Y-71501226D01*
X124780276Y-71410619D01*
X124851465Y-71304077D01*
X124900501Y-71185694D01*
X124925500Y-71060019D01*
X124925500Y-70931881D01*
X124925500Y-70931878D01*
X124900502Y-70806211D01*
X124900501Y-70806210D01*
X124900501Y-70806206D01*
X124851465Y-70687823D01*
X124851464Y-70687822D01*
X124851461Y-70687816D01*
X124780276Y-70581281D01*
X124780273Y-70581277D01*
X124689672Y-70490676D01*
X124689668Y-70490673D01*
X124583133Y-70419488D01*
X124583124Y-70419483D01*
X124464744Y-70370449D01*
X124464738Y-70370447D01*
X124339071Y-70345450D01*
X124339069Y-70345450D01*
X124210931Y-70345450D01*
X124210929Y-70345450D01*
X124085261Y-70370447D01*
X124085255Y-70370449D01*
X123966875Y-70419483D01*
X123966866Y-70419488D01*
X123860331Y-70490673D01*
X123860327Y-70490676D01*
X123769726Y-70581277D01*
X123769723Y-70581281D01*
X123698538Y-70687816D01*
X123698533Y-70687825D01*
X123649499Y-70806205D01*
X123649497Y-70806211D01*
X123624500Y-70931878D01*
X123624500Y-70931881D01*
X123624500Y-71060019D01*
X123624500Y-71060021D01*
X123624499Y-71060021D01*
X122975500Y-71060021D01*
X122975500Y-71060019D01*
X122975500Y-70931881D01*
X122975500Y-70931878D01*
X122950502Y-70806211D01*
X122950501Y-70806210D01*
X122950501Y-70806206D01*
X122901465Y-70687823D01*
X122901464Y-70687822D01*
X122901461Y-70687816D01*
X122830276Y-70581281D01*
X122830273Y-70581277D01*
X122739672Y-70490676D01*
X122739668Y-70490673D01*
X122633133Y-70419488D01*
X122633124Y-70419483D01*
X122514744Y-70370449D01*
X122514738Y-70370447D01*
X122389071Y-70345450D01*
X122389069Y-70345450D01*
X122260931Y-70345450D01*
X122260929Y-70345450D01*
X122135261Y-70370447D01*
X122135255Y-70370449D01*
X122016875Y-70419483D01*
X122016866Y-70419488D01*
X121910331Y-70490673D01*
X121910327Y-70490676D01*
X121819726Y-70581277D01*
X121819723Y-70581281D01*
X121748538Y-70687816D01*
X121748533Y-70687825D01*
X121699499Y-70806205D01*
X121699497Y-70806211D01*
X121674500Y-70931878D01*
X121674500Y-70931881D01*
X121674500Y-71060019D01*
X121674500Y-71060021D01*
X121674499Y-71060021D01*
X120729859Y-71060021D01*
X120729859Y-68189896D01*
X120732242Y-68165703D01*
X120750500Y-68073919D01*
X120750500Y-67926079D01*
X120732242Y-67834294D01*
X120729859Y-67810102D01*
X120729859Y-60760021D01*
X121364621Y-60760021D01*
X121389619Y-60885688D01*
X121389621Y-60885694D01*
X121438655Y-61004074D01*
X121438660Y-61004083D01*
X121509845Y-61110618D01*
X121509848Y-61110622D01*
X121600449Y-61201223D01*
X121600453Y-61201226D01*
X121706988Y-61272411D01*
X121707001Y-61272418D01*
X121769008Y-61298102D01*
X121823412Y-61341943D01*
X121845477Y-61408237D01*
X121828198Y-61475936D01*
X121809238Y-61500344D01*
X121742048Y-61567534D01*
X121659919Y-61690448D01*
X121659912Y-61690461D01*
X121603343Y-61827032D01*
X121603340Y-61827042D01*
X121574500Y-61972029D01*
X121574500Y-61972032D01*
X121574500Y-62119868D01*
X121574500Y-62119870D01*
X121574499Y-62119870D01*
X121603340Y-62264857D01*
X121603343Y-62264867D01*
X121659912Y-62401438D01*
X121659919Y-62401451D01*
X121742048Y-62524365D01*
X121742051Y-62524369D01*
X121846580Y-62628898D01*
X121846584Y-62628901D01*
X121969498Y-62711030D01*
X121969511Y-62711037D01*
X122106082Y-62767606D01*
X122106087Y-62767608D01*
X122106091Y-62767608D01*
X122106092Y-62767609D01*
X122251079Y-62796450D01*
X122251082Y-62796450D01*
X122398920Y-62796450D01*
X122496462Y-62777046D01*
X122543913Y-62767608D01*
X122680495Y-62711034D01*
X122803416Y-62628901D01*
X122907951Y-62524366D01*
X122990084Y-62401445D01*
X123046658Y-62264863D01*
X123075500Y-62119868D01*
X123075500Y-62110021D01*
X123624499Y-62110021D01*
X123649497Y-62235688D01*
X123649499Y-62235694D01*
X123698533Y-62354074D01*
X123698538Y-62354083D01*
X123769723Y-62460618D01*
X123769726Y-62460622D01*
X123860327Y-62551223D01*
X123860331Y-62551226D01*
X123966866Y-62622411D01*
X123966875Y-62622416D01*
X123993692Y-62633524D01*
X124085256Y-62671451D01*
X124085260Y-62671451D01*
X124085261Y-62671452D01*
X124210928Y-62696450D01*
X124210931Y-62696450D01*
X124339071Y-62696450D01*
X124423615Y-62679632D01*
X124464744Y-62671451D01*
X124583127Y-62622415D01*
X124689669Y-62551226D01*
X124780276Y-62460619D01*
X124851465Y-62354077D01*
X124900501Y-62235694D01*
X124908682Y-62194565D01*
X124925500Y-62110021D01*
X124925500Y-61981878D01*
X124900502Y-61856211D01*
X124900501Y-61856210D01*
X124900501Y-61856206D01*
X124851465Y-61737823D01*
X124851464Y-61737822D01*
X124851461Y-61737816D01*
X124780276Y-61631281D01*
X124780273Y-61631277D01*
X124689672Y-61540676D01*
X124689668Y-61540673D01*
X124583133Y-61469488D01*
X124583124Y-61469483D01*
X124464744Y-61420449D01*
X124464738Y-61420447D01*
X124339071Y-61395450D01*
X124339069Y-61395450D01*
X124210931Y-61395450D01*
X124210929Y-61395450D01*
X124085261Y-61420447D01*
X124085255Y-61420449D01*
X123966875Y-61469483D01*
X123966866Y-61469488D01*
X123860331Y-61540673D01*
X123860327Y-61540676D01*
X123769726Y-61631277D01*
X123769723Y-61631281D01*
X123698538Y-61737816D01*
X123698533Y-61737825D01*
X123649499Y-61856205D01*
X123649497Y-61856211D01*
X123624500Y-61981878D01*
X123624500Y-61981881D01*
X123624500Y-62110019D01*
X123624500Y-62110021D01*
X123624499Y-62110021D01*
X123075500Y-62110021D01*
X123075500Y-61972032D01*
X123075500Y-61972029D01*
X123046659Y-61827042D01*
X123046658Y-61827041D01*
X123046658Y-61827037D01*
X123046656Y-61827032D01*
X122990087Y-61690461D01*
X122990080Y-61690448D01*
X122907951Y-61567534D01*
X122907948Y-61567530D01*
X122803419Y-61463001D01*
X122803415Y-61462998D01*
X122680501Y-61380869D01*
X122680492Y-61380864D01*
X122547648Y-61325839D01*
X122493245Y-61281998D01*
X122471180Y-61215704D01*
X122488459Y-61148005D01*
X122507418Y-61123598D01*
X122520398Y-61110619D01*
X122591587Y-61004077D01*
X122640623Y-60885694D01*
X122665622Y-60760019D01*
X122665622Y-60631881D01*
X122665622Y-60631878D01*
X122640624Y-60506211D01*
X122640623Y-60506210D01*
X122640623Y-60506206D01*
X122591587Y-60387823D01*
X122591586Y-60387822D01*
X122591583Y-60387816D01*
X122520398Y-60281281D01*
X122520395Y-60281277D01*
X122429794Y-60190676D01*
X122429790Y-60190673D01*
X122323255Y-60119488D01*
X122323246Y-60119483D01*
X122204866Y-60070449D01*
X122204860Y-60070447D01*
X122087230Y-60047048D01*
X122087224Y-60047048D01*
X122079191Y-60045450D01*
X121951053Y-60045450D01*
X121936268Y-60048390D01*
X121936264Y-60048391D01*
X121825383Y-60070447D01*
X121825377Y-60070449D01*
X121706997Y-60119483D01*
X121706988Y-60119488D01*
X121600453Y-60190673D01*
X121600449Y-60190676D01*
X121509848Y-60281277D01*
X121509845Y-60281281D01*
X121438660Y-60387816D01*
X121438655Y-60387825D01*
X121389621Y-60506205D01*
X121389619Y-60506211D01*
X121364622Y-60631878D01*
X121364622Y-60631881D01*
X121364622Y-60760019D01*
X121364622Y-60760021D01*
X121364621Y-60760021D01*
X120729859Y-60760021D01*
X120729859Y-58921153D01*
X121199500Y-58921153D01*
X121199500Y-59078846D01*
X121230261Y-59233489D01*
X121230264Y-59233501D01*
X121290602Y-59379172D01*
X121290609Y-59379185D01*
X121378210Y-59510288D01*
X121378213Y-59510292D01*
X121489707Y-59621786D01*
X121489711Y-59621789D01*
X121620814Y-59709390D01*
X121620827Y-59709397D01*
X121766498Y-59769735D01*
X121766503Y-59769737D01*
X121913858Y-59799048D01*
X121921153Y-59800499D01*
X121921156Y-59800500D01*
X121921158Y-59800500D01*
X121922965Y-59800500D01*
X122078842Y-59800500D01*
X122233497Y-59769737D01*
X122379179Y-59709394D01*
X122510289Y-59621789D01*
X122621789Y-59510289D01*
X122709394Y-59379179D01*
X122769737Y-59233497D01*
X122800500Y-59078842D01*
X122800500Y-58921158D01*
X122800500Y-58921155D01*
X122800499Y-58921153D01*
X122769738Y-58766510D01*
X122769737Y-58766503D01*
X122724808Y-58658034D01*
X122709397Y-58620827D01*
X122709390Y-58620814D01*
X122621789Y-58489711D01*
X122621786Y-58489707D01*
X122510292Y-58378213D01*
X122510288Y-58378210D01*
X122379185Y-58290609D01*
X122379172Y-58290602D01*
X122233501Y-58230264D01*
X122233489Y-58230261D01*
X122078845Y-58199500D01*
X122078842Y-58199500D01*
X121921158Y-58199500D01*
X121921155Y-58199500D01*
X121766510Y-58230261D01*
X121766498Y-58230264D01*
X121620827Y-58290602D01*
X121620814Y-58290609D01*
X121489711Y-58378210D01*
X121489707Y-58378213D01*
X121378213Y-58489707D01*
X121378210Y-58489711D01*
X121290609Y-58620814D01*
X121290602Y-58620827D01*
X121230264Y-58766498D01*
X121230261Y-58766510D01*
X121199500Y-58921153D01*
X120729859Y-58921153D01*
X120729859Y-57068995D01*
X122299499Y-57068995D01*
X122326418Y-57204322D01*
X122326421Y-57204332D01*
X122379221Y-57331804D01*
X122379228Y-57331817D01*
X122455885Y-57446541D01*
X122455888Y-57446545D01*
X122553454Y-57544111D01*
X122553458Y-57544114D01*
X122668182Y-57620771D01*
X122668195Y-57620778D01*
X122795667Y-57673578D01*
X122795672Y-57673580D01*
X122795676Y-57673580D01*
X122795677Y-57673581D01*
X122931004Y-57700500D01*
X122931007Y-57700500D01*
X123068995Y-57700500D01*
X123160041Y-57682389D01*
X123204328Y-57673580D01*
X123331811Y-57620775D01*
X123446542Y-57544114D01*
X123544114Y-57446542D01*
X123620775Y-57331811D01*
X123673580Y-57204328D01*
X123700500Y-57068993D01*
X123700500Y-56931007D01*
X123700500Y-56931004D01*
X123673581Y-56795677D01*
X123673580Y-56795676D01*
X123673580Y-56795672D01*
X123662000Y-56767716D01*
X123620778Y-56668195D01*
X123620771Y-56668182D01*
X123544114Y-56553458D01*
X123544111Y-56553454D01*
X123446545Y-56455888D01*
X123446541Y-56455885D01*
X123331817Y-56379228D01*
X123331804Y-56379221D01*
X123204332Y-56326421D01*
X123204322Y-56326418D01*
X123068995Y-56299500D01*
X123068993Y-56299500D01*
X122931007Y-56299500D01*
X122931005Y-56299500D01*
X122795677Y-56326418D01*
X122795667Y-56326421D01*
X122668195Y-56379221D01*
X122668182Y-56379228D01*
X122553458Y-56455885D01*
X122553454Y-56455888D01*
X122455888Y-56553454D01*
X122455885Y-56553458D01*
X122379228Y-56668182D01*
X122379221Y-56668195D01*
X122326421Y-56795667D01*
X122326418Y-56795677D01*
X122299500Y-56931004D01*
X122299500Y-56931007D01*
X122299500Y-57068993D01*
X122299500Y-57068995D01*
X122299499Y-57068995D01*
X120729859Y-57068995D01*
X120729859Y-52463471D01*
X116760737Y-52440179D01*
X116693815Y-52420101D01*
X116648370Y-52367030D01*
X116638833Y-52297814D01*
X116646902Y-52268733D01*
X116673580Y-52204328D01*
X116700500Y-52068995D01*
X121299499Y-52068995D01*
X121326418Y-52204322D01*
X121326421Y-52204332D01*
X121379221Y-52331804D01*
X121379228Y-52331817D01*
X121455885Y-52446541D01*
X121455888Y-52446545D01*
X121553454Y-52544111D01*
X121553458Y-52544114D01*
X121668182Y-52620771D01*
X121668195Y-52620778D01*
X121795667Y-52673578D01*
X121795672Y-52673580D01*
X121795676Y-52673580D01*
X121795677Y-52673581D01*
X121931004Y-52700500D01*
X121931007Y-52700500D01*
X122068995Y-52700500D01*
X122160041Y-52682389D01*
X122204328Y-52673580D01*
X122331811Y-52620775D01*
X122446542Y-52544114D01*
X122544114Y-52446542D01*
X122620775Y-52331811D01*
X122673580Y-52204328D01*
X122700500Y-52068993D01*
X122700500Y-51931007D01*
X122700500Y-51931004D01*
X122673581Y-51795677D01*
X122673580Y-51795676D01*
X122673580Y-51795672D01*
X122673578Y-51795667D01*
X122620778Y-51668195D01*
X122620771Y-51668182D01*
X122544114Y-51553458D01*
X122544111Y-51553454D01*
X122446545Y-51455888D01*
X122446541Y-51455885D01*
X122331817Y-51379228D01*
X122331804Y-51379221D01*
X122204332Y-51326421D01*
X122204322Y-51326418D01*
X122068995Y-51299500D01*
X122068993Y-51299500D01*
X121931007Y-51299500D01*
X121931005Y-51299500D01*
X121795677Y-51326418D01*
X121795667Y-51326421D01*
X121668195Y-51379221D01*
X121668182Y-51379228D01*
X121553458Y-51455885D01*
X121553454Y-51455888D01*
X121455888Y-51553454D01*
X121455885Y-51553458D01*
X121379228Y-51668182D01*
X121379221Y-51668195D01*
X121326421Y-51795667D01*
X121326418Y-51795677D01*
X121299500Y-51931004D01*
X121299500Y-51931007D01*
X121299500Y-52068993D01*
X121299500Y-52068995D01*
X121299499Y-52068995D01*
X116700500Y-52068995D01*
X116700500Y-52068993D01*
X116700500Y-51931007D01*
X116700500Y-51931004D01*
X116673581Y-51795677D01*
X116673580Y-51795676D01*
X116673580Y-51795672D01*
X116673578Y-51795667D01*
X116620778Y-51668195D01*
X116620771Y-51668182D01*
X116544114Y-51553458D01*
X116544111Y-51553454D01*
X116446545Y-51455888D01*
X116446541Y-51455885D01*
X116331817Y-51379228D01*
X116331804Y-51379221D01*
X116204332Y-51326421D01*
X116204322Y-51326418D01*
X116068995Y-51299500D01*
X116068993Y-51299500D01*
X115931007Y-51299500D01*
X115931005Y-51299500D01*
X115795677Y-51326418D01*
X115795667Y-51326421D01*
X115668195Y-51379221D01*
X115668182Y-51379228D01*
X115553458Y-51455885D01*
X115553454Y-51455888D01*
X115455888Y-51553454D01*
X115455885Y-51553458D01*
X115379228Y-51668182D01*
X115379221Y-51668195D01*
X115326421Y-51795667D01*
X115326418Y-51795677D01*
X115299500Y-51931004D01*
X115299500Y-51931007D01*
X115299500Y-52068993D01*
X115299500Y-52068995D01*
X115299499Y-52068995D01*
X115326418Y-52204322D01*
X115326421Y-52204332D01*
X115349384Y-52259770D01*
X115356853Y-52329240D01*
X115325577Y-52391719D01*
X115265488Y-52427370D01*
X115234095Y-52431220D01*
X111460739Y-52409078D01*
X111460738Y-52409078D01*
X111472655Y-57544111D01*
X111474907Y-58514606D01*
X114878503Y-58583284D01*
X114945130Y-58604317D01*
X114989811Y-58658034D01*
X115000000Y-58707259D01*
X115000000Y-75814115D01*
X114980315Y-75881154D01*
X114927511Y-75926909D01*
X114900192Y-75935732D01*
X114744599Y-75966682D01*
X114744589Y-75966685D01*
X114598918Y-76027023D01*
X114598905Y-76027030D01*
X114467802Y-76114631D01*
X114467798Y-76114634D01*
X114356304Y-76226128D01*
X114356301Y-76226132D01*
X114268700Y-76357235D01*
X114268693Y-76357248D01*
X114208355Y-76502919D01*
X114208352Y-76502931D01*
X114177591Y-76657574D01*
X114177591Y-76815267D01*
X114208352Y-76969910D01*
X114208355Y-76969922D01*
X114268693Y-77115593D01*
X114268700Y-77115606D01*
X114356301Y-77246709D01*
X114356304Y-77246713D01*
X114467798Y-77358207D01*
X114467802Y-77358210D01*
X114598905Y-77445811D01*
X114598918Y-77445818D01*
X114744589Y-77506156D01*
X114744594Y-77506158D01*
X114804711Y-77518116D01*
X114900191Y-77537109D01*
X114928314Y-77551819D01*
X114957203Y-77565013D01*
X114959060Y-77567902D01*
X114962102Y-77569494D01*
X114977806Y-77597072D01*
X114994977Y-77623791D01*
X114995637Y-77628386D01*
X114996676Y-77630210D01*
X115000000Y-77658726D01*
X115000000Y-77720863D01*
X114980315Y-77787902D01*
X114927511Y-77833657D01*
X114858353Y-77843601D01*
X114851809Y-77842480D01*
X114814290Y-77835017D01*
X114814287Y-77835017D01*
X114656603Y-77835017D01*
X114656600Y-77835017D01*
X114501955Y-77865778D01*
X114501943Y-77865781D01*
X114356268Y-77926121D01*
X114276977Y-77979102D01*
X114210299Y-77999980D01*
X114208086Y-78000000D01*
X110124000Y-78000000D01*
X110056961Y-77980315D01*
X110011206Y-77927511D01*
X110000000Y-77876000D01*
X110000000Y-50124995D01*
X110019685Y-50057956D01*
X110072489Y-50012201D01*
X110124989Y-50000999D01*
X125310077Y-50122424D01*
G37*
%TD.AperFunction*%
%TD*%
%TA.AperFunction,Conductor*%
%TO.N,+3.3V_ISO*%
G36*
X83953180Y-50019685D02*
G01*
X83998935Y-50072489D01*
X84010141Y-50124000D01*
X84010141Y-56098849D01*
X104010141Y-56098849D01*
X104010141Y-50124000D01*
X104029826Y-50056961D01*
X104082630Y-50011206D01*
X104134141Y-50000000D01*
X108876000Y-50000000D01*
X108943039Y-50019685D01*
X108988794Y-50072489D01*
X109000000Y-50124000D01*
X109000000Y-87876000D01*
X108980315Y-87943039D01*
X108927511Y-87988794D01*
X108876000Y-88000000D01*
X78124000Y-88000000D01*
X78056961Y-87980315D01*
X78011206Y-87927511D01*
X78000000Y-87876000D01*
X78000000Y-87068995D01*
X88524499Y-87068995D01*
X88551418Y-87204322D01*
X88551421Y-87204332D01*
X88604221Y-87331804D01*
X88604228Y-87331817D01*
X88680885Y-87446541D01*
X88680888Y-87446545D01*
X88778454Y-87544111D01*
X88778458Y-87544114D01*
X88893182Y-87620771D01*
X88893195Y-87620778D01*
X89020667Y-87673578D01*
X89020672Y-87673580D01*
X89020676Y-87673580D01*
X89020677Y-87673581D01*
X89156004Y-87700500D01*
X89156007Y-87700500D01*
X89293995Y-87700500D01*
X89385041Y-87682389D01*
X89429328Y-87673580D01*
X89556811Y-87620775D01*
X89671542Y-87544114D01*
X89769114Y-87446542D01*
X89845775Y-87331811D01*
X89898580Y-87204328D01*
X89911647Y-87138638D01*
X89925500Y-87068995D01*
X89925500Y-87003301D01*
X92988305Y-87003301D01*
X93015224Y-87138628D01*
X93015227Y-87138638D01*
X93068027Y-87266110D01*
X93068034Y-87266123D01*
X93144691Y-87380847D01*
X93144694Y-87380851D01*
X93242260Y-87478417D01*
X93242264Y-87478420D01*
X93356988Y-87555077D01*
X93357001Y-87555084D01*
X93484473Y-87607884D01*
X93484478Y-87607886D01*
X93484482Y-87607886D01*
X93484483Y-87607887D01*
X93619810Y-87634806D01*
X93619813Y-87634806D01*
X93757801Y-87634806D01*
X93848847Y-87616695D01*
X93893134Y-87607886D01*
X94020617Y-87555081D01*
X94135348Y-87478420D01*
X94232920Y-87380848D01*
X94309581Y-87266117D01*
X94362386Y-87138634D01*
X94389306Y-87003299D01*
X94389306Y-86865313D01*
X94389306Y-86865310D01*
X94362387Y-86729983D01*
X94362386Y-86729982D01*
X94362386Y-86729978D01*
X94339026Y-86673581D01*
X94309584Y-86602501D01*
X94309577Y-86602488D01*
X94232920Y-86487764D01*
X94232917Y-86487760D01*
X94135351Y-86390194D01*
X94135347Y-86390191D01*
X94020623Y-86313534D01*
X94020610Y-86313527D01*
X93893138Y-86260727D01*
X93893128Y-86260724D01*
X93757801Y-86233806D01*
X93757799Y-86233806D01*
X93619813Y-86233806D01*
X93619811Y-86233806D01*
X93484483Y-86260724D01*
X93484473Y-86260727D01*
X93357001Y-86313527D01*
X93356988Y-86313534D01*
X93242264Y-86390191D01*
X93242260Y-86390194D01*
X93144694Y-86487760D01*
X93144691Y-86487764D01*
X93068034Y-86602488D01*
X93068027Y-86602501D01*
X93015227Y-86729973D01*
X93015224Y-86729983D01*
X92988306Y-86865310D01*
X92988306Y-86865313D01*
X92988306Y-87003299D01*
X92988306Y-87003301D01*
X92988305Y-87003301D01*
X89925500Y-87003301D01*
X89925500Y-86931004D01*
X89916033Y-86883413D01*
X89916033Y-86883412D01*
X89898581Y-86795679D01*
X89898581Y-86795677D01*
X89898580Y-86795672D01*
X89859159Y-86700500D01*
X89845778Y-86668195D01*
X89845771Y-86668182D01*
X89769114Y-86553458D01*
X89769111Y-86553454D01*
X89671545Y-86455888D01*
X89671541Y-86455885D01*
X89556817Y-86379228D01*
X89556804Y-86379221D01*
X89429332Y-86326421D01*
X89429322Y-86326418D01*
X89293995Y-86299500D01*
X89293993Y-86299500D01*
X89156007Y-86299500D01*
X89156005Y-86299500D01*
X89020677Y-86326418D01*
X89020667Y-86326421D01*
X88893195Y-86379221D01*
X88893182Y-86379228D01*
X88778458Y-86455885D01*
X88778454Y-86455888D01*
X88680888Y-86553454D01*
X88680885Y-86553458D01*
X88604228Y-86668182D01*
X88604221Y-86668195D01*
X88551421Y-86795667D01*
X88551418Y-86795677D01*
X88524500Y-86931004D01*
X88524500Y-86931007D01*
X88524500Y-87068993D01*
X88524500Y-87068995D01*
X88524499Y-87068995D01*
X78000000Y-87068995D01*
X78000000Y-86068995D01*
X84299499Y-86068995D01*
X84326418Y-86204322D01*
X84326421Y-86204332D01*
X84379221Y-86331804D01*
X84379228Y-86331817D01*
X84455885Y-86446541D01*
X84455888Y-86446545D01*
X84553454Y-86544111D01*
X84553458Y-86544114D01*
X84668182Y-86620771D01*
X84668195Y-86620778D01*
X84782640Y-86668182D01*
X84795672Y-86673580D01*
X84795676Y-86673580D01*
X84795677Y-86673581D01*
X84931004Y-86700500D01*
X84931007Y-86700500D01*
X85068995Y-86700500D01*
X85160041Y-86682389D01*
X85204328Y-86673580D01*
X85331811Y-86620775D01*
X85446542Y-86544114D01*
X85544114Y-86446542D01*
X85620775Y-86331811D01*
X85673580Y-86204328D01*
X85700500Y-86068993D01*
X85700500Y-85931007D01*
X85700500Y-85931004D01*
X85673581Y-85795677D01*
X85673580Y-85795676D01*
X85673580Y-85795672D01*
X85673578Y-85795667D01*
X85620778Y-85668195D01*
X85620771Y-85668182D01*
X85544114Y-85553458D01*
X85544111Y-85553454D01*
X85446545Y-85455888D01*
X85446541Y-85455885D01*
X85331817Y-85379228D01*
X85331804Y-85379221D01*
X85204332Y-85326421D01*
X85204322Y-85326418D01*
X85068995Y-85299500D01*
X85068993Y-85299500D01*
X84931007Y-85299500D01*
X84931005Y-85299500D01*
X84795677Y-85326418D01*
X84795667Y-85326421D01*
X84668195Y-85379221D01*
X84668182Y-85379228D01*
X84553458Y-85455885D01*
X84553454Y-85455888D01*
X84455888Y-85553454D01*
X84455885Y-85553458D01*
X84379228Y-85668182D01*
X84379221Y-85668195D01*
X84326421Y-85795667D01*
X84326418Y-85795677D01*
X84299500Y-85931004D01*
X84299500Y-85931007D01*
X84299500Y-86068993D01*
X84299500Y-86068995D01*
X84299499Y-86068995D01*
X78000000Y-86068995D01*
X78000000Y-84068995D01*
X88524499Y-84068995D01*
X88551418Y-84204322D01*
X88551421Y-84204332D01*
X88604221Y-84331804D01*
X88604228Y-84331817D01*
X88680885Y-84446541D01*
X88680888Y-84446545D01*
X88778454Y-84544111D01*
X88778458Y-84544114D01*
X88893182Y-84620771D01*
X88893195Y-84620778D01*
X89000168Y-84665087D01*
X89020672Y-84673580D01*
X89020676Y-84673580D01*
X89020677Y-84673581D01*
X89156004Y-84700500D01*
X89156007Y-84700500D01*
X89293995Y-84700500D01*
X89385041Y-84682389D01*
X89429328Y-84673580D01*
X89556811Y-84620775D01*
X89671542Y-84544114D01*
X89769114Y-84446542D01*
X89845775Y-84331811D01*
X89898580Y-84204328D01*
X89924520Y-84073920D01*
X89925500Y-84068995D01*
X95299499Y-84068995D01*
X95326418Y-84204322D01*
X95326421Y-84204332D01*
X95379221Y-84331804D01*
X95379228Y-84331817D01*
X95455885Y-84446541D01*
X95455888Y-84446545D01*
X95553454Y-84544111D01*
X95553458Y-84544114D01*
X95668182Y-84620771D01*
X95668195Y-84620778D01*
X95775168Y-84665087D01*
X95795672Y-84673580D01*
X95795676Y-84673580D01*
X95795677Y-84673581D01*
X95931004Y-84700500D01*
X95931007Y-84700500D01*
X96068995Y-84700500D01*
X96160041Y-84682389D01*
X96204328Y-84673580D01*
X96331811Y-84620775D01*
X96446542Y-84544114D01*
X96544114Y-84446542D01*
X96620775Y-84331811D01*
X96673580Y-84204328D01*
X96699520Y-84073920D01*
X96700500Y-84068995D01*
X103299499Y-84068995D01*
X103326418Y-84204322D01*
X103326421Y-84204332D01*
X103379221Y-84331804D01*
X103379228Y-84331817D01*
X103455885Y-84446541D01*
X103455888Y-84446545D01*
X103553454Y-84544111D01*
X103553458Y-84544114D01*
X103668182Y-84620771D01*
X103668195Y-84620778D01*
X103775168Y-84665087D01*
X103795672Y-84673580D01*
X103795676Y-84673580D01*
X103795677Y-84673581D01*
X103931004Y-84700500D01*
X103931007Y-84700500D01*
X104068995Y-84700500D01*
X104160041Y-84682389D01*
X104204328Y-84673580D01*
X104331811Y-84620775D01*
X104446542Y-84544114D01*
X104544114Y-84446542D01*
X104620775Y-84331811D01*
X104673580Y-84204328D01*
X104699520Y-84073920D01*
X104700500Y-84068995D01*
X104700500Y-83931004D01*
X104673581Y-83795677D01*
X104673580Y-83795676D01*
X104673580Y-83795672D01*
X104667537Y-83781082D01*
X104620778Y-83668195D01*
X104620771Y-83668182D01*
X104544114Y-83553458D01*
X104544111Y-83553454D01*
X104446545Y-83455888D01*
X104446541Y-83455885D01*
X104331817Y-83379228D01*
X104331804Y-83379221D01*
X104204332Y-83326421D01*
X104204322Y-83326418D01*
X104068995Y-83299500D01*
X104068993Y-83299500D01*
X103931007Y-83299500D01*
X103931005Y-83299500D01*
X103795677Y-83326418D01*
X103795667Y-83326421D01*
X103668195Y-83379221D01*
X103668182Y-83379228D01*
X103553458Y-83455885D01*
X103553454Y-83455888D01*
X103455888Y-83553454D01*
X103455885Y-83553458D01*
X103379228Y-83668182D01*
X103379221Y-83668195D01*
X103326421Y-83795667D01*
X103326418Y-83795677D01*
X103299500Y-83931004D01*
X103299500Y-83931007D01*
X103299500Y-84068993D01*
X103299500Y-84068995D01*
X103299499Y-84068995D01*
X96700500Y-84068995D01*
X96700500Y-83931004D01*
X96673581Y-83795677D01*
X96673580Y-83795676D01*
X96673580Y-83795672D01*
X96667537Y-83781082D01*
X96620778Y-83668195D01*
X96620771Y-83668182D01*
X96544114Y-83553458D01*
X96544111Y-83553454D01*
X96446545Y-83455888D01*
X96446541Y-83455885D01*
X96331817Y-83379228D01*
X96331804Y-83379221D01*
X96204332Y-83326421D01*
X96204322Y-83326418D01*
X96068995Y-83299500D01*
X96068993Y-83299500D01*
X95931007Y-83299500D01*
X95931005Y-83299500D01*
X95795677Y-83326418D01*
X95795667Y-83326421D01*
X95668195Y-83379221D01*
X95668182Y-83379228D01*
X95553458Y-83455885D01*
X95553454Y-83455888D01*
X95455888Y-83553454D01*
X95455885Y-83553458D01*
X95379228Y-83668182D01*
X95379221Y-83668195D01*
X95326421Y-83795667D01*
X95326418Y-83795677D01*
X95299500Y-83931004D01*
X95299500Y-83931007D01*
X95299500Y-84068993D01*
X95299500Y-84068995D01*
X95299499Y-84068995D01*
X89925500Y-84068995D01*
X89925500Y-83931004D01*
X89898581Y-83795677D01*
X89898580Y-83795676D01*
X89898580Y-83795672D01*
X89892537Y-83781082D01*
X89845778Y-83668195D01*
X89845771Y-83668182D01*
X89769114Y-83553458D01*
X89769111Y-83553454D01*
X89671545Y-83455888D01*
X89671541Y-83455885D01*
X89556817Y-83379228D01*
X89556804Y-83379221D01*
X89429332Y-83326421D01*
X89429322Y-83326418D01*
X89293995Y-83299500D01*
X89293993Y-83299500D01*
X89156007Y-83299500D01*
X89156005Y-83299500D01*
X89020677Y-83326418D01*
X89020667Y-83326421D01*
X88893195Y-83379221D01*
X88893182Y-83379228D01*
X88778458Y-83455885D01*
X88778454Y-83455888D01*
X88680888Y-83553454D01*
X88680885Y-83553458D01*
X88604228Y-83668182D01*
X88604221Y-83668195D01*
X88551421Y-83795667D01*
X88551418Y-83795677D01*
X88524500Y-83931004D01*
X88524500Y-83931007D01*
X88524500Y-84068993D01*
X88524500Y-84068995D01*
X88524499Y-84068995D01*
X78000000Y-84068995D01*
X78000000Y-82803920D01*
X105774499Y-82803920D01*
X105803340Y-82948907D01*
X105803343Y-82948917D01*
X105859912Y-83085488D01*
X105859919Y-83085501D01*
X105942048Y-83208415D01*
X105942051Y-83208419D01*
X106010951Y-83277319D01*
X106044436Y-83338642D01*
X106039452Y-83408334D01*
X106010951Y-83452681D01*
X105942051Y-83521580D01*
X105942048Y-83521584D01*
X105859919Y-83644498D01*
X105859912Y-83644511D01*
X105803343Y-83781082D01*
X105803340Y-83781092D01*
X105774500Y-83926079D01*
X105774500Y-83926082D01*
X105774500Y-84073918D01*
X105774500Y-84073920D01*
X105774499Y-84073920D01*
X105803340Y-84218907D01*
X105803343Y-84218917D01*
X105859912Y-84355488D01*
X105859919Y-84355501D01*
X105942048Y-84478415D01*
X105942051Y-84478419D01*
X106046580Y-84582948D01*
X106046584Y-84582951D01*
X106169498Y-84665080D01*
X106169511Y-84665087D01*
X106306082Y-84721656D01*
X106306087Y-84721658D01*
X106306091Y-84721658D01*
X106306092Y-84721659D01*
X106451079Y-84750500D01*
X106451082Y-84750500D01*
X106598920Y-84750500D01*
X106696462Y-84731096D01*
X106743913Y-84721658D01*
X106880495Y-84665084D01*
X107003416Y-84582951D01*
X107107951Y-84478416D01*
X107190084Y-84355495D01*
X107246658Y-84218913D01*
X107275500Y-84073918D01*
X107275500Y-83926082D01*
X107275500Y-83926079D01*
X107246659Y-83781092D01*
X107246658Y-83781091D01*
X107246658Y-83781087D01*
X107199897Y-83668195D01*
X107190087Y-83644511D01*
X107190080Y-83644498D01*
X107107951Y-83521584D01*
X107107948Y-83521580D01*
X107039049Y-83452681D01*
X107005564Y-83391358D01*
X107010548Y-83321666D01*
X107039049Y-83277319D01*
X107107948Y-83208419D01*
X107107951Y-83208416D01*
X107190084Y-83085495D01*
X107246658Y-82948913D01*
X107275500Y-82803918D01*
X107275500Y-82656082D01*
X107275500Y-82656079D01*
X107246659Y-82511092D01*
X107246658Y-82511091D01*
X107246658Y-82511087D01*
X107219923Y-82446542D01*
X107190087Y-82374511D01*
X107190080Y-82374498D01*
X107107951Y-82251584D01*
X107107948Y-82251580D01*
X107003419Y-82147051D01*
X107003415Y-82147048D01*
X106880501Y-82064919D01*
X106880488Y-82064912D01*
X106743917Y-82008343D01*
X106743907Y-82008340D01*
X106598920Y-81979500D01*
X106598918Y-81979500D01*
X106451082Y-81979500D01*
X106451080Y-81979500D01*
X106306092Y-82008340D01*
X106306082Y-82008343D01*
X106169511Y-82064912D01*
X106169498Y-82064919D01*
X106046584Y-82147048D01*
X106046580Y-82147051D01*
X105942051Y-82251580D01*
X105942048Y-82251584D01*
X105859919Y-82374498D01*
X105859912Y-82374511D01*
X105803343Y-82511082D01*
X105803340Y-82511092D01*
X105774500Y-82656079D01*
X105774500Y-82656082D01*
X105774500Y-82803918D01*
X105774500Y-82803920D01*
X105774499Y-82803920D01*
X78000000Y-82803920D01*
X78000000Y-82068995D01*
X80299499Y-82068995D01*
X80326418Y-82204322D01*
X80326421Y-82204332D01*
X80379221Y-82331804D01*
X80379228Y-82331817D01*
X80455885Y-82446541D01*
X80455888Y-82446545D01*
X80553454Y-82544111D01*
X80553458Y-82544114D01*
X80668182Y-82620771D01*
X80668195Y-82620778D01*
X80795667Y-82673578D01*
X80795672Y-82673580D01*
X80795676Y-82673580D01*
X80795677Y-82673581D01*
X80931004Y-82700500D01*
X80931007Y-82700500D01*
X81068995Y-82700500D01*
X81160041Y-82682389D01*
X81204328Y-82673580D01*
X81331811Y-82620775D01*
X81331817Y-82620771D01*
X81442391Y-82546888D01*
X81443903Y-82545876D01*
X81446542Y-82544114D01*
X81544114Y-82446542D01*
X81620775Y-82331811D01*
X81673580Y-82204328D01*
X81700500Y-82068993D01*
X81700500Y-81931007D01*
X81700500Y-81931004D01*
X81673581Y-81795677D01*
X81673580Y-81795676D01*
X81673580Y-81795672D01*
X81673578Y-81795667D01*
X81620778Y-81668195D01*
X81620771Y-81668182D01*
X81544114Y-81553458D01*
X81544111Y-81553454D01*
X81446545Y-81455888D01*
X81446541Y-81455885D01*
X81331817Y-81379228D01*
X81331804Y-81379221D01*
X81204332Y-81326421D01*
X81204322Y-81326418D01*
X81068995Y-81299500D01*
X81068993Y-81299500D01*
X80931007Y-81299500D01*
X80931005Y-81299500D01*
X80795677Y-81326418D01*
X80795667Y-81326421D01*
X80668195Y-81379221D01*
X80668182Y-81379228D01*
X80553458Y-81455885D01*
X80553454Y-81455888D01*
X80455888Y-81553454D01*
X80455885Y-81553458D01*
X80379228Y-81668182D01*
X80379221Y-81668195D01*
X80326421Y-81795667D01*
X80326418Y-81795677D01*
X80299500Y-81931004D01*
X80299500Y-81931007D01*
X80299500Y-82068993D01*
X80299500Y-82068995D01*
X80299499Y-82068995D01*
X78000000Y-82068995D01*
X78000000Y-81193995D01*
X88349499Y-81193995D01*
X88376418Y-81329322D01*
X88376421Y-81329332D01*
X88429221Y-81456804D01*
X88429228Y-81456817D01*
X88505885Y-81571541D01*
X88505888Y-81571545D01*
X88603454Y-81669111D01*
X88603458Y-81669114D01*
X88718182Y-81745771D01*
X88718195Y-81745778D01*
X88845667Y-81798578D01*
X88845672Y-81798580D01*
X88845676Y-81798580D01*
X88845677Y-81798581D01*
X88981004Y-81825500D01*
X88981007Y-81825500D01*
X89118995Y-81825500D01*
X89210041Y-81807389D01*
X89254328Y-81798580D01*
X89381811Y-81745775D01*
X89496542Y-81669114D01*
X89594114Y-81571542D01*
X89670775Y-81456811D01*
X89723580Y-81329328D01*
X89732389Y-81285041D01*
X89750500Y-81193995D01*
X89750500Y-81068995D01*
X92299499Y-81068995D01*
X92326418Y-81204322D01*
X92326421Y-81204332D01*
X92379221Y-81331804D01*
X92379228Y-81331817D01*
X92455885Y-81446541D01*
X92455888Y-81446545D01*
X92553454Y-81544111D01*
X92553458Y-81544114D01*
X92668182Y-81620771D01*
X92668195Y-81620778D01*
X92782640Y-81668182D01*
X92795672Y-81673580D01*
X92795676Y-81673580D01*
X92795677Y-81673581D01*
X92931004Y-81700500D01*
X92931007Y-81700500D01*
X93068995Y-81700500D01*
X93160041Y-81682389D01*
X93204328Y-81673580D01*
X93331811Y-81620775D01*
X93446542Y-81544114D01*
X93544114Y-81446542D01*
X93620775Y-81331811D01*
X93621804Y-81329328D01*
X93673578Y-81204332D01*
X93673580Y-81204328D01*
X93700500Y-81068995D01*
X106299499Y-81068995D01*
X106326418Y-81204322D01*
X106326421Y-81204332D01*
X106379221Y-81331804D01*
X106379228Y-81331817D01*
X106455885Y-81446541D01*
X106455888Y-81446545D01*
X106553454Y-81544111D01*
X106553458Y-81544114D01*
X106668182Y-81620771D01*
X106668195Y-81620778D01*
X106782640Y-81668182D01*
X106795672Y-81673580D01*
X106795676Y-81673580D01*
X106795677Y-81673581D01*
X106931004Y-81700500D01*
X106931007Y-81700500D01*
X107068995Y-81700500D01*
X107160041Y-81682389D01*
X107204328Y-81673580D01*
X107331811Y-81620775D01*
X107446542Y-81544114D01*
X107544114Y-81446542D01*
X107620775Y-81331811D01*
X107621804Y-81329328D01*
X107673578Y-81204332D01*
X107673580Y-81204328D01*
X107700500Y-81068993D01*
X107700500Y-80931007D01*
X107700500Y-80931004D01*
X107673581Y-80795677D01*
X107673580Y-80795676D01*
X107673580Y-80795672D01*
X107625027Y-80678454D01*
X107620778Y-80668195D01*
X107620771Y-80668182D01*
X107544114Y-80553458D01*
X107544111Y-80553454D01*
X107446545Y-80455888D01*
X107446541Y-80455885D01*
X107331817Y-80379228D01*
X107331804Y-80379221D01*
X107204332Y-80326421D01*
X107204322Y-80326418D01*
X107068995Y-80299500D01*
X107068993Y-80299500D01*
X106931007Y-80299500D01*
X106931005Y-80299500D01*
X106795677Y-80326418D01*
X106795667Y-80326421D01*
X106668195Y-80379221D01*
X106668182Y-80379228D01*
X106553458Y-80455885D01*
X106553454Y-80455888D01*
X106455888Y-80553454D01*
X106455885Y-80553458D01*
X106379228Y-80668182D01*
X106379221Y-80668195D01*
X106326421Y-80795667D01*
X106326418Y-80795677D01*
X106299500Y-80931004D01*
X106299500Y-80931007D01*
X106299500Y-81068993D01*
X106299500Y-81068995D01*
X106299499Y-81068995D01*
X93700500Y-81068995D01*
X93700500Y-81068993D01*
X93700500Y-80931007D01*
X93700500Y-80931004D01*
X93673581Y-80795677D01*
X93673580Y-80795676D01*
X93673580Y-80795672D01*
X93625027Y-80678454D01*
X93620778Y-80668195D01*
X93620771Y-80668182D01*
X93544114Y-80553458D01*
X93544111Y-80553454D01*
X93446545Y-80455888D01*
X93446541Y-80455885D01*
X93331817Y-80379228D01*
X93331804Y-80379221D01*
X93204332Y-80326421D01*
X93204322Y-80326418D01*
X93068995Y-80299500D01*
X93068993Y-80299500D01*
X92931007Y-80299500D01*
X92931005Y-80299500D01*
X92795677Y-80326418D01*
X92795667Y-80326421D01*
X92668195Y-80379221D01*
X92668182Y-80379228D01*
X92553458Y-80455885D01*
X92553454Y-80455888D01*
X92455888Y-80553454D01*
X92455885Y-80553458D01*
X92379228Y-80668182D01*
X92379221Y-80668195D01*
X92326421Y-80795667D01*
X92326418Y-80795677D01*
X92299500Y-80931004D01*
X92299500Y-80931007D01*
X92299500Y-81068993D01*
X92299500Y-81068995D01*
X92299499Y-81068995D01*
X89750500Y-81068995D01*
X89750500Y-81056004D01*
X89729236Y-80949107D01*
X89723580Y-80920672D01*
X89671806Y-80795677D01*
X89670778Y-80793195D01*
X89670771Y-80793182D01*
X89594114Y-80678458D01*
X89594111Y-80678454D01*
X89496545Y-80580888D01*
X89496541Y-80580885D01*
X89381817Y-80504228D01*
X89381804Y-80504221D01*
X89254332Y-80451421D01*
X89254322Y-80451418D01*
X89118995Y-80424500D01*
X89118993Y-80424500D01*
X88981007Y-80424500D01*
X88981005Y-80424500D01*
X88845677Y-80451418D01*
X88845667Y-80451421D01*
X88718195Y-80504221D01*
X88718182Y-80504228D01*
X88603458Y-80580885D01*
X88603454Y-80580888D01*
X88505888Y-80678454D01*
X88505885Y-80678458D01*
X88429228Y-80793182D01*
X88429221Y-80793195D01*
X88376421Y-80920667D01*
X88376418Y-80920677D01*
X88349500Y-81056004D01*
X88349500Y-81056007D01*
X88349500Y-81193993D01*
X88349500Y-81193995D01*
X88349499Y-81193995D01*
X78000000Y-81193995D01*
X78000000Y-80068995D01*
X100299499Y-80068995D01*
X100326418Y-80204322D01*
X100326421Y-80204332D01*
X100379221Y-80331804D01*
X100379228Y-80331817D01*
X100455885Y-80446541D01*
X100455888Y-80446545D01*
X100553454Y-80544111D01*
X100553458Y-80544114D01*
X100668182Y-80620771D01*
X100668195Y-80620778D01*
X100782640Y-80668182D01*
X100795672Y-80673580D01*
X100795676Y-80673580D01*
X100795677Y-80673581D01*
X100931004Y-80700500D01*
X100931007Y-80700500D01*
X101068995Y-80700500D01*
X101160041Y-80682389D01*
X101204328Y-80673580D01*
X101331811Y-80620775D01*
X101446542Y-80544114D01*
X101544114Y-80446542D01*
X101620775Y-80331811D01*
X101673580Y-80204328D01*
X101700500Y-80068993D01*
X101700500Y-79931007D01*
X101700500Y-79931004D01*
X101673581Y-79795677D01*
X101673580Y-79795676D01*
X101673580Y-79795672D01*
X101673578Y-79795667D01*
X101620778Y-79668195D01*
X101620771Y-79668182D01*
X101544114Y-79553458D01*
X101544111Y-79553454D01*
X101446545Y-79455888D01*
X101446541Y-79455885D01*
X101331817Y-79379228D01*
X101331804Y-79379221D01*
X101204332Y-79326421D01*
X101204322Y-79326418D01*
X101068995Y-79299500D01*
X101068993Y-79299500D01*
X100931007Y-79299500D01*
X100931005Y-79299500D01*
X100795677Y-79326418D01*
X100795667Y-79326421D01*
X100668195Y-79379221D01*
X100668182Y-79379228D01*
X100553458Y-79455885D01*
X100553454Y-79455888D01*
X100455888Y-79553454D01*
X100455885Y-79553458D01*
X100379228Y-79668182D01*
X100379221Y-79668195D01*
X100326421Y-79795667D01*
X100326418Y-79795677D01*
X100299500Y-79931004D01*
X100299500Y-79931007D01*
X100299500Y-80068993D01*
X100299500Y-80068995D01*
X100299499Y-80068995D01*
X78000000Y-80068995D01*
X78000000Y-77545707D01*
X83956050Y-77545707D01*
X83982969Y-77681034D01*
X83982972Y-77681044D01*
X84035772Y-77808516D01*
X84035779Y-77808529D01*
X84112436Y-77923253D01*
X84112439Y-77923257D01*
X84210005Y-78020823D01*
X84210009Y-78020826D01*
X84324733Y-78097483D01*
X84324746Y-78097490D01*
X84452218Y-78150290D01*
X84452223Y-78150292D01*
X84452227Y-78150292D01*
X84452228Y-78150293D01*
X84587555Y-78177212D01*
X84587558Y-78177212D01*
X84725546Y-78177212D01*
X84816592Y-78159101D01*
X84860879Y-78150292D01*
X84988362Y-78097487D01*
X85031003Y-78068995D01*
X88349499Y-78068995D01*
X88376418Y-78204322D01*
X88376421Y-78204332D01*
X88429221Y-78331804D01*
X88429228Y-78331817D01*
X88505885Y-78446541D01*
X88505888Y-78446545D01*
X88603454Y-78544111D01*
X88603458Y-78544114D01*
X88718182Y-78620771D01*
X88718195Y-78620778D01*
X88825112Y-78665064D01*
X88845672Y-78673580D01*
X88845676Y-78673580D01*
X88845677Y-78673581D01*
X88981004Y-78700500D01*
X88981007Y-78700500D01*
X89118995Y-78700500D01*
X89210041Y-78682389D01*
X89254328Y-78673580D01*
X89381811Y-78620775D01*
X89496542Y-78544114D01*
X89594114Y-78446542D01*
X89670775Y-78331811D01*
X89674303Y-78323295D01*
X89723578Y-78204332D01*
X89723580Y-78204328D01*
X89744833Y-78097483D01*
X89750500Y-78068995D01*
X90249499Y-78068995D01*
X90276418Y-78204322D01*
X90276421Y-78204332D01*
X90329221Y-78331804D01*
X90329228Y-78331817D01*
X90405885Y-78446541D01*
X90405888Y-78446545D01*
X90503454Y-78544111D01*
X90503458Y-78544114D01*
X90618182Y-78620771D01*
X90618195Y-78620778D01*
X90725112Y-78665064D01*
X90745672Y-78673580D01*
X90745676Y-78673580D01*
X90745677Y-78673581D01*
X90881004Y-78700500D01*
X90881007Y-78700500D01*
X91018995Y-78700500D01*
X91110041Y-78682389D01*
X91154328Y-78673580D01*
X91281811Y-78620775D01*
X91396542Y-78544114D01*
X91494114Y-78446542D01*
X91570775Y-78331811D01*
X91574303Y-78323295D01*
X91623578Y-78204332D01*
X91623580Y-78204328D01*
X91644833Y-78097483D01*
X91650500Y-78068995D01*
X91650500Y-78060479D01*
X93929998Y-78060479D01*
X93956917Y-78195806D01*
X93956920Y-78195816D01*
X94009720Y-78323288D01*
X94009727Y-78323301D01*
X94086384Y-78438025D01*
X94086387Y-78438029D01*
X94183953Y-78535595D01*
X94183957Y-78535598D01*
X94298681Y-78612255D01*
X94298694Y-78612262D01*
X94426166Y-78665062D01*
X94426171Y-78665064D01*
X94426175Y-78665064D01*
X94426176Y-78665065D01*
X94561503Y-78691984D01*
X94561506Y-78691984D01*
X94699494Y-78691984D01*
X94792025Y-78673578D01*
X94834827Y-78665064D01*
X94941743Y-78620778D01*
X94962303Y-78612262D01*
X94962303Y-78612261D01*
X94962310Y-78612259D01*
X95077041Y-78535598D01*
X95174613Y-78438026D01*
X95251274Y-78323295D01*
X95304079Y-78195812D01*
X95323638Y-78097483D01*
X95329305Y-78068995D01*
X98299499Y-78068995D01*
X98326418Y-78204322D01*
X98326421Y-78204332D01*
X98379221Y-78331804D01*
X98379228Y-78331817D01*
X98455885Y-78446541D01*
X98455888Y-78446545D01*
X98553454Y-78544111D01*
X98553458Y-78544114D01*
X98668182Y-78620771D01*
X98668195Y-78620778D01*
X98775112Y-78665064D01*
X98795672Y-78673580D01*
X98795676Y-78673580D01*
X98795677Y-78673581D01*
X98931004Y-78700500D01*
X98931007Y-78700500D01*
X99068995Y-78700500D01*
X99160041Y-78682389D01*
X99204328Y-78673580D01*
X99331811Y-78620775D01*
X99446542Y-78544114D01*
X99544114Y-78446542D01*
X99620775Y-78331811D01*
X99624303Y-78323295D01*
X99673578Y-78204332D01*
X99673580Y-78204328D01*
X99694833Y-78097483D01*
X99700500Y-78068995D01*
X99700500Y-77931004D01*
X99673581Y-77795677D01*
X99673580Y-77795676D01*
X99673580Y-77795672D01*
X99670053Y-77787156D01*
X99620778Y-77668195D01*
X99620771Y-77668182D01*
X99544114Y-77553458D01*
X99544111Y-77553454D01*
X99469159Y-77478502D01*
X102811281Y-77478502D01*
X102838200Y-77613829D01*
X102838203Y-77613839D01*
X102891003Y-77741311D01*
X102891010Y-77741324D01*
X102967667Y-77856048D01*
X102967670Y-77856052D01*
X103065236Y-77953618D01*
X103065240Y-77953621D01*
X103179964Y-78030278D01*
X103179977Y-78030285D01*
X103307449Y-78083085D01*
X103307454Y-78083087D01*
X103307458Y-78083087D01*
X103307459Y-78083088D01*
X103442786Y-78110007D01*
X103442789Y-78110007D01*
X103580777Y-78110007D01*
X103671823Y-78091896D01*
X103716110Y-78083087D01*
X103843593Y-78030282D01*
X103958324Y-77953621D01*
X104055896Y-77856049D01*
X104132557Y-77741318D01*
X104185362Y-77613835D01*
X104212282Y-77478500D01*
X104212282Y-77340514D01*
X104212282Y-77340511D01*
X104185363Y-77205184D01*
X104185362Y-77205183D01*
X104185362Y-77205179D01*
X104160394Y-77144901D01*
X104132560Y-77077702D01*
X104132553Y-77077689D01*
X104055896Y-76962965D01*
X104055893Y-76962961D01*
X103958327Y-76865395D01*
X103958323Y-76865392D01*
X103843599Y-76788735D01*
X103843586Y-76788728D01*
X103716114Y-76735928D01*
X103716104Y-76735925D01*
X103580777Y-76709007D01*
X103580775Y-76709007D01*
X103442789Y-76709007D01*
X103442787Y-76709007D01*
X103307459Y-76735925D01*
X103307449Y-76735928D01*
X103179977Y-76788728D01*
X103179964Y-76788735D01*
X103065240Y-76865392D01*
X103065236Y-76865395D01*
X102967670Y-76962961D01*
X102967667Y-76962965D01*
X102891010Y-77077689D01*
X102891003Y-77077702D01*
X102838203Y-77205174D01*
X102838200Y-77205184D01*
X102811282Y-77340511D01*
X102811282Y-77340514D01*
X102811282Y-77478500D01*
X102811282Y-77478502D01*
X102811281Y-77478502D01*
X99469159Y-77478502D01*
X99446545Y-77455888D01*
X99446541Y-77455885D01*
X99419062Y-77437524D01*
X99331817Y-77379228D01*
X99331804Y-77379221D01*
X99204332Y-77326421D01*
X99204322Y-77326418D01*
X99068995Y-77299500D01*
X99068993Y-77299500D01*
X98931007Y-77299500D01*
X98931005Y-77299500D01*
X98795677Y-77326418D01*
X98795667Y-77326421D01*
X98668195Y-77379221D01*
X98668182Y-77379228D01*
X98553458Y-77455885D01*
X98553454Y-77455888D01*
X98455888Y-77553454D01*
X98455885Y-77553458D01*
X98379228Y-77668182D01*
X98379221Y-77668195D01*
X98326421Y-77795667D01*
X98326418Y-77795677D01*
X98299500Y-77931004D01*
X98299500Y-77931007D01*
X98299500Y-78068993D01*
X98299500Y-78068995D01*
X98299499Y-78068995D01*
X95329305Y-78068995D01*
X95330999Y-78060479D01*
X95330999Y-77922488D01*
X95304080Y-77787161D01*
X95304079Y-77787160D01*
X95304079Y-77787156D01*
X95285095Y-77741324D01*
X95251277Y-77659679D01*
X95251270Y-77659666D01*
X95174613Y-77544942D01*
X95174610Y-77544938D01*
X95077044Y-77447372D01*
X95077040Y-77447369D01*
X94962316Y-77370712D01*
X94962303Y-77370705D01*
X94834831Y-77317905D01*
X94834821Y-77317902D01*
X94699494Y-77290984D01*
X94699492Y-77290984D01*
X94561506Y-77290984D01*
X94561504Y-77290984D01*
X94426176Y-77317902D01*
X94426166Y-77317905D01*
X94298694Y-77370705D01*
X94298681Y-77370712D01*
X94183957Y-77447369D01*
X94183953Y-77447372D01*
X94086387Y-77544938D01*
X94086384Y-77544942D01*
X94009727Y-77659666D01*
X94009720Y-77659679D01*
X93956920Y-77787151D01*
X93956917Y-77787161D01*
X93929999Y-77922488D01*
X93929999Y-77922491D01*
X93929999Y-78060477D01*
X93929999Y-78060479D01*
X93929998Y-78060479D01*
X91650500Y-78060479D01*
X91650500Y-77931013D01*
X91650500Y-77931007D01*
X91648958Y-77923257D01*
X91623581Y-77795677D01*
X91623580Y-77795676D01*
X91623580Y-77795672D01*
X91620053Y-77787156D01*
X91570778Y-77668195D01*
X91570771Y-77668182D01*
X91494114Y-77553458D01*
X91494111Y-77553454D01*
X91396545Y-77455888D01*
X91396541Y-77455885D01*
X91281817Y-77379228D01*
X91281804Y-77379221D01*
X91154332Y-77326421D01*
X91154322Y-77326418D01*
X91018995Y-77299500D01*
X91018993Y-77299500D01*
X90881007Y-77299500D01*
X90881005Y-77299500D01*
X90745677Y-77326418D01*
X90745667Y-77326421D01*
X90618195Y-77379221D01*
X90618182Y-77379228D01*
X90503458Y-77455885D01*
X90503454Y-77455888D01*
X90405888Y-77553454D01*
X90405885Y-77553458D01*
X90329228Y-77668182D01*
X90329221Y-77668195D01*
X90276421Y-77795667D01*
X90276418Y-77795677D01*
X90249500Y-77931004D01*
X90249500Y-77931007D01*
X90249500Y-78068993D01*
X90249500Y-78068995D01*
X90249499Y-78068995D01*
X89750500Y-78068995D01*
X89750500Y-77931004D01*
X89723581Y-77795677D01*
X89723580Y-77795676D01*
X89723580Y-77795672D01*
X89720053Y-77787156D01*
X89670778Y-77668195D01*
X89670771Y-77668182D01*
X89594114Y-77553458D01*
X89594111Y-77553454D01*
X89496545Y-77455888D01*
X89496541Y-77455885D01*
X89381817Y-77379228D01*
X89381804Y-77379221D01*
X89254332Y-77326421D01*
X89254322Y-77326418D01*
X89118995Y-77299500D01*
X89118993Y-77299500D01*
X88981007Y-77299500D01*
X88981005Y-77299500D01*
X88845677Y-77326418D01*
X88845667Y-77326421D01*
X88718195Y-77379221D01*
X88718182Y-77379228D01*
X88603458Y-77455885D01*
X88603454Y-77455888D01*
X88505888Y-77553454D01*
X88505885Y-77553458D01*
X88429228Y-77668182D01*
X88429221Y-77668195D01*
X88376421Y-77795667D01*
X88376418Y-77795677D01*
X88349500Y-77931004D01*
X88349500Y-77931007D01*
X88349500Y-78068993D01*
X88349500Y-78068995D01*
X88349499Y-78068995D01*
X85031003Y-78068995D01*
X85103093Y-78020826D01*
X85200665Y-77923254D01*
X85277326Y-77808523D01*
X85330131Y-77681040D01*
X85357051Y-77545705D01*
X85357051Y-77407719D01*
X85357051Y-77407716D01*
X85330132Y-77272389D01*
X85330131Y-77272388D01*
X85330131Y-77272384D01*
X85302292Y-77205174D01*
X85277329Y-77144907D01*
X85277322Y-77144894D01*
X85200665Y-77030170D01*
X85200662Y-77030166D01*
X85103096Y-76932600D01*
X85103092Y-76932597D01*
X84988368Y-76855940D01*
X84988355Y-76855933D01*
X84860883Y-76803133D01*
X84860873Y-76803130D01*
X84725546Y-76776212D01*
X84725544Y-76776212D01*
X84587558Y-76776212D01*
X84587556Y-76776212D01*
X84452228Y-76803130D01*
X84452218Y-76803133D01*
X84324746Y-76855933D01*
X84324733Y-76855940D01*
X84210009Y-76932597D01*
X84210005Y-76932600D01*
X84112439Y-77030166D01*
X84112436Y-77030170D01*
X84035779Y-77144894D01*
X84035772Y-77144907D01*
X83982972Y-77272379D01*
X83982969Y-77272389D01*
X83956051Y-77407716D01*
X83956051Y-77407719D01*
X83956051Y-77545705D01*
X83956051Y-77545707D01*
X83956050Y-77545707D01*
X78000000Y-77545707D01*
X78000000Y-73193413D01*
X95242925Y-73193413D01*
X95269844Y-73328740D01*
X95269847Y-73328750D01*
X95322647Y-73456222D01*
X95322654Y-73456235D01*
X95399311Y-73570959D01*
X95399314Y-73570963D01*
X95496880Y-73668529D01*
X95496884Y-73668532D01*
X95611608Y-73745189D01*
X95611617Y-73745194D01*
X95707372Y-73784857D01*
X95761775Y-73828698D01*
X95783840Y-73894992D01*
X95766561Y-73962691D01*
X95715424Y-74010302D01*
X95707372Y-74013979D01*
X95611617Y-74053641D01*
X95611608Y-74053646D01*
X95496884Y-74130303D01*
X95496880Y-74130306D01*
X95399314Y-74227872D01*
X95399311Y-74227876D01*
X95322654Y-74342600D01*
X95322647Y-74342613D01*
X95269847Y-74470085D01*
X95269844Y-74470095D01*
X95242926Y-74605422D01*
X95242926Y-74605425D01*
X95242926Y-74743411D01*
X95242926Y-74743413D01*
X95242925Y-74743413D01*
X95269844Y-74878740D01*
X95269847Y-74878750D01*
X95322647Y-75006222D01*
X95322654Y-75006235D01*
X95399311Y-75120959D01*
X95399314Y-75120963D01*
X95496880Y-75218529D01*
X95496884Y-75218532D01*
X95611608Y-75295189D01*
X95611621Y-75295196D01*
X95705470Y-75334069D01*
X95739098Y-75347998D01*
X95739102Y-75347998D01*
X95739103Y-75347999D01*
X95874430Y-75374918D01*
X95874433Y-75374918D01*
X96012421Y-75374918D01*
X96103467Y-75356807D01*
X96147754Y-75347998D01*
X96275237Y-75295193D01*
X96389968Y-75218532D01*
X96487540Y-75120960D01*
X96564201Y-75006229D01*
X96617006Y-74878746D01*
X96643926Y-74743411D01*
X96643926Y-74605425D01*
X96643926Y-74605422D01*
X96617007Y-74470095D01*
X96617006Y-74470094D01*
X96617006Y-74470090D01*
X96617004Y-74470085D01*
X96564204Y-74342613D01*
X96564197Y-74342600D01*
X96487540Y-74227876D01*
X96487537Y-74227872D01*
X96389971Y-74130306D01*
X96389967Y-74130303D01*
X96298214Y-74068995D01*
X104299499Y-74068995D01*
X104326418Y-74204322D01*
X104326421Y-74204332D01*
X104379221Y-74331804D01*
X104379228Y-74331817D01*
X104455885Y-74446541D01*
X104455888Y-74446545D01*
X104553454Y-74544111D01*
X104553458Y-74544114D01*
X104668182Y-74620771D01*
X104668195Y-74620778D01*
X104795667Y-74673578D01*
X104795672Y-74673580D01*
X104795676Y-74673580D01*
X104795677Y-74673581D01*
X104931004Y-74700500D01*
X104931007Y-74700500D01*
X105068995Y-74700500D01*
X105076179Y-74699071D01*
X107149499Y-74699071D01*
X107174497Y-74824738D01*
X107174500Y-74824748D01*
X107207761Y-74905048D01*
X107215230Y-74974518D01*
X107207761Y-74999952D01*
X107174500Y-75080251D01*
X107174497Y-75080261D01*
X107149500Y-75205928D01*
X107149500Y-75205931D01*
X107149500Y-75334069D01*
X107149500Y-75334071D01*
X107149499Y-75334071D01*
X107174497Y-75459738D01*
X107174499Y-75459744D01*
X107223533Y-75578124D01*
X107223538Y-75578133D01*
X107294723Y-75684668D01*
X107294726Y-75684672D01*
X107385327Y-75775273D01*
X107385331Y-75775276D01*
X107491866Y-75846461D01*
X107491872Y-75846464D01*
X107491873Y-75846465D01*
X107610256Y-75895501D01*
X107610260Y-75895501D01*
X107610261Y-75895502D01*
X107735928Y-75920500D01*
X107735931Y-75920500D01*
X107864071Y-75920500D01*
X107948615Y-75903682D01*
X107989744Y-75895501D01*
X108108127Y-75846465D01*
X108214669Y-75775276D01*
X108305276Y-75684669D01*
X108376465Y-75578127D01*
X108425501Y-75459744D01*
X108433682Y-75418615D01*
X108450500Y-75334071D01*
X108450500Y-75205928D01*
X108425502Y-75080261D01*
X108425501Y-75080260D01*
X108425501Y-75080256D01*
X108392237Y-74999952D01*
X108384769Y-74930484D01*
X108392238Y-74905047D01*
X108425501Y-74824744D01*
X108441680Y-74743411D01*
X108450500Y-74699071D01*
X108450500Y-74570928D01*
X108425502Y-74445261D01*
X108425501Y-74445260D01*
X108425501Y-74445256D01*
X108378513Y-74331817D01*
X108376466Y-74326875D01*
X108376461Y-74326866D01*
X108305276Y-74220331D01*
X108305273Y-74220327D01*
X108214672Y-74129726D01*
X108214668Y-74129723D01*
X108108133Y-74058538D01*
X108108124Y-74058533D01*
X107989744Y-74009499D01*
X107989738Y-74009497D01*
X107864071Y-73984500D01*
X107864069Y-73984500D01*
X107735931Y-73984500D01*
X107735929Y-73984500D01*
X107610261Y-74009497D01*
X107610255Y-74009499D01*
X107491875Y-74058533D01*
X107491866Y-74058538D01*
X107385331Y-74129723D01*
X107385327Y-74129726D01*
X107294726Y-74220327D01*
X107294723Y-74220331D01*
X107223538Y-74326866D01*
X107223533Y-74326875D01*
X107174499Y-74445255D01*
X107174497Y-74445261D01*
X107149500Y-74570928D01*
X107149500Y-74570931D01*
X107149500Y-74699069D01*
X107149500Y-74699071D01*
X107149499Y-74699071D01*
X105076179Y-74699071D01*
X105160041Y-74682389D01*
X105204328Y-74673580D01*
X105331811Y-74620775D01*
X105446542Y-74544114D01*
X105446545Y-74544111D01*
X105513499Y-74477158D01*
X105544111Y-74446545D01*
X105544114Y-74446542D01*
X105620775Y-74331811D01*
X105673580Y-74204328D01*
X105688304Y-74130306D01*
X105700500Y-74068995D01*
X105700500Y-73931004D01*
X105673581Y-73795677D01*
X105673580Y-73795676D01*
X105673580Y-73795672D01*
X105652672Y-73745196D01*
X105620778Y-73668195D01*
X105620771Y-73668182D01*
X105544114Y-73553458D01*
X105544111Y-73553454D01*
X105446545Y-73455888D01*
X105446541Y-73455885D01*
X105331817Y-73379228D01*
X105331804Y-73379221D01*
X105204332Y-73326421D01*
X105204322Y-73326418D01*
X105068995Y-73299500D01*
X105068993Y-73299500D01*
X104931007Y-73299500D01*
X104931005Y-73299500D01*
X104795677Y-73326418D01*
X104795667Y-73326421D01*
X104668195Y-73379221D01*
X104668182Y-73379228D01*
X104553458Y-73455885D01*
X104553454Y-73455888D01*
X104455888Y-73553454D01*
X104455885Y-73553458D01*
X104379228Y-73668182D01*
X104379221Y-73668195D01*
X104326421Y-73795667D01*
X104326418Y-73795677D01*
X104299500Y-73931004D01*
X104299500Y-73931007D01*
X104299500Y-74068993D01*
X104299500Y-74068995D01*
X104299499Y-74068995D01*
X96298214Y-74068995D01*
X96275243Y-74053646D01*
X96275230Y-74053639D01*
X96241036Y-74039476D01*
X96179480Y-74013979D01*
X96125076Y-73970138D01*
X96103011Y-73903844D01*
X96120290Y-73836145D01*
X96171427Y-73788534D01*
X96179480Y-73784857D01*
X96275230Y-73745196D01*
X96275230Y-73745195D01*
X96275237Y-73745193D01*
X96389968Y-73668532D01*
X96487540Y-73570960D01*
X96564201Y-73456229D01*
X96564344Y-73455885D01*
X96596097Y-73379225D01*
X96617006Y-73328746D01*
X96643926Y-73193411D01*
X96643926Y-73055425D01*
X96643926Y-73055422D01*
X96617007Y-72920095D01*
X96617006Y-72920094D01*
X96617006Y-72920090D01*
X96617004Y-72920085D01*
X96564204Y-72792613D01*
X96564197Y-72792600D01*
X96487540Y-72677876D01*
X96487537Y-72677872D01*
X96389971Y-72580306D01*
X96389967Y-72580303D01*
X96275243Y-72503646D01*
X96275230Y-72503639D01*
X96147758Y-72450839D01*
X96147748Y-72450836D01*
X96012421Y-72423918D01*
X96012419Y-72423918D01*
X95874433Y-72423918D01*
X95874431Y-72423918D01*
X95739103Y-72450836D01*
X95739093Y-72450839D01*
X95611621Y-72503639D01*
X95611608Y-72503646D01*
X95496884Y-72580303D01*
X95496880Y-72580306D01*
X95399314Y-72677872D01*
X95399311Y-72677876D01*
X95322654Y-72792600D01*
X95322647Y-72792613D01*
X95269847Y-72920085D01*
X95269844Y-72920095D01*
X95242926Y-73055422D01*
X95242926Y-73055425D01*
X95242926Y-73193411D01*
X95242926Y-73193413D01*
X95242925Y-73193413D01*
X78000000Y-73193413D01*
X78000000Y-70068995D01*
X90299499Y-70068995D01*
X90326418Y-70204322D01*
X90326421Y-70204332D01*
X90379221Y-70331804D01*
X90379228Y-70331817D01*
X90455885Y-70446541D01*
X90455888Y-70446545D01*
X90553454Y-70544111D01*
X90553458Y-70544114D01*
X90668182Y-70620771D01*
X90668195Y-70620778D01*
X90795667Y-70673578D01*
X90795672Y-70673580D01*
X90795676Y-70673580D01*
X90795677Y-70673581D01*
X90931004Y-70700500D01*
X90931007Y-70700500D01*
X91068995Y-70700500D01*
X91160041Y-70682389D01*
X91204328Y-70673580D01*
X91331811Y-70620775D01*
X91446542Y-70544114D01*
X91544114Y-70446542D01*
X91620775Y-70331811D01*
X91673580Y-70204328D01*
X91700500Y-70068995D01*
X97299499Y-70068995D01*
X97326418Y-70204322D01*
X97326421Y-70204332D01*
X97379221Y-70331804D01*
X97379228Y-70331817D01*
X97455885Y-70446541D01*
X97455888Y-70446545D01*
X97553454Y-70544111D01*
X97553458Y-70544114D01*
X97668182Y-70620771D01*
X97668195Y-70620778D01*
X97795667Y-70673578D01*
X97795672Y-70673580D01*
X97795676Y-70673580D01*
X97795677Y-70673581D01*
X97931004Y-70700500D01*
X97931007Y-70700500D01*
X98068995Y-70700500D01*
X98160041Y-70682389D01*
X98204328Y-70673580D01*
X98331811Y-70620775D01*
X98446542Y-70544114D01*
X98544114Y-70446542D01*
X98620775Y-70331811D01*
X98673580Y-70204328D01*
X98700500Y-70068993D01*
X98700500Y-69931007D01*
X98700500Y-69931004D01*
X98673581Y-69795677D01*
X98673580Y-69795676D01*
X98673580Y-69795672D01*
X98673578Y-69795667D01*
X98620778Y-69668195D01*
X98620771Y-69668182D01*
X98544114Y-69553458D01*
X98544111Y-69553454D01*
X98446545Y-69455888D01*
X98446541Y-69455885D01*
X98331817Y-69379228D01*
X98331804Y-69379221D01*
X98204332Y-69326421D01*
X98204322Y-69326418D01*
X98068995Y-69299500D01*
X98068993Y-69299500D01*
X97931007Y-69299500D01*
X97931005Y-69299500D01*
X97795677Y-69326418D01*
X97795667Y-69326421D01*
X97668195Y-69379221D01*
X97668182Y-69379228D01*
X97553458Y-69455885D01*
X97553454Y-69455888D01*
X97455888Y-69553454D01*
X97455885Y-69553458D01*
X97379228Y-69668182D01*
X97379221Y-69668195D01*
X97326421Y-69795667D01*
X97326418Y-69795677D01*
X97299500Y-69931004D01*
X97299500Y-69931007D01*
X97299500Y-70068993D01*
X97299500Y-70068995D01*
X97299499Y-70068995D01*
X91700500Y-70068995D01*
X91700500Y-70068993D01*
X91700500Y-69931007D01*
X91700500Y-69931004D01*
X91673581Y-69795677D01*
X91673580Y-69795676D01*
X91673580Y-69795672D01*
X91673578Y-69795667D01*
X91620778Y-69668195D01*
X91620771Y-69668182D01*
X91544114Y-69553458D01*
X91544111Y-69553454D01*
X91446545Y-69455888D01*
X91446541Y-69455885D01*
X91331817Y-69379228D01*
X91331804Y-69379221D01*
X91204332Y-69326421D01*
X91204322Y-69326418D01*
X91068995Y-69299500D01*
X91068993Y-69299500D01*
X90931007Y-69299500D01*
X90931005Y-69299500D01*
X90795677Y-69326418D01*
X90795667Y-69326421D01*
X90668195Y-69379221D01*
X90668182Y-69379228D01*
X90553458Y-69455885D01*
X90553454Y-69455888D01*
X90455888Y-69553454D01*
X90455885Y-69553458D01*
X90379228Y-69668182D01*
X90379221Y-69668195D01*
X90326421Y-69795667D01*
X90326418Y-69795677D01*
X90299500Y-69931004D01*
X90299500Y-69931007D01*
X90299500Y-70068993D01*
X90299500Y-70068995D01*
X90299499Y-70068995D01*
X78000000Y-70068995D01*
X78000000Y-68484119D01*
X78771042Y-68484119D01*
X78771042Y-68641812D01*
X78801803Y-68796455D01*
X78801806Y-68796467D01*
X78862144Y-68942138D01*
X78862151Y-68942151D01*
X78949752Y-69073254D01*
X78949755Y-69073258D01*
X79061249Y-69184752D01*
X79061253Y-69184755D01*
X79192356Y-69272356D01*
X79192369Y-69272363D01*
X79322876Y-69326420D01*
X79338045Y-69332703D01*
X79492695Y-69363465D01*
X79492698Y-69363466D01*
X79492700Y-69363466D01*
X79650386Y-69363466D01*
X79650387Y-69363465D01*
X79805039Y-69332703D01*
X79950721Y-69272360D01*
X80081831Y-69184755D01*
X80193331Y-69073255D01*
X80280936Y-68942145D01*
X80341279Y-68796463D01*
X80372042Y-68641808D01*
X80372042Y-68484124D01*
X80372042Y-68484121D01*
X80372041Y-68484119D01*
X80341280Y-68329476D01*
X80341279Y-68329469D01*
X80341277Y-68329464D01*
X80280939Y-68183793D01*
X80280932Y-68183780D01*
X80193331Y-68052677D01*
X80193328Y-68052673D01*
X80081834Y-67941179D01*
X80081830Y-67941176D01*
X79950727Y-67853575D01*
X79950714Y-67853568D01*
X79817541Y-67798407D01*
X79763137Y-67754566D01*
X79741072Y-67688272D01*
X79758351Y-67620573D01*
X79809488Y-67572962D01*
X79817508Y-67569298D01*
X79903353Y-67533741D01*
X80018084Y-67457080D01*
X80115656Y-67359508D01*
X80192317Y-67244777D01*
X80245122Y-67117294D01*
X80272042Y-66981959D01*
X80272042Y-66843973D01*
X80272042Y-66843970D01*
X80245123Y-66708643D01*
X80245122Y-66708642D01*
X80245122Y-66708638D01*
X80230600Y-66673578D01*
X80192320Y-66581161D01*
X80192313Y-66581148D01*
X80115656Y-66466424D01*
X80115653Y-66466420D01*
X80018087Y-66368854D01*
X80018083Y-66368851D01*
X79903359Y-66292194D01*
X79903346Y-66292187D01*
X79775874Y-66239387D01*
X79775864Y-66239384D01*
X79640537Y-66212466D01*
X79640535Y-66212466D01*
X79502549Y-66212466D01*
X79502547Y-66212466D01*
X79367219Y-66239384D01*
X79367209Y-66239387D01*
X79239737Y-66292187D01*
X79239724Y-66292194D01*
X79125000Y-66368851D01*
X79124996Y-66368854D01*
X79027430Y-66466420D01*
X79027427Y-66466424D01*
X78950770Y-66581148D01*
X78950763Y-66581161D01*
X78897963Y-66708633D01*
X78897960Y-66708643D01*
X78871042Y-66843970D01*
X78871042Y-66843973D01*
X78871042Y-66981959D01*
X78871042Y-66981961D01*
X78871041Y-66981961D01*
X78897960Y-67117288D01*
X78897963Y-67117298D01*
X78950763Y-67244770D01*
X78950770Y-67244783D01*
X79027427Y-67359507D01*
X79027430Y-67359511D01*
X79124996Y-67457077D01*
X79125000Y-67457080D01*
X79239724Y-67533737D01*
X79239737Y-67533744D01*
X79325542Y-67569285D01*
X79379946Y-67613125D01*
X79402011Y-67679419D01*
X79384732Y-67747119D01*
X79333595Y-67794730D01*
X79325543Y-67798407D01*
X79192365Y-67853570D01*
X79192356Y-67853575D01*
X79061253Y-67941176D01*
X79061249Y-67941179D01*
X78949755Y-68052673D01*
X78949752Y-68052677D01*
X78862151Y-68183780D01*
X78862144Y-68183793D01*
X78801806Y-68329464D01*
X78801803Y-68329476D01*
X78771042Y-68484119D01*
X78000000Y-68484119D01*
X78000000Y-66068995D01*
X97299499Y-66068995D01*
X97326418Y-66204322D01*
X97326421Y-66204332D01*
X97379221Y-66331804D01*
X97379228Y-66331817D01*
X97455885Y-66446541D01*
X97455888Y-66446545D01*
X97553454Y-66544111D01*
X97553458Y-66544114D01*
X97668182Y-66620771D01*
X97668195Y-66620778D01*
X97795667Y-66673578D01*
X97795672Y-66673580D01*
X97795676Y-66673580D01*
X97795677Y-66673581D01*
X97931004Y-66700500D01*
X97931007Y-66700500D01*
X98068995Y-66700500D01*
X98160041Y-66682389D01*
X98204328Y-66673580D01*
X98331811Y-66620775D01*
X98341837Y-66614076D01*
X105478657Y-66614076D01*
X105505576Y-66749403D01*
X105505579Y-66749413D01*
X105558379Y-66876885D01*
X105558386Y-66876898D01*
X105635043Y-66991622D01*
X105635046Y-66991626D01*
X105732612Y-67089192D01*
X105732616Y-67089195D01*
X105847340Y-67165852D01*
X105847353Y-67165859D01*
X105974825Y-67218659D01*
X105974830Y-67218661D01*
X105974834Y-67218661D01*
X105974835Y-67218662D01*
X106110162Y-67245581D01*
X106110165Y-67245581D01*
X106248153Y-67245581D01*
X106339199Y-67227470D01*
X106383486Y-67218661D01*
X106510969Y-67165856D01*
X106625700Y-67089195D01*
X106723272Y-66991623D01*
X106799933Y-66876892D01*
X106852738Y-66749409D01*
X106867821Y-66673581D01*
X106879658Y-66614076D01*
X106879658Y-66476085D01*
X106852739Y-66340758D01*
X106852738Y-66340757D01*
X106852738Y-66340753D01*
X106849031Y-66331804D01*
X106799936Y-66213276D01*
X106799929Y-66213263D01*
X106723272Y-66098539D01*
X106723269Y-66098535D01*
X106625703Y-66000969D01*
X106625699Y-66000966D01*
X106510975Y-65924309D01*
X106510962Y-65924302D01*
X106383490Y-65871502D01*
X106383480Y-65871499D01*
X106248153Y-65844581D01*
X106248151Y-65844581D01*
X106110165Y-65844581D01*
X106110163Y-65844581D01*
X105974835Y-65871499D01*
X105974825Y-65871502D01*
X105847353Y-65924302D01*
X105847340Y-65924309D01*
X105732616Y-66000966D01*
X105732612Y-66000969D01*
X105635046Y-66098535D01*
X105635043Y-66098539D01*
X105558386Y-66213263D01*
X105558379Y-66213276D01*
X105505579Y-66340748D01*
X105505576Y-66340758D01*
X105478658Y-66476085D01*
X105478658Y-66476088D01*
X105478658Y-66614074D01*
X105478658Y-66614076D01*
X105478657Y-66614076D01*
X98341837Y-66614076D01*
X98446542Y-66544114D01*
X98544114Y-66446542D01*
X98620775Y-66331811D01*
X98673580Y-66204328D01*
X98700500Y-66068993D01*
X98700500Y-65931007D01*
X98700500Y-65931004D01*
X98673581Y-65795677D01*
X98673580Y-65795676D01*
X98673580Y-65795672D01*
X98673578Y-65795667D01*
X98620778Y-65668195D01*
X98620771Y-65668182D01*
X98544114Y-65553458D01*
X98544111Y-65553454D01*
X98446545Y-65455888D01*
X98446541Y-65455885D01*
X98331817Y-65379228D01*
X98331804Y-65379221D01*
X98204332Y-65326421D01*
X98204322Y-65326418D01*
X98068995Y-65299500D01*
X98068993Y-65299500D01*
X97931007Y-65299500D01*
X97931005Y-65299500D01*
X97795677Y-65326418D01*
X97795667Y-65326421D01*
X97668195Y-65379221D01*
X97668182Y-65379228D01*
X97553458Y-65455885D01*
X97553454Y-65455888D01*
X97455888Y-65553454D01*
X97455885Y-65553458D01*
X97379228Y-65668182D01*
X97379221Y-65668195D01*
X97326421Y-65795667D01*
X97326418Y-65795677D01*
X97299500Y-65931004D01*
X97299500Y-65931007D01*
X97299500Y-66068993D01*
X97299500Y-66068995D01*
X97299499Y-66068995D01*
X78000000Y-66068995D01*
X78000000Y-62068995D01*
X80299499Y-62068995D01*
X80326418Y-62204322D01*
X80326421Y-62204332D01*
X80379221Y-62331804D01*
X80379228Y-62331817D01*
X80455885Y-62446541D01*
X80455888Y-62446545D01*
X80553454Y-62544111D01*
X80553458Y-62544114D01*
X80668182Y-62620771D01*
X80668195Y-62620778D01*
X80795667Y-62673578D01*
X80795672Y-62673580D01*
X80795676Y-62673580D01*
X80795677Y-62673581D01*
X80931004Y-62700500D01*
X80931007Y-62700500D01*
X81068995Y-62700500D01*
X81160041Y-62682389D01*
X81204328Y-62673580D01*
X81331811Y-62620775D01*
X81446542Y-62544114D01*
X81544114Y-62446542D01*
X81620775Y-62331811D01*
X81673580Y-62204328D01*
X81700500Y-62068993D01*
X81700500Y-61931007D01*
X81700500Y-61931004D01*
X81673581Y-61795677D01*
X81673580Y-61795676D01*
X81673580Y-61795672D01*
X81673578Y-61795667D01*
X81620778Y-61668195D01*
X81620771Y-61668182D01*
X81544114Y-61553458D01*
X81544111Y-61553454D01*
X81446545Y-61455888D01*
X81446541Y-61455885D01*
X81331817Y-61379228D01*
X81331804Y-61379221D01*
X81204332Y-61326421D01*
X81204322Y-61326418D01*
X81068995Y-61299500D01*
X81068993Y-61299500D01*
X80931007Y-61299500D01*
X80931005Y-61299500D01*
X80795677Y-61326418D01*
X80795667Y-61326421D01*
X80668195Y-61379221D01*
X80668182Y-61379228D01*
X80553458Y-61455885D01*
X80553454Y-61455888D01*
X80455888Y-61553454D01*
X80455885Y-61553458D01*
X80379228Y-61668182D01*
X80379221Y-61668195D01*
X80326421Y-61795667D01*
X80326418Y-61795677D01*
X80299500Y-61931004D01*
X80299500Y-61931007D01*
X80299500Y-62068993D01*
X80299500Y-62068995D01*
X80299499Y-62068995D01*
X78000000Y-62068995D01*
X78000000Y-60068995D01*
X87306736Y-60068995D01*
X87333655Y-60204322D01*
X87333658Y-60204332D01*
X87386458Y-60331804D01*
X87386465Y-60331817D01*
X87463122Y-60446541D01*
X87463125Y-60446545D01*
X87560691Y-60544111D01*
X87560695Y-60544114D01*
X87675419Y-60620771D01*
X87675432Y-60620778D01*
X87802904Y-60673578D01*
X87802909Y-60673580D01*
X87802913Y-60673580D01*
X87802914Y-60673581D01*
X87938241Y-60700500D01*
X87938244Y-60700500D01*
X88076232Y-60700500D01*
X88167278Y-60682389D01*
X88211565Y-60673580D01*
X88339048Y-60620775D01*
X88453779Y-60544114D01*
X88551351Y-60446542D01*
X88628012Y-60331811D01*
X88680817Y-60204328D01*
X88707737Y-60068995D01*
X90474499Y-60068995D01*
X90501418Y-60204322D01*
X90501421Y-60204332D01*
X90554221Y-60331804D01*
X90554228Y-60331817D01*
X90630885Y-60446541D01*
X90630888Y-60446545D01*
X90728454Y-60544111D01*
X90728458Y-60544114D01*
X90843182Y-60620771D01*
X90843195Y-60620778D01*
X90970667Y-60673578D01*
X90970672Y-60673580D01*
X90970676Y-60673580D01*
X90970677Y-60673581D01*
X91106004Y-60700500D01*
X91106007Y-60700500D01*
X91243995Y-60700500D01*
X91335041Y-60682389D01*
X91379328Y-60673580D01*
X91506811Y-60620775D01*
X91621542Y-60544114D01*
X91719114Y-60446542D01*
X91795775Y-60331811D01*
X91848580Y-60204328D01*
X91875500Y-60068995D01*
X93742261Y-60068995D01*
X93769180Y-60204322D01*
X93769183Y-60204332D01*
X93821983Y-60331804D01*
X93821990Y-60331817D01*
X93898647Y-60446541D01*
X93898650Y-60446545D01*
X93996216Y-60544111D01*
X93996220Y-60544114D01*
X94110944Y-60620771D01*
X94110957Y-60620778D01*
X94238429Y-60673578D01*
X94238434Y-60673580D01*
X94238438Y-60673580D01*
X94238439Y-60673581D01*
X94373766Y-60700500D01*
X94373769Y-60700500D01*
X94511757Y-60700500D01*
X94602803Y-60682389D01*
X94647090Y-60673580D01*
X94774573Y-60620775D01*
X94889304Y-60544114D01*
X94986876Y-60446542D01*
X95063537Y-60331811D01*
X95116342Y-60204328D01*
X95143262Y-60068995D01*
X97005024Y-60068995D01*
X97031943Y-60204322D01*
X97031946Y-60204332D01*
X97084746Y-60331804D01*
X97084753Y-60331817D01*
X97161410Y-60446541D01*
X97161413Y-60446545D01*
X97258979Y-60544111D01*
X97258983Y-60544114D01*
X97373707Y-60620771D01*
X97373720Y-60620778D01*
X97501192Y-60673578D01*
X97501197Y-60673580D01*
X97501201Y-60673580D01*
X97501202Y-60673581D01*
X97636529Y-60700500D01*
X97636532Y-60700500D01*
X97774520Y-60700500D01*
X97865566Y-60682389D01*
X97909853Y-60673580D01*
X98037336Y-60620775D01*
X98152067Y-60544114D01*
X98249639Y-60446542D01*
X98326300Y-60331811D01*
X98379105Y-60204328D01*
X98406025Y-60068995D01*
X105524499Y-60068995D01*
X105551418Y-60204322D01*
X105551421Y-60204332D01*
X105604221Y-60331804D01*
X105604228Y-60331817D01*
X105680885Y-60446541D01*
X105680888Y-60446545D01*
X105778454Y-60544111D01*
X105778458Y-60544114D01*
X105893182Y-60620771D01*
X105893195Y-60620778D01*
X106020667Y-60673578D01*
X106020672Y-60673580D01*
X106020676Y-60673580D01*
X106020677Y-60673581D01*
X106156004Y-60700500D01*
X106156007Y-60700500D01*
X106293995Y-60700500D01*
X106385041Y-60682389D01*
X106429328Y-60673580D01*
X106556811Y-60620775D01*
X106671542Y-60544114D01*
X106769114Y-60446542D01*
X106845775Y-60331811D01*
X106898580Y-60204328D01*
X106925500Y-60068993D01*
X106925500Y-59931007D01*
X106925500Y-59931004D01*
X106898581Y-59795677D01*
X106898580Y-59795676D01*
X106898580Y-59795672D01*
X106898578Y-59795667D01*
X106845778Y-59668195D01*
X106845771Y-59668182D01*
X106769114Y-59553458D01*
X106769111Y-59553454D01*
X106671545Y-59455888D01*
X106671541Y-59455885D01*
X106556817Y-59379228D01*
X106556804Y-59379221D01*
X106429332Y-59326421D01*
X106429322Y-59326418D01*
X106293995Y-59299500D01*
X106293993Y-59299500D01*
X106156007Y-59299500D01*
X106156005Y-59299500D01*
X106020677Y-59326418D01*
X106020667Y-59326421D01*
X105893195Y-59379221D01*
X105893182Y-59379228D01*
X105778458Y-59455885D01*
X105778454Y-59455888D01*
X105680888Y-59553454D01*
X105680885Y-59553458D01*
X105604228Y-59668182D01*
X105604221Y-59668195D01*
X105551421Y-59795667D01*
X105551418Y-59795677D01*
X105524500Y-59931004D01*
X105524500Y-59931007D01*
X105524500Y-60068993D01*
X105524500Y-60068995D01*
X105524499Y-60068995D01*
X98406025Y-60068995D01*
X98406025Y-60068993D01*
X98406025Y-59931007D01*
X98406025Y-59931004D01*
X98379106Y-59795677D01*
X98379105Y-59795676D01*
X98379105Y-59795672D01*
X98379103Y-59795667D01*
X98326303Y-59668195D01*
X98326296Y-59668182D01*
X98249639Y-59553458D01*
X98249636Y-59553454D01*
X98152070Y-59455888D01*
X98152066Y-59455885D01*
X98037342Y-59379228D01*
X98037329Y-59379221D01*
X97909857Y-59326421D01*
X97909847Y-59326418D01*
X97774520Y-59299500D01*
X97774518Y-59299500D01*
X97636532Y-59299500D01*
X97636530Y-59299500D01*
X97501202Y-59326418D01*
X97501192Y-59326421D01*
X97373720Y-59379221D01*
X97373707Y-59379228D01*
X97258983Y-59455885D01*
X97258979Y-59455888D01*
X97161413Y-59553454D01*
X97161410Y-59553458D01*
X97084753Y-59668182D01*
X97084746Y-59668195D01*
X97031946Y-59795667D01*
X97031943Y-59795677D01*
X97005025Y-59931004D01*
X97005025Y-59931007D01*
X97005025Y-60068993D01*
X97005025Y-60068995D01*
X97005024Y-60068995D01*
X95143262Y-60068995D01*
X95143262Y-60068993D01*
X95143262Y-59931007D01*
X95143262Y-59931004D01*
X95116343Y-59795677D01*
X95116342Y-59795676D01*
X95116342Y-59795672D01*
X95116340Y-59795667D01*
X95063540Y-59668195D01*
X95063533Y-59668182D01*
X94986876Y-59553458D01*
X94986873Y-59553454D01*
X94889307Y-59455888D01*
X94889303Y-59455885D01*
X94774579Y-59379228D01*
X94774566Y-59379221D01*
X94647094Y-59326421D01*
X94647084Y-59326418D01*
X94511757Y-59299500D01*
X94511755Y-59299500D01*
X94373769Y-59299500D01*
X94373767Y-59299500D01*
X94238439Y-59326418D01*
X94238429Y-59326421D01*
X94110957Y-59379221D01*
X94110944Y-59379228D01*
X93996220Y-59455885D01*
X93996216Y-59455888D01*
X93898650Y-59553454D01*
X93898647Y-59553458D01*
X93821990Y-59668182D01*
X93821983Y-59668195D01*
X93769183Y-59795667D01*
X93769180Y-59795677D01*
X93742262Y-59931004D01*
X93742262Y-59931007D01*
X93742262Y-60068993D01*
X93742262Y-60068995D01*
X93742261Y-60068995D01*
X91875500Y-60068995D01*
X91875500Y-60068993D01*
X91875500Y-59931007D01*
X91875500Y-59931004D01*
X91848581Y-59795677D01*
X91848580Y-59795676D01*
X91848580Y-59795672D01*
X91848578Y-59795667D01*
X91795778Y-59668195D01*
X91795771Y-59668182D01*
X91719114Y-59553458D01*
X91719111Y-59553454D01*
X91621545Y-59455888D01*
X91621541Y-59455885D01*
X91506817Y-59379228D01*
X91506804Y-59379221D01*
X91379332Y-59326421D01*
X91379322Y-59326418D01*
X91243995Y-59299500D01*
X91243993Y-59299500D01*
X91106007Y-59299500D01*
X91106005Y-59299500D01*
X90970677Y-59326418D01*
X90970667Y-59326421D01*
X90843195Y-59379221D01*
X90843182Y-59379228D01*
X90728458Y-59455885D01*
X90728454Y-59455888D01*
X90630888Y-59553454D01*
X90630885Y-59553458D01*
X90554228Y-59668182D01*
X90554221Y-59668195D01*
X90501421Y-59795667D01*
X90501418Y-59795677D01*
X90474500Y-59931004D01*
X90474500Y-59931007D01*
X90474500Y-60068993D01*
X90474500Y-60068995D01*
X90474499Y-60068995D01*
X88707737Y-60068995D01*
X88707737Y-60068993D01*
X88707737Y-59931007D01*
X88707737Y-59931004D01*
X88680818Y-59795677D01*
X88680817Y-59795676D01*
X88680817Y-59795672D01*
X88680815Y-59795667D01*
X88628015Y-59668195D01*
X88628008Y-59668182D01*
X88551351Y-59553458D01*
X88551348Y-59553454D01*
X88453782Y-59455888D01*
X88453778Y-59455885D01*
X88339054Y-59379228D01*
X88339041Y-59379221D01*
X88211569Y-59326421D01*
X88211559Y-59326418D01*
X88076232Y-59299500D01*
X88076230Y-59299500D01*
X87938244Y-59299500D01*
X87938242Y-59299500D01*
X87802914Y-59326418D01*
X87802904Y-59326421D01*
X87675432Y-59379221D01*
X87675419Y-59379228D01*
X87560695Y-59455885D01*
X87560691Y-59455888D01*
X87463125Y-59553454D01*
X87463122Y-59553458D01*
X87386465Y-59668182D01*
X87386458Y-59668195D01*
X87333658Y-59795667D01*
X87333655Y-59795677D01*
X87306737Y-59931004D01*
X87306737Y-59931007D01*
X87306737Y-60068993D01*
X87306737Y-60068995D01*
X87306736Y-60068995D01*
X78000000Y-60068995D01*
X78000000Y-58068995D01*
X106299499Y-58068995D01*
X106326418Y-58204322D01*
X106326421Y-58204332D01*
X106379221Y-58331804D01*
X106379228Y-58331817D01*
X106455885Y-58446541D01*
X106455888Y-58446545D01*
X106553454Y-58544111D01*
X106553458Y-58544114D01*
X106668182Y-58620771D01*
X106668195Y-58620778D01*
X106795667Y-58673578D01*
X106795672Y-58673580D01*
X106795676Y-58673580D01*
X106795677Y-58673581D01*
X106931004Y-58700500D01*
X106931007Y-58700500D01*
X107068995Y-58700500D01*
X107160041Y-58682389D01*
X107204328Y-58673580D01*
X107331811Y-58620775D01*
X107446542Y-58544114D01*
X107544114Y-58446542D01*
X107620775Y-58331811D01*
X107673580Y-58204328D01*
X107700500Y-58068993D01*
X107700500Y-57931007D01*
X107700500Y-57931004D01*
X107673581Y-57795677D01*
X107673580Y-57795676D01*
X107673580Y-57795672D01*
X107634159Y-57700500D01*
X107620778Y-57668195D01*
X107620771Y-57668182D01*
X107544114Y-57553458D01*
X107544111Y-57553454D01*
X107446545Y-57455888D01*
X107446541Y-57455885D01*
X107331817Y-57379228D01*
X107331804Y-57379221D01*
X107204332Y-57326421D01*
X107204322Y-57326418D01*
X107068995Y-57299500D01*
X107068993Y-57299500D01*
X106931007Y-57299500D01*
X106931005Y-57299500D01*
X106795677Y-57326418D01*
X106795667Y-57326421D01*
X106668195Y-57379221D01*
X106668182Y-57379228D01*
X106553458Y-57455885D01*
X106553454Y-57455888D01*
X106455888Y-57553454D01*
X106455885Y-57553458D01*
X106379228Y-57668182D01*
X106379221Y-57668195D01*
X106326421Y-57795667D01*
X106326418Y-57795677D01*
X106299500Y-57931004D01*
X106299500Y-57931007D01*
X106299500Y-58068993D01*
X106299500Y-58068995D01*
X106299499Y-58068995D01*
X78000000Y-58068995D01*
X78000000Y-57068995D01*
X80299499Y-57068995D01*
X80326418Y-57204322D01*
X80326421Y-57204332D01*
X80379221Y-57331804D01*
X80379228Y-57331817D01*
X80455885Y-57446541D01*
X80455888Y-57446545D01*
X80553454Y-57544111D01*
X80553458Y-57544114D01*
X80668182Y-57620771D01*
X80668195Y-57620778D01*
X80782640Y-57668182D01*
X80795672Y-57673580D01*
X80795676Y-57673580D01*
X80795677Y-57673581D01*
X80931004Y-57700500D01*
X80931007Y-57700500D01*
X81068995Y-57700500D01*
X81160041Y-57682389D01*
X81204328Y-57673580D01*
X81331811Y-57620775D01*
X81446542Y-57544114D01*
X81544114Y-57446542D01*
X81620775Y-57331811D01*
X81630226Y-57308995D01*
X102049499Y-57308995D01*
X102076418Y-57444322D01*
X102076421Y-57444332D01*
X102129221Y-57571804D01*
X102129228Y-57571817D01*
X102205885Y-57686541D01*
X102205888Y-57686545D01*
X102303454Y-57784111D01*
X102303458Y-57784114D01*
X102418182Y-57860771D01*
X102418195Y-57860778D01*
X102545667Y-57913578D01*
X102545672Y-57913580D01*
X102545676Y-57913580D01*
X102545677Y-57913581D01*
X102681004Y-57940500D01*
X102681007Y-57940500D01*
X102818995Y-57940500D01*
X102910041Y-57922389D01*
X102954328Y-57913580D01*
X103081811Y-57860775D01*
X103196542Y-57784114D01*
X103294114Y-57686542D01*
X103370775Y-57571811D01*
X103423580Y-57444328D01*
X103445963Y-57331804D01*
X103450500Y-57308995D01*
X103450500Y-57171004D01*
X103423581Y-57035677D01*
X103423580Y-57035676D01*
X103423580Y-57035672D01*
X103423578Y-57035667D01*
X103370778Y-56908195D01*
X103370771Y-56908182D01*
X103294114Y-56793458D01*
X103294111Y-56793454D01*
X103196545Y-56695888D01*
X103196541Y-56695885D01*
X103081817Y-56619228D01*
X103081804Y-56619221D01*
X102954332Y-56566421D01*
X102954322Y-56566418D01*
X102818995Y-56539500D01*
X102818993Y-56539500D01*
X102681007Y-56539500D01*
X102681005Y-56539500D01*
X102545677Y-56566418D01*
X102545667Y-56566421D01*
X102418195Y-56619221D01*
X102418182Y-56619228D01*
X102303458Y-56695885D01*
X102303454Y-56695888D01*
X102205888Y-56793454D01*
X102205885Y-56793458D01*
X102129228Y-56908182D01*
X102129221Y-56908195D01*
X102076421Y-57035667D01*
X102076418Y-57035677D01*
X102049500Y-57171004D01*
X102049500Y-57171007D01*
X102049500Y-57308993D01*
X102049500Y-57308995D01*
X102049499Y-57308995D01*
X81630226Y-57308995D01*
X81630227Y-57308993D01*
X81673578Y-57204332D01*
X81673580Y-57204328D01*
X81700500Y-57068993D01*
X81700500Y-56931007D01*
X81700500Y-56931004D01*
X81673581Y-56795677D01*
X81673580Y-56795676D01*
X81673580Y-56795672D01*
X81660536Y-56764180D01*
X81620778Y-56668195D01*
X81620771Y-56668182D01*
X81544114Y-56553458D01*
X81544111Y-56553454D01*
X81446545Y-56455888D01*
X81446541Y-56455885D01*
X81331817Y-56379228D01*
X81331804Y-56379221D01*
X81204332Y-56326421D01*
X81204322Y-56326418D01*
X81068995Y-56299500D01*
X81068993Y-56299500D01*
X80931007Y-56299500D01*
X80931005Y-56299500D01*
X80795677Y-56326418D01*
X80795667Y-56326421D01*
X80668195Y-56379221D01*
X80668182Y-56379228D01*
X80553458Y-56455885D01*
X80553454Y-56455888D01*
X80455888Y-56553454D01*
X80455885Y-56553458D01*
X80379228Y-56668182D01*
X80379221Y-56668195D01*
X80326421Y-56795667D01*
X80326418Y-56795677D01*
X80299500Y-56931004D01*
X80299500Y-56931007D01*
X80299500Y-57068993D01*
X80299500Y-57068995D01*
X80299499Y-57068995D01*
X78000000Y-57068995D01*
X78000000Y-56132675D01*
X104471150Y-56132675D01*
X104498069Y-56268002D01*
X104498072Y-56268012D01*
X104550872Y-56395484D01*
X104550879Y-56395497D01*
X104627536Y-56510221D01*
X104627539Y-56510225D01*
X104725105Y-56607791D01*
X104725109Y-56607794D01*
X104839833Y-56684451D01*
X104839846Y-56684458D01*
X104967318Y-56737258D01*
X104967323Y-56737260D01*
X104967327Y-56737260D01*
X104967328Y-56737261D01*
X105102655Y-56764180D01*
X105102658Y-56764180D01*
X105240646Y-56764180D01*
X105331692Y-56746069D01*
X105375979Y-56737260D01*
X105503462Y-56684455D01*
X105618193Y-56607794D01*
X105715765Y-56510222D01*
X105792426Y-56395491D01*
X105845231Y-56268008D01*
X105872151Y-56132673D01*
X105872151Y-55994687D01*
X105872151Y-55994684D01*
X105845232Y-55859357D01*
X105845231Y-55859356D01*
X105845231Y-55859352D01*
X105845229Y-55859347D01*
X105792429Y-55731875D01*
X105792422Y-55731862D01*
X105715765Y-55617138D01*
X105715762Y-55617134D01*
X105618196Y-55519568D01*
X105618192Y-55519565D01*
X105503468Y-55442908D01*
X105503455Y-55442901D01*
X105375983Y-55390101D01*
X105375973Y-55390098D01*
X105240646Y-55363180D01*
X105240644Y-55363180D01*
X105102658Y-55363180D01*
X105102656Y-55363180D01*
X104967328Y-55390098D01*
X104967318Y-55390101D01*
X104839846Y-55442901D01*
X104839833Y-55442908D01*
X104725109Y-55519565D01*
X104725105Y-55519568D01*
X104627539Y-55617134D01*
X104627536Y-55617138D01*
X104550879Y-55731862D01*
X104550872Y-55731875D01*
X104498072Y-55859347D01*
X104498069Y-55859357D01*
X104471151Y-55994684D01*
X104471151Y-55994687D01*
X104471151Y-56132673D01*
X104471151Y-56132675D01*
X104471150Y-56132675D01*
X78000000Y-56132675D01*
X78000000Y-52475656D01*
X78735042Y-52475656D01*
X78735042Y-52718233D01*
X78766703Y-52958730D01*
X78829489Y-53193049D01*
X78922315Y-53417150D01*
X78922318Y-53417157D01*
X79043606Y-53627234D01*
X79043608Y-53627237D01*
X79043609Y-53627238D01*
X79191275Y-53819681D01*
X79191281Y-53819688D01*
X79362798Y-53991205D01*
X79362804Y-53991210D01*
X79555253Y-54138881D01*
X79765330Y-54260169D01*
X79989442Y-54352999D01*
X80223753Y-54415783D01*
X80404128Y-54439529D01*
X80464253Y-54447445D01*
X80464254Y-54447445D01*
X80706831Y-54447445D01*
X80754930Y-54441112D01*
X80947331Y-54415783D01*
X81181642Y-54352999D01*
X81405754Y-54260169D01*
X81615831Y-54138881D01*
X81808280Y-53991210D01*
X81979807Y-53819683D01*
X82127478Y-53627234D01*
X82248766Y-53417157D01*
X82341596Y-53193045D01*
X82404380Y-52958734D01*
X82436042Y-52718233D01*
X82436042Y-52475657D01*
X82404380Y-52235156D01*
X82341596Y-52000845D01*
X82248766Y-51776733D01*
X82127478Y-51566656D01*
X81979807Y-51374207D01*
X81979802Y-51374201D01*
X81808285Y-51202684D01*
X81808278Y-51202678D01*
X81615835Y-51055012D01*
X81615834Y-51055011D01*
X81615831Y-51055009D01*
X81405754Y-50933721D01*
X81405747Y-50933718D01*
X81181646Y-50840892D01*
X80947327Y-50778106D01*
X80706831Y-50746445D01*
X80706830Y-50746445D01*
X80464254Y-50746445D01*
X80464253Y-50746445D01*
X80223756Y-50778106D01*
X79989437Y-50840892D01*
X79765336Y-50933718D01*
X79765327Y-50933722D01*
X79555248Y-51055012D01*
X79362805Y-51202678D01*
X79362798Y-51202684D01*
X79191281Y-51374201D01*
X79191275Y-51374208D01*
X79043609Y-51566651D01*
X78922319Y-51776730D01*
X78922315Y-51776739D01*
X78829489Y-52000840D01*
X78766703Y-52235159D01*
X78735042Y-52475656D01*
X78000000Y-52475656D01*
X78000000Y-50550094D01*
X78006610Y-50527582D01*
X78008798Y-50504218D01*
X78018348Y-50487606D01*
X78019685Y-50483055D01*
X78026377Y-50473637D01*
X78124481Y-50348417D01*
X78134395Y-50337227D01*
X78337226Y-50134396D01*
X78348417Y-50124481D01*
X78473623Y-50026389D01*
X78538535Y-50000540D01*
X78550096Y-50000000D01*
X83886141Y-50000000D01*
X83953180Y-50019685D01*
G37*
%TD.AperFunction*%
%TD*%
M02*
