%TF.GenerationSoftware,KiCad,Pcbnew,9.0.8-9.0.8~ubuntu24.04.1*%
%TF.CreationDate,2026-04-24T13:10:00-07:00*%
%TF.ProjectId,barn-blinds-controller,6261726e-2d62-46c6-996e-64732d636f6e,rev?*%
%TF.SameCoordinates,Original*%
%TF.FileFunction,Copper,L4,Bot*%
%TF.FilePolarity,Positive*%
%FSLAX46Y46*%
G04 Gerber Fmt 4.6, Leading zero omitted, Abs format (unit mm)*
G04 Created by KiCad (PCBNEW 9.0.8-9.0.8~ubuntu24.04.1) date 2026-04-24 13:10:00*
%MOMM*%
%LPD*%
G01*
G04 APERTURE LIST*
G04 Aperture macros list*
%AMRoundRect*
0 Rectangle with rounded corners*
0 $1 Rounding radius*
0 $2 $3 $4 $5 $6 $7 $8 $9 X,Y pos of 4 corners*
0 Add a 4 corners polygon primitive as box body*
4,1,4,$2,$3,$4,$5,$6,$7,$8,$9,$2,$3,0*
0 Add four circle primitives for the rounded corners*
1,1,$1+$1,$2,$3*
1,1,$1+$1,$4,$5*
1,1,$1+$1,$6,$7*
1,1,$1+$1,$8,$9*
0 Add four rect primitives between the rounded corners*
20,1,$1+$1,$2,$3,$4,$5,0*
20,1,$1+$1,$4,$5,$6,$7,0*
20,1,$1+$1,$6,$7,$8,$9,0*
20,1,$1+$1,$8,$9,$2,$3,0*%
G04 Aperture macros list end*
%TA.AperFunction,ComponentPad*%
%ADD10C,2.000000*%
%TD*%
%TA.AperFunction,ComponentPad*%
%ADD11R,3.500000X3.500000*%
%TD*%
%TA.AperFunction,ComponentPad*%
%ADD12RoundRect,0.750000X0.750000X1.000000X-0.750000X1.000000X-0.750000X-1.000000X0.750000X-1.000000X0*%
%TD*%
%TA.AperFunction,ComponentPad*%
%ADD13RoundRect,0.875000X0.875000X0.875000X-0.875000X0.875000X-0.875000X-0.875000X0.875000X-0.875000X0*%
%TD*%
%TA.AperFunction,ComponentPad*%
%ADD14O,1.850000X1.050000*%
%TD*%
%TA.AperFunction,ComponentPad*%
%ADD15O,2.150000X1.050000*%
%TD*%
%TA.AperFunction,ComponentPad*%
%ADD16C,1.600000*%
%TD*%
%TA.AperFunction,SMDPad,CuDef*%
%ADD17RoundRect,0.250000X0.250000X0.475000X-0.250000X0.475000X-0.250000X-0.475000X0.250000X-0.475000X0*%
%TD*%
%TA.AperFunction,SMDPad,CuDef*%
%ADD18RoundRect,0.225000X0.225000X0.250000X-0.225000X0.250000X-0.225000X-0.250000X0.225000X-0.250000X0*%
%TD*%
%TA.AperFunction,SMDPad,CuDef*%
%ADD19RoundRect,0.225000X0.250000X-0.225000X0.250000X0.225000X-0.250000X0.225000X-0.250000X-0.225000X0*%
%TD*%
%TA.AperFunction,SMDPad,CuDef*%
%ADD20RoundRect,0.250000X-1.450000X0.312500X-1.450000X-0.312500X1.450000X-0.312500X1.450000X0.312500X0*%
%TD*%
%TA.AperFunction,SMDPad,CuDef*%
%ADD21RoundRect,0.225000X-0.225000X-0.250000X0.225000X-0.250000X0.225000X0.250000X-0.225000X0.250000X0*%
%TD*%
%TA.AperFunction,SMDPad,CuDef*%
%ADD22RoundRect,0.200000X0.200000X0.275000X-0.200000X0.275000X-0.200000X-0.275000X0.200000X-0.275000X0*%
%TD*%
%TA.AperFunction,SMDPad,CuDef*%
%ADD23RoundRect,0.250000X-0.900000X1.000000X-0.900000X-1.000000X0.900000X-1.000000X0.900000X1.000000X0*%
%TD*%
%TA.AperFunction,SMDPad,CuDef*%
%ADD24RoundRect,0.250000X0.900000X-1.000000X0.900000X1.000000X-0.900000X1.000000X-0.900000X-1.000000X0*%
%TD*%
%TA.AperFunction,SMDPad,CuDef*%
%ADD25RoundRect,0.200000X0.275000X-0.200000X0.275000X0.200000X-0.275000X0.200000X-0.275000X-0.200000X0*%
%TD*%
%TA.AperFunction,SMDPad,CuDef*%
%ADD26RoundRect,0.250000X-0.250000X-0.475000X0.250000X-0.475000X0.250000X0.475000X-0.250000X0.475000X0*%
%TD*%
%TA.AperFunction,SMDPad,CuDef*%
%ADD27RoundRect,0.250000X-1.000000X-0.900000X1.000000X-0.900000X1.000000X0.900000X-1.000000X0.900000X0*%
%TD*%
%TA.AperFunction,SMDPad,CuDef*%
%ADD28RoundRect,0.200000X-0.200000X-0.275000X0.200000X-0.275000X0.200000X0.275000X-0.200000X0.275000X0*%
%TD*%
%TA.AperFunction,SMDPad,CuDef*%
%ADD29RoundRect,0.250000X0.312500X1.450000X-0.312500X1.450000X-0.312500X-1.450000X0.312500X-1.450000X0*%
%TD*%
%TA.AperFunction,ViaPad*%
%ADD30C,0.600000*%
%TD*%
%TA.AperFunction,ViaPad*%
%ADD31C,0.500000*%
%TD*%
%TA.AperFunction,ViaPad*%
%ADD32C,0.400000*%
%TD*%
%TA.AperFunction,ViaPad*%
%ADD33C,0.300000*%
%TD*%
%TA.AperFunction,Conductor*%
%ADD34C,0.400000*%
%TD*%
%TA.AperFunction,Conductor*%
%ADD35C,0.200000*%
%TD*%
%TA.AperFunction,Conductor*%
%ADD36C,0.700000*%
%TD*%
%TA.AperFunction,Conductor*%
%ADD37C,1.000000*%
%TD*%
%TA.AperFunction,Conductor*%
%ADD38C,1.250000*%
%TD*%
%TA.AperFunction,Conductor*%
%ADD39C,0.500000*%
%TD*%
G04 APERTURE END LIST*
D10*
%TO.P,J3,1,1*%
%TO.N,U3_B02*%
X131203352Y-88468518D03*
X139403352Y-88468518D03*
%TO.P,J3,2,2*%
%TO.N,Net-(D5-Pad2)*%
X131203352Y-84968518D03*
X139403352Y-84968518D03*
%TO.P,J3,3,3*%
%TO.N,U3_A02*%
X131203352Y-81468518D03*
X139403352Y-81468518D03*
%TO.P,J3,4,4*%
%TO.N,Net-(D7-Pad2)*%
X131203352Y-77968518D03*
X139403352Y-77968518D03*
%TO.P,J3,5,5*%
%TO.N,U2_B02*%
X131203352Y-74468518D03*
X139403352Y-74468518D03*
%TO.P,J3,6,6*%
%TO.N,Net-(D6-Pad2)*%
X131203352Y-70968518D03*
X139403352Y-70968518D03*
%TO.P,J3,7,7*%
%TO.N,Net-(D4-Pad2)*%
X131203352Y-67468518D03*
X139403352Y-67468518D03*
%TO.P,J3,8,8*%
%TO.N,U2_A01*%
X131203352Y-63968518D03*
X139403352Y-63968518D03*
%TD*%
D11*
%TO.P,J1,1*%
%TO.N,Net-(D1-A)*%
X131696898Y-97000000D03*
D12*
%TO.P,J1,2*%
%TO.N,GND_MOTOR*%
X137696898Y-97000000D03*
D13*
%TO.P,J1,3*%
%TO.N,N/C*%
X134696898Y-92300000D03*
%TD*%
D14*
%TO.P,J2,SH1,SHIELD*%
%TO.N,GND_ISO*%
X79969556Y-90444270D03*
%TO.P,J2,SH2,SHIELD*%
X79969556Y-99084270D03*
D15*
%TO.P,J2,SH3,SHIELD*%
X84119556Y-90444270D03*
%TO.P,J2,SH4,SHIELD*%
X84119556Y-99084270D03*
%TD*%
D16*
%TO.P,U1,1,+Vin*%
%TO.N,+12V_RAW*%
X113770000Y-103030000D03*
%TO.P,U1,2,-Vin*%
%TO.N,GND_MOTOR*%
X113770000Y-92870000D03*
X111230000Y-103030000D03*
%TO.P,U1,3,+Vout*%
%TO.N,+5V_ISO*%
X101070000Y-103030000D03*
X95990000Y-103030000D03*
%TO.P,U1,4,-Vout*%
%TO.N,GND_ISO*%
X106150000Y-103030000D03*
X98530000Y-103030000D03*
%TO.P,U1,NC*%
%TO.N,N/C*%
X103610000Y-103030000D03*
X98530000Y-92870000D03*
X95990000Y-92870000D03*
%TD*%
D17*
%TO.P,C_VM_A2,1*%
%TO.N,+12V*%
X116775410Y-73525494D03*
%TO.P,C_VM_A2,2*%
%TO.N,GND_MOTOR*%
X114875410Y-73525494D03*
%TD*%
D18*
%TO.P,C_VM_B1,1*%
%TO.N,+12V*%
X116528091Y-76736421D03*
%TO.P,C_VM_B1,2*%
%TO.N,GND_MOTOR*%
X114978091Y-76736421D03*
%TD*%
D19*
%TO.P,C_ISO_D1,1*%
%TO.N,+3.3V_MOTOR*%
X110008365Y-57928049D03*
%TO.P,C_ISO_D1,2*%
%TO.N,GND_MOTOR*%
X110008365Y-56378049D03*
%TD*%
D18*
%TO.P,C7,1*%
%TO.N,+3.3V_ISO*%
X95992762Y-60000000D03*
%TO.P,C7,2*%
%TO.N,GND_ISO*%
X94442762Y-60000000D03*
%TD*%
D20*
%TO.P,F3,1*%
%TO.N,U2_B01*%
X135427191Y-69767230D03*
%TO.P,F3,2*%
%TO.N,Net-(D6-Pad2)*%
X135427191Y-74042230D03*
%TD*%
D18*
%TO.P,C_TMP1,1*%
%TO.N,+3.3V_ISO*%
X96180499Y-77991484D03*
%TO.P,C_TMP1,2*%
%TO.N,GND_ISO*%
X94630499Y-77991484D03*
%TD*%
D21*
%TO.P,C_ISO_E1,1*%
%TO.N,GND_ISO*%
X106225000Y-60000000D03*
%TO.P,C_ISO_E1,2*%
%TO.N,+3.3V_ISO*%
X107775000Y-60000000D03*
%TD*%
D20*
%TO.P,F2,1*%
%TO.N,U3_B01*%
X135427191Y-84629730D03*
%TO.P,F2,2*%
%TO.N,Net-(D5-Pad2)*%
X135427191Y-88904730D03*
%TD*%
D17*
%TO.P,C9,1*%
%TO.N,unconnected-(C9-Pad1)*%
X116635445Y-78635517D03*
%TO.P,C9,2*%
%TO.N,GND_MOTOR*%
X114735445Y-78635517D03*
%TD*%
%TO.P,C4,1*%
%TO.N,+5V_OR*%
X90950000Y-78000000D03*
%TO.P,C4,2*%
%TO.N,GND_ISO*%
X89050000Y-78000000D03*
%TD*%
%TO.P,C1,1*%
%TO.N,+12V_RAW*%
X119183198Y-103000000D03*
%TO.P,C1,2*%
%TO.N,GND_MOTOR*%
X117283198Y-103000000D03*
%TD*%
D19*
%TO.P,C_FILT1,1*%
%TO.N,Net-(U11-BW_SEL)*%
X106559092Y-84019295D03*
%TO.P,C_FILT1,2*%
%TO.N,GND_ISO*%
X106559092Y-82469295D03*
%TD*%
D18*
%TO.P,C6,1*%
%TO.N,+3.3V_ISO*%
X90775000Y-84000000D03*
%TO.P,C6,2*%
%TO.N,GND_ISO*%
X89225000Y-84000000D03*
%TD*%
D22*
%TO.P,R6,1*%
%TO.N,+3.3V_MOTOR*%
X122000000Y-63000000D03*
%TO.P,R6,2*%
%TO.N,/PWM_M1*%
X120350000Y-63000000D03*
%TD*%
%TO.P,R5,1*%
%TO.N,+3.3V_ISO*%
X92825000Y-60000000D03*
%TO.P,R5,2*%
%TO.N,Net-(U3-EN)*%
X91175000Y-60000000D03*
%TD*%
D17*
%TO.P,C_VM_A1,1*%
%TO.N,+12V*%
X116775410Y-71525494D03*
%TO.P,C_VM_A1,2*%
%TO.N,GND_MOTOR*%
X114875410Y-71525494D03*
%TD*%
D19*
%TO.P,C_ISO_B1,1*%
%TO.N,+3.3V_MOTOR*%
X111571442Y-57886181D03*
%TO.P,C_ISO_B1,2*%
%TO.N,GND_MOTOR*%
X111571442Y-56336181D03*
%TD*%
D23*
%TO.P,D7,1*%
%TO.N,U3_A02*%
X135427191Y-77332625D03*
%TO.P,D7,2*%
%TO.N,Net-(D7-Pad2)*%
X135427191Y-81632625D03*
%TD*%
D24*
%TO.P,D4,1*%
%TO.N,U2_A01*%
X131450817Y-58211009D03*
%TO.P,D4,2*%
%TO.N,Net-(D4-Pad2)*%
X131450817Y-53911009D03*
%TD*%
D18*
%TO.P,C_VM_B2,1*%
%TO.N,+12V*%
X116528091Y-75243124D03*
%TO.P,C_VM_B2,2*%
%TO.N,GND_MOTOR*%
X114978091Y-75243124D03*
%TD*%
D21*
%TO.P,C_ISO_C1,1*%
%TO.N,GND_ISO*%
X106179158Y-66545081D03*
%TO.P,C_ISO_C1,2*%
%TO.N,+3.3V_ISO*%
X107729158Y-66545081D03*
%TD*%
D25*
%TO.P,R7,1*%
%TO.N,/PWM_M2*%
X124613382Y-62660834D03*
%TO.P,R7,2*%
%TO.N,+3.3V_MOTOR*%
X124613382Y-61010834D03*
%TD*%
D17*
%TO.P,C8,1*%
%TO.N,+3.3V_ISO*%
X99605525Y-60000000D03*
%TO.P,C8,2*%
%TO.N,GND_ISO*%
X97705525Y-60000000D03*
%TD*%
D26*
%TO.P,C10,1*%
%TO.N,unconnected-(C10-Pad1)*%
X123186851Y-76322121D03*
%TO.P,C10,2*%
%TO.N,GND_MOTOR*%
X125086851Y-76322121D03*
%TD*%
D27*
%TO.P,D5,1*%
%TO.N,U3_B02*%
X124850000Y-92000000D03*
%TO.P,D5,2*%
%TO.N,Net-(D5-Pad2)*%
X129150000Y-92000000D03*
%TD*%
D19*
%TO.P,C_ISO_A1,1*%
%TO.N,GND_ISO*%
X107767522Y-74779591D03*
%TO.P,C_ISO_A1,2*%
%TO.N,+3.3V_ISO*%
X107767522Y-73229591D03*
%TD*%
D17*
%TO.P,C5,1*%
%TO.N,+3.3V_ISO*%
X90950000Y-81125000D03*
%TO.P,C5,2*%
%TO.N,GND_ISO*%
X89050000Y-81125000D03*
%TD*%
D28*
%TO.P,R_BOOT1,1*%
%TO.N,Net-(U3-GPIO0{slash}BOOT)*%
X103511782Y-77409507D03*
%TO.P,R_BOOT1,2*%
%TO.N,+3.3V_ISO*%
X105161782Y-77409507D03*
%TD*%
D23*
%TO.P,D6,1*%
%TO.N,U2_B02*%
X135427191Y-62703414D03*
%TO.P,D6,2*%
%TO.N,Net-(D6-Pad2)*%
X135427191Y-67003414D03*
%TD*%
D29*
%TO.P,F4,1*%
%TO.N,Net-(D7-Pad2)*%
X128137500Y-97000000D03*
%TO.P,F4,2*%
%TO.N,U3_A01*%
X123862500Y-97000000D03*
%TD*%
D25*
%TO.P,R_LED1,1*%
%TO.N,Net-(D3-Pad2)*%
X79571542Y-68562966D03*
%TO.P,R_LED1,2*%
%TO.N,Net-(U3-GPIO16{slash}U0CTS{slash}ADC2_CH5{slash}XTAL_32K_N)*%
X79571542Y-66912966D03*
%TD*%
D22*
%TO.P,R9,1*%
%TO.N,/PWM_M4*%
X123064228Y-72563862D03*
%TO.P,R9,2*%
%TO.N,+3.3V_MOTOR*%
X121414228Y-72563862D03*
%TD*%
D18*
%TO.P,C_ACS1,1*%
%TO.N,+3.3V_ISO*%
X89557237Y-60000000D03*
%TO.P,C_ACS1,2*%
%TO.N,GND_ISO*%
X88007237Y-60000000D03*
%TD*%
D21*
%TO.P,C_VCC_B1,1*%
%TO.N,+3.3V_MOTOR*%
X121457169Y-71017962D03*
%TO.P,C_VCC_B1,2*%
%TO.N,GND_MOTOR*%
X123007169Y-71017962D03*
%TD*%
D19*
%TO.P,C_ACS2,1*%
%TO.N,/GPIO14*%
X95943426Y-74674418D03*
%TO.P,C_ACS2,2*%
%TO.N,GND_ISO*%
X95943426Y-73124418D03*
%TD*%
D22*
%TO.P,R8,1*%
%TO.N,+3.3V_MOTOR*%
X120000000Y-71000000D03*
%TO.P,R8,2*%
%TO.N,/PWM_M3*%
X118350000Y-71000000D03*
%TD*%
%TO.P,R10,1*%
%TO.N,/STBY*%
X122079824Y-60753184D03*
%TO.P,R10,2*%
%TO.N,GND_MOTOR*%
X120429824Y-60753184D03*
%TD*%
D18*
%TO.P,C_VCC_B2,1*%
%TO.N,+3.3V_MOTOR*%
X119936840Y-74000000D03*
%TO.P,C_VCC_B2,2*%
%TO.N,GND_MOTOR*%
X118386840Y-74000000D03*
%TD*%
%TO.P,C3,1*%
%TO.N,+5V_ISO*%
X90775000Y-87000000D03*
%TO.P,C3,2*%
%TO.N,GND_ISO*%
X89225000Y-87000000D03*
%TD*%
D17*
%TO.P,C_VCC_A2,1*%
%TO.N,+3.3V_MOTOR*%
X111428598Y-61788416D03*
%TO.P,C_VCC_A2,2*%
%TO.N,GND_MOTOR*%
X109528598Y-61788416D03*
%TD*%
D29*
%TO.P,F1,1*%
%TO.N,U2_A02*%
X139137500Y-58604079D03*
%TO.P,F1,2*%
%TO.N,Net-(D4-Pad2)*%
X134862500Y-58604079D03*
%TD*%
D21*
%TO.P,C_ISO_F1,1*%
%TO.N,+3.3V_MOTOR*%
X124450000Y-82000000D03*
%TO.P,C_ISO_F1,2*%
%TO.N,GND_MOTOR*%
X126000000Y-82000000D03*
%TD*%
D17*
%TO.P,C_VCC_A1,1*%
%TO.N,+3.3V_MOTOR*%
X111428598Y-59788416D03*
%TO.P,C_VCC_A1,2*%
%TO.N,GND_MOTOR*%
X109528598Y-59788416D03*
%TD*%
D30*
%TO.N,+12V*%
X126764525Y-64000000D03*
D31*
X111960999Y-82734904D03*
X112000000Y-84000000D03*
D32*
X117825000Y-70000000D03*
D30*
X126764525Y-69000000D03*
D32*
X111475000Y-84000000D03*
D30*
X115852346Y-77479845D03*
D32*
X115800000Y-85698884D03*
D30*
X117879206Y-54658149D03*
X126764525Y-67000000D03*
D32*
X111475000Y-82730000D03*
X118425000Y-63000000D03*
D30*
%TO.N,+12V_RAW*%
X119183198Y-103000000D03*
D32*
%TO.N,GND_ISO*%
X81000000Y-82000000D03*
X81000000Y-95000000D03*
X106225000Y-60000000D03*
D31*
X106525000Y-82730000D03*
D32*
X99000000Y-78000000D03*
X95943426Y-73124418D03*
X94630499Y-77991484D03*
X98000000Y-66000000D03*
X88000000Y-95000000D03*
X104000000Y-84000000D03*
X89225000Y-84000000D03*
X98000000Y-70000000D03*
X94442762Y-60000000D03*
X89050000Y-81125000D03*
D33*
X107800000Y-74635000D03*
D32*
X103000000Y-93000000D03*
X88000000Y-100000000D03*
X101000000Y-80000000D03*
X107000000Y-81000000D03*
X105000000Y-74000000D03*
X106179158Y-66545081D03*
X81000000Y-62000000D03*
X85000000Y-86000000D03*
X107000000Y-58000000D03*
X88007237Y-60000000D03*
X93000000Y-81000000D03*
X89225000Y-87000000D03*
D33*
X107800000Y-75270000D03*
D32*
X102750000Y-57240000D03*
X91000000Y-103000000D03*
X85000000Y-103000000D03*
X81000000Y-57000000D03*
X97705525Y-60000000D03*
X98000000Y-98000000D03*
X105171651Y-56063680D03*
X89000000Y-91000000D03*
X89050000Y-78000000D03*
X91000000Y-70000000D03*
X96000000Y-84000000D03*
%TO.N,+5V_ISO*%
X93688806Y-86934306D03*
X90062500Y-94950000D03*
%TO.N,+5V_OR*%
X90950000Y-78000000D03*
%TO.N,+3.3V_ISO*%
X90950000Y-81125000D03*
X96180499Y-77991484D03*
D30*
X104700000Y-57887500D03*
D32*
X85250000Y-58510000D03*
D33*
X107800000Y-66730000D03*
D32*
X90775000Y-84000000D03*
D31*
X106525000Y-86540000D03*
D33*
X107800000Y-60365000D03*
D30*
X95992762Y-60000000D03*
D33*
X107800000Y-73365000D03*
D32*
X105161782Y-77409507D03*
X96834163Y-79752787D03*
D30*
X99605525Y-60000000D03*
X92825000Y-60000000D03*
X89557237Y-60000000D03*
D33*
%TO.N,+3.3V_MOTOR*%
X113000000Y-66730000D03*
X113000000Y-73365000D03*
X113000000Y-60365000D03*
D32*
X111571442Y-57886181D03*
D33*
X121025000Y-62045950D03*
X121025000Y-71000000D03*
D31*
X124450000Y-82000000D03*
D32*
X110008365Y-57928049D03*
D33*
X124175000Y-60000000D03*
D32*
%TO.N,/GPIO14*%
X95943426Y-74674418D03*
D30*
%TO.N,Net-(D3-Pad2)*%
X79571542Y-68562966D03*
D32*
%TO.N,U2_A02*%
X121675000Y-69045950D03*
%TO.N,U2_B02*%
X122975000Y-69045950D03*
%TO.N,U3_B02*%
X122325000Y-78639034D03*
%TO.N,U2_A01*%
X119075000Y-69045950D03*
%TO.N,U2_B01*%
X125575000Y-69045950D03*
%TO.N,U3_A01*%
X119075000Y-78639034D03*
%TO.N,U3_B01*%
X125575000Y-78639034D03*
D31*
%TO.N,Net-(U11-BW_SEL)*%
X106525000Y-84000000D03*
D30*
%TO.N,/STBY*%
X121073141Y-73524512D03*
D33*
X122015122Y-60695950D03*
D30*
X124000000Y-75000000D03*
D33*
%TO.N,/PWM_M1*%
X119075000Y-62045950D03*
%TO.N,/PWM_M2*%
X124275000Y-62045950D03*
%TO.N,/PWM_M3*%
X119075000Y-70995950D03*
%TO.N,/PWM_M4*%
X124275000Y-70995950D03*
D32*
%TO.N,Net-(U3-EN)*%
X91175000Y-60000000D03*
X84656551Y-77476712D03*
%TO.N,Net-(U3-GPIO0{slash}BOOT)*%
X103511782Y-77409507D03*
%TO.N,Net-(U3-GPIO16{slash}U0CTS{slash}ADC2_CH5{slash}XTAL_32K_N)*%
X79571542Y-66912966D03*
%TO.N,GND_MOTOR*%
X123000000Y-57000000D03*
X131000000Y-105000000D03*
X123000000Y-91000000D03*
D30*
X135000000Y-55000000D03*
D32*
X129000000Y-51000000D03*
X117000000Y-82000000D03*
X122000000Y-52000000D03*
X128000000Y-106000000D03*
X120000000Y-95000000D03*
X135000000Y-102000000D03*
D31*
X120000000Y-68000000D03*
D32*
X128000000Y-76000000D03*
D31*
X122325000Y-62045950D03*
D32*
X120375000Y-78639034D03*
X113000000Y-81000000D03*
D30*
X138000000Y-92000000D03*
D31*
X126000000Y-82000000D03*
D30*
X114075345Y-56257427D03*
D33*
X122325000Y-70995950D03*
D32*
X118000000Y-99000000D03*
D30*
X114735445Y-78635517D03*
X122000000Y-59000000D03*
D31*
X123625000Y-69045950D03*
X119725000Y-69045950D03*
X124275000Y-69045950D03*
D32*
X125000000Y-95000000D03*
D30*
X117283198Y-103000000D03*
D32*
X114000000Y-98000000D03*
X124200000Y-85698884D03*
D30*
X114978091Y-76736421D03*
D32*
X116000000Y-52000000D03*
X127000000Y-93000000D03*
D30*
X126279206Y-54658149D03*
D31*
X125086851Y-76322121D03*
%TD*%
D34*
%TO.N,+12V*%
X116528091Y-75243124D02*
X116528091Y-71772813D01*
D35*
X115852346Y-77479845D02*
X115852346Y-77412166D01*
D36*
X115852346Y-77412166D02*
X116528091Y-76736421D01*
D37*
X116775410Y-71525494D02*
X116775410Y-74995805D01*
X116528091Y-75243124D02*
X116528091Y-76736421D01*
X116775410Y-74995805D02*
X116528091Y-75243124D01*
D38*
%TO.N,+12V_RAW*%
X118450000Y-104550000D02*
X119183198Y-103816802D01*
X113770000Y-103030000D02*
X115290000Y-104550000D01*
X115290000Y-104550000D02*
X118450000Y-104550000D01*
X119183198Y-103816802D02*
X119183198Y-103000000D01*
D35*
%TO.N,+5V_ISO*%
X90775000Y-87000000D02*
X90775000Y-94237500D01*
X90775000Y-87000000D02*
X93623112Y-87000000D01*
X90775000Y-94237500D02*
X90062500Y-94950000D01*
X93623112Y-87000000D02*
X93688806Y-86934306D01*
D34*
%TO.N,+3.3V_MOTOR*%
X119936840Y-74000000D02*
X119936840Y-73525000D01*
X118000000Y-69000000D02*
X118000000Y-67000000D01*
X118374997Y-69315189D02*
X118315189Y-69315189D01*
X119936840Y-73525000D02*
X120897978Y-72563862D01*
X121457169Y-71017962D02*
X120077770Y-71017962D01*
X118000000Y-67000000D02*
X122000000Y-63000000D01*
D39*
X111428598Y-61788416D02*
X111428598Y-59788416D01*
X111428598Y-59788416D02*
X111428598Y-58029025D01*
D34*
X121017962Y-71017962D02*
X121000000Y-71000000D01*
X124613382Y-60438382D02*
X124175000Y-60000000D01*
X118315189Y-69315189D02*
X118000000Y-69000000D01*
D39*
X111428598Y-58029025D02*
X111571442Y-57886181D01*
D34*
X124613382Y-61010834D02*
X124613382Y-60438382D01*
X121979050Y-63000000D02*
X121025000Y-62045950D01*
X120077770Y-71017962D02*
X118374997Y-69315189D01*
X120897978Y-72563862D02*
X121414228Y-72563862D01*
D39*
X111529574Y-57928049D02*
X111571442Y-57886181D01*
D34*
X121457169Y-71017962D02*
X121457169Y-72520921D01*
X120000000Y-71000000D02*
X121000000Y-71000000D01*
D39*
X110008365Y-57928049D02*
X111529574Y-57928049D01*
D34*
%TO.N,U2_A02*%
X132603352Y-62396648D02*
X132603352Y-64548417D01*
X131683251Y-65468518D02*
X125252432Y-65468518D01*
X134295921Y-60704079D02*
X132603352Y-62396648D01*
X139137500Y-58604079D02*
X137037500Y-60704079D01*
X137037500Y-60704079D02*
X134295921Y-60704079D01*
X132603352Y-64548417D02*
X131683251Y-65468518D01*
X125252432Y-65468518D02*
X121675000Y-69045950D01*
%TO.N,U2_B02*%
X130078329Y-74468518D02*
X124925000Y-69315189D01*
X132062087Y-66068518D02*
X126706057Y-66068518D01*
X131203352Y-74468518D02*
X130078329Y-74468518D01*
X135427191Y-62703414D02*
X132062087Y-66068518D01*
X124544239Y-68395950D02*
X123355761Y-68395950D01*
X124925000Y-68776711D02*
X124544239Y-68395950D01*
X124925000Y-69315189D02*
X124925000Y-68776711D01*
X126706057Y-66068518D02*
X124925000Y-67849575D01*
X124925000Y-67849575D02*
X124925000Y-68776711D01*
X123355761Y-68395950D02*
X122975000Y-68776711D01*
X122975000Y-68776711D02*
X122975000Y-69045950D01*
%TO.N,U3_A02*%
X135427191Y-77332625D02*
X135427191Y-77492357D01*
X135427191Y-77492357D02*
X139403352Y-81468518D01*
%TO.N,U3_B02*%
X128381482Y-88468518D02*
X131203352Y-88468518D01*
X124850000Y-92000000D02*
X128381482Y-88468518D01*
X131203352Y-88468518D02*
X129553400Y-88468518D01*
X122325000Y-81240118D02*
X122325000Y-78639034D01*
X129553400Y-88468518D02*
X122325000Y-81240118D01*
%TO.N,U2_A01*%
X126000000Y-64000000D02*
X123000000Y-64000000D01*
X131450817Y-63721053D02*
X131203352Y-63968518D01*
X123000000Y-64000000D02*
X119075000Y-67925000D01*
X126000000Y-63774575D02*
X126000000Y-64000000D01*
X130534834Y-63300000D02*
X126474575Y-63300000D01*
X131450817Y-58211009D02*
X131450817Y-63721053D01*
X126474575Y-63300000D02*
X126000000Y-63774575D01*
X119075000Y-67925000D02*
X119075000Y-69045950D01*
X131203352Y-63968518D02*
X130534834Y-63300000D01*
%TO.N,U2_B01*%
X135427191Y-69767230D02*
X134528479Y-68868518D01*
X126620950Y-68000000D02*
X125575000Y-69045950D01*
X134528479Y-68868518D02*
X127622993Y-68868518D01*
X126754475Y-68000000D02*
X126620950Y-68000000D01*
X127622993Y-68868518D02*
X126754475Y-68000000D01*
%TO.N,U3_A01*%
X119075000Y-92212500D02*
X119075000Y-78639034D01*
X123862500Y-97000000D02*
X119075000Y-92212500D01*
%TO.N,U3_B01*%
X130504484Y-83568518D02*
X125575000Y-78639034D01*
X135427191Y-84629730D02*
X134365979Y-83568518D01*
X134365979Y-83568518D02*
X130504484Y-83568518D01*
%TO.N,/STBY*%
X121073141Y-73524512D02*
X122524512Y-73524512D01*
X122524512Y-73524512D02*
X124000000Y-75000000D01*
%TO.N,/PWM_M1*%
X120029050Y-63000000D02*
X119075000Y-62045950D01*
X120350000Y-63000000D02*
X120029050Y-63000000D01*
%TO.N,/PWM_M2*%
X124613382Y-62384332D02*
X124275000Y-62045950D01*
X124613382Y-62660834D02*
X124613382Y-62384332D01*
%TO.N,/PWM_M3*%
X118350000Y-71000000D02*
X119070950Y-71000000D01*
X119070950Y-71000000D02*
X119075000Y-70995950D01*
%TO.N,/PWM_M4*%
X124275000Y-71353090D02*
X124275000Y-70995950D01*
X123064228Y-72563862D02*
X124275000Y-71353090D01*
D35*
%TO.N,Net-(U3-EN)*%
X89000000Y-63000000D02*
X91175000Y-60825000D01*
X84656551Y-77476712D02*
X89000000Y-73133263D01*
X91175000Y-60825000D02*
X91175000Y-60000000D01*
X89000000Y-73133263D02*
X89000000Y-63000000D01*
D34*
%TO.N,GND_MOTOR*%
X123625000Y-70400131D02*
X123007169Y-71017962D01*
X122567962Y-71017962D02*
X122550000Y-71000000D01*
X108100000Y-57150000D02*
X108100000Y-58359818D01*
D37*
X114875410Y-71525494D02*
X114875410Y-76633740D01*
D39*
X114075345Y-56257427D02*
X111650196Y-56257427D01*
D34*
X123007169Y-71017962D02*
X122567962Y-71017962D01*
D37*
X118386840Y-74000000D02*
X117975410Y-74411430D01*
X117285875Y-80060517D02*
X115435445Y-80060517D01*
X115435445Y-80060517D02*
X114735445Y-79360517D01*
X117835445Y-79510947D02*
X117285875Y-80060517D01*
D34*
X108871951Y-56378049D02*
X108100000Y-57150000D01*
D39*
X111650196Y-56257427D02*
X111571442Y-56336181D01*
D37*
X117728091Y-77652733D02*
X117835445Y-77760087D01*
X117975410Y-74411430D02*
X117975410Y-75492861D01*
D34*
X111571442Y-56336181D02*
X110050233Y-56336181D01*
X122000000Y-59000000D02*
X122000000Y-59183008D01*
X110008365Y-56378049D02*
X108871951Y-56378049D01*
X123625000Y-69045950D02*
X123625000Y-70400131D01*
X109528598Y-59788416D02*
X109528598Y-61788416D01*
X108100000Y-58359818D02*
X109528598Y-59788416D01*
D37*
X117835445Y-77760087D02*
X117835445Y-79510947D01*
X114735445Y-79360517D02*
X114735445Y-78635517D01*
X117728091Y-75740180D02*
X117728091Y-77652733D01*
D34*
X122000000Y-59183008D02*
X120429824Y-60753184D01*
D37*
X117975410Y-75492861D02*
X117728091Y-75740180D01*
X114875410Y-76633740D02*
X114978091Y-76736421D01*
D34*
%TO.N,Net-(D4-Pad2)*%
X136448834Y-58604079D02*
X138548834Y-56504079D01*
X134862500Y-58604079D02*
X136448834Y-58604079D01*
X140803352Y-66068518D02*
X139403352Y-67468518D01*
X140803352Y-56803352D02*
X140803352Y-66068518D01*
X134670053Y-58604079D02*
X134862500Y-58604079D01*
X140504079Y-56504079D02*
X140803352Y-56803352D01*
X138548834Y-56504079D02*
X140504079Y-56504079D01*
X131450817Y-55384843D02*
X134670053Y-58604079D01*
X131450817Y-53911009D02*
X131450817Y-55384843D01*
%TO.N,Net-(D5-Pad2)*%
X135467140Y-88904730D02*
X139403352Y-84968518D01*
X129150000Y-92000000D02*
X130400000Y-92000000D01*
X135427191Y-88904730D02*
X135467140Y-88904730D01*
X133495270Y-88904730D02*
X135427191Y-88904730D01*
X135427191Y-88904730D02*
X135139564Y-88904730D01*
X130400000Y-92000000D02*
X133495270Y-88904730D01*
X135139564Y-88904730D02*
X131203352Y-84968518D01*
%TO.N,Net-(D6-Pad2)*%
X139403352Y-70968518D02*
X139392295Y-70968518D01*
X135427191Y-74042230D02*
X138500903Y-70968518D01*
X138500903Y-70968518D02*
X139403352Y-70968518D01*
X139392295Y-70968518D02*
X135427191Y-67003414D01*
%TO.N,Net-(D7-Pad2)*%
X131203352Y-77968518D02*
X134867459Y-81632625D01*
X141000000Y-91000000D02*
X141000000Y-79565166D01*
X128137500Y-97000000D02*
X128137500Y-95300000D01*
X137550000Y-94450000D02*
X141000000Y-91000000D01*
X128137500Y-95300000D02*
X128987500Y-94450000D01*
X134867459Y-81632625D02*
X135427191Y-81632625D01*
X141000000Y-79565166D02*
X139403352Y-77968518D01*
X128987500Y-94450000D02*
X137550000Y-94450000D01*
%TD*%
M02*
