%TF.GenerationSoftware,KiCad,Pcbnew,9.0.8-9.0.8~ubuntu24.04.1*%
%TF.CreationDate,2026-04-24T13:10:01-07:00*%
%TF.ProjectId,barn-blinds-controller,6261726e-2d62-46c6-996e-64732d636f6e,rev?*%
%TF.SameCoordinates,Original*%
%TF.FileFunction,Paste,Top*%
%TF.FilePolarity,Positive*%
%FSLAX46Y46*%
G04 Gerber Fmt 4.6, Leading zero omitted, Abs format (unit mm)*
G04 Created by KiCad (PCBNEW 9.0.8-9.0.8~ubuntu24.04.1) date 2026-04-24 13:10:01*
%MOMM*%
%LPD*%
G01*
G04 APERTURE LIST*
G04 Aperture macros list*
%AMRoundRect*
0 Rectangle with rounded corners*
0 $1 Rounding radius*
0 $2 $3 $4 $5 $6 $7 $8 $9 X,Y pos of 4 corners*
0 Add a 4 corners polygon primitive as box body*
4,1,4,$2,$3,$4,$5,$6,$7,$8,$9,$2,$3,0*
0 Add four circle primitives for the rounded corners*
1,1,$1+$1,$2,$3*
1,1,$1+$1,$4,$5*
1,1,$1+$1,$6,$7*
1,1,$1+$1,$8,$9*
0 Add four rect primitives between the rounded corners*
20,1,$1+$1,$2,$3,$4,$5,0*
20,1,$1+$1,$4,$5,$6,$7,0*
20,1,$1+$1,$6,$7,$8,$9,0*
20,1,$1+$1,$8,$9,$2,$3,0*%
G04 Aperture macros list end*
%ADD10R,0.900000X1.250000*%
%ADD11RoundRect,0.250000X-0.650000X1.000000X-0.650000X-1.000000X0.650000X-1.000000X0.650000X1.000000X0*%
%ADD12RoundRect,0.250000X-1.500000X-0.550000X1.500000X-0.550000X1.500000X0.550000X-1.500000X0.550000X0*%
%ADD13RoundRect,0.135000X-0.135000X-0.185000X0.135000X-0.185000X0.135000X0.185000X-0.135000X0.185000X0*%
%ADD14RoundRect,0.100000X-0.100000X0.562500X-0.100000X-0.562500X0.100000X-0.562500X0.100000X0.562500X0*%
%ADD15RoundRect,0.150000X0.825000X0.150000X-0.825000X0.150000X-0.825000X-0.150000X0.825000X-0.150000X0*%
%ADD16RoundRect,0.375000X0.625000X0.375000X-0.625000X0.375000X-0.625000X-0.375000X0.625000X-0.375000X0*%
%ADD17RoundRect,0.500000X0.500000X1.400000X-0.500000X1.400000X-0.500000X-1.400000X0.500000X-1.400000X0*%
%ADD18R,1.200000X0.400000*%
%ADD19R,1.150000X0.600000*%
%ADD20R,1.150000X0.300000*%
%ADD21R,1.500000X0.900000*%
%ADD22R,0.900000X1.500000*%
%ADD23R,0.900000X0.900000*%
%ADD24RoundRect,0.150000X-0.512500X-0.150000X0.512500X-0.150000X0.512500X0.150000X-0.512500X0.150000X0*%
%ADD25RoundRect,0.135000X0.135000X0.185000X-0.135000X0.185000X-0.135000X-0.185000X0.135000X-0.185000X0*%
%ADD26RoundRect,0.250000X-1.950000X-1.000000X1.950000X-1.000000X1.950000X1.000000X-1.950000X1.000000X0*%
%ADD27RoundRect,0.100000X0.100000X-0.850000X0.100000X0.850000X-0.100000X0.850000X-0.100000X-0.850000X0*%
%ADD28RoundRect,0.150000X-0.587500X-0.150000X0.587500X-0.150000X0.587500X0.150000X-0.587500X0.150000X0*%
%ADD29RoundRect,0.242500X0.457500X-0.242500X0.457500X0.242500X-0.457500X0.242500X-0.457500X-0.242500X0*%
G04 APERTURE END LIST*
D10*
%TO.C,SW1*%
X84656551Y-81326712D03*
X84656551Y-77476712D03*
X86256551Y-77476712D03*
X86256551Y-81326712D03*
%TD*%
D11*
%TO.C,D1*%
X124000000Y-101000000D03*
X124000000Y-105000000D03*
%TD*%
D12*
%TO.C,C2*%
X93688806Y-86934306D03*
X99288806Y-86934306D03*
%TD*%
D13*
%TO.C,R2*%
X82490000Y-73765100D03*
X83510000Y-73765100D03*
%TD*%
D14*
%TO.C,U10*%
X105821651Y-56063680D03*
X105171651Y-56063680D03*
X104521651Y-56063680D03*
X104521651Y-57838680D03*
X105821651Y-57838680D03*
%TD*%
D10*
%TO.C,SW2*%
X101813499Y-81326712D03*
X101813499Y-77476712D03*
X103413499Y-77476712D03*
X103413499Y-81326712D03*
%TD*%
D15*
%TO.C,U11*%
X111475000Y-86540000D03*
X111475000Y-85270000D03*
X111475000Y-84000000D03*
X111475000Y-82730000D03*
X106525000Y-82730000D03*
X106525000Y-84000000D03*
X106525000Y-85270000D03*
X106525000Y-86540000D03*
%TD*%
D16*
%TO.C,U7*%
X114075345Y-56257427D03*
X114075345Y-53957427D03*
D17*
X107775345Y-53957427D03*
D16*
X114075345Y-51657427D03*
%TD*%
D18*
%TO.C,U4*%
X107800000Y-60365000D03*
X107800000Y-61000000D03*
X107800000Y-61635000D03*
X107800000Y-62270000D03*
X107800000Y-62905000D03*
X107800000Y-63540000D03*
X107800000Y-64175000D03*
X107800000Y-64810000D03*
X113000000Y-64810000D03*
X113000000Y-64175000D03*
X113000000Y-63540000D03*
X113000000Y-62905000D03*
X113000000Y-62270000D03*
X113000000Y-61635000D03*
X113000000Y-61000000D03*
X113000000Y-60365000D03*
%TD*%
D19*
%TO.C,J2*%
X84694556Y-91564270D03*
X84694556Y-92364270D03*
D20*
X84694556Y-93514270D03*
X84694556Y-94514270D03*
X84694556Y-95014270D03*
X84694556Y-96014270D03*
D19*
X84694556Y-97164270D03*
X84694556Y-97964270D03*
D20*
X84694556Y-96514270D03*
X84694556Y-95514270D03*
X84694556Y-94014270D03*
X84694556Y-93014270D03*
%TD*%
D21*
%TO.C,U3*%
X85250000Y-57240000D03*
X85250000Y-58510000D03*
X85250000Y-59780000D03*
X85250000Y-61050000D03*
X85250000Y-62320000D03*
X85250000Y-63590000D03*
X85250000Y-64860000D03*
X85250000Y-66130000D03*
X85250000Y-67400000D03*
X85250000Y-68670000D03*
X85250000Y-69940000D03*
X85250000Y-71210000D03*
X85250000Y-72480000D03*
X85250000Y-73750000D03*
D22*
X87015000Y-75000000D03*
X88285000Y-75000000D03*
X89555000Y-75000000D03*
X90825000Y-75000000D03*
X92095000Y-75000000D03*
X93365000Y-75000000D03*
X94635000Y-75000000D03*
X95905000Y-75000000D03*
X97175000Y-75000000D03*
X98445000Y-75000000D03*
X99715000Y-75000000D03*
X100985000Y-75000000D03*
D21*
X102750000Y-73750000D03*
X102750000Y-72480000D03*
X102750000Y-71210000D03*
X102750000Y-69940000D03*
X102750000Y-68670000D03*
X102750000Y-67400000D03*
X102750000Y-66130000D03*
X102750000Y-64860000D03*
X102750000Y-63590000D03*
X102750000Y-62320000D03*
X102750000Y-61050000D03*
X102750000Y-59780000D03*
X102750000Y-58510000D03*
X102750000Y-57240000D03*
D23*
X91100000Y-63560000D03*
X91100000Y-64960000D03*
X91100000Y-66360000D03*
X91100000Y-66360000D03*
X92500000Y-63560000D03*
X92500000Y-63560000D03*
X92500000Y-64960000D03*
X92500000Y-66360000D03*
X93900000Y-63560000D03*
X93900000Y-64960000D03*
X93900000Y-66360000D03*
%TD*%
D24*
%TO.C,U2*%
X94559163Y-79752787D03*
X94559163Y-80702787D03*
X94559163Y-81652787D03*
X96834163Y-81652787D03*
X96834163Y-79752787D03*
%TD*%
D25*
%TO.C,R4*%
X87037030Y-96524813D03*
X86017030Y-96524813D03*
%TD*%
D18*
%TO.C,U5*%
X107800000Y-66730000D03*
X107800000Y-67365000D03*
X107800000Y-68000000D03*
X107800000Y-68635000D03*
X107800000Y-69270000D03*
X107800000Y-69905000D03*
X107800000Y-70540000D03*
X107800000Y-71175000D03*
X113000000Y-71175000D03*
X113000000Y-70540000D03*
X113000000Y-69905000D03*
X113000000Y-69270000D03*
X113000000Y-68635000D03*
X113000000Y-68000000D03*
X113000000Y-67365000D03*
X113000000Y-66730000D03*
%TD*%
D13*
%TO.C,R3*%
X82490000Y-72524078D03*
X83510000Y-72524078D03*
%TD*%
D26*
%TO.C,C11*%
X117879206Y-54658149D03*
X126279206Y-54658149D03*
%TD*%
D27*
%TO.C,U9*%
X118425000Y-78639034D03*
X119075000Y-78639034D03*
X119725000Y-78639034D03*
X120375000Y-78639034D03*
X121025000Y-78639034D03*
X121675000Y-78639034D03*
X122325000Y-78639034D03*
X122975000Y-78639034D03*
X123625000Y-78639034D03*
X124275000Y-78639034D03*
X124925000Y-78639034D03*
X125575000Y-78639034D03*
X125575000Y-71639034D03*
X124925000Y-71639034D03*
X124275000Y-71639034D03*
X123625000Y-71639034D03*
X122975000Y-71639034D03*
X122325000Y-71639034D03*
X121675000Y-71639034D03*
X121025000Y-71639034D03*
X120375000Y-71639034D03*
X119725000Y-71639034D03*
X119075000Y-71639034D03*
X118425000Y-71639034D03*
%TD*%
%TO.C,U8*%
X118425000Y-69045950D03*
X119075000Y-69045950D03*
X119725000Y-69045950D03*
X120375000Y-69045950D03*
X121025000Y-69045950D03*
X121675000Y-69045950D03*
X122325000Y-69045950D03*
X122975000Y-69045950D03*
X123625000Y-69045950D03*
X124275000Y-69045950D03*
X124925000Y-69045950D03*
X125575000Y-69045950D03*
X125575000Y-62045950D03*
X124925000Y-62045950D03*
X124275000Y-62045950D03*
X123625000Y-62045950D03*
X122975000Y-62045950D03*
X122325000Y-62045950D03*
X121675000Y-62045950D03*
X121025000Y-62045950D03*
X120375000Y-62045950D03*
X119725000Y-62045950D03*
X119075000Y-62045950D03*
X118425000Y-62045950D03*
%TD*%
D25*
%TO.C,R1*%
X87037030Y-93187434D03*
X86017030Y-93187434D03*
%TD*%
D28*
%TO.C,D2*%
X90062500Y-93050000D03*
X90062500Y-94950000D03*
X91937500Y-94000000D03*
%TD*%
D26*
%TO.C,C12*%
X115800000Y-85698884D03*
X124200000Y-85698884D03*
%TD*%
D29*
%TO.C,D3*%
X79694184Y-70455769D03*
X79694184Y-68575769D03*
%TD*%
D18*
%TO.C,U6*%
X107800000Y-73365000D03*
X107800000Y-74000000D03*
X107800000Y-74635000D03*
X107800000Y-75270000D03*
X107800000Y-75905000D03*
X107800000Y-76540000D03*
X107800000Y-77175000D03*
X107800000Y-77810000D03*
X113000000Y-77810000D03*
X113000000Y-77175000D03*
X113000000Y-76540000D03*
X113000000Y-75905000D03*
X113000000Y-75270000D03*
X113000000Y-74635000D03*
X113000000Y-74000000D03*
X113000000Y-73365000D03*
%TD*%
M02*
