%TF.GenerationSoftware,KiCad,Pcbnew,9.0.8-9.0.8~ubuntu24.04.1*%
%TF.CreationDate,2026-04-28T13:52:06-07:00*%
%TF.ProjectId,barn-blinds-controller,6261726e-2d62-46c6-996e-64732d636f6e,rev?*%
%TF.SameCoordinates,Original*%
%TF.FileFunction,Drillmap*%
%TF.FilePolarity,Positive*%
%FSLAX45Y45*%
G04 Gerber Fmt 4.5, Leading zero omitted, Abs format (unit mm)*
G04 Created by KiCad (PCBNEW 9.0.8-9.0.8~ubuntu24.04.1) date 2026-04-28 13:52:06*
%MOMM*%
%LPD*%
G01*
G04 APERTURE LIST*
%ADD10C,0.050000*%
%ADD11C,0.200000*%
%ADD12C,0.100000*%
%ADD13C,0.130000*%
%ADD14C,0.320000*%
G04 APERTURE END LIST*
D10*
X7700000Y-5200000D02*
G75*
G02*
X8000000Y-4900000I300000J0D01*
G01*
X7700000Y-10600000D02*
X7700000Y-5200000D01*
X8000000Y-4900000D02*
X13900000Y-4900000D01*
X8000000Y-10900000D02*
G75*
G02*
X7700000Y-10600000I0J300000D01*
G01*
X13900000Y-4900000D02*
G75*
G02*
X14200000Y-5200000I0J-300000D01*
G01*
X13900000Y-10900000D02*
X8000000Y-10900000D01*
X14200000Y-5200000D02*
X14200000Y-10600000D01*
X14200000Y-10600000D02*
G75*
G02*
X13900000Y-10900000I-300000J0D01*
G01*
D11*
D12*
X7935000Y-7935000D02*
X7965000Y-7965000D01*
X7965000Y-7935000D02*
X7935000Y-7965000D01*
X7943280Y-6898382D02*
X7973280Y-6928382D01*
X7973280Y-6898382D02*
X7943280Y-6928382D01*
X7985000Y-9585000D02*
X8015000Y-9615000D01*
X8015000Y-9585000D02*
X7985000Y-9615000D01*
X8135000Y-5985000D02*
X8165000Y-6015000D01*
X8165000Y-5985000D02*
X8135000Y-6015000D01*
X8335000Y-10135000D02*
X8365000Y-10165000D01*
X8365000Y-10135000D02*
X8335000Y-10165000D01*
X8485000Y-7585000D02*
X8515000Y-7615000D01*
X8515000Y-7585000D02*
X8485000Y-7615000D01*
X8585000Y-5835000D02*
X8615000Y-5865000D01*
X8615000Y-5835000D02*
X8585000Y-5865000D01*
X8585000Y-5985000D02*
X8615000Y-6015000D01*
X8615000Y-5985000D02*
X8585000Y-6015000D01*
X8585000Y-6735000D02*
X8615000Y-6765000D01*
X8615000Y-6735000D02*
X8585000Y-6765000D01*
X8655000Y-10135000D02*
X8685000Y-10165000D01*
X8685000Y-10135000D02*
X8655000Y-10165000D01*
X8685000Y-8085000D02*
X8715000Y-8115000D01*
X8715000Y-8085000D02*
X8685000Y-8115000D01*
X8685000Y-8685000D02*
X8715000Y-8715000D01*
X8715000Y-8685000D02*
X8685000Y-8715000D01*
X8685000Y-9435000D02*
X8715000Y-9465000D01*
X8715000Y-9435000D02*
X8685000Y-9465000D01*
X8735000Y-5935000D02*
X8765000Y-5965000D01*
X8765000Y-5935000D02*
X8735000Y-5965000D01*
X8785000Y-5785000D02*
X8815000Y-5815000D01*
X8815000Y-5785000D02*
X8785000Y-5815000D01*
X8885000Y-6835000D02*
X8915000Y-6865000D01*
X8915000Y-6835000D02*
X8885000Y-6865000D01*
X8885000Y-7185000D02*
X8915000Y-7215000D01*
X8915000Y-7185000D02*
X8885000Y-7215000D01*
X8885000Y-7735000D02*
X8915000Y-7765000D01*
X8915000Y-7735000D02*
X8885000Y-7765000D01*
X8885000Y-8135000D02*
X8915000Y-8165000D01*
X8915000Y-8135000D02*
X8885000Y-8165000D01*
X8902500Y-8335000D02*
X8932500Y-8365000D01*
X8932500Y-8335000D02*
X8902500Y-8365000D01*
X8935000Y-5935000D02*
X8965000Y-5965000D01*
X8965000Y-5935000D02*
X8935000Y-5965000D01*
X8985000Y-5785000D02*
X9015000Y-5815000D01*
X9015000Y-5785000D02*
X8985000Y-5815000D01*
X9285000Y-8035000D02*
X9315000Y-8065000D01*
X9315000Y-8035000D02*
X9285000Y-8065000D01*
X9335000Y-7835000D02*
X9365000Y-7865000D01*
X9365000Y-7835000D02*
X9335000Y-7865000D01*
X9435000Y-9885000D02*
X9465000Y-9915000D01*
X9465000Y-9885000D02*
X9435000Y-9915000D01*
X9685000Y-7935000D02*
X9715000Y-7965000D01*
X9715000Y-7935000D02*
X9685000Y-7965000D01*
X9735000Y-6435000D02*
X9765000Y-6465000D01*
X9765000Y-6435000D02*
X9735000Y-6465000D01*
X9785000Y-6035000D02*
X9815000Y-6065000D01*
X9815000Y-6035000D02*
X9785000Y-6065000D01*
X9785000Y-8535000D02*
X9815000Y-8565000D01*
X9815000Y-8535000D02*
X9785000Y-8565000D01*
X9935000Y-6985000D02*
X9965000Y-7015000D01*
X9965000Y-6985000D02*
X9935000Y-7015000D01*
X10085000Y-6285000D02*
X10115000Y-6315000D01*
X10115000Y-6285000D02*
X10085000Y-6315000D01*
X10135000Y-5735000D02*
X10165000Y-5765000D01*
X10165000Y-5735000D02*
X10135000Y-5765000D01*
X10185000Y-6471000D02*
X10215000Y-6501000D01*
X10215000Y-6471000D02*
X10185000Y-6501000D01*
X10185000Y-7235000D02*
X10215000Y-7265000D01*
X10215000Y-7235000D02*
X10185000Y-7265000D01*
X10185000Y-7635000D02*
X10215000Y-7665000D01*
X10215000Y-7635000D02*
X10185000Y-7665000D01*
X10185000Y-8035000D02*
X10215000Y-8065000D01*
X10215000Y-8035000D02*
X10185000Y-8065000D01*
X10325978Y-8055967D02*
X10355978Y-8085967D01*
X10355978Y-8055967D02*
X10325978Y-8085967D01*
X10335342Y-7782772D02*
X10365342Y-7812772D01*
X10365342Y-7782772D02*
X10335342Y-7812772D01*
X10385000Y-8985000D02*
X10415000Y-9015000D01*
X10415000Y-8985000D02*
X10385000Y-9015000D01*
X10385000Y-9435000D02*
X10415000Y-9465000D01*
X10415000Y-9435000D02*
X10385000Y-9465000D01*
X10435000Y-5435000D02*
X10465000Y-5465000D01*
X10465000Y-5435000D02*
X10435000Y-5465000D01*
X10570119Y-5427381D02*
X10600119Y-5457381D01*
X10600119Y-5427381D02*
X10570119Y-5457381D01*
X10585000Y-6035000D02*
X10615000Y-6065000D01*
X10615000Y-6035000D02*
X10585000Y-6065000D01*
X10632159Y-6938860D02*
X10662159Y-6968860D01*
X10662159Y-6938860D02*
X10632159Y-6968860D01*
X10635000Y-8499000D02*
X10665000Y-8529000D01*
X10665000Y-8499000D02*
X10635000Y-8529000D01*
X10645140Y-6232708D02*
X10675140Y-6262708D01*
X10675140Y-6232708D02*
X10645140Y-6262708D01*
X10660124Y-7348885D02*
X10690124Y-7378885D01*
X10690124Y-7348885D02*
X10660124Y-7378885D01*
X10685000Y-6435000D02*
X10715000Y-6465000D01*
X10715000Y-6435000D02*
X10685000Y-6465000D01*
X10762535Y-5380743D02*
X10792535Y-5410743D01*
X10792535Y-5380743D02*
X10762535Y-5410743D01*
X10785000Y-6335000D02*
X10815000Y-6365000D01*
X10815000Y-6335000D02*
X10785000Y-6365000D01*
X10885000Y-5985000D02*
X10915000Y-6015000D01*
X10915000Y-5985000D02*
X10885000Y-6015000D01*
X10885000Y-8235000D02*
X10915000Y-8265000D01*
X10915000Y-8235000D02*
X10885000Y-8265000D01*
X10885000Y-8585000D02*
X10915000Y-8615000D01*
X10915000Y-8585000D02*
X10885000Y-8615000D01*
X10913430Y-7714686D02*
X10943430Y-7744686D01*
X10943430Y-7714686D02*
X10913430Y-7744686D01*
X10925270Y-6660913D02*
X10955270Y-6690913D01*
X10955270Y-6660913D02*
X10925270Y-6690913D01*
X10940436Y-6819709D02*
X10970436Y-6849709D01*
X10970436Y-6819709D02*
X10940436Y-6849709D01*
X10970860Y-5217905D02*
X11000860Y-5247905D01*
X11000860Y-5217905D02*
X10970860Y-5247905D01*
X11024504Y-6320587D02*
X11054504Y-6350587D01*
X11054504Y-6320587D02*
X11024504Y-6350587D01*
X11035000Y-5885000D02*
X11065000Y-5915000D01*
X11065000Y-5885000D02*
X11035000Y-5915000D01*
X11035000Y-6485000D02*
X11065000Y-6515000D01*
X11065000Y-6485000D02*
X11035000Y-6515000D01*
X11078834Y-7517034D02*
X11108834Y-7547034D01*
X11108834Y-7517034D02*
X11078834Y-7547034D01*
X11080513Y-6652893D02*
X11110513Y-6682893D01*
X11110513Y-6652893D02*
X11080513Y-6682893D01*
X11080513Y-6807893D02*
X11110513Y-6837893D01*
X11110513Y-6807893D02*
X11080513Y-6837893D01*
X11085000Y-7785000D02*
X11115000Y-7815000D01*
X11115000Y-7785000D02*
X11085000Y-7815000D01*
X11085000Y-8535000D02*
X11115000Y-8565000D01*
X11115000Y-8535000D02*
X11085000Y-8565000D01*
X11112000Y-8235000D02*
X11142000Y-8265000D01*
X11142000Y-8235000D02*
X11112000Y-8265000D01*
X11175888Y-5557050D02*
X11205888Y-5587050D01*
X11205888Y-5557050D02*
X11175888Y-5587050D01*
X11335000Y-5931000D02*
X11365000Y-5961000D01*
X11365000Y-5931000D02*
X11335000Y-5961000D01*
X11335000Y-6058000D02*
X11365000Y-6088000D01*
X11365000Y-6058000D02*
X11335000Y-6088000D01*
X11335000Y-6185000D02*
X11365000Y-6215000D01*
X11365000Y-6185000D02*
X11335000Y-6215000D01*
X11335000Y-6312000D02*
X11365000Y-6342000D01*
X11365000Y-6312000D02*
X11335000Y-6342000D01*
X11335000Y-8085000D02*
X11365000Y-8115000D01*
X11365000Y-8085000D02*
X11335000Y-8115000D01*
X11386506Y-7734100D02*
X11416506Y-7764100D01*
X11416506Y-7734100D02*
X11386506Y-7764100D01*
X11392534Y-5150743D02*
X11422534Y-5180743D01*
X11422534Y-5150743D02*
X11392534Y-5180743D01*
X11392534Y-5380743D02*
X11422534Y-5410743D01*
X11422534Y-5380743D02*
X11392534Y-5410743D01*
X11485000Y-8035000D02*
X11515000Y-8065000D01*
X11515000Y-8035000D02*
X11485000Y-8065000D01*
X11575545Y-8685000D02*
X11605545Y-8715000D01*
X11605545Y-8685000D02*
X11575545Y-8715000D01*
X11635000Y-6185000D02*
X11665000Y-6215000D01*
X11665000Y-6185000D02*
X11635000Y-6215000D01*
X11672452Y-6504857D02*
X11702452Y-6534857D01*
X11702452Y-6504857D02*
X11672452Y-6534857D01*
X11685000Y-6935000D02*
X11715000Y-6965000D01*
X11715000Y-6935000D02*
X11685000Y-6965000D01*
X11685000Y-8620000D02*
X11715000Y-8650000D01*
X11715000Y-8620000D02*
X11685000Y-8650000D01*
X11717981Y-7599416D02*
X11747981Y-7629416D01*
X11747981Y-7599416D02*
X11717981Y-7629416D01*
X11772921Y-5450815D02*
X11802921Y-5480815D01*
X11802921Y-5450815D02*
X11772921Y-5480815D01*
X11785000Y-6335000D02*
X11815000Y-6365000D01*
X11815000Y-6335000D02*
X11785000Y-6365000D01*
X11785000Y-6535000D02*
X11815000Y-6565000D01*
X11815000Y-6535000D02*
X11785000Y-6565000D01*
X11785000Y-6785000D02*
X11815000Y-6815000D01*
X11815000Y-6785000D02*
X11785000Y-6815000D01*
X11785000Y-8335000D02*
X11815000Y-8365000D01*
X11815000Y-8335000D02*
X11785000Y-8365000D01*
X11809558Y-6624292D02*
X11839558Y-6654292D01*
X11839558Y-6624292D02*
X11809558Y-6654292D01*
X11835000Y-8835000D02*
X11865000Y-8865000D01*
X11865000Y-8835000D02*
X11835000Y-8865000D01*
X11885000Y-5735000D02*
X11915000Y-5765000D01*
X11915000Y-5735000D02*
X11885000Y-5765000D01*
X11885000Y-6185000D02*
X11915000Y-6215000D01*
X11915000Y-6185000D02*
X11885000Y-6215000D01*
X11885000Y-6985000D02*
X11915000Y-7015000D01*
X11915000Y-6985000D02*
X11885000Y-7015000D01*
X11885000Y-8480424D02*
X11915000Y-8510424D01*
X11915000Y-8480424D02*
X11885000Y-8510424D01*
X11885000Y-8635000D02*
X11915000Y-8665000D01*
X11915000Y-8635000D02*
X11885000Y-8665000D01*
X11885000Y-9017651D02*
X11915000Y-9047651D01*
X11915000Y-9017651D02*
X11885000Y-9047651D01*
X11910929Y-8360929D02*
X11940929Y-8390929D01*
X11940929Y-8360929D02*
X11910929Y-8390929D01*
X11985000Y-6185000D02*
X12015000Y-6215000D01*
X12015000Y-6185000D02*
X11985000Y-6215000D01*
X11985000Y-6485000D02*
X12015000Y-6515000D01*
X12015000Y-6485000D02*
X11985000Y-6515000D01*
X11985000Y-6635000D02*
X12015000Y-6665000D01*
X12015000Y-6635000D02*
X11985000Y-6665000D01*
X11985000Y-6885000D02*
X12015000Y-6915000D01*
X12015000Y-6885000D02*
X11985000Y-6915000D01*
X12035000Y-9535000D02*
X12065000Y-9565000D01*
X12065000Y-9535000D02*
X12035000Y-9565000D01*
X12057292Y-8324488D02*
X12087292Y-8354488D01*
X12087292Y-8324488D02*
X12057292Y-8354488D01*
X12057292Y-8779079D02*
X12087292Y-8809079D01*
X12087292Y-8779079D02*
X12057292Y-8809079D01*
X12085000Y-6335000D02*
X12115000Y-6365000D01*
X12115000Y-6335000D02*
X12085000Y-6365000D01*
X12085000Y-6785000D02*
X12115000Y-6815000D01*
X12115000Y-6785000D02*
X12085000Y-6815000D01*
X12167500Y-8480424D02*
X12197500Y-8510424D01*
X12197500Y-8480424D02*
X12167500Y-8510424D01*
X12167500Y-8631954D02*
X12197500Y-8661954D01*
X12197500Y-8631954D02*
X12167500Y-8661954D01*
X12185000Y-6735000D02*
X12215000Y-6765000D01*
X12215000Y-6735000D02*
X12185000Y-6765000D01*
X12185000Y-7335000D02*
X12215000Y-7365000D01*
X12215000Y-7335000D02*
X12185000Y-7365000D01*
X12185000Y-8960014D02*
X12215000Y-8990014D01*
X12215000Y-8960014D02*
X12185000Y-8990014D01*
X12235000Y-5735000D02*
X12265000Y-5765000D01*
X12265000Y-5735000D02*
X12235000Y-5765000D01*
X12285000Y-7085000D02*
X12315000Y-7115000D01*
X12315000Y-7085000D02*
X12285000Y-7115000D01*
X12365000Y-6735000D02*
X12395000Y-6765000D01*
X12395000Y-6735000D02*
X12365000Y-6765000D01*
X12535000Y-7385000D02*
X12565000Y-7415000D01*
X12565000Y-7385000D02*
X12535000Y-7415000D01*
X12585000Y-10285000D02*
X12615000Y-10315000D01*
X12615000Y-10285000D02*
X12585000Y-10315000D01*
X12685000Y-6535000D02*
X12715000Y-6565000D01*
X12715000Y-6535000D02*
X12685000Y-6565000D01*
X13185000Y-5535000D02*
X13215000Y-5565000D01*
X13215000Y-5535000D02*
X13185000Y-5565000D01*
X13235000Y-10035000D02*
X13265000Y-10065000D01*
X13265000Y-10035000D02*
X13235000Y-10065000D01*
X13285000Y-7985000D02*
X13315000Y-8015000D01*
X13315000Y-7985000D02*
X13285000Y-8015000D01*
X13285000Y-8985000D02*
X13315000Y-9015000D01*
X13315000Y-8985000D02*
X13285000Y-9015000D01*
X13435000Y-6585000D02*
X13465000Y-6615000D01*
X13465000Y-6585000D02*
X13435000Y-6615000D01*
X13485000Y-6381852D02*
X13515000Y-6411852D01*
X13515000Y-6381852D02*
X13485000Y-6411852D01*
X13485000Y-7081852D02*
X13515000Y-7111852D01*
X13515000Y-7081852D02*
X13485000Y-7111852D01*
X13485000Y-7781852D02*
X13515000Y-7811852D01*
X13515000Y-7781852D02*
X13485000Y-7811852D01*
X13485000Y-8481852D02*
X13515000Y-8511852D01*
X13515000Y-8481852D02*
X13485000Y-8511852D01*
X13785000Y-6935000D02*
X13815000Y-6965000D01*
X13815000Y-6935000D02*
X13785000Y-6965000D01*
X13785000Y-7985000D02*
X13815000Y-8015000D01*
X13815000Y-7985000D02*
X13785000Y-8015000D01*
X7998389Y-9044993D02*
G75*
G02*
X7933389Y-9044993I-32500J0D01*
G01*
X7933389Y-9044993D02*
G75*
G02*
X7998389Y-9044993I32500J0D01*
G01*
X8005889Y-9012493D02*
X7925889Y-9012493D01*
X7925889Y-9077493D02*
G75*
G02*
X7925889Y-9012493I0J32500D01*
G01*
X7925889Y-9077493D02*
X8005889Y-9077493D01*
X8005889Y-9077493D02*
G75*
G03*
X8005889Y-9012493I0J32500D01*
G01*
X7998389Y-9908993D02*
G75*
G02*
X7933389Y-9908993I-32500J0D01*
G01*
X7933389Y-9908993D02*
G75*
G02*
X7998389Y-9908993I32500J0D01*
G01*
X8005889Y-9876493D02*
X7925889Y-9876493D01*
X7925889Y-9941493D02*
G75*
G02*
X7925889Y-9876493I0J32500D01*
G01*
X7925889Y-9941493D02*
X8005889Y-9941493D01*
X8005889Y-9941493D02*
G75*
G03*
X8005889Y-9876493I0J32500D01*
G01*
X8413389Y-9044993D02*
G75*
G02*
X8348389Y-9044993I-32500J0D01*
G01*
X8348389Y-9044993D02*
G75*
G02*
X8413389Y-9044993I32500J0D01*
G01*
X8435889Y-9012493D02*
X8325889Y-9012493D01*
X8325889Y-9077493D02*
G75*
G02*
X8325889Y-9012493I0J32500D01*
G01*
X8325889Y-9077493D02*
X8435889Y-9077493D01*
X8435889Y-9077493D02*
G75*
G03*
X8435889Y-9012493I0J32500D01*
G01*
X8413389Y-9908993D02*
G75*
G02*
X8348389Y-9908993I-32500J0D01*
G01*
X8348389Y-9908993D02*
G75*
G02*
X8413389Y-9908993I32500J0D01*
G01*
X8435889Y-9876493D02*
X8325889Y-9876493D01*
X8325889Y-9941493D02*
G75*
G02*
X8325889Y-9876493I0J32500D01*
G01*
X8325889Y-9941493D02*
X8435889Y-9941493D01*
X8435889Y-9941493D02*
G75*
G03*
X8435889Y-9876493I0J32500D01*
G01*
X9599000Y-9242000D02*
X9599000Y-9332000D01*
X9554000Y-9287000D02*
X9644000Y-9287000D01*
X9599000Y-10258000D02*
X9599000Y-10348000D01*
X9554000Y-10303000D02*
X9644000Y-10303000D01*
X9853000Y-9242000D02*
X9853000Y-9332000D01*
X9808000Y-9287000D02*
X9898000Y-9287000D01*
X9853000Y-10258000D02*
X9853000Y-10348000D01*
X9808000Y-10303000D02*
X9898000Y-10303000D01*
X10107000Y-10258000D02*
X10107000Y-10348000D01*
X10062000Y-10303000D02*
X10152000Y-10303000D01*
X10361000Y-10258000D02*
X10361000Y-10348000D01*
X10316000Y-10303000D02*
X10406000Y-10303000D01*
X10615000Y-10258000D02*
X10615000Y-10348000D01*
X10570000Y-10303000D02*
X10660000Y-10303000D01*
X11123000Y-10258000D02*
X11123000Y-10348000D01*
X11078000Y-10303000D02*
X11168000Y-10303000D01*
X11377000Y-9242000D02*
X11377000Y-9332000D01*
X11332000Y-9287000D02*
X11422000Y-9287000D01*
X11377000Y-10258000D02*
X11377000Y-10348000D01*
X11332000Y-10303000D02*
X11422000Y-10303000D01*
X13205045Y-9735356D02*
X13205045Y-9664644D01*
X13134334Y-9664644D01*
X13134334Y-9735356D01*
X13205045Y-9735356D01*
X13219690Y-9800000D02*
X13219690Y-9600000D01*
X13119690Y-9600000D02*
G75*
G02*
X13219690Y-9600000I50000J0D01*
G01*
X13119690Y-9600000D02*
X13119690Y-9800000D01*
X13119690Y-9800000D02*
G75*
G03*
X13219690Y-9800000I50000J0D01*
G01*
X13505045Y-9265356D02*
X13505045Y-9194644D01*
X13434334Y-9194644D01*
X13434334Y-9265356D01*
X13505045Y-9265356D01*
X13569690Y-9180000D02*
X13369690Y-9180000D01*
X13369690Y-9280000D02*
G75*
G02*
X13369690Y-9180000I0J50000D01*
G01*
X13369690Y-9280000D02*
X13569690Y-9280000D01*
X13569690Y-9280000D02*
G75*
G03*
X13569690Y-9180000I0J50000D01*
G01*
X13805045Y-9735356D02*
X13805045Y-9664644D01*
X13734334Y-9664644D01*
X13734334Y-9735356D01*
X13805045Y-9735356D01*
X13819690Y-9800000D02*
X13819690Y-9600000D01*
X13719690Y-9600000D02*
G75*
G02*
X13819690Y-9600000I50000J0D01*
G01*
X13719690Y-9600000D02*
X13719690Y-9800000D01*
X13719690Y-9800000D02*
G75*
G03*
X13819690Y-9800000I50000J0D01*
G01*
D13*
X13120335Y-6461852D02*
X13185335Y-6396852D01*
X13120335Y-6331852D01*
X13055335Y-6396852D01*
X13120335Y-6461852D01*
X13120335Y-6811852D02*
X13185335Y-6746852D01*
X13120335Y-6681852D01*
X13055335Y-6746852D01*
X13120335Y-6811852D01*
X13120335Y-7161852D02*
X13185335Y-7096852D01*
X13120335Y-7031852D01*
X13055335Y-7096852D01*
X13120335Y-7161852D01*
X13120335Y-7511852D02*
X13185335Y-7446852D01*
X13120335Y-7381852D01*
X13055335Y-7446852D01*
X13120335Y-7511852D01*
X13120335Y-7861852D02*
X13185335Y-7796852D01*
X13120335Y-7731852D01*
X13055335Y-7796852D01*
X13120335Y-7861852D01*
X13120335Y-8211852D02*
X13185335Y-8146852D01*
X13120335Y-8081852D01*
X13055335Y-8146852D01*
X13120335Y-8211852D01*
X13120335Y-8561852D02*
X13185335Y-8496852D01*
X13120335Y-8431852D01*
X13055335Y-8496852D01*
X13120335Y-8561852D01*
X13120335Y-8911852D02*
X13185335Y-8846852D01*
X13120335Y-8781852D01*
X13055335Y-8846852D01*
X13120335Y-8911852D01*
X13940335Y-6461852D02*
X14005335Y-6396852D01*
X13940335Y-6331852D01*
X13875335Y-6396852D01*
X13940335Y-6461852D01*
X13940335Y-6811852D02*
X14005335Y-6746852D01*
X13940335Y-6681852D01*
X13875335Y-6746852D01*
X13940335Y-6811852D01*
X13940335Y-7161852D02*
X14005335Y-7096852D01*
X13940335Y-7031852D01*
X13875335Y-7096852D01*
X13940335Y-7161852D01*
X13940335Y-7511852D02*
X14005335Y-7446852D01*
X13940335Y-7381852D01*
X13875335Y-7446852D01*
X13940335Y-7511852D01*
X13940335Y-7861852D02*
X14005335Y-7796852D01*
X13940335Y-7731852D01*
X13875335Y-7796852D01*
X13940335Y-7861852D01*
X13940335Y-8211852D02*
X14005335Y-8146852D01*
X13940335Y-8081852D01*
X13875335Y-8146852D01*
X13940335Y-8211852D01*
X13940335Y-8561852D02*
X14005335Y-8496852D01*
X13940335Y-8431852D01*
X13875335Y-8496852D01*
X13940335Y-8561852D01*
X13940335Y-8911852D02*
X14005335Y-8846852D01*
X13940335Y-8781852D01*
X13875335Y-8846852D01*
X13940335Y-8911852D01*
D12*
X8295889Y-9152993D02*
X8365889Y-9222993D01*
X8365889Y-9152993D02*
X8295889Y-9222993D01*
X8365889Y-9187993D02*
G75*
G02*
X8295889Y-9187993I-35000J0D01*
G01*
X8295889Y-9187993D02*
G75*
G02*
X8365889Y-9187993I35000J0D01*
G01*
X8295889Y-9730993D02*
X8365889Y-9800993D01*
X8365889Y-9730993D02*
X8295889Y-9800993D01*
X8365889Y-9765993D02*
G75*
G02*
X8295889Y-9765993I-35000J0D01*
G01*
X8295889Y-9765993D02*
G75*
G02*
X8365889Y-9765993I35000J0D01*
G01*
D14*
X7898554Y-5099695D02*
X8218554Y-5419695D01*
X8218554Y-5099695D02*
X7898554Y-5419695D01*
X8058554Y-5099695D02*
X8058554Y-5419695D01*
X7898554Y-5259695D02*
X8218554Y-5259695D01*
X7898554Y-10383347D02*
X8218554Y-10703347D01*
X8218554Y-10383347D02*
X7898554Y-10703347D01*
X8058554Y-10383347D02*
X8058554Y-10703347D01*
X7898554Y-10543347D02*
X8218554Y-10543347D01*
X13693233Y-5099695D02*
X14013233Y-5419695D01*
X14013233Y-5099695D02*
X13693233Y-5419695D01*
X13853233Y-5099695D02*
X13853233Y-5419695D01*
X13693233Y-5259695D02*
X14013233Y-5259695D01*
X13693233Y-10383347D02*
X14013233Y-10703347D01*
X14013233Y-10383347D02*
X13693233Y-10703347D01*
X13853233Y-10383347D02*
X13853233Y-10703347D01*
X13693233Y-10543347D02*
X14013233Y-10543347D01*
D11*
X7958277Y-11213984D02*
X7958277Y-11013984D01*
X7958277Y-11013984D02*
X8005896Y-11013984D01*
X8005896Y-11013984D02*
X8034467Y-11023508D01*
X8034467Y-11023508D02*
X8053515Y-11042555D01*
X8053515Y-11042555D02*
X8063039Y-11061603D01*
X8063039Y-11061603D02*
X8072562Y-11099698D01*
X8072562Y-11099698D02*
X8072562Y-11128270D01*
X8072562Y-11128270D02*
X8063039Y-11166365D01*
X8063039Y-11166365D02*
X8053515Y-11185412D01*
X8053515Y-11185412D02*
X8034467Y-11204460D01*
X8034467Y-11204460D02*
X8005896Y-11213984D01*
X8005896Y-11213984D02*
X7958277Y-11213984D01*
X8158277Y-11213984D02*
X8158277Y-11080650D01*
X8158277Y-11118746D02*
X8167801Y-11099698D01*
X8167801Y-11099698D02*
X8177324Y-11090174D01*
X8177324Y-11090174D02*
X8196372Y-11080650D01*
X8196372Y-11080650D02*
X8215420Y-11080650D01*
X8282086Y-11213984D02*
X8282086Y-11080650D01*
X8282086Y-11013984D02*
X8272562Y-11023508D01*
X8272562Y-11023508D02*
X8282086Y-11033031D01*
X8282086Y-11033031D02*
X8291610Y-11023508D01*
X8291610Y-11023508D02*
X8282086Y-11013984D01*
X8282086Y-11013984D02*
X8282086Y-11033031D01*
X8405896Y-11213984D02*
X8386848Y-11204460D01*
X8386848Y-11204460D02*
X8377324Y-11185412D01*
X8377324Y-11185412D02*
X8377324Y-11013984D01*
X8510658Y-11213984D02*
X8491610Y-11204460D01*
X8491610Y-11204460D02*
X8482086Y-11185412D01*
X8482086Y-11185412D02*
X8482086Y-11013984D01*
X8739229Y-11213984D02*
X8739229Y-11013984D01*
X8739229Y-11013984D02*
X8805896Y-11156841D01*
X8805896Y-11156841D02*
X8872563Y-11013984D01*
X8872563Y-11013984D02*
X8872563Y-11213984D01*
X9053515Y-11213984D02*
X9053515Y-11109222D01*
X9053515Y-11109222D02*
X9043991Y-11090174D01*
X9043991Y-11090174D02*
X9024944Y-11080650D01*
X9024944Y-11080650D02*
X8986848Y-11080650D01*
X8986848Y-11080650D02*
X8967801Y-11090174D01*
X9053515Y-11204460D02*
X9034467Y-11213984D01*
X9034467Y-11213984D02*
X8986848Y-11213984D01*
X8986848Y-11213984D02*
X8967801Y-11204460D01*
X8967801Y-11204460D02*
X8958277Y-11185412D01*
X8958277Y-11185412D02*
X8958277Y-11166365D01*
X8958277Y-11166365D02*
X8967801Y-11147317D01*
X8967801Y-11147317D02*
X8986848Y-11137793D01*
X8986848Y-11137793D02*
X9034467Y-11137793D01*
X9034467Y-11137793D02*
X9053515Y-11128270D01*
X9148753Y-11080650D02*
X9148753Y-11280650D01*
X9148753Y-11090174D02*
X9167801Y-11080650D01*
X9167801Y-11080650D02*
X9205896Y-11080650D01*
X9205896Y-11080650D02*
X9224944Y-11090174D01*
X9224944Y-11090174D02*
X9234467Y-11099698D01*
X9234467Y-11099698D02*
X9243991Y-11118746D01*
X9243991Y-11118746D02*
X9243991Y-11175889D01*
X9243991Y-11175889D02*
X9234467Y-11194936D01*
X9234467Y-11194936D02*
X9224944Y-11204460D01*
X9224944Y-11204460D02*
X9205896Y-11213984D01*
X9205896Y-11213984D02*
X9167801Y-11213984D01*
X9167801Y-11213984D02*
X9148753Y-11204460D01*
X9329705Y-11194936D02*
X9339229Y-11204460D01*
X9339229Y-11204460D02*
X9329705Y-11213984D01*
X9329705Y-11213984D02*
X9320182Y-11204460D01*
X9320182Y-11204460D02*
X9329705Y-11194936D01*
X9329705Y-11194936D02*
X9329705Y-11213984D01*
X9329705Y-11090174D02*
X9339229Y-11099698D01*
X9339229Y-11099698D02*
X9329705Y-11109222D01*
X9329705Y-11109222D02*
X9320182Y-11099698D01*
X9320182Y-11099698D02*
X9329705Y-11090174D01*
X9329705Y-11090174D02*
X9329705Y-11109222D01*
D12*
X7667500Y-11527500D02*
X7697500Y-11557500D01*
X7697500Y-11527500D02*
X7667500Y-11557500D01*
D11*
X7996372Y-11433984D02*
X8015420Y-11433984D01*
X8015420Y-11433984D02*
X8034467Y-11443508D01*
X8034467Y-11443508D02*
X8043991Y-11453031D01*
X8043991Y-11453031D02*
X8053515Y-11472079D01*
X8053515Y-11472079D02*
X8063039Y-11510174D01*
X8063039Y-11510174D02*
X8063039Y-11557793D01*
X8063039Y-11557793D02*
X8053515Y-11595888D01*
X8053515Y-11595888D02*
X8043991Y-11614936D01*
X8043991Y-11614936D02*
X8034467Y-11624460D01*
X8034467Y-11624460D02*
X8015420Y-11633984D01*
X8015420Y-11633984D02*
X7996372Y-11633984D01*
X7996372Y-11633984D02*
X7977324Y-11624460D01*
X7977324Y-11624460D02*
X7967801Y-11614936D01*
X7967801Y-11614936D02*
X7958277Y-11595888D01*
X7958277Y-11595888D02*
X7948753Y-11557793D01*
X7948753Y-11557793D02*
X7948753Y-11510174D01*
X7948753Y-11510174D02*
X7958277Y-11472079D01*
X7958277Y-11472079D02*
X7967801Y-11453031D01*
X7967801Y-11453031D02*
X7977324Y-11443508D01*
X7977324Y-11443508D02*
X7996372Y-11433984D01*
X8148753Y-11614936D02*
X8158277Y-11624460D01*
X8158277Y-11624460D02*
X8148753Y-11633984D01*
X8148753Y-11633984D02*
X8139229Y-11624460D01*
X8139229Y-11624460D02*
X8148753Y-11614936D01*
X8148753Y-11614936D02*
X8148753Y-11633984D01*
X8224943Y-11433984D02*
X8348753Y-11433984D01*
X8348753Y-11433984D02*
X8282086Y-11510174D01*
X8282086Y-11510174D02*
X8310658Y-11510174D01*
X8310658Y-11510174D02*
X8329705Y-11519698D01*
X8329705Y-11519698D02*
X8339229Y-11529222D01*
X8339229Y-11529222D02*
X8348753Y-11548269D01*
X8348753Y-11548269D02*
X8348753Y-11595888D01*
X8348753Y-11595888D02*
X8339229Y-11614936D01*
X8339229Y-11614936D02*
X8329705Y-11624460D01*
X8329705Y-11624460D02*
X8310658Y-11633984D01*
X8310658Y-11633984D02*
X8253515Y-11633984D01*
X8253515Y-11633984D02*
X8234467Y-11624460D01*
X8234467Y-11624460D02*
X8224943Y-11614936D01*
X8472563Y-11433984D02*
X8491610Y-11433984D01*
X8491610Y-11433984D02*
X8510658Y-11443508D01*
X8510658Y-11443508D02*
X8520182Y-11453031D01*
X8520182Y-11453031D02*
X8529705Y-11472079D01*
X8529705Y-11472079D02*
X8539229Y-11510174D01*
X8539229Y-11510174D02*
X8539229Y-11557793D01*
X8539229Y-11557793D02*
X8529705Y-11595888D01*
X8529705Y-11595888D02*
X8520182Y-11614936D01*
X8520182Y-11614936D02*
X8510658Y-11624460D01*
X8510658Y-11624460D02*
X8491610Y-11633984D01*
X8491610Y-11633984D02*
X8472563Y-11633984D01*
X8472563Y-11633984D02*
X8453515Y-11624460D01*
X8453515Y-11624460D02*
X8443991Y-11614936D01*
X8443991Y-11614936D02*
X8434467Y-11595888D01*
X8434467Y-11595888D02*
X8424944Y-11557793D01*
X8424944Y-11557793D02*
X8424944Y-11510174D01*
X8424944Y-11510174D02*
X8434467Y-11472079D01*
X8434467Y-11472079D02*
X8443991Y-11453031D01*
X8443991Y-11453031D02*
X8453515Y-11443508D01*
X8453515Y-11443508D02*
X8472563Y-11433984D01*
X8663039Y-11433984D02*
X8682086Y-11433984D01*
X8682086Y-11433984D02*
X8701134Y-11443508D01*
X8701134Y-11443508D02*
X8710658Y-11453031D01*
X8710658Y-11453031D02*
X8720182Y-11472079D01*
X8720182Y-11472079D02*
X8729705Y-11510174D01*
X8729705Y-11510174D02*
X8729705Y-11557793D01*
X8729705Y-11557793D02*
X8720182Y-11595888D01*
X8720182Y-11595888D02*
X8710658Y-11614936D01*
X8710658Y-11614936D02*
X8701134Y-11624460D01*
X8701134Y-11624460D02*
X8682086Y-11633984D01*
X8682086Y-11633984D02*
X8663039Y-11633984D01*
X8663039Y-11633984D02*
X8643991Y-11624460D01*
X8643991Y-11624460D02*
X8634467Y-11614936D01*
X8634467Y-11614936D02*
X8624944Y-11595888D01*
X8624944Y-11595888D02*
X8615420Y-11557793D01*
X8615420Y-11557793D02*
X8615420Y-11510174D01*
X8615420Y-11510174D02*
X8624944Y-11472079D01*
X8624944Y-11472079D02*
X8634467Y-11453031D01*
X8634467Y-11453031D02*
X8643991Y-11443508D01*
X8643991Y-11443508D02*
X8663039Y-11433984D01*
X8815420Y-11633984D02*
X8815420Y-11500650D01*
X8815420Y-11519698D02*
X8824944Y-11510174D01*
X8824944Y-11510174D02*
X8843991Y-11500650D01*
X8843991Y-11500650D02*
X8872563Y-11500650D01*
X8872563Y-11500650D02*
X8891610Y-11510174D01*
X8891610Y-11510174D02*
X8901134Y-11529222D01*
X8901134Y-11529222D02*
X8901134Y-11633984D01*
X8901134Y-11529222D02*
X8910658Y-11510174D01*
X8910658Y-11510174D02*
X8929705Y-11500650D01*
X8929705Y-11500650D02*
X8958277Y-11500650D01*
X8958277Y-11500650D02*
X8977325Y-11510174D01*
X8977325Y-11510174D02*
X8986848Y-11529222D01*
X8986848Y-11529222D02*
X8986848Y-11633984D01*
X9082086Y-11633984D02*
X9082086Y-11500650D01*
X9082086Y-11519698D02*
X9091610Y-11510174D01*
X9091610Y-11510174D02*
X9110658Y-11500650D01*
X9110658Y-11500650D02*
X9139229Y-11500650D01*
X9139229Y-11500650D02*
X9158277Y-11510174D01*
X9158277Y-11510174D02*
X9167801Y-11529222D01*
X9167801Y-11529222D02*
X9167801Y-11633984D01*
X9167801Y-11529222D02*
X9177325Y-11510174D01*
X9177325Y-11510174D02*
X9196372Y-11500650D01*
X9196372Y-11500650D02*
X9224944Y-11500650D01*
X9224944Y-11500650D02*
X9243991Y-11510174D01*
X9243991Y-11510174D02*
X9253515Y-11529222D01*
X9253515Y-11529222D02*
X9253515Y-11633984D01*
X9643991Y-11424460D02*
X9472563Y-11681603D01*
X9901134Y-11433984D02*
X9920182Y-11433984D01*
X9920182Y-11433984D02*
X9939229Y-11443508D01*
X9939229Y-11443508D02*
X9948753Y-11453031D01*
X9948753Y-11453031D02*
X9958277Y-11472079D01*
X9958277Y-11472079D02*
X9967801Y-11510174D01*
X9967801Y-11510174D02*
X9967801Y-11557793D01*
X9967801Y-11557793D02*
X9958277Y-11595888D01*
X9958277Y-11595888D02*
X9948753Y-11614936D01*
X9948753Y-11614936D02*
X9939229Y-11624460D01*
X9939229Y-11624460D02*
X9920182Y-11633984D01*
X9920182Y-11633984D02*
X9901134Y-11633984D01*
X9901134Y-11633984D02*
X9882087Y-11624460D01*
X9882087Y-11624460D02*
X9872563Y-11614936D01*
X9872563Y-11614936D02*
X9863039Y-11595888D01*
X9863039Y-11595888D02*
X9853515Y-11557793D01*
X9853515Y-11557793D02*
X9853515Y-11510174D01*
X9853515Y-11510174D02*
X9863039Y-11472079D01*
X9863039Y-11472079D02*
X9872563Y-11453031D01*
X9872563Y-11453031D02*
X9882087Y-11443508D01*
X9882087Y-11443508D02*
X9901134Y-11433984D01*
X10053515Y-11614936D02*
X10063039Y-11624460D01*
X10063039Y-11624460D02*
X10053515Y-11633984D01*
X10053515Y-11633984D02*
X10043991Y-11624460D01*
X10043991Y-11624460D02*
X10053515Y-11614936D01*
X10053515Y-11614936D02*
X10053515Y-11633984D01*
X10186848Y-11433984D02*
X10205896Y-11433984D01*
X10205896Y-11433984D02*
X10224944Y-11443508D01*
X10224944Y-11443508D02*
X10234468Y-11453031D01*
X10234468Y-11453031D02*
X10243991Y-11472079D01*
X10243991Y-11472079D02*
X10253515Y-11510174D01*
X10253515Y-11510174D02*
X10253515Y-11557793D01*
X10253515Y-11557793D02*
X10243991Y-11595888D01*
X10243991Y-11595888D02*
X10234468Y-11614936D01*
X10234468Y-11614936D02*
X10224944Y-11624460D01*
X10224944Y-11624460D02*
X10205896Y-11633984D01*
X10205896Y-11633984D02*
X10186848Y-11633984D01*
X10186848Y-11633984D02*
X10167801Y-11624460D01*
X10167801Y-11624460D02*
X10158277Y-11614936D01*
X10158277Y-11614936D02*
X10148753Y-11595888D01*
X10148753Y-11595888D02*
X10139229Y-11557793D01*
X10139229Y-11557793D02*
X10139229Y-11510174D01*
X10139229Y-11510174D02*
X10148753Y-11472079D01*
X10148753Y-11472079D02*
X10158277Y-11453031D01*
X10158277Y-11453031D02*
X10167801Y-11443508D01*
X10167801Y-11443508D02*
X10186848Y-11433984D01*
X10443991Y-11633984D02*
X10329706Y-11633984D01*
X10386848Y-11633984D02*
X10386848Y-11433984D01*
X10386848Y-11433984D02*
X10367801Y-11462555D01*
X10367801Y-11462555D02*
X10348753Y-11481603D01*
X10348753Y-11481603D02*
X10329706Y-11491127D01*
X10634468Y-11633984D02*
X10520182Y-11633984D01*
X10577325Y-11633984D02*
X10577325Y-11433984D01*
X10577325Y-11433984D02*
X10558277Y-11462555D01*
X10558277Y-11462555D02*
X10539229Y-11481603D01*
X10539229Y-11481603D02*
X10520182Y-11491127D01*
X10748753Y-11519698D02*
X10729706Y-11510174D01*
X10729706Y-11510174D02*
X10720182Y-11500650D01*
X10720182Y-11500650D02*
X10710658Y-11481603D01*
X10710658Y-11481603D02*
X10710658Y-11472079D01*
X10710658Y-11472079D02*
X10720182Y-11453031D01*
X10720182Y-11453031D02*
X10729706Y-11443508D01*
X10729706Y-11443508D02*
X10748753Y-11433984D01*
X10748753Y-11433984D02*
X10786849Y-11433984D01*
X10786849Y-11433984D02*
X10805896Y-11443508D01*
X10805896Y-11443508D02*
X10815420Y-11453031D01*
X10815420Y-11453031D02*
X10824944Y-11472079D01*
X10824944Y-11472079D02*
X10824944Y-11481603D01*
X10824944Y-11481603D02*
X10815420Y-11500650D01*
X10815420Y-11500650D02*
X10805896Y-11510174D01*
X10805896Y-11510174D02*
X10786849Y-11519698D01*
X10786849Y-11519698D02*
X10748753Y-11519698D01*
X10748753Y-11519698D02*
X10729706Y-11529222D01*
X10729706Y-11529222D02*
X10720182Y-11538746D01*
X10720182Y-11538746D02*
X10710658Y-11557793D01*
X10710658Y-11557793D02*
X10710658Y-11595888D01*
X10710658Y-11595888D02*
X10720182Y-11614936D01*
X10720182Y-11614936D02*
X10729706Y-11624460D01*
X10729706Y-11624460D02*
X10748753Y-11633984D01*
X10748753Y-11633984D02*
X10786849Y-11633984D01*
X10786849Y-11633984D02*
X10805896Y-11624460D01*
X10805896Y-11624460D02*
X10815420Y-11614936D01*
X10815420Y-11614936D02*
X10824944Y-11595888D01*
X10824944Y-11595888D02*
X10824944Y-11557793D01*
X10824944Y-11557793D02*
X10815420Y-11538746D01*
X10815420Y-11538746D02*
X10805896Y-11529222D01*
X10805896Y-11529222D02*
X10786849Y-11519698D01*
X10901134Y-11433984D02*
X10901134Y-11472079D01*
X10977325Y-11433984D02*
X10977325Y-11472079D01*
X11272563Y-11710174D02*
X11263039Y-11700650D01*
X11263039Y-11700650D02*
X11243991Y-11672079D01*
X11243991Y-11672079D02*
X11234468Y-11653031D01*
X11234468Y-11653031D02*
X11224944Y-11624460D01*
X11224944Y-11624460D02*
X11215420Y-11576841D01*
X11215420Y-11576841D02*
X11215420Y-11538746D01*
X11215420Y-11538746D02*
X11224944Y-11491127D01*
X11224944Y-11491127D02*
X11234468Y-11462555D01*
X11234468Y-11462555D02*
X11243991Y-11443508D01*
X11243991Y-11443508D02*
X11263039Y-11414936D01*
X11263039Y-11414936D02*
X11272563Y-11405412D01*
X11453515Y-11633984D02*
X11339229Y-11633984D01*
X11396372Y-11633984D02*
X11396372Y-11433984D01*
X11396372Y-11433984D02*
X11377325Y-11462555D01*
X11377325Y-11462555D02*
X11358277Y-11481603D01*
X11358277Y-11481603D02*
X11339229Y-11491127D01*
X11529706Y-11453031D02*
X11539229Y-11443508D01*
X11539229Y-11443508D02*
X11558277Y-11433984D01*
X11558277Y-11433984D02*
X11605896Y-11433984D01*
X11605896Y-11433984D02*
X11624944Y-11443508D01*
X11624944Y-11443508D02*
X11634468Y-11453031D01*
X11634468Y-11453031D02*
X11643991Y-11472079D01*
X11643991Y-11472079D02*
X11643991Y-11491127D01*
X11643991Y-11491127D02*
X11634468Y-11519698D01*
X11634468Y-11519698D02*
X11520182Y-11633984D01*
X11520182Y-11633984D02*
X11643991Y-11633984D01*
X11710658Y-11433984D02*
X11843991Y-11433984D01*
X11843991Y-11433984D02*
X11758277Y-11633984D01*
X12072563Y-11633984D02*
X12072563Y-11433984D01*
X12158277Y-11633984D02*
X12158277Y-11529222D01*
X12158277Y-11529222D02*
X12148753Y-11510174D01*
X12148753Y-11510174D02*
X12129706Y-11500650D01*
X12129706Y-11500650D02*
X12101134Y-11500650D01*
X12101134Y-11500650D02*
X12082087Y-11510174D01*
X12082087Y-11510174D02*
X12072563Y-11519698D01*
X12282087Y-11633984D02*
X12263039Y-11624460D01*
X12263039Y-11624460D02*
X12253515Y-11614936D01*
X12253515Y-11614936D02*
X12243991Y-11595888D01*
X12243991Y-11595888D02*
X12243991Y-11538746D01*
X12243991Y-11538746D02*
X12253515Y-11519698D01*
X12253515Y-11519698D02*
X12263039Y-11510174D01*
X12263039Y-11510174D02*
X12282087Y-11500650D01*
X12282087Y-11500650D02*
X12310658Y-11500650D01*
X12310658Y-11500650D02*
X12329706Y-11510174D01*
X12329706Y-11510174D02*
X12339230Y-11519698D01*
X12339230Y-11519698D02*
X12348753Y-11538746D01*
X12348753Y-11538746D02*
X12348753Y-11595888D01*
X12348753Y-11595888D02*
X12339230Y-11614936D01*
X12339230Y-11614936D02*
X12329706Y-11624460D01*
X12329706Y-11624460D02*
X12310658Y-11633984D01*
X12310658Y-11633984D02*
X12282087Y-11633984D01*
X12463039Y-11633984D02*
X12443991Y-11624460D01*
X12443991Y-11624460D02*
X12434468Y-11605412D01*
X12434468Y-11605412D02*
X12434468Y-11433984D01*
X12615420Y-11624460D02*
X12596372Y-11633984D01*
X12596372Y-11633984D02*
X12558277Y-11633984D01*
X12558277Y-11633984D02*
X12539230Y-11624460D01*
X12539230Y-11624460D02*
X12529706Y-11605412D01*
X12529706Y-11605412D02*
X12529706Y-11529222D01*
X12529706Y-11529222D02*
X12539230Y-11510174D01*
X12539230Y-11510174D02*
X12558277Y-11500650D01*
X12558277Y-11500650D02*
X12596372Y-11500650D01*
X12596372Y-11500650D02*
X12615420Y-11510174D01*
X12615420Y-11510174D02*
X12624944Y-11529222D01*
X12624944Y-11529222D02*
X12624944Y-11548269D01*
X12624944Y-11548269D02*
X12529706Y-11567317D01*
X12701134Y-11624460D02*
X12720182Y-11633984D01*
X12720182Y-11633984D02*
X12758277Y-11633984D01*
X12758277Y-11633984D02*
X12777325Y-11624460D01*
X12777325Y-11624460D02*
X12786849Y-11605412D01*
X12786849Y-11605412D02*
X12786849Y-11595888D01*
X12786849Y-11595888D02*
X12777325Y-11576841D01*
X12777325Y-11576841D02*
X12758277Y-11567317D01*
X12758277Y-11567317D02*
X12729706Y-11567317D01*
X12729706Y-11567317D02*
X12710658Y-11557793D01*
X12710658Y-11557793D02*
X12701134Y-11538746D01*
X12701134Y-11538746D02*
X12701134Y-11529222D01*
X12701134Y-11529222D02*
X12710658Y-11510174D01*
X12710658Y-11510174D02*
X12729706Y-11500650D01*
X12729706Y-11500650D02*
X12758277Y-11500650D01*
X12758277Y-11500650D02*
X12777325Y-11510174D01*
X12853515Y-11710174D02*
X12863039Y-11700650D01*
X12863039Y-11700650D02*
X12882087Y-11672079D01*
X12882087Y-11672079D02*
X12891611Y-11653031D01*
X12891611Y-11653031D02*
X12901134Y-11624460D01*
X12901134Y-11624460D02*
X12910658Y-11576841D01*
X12910658Y-11576841D02*
X12910658Y-11538746D01*
X12910658Y-11538746D02*
X12901134Y-11491127D01*
X12901134Y-11491127D02*
X12891611Y-11462555D01*
X12891611Y-11462555D02*
X12882087Y-11443508D01*
X12882087Y-11443508D02*
X12863039Y-11414936D01*
X12863039Y-11414936D02*
X12853515Y-11405412D01*
D12*
X7697500Y-11806500D02*
G75*
G02*
X7632500Y-11806500I-32500J0D01*
G01*
X7632500Y-11806500D02*
G75*
G02*
X7697500Y-11806500I32500J0D01*
G01*
D11*
X7996372Y-11697984D02*
X8015420Y-11697984D01*
X8015420Y-11697984D02*
X8034467Y-11707508D01*
X8034467Y-11707508D02*
X8043991Y-11717031D01*
X8043991Y-11717031D02*
X8053515Y-11736079D01*
X8053515Y-11736079D02*
X8063039Y-11774174D01*
X8063039Y-11774174D02*
X8063039Y-11821793D01*
X8063039Y-11821793D02*
X8053515Y-11859888D01*
X8053515Y-11859888D02*
X8043991Y-11878936D01*
X8043991Y-11878936D02*
X8034467Y-11888460D01*
X8034467Y-11888460D02*
X8015420Y-11897984D01*
X8015420Y-11897984D02*
X7996372Y-11897984D01*
X7996372Y-11897984D02*
X7977324Y-11888460D01*
X7977324Y-11888460D02*
X7967801Y-11878936D01*
X7967801Y-11878936D02*
X7958277Y-11859888D01*
X7958277Y-11859888D02*
X7948753Y-11821793D01*
X7948753Y-11821793D02*
X7948753Y-11774174D01*
X7948753Y-11774174D02*
X7958277Y-11736079D01*
X7958277Y-11736079D02*
X7967801Y-11717031D01*
X7967801Y-11717031D02*
X7977324Y-11707508D01*
X7977324Y-11707508D02*
X7996372Y-11697984D01*
X8148753Y-11878936D02*
X8158277Y-11888460D01*
X8158277Y-11888460D02*
X8148753Y-11897984D01*
X8148753Y-11897984D02*
X8139229Y-11888460D01*
X8139229Y-11888460D02*
X8148753Y-11878936D01*
X8148753Y-11878936D02*
X8148753Y-11897984D01*
X8329705Y-11697984D02*
X8291610Y-11697984D01*
X8291610Y-11697984D02*
X8272562Y-11707508D01*
X8272562Y-11707508D02*
X8263039Y-11717031D01*
X8263039Y-11717031D02*
X8243991Y-11745603D01*
X8243991Y-11745603D02*
X8234467Y-11783698D01*
X8234467Y-11783698D02*
X8234467Y-11859888D01*
X8234467Y-11859888D02*
X8243991Y-11878936D01*
X8243991Y-11878936D02*
X8253515Y-11888460D01*
X8253515Y-11888460D02*
X8272562Y-11897984D01*
X8272562Y-11897984D02*
X8310658Y-11897984D01*
X8310658Y-11897984D02*
X8329705Y-11888460D01*
X8329705Y-11888460D02*
X8339229Y-11878936D01*
X8339229Y-11878936D02*
X8348753Y-11859888D01*
X8348753Y-11859888D02*
X8348753Y-11812269D01*
X8348753Y-11812269D02*
X8339229Y-11793222D01*
X8339229Y-11793222D02*
X8329705Y-11783698D01*
X8329705Y-11783698D02*
X8310658Y-11774174D01*
X8310658Y-11774174D02*
X8272562Y-11774174D01*
X8272562Y-11774174D02*
X8253515Y-11783698D01*
X8253515Y-11783698D02*
X8243991Y-11793222D01*
X8243991Y-11793222D02*
X8234467Y-11812269D01*
X8529705Y-11697984D02*
X8434467Y-11697984D01*
X8434467Y-11697984D02*
X8424944Y-11793222D01*
X8424944Y-11793222D02*
X8434467Y-11783698D01*
X8434467Y-11783698D02*
X8453515Y-11774174D01*
X8453515Y-11774174D02*
X8501134Y-11774174D01*
X8501134Y-11774174D02*
X8520182Y-11783698D01*
X8520182Y-11783698D02*
X8529705Y-11793222D01*
X8529705Y-11793222D02*
X8539229Y-11812269D01*
X8539229Y-11812269D02*
X8539229Y-11859888D01*
X8539229Y-11859888D02*
X8529705Y-11878936D01*
X8529705Y-11878936D02*
X8520182Y-11888460D01*
X8520182Y-11888460D02*
X8501134Y-11897984D01*
X8501134Y-11897984D02*
X8453515Y-11897984D01*
X8453515Y-11897984D02*
X8434467Y-11888460D01*
X8434467Y-11888460D02*
X8424944Y-11878936D01*
X8663039Y-11697984D02*
X8682086Y-11697984D01*
X8682086Y-11697984D02*
X8701134Y-11707508D01*
X8701134Y-11707508D02*
X8710658Y-11717031D01*
X8710658Y-11717031D02*
X8720182Y-11736079D01*
X8720182Y-11736079D02*
X8729705Y-11774174D01*
X8729705Y-11774174D02*
X8729705Y-11821793D01*
X8729705Y-11821793D02*
X8720182Y-11859888D01*
X8720182Y-11859888D02*
X8710658Y-11878936D01*
X8710658Y-11878936D02*
X8701134Y-11888460D01*
X8701134Y-11888460D02*
X8682086Y-11897984D01*
X8682086Y-11897984D02*
X8663039Y-11897984D01*
X8663039Y-11897984D02*
X8643991Y-11888460D01*
X8643991Y-11888460D02*
X8634467Y-11878936D01*
X8634467Y-11878936D02*
X8624944Y-11859888D01*
X8624944Y-11859888D02*
X8615420Y-11821793D01*
X8615420Y-11821793D02*
X8615420Y-11774174D01*
X8615420Y-11774174D02*
X8624944Y-11736079D01*
X8624944Y-11736079D02*
X8634467Y-11717031D01*
X8634467Y-11717031D02*
X8643991Y-11707508D01*
X8643991Y-11707508D02*
X8663039Y-11697984D01*
X8815420Y-11897984D02*
X8815420Y-11764650D01*
X8815420Y-11783698D02*
X8824944Y-11774174D01*
X8824944Y-11774174D02*
X8843991Y-11764650D01*
X8843991Y-11764650D02*
X8872563Y-11764650D01*
X8872563Y-11764650D02*
X8891610Y-11774174D01*
X8891610Y-11774174D02*
X8901134Y-11793222D01*
X8901134Y-11793222D02*
X8901134Y-11897984D01*
X8901134Y-11793222D02*
X8910658Y-11774174D01*
X8910658Y-11774174D02*
X8929705Y-11764650D01*
X8929705Y-11764650D02*
X8958277Y-11764650D01*
X8958277Y-11764650D02*
X8977325Y-11774174D01*
X8977325Y-11774174D02*
X8986848Y-11793222D01*
X8986848Y-11793222D02*
X8986848Y-11897984D01*
X9082086Y-11897984D02*
X9082086Y-11764650D01*
X9082086Y-11783698D02*
X9091610Y-11774174D01*
X9091610Y-11774174D02*
X9110658Y-11764650D01*
X9110658Y-11764650D02*
X9139229Y-11764650D01*
X9139229Y-11764650D02*
X9158277Y-11774174D01*
X9158277Y-11774174D02*
X9167801Y-11793222D01*
X9167801Y-11793222D02*
X9167801Y-11897984D01*
X9167801Y-11793222D02*
X9177325Y-11774174D01*
X9177325Y-11774174D02*
X9196372Y-11764650D01*
X9196372Y-11764650D02*
X9224944Y-11764650D01*
X9224944Y-11764650D02*
X9243991Y-11774174D01*
X9243991Y-11774174D02*
X9253515Y-11793222D01*
X9253515Y-11793222D02*
X9253515Y-11897984D01*
X9643991Y-11688460D02*
X9472563Y-11945603D01*
X9901134Y-11697984D02*
X9920182Y-11697984D01*
X9920182Y-11697984D02*
X9939229Y-11707508D01*
X9939229Y-11707508D02*
X9948753Y-11717031D01*
X9948753Y-11717031D02*
X9958277Y-11736079D01*
X9958277Y-11736079D02*
X9967801Y-11774174D01*
X9967801Y-11774174D02*
X9967801Y-11821793D01*
X9967801Y-11821793D02*
X9958277Y-11859888D01*
X9958277Y-11859888D02*
X9948753Y-11878936D01*
X9948753Y-11878936D02*
X9939229Y-11888460D01*
X9939229Y-11888460D02*
X9920182Y-11897984D01*
X9920182Y-11897984D02*
X9901134Y-11897984D01*
X9901134Y-11897984D02*
X9882087Y-11888460D01*
X9882087Y-11888460D02*
X9872563Y-11878936D01*
X9872563Y-11878936D02*
X9863039Y-11859888D01*
X9863039Y-11859888D02*
X9853515Y-11821793D01*
X9853515Y-11821793D02*
X9853515Y-11774174D01*
X9853515Y-11774174D02*
X9863039Y-11736079D01*
X9863039Y-11736079D02*
X9872563Y-11717031D01*
X9872563Y-11717031D02*
X9882087Y-11707508D01*
X9882087Y-11707508D02*
X9901134Y-11697984D01*
X10053515Y-11878936D02*
X10063039Y-11888460D01*
X10063039Y-11888460D02*
X10053515Y-11897984D01*
X10053515Y-11897984D02*
X10043991Y-11888460D01*
X10043991Y-11888460D02*
X10053515Y-11878936D01*
X10053515Y-11878936D02*
X10053515Y-11897984D01*
X10186848Y-11697984D02*
X10205896Y-11697984D01*
X10205896Y-11697984D02*
X10224944Y-11707508D01*
X10224944Y-11707508D02*
X10234468Y-11717031D01*
X10234468Y-11717031D02*
X10243991Y-11736079D01*
X10243991Y-11736079D02*
X10253515Y-11774174D01*
X10253515Y-11774174D02*
X10253515Y-11821793D01*
X10253515Y-11821793D02*
X10243991Y-11859888D01*
X10243991Y-11859888D02*
X10234468Y-11878936D01*
X10234468Y-11878936D02*
X10224944Y-11888460D01*
X10224944Y-11888460D02*
X10205896Y-11897984D01*
X10205896Y-11897984D02*
X10186848Y-11897984D01*
X10186848Y-11897984D02*
X10167801Y-11888460D01*
X10167801Y-11888460D02*
X10158277Y-11878936D01*
X10158277Y-11878936D02*
X10148753Y-11859888D01*
X10148753Y-11859888D02*
X10139229Y-11821793D01*
X10139229Y-11821793D02*
X10139229Y-11774174D01*
X10139229Y-11774174D02*
X10148753Y-11736079D01*
X10148753Y-11736079D02*
X10158277Y-11717031D01*
X10158277Y-11717031D02*
X10167801Y-11707508D01*
X10167801Y-11707508D02*
X10186848Y-11697984D01*
X10329706Y-11717031D02*
X10339229Y-11707508D01*
X10339229Y-11707508D02*
X10358277Y-11697984D01*
X10358277Y-11697984D02*
X10405896Y-11697984D01*
X10405896Y-11697984D02*
X10424944Y-11707508D01*
X10424944Y-11707508D02*
X10434468Y-11717031D01*
X10434468Y-11717031D02*
X10443991Y-11736079D01*
X10443991Y-11736079D02*
X10443991Y-11755127D01*
X10443991Y-11755127D02*
X10434468Y-11783698D01*
X10434468Y-11783698D02*
X10320182Y-11897984D01*
X10320182Y-11897984D02*
X10443991Y-11897984D01*
X10624944Y-11697984D02*
X10529706Y-11697984D01*
X10529706Y-11697984D02*
X10520182Y-11793222D01*
X10520182Y-11793222D02*
X10529706Y-11783698D01*
X10529706Y-11783698D02*
X10548753Y-11774174D01*
X10548753Y-11774174D02*
X10596372Y-11774174D01*
X10596372Y-11774174D02*
X10615420Y-11783698D01*
X10615420Y-11783698D02*
X10624944Y-11793222D01*
X10624944Y-11793222D02*
X10634468Y-11812269D01*
X10634468Y-11812269D02*
X10634468Y-11859888D01*
X10634468Y-11859888D02*
X10624944Y-11878936D01*
X10624944Y-11878936D02*
X10615420Y-11888460D01*
X10615420Y-11888460D02*
X10596372Y-11897984D01*
X10596372Y-11897984D02*
X10548753Y-11897984D01*
X10548753Y-11897984D02*
X10529706Y-11888460D01*
X10529706Y-11888460D02*
X10520182Y-11878936D01*
X10805896Y-11697984D02*
X10767801Y-11697984D01*
X10767801Y-11697984D02*
X10748753Y-11707508D01*
X10748753Y-11707508D02*
X10739229Y-11717031D01*
X10739229Y-11717031D02*
X10720182Y-11745603D01*
X10720182Y-11745603D02*
X10710658Y-11783698D01*
X10710658Y-11783698D02*
X10710658Y-11859888D01*
X10710658Y-11859888D02*
X10720182Y-11878936D01*
X10720182Y-11878936D02*
X10729706Y-11888460D01*
X10729706Y-11888460D02*
X10748753Y-11897984D01*
X10748753Y-11897984D02*
X10786849Y-11897984D01*
X10786849Y-11897984D02*
X10805896Y-11888460D01*
X10805896Y-11888460D02*
X10815420Y-11878936D01*
X10815420Y-11878936D02*
X10824944Y-11859888D01*
X10824944Y-11859888D02*
X10824944Y-11812269D01*
X10824944Y-11812269D02*
X10815420Y-11793222D01*
X10815420Y-11793222D02*
X10805896Y-11783698D01*
X10805896Y-11783698D02*
X10786849Y-11774174D01*
X10786849Y-11774174D02*
X10748753Y-11774174D01*
X10748753Y-11774174D02*
X10729706Y-11783698D01*
X10729706Y-11783698D02*
X10720182Y-11793222D01*
X10720182Y-11793222D02*
X10710658Y-11812269D01*
X10901134Y-11697984D02*
X10901134Y-11736079D01*
X10977325Y-11697984D02*
X10977325Y-11736079D01*
X11272563Y-11974174D02*
X11263039Y-11964650D01*
X11263039Y-11964650D02*
X11243991Y-11936079D01*
X11243991Y-11936079D02*
X11234468Y-11917031D01*
X11234468Y-11917031D02*
X11224944Y-11888460D01*
X11224944Y-11888460D02*
X11215420Y-11840841D01*
X11215420Y-11840841D02*
X11215420Y-11802746D01*
X11215420Y-11802746D02*
X11224944Y-11755127D01*
X11224944Y-11755127D02*
X11234468Y-11726555D01*
X11234468Y-11726555D02*
X11243991Y-11707508D01*
X11243991Y-11707508D02*
X11263039Y-11678936D01*
X11263039Y-11678936D02*
X11272563Y-11669412D01*
X11386848Y-11697984D02*
X11405896Y-11697984D01*
X11405896Y-11697984D02*
X11424944Y-11707508D01*
X11424944Y-11707508D02*
X11434468Y-11717031D01*
X11434468Y-11717031D02*
X11443991Y-11736079D01*
X11443991Y-11736079D02*
X11453515Y-11774174D01*
X11453515Y-11774174D02*
X11453515Y-11821793D01*
X11453515Y-11821793D02*
X11443991Y-11859888D01*
X11443991Y-11859888D02*
X11434468Y-11878936D01*
X11434468Y-11878936D02*
X11424944Y-11888460D01*
X11424944Y-11888460D02*
X11405896Y-11897984D01*
X11405896Y-11897984D02*
X11386848Y-11897984D01*
X11386848Y-11897984D02*
X11367801Y-11888460D01*
X11367801Y-11888460D02*
X11358277Y-11878936D01*
X11358277Y-11878936D02*
X11348753Y-11859888D01*
X11348753Y-11859888D02*
X11339229Y-11821793D01*
X11339229Y-11821793D02*
X11339229Y-11774174D01*
X11339229Y-11774174D02*
X11348753Y-11736079D01*
X11348753Y-11736079D02*
X11358277Y-11717031D01*
X11358277Y-11717031D02*
X11367801Y-11707508D01*
X11367801Y-11707508D02*
X11386848Y-11697984D01*
X11691610Y-11897984D02*
X11691610Y-11697984D01*
X11777325Y-11897984D02*
X11777325Y-11793222D01*
X11777325Y-11793222D02*
X11767801Y-11774174D01*
X11767801Y-11774174D02*
X11748753Y-11764650D01*
X11748753Y-11764650D02*
X11720182Y-11764650D01*
X11720182Y-11764650D02*
X11701134Y-11774174D01*
X11701134Y-11774174D02*
X11691610Y-11783698D01*
X11901134Y-11897984D02*
X11882087Y-11888460D01*
X11882087Y-11888460D02*
X11872563Y-11878936D01*
X11872563Y-11878936D02*
X11863039Y-11859888D01*
X11863039Y-11859888D02*
X11863039Y-11802746D01*
X11863039Y-11802746D02*
X11872563Y-11783698D01*
X11872563Y-11783698D02*
X11882087Y-11774174D01*
X11882087Y-11774174D02*
X11901134Y-11764650D01*
X11901134Y-11764650D02*
X11929706Y-11764650D01*
X11929706Y-11764650D02*
X11948753Y-11774174D01*
X11948753Y-11774174D02*
X11958277Y-11783698D01*
X11958277Y-11783698D02*
X11967801Y-11802746D01*
X11967801Y-11802746D02*
X11967801Y-11859888D01*
X11967801Y-11859888D02*
X11958277Y-11878936D01*
X11958277Y-11878936D02*
X11948753Y-11888460D01*
X11948753Y-11888460D02*
X11929706Y-11897984D01*
X11929706Y-11897984D02*
X11901134Y-11897984D01*
X12082087Y-11897984D02*
X12063039Y-11888460D01*
X12063039Y-11888460D02*
X12053515Y-11869412D01*
X12053515Y-11869412D02*
X12053515Y-11697984D01*
X12234468Y-11888460D02*
X12215420Y-11897984D01*
X12215420Y-11897984D02*
X12177325Y-11897984D01*
X12177325Y-11897984D02*
X12158277Y-11888460D01*
X12158277Y-11888460D02*
X12148753Y-11869412D01*
X12148753Y-11869412D02*
X12148753Y-11793222D01*
X12148753Y-11793222D02*
X12158277Y-11774174D01*
X12158277Y-11774174D02*
X12177325Y-11764650D01*
X12177325Y-11764650D02*
X12215420Y-11764650D01*
X12215420Y-11764650D02*
X12234468Y-11774174D01*
X12234468Y-11774174D02*
X12243991Y-11793222D01*
X12243991Y-11793222D02*
X12243991Y-11812269D01*
X12243991Y-11812269D02*
X12148753Y-11831317D01*
X12320182Y-11888460D02*
X12339230Y-11897984D01*
X12339230Y-11897984D02*
X12377325Y-11897984D01*
X12377325Y-11897984D02*
X12396372Y-11888460D01*
X12396372Y-11888460D02*
X12405896Y-11869412D01*
X12405896Y-11869412D02*
X12405896Y-11859888D01*
X12405896Y-11859888D02*
X12396372Y-11840841D01*
X12396372Y-11840841D02*
X12377325Y-11831317D01*
X12377325Y-11831317D02*
X12348753Y-11831317D01*
X12348753Y-11831317D02*
X12329706Y-11821793D01*
X12329706Y-11821793D02*
X12320182Y-11802746D01*
X12320182Y-11802746D02*
X12320182Y-11793222D01*
X12320182Y-11793222D02*
X12329706Y-11774174D01*
X12329706Y-11774174D02*
X12348753Y-11764650D01*
X12348753Y-11764650D02*
X12377325Y-11764650D01*
X12377325Y-11764650D02*
X12396372Y-11774174D01*
X12643992Y-11821793D02*
X12796373Y-11821793D01*
X12720182Y-11897984D02*
X12720182Y-11745603D01*
X13129706Y-11764650D02*
X13129706Y-11897984D01*
X13082087Y-11688460D02*
X13034468Y-11831317D01*
X13034468Y-11831317D02*
X13158277Y-11831317D01*
X13377325Y-11888460D02*
X13396373Y-11897984D01*
X13396373Y-11897984D02*
X13434468Y-11897984D01*
X13434468Y-11897984D02*
X13453515Y-11888460D01*
X13453515Y-11888460D02*
X13463039Y-11869412D01*
X13463039Y-11869412D02*
X13463039Y-11859888D01*
X13463039Y-11859888D02*
X13453515Y-11840841D01*
X13453515Y-11840841D02*
X13434468Y-11831317D01*
X13434468Y-11831317D02*
X13405896Y-11831317D01*
X13405896Y-11831317D02*
X13386849Y-11821793D01*
X13386849Y-11821793D02*
X13377325Y-11802746D01*
X13377325Y-11802746D02*
X13377325Y-11793222D01*
X13377325Y-11793222D02*
X13386849Y-11774174D01*
X13386849Y-11774174D02*
X13405896Y-11764650D01*
X13405896Y-11764650D02*
X13434468Y-11764650D01*
X13434468Y-11764650D02*
X13453515Y-11774174D01*
X13577325Y-11897984D02*
X13558277Y-11888460D01*
X13558277Y-11888460D02*
X13548754Y-11869412D01*
X13548754Y-11869412D02*
X13548754Y-11697984D01*
X13682087Y-11897984D02*
X13663039Y-11888460D01*
X13663039Y-11888460D02*
X13653515Y-11878936D01*
X13653515Y-11878936D02*
X13643992Y-11859888D01*
X13643992Y-11859888D02*
X13643992Y-11802746D01*
X13643992Y-11802746D02*
X13653515Y-11783698D01*
X13653515Y-11783698D02*
X13663039Y-11774174D01*
X13663039Y-11774174D02*
X13682087Y-11764650D01*
X13682087Y-11764650D02*
X13710658Y-11764650D01*
X13710658Y-11764650D02*
X13729706Y-11774174D01*
X13729706Y-11774174D02*
X13739230Y-11783698D01*
X13739230Y-11783698D02*
X13748754Y-11802746D01*
X13748754Y-11802746D02*
X13748754Y-11859888D01*
X13748754Y-11859888D02*
X13739230Y-11878936D01*
X13739230Y-11878936D02*
X13729706Y-11888460D01*
X13729706Y-11888460D02*
X13710658Y-11897984D01*
X13710658Y-11897984D02*
X13682087Y-11897984D01*
X13805896Y-11764650D02*
X13882087Y-11764650D01*
X13834468Y-11697984D02*
X13834468Y-11869412D01*
X13834468Y-11869412D02*
X13843992Y-11888460D01*
X13843992Y-11888460D02*
X13863039Y-11897984D01*
X13863039Y-11897984D02*
X13882087Y-11897984D01*
X13939230Y-11888460D02*
X13958277Y-11897984D01*
X13958277Y-11897984D02*
X13996373Y-11897984D01*
X13996373Y-11897984D02*
X14015420Y-11888460D01*
X14015420Y-11888460D02*
X14024944Y-11869412D01*
X14024944Y-11869412D02*
X14024944Y-11859888D01*
X14024944Y-11859888D02*
X14015420Y-11840841D01*
X14015420Y-11840841D02*
X13996373Y-11831317D01*
X13996373Y-11831317D02*
X13967801Y-11831317D01*
X13967801Y-11831317D02*
X13948754Y-11821793D01*
X13948754Y-11821793D02*
X13939230Y-11802746D01*
X13939230Y-11802746D02*
X13939230Y-11793222D01*
X13939230Y-11793222D02*
X13948754Y-11774174D01*
X13948754Y-11774174D02*
X13967801Y-11764650D01*
X13967801Y-11764650D02*
X13996373Y-11764650D01*
X13996373Y-11764650D02*
X14015420Y-11774174D01*
X14091611Y-11974174D02*
X14101135Y-11964650D01*
X14101135Y-11964650D02*
X14120182Y-11936079D01*
X14120182Y-11936079D02*
X14129706Y-11917031D01*
X14129706Y-11917031D02*
X14139230Y-11888460D01*
X14139230Y-11888460D02*
X14148754Y-11840841D01*
X14148754Y-11840841D02*
X14148754Y-11802746D01*
X14148754Y-11802746D02*
X14139230Y-11755127D01*
X14139230Y-11755127D02*
X14129706Y-11726555D01*
X14129706Y-11726555D02*
X14120182Y-11707508D01*
X14120182Y-11707508D02*
X14101135Y-11678936D01*
X14101135Y-11678936D02*
X14091611Y-11669412D01*
D12*
X7652500Y-12025500D02*
X7652500Y-12115500D01*
X7607500Y-12070500D02*
X7697500Y-12070500D01*
D11*
X7996372Y-11961984D02*
X8015420Y-11961984D01*
X8015420Y-11961984D02*
X8034467Y-11971508D01*
X8034467Y-11971508D02*
X8043991Y-11981031D01*
X8043991Y-11981031D02*
X8053515Y-12000079D01*
X8053515Y-12000079D02*
X8063039Y-12038174D01*
X8063039Y-12038174D02*
X8063039Y-12085793D01*
X8063039Y-12085793D02*
X8053515Y-12123888D01*
X8053515Y-12123888D02*
X8043991Y-12142936D01*
X8043991Y-12142936D02*
X8034467Y-12152460D01*
X8034467Y-12152460D02*
X8015420Y-12161984D01*
X8015420Y-12161984D02*
X7996372Y-12161984D01*
X7996372Y-12161984D02*
X7977324Y-12152460D01*
X7977324Y-12152460D02*
X7967801Y-12142936D01*
X7967801Y-12142936D02*
X7958277Y-12123888D01*
X7958277Y-12123888D02*
X7948753Y-12085793D01*
X7948753Y-12085793D02*
X7948753Y-12038174D01*
X7948753Y-12038174D02*
X7958277Y-12000079D01*
X7958277Y-12000079D02*
X7967801Y-11981031D01*
X7967801Y-11981031D02*
X7977324Y-11971508D01*
X7977324Y-11971508D02*
X7996372Y-11961984D01*
X8148753Y-12142936D02*
X8158277Y-12152460D01*
X8158277Y-12152460D02*
X8148753Y-12161984D01*
X8148753Y-12161984D02*
X8139229Y-12152460D01*
X8139229Y-12152460D02*
X8148753Y-12142936D01*
X8148753Y-12142936D02*
X8148753Y-12161984D01*
X8253515Y-12161984D02*
X8291610Y-12161984D01*
X8291610Y-12161984D02*
X8310658Y-12152460D01*
X8310658Y-12152460D02*
X8320182Y-12142936D01*
X8320182Y-12142936D02*
X8339229Y-12114365D01*
X8339229Y-12114365D02*
X8348753Y-12076269D01*
X8348753Y-12076269D02*
X8348753Y-12000079D01*
X8348753Y-12000079D02*
X8339229Y-11981031D01*
X8339229Y-11981031D02*
X8329705Y-11971508D01*
X8329705Y-11971508D02*
X8310658Y-11961984D01*
X8310658Y-11961984D02*
X8272562Y-11961984D01*
X8272562Y-11961984D02*
X8253515Y-11971508D01*
X8253515Y-11971508D02*
X8243991Y-11981031D01*
X8243991Y-11981031D02*
X8234467Y-12000079D01*
X8234467Y-12000079D02*
X8234467Y-12047698D01*
X8234467Y-12047698D02*
X8243991Y-12066746D01*
X8243991Y-12066746D02*
X8253515Y-12076269D01*
X8253515Y-12076269D02*
X8272562Y-12085793D01*
X8272562Y-12085793D02*
X8310658Y-12085793D01*
X8310658Y-12085793D02*
X8329705Y-12076269D01*
X8329705Y-12076269D02*
X8339229Y-12066746D01*
X8339229Y-12066746D02*
X8348753Y-12047698D01*
X8472563Y-11961984D02*
X8491610Y-11961984D01*
X8491610Y-11961984D02*
X8510658Y-11971508D01*
X8510658Y-11971508D02*
X8520182Y-11981031D01*
X8520182Y-11981031D02*
X8529705Y-12000079D01*
X8529705Y-12000079D02*
X8539229Y-12038174D01*
X8539229Y-12038174D02*
X8539229Y-12085793D01*
X8539229Y-12085793D02*
X8529705Y-12123888D01*
X8529705Y-12123888D02*
X8520182Y-12142936D01*
X8520182Y-12142936D02*
X8510658Y-12152460D01*
X8510658Y-12152460D02*
X8491610Y-12161984D01*
X8491610Y-12161984D02*
X8472563Y-12161984D01*
X8472563Y-12161984D02*
X8453515Y-12152460D01*
X8453515Y-12152460D02*
X8443991Y-12142936D01*
X8443991Y-12142936D02*
X8434467Y-12123888D01*
X8434467Y-12123888D02*
X8424944Y-12085793D01*
X8424944Y-12085793D02*
X8424944Y-12038174D01*
X8424944Y-12038174D02*
X8434467Y-12000079D01*
X8434467Y-12000079D02*
X8443991Y-11981031D01*
X8443991Y-11981031D02*
X8453515Y-11971508D01*
X8453515Y-11971508D02*
X8472563Y-11961984D01*
X8663039Y-11961984D02*
X8682086Y-11961984D01*
X8682086Y-11961984D02*
X8701134Y-11971508D01*
X8701134Y-11971508D02*
X8710658Y-11981031D01*
X8710658Y-11981031D02*
X8720182Y-12000079D01*
X8720182Y-12000079D02*
X8729705Y-12038174D01*
X8729705Y-12038174D02*
X8729705Y-12085793D01*
X8729705Y-12085793D02*
X8720182Y-12123888D01*
X8720182Y-12123888D02*
X8710658Y-12142936D01*
X8710658Y-12142936D02*
X8701134Y-12152460D01*
X8701134Y-12152460D02*
X8682086Y-12161984D01*
X8682086Y-12161984D02*
X8663039Y-12161984D01*
X8663039Y-12161984D02*
X8643991Y-12152460D01*
X8643991Y-12152460D02*
X8634467Y-12142936D01*
X8634467Y-12142936D02*
X8624944Y-12123888D01*
X8624944Y-12123888D02*
X8615420Y-12085793D01*
X8615420Y-12085793D02*
X8615420Y-12038174D01*
X8615420Y-12038174D02*
X8624944Y-12000079D01*
X8624944Y-12000079D02*
X8634467Y-11981031D01*
X8634467Y-11981031D02*
X8643991Y-11971508D01*
X8643991Y-11971508D02*
X8663039Y-11961984D01*
X8815420Y-12161984D02*
X8815420Y-12028650D01*
X8815420Y-12047698D02*
X8824944Y-12038174D01*
X8824944Y-12038174D02*
X8843991Y-12028650D01*
X8843991Y-12028650D02*
X8872563Y-12028650D01*
X8872563Y-12028650D02*
X8891610Y-12038174D01*
X8891610Y-12038174D02*
X8901134Y-12057222D01*
X8901134Y-12057222D02*
X8901134Y-12161984D01*
X8901134Y-12057222D02*
X8910658Y-12038174D01*
X8910658Y-12038174D02*
X8929705Y-12028650D01*
X8929705Y-12028650D02*
X8958277Y-12028650D01*
X8958277Y-12028650D02*
X8977325Y-12038174D01*
X8977325Y-12038174D02*
X8986848Y-12057222D01*
X8986848Y-12057222D02*
X8986848Y-12161984D01*
X9082086Y-12161984D02*
X9082086Y-12028650D01*
X9082086Y-12047698D02*
X9091610Y-12038174D01*
X9091610Y-12038174D02*
X9110658Y-12028650D01*
X9110658Y-12028650D02*
X9139229Y-12028650D01*
X9139229Y-12028650D02*
X9158277Y-12038174D01*
X9158277Y-12038174D02*
X9167801Y-12057222D01*
X9167801Y-12057222D02*
X9167801Y-12161984D01*
X9167801Y-12057222D02*
X9177325Y-12038174D01*
X9177325Y-12038174D02*
X9196372Y-12028650D01*
X9196372Y-12028650D02*
X9224944Y-12028650D01*
X9224944Y-12028650D02*
X9243991Y-12038174D01*
X9243991Y-12038174D02*
X9253515Y-12057222D01*
X9253515Y-12057222D02*
X9253515Y-12161984D01*
X9643991Y-11952460D02*
X9472563Y-12209603D01*
X9901134Y-11961984D02*
X9920182Y-11961984D01*
X9920182Y-11961984D02*
X9939229Y-11971508D01*
X9939229Y-11971508D02*
X9948753Y-11981031D01*
X9948753Y-11981031D02*
X9958277Y-12000079D01*
X9958277Y-12000079D02*
X9967801Y-12038174D01*
X9967801Y-12038174D02*
X9967801Y-12085793D01*
X9967801Y-12085793D02*
X9958277Y-12123888D01*
X9958277Y-12123888D02*
X9948753Y-12142936D01*
X9948753Y-12142936D02*
X9939229Y-12152460D01*
X9939229Y-12152460D02*
X9920182Y-12161984D01*
X9920182Y-12161984D02*
X9901134Y-12161984D01*
X9901134Y-12161984D02*
X9882087Y-12152460D01*
X9882087Y-12152460D02*
X9872563Y-12142936D01*
X9872563Y-12142936D02*
X9863039Y-12123888D01*
X9863039Y-12123888D02*
X9853515Y-12085793D01*
X9853515Y-12085793D02*
X9853515Y-12038174D01*
X9853515Y-12038174D02*
X9863039Y-12000079D01*
X9863039Y-12000079D02*
X9872563Y-11981031D01*
X9872563Y-11981031D02*
X9882087Y-11971508D01*
X9882087Y-11971508D02*
X9901134Y-11961984D01*
X10053515Y-12142936D02*
X10063039Y-12152460D01*
X10063039Y-12152460D02*
X10053515Y-12161984D01*
X10053515Y-12161984D02*
X10043991Y-12152460D01*
X10043991Y-12152460D02*
X10053515Y-12142936D01*
X10053515Y-12142936D02*
X10053515Y-12161984D01*
X10186848Y-11961984D02*
X10205896Y-11961984D01*
X10205896Y-11961984D02*
X10224944Y-11971508D01*
X10224944Y-11971508D02*
X10234468Y-11981031D01*
X10234468Y-11981031D02*
X10243991Y-12000079D01*
X10243991Y-12000079D02*
X10253515Y-12038174D01*
X10253515Y-12038174D02*
X10253515Y-12085793D01*
X10253515Y-12085793D02*
X10243991Y-12123888D01*
X10243991Y-12123888D02*
X10234468Y-12142936D01*
X10234468Y-12142936D02*
X10224944Y-12152460D01*
X10224944Y-12152460D02*
X10205896Y-12161984D01*
X10205896Y-12161984D02*
X10186848Y-12161984D01*
X10186848Y-12161984D02*
X10167801Y-12152460D01*
X10167801Y-12152460D02*
X10158277Y-12142936D01*
X10158277Y-12142936D02*
X10148753Y-12123888D01*
X10148753Y-12123888D02*
X10139229Y-12085793D01*
X10139229Y-12085793D02*
X10139229Y-12038174D01*
X10139229Y-12038174D02*
X10148753Y-12000079D01*
X10148753Y-12000079D02*
X10158277Y-11981031D01*
X10158277Y-11981031D02*
X10167801Y-11971508D01*
X10167801Y-11971508D02*
X10186848Y-11961984D01*
X10320182Y-11961984D02*
X10443991Y-11961984D01*
X10443991Y-11961984D02*
X10377325Y-12038174D01*
X10377325Y-12038174D02*
X10405896Y-12038174D01*
X10405896Y-12038174D02*
X10424944Y-12047698D01*
X10424944Y-12047698D02*
X10434468Y-12057222D01*
X10434468Y-12057222D02*
X10443991Y-12076269D01*
X10443991Y-12076269D02*
X10443991Y-12123888D01*
X10443991Y-12123888D02*
X10434468Y-12142936D01*
X10434468Y-12142936D02*
X10424944Y-12152460D01*
X10424944Y-12152460D02*
X10405896Y-12161984D01*
X10405896Y-12161984D02*
X10348753Y-12161984D01*
X10348753Y-12161984D02*
X10329706Y-12152460D01*
X10329706Y-12152460D02*
X10320182Y-12142936D01*
X10624944Y-11961984D02*
X10529706Y-11961984D01*
X10529706Y-11961984D02*
X10520182Y-12057222D01*
X10520182Y-12057222D02*
X10529706Y-12047698D01*
X10529706Y-12047698D02*
X10548753Y-12038174D01*
X10548753Y-12038174D02*
X10596372Y-12038174D01*
X10596372Y-12038174D02*
X10615420Y-12047698D01*
X10615420Y-12047698D02*
X10624944Y-12057222D01*
X10624944Y-12057222D02*
X10634468Y-12076269D01*
X10634468Y-12076269D02*
X10634468Y-12123888D01*
X10634468Y-12123888D02*
X10624944Y-12142936D01*
X10624944Y-12142936D02*
X10615420Y-12152460D01*
X10615420Y-12152460D02*
X10596372Y-12161984D01*
X10596372Y-12161984D02*
X10548753Y-12161984D01*
X10548753Y-12161984D02*
X10529706Y-12152460D01*
X10529706Y-12152460D02*
X10520182Y-12142936D01*
X10805896Y-12028650D02*
X10805896Y-12161984D01*
X10758277Y-11952460D02*
X10710658Y-12095317D01*
X10710658Y-12095317D02*
X10834468Y-12095317D01*
X10901134Y-11961984D02*
X10901134Y-12000079D01*
X10977325Y-11961984D02*
X10977325Y-12000079D01*
X11272563Y-12238174D02*
X11263039Y-12228650D01*
X11263039Y-12228650D02*
X11243991Y-12200079D01*
X11243991Y-12200079D02*
X11234468Y-12181031D01*
X11234468Y-12181031D02*
X11224944Y-12152460D01*
X11224944Y-12152460D02*
X11215420Y-12104841D01*
X11215420Y-12104841D02*
X11215420Y-12066746D01*
X11215420Y-12066746D02*
X11224944Y-12019127D01*
X11224944Y-12019127D02*
X11234468Y-11990555D01*
X11234468Y-11990555D02*
X11243991Y-11971508D01*
X11243991Y-11971508D02*
X11263039Y-11942936D01*
X11263039Y-11942936D02*
X11272563Y-11933412D01*
X11453515Y-12161984D02*
X11339229Y-12161984D01*
X11396372Y-12161984D02*
X11396372Y-11961984D01*
X11396372Y-11961984D02*
X11377325Y-11990555D01*
X11377325Y-11990555D02*
X11358277Y-12009603D01*
X11358277Y-12009603D02*
X11339229Y-12019127D01*
X11577325Y-11961984D02*
X11596372Y-11961984D01*
X11596372Y-11961984D02*
X11615420Y-11971508D01*
X11615420Y-11971508D02*
X11624944Y-11981031D01*
X11624944Y-11981031D02*
X11634468Y-12000079D01*
X11634468Y-12000079D02*
X11643991Y-12038174D01*
X11643991Y-12038174D02*
X11643991Y-12085793D01*
X11643991Y-12085793D02*
X11634468Y-12123888D01*
X11634468Y-12123888D02*
X11624944Y-12142936D01*
X11624944Y-12142936D02*
X11615420Y-12152460D01*
X11615420Y-12152460D02*
X11596372Y-12161984D01*
X11596372Y-12161984D02*
X11577325Y-12161984D01*
X11577325Y-12161984D02*
X11558277Y-12152460D01*
X11558277Y-12152460D02*
X11548753Y-12142936D01*
X11548753Y-12142936D02*
X11539229Y-12123888D01*
X11539229Y-12123888D02*
X11529706Y-12085793D01*
X11529706Y-12085793D02*
X11529706Y-12038174D01*
X11529706Y-12038174D02*
X11539229Y-12000079D01*
X11539229Y-12000079D02*
X11548753Y-11981031D01*
X11548753Y-11981031D02*
X11558277Y-11971508D01*
X11558277Y-11971508D02*
X11577325Y-11961984D01*
X11882087Y-12161984D02*
X11882087Y-11961984D01*
X11967801Y-12161984D02*
X11967801Y-12057222D01*
X11967801Y-12057222D02*
X11958277Y-12038174D01*
X11958277Y-12038174D02*
X11939230Y-12028650D01*
X11939230Y-12028650D02*
X11910658Y-12028650D01*
X11910658Y-12028650D02*
X11891610Y-12038174D01*
X11891610Y-12038174D02*
X11882087Y-12047698D01*
X12091610Y-12161984D02*
X12072563Y-12152460D01*
X12072563Y-12152460D02*
X12063039Y-12142936D01*
X12063039Y-12142936D02*
X12053515Y-12123888D01*
X12053515Y-12123888D02*
X12053515Y-12066746D01*
X12053515Y-12066746D02*
X12063039Y-12047698D01*
X12063039Y-12047698D02*
X12072563Y-12038174D01*
X12072563Y-12038174D02*
X12091610Y-12028650D01*
X12091610Y-12028650D02*
X12120182Y-12028650D01*
X12120182Y-12028650D02*
X12139230Y-12038174D01*
X12139230Y-12038174D02*
X12148753Y-12047698D01*
X12148753Y-12047698D02*
X12158277Y-12066746D01*
X12158277Y-12066746D02*
X12158277Y-12123888D01*
X12158277Y-12123888D02*
X12148753Y-12142936D01*
X12148753Y-12142936D02*
X12139230Y-12152460D01*
X12139230Y-12152460D02*
X12120182Y-12161984D01*
X12120182Y-12161984D02*
X12091610Y-12161984D01*
X12272563Y-12161984D02*
X12253515Y-12152460D01*
X12253515Y-12152460D02*
X12243991Y-12133412D01*
X12243991Y-12133412D02*
X12243991Y-11961984D01*
X12424944Y-12152460D02*
X12405896Y-12161984D01*
X12405896Y-12161984D02*
X12367801Y-12161984D01*
X12367801Y-12161984D02*
X12348753Y-12152460D01*
X12348753Y-12152460D02*
X12339230Y-12133412D01*
X12339230Y-12133412D02*
X12339230Y-12057222D01*
X12339230Y-12057222D02*
X12348753Y-12038174D01*
X12348753Y-12038174D02*
X12367801Y-12028650D01*
X12367801Y-12028650D02*
X12405896Y-12028650D01*
X12405896Y-12028650D02*
X12424944Y-12038174D01*
X12424944Y-12038174D02*
X12434468Y-12057222D01*
X12434468Y-12057222D02*
X12434468Y-12076269D01*
X12434468Y-12076269D02*
X12339230Y-12095317D01*
X12510658Y-12152460D02*
X12529706Y-12161984D01*
X12529706Y-12161984D02*
X12567801Y-12161984D01*
X12567801Y-12161984D02*
X12586849Y-12152460D01*
X12586849Y-12152460D02*
X12596372Y-12133412D01*
X12596372Y-12133412D02*
X12596372Y-12123888D01*
X12596372Y-12123888D02*
X12586849Y-12104841D01*
X12586849Y-12104841D02*
X12567801Y-12095317D01*
X12567801Y-12095317D02*
X12539230Y-12095317D01*
X12539230Y-12095317D02*
X12520182Y-12085793D01*
X12520182Y-12085793D02*
X12510658Y-12066746D01*
X12510658Y-12066746D02*
X12510658Y-12057222D01*
X12510658Y-12057222D02*
X12520182Y-12038174D01*
X12520182Y-12038174D02*
X12539230Y-12028650D01*
X12539230Y-12028650D02*
X12567801Y-12028650D01*
X12567801Y-12028650D02*
X12586849Y-12038174D01*
X12663039Y-12238174D02*
X12672563Y-12228650D01*
X12672563Y-12228650D02*
X12691611Y-12200079D01*
X12691611Y-12200079D02*
X12701134Y-12181031D01*
X12701134Y-12181031D02*
X12710658Y-12152460D01*
X12710658Y-12152460D02*
X12720182Y-12104841D01*
X12720182Y-12104841D02*
X12720182Y-12066746D01*
X12720182Y-12066746D02*
X12710658Y-12019127D01*
X12710658Y-12019127D02*
X12701134Y-11990555D01*
X12701134Y-11990555D02*
X12691611Y-11971508D01*
X12691611Y-11971508D02*
X12672563Y-11942936D01*
X12672563Y-11942936D02*
X12663039Y-11933412D01*
D12*
X7682856Y-12369856D02*
X7682856Y-12299144D01*
X7612144Y-12299144D01*
X7612144Y-12369856D01*
X7682856Y-12369856D01*
D11*
X8063039Y-12425984D02*
X7948753Y-12425984D01*
X8005896Y-12425984D02*
X8005896Y-12225984D01*
X8005896Y-12225984D02*
X7986848Y-12254555D01*
X7986848Y-12254555D02*
X7967801Y-12273603D01*
X7967801Y-12273603D02*
X7948753Y-12283127D01*
X8148753Y-12406936D02*
X8158277Y-12416460D01*
X8158277Y-12416460D02*
X8148753Y-12425984D01*
X8148753Y-12425984D02*
X8139229Y-12416460D01*
X8139229Y-12416460D02*
X8148753Y-12406936D01*
X8148753Y-12406936D02*
X8148753Y-12425984D01*
X8282086Y-12225984D02*
X8301134Y-12225984D01*
X8301134Y-12225984D02*
X8320182Y-12235508D01*
X8320182Y-12235508D02*
X8329705Y-12245031D01*
X8329705Y-12245031D02*
X8339229Y-12264079D01*
X8339229Y-12264079D02*
X8348753Y-12302174D01*
X8348753Y-12302174D02*
X8348753Y-12349793D01*
X8348753Y-12349793D02*
X8339229Y-12387888D01*
X8339229Y-12387888D02*
X8329705Y-12406936D01*
X8329705Y-12406936D02*
X8320182Y-12416460D01*
X8320182Y-12416460D02*
X8301134Y-12425984D01*
X8301134Y-12425984D02*
X8282086Y-12425984D01*
X8282086Y-12425984D02*
X8263039Y-12416460D01*
X8263039Y-12416460D02*
X8253515Y-12406936D01*
X8253515Y-12406936D02*
X8243991Y-12387888D01*
X8243991Y-12387888D02*
X8234467Y-12349793D01*
X8234467Y-12349793D02*
X8234467Y-12302174D01*
X8234467Y-12302174D02*
X8243991Y-12264079D01*
X8243991Y-12264079D02*
X8253515Y-12245031D01*
X8253515Y-12245031D02*
X8263039Y-12235508D01*
X8263039Y-12235508D02*
X8282086Y-12225984D01*
X8472563Y-12225984D02*
X8491610Y-12225984D01*
X8491610Y-12225984D02*
X8510658Y-12235508D01*
X8510658Y-12235508D02*
X8520182Y-12245031D01*
X8520182Y-12245031D02*
X8529705Y-12264079D01*
X8529705Y-12264079D02*
X8539229Y-12302174D01*
X8539229Y-12302174D02*
X8539229Y-12349793D01*
X8539229Y-12349793D02*
X8529705Y-12387888D01*
X8529705Y-12387888D02*
X8520182Y-12406936D01*
X8520182Y-12406936D02*
X8510658Y-12416460D01*
X8510658Y-12416460D02*
X8491610Y-12425984D01*
X8491610Y-12425984D02*
X8472563Y-12425984D01*
X8472563Y-12425984D02*
X8453515Y-12416460D01*
X8453515Y-12416460D02*
X8443991Y-12406936D01*
X8443991Y-12406936D02*
X8434467Y-12387888D01*
X8434467Y-12387888D02*
X8424944Y-12349793D01*
X8424944Y-12349793D02*
X8424944Y-12302174D01*
X8424944Y-12302174D02*
X8434467Y-12264079D01*
X8434467Y-12264079D02*
X8443991Y-12245031D01*
X8443991Y-12245031D02*
X8453515Y-12235508D01*
X8453515Y-12235508D02*
X8472563Y-12225984D01*
X8663039Y-12225984D02*
X8682086Y-12225984D01*
X8682086Y-12225984D02*
X8701134Y-12235508D01*
X8701134Y-12235508D02*
X8710658Y-12245031D01*
X8710658Y-12245031D02*
X8720182Y-12264079D01*
X8720182Y-12264079D02*
X8729705Y-12302174D01*
X8729705Y-12302174D02*
X8729705Y-12349793D01*
X8729705Y-12349793D02*
X8720182Y-12387888D01*
X8720182Y-12387888D02*
X8710658Y-12406936D01*
X8710658Y-12406936D02*
X8701134Y-12416460D01*
X8701134Y-12416460D02*
X8682086Y-12425984D01*
X8682086Y-12425984D02*
X8663039Y-12425984D01*
X8663039Y-12425984D02*
X8643991Y-12416460D01*
X8643991Y-12416460D02*
X8634467Y-12406936D01*
X8634467Y-12406936D02*
X8624944Y-12387888D01*
X8624944Y-12387888D02*
X8615420Y-12349793D01*
X8615420Y-12349793D02*
X8615420Y-12302174D01*
X8615420Y-12302174D02*
X8624944Y-12264079D01*
X8624944Y-12264079D02*
X8634467Y-12245031D01*
X8634467Y-12245031D02*
X8643991Y-12235508D01*
X8643991Y-12235508D02*
X8663039Y-12225984D01*
X8815420Y-12425984D02*
X8815420Y-12292650D01*
X8815420Y-12311698D02*
X8824944Y-12302174D01*
X8824944Y-12302174D02*
X8843991Y-12292650D01*
X8843991Y-12292650D02*
X8872563Y-12292650D01*
X8872563Y-12292650D02*
X8891610Y-12302174D01*
X8891610Y-12302174D02*
X8901134Y-12321222D01*
X8901134Y-12321222D02*
X8901134Y-12425984D01*
X8901134Y-12321222D02*
X8910658Y-12302174D01*
X8910658Y-12302174D02*
X8929705Y-12292650D01*
X8929705Y-12292650D02*
X8958277Y-12292650D01*
X8958277Y-12292650D02*
X8977325Y-12302174D01*
X8977325Y-12302174D02*
X8986848Y-12321222D01*
X8986848Y-12321222D02*
X8986848Y-12425984D01*
X9082086Y-12425984D02*
X9082086Y-12292650D01*
X9082086Y-12311698D02*
X9091610Y-12302174D01*
X9091610Y-12302174D02*
X9110658Y-12292650D01*
X9110658Y-12292650D02*
X9139229Y-12292650D01*
X9139229Y-12292650D02*
X9158277Y-12302174D01*
X9158277Y-12302174D02*
X9167801Y-12321222D01*
X9167801Y-12321222D02*
X9167801Y-12425984D01*
X9167801Y-12321222D02*
X9177325Y-12302174D01*
X9177325Y-12302174D02*
X9196372Y-12292650D01*
X9196372Y-12292650D02*
X9224944Y-12292650D01*
X9224944Y-12292650D02*
X9243991Y-12302174D01*
X9243991Y-12302174D02*
X9253515Y-12321222D01*
X9253515Y-12321222D02*
X9253515Y-12425984D01*
X9643991Y-12216460D02*
X9472563Y-12473603D01*
X9901134Y-12225984D02*
X9920182Y-12225984D01*
X9920182Y-12225984D02*
X9939229Y-12235508D01*
X9939229Y-12235508D02*
X9948753Y-12245031D01*
X9948753Y-12245031D02*
X9958277Y-12264079D01*
X9958277Y-12264079D02*
X9967801Y-12302174D01*
X9967801Y-12302174D02*
X9967801Y-12349793D01*
X9967801Y-12349793D02*
X9958277Y-12387888D01*
X9958277Y-12387888D02*
X9948753Y-12406936D01*
X9948753Y-12406936D02*
X9939229Y-12416460D01*
X9939229Y-12416460D02*
X9920182Y-12425984D01*
X9920182Y-12425984D02*
X9901134Y-12425984D01*
X9901134Y-12425984D02*
X9882087Y-12416460D01*
X9882087Y-12416460D02*
X9872563Y-12406936D01*
X9872563Y-12406936D02*
X9863039Y-12387888D01*
X9863039Y-12387888D02*
X9853515Y-12349793D01*
X9853515Y-12349793D02*
X9853515Y-12302174D01*
X9853515Y-12302174D02*
X9863039Y-12264079D01*
X9863039Y-12264079D02*
X9872563Y-12245031D01*
X9872563Y-12245031D02*
X9882087Y-12235508D01*
X9882087Y-12235508D02*
X9901134Y-12225984D01*
X10053515Y-12406936D02*
X10063039Y-12416460D01*
X10063039Y-12416460D02*
X10053515Y-12425984D01*
X10053515Y-12425984D02*
X10043991Y-12416460D01*
X10043991Y-12416460D02*
X10053515Y-12406936D01*
X10053515Y-12406936D02*
X10053515Y-12425984D01*
X10186848Y-12225984D02*
X10205896Y-12225984D01*
X10205896Y-12225984D02*
X10224944Y-12235508D01*
X10224944Y-12235508D02*
X10234468Y-12245031D01*
X10234468Y-12245031D02*
X10243991Y-12264079D01*
X10243991Y-12264079D02*
X10253515Y-12302174D01*
X10253515Y-12302174D02*
X10253515Y-12349793D01*
X10253515Y-12349793D02*
X10243991Y-12387888D01*
X10243991Y-12387888D02*
X10234468Y-12406936D01*
X10234468Y-12406936D02*
X10224944Y-12416460D01*
X10224944Y-12416460D02*
X10205896Y-12425984D01*
X10205896Y-12425984D02*
X10186848Y-12425984D01*
X10186848Y-12425984D02*
X10167801Y-12416460D01*
X10167801Y-12416460D02*
X10158277Y-12406936D01*
X10158277Y-12406936D02*
X10148753Y-12387888D01*
X10148753Y-12387888D02*
X10139229Y-12349793D01*
X10139229Y-12349793D02*
X10139229Y-12302174D01*
X10139229Y-12302174D02*
X10148753Y-12264079D01*
X10148753Y-12264079D02*
X10158277Y-12245031D01*
X10158277Y-12245031D02*
X10167801Y-12235508D01*
X10167801Y-12235508D02*
X10186848Y-12225984D01*
X10320182Y-12225984D02*
X10443991Y-12225984D01*
X10443991Y-12225984D02*
X10377325Y-12302174D01*
X10377325Y-12302174D02*
X10405896Y-12302174D01*
X10405896Y-12302174D02*
X10424944Y-12311698D01*
X10424944Y-12311698D02*
X10434468Y-12321222D01*
X10434468Y-12321222D02*
X10443991Y-12340269D01*
X10443991Y-12340269D02*
X10443991Y-12387888D01*
X10443991Y-12387888D02*
X10434468Y-12406936D01*
X10434468Y-12406936D02*
X10424944Y-12416460D01*
X10424944Y-12416460D02*
X10405896Y-12425984D01*
X10405896Y-12425984D02*
X10348753Y-12425984D01*
X10348753Y-12425984D02*
X10329706Y-12416460D01*
X10329706Y-12416460D02*
X10320182Y-12406936D01*
X10539229Y-12425984D02*
X10577325Y-12425984D01*
X10577325Y-12425984D02*
X10596372Y-12416460D01*
X10596372Y-12416460D02*
X10605896Y-12406936D01*
X10605896Y-12406936D02*
X10624944Y-12378365D01*
X10624944Y-12378365D02*
X10634468Y-12340269D01*
X10634468Y-12340269D02*
X10634468Y-12264079D01*
X10634468Y-12264079D02*
X10624944Y-12245031D01*
X10624944Y-12245031D02*
X10615420Y-12235508D01*
X10615420Y-12235508D02*
X10596372Y-12225984D01*
X10596372Y-12225984D02*
X10558277Y-12225984D01*
X10558277Y-12225984D02*
X10539229Y-12235508D01*
X10539229Y-12235508D02*
X10529706Y-12245031D01*
X10529706Y-12245031D02*
X10520182Y-12264079D01*
X10520182Y-12264079D02*
X10520182Y-12311698D01*
X10520182Y-12311698D02*
X10529706Y-12330746D01*
X10529706Y-12330746D02*
X10539229Y-12340269D01*
X10539229Y-12340269D02*
X10558277Y-12349793D01*
X10558277Y-12349793D02*
X10596372Y-12349793D01*
X10596372Y-12349793D02*
X10615420Y-12340269D01*
X10615420Y-12340269D02*
X10624944Y-12330746D01*
X10624944Y-12330746D02*
X10634468Y-12311698D01*
X10805896Y-12292650D02*
X10805896Y-12425984D01*
X10758277Y-12216460D02*
X10710658Y-12359317D01*
X10710658Y-12359317D02*
X10834468Y-12359317D01*
X10901134Y-12225984D02*
X10901134Y-12264079D01*
X10977325Y-12225984D02*
X10977325Y-12264079D01*
X11272563Y-12502174D02*
X11263039Y-12492650D01*
X11263039Y-12492650D02*
X11243991Y-12464079D01*
X11243991Y-12464079D02*
X11234468Y-12445031D01*
X11234468Y-12445031D02*
X11224944Y-12416460D01*
X11224944Y-12416460D02*
X11215420Y-12368841D01*
X11215420Y-12368841D02*
X11215420Y-12330746D01*
X11215420Y-12330746D02*
X11224944Y-12283127D01*
X11224944Y-12283127D02*
X11234468Y-12254555D01*
X11234468Y-12254555D02*
X11243991Y-12235508D01*
X11243991Y-12235508D02*
X11263039Y-12206936D01*
X11263039Y-12206936D02*
X11272563Y-12197412D01*
X11386848Y-12225984D02*
X11405896Y-12225984D01*
X11405896Y-12225984D02*
X11424944Y-12235508D01*
X11424944Y-12235508D02*
X11434468Y-12245031D01*
X11434468Y-12245031D02*
X11443991Y-12264079D01*
X11443991Y-12264079D02*
X11453515Y-12302174D01*
X11453515Y-12302174D02*
X11453515Y-12349793D01*
X11453515Y-12349793D02*
X11443991Y-12387888D01*
X11443991Y-12387888D02*
X11434468Y-12406936D01*
X11434468Y-12406936D02*
X11424944Y-12416460D01*
X11424944Y-12416460D02*
X11405896Y-12425984D01*
X11405896Y-12425984D02*
X11386848Y-12425984D01*
X11386848Y-12425984D02*
X11367801Y-12416460D01*
X11367801Y-12416460D02*
X11358277Y-12406936D01*
X11358277Y-12406936D02*
X11348753Y-12387888D01*
X11348753Y-12387888D02*
X11339229Y-12349793D01*
X11339229Y-12349793D02*
X11339229Y-12302174D01*
X11339229Y-12302174D02*
X11348753Y-12264079D01*
X11348753Y-12264079D02*
X11358277Y-12245031D01*
X11358277Y-12245031D02*
X11367801Y-12235508D01*
X11367801Y-12235508D02*
X11386848Y-12225984D01*
X11691610Y-12425984D02*
X11691610Y-12225984D01*
X11777325Y-12425984D02*
X11777325Y-12321222D01*
X11777325Y-12321222D02*
X11767801Y-12302174D01*
X11767801Y-12302174D02*
X11748753Y-12292650D01*
X11748753Y-12292650D02*
X11720182Y-12292650D01*
X11720182Y-12292650D02*
X11701134Y-12302174D01*
X11701134Y-12302174D02*
X11691610Y-12311698D01*
X11901134Y-12425984D02*
X11882087Y-12416460D01*
X11882087Y-12416460D02*
X11872563Y-12406936D01*
X11872563Y-12406936D02*
X11863039Y-12387888D01*
X11863039Y-12387888D02*
X11863039Y-12330746D01*
X11863039Y-12330746D02*
X11872563Y-12311698D01*
X11872563Y-12311698D02*
X11882087Y-12302174D01*
X11882087Y-12302174D02*
X11901134Y-12292650D01*
X11901134Y-12292650D02*
X11929706Y-12292650D01*
X11929706Y-12292650D02*
X11948753Y-12302174D01*
X11948753Y-12302174D02*
X11958277Y-12311698D01*
X11958277Y-12311698D02*
X11967801Y-12330746D01*
X11967801Y-12330746D02*
X11967801Y-12387888D01*
X11967801Y-12387888D02*
X11958277Y-12406936D01*
X11958277Y-12406936D02*
X11948753Y-12416460D01*
X11948753Y-12416460D02*
X11929706Y-12425984D01*
X11929706Y-12425984D02*
X11901134Y-12425984D01*
X12082087Y-12425984D02*
X12063039Y-12416460D01*
X12063039Y-12416460D02*
X12053515Y-12397412D01*
X12053515Y-12397412D02*
X12053515Y-12225984D01*
X12234468Y-12416460D02*
X12215420Y-12425984D01*
X12215420Y-12425984D02*
X12177325Y-12425984D01*
X12177325Y-12425984D02*
X12158277Y-12416460D01*
X12158277Y-12416460D02*
X12148753Y-12397412D01*
X12148753Y-12397412D02*
X12148753Y-12321222D01*
X12148753Y-12321222D02*
X12158277Y-12302174D01*
X12158277Y-12302174D02*
X12177325Y-12292650D01*
X12177325Y-12292650D02*
X12215420Y-12292650D01*
X12215420Y-12292650D02*
X12234468Y-12302174D01*
X12234468Y-12302174D02*
X12243991Y-12321222D01*
X12243991Y-12321222D02*
X12243991Y-12340269D01*
X12243991Y-12340269D02*
X12148753Y-12359317D01*
X12320182Y-12416460D02*
X12339230Y-12425984D01*
X12339230Y-12425984D02*
X12377325Y-12425984D01*
X12377325Y-12425984D02*
X12396372Y-12416460D01*
X12396372Y-12416460D02*
X12405896Y-12397412D01*
X12405896Y-12397412D02*
X12405896Y-12387888D01*
X12405896Y-12387888D02*
X12396372Y-12368841D01*
X12396372Y-12368841D02*
X12377325Y-12359317D01*
X12377325Y-12359317D02*
X12348753Y-12359317D01*
X12348753Y-12359317D02*
X12329706Y-12349793D01*
X12329706Y-12349793D02*
X12320182Y-12330746D01*
X12320182Y-12330746D02*
X12320182Y-12321222D01*
X12320182Y-12321222D02*
X12329706Y-12302174D01*
X12329706Y-12302174D02*
X12348753Y-12292650D01*
X12348753Y-12292650D02*
X12377325Y-12292650D01*
X12377325Y-12292650D02*
X12396372Y-12302174D01*
X12643992Y-12349793D02*
X12796373Y-12349793D01*
X12720182Y-12425984D02*
X12720182Y-12273603D01*
X13024944Y-12225984D02*
X13148753Y-12225984D01*
X13148753Y-12225984D02*
X13082087Y-12302174D01*
X13082087Y-12302174D02*
X13110658Y-12302174D01*
X13110658Y-12302174D02*
X13129706Y-12311698D01*
X13129706Y-12311698D02*
X13139230Y-12321222D01*
X13139230Y-12321222D02*
X13148753Y-12340269D01*
X13148753Y-12340269D02*
X13148753Y-12387888D01*
X13148753Y-12387888D02*
X13139230Y-12406936D01*
X13139230Y-12406936D02*
X13129706Y-12416460D01*
X13129706Y-12416460D02*
X13110658Y-12425984D01*
X13110658Y-12425984D02*
X13053515Y-12425984D01*
X13053515Y-12425984D02*
X13034468Y-12416460D01*
X13034468Y-12416460D02*
X13024944Y-12406936D01*
X13377325Y-12416460D02*
X13396373Y-12425984D01*
X13396373Y-12425984D02*
X13434468Y-12425984D01*
X13434468Y-12425984D02*
X13453515Y-12416460D01*
X13453515Y-12416460D02*
X13463039Y-12397412D01*
X13463039Y-12397412D02*
X13463039Y-12387888D01*
X13463039Y-12387888D02*
X13453515Y-12368841D01*
X13453515Y-12368841D02*
X13434468Y-12359317D01*
X13434468Y-12359317D02*
X13405896Y-12359317D01*
X13405896Y-12359317D02*
X13386849Y-12349793D01*
X13386849Y-12349793D02*
X13377325Y-12330746D01*
X13377325Y-12330746D02*
X13377325Y-12321222D01*
X13377325Y-12321222D02*
X13386849Y-12302174D01*
X13386849Y-12302174D02*
X13405896Y-12292650D01*
X13405896Y-12292650D02*
X13434468Y-12292650D01*
X13434468Y-12292650D02*
X13453515Y-12302174D01*
X13577325Y-12425984D02*
X13558277Y-12416460D01*
X13558277Y-12416460D02*
X13548754Y-12397412D01*
X13548754Y-12397412D02*
X13548754Y-12225984D01*
X13682087Y-12425984D02*
X13663039Y-12416460D01*
X13663039Y-12416460D02*
X13653515Y-12406936D01*
X13653515Y-12406936D02*
X13643992Y-12387888D01*
X13643992Y-12387888D02*
X13643992Y-12330746D01*
X13643992Y-12330746D02*
X13653515Y-12311698D01*
X13653515Y-12311698D02*
X13663039Y-12302174D01*
X13663039Y-12302174D02*
X13682087Y-12292650D01*
X13682087Y-12292650D02*
X13710658Y-12292650D01*
X13710658Y-12292650D02*
X13729706Y-12302174D01*
X13729706Y-12302174D02*
X13739230Y-12311698D01*
X13739230Y-12311698D02*
X13748754Y-12330746D01*
X13748754Y-12330746D02*
X13748754Y-12387888D01*
X13748754Y-12387888D02*
X13739230Y-12406936D01*
X13739230Y-12406936D02*
X13729706Y-12416460D01*
X13729706Y-12416460D02*
X13710658Y-12425984D01*
X13710658Y-12425984D02*
X13682087Y-12425984D01*
X13805896Y-12292650D02*
X13882087Y-12292650D01*
X13834468Y-12225984D02*
X13834468Y-12397412D01*
X13834468Y-12397412D02*
X13843992Y-12416460D01*
X13843992Y-12416460D02*
X13863039Y-12425984D01*
X13863039Y-12425984D02*
X13882087Y-12425984D01*
X13939230Y-12416460D02*
X13958277Y-12425984D01*
X13958277Y-12425984D02*
X13996373Y-12425984D01*
X13996373Y-12425984D02*
X14015420Y-12416460D01*
X14015420Y-12416460D02*
X14024944Y-12397412D01*
X14024944Y-12397412D02*
X14024944Y-12387888D01*
X14024944Y-12387888D02*
X14015420Y-12368841D01*
X14015420Y-12368841D02*
X13996373Y-12359317D01*
X13996373Y-12359317D02*
X13967801Y-12359317D01*
X13967801Y-12359317D02*
X13948754Y-12349793D01*
X13948754Y-12349793D02*
X13939230Y-12330746D01*
X13939230Y-12330746D02*
X13939230Y-12321222D01*
X13939230Y-12321222D02*
X13948754Y-12302174D01*
X13948754Y-12302174D02*
X13967801Y-12292650D01*
X13967801Y-12292650D02*
X13996373Y-12292650D01*
X13996373Y-12292650D02*
X14015420Y-12302174D01*
X14091611Y-12502174D02*
X14101135Y-12492650D01*
X14101135Y-12492650D02*
X14120182Y-12464079D01*
X14120182Y-12464079D02*
X14129706Y-12445031D01*
X14129706Y-12445031D02*
X14139230Y-12416460D01*
X14139230Y-12416460D02*
X14148754Y-12368841D01*
X14148754Y-12368841D02*
X14148754Y-12330746D01*
X14148754Y-12330746D02*
X14139230Y-12283127D01*
X14139230Y-12283127D02*
X14129706Y-12254555D01*
X14129706Y-12254555D02*
X14120182Y-12235508D01*
X14120182Y-12235508D02*
X14101135Y-12206936D01*
X14101135Y-12206936D02*
X14091611Y-12197412D01*
D13*
X7632500Y-12663500D02*
X7697500Y-12598500D01*
X7632500Y-12533500D01*
X7567500Y-12598500D01*
X7632500Y-12663500D01*
D11*
X8063039Y-12689984D02*
X7948753Y-12689984D01*
X8005896Y-12689984D02*
X8005896Y-12489984D01*
X8005896Y-12489984D02*
X7986848Y-12518555D01*
X7986848Y-12518555D02*
X7967801Y-12537603D01*
X7967801Y-12537603D02*
X7948753Y-12547127D01*
X8148753Y-12670936D02*
X8158277Y-12680460D01*
X8158277Y-12680460D02*
X8148753Y-12689984D01*
X8148753Y-12689984D02*
X8139229Y-12680460D01*
X8139229Y-12680460D02*
X8148753Y-12670936D01*
X8148753Y-12670936D02*
X8148753Y-12689984D01*
X8224943Y-12489984D02*
X8348753Y-12489984D01*
X8348753Y-12489984D02*
X8282086Y-12566174D01*
X8282086Y-12566174D02*
X8310658Y-12566174D01*
X8310658Y-12566174D02*
X8329705Y-12575698D01*
X8329705Y-12575698D02*
X8339229Y-12585222D01*
X8339229Y-12585222D02*
X8348753Y-12604269D01*
X8348753Y-12604269D02*
X8348753Y-12651888D01*
X8348753Y-12651888D02*
X8339229Y-12670936D01*
X8339229Y-12670936D02*
X8329705Y-12680460D01*
X8329705Y-12680460D02*
X8310658Y-12689984D01*
X8310658Y-12689984D02*
X8253515Y-12689984D01*
X8253515Y-12689984D02*
X8234467Y-12680460D01*
X8234467Y-12680460D02*
X8224943Y-12670936D01*
X8472563Y-12489984D02*
X8491610Y-12489984D01*
X8491610Y-12489984D02*
X8510658Y-12499508D01*
X8510658Y-12499508D02*
X8520182Y-12509031D01*
X8520182Y-12509031D02*
X8529705Y-12528079D01*
X8529705Y-12528079D02*
X8539229Y-12566174D01*
X8539229Y-12566174D02*
X8539229Y-12613793D01*
X8539229Y-12613793D02*
X8529705Y-12651888D01*
X8529705Y-12651888D02*
X8520182Y-12670936D01*
X8520182Y-12670936D02*
X8510658Y-12680460D01*
X8510658Y-12680460D02*
X8491610Y-12689984D01*
X8491610Y-12689984D02*
X8472563Y-12689984D01*
X8472563Y-12689984D02*
X8453515Y-12680460D01*
X8453515Y-12680460D02*
X8443991Y-12670936D01*
X8443991Y-12670936D02*
X8434467Y-12651888D01*
X8434467Y-12651888D02*
X8424944Y-12613793D01*
X8424944Y-12613793D02*
X8424944Y-12566174D01*
X8424944Y-12566174D02*
X8434467Y-12528079D01*
X8434467Y-12528079D02*
X8443991Y-12509031D01*
X8443991Y-12509031D02*
X8453515Y-12499508D01*
X8453515Y-12499508D02*
X8472563Y-12489984D01*
X8663039Y-12489984D02*
X8682086Y-12489984D01*
X8682086Y-12489984D02*
X8701134Y-12499508D01*
X8701134Y-12499508D02*
X8710658Y-12509031D01*
X8710658Y-12509031D02*
X8720182Y-12528079D01*
X8720182Y-12528079D02*
X8729705Y-12566174D01*
X8729705Y-12566174D02*
X8729705Y-12613793D01*
X8729705Y-12613793D02*
X8720182Y-12651888D01*
X8720182Y-12651888D02*
X8710658Y-12670936D01*
X8710658Y-12670936D02*
X8701134Y-12680460D01*
X8701134Y-12680460D02*
X8682086Y-12689984D01*
X8682086Y-12689984D02*
X8663039Y-12689984D01*
X8663039Y-12689984D02*
X8643991Y-12680460D01*
X8643991Y-12680460D02*
X8634467Y-12670936D01*
X8634467Y-12670936D02*
X8624944Y-12651888D01*
X8624944Y-12651888D02*
X8615420Y-12613793D01*
X8615420Y-12613793D02*
X8615420Y-12566174D01*
X8615420Y-12566174D02*
X8624944Y-12528079D01*
X8624944Y-12528079D02*
X8634467Y-12509031D01*
X8634467Y-12509031D02*
X8643991Y-12499508D01*
X8643991Y-12499508D02*
X8663039Y-12489984D01*
X8815420Y-12689984D02*
X8815420Y-12556650D01*
X8815420Y-12575698D02*
X8824944Y-12566174D01*
X8824944Y-12566174D02*
X8843991Y-12556650D01*
X8843991Y-12556650D02*
X8872563Y-12556650D01*
X8872563Y-12556650D02*
X8891610Y-12566174D01*
X8891610Y-12566174D02*
X8901134Y-12585222D01*
X8901134Y-12585222D02*
X8901134Y-12689984D01*
X8901134Y-12585222D02*
X8910658Y-12566174D01*
X8910658Y-12566174D02*
X8929705Y-12556650D01*
X8929705Y-12556650D02*
X8958277Y-12556650D01*
X8958277Y-12556650D02*
X8977325Y-12566174D01*
X8977325Y-12566174D02*
X8986848Y-12585222D01*
X8986848Y-12585222D02*
X8986848Y-12689984D01*
X9082086Y-12689984D02*
X9082086Y-12556650D01*
X9082086Y-12575698D02*
X9091610Y-12566174D01*
X9091610Y-12566174D02*
X9110658Y-12556650D01*
X9110658Y-12556650D02*
X9139229Y-12556650D01*
X9139229Y-12556650D02*
X9158277Y-12566174D01*
X9158277Y-12566174D02*
X9167801Y-12585222D01*
X9167801Y-12585222D02*
X9167801Y-12689984D01*
X9167801Y-12585222D02*
X9177325Y-12566174D01*
X9177325Y-12566174D02*
X9196372Y-12556650D01*
X9196372Y-12556650D02*
X9224944Y-12556650D01*
X9224944Y-12556650D02*
X9243991Y-12566174D01*
X9243991Y-12566174D02*
X9253515Y-12585222D01*
X9253515Y-12585222D02*
X9253515Y-12689984D01*
X9643991Y-12480460D02*
X9472563Y-12737603D01*
X9901134Y-12489984D02*
X9920182Y-12489984D01*
X9920182Y-12489984D02*
X9939229Y-12499508D01*
X9939229Y-12499508D02*
X9948753Y-12509031D01*
X9948753Y-12509031D02*
X9958277Y-12528079D01*
X9958277Y-12528079D02*
X9967801Y-12566174D01*
X9967801Y-12566174D02*
X9967801Y-12613793D01*
X9967801Y-12613793D02*
X9958277Y-12651888D01*
X9958277Y-12651888D02*
X9948753Y-12670936D01*
X9948753Y-12670936D02*
X9939229Y-12680460D01*
X9939229Y-12680460D02*
X9920182Y-12689984D01*
X9920182Y-12689984D02*
X9901134Y-12689984D01*
X9901134Y-12689984D02*
X9882087Y-12680460D01*
X9882087Y-12680460D02*
X9872563Y-12670936D01*
X9872563Y-12670936D02*
X9863039Y-12651888D01*
X9863039Y-12651888D02*
X9853515Y-12613793D01*
X9853515Y-12613793D02*
X9853515Y-12566174D01*
X9853515Y-12566174D02*
X9863039Y-12528079D01*
X9863039Y-12528079D02*
X9872563Y-12509031D01*
X9872563Y-12509031D02*
X9882087Y-12499508D01*
X9882087Y-12499508D02*
X9901134Y-12489984D01*
X10053515Y-12670936D02*
X10063039Y-12680460D01*
X10063039Y-12680460D02*
X10053515Y-12689984D01*
X10053515Y-12689984D02*
X10043991Y-12680460D01*
X10043991Y-12680460D02*
X10053515Y-12670936D01*
X10053515Y-12670936D02*
X10053515Y-12689984D01*
X10186848Y-12489984D02*
X10205896Y-12489984D01*
X10205896Y-12489984D02*
X10224944Y-12499508D01*
X10224944Y-12499508D02*
X10234468Y-12509031D01*
X10234468Y-12509031D02*
X10243991Y-12528079D01*
X10243991Y-12528079D02*
X10253515Y-12566174D01*
X10253515Y-12566174D02*
X10253515Y-12613793D01*
X10253515Y-12613793D02*
X10243991Y-12651888D01*
X10243991Y-12651888D02*
X10234468Y-12670936D01*
X10234468Y-12670936D02*
X10224944Y-12680460D01*
X10224944Y-12680460D02*
X10205896Y-12689984D01*
X10205896Y-12689984D02*
X10186848Y-12689984D01*
X10186848Y-12689984D02*
X10167801Y-12680460D01*
X10167801Y-12680460D02*
X10158277Y-12670936D01*
X10158277Y-12670936D02*
X10148753Y-12651888D01*
X10148753Y-12651888D02*
X10139229Y-12613793D01*
X10139229Y-12613793D02*
X10139229Y-12566174D01*
X10139229Y-12566174D02*
X10148753Y-12528079D01*
X10148753Y-12528079D02*
X10158277Y-12509031D01*
X10158277Y-12509031D02*
X10167801Y-12499508D01*
X10167801Y-12499508D02*
X10186848Y-12489984D01*
X10434468Y-12489984D02*
X10339229Y-12489984D01*
X10339229Y-12489984D02*
X10329706Y-12585222D01*
X10329706Y-12585222D02*
X10339229Y-12575698D01*
X10339229Y-12575698D02*
X10358277Y-12566174D01*
X10358277Y-12566174D02*
X10405896Y-12566174D01*
X10405896Y-12566174D02*
X10424944Y-12575698D01*
X10424944Y-12575698D02*
X10434468Y-12585222D01*
X10434468Y-12585222D02*
X10443991Y-12604269D01*
X10443991Y-12604269D02*
X10443991Y-12651888D01*
X10443991Y-12651888D02*
X10434468Y-12670936D01*
X10434468Y-12670936D02*
X10424944Y-12680460D01*
X10424944Y-12680460D02*
X10405896Y-12689984D01*
X10405896Y-12689984D02*
X10358277Y-12689984D01*
X10358277Y-12689984D02*
X10339229Y-12680460D01*
X10339229Y-12680460D02*
X10329706Y-12670936D01*
X10634468Y-12689984D02*
X10520182Y-12689984D01*
X10577325Y-12689984D02*
X10577325Y-12489984D01*
X10577325Y-12489984D02*
X10558277Y-12518555D01*
X10558277Y-12518555D02*
X10539229Y-12537603D01*
X10539229Y-12537603D02*
X10520182Y-12547127D01*
X10710658Y-12509031D02*
X10720182Y-12499508D01*
X10720182Y-12499508D02*
X10739229Y-12489984D01*
X10739229Y-12489984D02*
X10786849Y-12489984D01*
X10786849Y-12489984D02*
X10805896Y-12499508D01*
X10805896Y-12499508D02*
X10815420Y-12509031D01*
X10815420Y-12509031D02*
X10824944Y-12528079D01*
X10824944Y-12528079D02*
X10824944Y-12547127D01*
X10824944Y-12547127D02*
X10815420Y-12575698D01*
X10815420Y-12575698D02*
X10701134Y-12689984D01*
X10701134Y-12689984D02*
X10824944Y-12689984D01*
X10901134Y-12489984D02*
X10901134Y-12528079D01*
X10977325Y-12489984D02*
X10977325Y-12528079D01*
X11272563Y-12766174D02*
X11263039Y-12756650D01*
X11263039Y-12756650D02*
X11243991Y-12728079D01*
X11243991Y-12728079D02*
X11234468Y-12709031D01*
X11234468Y-12709031D02*
X11224944Y-12680460D01*
X11224944Y-12680460D02*
X11215420Y-12632841D01*
X11215420Y-12632841D02*
X11215420Y-12594746D01*
X11215420Y-12594746D02*
X11224944Y-12547127D01*
X11224944Y-12547127D02*
X11234468Y-12518555D01*
X11234468Y-12518555D02*
X11243991Y-12499508D01*
X11243991Y-12499508D02*
X11263039Y-12470936D01*
X11263039Y-12470936D02*
X11272563Y-12461412D01*
X11453515Y-12689984D02*
X11339229Y-12689984D01*
X11396372Y-12689984D02*
X11396372Y-12489984D01*
X11396372Y-12489984D02*
X11377325Y-12518555D01*
X11377325Y-12518555D02*
X11358277Y-12537603D01*
X11358277Y-12537603D02*
X11339229Y-12547127D01*
X11624944Y-12489984D02*
X11586848Y-12489984D01*
X11586848Y-12489984D02*
X11567801Y-12499508D01*
X11567801Y-12499508D02*
X11558277Y-12509031D01*
X11558277Y-12509031D02*
X11539229Y-12537603D01*
X11539229Y-12537603D02*
X11529706Y-12575698D01*
X11529706Y-12575698D02*
X11529706Y-12651888D01*
X11529706Y-12651888D02*
X11539229Y-12670936D01*
X11539229Y-12670936D02*
X11548753Y-12680460D01*
X11548753Y-12680460D02*
X11567801Y-12689984D01*
X11567801Y-12689984D02*
X11605896Y-12689984D01*
X11605896Y-12689984D02*
X11624944Y-12680460D01*
X11624944Y-12680460D02*
X11634468Y-12670936D01*
X11634468Y-12670936D02*
X11643991Y-12651888D01*
X11643991Y-12651888D02*
X11643991Y-12604269D01*
X11643991Y-12604269D02*
X11634468Y-12585222D01*
X11634468Y-12585222D02*
X11624944Y-12575698D01*
X11624944Y-12575698D02*
X11605896Y-12566174D01*
X11605896Y-12566174D02*
X11567801Y-12566174D01*
X11567801Y-12566174D02*
X11548753Y-12575698D01*
X11548753Y-12575698D02*
X11539229Y-12585222D01*
X11539229Y-12585222D02*
X11529706Y-12604269D01*
X11882087Y-12689984D02*
X11882087Y-12489984D01*
X11967801Y-12689984D02*
X11967801Y-12585222D01*
X11967801Y-12585222D02*
X11958277Y-12566174D01*
X11958277Y-12566174D02*
X11939230Y-12556650D01*
X11939230Y-12556650D02*
X11910658Y-12556650D01*
X11910658Y-12556650D02*
X11891610Y-12566174D01*
X11891610Y-12566174D02*
X11882087Y-12575698D01*
X12091610Y-12689984D02*
X12072563Y-12680460D01*
X12072563Y-12680460D02*
X12063039Y-12670936D01*
X12063039Y-12670936D02*
X12053515Y-12651888D01*
X12053515Y-12651888D02*
X12053515Y-12594746D01*
X12053515Y-12594746D02*
X12063039Y-12575698D01*
X12063039Y-12575698D02*
X12072563Y-12566174D01*
X12072563Y-12566174D02*
X12091610Y-12556650D01*
X12091610Y-12556650D02*
X12120182Y-12556650D01*
X12120182Y-12556650D02*
X12139230Y-12566174D01*
X12139230Y-12566174D02*
X12148753Y-12575698D01*
X12148753Y-12575698D02*
X12158277Y-12594746D01*
X12158277Y-12594746D02*
X12158277Y-12651888D01*
X12158277Y-12651888D02*
X12148753Y-12670936D01*
X12148753Y-12670936D02*
X12139230Y-12680460D01*
X12139230Y-12680460D02*
X12120182Y-12689984D01*
X12120182Y-12689984D02*
X12091610Y-12689984D01*
X12272563Y-12689984D02*
X12253515Y-12680460D01*
X12253515Y-12680460D02*
X12243991Y-12661412D01*
X12243991Y-12661412D02*
X12243991Y-12489984D01*
X12424944Y-12680460D02*
X12405896Y-12689984D01*
X12405896Y-12689984D02*
X12367801Y-12689984D01*
X12367801Y-12689984D02*
X12348753Y-12680460D01*
X12348753Y-12680460D02*
X12339230Y-12661412D01*
X12339230Y-12661412D02*
X12339230Y-12585222D01*
X12339230Y-12585222D02*
X12348753Y-12566174D01*
X12348753Y-12566174D02*
X12367801Y-12556650D01*
X12367801Y-12556650D02*
X12405896Y-12556650D01*
X12405896Y-12556650D02*
X12424944Y-12566174D01*
X12424944Y-12566174D02*
X12434468Y-12585222D01*
X12434468Y-12585222D02*
X12434468Y-12604269D01*
X12434468Y-12604269D02*
X12339230Y-12623317D01*
X12510658Y-12680460D02*
X12529706Y-12689984D01*
X12529706Y-12689984D02*
X12567801Y-12689984D01*
X12567801Y-12689984D02*
X12586849Y-12680460D01*
X12586849Y-12680460D02*
X12596372Y-12661412D01*
X12596372Y-12661412D02*
X12596372Y-12651888D01*
X12596372Y-12651888D02*
X12586849Y-12632841D01*
X12586849Y-12632841D02*
X12567801Y-12623317D01*
X12567801Y-12623317D02*
X12539230Y-12623317D01*
X12539230Y-12623317D02*
X12520182Y-12613793D01*
X12520182Y-12613793D02*
X12510658Y-12594746D01*
X12510658Y-12594746D02*
X12510658Y-12585222D01*
X12510658Y-12585222D02*
X12520182Y-12566174D01*
X12520182Y-12566174D02*
X12539230Y-12556650D01*
X12539230Y-12556650D02*
X12567801Y-12556650D01*
X12567801Y-12556650D02*
X12586849Y-12566174D01*
X12663039Y-12766174D02*
X12672563Y-12756650D01*
X12672563Y-12756650D02*
X12691611Y-12728079D01*
X12691611Y-12728079D02*
X12701134Y-12709031D01*
X12701134Y-12709031D02*
X12710658Y-12680460D01*
X12710658Y-12680460D02*
X12720182Y-12632841D01*
X12720182Y-12632841D02*
X12720182Y-12594746D01*
X12720182Y-12594746D02*
X12710658Y-12547127D01*
X12710658Y-12547127D02*
X12701134Y-12518555D01*
X12701134Y-12518555D02*
X12691611Y-12499508D01*
X12691611Y-12499508D02*
X12672563Y-12470936D01*
X12672563Y-12470936D02*
X12663039Y-12461412D01*
D12*
X7627500Y-12827500D02*
X7697500Y-12897500D01*
X7697500Y-12827500D02*
X7627500Y-12897500D01*
X7697500Y-12862500D02*
G75*
G02*
X7627500Y-12862500I-35000J0D01*
G01*
X7627500Y-12862500D02*
G75*
G02*
X7697500Y-12862500I35000J0D01*
G01*
D11*
X7996372Y-12753984D02*
X8015420Y-12753984D01*
X8015420Y-12753984D02*
X8034467Y-12763508D01*
X8034467Y-12763508D02*
X8043991Y-12773031D01*
X8043991Y-12773031D02*
X8053515Y-12792079D01*
X8053515Y-12792079D02*
X8063039Y-12830174D01*
X8063039Y-12830174D02*
X8063039Y-12877793D01*
X8063039Y-12877793D02*
X8053515Y-12915888D01*
X8053515Y-12915888D02*
X8043991Y-12934936D01*
X8043991Y-12934936D02*
X8034467Y-12944460D01*
X8034467Y-12944460D02*
X8015420Y-12953984D01*
X8015420Y-12953984D02*
X7996372Y-12953984D01*
X7996372Y-12953984D02*
X7977324Y-12944460D01*
X7977324Y-12944460D02*
X7967801Y-12934936D01*
X7967801Y-12934936D02*
X7958277Y-12915888D01*
X7958277Y-12915888D02*
X7948753Y-12877793D01*
X7948753Y-12877793D02*
X7948753Y-12830174D01*
X7948753Y-12830174D02*
X7958277Y-12792079D01*
X7958277Y-12792079D02*
X7967801Y-12773031D01*
X7967801Y-12773031D02*
X7977324Y-12763508D01*
X7977324Y-12763508D02*
X7996372Y-12753984D01*
X8148753Y-12934936D02*
X8158277Y-12944460D01*
X8158277Y-12944460D02*
X8148753Y-12953984D01*
X8148753Y-12953984D02*
X8139229Y-12944460D01*
X8139229Y-12944460D02*
X8148753Y-12934936D01*
X8148753Y-12934936D02*
X8148753Y-12953984D01*
X8224943Y-12753984D02*
X8358277Y-12753984D01*
X8358277Y-12753984D02*
X8272562Y-12953984D01*
X8472563Y-12753984D02*
X8491610Y-12753984D01*
X8491610Y-12753984D02*
X8510658Y-12763508D01*
X8510658Y-12763508D02*
X8520182Y-12773031D01*
X8520182Y-12773031D02*
X8529705Y-12792079D01*
X8529705Y-12792079D02*
X8539229Y-12830174D01*
X8539229Y-12830174D02*
X8539229Y-12877793D01*
X8539229Y-12877793D02*
X8529705Y-12915888D01*
X8529705Y-12915888D02*
X8520182Y-12934936D01*
X8520182Y-12934936D02*
X8510658Y-12944460D01*
X8510658Y-12944460D02*
X8491610Y-12953984D01*
X8491610Y-12953984D02*
X8472563Y-12953984D01*
X8472563Y-12953984D02*
X8453515Y-12944460D01*
X8453515Y-12944460D02*
X8443991Y-12934936D01*
X8443991Y-12934936D02*
X8434467Y-12915888D01*
X8434467Y-12915888D02*
X8424944Y-12877793D01*
X8424944Y-12877793D02*
X8424944Y-12830174D01*
X8424944Y-12830174D02*
X8434467Y-12792079D01*
X8434467Y-12792079D02*
X8443991Y-12773031D01*
X8443991Y-12773031D02*
X8453515Y-12763508D01*
X8453515Y-12763508D02*
X8472563Y-12753984D01*
X8663039Y-12753984D02*
X8682086Y-12753984D01*
X8682086Y-12753984D02*
X8701134Y-12763508D01*
X8701134Y-12763508D02*
X8710658Y-12773031D01*
X8710658Y-12773031D02*
X8720182Y-12792079D01*
X8720182Y-12792079D02*
X8729705Y-12830174D01*
X8729705Y-12830174D02*
X8729705Y-12877793D01*
X8729705Y-12877793D02*
X8720182Y-12915888D01*
X8720182Y-12915888D02*
X8710658Y-12934936D01*
X8710658Y-12934936D02*
X8701134Y-12944460D01*
X8701134Y-12944460D02*
X8682086Y-12953984D01*
X8682086Y-12953984D02*
X8663039Y-12953984D01*
X8663039Y-12953984D02*
X8643991Y-12944460D01*
X8643991Y-12944460D02*
X8634467Y-12934936D01*
X8634467Y-12934936D02*
X8624944Y-12915888D01*
X8624944Y-12915888D02*
X8615420Y-12877793D01*
X8615420Y-12877793D02*
X8615420Y-12830174D01*
X8615420Y-12830174D02*
X8624944Y-12792079D01*
X8624944Y-12792079D02*
X8634467Y-12773031D01*
X8634467Y-12773031D02*
X8643991Y-12763508D01*
X8643991Y-12763508D02*
X8663039Y-12753984D01*
X8815420Y-12953984D02*
X8815420Y-12820650D01*
X8815420Y-12839698D02*
X8824944Y-12830174D01*
X8824944Y-12830174D02*
X8843991Y-12820650D01*
X8843991Y-12820650D02*
X8872563Y-12820650D01*
X8872563Y-12820650D02*
X8891610Y-12830174D01*
X8891610Y-12830174D02*
X8901134Y-12849222D01*
X8901134Y-12849222D02*
X8901134Y-12953984D01*
X8901134Y-12849222D02*
X8910658Y-12830174D01*
X8910658Y-12830174D02*
X8929705Y-12820650D01*
X8929705Y-12820650D02*
X8958277Y-12820650D01*
X8958277Y-12820650D02*
X8977325Y-12830174D01*
X8977325Y-12830174D02*
X8986848Y-12849222D01*
X8986848Y-12849222D02*
X8986848Y-12953984D01*
X9082086Y-12953984D02*
X9082086Y-12820650D01*
X9082086Y-12839698D02*
X9091610Y-12830174D01*
X9091610Y-12830174D02*
X9110658Y-12820650D01*
X9110658Y-12820650D02*
X9139229Y-12820650D01*
X9139229Y-12820650D02*
X9158277Y-12830174D01*
X9158277Y-12830174D02*
X9167801Y-12849222D01*
X9167801Y-12849222D02*
X9167801Y-12953984D01*
X9167801Y-12849222D02*
X9177325Y-12830174D01*
X9177325Y-12830174D02*
X9196372Y-12820650D01*
X9196372Y-12820650D02*
X9224944Y-12820650D01*
X9224944Y-12820650D02*
X9243991Y-12830174D01*
X9243991Y-12830174D02*
X9253515Y-12849222D01*
X9253515Y-12849222D02*
X9253515Y-12953984D01*
X9643991Y-12744460D02*
X9472563Y-13001603D01*
X9901134Y-12753984D02*
X9920182Y-12753984D01*
X9920182Y-12753984D02*
X9939229Y-12763508D01*
X9939229Y-12763508D02*
X9948753Y-12773031D01*
X9948753Y-12773031D02*
X9958277Y-12792079D01*
X9958277Y-12792079D02*
X9967801Y-12830174D01*
X9967801Y-12830174D02*
X9967801Y-12877793D01*
X9967801Y-12877793D02*
X9958277Y-12915888D01*
X9958277Y-12915888D02*
X9948753Y-12934936D01*
X9948753Y-12934936D02*
X9939229Y-12944460D01*
X9939229Y-12944460D02*
X9920182Y-12953984D01*
X9920182Y-12953984D02*
X9901134Y-12953984D01*
X9901134Y-12953984D02*
X9882087Y-12944460D01*
X9882087Y-12944460D02*
X9872563Y-12934936D01*
X9872563Y-12934936D02*
X9863039Y-12915888D01*
X9863039Y-12915888D02*
X9853515Y-12877793D01*
X9853515Y-12877793D02*
X9853515Y-12830174D01*
X9853515Y-12830174D02*
X9863039Y-12792079D01*
X9863039Y-12792079D02*
X9872563Y-12773031D01*
X9872563Y-12773031D02*
X9882087Y-12763508D01*
X9882087Y-12763508D02*
X9901134Y-12753984D01*
X10053515Y-12934936D02*
X10063039Y-12944460D01*
X10063039Y-12944460D02*
X10053515Y-12953984D01*
X10053515Y-12953984D02*
X10043991Y-12944460D01*
X10043991Y-12944460D02*
X10053515Y-12934936D01*
X10053515Y-12934936D02*
X10053515Y-12953984D01*
X10186848Y-12753984D02*
X10205896Y-12753984D01*
X10205896Y-12753984D02*
X10224944Y-12763508D01*
X10224944Y-12763508D02*
X10234468Y-12773031D01*
X10234468Y-12773031D02*
X10243991Y-12792079D01*
X10243991Y-12792079D02*
X10253515Y-12830174D01*
X10253515Y-12830174D02*
X10253515Y-12877793D01*
X10253515Y-12877793D02*
X10243991Y-12915888D01*
X10243991Y-12915888D02*
X10234468Y-12934936D01*
X10234468Y-12934936D02*
X10224944Y-12944460D01*
X10224944Y-12944460D02*
X10205896Y-12953984D01*
X10205896Y-12953984D02*
X10186848Y-12953984D01*
X10186848Y-12953984D02*
X10167801Y-12944460D01*
X10167801Y-12944460D02*
X10158277Y-12934936D01*
X10158277Y-12934936D02*
X10148753Y-12915888D01*
X10148753Y-12915888D02*
X10139229Y-12877793D01*
X10139229Y-12877793D02*
X10139229Y-12830174D01*
X10139229Y-12830174D02*
X10148753Y-12792079D01*
X10148753Y-12792079D02*
X10158277Y-12773031D01*
X10158277Y-12773031D02*
X10167801Y-12763508D01*
X10167801Y-12763508D02*
X10186848Y-12753984D01*
X10329706Y-12773031D02*
X10339229Y-12763508D01*
X10339229Y-12763508D02*
X10358277Y-12753984D01*
X10358277Y-12753984D02*
X10405896Y-12753984D01*
X10405896Y-12753984D02*
X10424944Y-12763508D01*
X10424944Y-12763508D02*
X10434468Y-12773031D01*
X10434468Y-12773031D02*
X10443991Y-12792079D01*
X10443991Y-12792079D02*
X10443991Y-12811127D01*
X10443991Y-12811127D02*
X10434468Y-12839698D01*
X10434468Y-12839698D02*
X10320182Y-12953984D01*
X10320182Y-12953984D02*
X10443991Y-12953984D01*
X10510658Y-12753984D02*
X10643991Y-12753984D01*
X10643991Y-12753984D02*
X10558277Y-12953984D01*
X10805896Y-12753984D02*
X10767801Y-12753984D01*
X10767801Y-12753984D02*
X10748753Y-12763508D01*
X10748753Y-12763508D02*
X10739229Y-12773031D01*
X10739229Y-12773031D02*
X10720182Y-12801603D01*
X10720182Y-12801603D02*
X10710658Y-12839698D01*
X10710658Y-12839698D02*
X10710658Y-12915888D01*
X10710658Y-12915888D02*
X10720182Y-12934936D01*
X10720182Y-12934936D02*
X10729706Y-12944460D01*
X10729706Y-12944460D02*
X10748753Y-12953984D01*
X10748753Y-12953984D02*
X10786849Y-12953984D01*
X10786849Y-12953984D02*
X10805896Y-12944460D01*
X10805896Y-12944460D02*
X10815420Y-12934936D01*
X10815420Y-12934936D02*
X10824944Y-12915888D01*
X10824944Y-12915888D02*
X10824944Y-12868269D01*
X10824944Y-12868269D02*
X10815420Y-12849222D01*
X10815420Y-12849222D02*
X10805896Y-12839698D01*
X10805896Y-12839698D02*
X10786849Y-12830174D01*
X10786849Y-12830174D02*
X10748753Y-12830174D01*
X10748753Y-12830174D02*
X10729706Y-12839698D01*
X10729706Y-12839698D02*
X10720182Y-12849222D01*
X10720182Y-12849222D02*
X10710658Y-12868269D01*
X10901134Y-12753984D02*
X10901134Y-12792079D01*
X10977325Y-12753984D02*
X10977325Y-12792079D01*
X11272563Y-13030174D02*
X11263039Y-13020650D01*
X11263039Y-13020650D02*
X11243991Y-12992079D01*
X11243991Y-12992079D02*
X11234468Y-12973031D01*
X11234468Y-12973031D02*
X11224944Y-12944460D01*
X11224944Y-12944460D02*
X11215420Y-12896841D01*
X11215420Y-12896841D02*
X11215420Y-12858746D01*
X11215420Y-12858746D02*
X11224944Y-12811127D01*
X11224944Y-12811127D02*
X11234468Y-12782555D01*
X11234468Y-12782555D02*
X11243991Y-12763508D01*
X11243991Y-12763508D02*
X11263039Y-12734936D01*
X11263039Y-12734936D02*
X11272563Y-12725412D01*
X11339229Y-12773031D02*
X11348753Y-12763508D01*
X11348753Y-12763508D02*
X11367801Y-12753984D01*
X11367801Y-12753984D02*
X11415420Y-12753984D01*
X11415420Y-12753984D02*
X11434468Y-12763508D01*
X11434468Y-12763508D02*
X11443991Y-12773031D01*
X11443991Y-12773031D02*
X11453515Y-12792079D01*
X11453515Y-12792079D02*
X11453515Y-12811127D01*
X11453515Y-12811127D02*
X11443991Y-12839698D01*
X11443991Y-12839698D02*
X11329706Y-12953984D01*
X11329706Y-12953984D02*
X11453515Y-12953984D01*
X11691610Y-12953984D02*
X11691610Y-12753984D01*
X11777325Y-12953984D02*
X11777325Y-12849222D01*
X11777325Y-12849222D02*
X11767801Y-12830174D01*
X11767801Y-12830174D02*
X11748753Y-12820650D01*
X11748753Y-12820650D02*
X11720182Y-12820650D01*
X11720182Y-12820650D02*
X11701134Y-12830174D01*
X11701134Y-12830174D02*
X11691610Y-12839698D01*
X11901134Y-12953984D02*
X11882087Y-12944460D01*
X11882087Y-12944460D02*
X11872563Y-12934936D01*
X11872563Y-12934936D02*
X11863039Y-12915888D01*
X11863039Y-12915888D02*
X11863039Y-12858746D01*
X11863039Y-12858746D02*
X11872563Y-12839698D01*
X11872563Y-12839698D02*
X11882087Y-12830174D01*
X11882087Y-12830174D02*
X11901134Y-12820650D01*
X11901134Y-12820650D02*
X11929706Y-12820650D01*
X11929706Y-12820650D02*
X11948753Y-12830174D01*
X11948753Y-12830174D02*
X11958277Y-12839698D01*
X11958277Y-12839698D02*
X11967801Y-12858746D01*
X11967801Y-12858746D02*
X11967801Y-12915888D01*
X11967801Y-12915888D02*
X11958277Y-12934936D01*
X11958277Y-12934936D02*
X11948753Y-12944460D01*
X11948753Y-12944460D02*
X11929706Y-12953984D01*
X11929706Y-12953984D02*
X11901134Y-12953984D01*
X12082087Y-12953984D02*
X12063039Y-12944460D01*
X12063039Y-12944460D02*
X12053515Y-12925412D01*
X12053515Y-12925412D02*
X12053515Y-12753984D01*
X12234468Y-12944460D02*
X12215420Y-12953984D01*
X12215420Y-12953984D02*
X12177325Y-12953984D01*
X12177325Y-12953984D02*
X12158277Y-12944460D01*
X12158277Y-12944460D02*
X12148753Y-12925412D01*
X12148753Y-12925412D02*
X12148753Y-12849222D01*
X12148753Y-12849222D02*
X12158277Y-12830174D01*
X12158277Y-12830174D02*
X12177325Y-12820650D01*
X12177325Y-12820650D02*
X12215420Y-12820650D01*
X12215420Y-12820650D02*
X12234468Y-12830174D01*
X12234468Y-12830174D02*
X12243991Y-12849222D01*
X12243991Y-12849222D02*
X12243991Y-12868269D01*
X12243991Y-12868269D02*
X12148753Y-12887317D01*
X12320182Y-12944460D02*
X12339230Y-12953984D01*
X12339230Y-12953984D02*
X12377325Y-12953984D01*
X12377325Y-12953984D02*
X12396372Y-12944460D01*
X12396372Y-12944460D02*
X12405896Y-12925412D01*
X12405896Y-12925412D02*
X12405896Y-12915888D01*
X12405896Y-12915888D02*
X12396372Y-12896841D01*
X12396372Y-12896841D02*
X12377325Y-12887317D01*
X12377325Y-12887317D02*
X12348753Y-12887317D01*
X12348753Y-12887317D02*
X12329706Y-12877793D01*
X12329706Y-12877793D02*
X12320182Y-12858746D01*
X12320182Y-12858746D02*
X12320182Y-12849222D01*
X12320182Y-12849222D02*
X12329706Y-12830174D01*
X12329706Y-12830174D02*
X12348753Y-12820650D01*
X12348753Y-12820650D02*
X12377325Y-12820650D01*
X12377325Y-12820650D02*
X12396372Y-12830174D01*
X12472563Y-13030174D02*
X12482087Y-13020650D01*
X12482087Y-13020650D02*
X12501134Y-12992079D01*
X12501134Y-12992079D02*
X12510658Y-12973031D01*
X12510658Y-12973031D02*
X12520182Y-12944460D01*
X12520182Y-12944460D02*
X12529706Y-12896841D01*
X12529706Y-12896841D02*
X12529706Y-12858746D01*
X12529706Y-12858746D02*
X12520182Y-12811127D01*
X12520182Y-12811127D02*
X12510658Y-12782555D01*
X12510658Y-12782555D02*
X12501134Y-12763508D01*
X12501134Y-12763508D02*
X12482087Y-12734936D01*
X12482087Y-12734936D02*
X12472563Y-12725412D01*
X12834468Y-13030174D02*
X12824944Y-13020650D01*
X12824944Y-13020650D02*
X12805896Y-12992079D01*
X12805896Y-12992079D02*
X12796372Y-12973031D01*
X12796372Y-12973031D02*
X12786849Y-12944460D01*
X12786849Y-12944460D02*
X12777325Y-12896841D01*
X12777325Y-12896841D02*
X12777325Y-12858746D01*
X12777325Y-12858746D02*
X12786849Y-12811127D01*
X12786849Y-12811127D02*
X12796372Y-12782555D01*
X12796372Y-12782555D02*
X12805896Y-12763508D01*
X12805896Y-12763508D02*
X12824944Y-12734936D01*
X12824944Y-12734936D02*
X12834468Y-12725412D01*
X12910658Y-12820650D02*
X12910658Y-12953984D01*
X12910658Y-12839698D02*
X12920182Y-12830174D01*
X12920182Y-12830174D02*
X12939230Y-12820650D01*
X12939230Y-12820650D02*
X12967801Y-12820650D01*
X12967801Y-12820650D02*
X12986849Y-12830174D01*
X12986849Y-12830174D02*
X12996372Y-12849222D01*
X12996372Y-12849222D02*
X12996372Y-12953984D01*
X13120182Y-12953984D02*
X13101134Y-12944460D01*
X13101134Y-12944460D02*
X13091611Y-12934936D01*
X13091611Y-12934936D02*
X13082087Y-12915888D01*
X13082087Y-12915888D02*
X13082087Y-12858746D01*
X13082087Y-12858746D02*
X13091611Y-12839698D01*
X13091611Y-12839698D02*
X13101134Y-12830174D01*
X13101134Y-12830174D02*
X13120182Y-12820650D01*
X13120182Y-12820650D02*
X13148753Y-12820650D01*
X13148753Y-12820650D02*
X13167801Y-12830174D01*
X13167801Y-12830174D02*
X13177325Y-12839698D01*
X13177325Y-12839698D02*
X13186849Y-12858746D01*
X13186849Y-12858746D02*
X13186849Y-12915888D01*
X13186849Y-12915888D02*
X13177325Y-12934936D01*
X13177325Y-12934936D02*
X13167801Y-12944460D01*
X13167801Y-12944460D02*
X13148753Y-12953984D01*
X13148753Y-12953984D02*
X13120182Y-12953984D01*
X13243992Y-12820650D02*
X13320182Y-12820650D01*
X13272563Y-12753984D02*
X13272563Y-12925412D01*
X13272563Y-12925412D02*
X13282087Y-12944460D01*
X13282087Y-12944460D02*
X13301134Y-12953984D01*
X13301134Y-12953984D02*
X13320182Y-12953984D01*
X13539230Y-12820650D02*
X13539230Y-13020650D01*
X13539230Y-12830174D02*
X13558277Y-12820650D01*
X13558277Y-12820650D02*
X13596373Y-12820650D01*
X13596373Y-12820650D02*
X13615420Y-12830174D01*
X13615420Y-12830174D02*
X13624944Y-12839698D01*
X13624944Y-12839698D02*
X13634468Y-12858746D01*
X13634468Y-12858746D02*
X13634468Y-12915888D01*
X13634468Y-12915888D02*
X13624944Y-12934936D01*
X13624944Y-12934936D02*
X13615420Y-12944460D01*
X13615420Y-12944460D02*
X13596373Y-12953984D01*
X13596373Y-12953984D02*
X13558277Y-12953984D01*
X13558277Y-12953984D02*
X13539230Y-12944460D01*
X13748753Y-12953984D02*
X13729706Y-12944460D01*
X13729706Y-12944460D02*
X13720182Y-12925412D01*
X13720182Y-12925412D02*
X13720182Y-12753984D01*
X13910658Y-12953984D02*
X13910658Y-12849222D01*
X13910658Y-12849222D02*
X13901134Y-12830174D01*
X13901134Y-12830174D02*
X13882087Y-12820650D01*
X13882087Y-12820650D02*
X13843992Y-12820650D01*
X13843992Y-12820650D02*
X13824944Y-12830174D01*
X13910658Y-12944460D02*
X13891611Y-12953984D01*
X13891611Y-12953984D02*
X13843992Y-12953984D01*
X13843992Y-12953984D02*
X13824944Y-12944460D01*
X13824944Y-12944460D02*
X13815420Y-12925412D01*
X13815420Y-12925412D02*
X13815420Y-12906365D01*
X13815420Y-12906365D02*
X13824944Y-12887317D01*
X13824944Y-12887317D02*
X13843992Y-12877793D01*
X13843992Y-12877793D02*
X13891611Y-12877793D01*
X13891611Y-12877793D02*
X13910658Y-12868269D01*
X13977325Y-12820650D02*
X14053515Y-12820650D01*
X14005896Y-12753984D02*
X14005896Y-12925412D01*
X14005896Y-12925412D02*
X14015420Y-12944460D01*
X14015420Y-12944460D02*
X14034468Y-12953984D01*
X14034468Y-12953984D02*
X14053515Y-12953984D01*
X14196373Y-12944460D02*
X14177325Y-12953984D01*
X14177325Y-12953984D02*
X14139230Y-12953984D01*
X14139230Y-12953984D02*
X14120182Y-12944460D01*
X14120182Y-12944460D02*
X14110658Y-12925412D01*
X14110658Y-12925412D02*
X14110658Y-12849222D01*
X14110658Y-12849222D02*
X14120182Y-12830174D01*
X14120182Y-12830174D02*
X14139230Y-12820650D01*
X14139230Y-12820650D02*
X14177325Y-12820650D01*
X14177325Y-12820650D02*
X14196373Y-12830174D01*
X14196373Y-12830174D02*
X14205896Y-12849222D01*
X14205896Y-12849222D02*
X14205896Y-12868269D01*
X14205896Y-12868269D02*
X14110658Y-12887317D01*
X14377325Y-12953984D02*
X14377325Y-12753984D01*
X14377325Y-12944460D02*
X14358277Y-12953984D01*
X14358277Y-12953984D02*
X14320182Y-12953984D01*
X14320182Y-12953984D02*
X14301134Y-12944460D01*
X14301134Y-12944460D02*
X14291611Y-12934936D01*
X14291611Y-12934936D02*
X14282087Y-12915888D01*
X14282087Y-12915888D02*
X14282087Y-12858746D01*
X14282087Y-12858746D02*
X14291611Y-12839698D01*
X14291611Y-12839698D02*
X14301134Y-12830174D01*
X14301134Y-12830174D02*
X14320182Y-12820650D01*
X14320182Y-12820650D02*
X14358277Y-12820650D01*
X14358277Y-12820650D02*
X14377325Y-12830174D01*
X14453515Y-13030174D02*
X14463039Y-13020650D01*
X14463039Y-13020650D02*
X14482087Y-12992079D01*
X14482087Y-12992079D02*
X14491611Y-12973031D01*
X14491611Y-12973031D02*
X14501134Y-12944460D01*
X14501134Y-12944460D02*
X14510658Y-12896841D01*
X14510658Y-12896841D02*
X14510658Y-12858746D01*
X14510658Y-12858746D02*
X14501134Y-12811127D01*
X14501134Y-12811127D02*
X14491611Y-12782555D01*
X14491611Y-12782555D02*
X14482087Y-12763508D01*
X14482087Y-12763508D02*
X14463039Y-12734936D01*
X14463039Y-12734936D02*
X14453515Y-12725412D01*
X7497500Y-13026500D02*
X7697500Y-13226500D01*
X7697500Y-13026500D02*
X7497500Y-13226500D01*
X7597500Y-13026500D02*
X7597500Y-13226500D01*
X7497500Y-13126500D02*
X7697500Y-13126500D01*
X7939229Y-13017984D02*
X8063039Y-13017984D01*
X8063039Y-13017984D02*
X7996372Y-13094174D01*
X7996372Y-13094174D02*
X8024943Y-13094174D01*
X8024943Y-13094174D02*
X8043991Y-13103698D01*
X8043991Y-13103698D02*
X8053515Y-13113222D01*
X8053515Y-13113222D02*
X8063039Y-13132269D01*
X8063039Y-13132269D02*
X8063039Y-13179888D01*
X8063039Y-13179888D02*
X8053515Y-13198936D01*
X8053515Y-13198936D02*
X8043991Y-13208460D01*
X8043991Y-13208460D02*
X8024943Y-13217984D01*
X8024943Y-13217984D02*
X7967801Y-13217984D01*
X7967801Y-13217984D02*
X7948753Y-13208460D01*
X7948753Y-13208460D02*
X7939229Y-13198936D01*
X8148753Y-13198936D02*
X8158277Y-13208460D01*
X8158277Y-13208460D02*
X8148753Y-13217984D01*
X8148753Y-13217984D02*
X8139229Y-13208460D01*
X8139229Y-13208460D02*
X8148753Y-13198936D01*
X8148753Y-13198936D02*
X8148753Y-13217984D01*
X8234467Y-13037031D02*
X8243991Y-13027508D01*
X8243991Y-13027508D02*
X8263039Y-13017984D01*
X8263039Y-13017984D02*
X8310658Y-13017984D01*
X8310658Y-13017984D02*
X8329705Y-13027508D01*
X8329705Y-13027508D02*
X8339229Y-13037031D01*
X8339229Y-13037031D02*
X8348753Y-13056079D01*
X8348753Y-13056079D02*
X8348753Y-13075127D01*
X8348753Y-13075127D02*
X8339229Y-13103698D01*
X8339229Y-13103698D02*
X8224943Y-13217984D01*
X8224943Y-13217984D02*
X8348753Y-13217984D01*
X8472563Y-13017984D02*
X8491610Y-13017984D01*
X8491610Y-13017984D02*
X8510658Y-13027508D01*
X8510658Y-13027508D02*
X8520182Y-13037031D01*
X8520182Y-13037031D02*
X8529705Y-13056079D01*
X8529705Y-13056079D02*
X8539229Y-13094174D01*
X8539229Y-13094174D02*
X8539229Y-13141793D01*
X8539229Y-13141793D02*
X8529705Y-13179888D01*
X8529705Y-13179888D02*
X8520182Y-13198936D01*
X8520182Y-13198936D02*
X8510658Y-13208460D01*
X8510658Y-13208460D02*
X8491610Y-13217984D01*
X8491610Y-13217984D02*
X8472563Y-13217984D01*
X8472563Y-13217984D02*
X8453515Y-13208460D01*
X8453515Y-13208460D02*
X8443991Y-13198936D01*
X8443991Y-13198936D02*
X8434467Y-13179888D01*
X8434467Y-13179888D02*
X8424944Y-13141793D01*
X8424944Y-13141793D02*
X8424944Y-13094174D01*
X8424944Y-13094174D02*
X8434467Y-13056079D01*
X8434467Y-13056079D02*
X8443991Y-13037031D01*
X8443991Y-13037031D02*
X8453515Y-13027508D01*
X8453515Y-13027508D02*
X8472563Y-13017984D01*
X8663039Y-13017984D02*
X8682086Y-13017984D01*
X8682086Y-13017984D02*
X8701134Y-13027508D01*
X8701134Y-13027508D02*
X8710658Y-13037031D01*
X8710658Y-13037031D02*
X8720182Y-13056079D01*
X8720182Y-13056079D02*
X8729705Y-13094174D01*
X8729705Y-13094174D02*
X8729705Y-13141793D01*
X8729705Y-13141793D02*
X8720182Y-13179888D01*
X8720182Y-13179888D02*
X8710658Y-13198936D01*
X8710658Y-13198936D02*
X8701134Y-13208460D01*
X8701134Y-13208460D02*
X8682086Y-13217984D01*
X8682086Y-13217984D02*
X8663039Y-13217984D01*
X8663039Y-13217984D02*
X8643991Y-13208460D01*
X8643991Y-13208460D02*
X8634467Y-13198936D01*
X8634467Y-13198936D02*
X8624944Y-13179888D01*
X8624944Y-13179888D02*
X8615420Y-13141793D01*
X8615420Y-13141793D02*
X8615420Y-13094174D01*
X8615420Y-13094174D02*
X8624944Y-13056079D01*
X8624944Y-13056079D02*
X8634467Y-13037031D01*
X8634467Y-13037031D02*
X8643991Y-13027508D01*
X8643991Y-13027508D02*
X8663039Y-13017984D01*
X8815420Y-13217984D02*
X8815420Y-13084650D01*
X8815420Y-13103698D02*
X8824944Y-13094174D01*
X8824944Y-13094174D02*
X8843991Y-13084650D01*
X8843991Y-13084650D02*
X8872563Y-13084650D01*
X8872563Y-13084650D02*
X8891610Y-13094174D01*
X8891610Y-13094174D02*
X8901134Y-13113222D01*
X8901134Y-13113222D02*
X8901134Y-13217984D01*
X8901134Y-13113222D02*
X8910658Y-13094174D01*
X8910658Y-13094174D02*
X8929705Y-13084650D01*
X8929705Y-13084650D02*
X8958277Y-13084650D01*
X8958277Y-13084650D02*
X8977325Y-13094174D01*
X8977325Y-13094174D02*
X8986848Y-13113222D01*
X8986848Y-13113222D02*
X8986848Y-13217984D01*
X9082086Y-13217984D02*
X9082086Y-13084650D01*
X9082086Y-13103698D02*
X9091610Y-13094174D01*
X9091610Y-13094174D02*
X9110658Y-13084650D01*
X9110658Y-13084650D02*
X9139229Y-13084650D01*
X9139229Y-13084650D02*
X9158277Y-13094174D01*
X9158277Y-13094174D02*
X9167801Y-13113222D01*
X9167801Y-13113222D02*
X9167801Y-13217984D01*
X9167801Y-13113222D02*
X9177325Y-13094174D01*
X9177325Y-13094174D02*
X9196372Y-13084650D01*
X9196372Y-13084650D02*
X9224944Y-13084650D01*
X9224944Y-13084650D02*
X9243991Y-13094174D01*
X9243991Y-13094174D02*
X9253515Y-13113222D01*
X9253515Y-13113222D02*
X9253515Y-13217984D01*
X9643991Y-13008460D02*
X9472563Y-13265603D01*
X9901134Y-13017984D02*
X9920182Y-13017984D01*
X9920182Y-13017984D02*
X9939229Y-13027508D01*
X9939229Y-13027508D02*
X9948753Y-13037031D01*
X9948753Y-13037031D02*
X9958277Y-13056079D01*
X9958277Y-13056079D02*
X9967801Y-13094174D01*
X9967801Y-13094174D02*
X9967801Y-13141793D01*
X9967801Y-13141793D02*
X9958277Y-13179888D01*
X9958277Y-13179888D02*
X9948753Y-13198936D01*
X9948753Y-13198936D02*
X9939229Y-13208460D01*
X9939229Y-13208460D02*
X9920182Y-13217984D01*
X9920182Y-13217984D02*
X9901134Y-13217984D01*
X9901134Y-13217984D02*
X9882087Y-13208460D01*
X9882087Y-13208460D02*
X9872563Y-13198936D01*
X9872563Y-13198936D02*
X9863039Y-13179888D01*
X9863039Y-13179888D02*
X9853515Y-13141793D01*
X9853515Y-13141793D02*
X9853515Y-13094174D01*
X9853515Y-13094174D02*
X9863039Y-13056079D01*
X9863039Y-13056079D02*
X9872563Y-13037031D01*
X9872563Y-13037031D02*
X9882087Y-13027508D01*
X9882087Y-13027508D02*
X9901134Y-13017984D01*
X10053515Y-13198936D02*
X10063039Y-13208460D01*
X10063039Y-13208460D02*
X10053515Y-13217984D01*
X10053515Y-13217984D02*
X10043991Y-13208460D01*
X10043991Y-13208460D02*
X10053515Y-13198936D01*
X10053515Y-13198936D02*
X10053515Y-13217984D01*
X10253515Y-13217984D02*
X10139229Y-13217984D01*
X10196372Y-13217984D02*
X10196372Y-13017984D01*
X10196372Y-13017984D02*
X10177325Y-13046555D01*
X10177325Y-13046555D02*
X10158277Y-13065603D01*
X10158277Y-13065603D02*
X10139229Y-13075127D01*
X10329706Y-13037031D02*
X10339229Y-13027508D01*
X10339229Y-13027508D02*
X10358277Y-13017984D01*
X10358277Y-13017984D02*
X10405896Y-13017984D01*
X10405896Y-13017984D02*
X10424944Y-13027508D01*
X10424944Y-13027508D02*
X10434468Y-13037031D01*
X10434468Y-13037031D02*
X10443991Y-13056079D01*
X10443991Y-13056079D02*
X10443991Y-13075127D01*
X10443991Y-13075127D02*
X10434468Y-13103698D01*
X10434468Y-13103698D02*
X10320182Y-13217984D01*
X10320182Y-13217984D02*
X10443991Y-13217984D01*
X10615420Y-13017984D02*
X10577325Y-13017984D01*
X10577325Y-13017984D02*
X10558277Y-13027508D01*
X10558277Y-13027508D02*
X10548753Y-13037031D01*
X10548753Y-13037031D02*
X10529706Y-13065603D01*
X10529706Y-13065603D02*
X10520182Y-13103698D01*
X10520182Y-13103698D02*
X10520182Y-13179888D01*
X10520182Y-13179888D02*
X10529706Y-13198936D01*
X10529706Y-13198936D02*
X10539229Y-13208460D01*
X10539229Y-13208460D02*
X10558277Y-13217984D01*
X10558277Y-13217984D02*
X10596372Y-13217984D01*
X10596372Y-13217984D02*
X10615420Y-13208460D01*
X10615420Y-13208460D02*
X10624944Y-13198936D01*
X10624944Y-13198936D02*
X10634468Y-13179888D01*
X10634468Y-13179888D02*
X10634468Y-13132269D01*
X10634468Y-13132269D02*
X10624944Y-13113222D01*
X10624944Y-13113222D02*
X10615420Y-13103698D01*
X10615420Y-13103698D02*
X10596372Y-13094174D01*
X10596372Y-13094174D02*
X10558277Y-13094174D01*
X10558277Y-13094174D02*
X10539229Y-13103698D01*
X10539229Y-13103698D02*
X10529706Y-13113222D01*
X10529706Y-13113222D02*
X10520182Y-13132269D01*
X10758277Y-13017984D02*
X10777325Y-13017984D01*
X10777325Y-13017984D02*
X10796372Y-13027508D01*
X10796372Y-13027508D02*
X10805896Y-13037031D01*
X10805896Y-13037031D02*
X10815420Y-13056079D01*
X10815420Y-13056079D02*
X10824944Y-13094174D01*
X10824944Y-13094174D02*
X10824944Y-13141793D01*
X10824944Y-13141793D02*
X10815420Y-13179888D01*
X10815420Y-13179888D02*
X10805896Y-13198936D01*
X10805896Y-13198936D02*
X10796372Y-13208460D01*
X10796372Y-13208460D02*
X10777325Y-13217984D01*
X10777325Y-13217984D02*
X10758277Y-13217984D01*
X10758277Y-13217984D02*
X10739229Y-13208460D01*
X10739229Y-13208460D02*
X10729706Y-13198936D01*
X10729706Y-13198936D02*
X10720182Y-13179888D01*
X10720182Y-13179888D02*
X10710658Y-13141793D01*
X10710658Y-13141793D02*
X10710658Y-13094174D01*
X10710658Y-13094174D02*
X10720182Y-13056079D01*
X10720182Y-13056079D02*
X10729706Y-13037031D01*
X10729706Y-13037031D02*
X10739229Y-13027508D01*
X10739229Y-13027508D02*
X10758277Y-13017984D01*
X10901134Y-13017984D02*
X10901134Y-13056079D01*
X10977325Y-13017984D02*
X10977325Y-13056079D01*
X11272563Y-13294174D02*
X11263039Y-13284650D01*
X11263039Y-13284650D02*
X11243991Y-13256079D01*
X11243991Y-13256079D02*
X11234468Y-13237031D01*
X11234468Y-13237031D02*
X11224944Y-13208460D01*
X11224944Y-13208460D02*
X11215420Y-13160841D01*
X11215420Y-13160841D02*
X11215420Y-13122746D01*
X11215420Y-13122746D02*
X11224944Y-13075127D01*
X11224944Y-13075127D02*
X11234468Y-13046555D01*
X11234468Y-13046555D02*
X11243991Y-13027508D01*
X11243991Y-13027508D02*
X11263039Y-12998936D01*
X11263039Y-12998936D02*
X11272563Y-12989412D01*
X11434468Y-13084650D02*
X11434468Y-13217984D01*
X11386848Y-13008460D02*
X11339229Y-13151317D01*
X11339229Y-13151317D02*
X11463039Y-13151317D01*
X11691610Y-13217984D02*
X11691610Y-13017984D01*
X11777325Y-13217984D02*
X11777325Y-13113222D01*
X11777325Y-13113222D02*
X11767801Y-13094174D01*
X11767801Y-13094174D02*
X11748753Y-13084650D01*
X11748753Y-13084650D02*
X11720182Y-13084650D01*
X11720182Y-13084650D02*
X11701134Y-13094174D01*
X11701134Y-13094174D02*
X11691610Y-13103698D01*
X11901134Y-13217984D02*
X11882087Y-13208460D01*
X11882087Y-13208460D02*
X11872563Y-13198936D01*
X11872563Y-13198936D02*
X11863039Y-13179888D01*
X11863039Y-13179888D02*
X11863039Y-13122746D01*
X11863039Y-13122746D02*
X11872563Y-13103698D01*
X11872563Y-13103698D02*
X11882087Y-13094174D01*
X11882087Y-13094174D02*
X11901134Y-13084650D01*
X11901134Y-13084650D02*
X11929706Y-13084650D01*
X11929706Y-13084650D02*
X11948753Y-13094174D01*
X11948753Y-13094174D02*
X11958277Y-13103698D01*
X11958277Y-13103698D02*
X11967801Y-13122746D01*
X11967801Y-13122746D02*
X11967801Y-13179888D01*
X11967801Y-13179888D02*
X11958277Y-13198936D01*
X11958277Y-13198936D02*
X11948753Y-13208460D01*
X11948753Y-13208460D02*
X11929706Y-13217984D01*
X11929706Y-13217984D02*
X11901134Y-13217984D01*
X12082087Y-13217984D02*
X12063039Y-13208460D01*
X12063039Y-13208460D02*
X12053515Y-13189412D01*
X12053515Y-13189412D02*
X12053515Y-13017984D01*
X12234468Y-13208460D02*
X12215420Y-13217984D01*
X12215420Y-13217984D02*
X12177325Y-13217984D01*
X12177325Y-13217984D02*
X12158277Y-13208460D01*
X12158277Y-13208460D02*
X12148753Y-13189412D01*
X12148753Y-13189412D02*
X12148753Y-13113222D01*
X12148753Y-13113222D02*
X12158277Y-13094174D01*
X12158277Y-13094174D02*
X12177325Y-13084650D01*
X12177325Y-13084650D02*
X12215420Y-13084650D01*
X12215420Y-13084650D02*
X12234468Y-13094174D01*
X12234468Y-13094174D02*
X12243991Y-13113222D01*
X12243991Y-13113222D02*
X12243991Y-13132269D01*
X12243991Y-13132269D02*
X12148753Y-13151317D01*
X12320182Y-13208460D02*
X12339230Y-13217984D01*
X12339230Y-13217984D02*
X12377325Y-13217984D01*
X12377325Y-13217984D02*
X12396372Y-13208460D01*
X12396372Y-13208460D02*
X12405896Y-13189412D01*
X12405896Y-13189412D02*
X12405896Y-13179888D01*
X12405896Y-13179888D02*
X12396372Y-13160841D01*
X12396372Y-13160841D02*
X12377325Y-13151317D01*
X12377325Y-13151317D02*
X12348753Y-13151317D01*
X12348753Y-13151317D02*
X12329706Y-13141793D01*
X12329706Y-13141793D02*
X12320182Y-13122746D01*
X12320182Y-13122746D02*
X12320182Y-13113222D01*
X12320182Y-13113222D02*
X12329706Y-13094174D01*
X12329706Y-13094174D02*
X12348753Y-13084650D01*
X12348753Y-13084650D02*
X12377325Y-13084650D01*
X12377325Y-13084650D02*
X12396372Y-13094174D01*
X12472563Y-13294174D02*
X12482087Y-13284650D01*
X12482087Y-13284650D02*
X12501134Y-13256079D01*
X12501134Y-13256079D02*
X12510658Y-13237031D01*
X12510658Y-13237031D02*
X12520182Y-13208460D01*
X12520182Y-13208460D02*
X12529706Y-13160841D01*
X12529706Y-13160841D02*
X12529706Y-13122746D01*
X12529706Y-13122746D02*
X12520182Y-13075127D01*
X12520182Y-13075127D02*
X12510658Y-13046555D01*
X12510658Y-13046555D02*
X12501134Y-13027508D01*
X12501134Y-13027508D02*
X12482087Y-12998936D01*
X12482087Y-12998936D02*
X12472563Y-12989412D01*
X12834468Y-13294174D02*
X12824944Y-13284650D01*
X12824944Y-13284650D02*
X12805896Y-13256079D01*
X12805896Y-13256079D02*
X12796372Y-13237031D01*
X12796372Y-13237031D02*
X12786849Y-13208460D01*
X12786849Y-13208460D02*
X12777325Y-13160841D01*
X12777325Y-13160841D02*
X12777325Y-13122746D01*
X12777325Y-13122746D02*
X12786849Y-13075127D01*
X12786849Y-13075127D02*
X12796372Y-13046555D01*
X12796372Y-13046555D02*
X12805896Y-13027508D01*
X12805896Y-13027508D02*
X12824944Y-12998936D01*
X12824944Y-12998936D02*
X12834468Y-12989412D01*
X12910658Y-13084650D02*
X12910658Y-13217984D01*
X12910658Y-13103698D02*
X12920182Y-13094174D01*
X12920182Y-13094174D02*
X12939230Y-13084650D01*
X12939230Y-13084650D02*
X12967801Y-13084650D01*
X12967801Y-13084650D02*
X12986849Y-13094174D01*
X12986849Y-13094174D02*
X12996372Y-13113222D01*
X12996372Y-13113222D02*
X12996372Y-13217984D01*
X13120182Y-13217984D02*
X13101134Y-13208460D01*
X13101134Y-13208460D02*
X13091611Y-13198936D01*
X13091611Y-13198936D02*
X13082087Y-13179888D01*
X13082087Y-13179888D02*
X13082087Y-13122746D01*
X13082087Y-13122746D02*
X13091611Y-13103698D01*
X13091611Y-13103698D02*
X13101134Y-13094174D01*
X13101134Y-13094174D02*
X13120182Y-13084650D01*
X13120182Y-13084650D02*
X13148753Y-13084650D01*
X13148753Y-13084650D02*
X13167801Y-13094174D01*
X13167801Y-13094174D02*
X13177325Y-13103698D01*
X13177325Y-13103698D02*
X13186849Y-13122746D01*
X13186849Y-13122746D02*
X13186849Y-13179888D01*
X13186849Y-13179888D02*
X13177325Y-13198936D01*
X13177325Y-13198936D02*
X13167801Y-13208460D01*
X13167801Y-13208460D02*
X13148753Y-13217984D01*
X13148753Y-13217984D02*
X13120182Y-13217984D01*
X13243992Y-13084650D02*
X13320182Y-13084650D01*
X13272563Y-13017984D02*
X13272563Y-13189412D01*
X13272563Y-13189412D02*
X13282087Y-13208460D01*
X13282087Y-13208460D02*
X13301134Y-13217984D01*
X13301134Y-13217984D02*
X13320182Y-13217984D01*
X13539230Y-13084650D02*
X13539230Y-13284650D01*
X13539230Y-13094174D02*
X13558277Y-13084650D01*
X13558277Y-13084650D02*
X13596373Y-13084650D01*
X13596373Y-13084650D02*
X13615420Y-13094174D01*
X13615420Y-13094174D02*
X13624944Y-13103698D01*
X13624944Y-13103698D02*
X13634468Y-13122746D01*
X13634468Y-13122746D02*
X13634468Y-13179888D01*
X13634468Y-13179888D02*
X13624944Y-13198936D01*
X13624944Y-13198936D02*
X13615420Y-13208460D01*
X13615420Y-13208460D02*
X13596373Y-13217984D01*
X13596373Y-13217984D02*
X13558277Y-13217984D01*
X13558277Y-13217984D02*
X13539230Y-13208460D01*
X13748753Y-13217984D02*
X13729706Y-13208460D01*
X13729706Y-13208460D02*
X13720182Y-13189412D01*
X13720182Y-13189412D02*
X13720182Y-13017984D01*
X13910658Y-13217984D02*
X13910658Y-13113222D01*
X13910658Y-13113222D02*
X13901134Y-13094174D01*
X13901134Y-13094174D02*
X13882087Y-13084650D01*
X13882087Y-13084650D02*
X13843992Y-13084650D01*
X13843992Y-13084650D02*
X13824944Y-13094174D01*
X13910658Y-13208460D02*
X13891611Y-13217984D01*
X13891611Y-13217984D02*
X13843992Y-13217984D01*
X13843992Y-13217984D02*
X13824944Y-13208460D01*
X13824944Y-13208460D02*
X13815420Y-13189412D01*
X13815420Y-13189412D02*
X13815420Y-13170365D01*
X13815420Y-13170365D02*
X13824944Y-13151317D01*
X13824944Y-13151317D02*
X13843992Y-13141793D01*
X13843992Y-13141793D02*
X13891611Y-13141793D01*
X13891611Y-13141793D02*
X13910658Y-13132269D01*
X13977325Y-13084650D02*
X14053515Y-13084650D01*
X14005896Y-13017984D02*
X14005896Y-13189412D01*
X14005896Y-13189412D02*
X14015420Y-13208460D01*
X14015420Y-13208460D02*
X14034468Y-13217984D01*
X14034468Y-13217984D02*
X14053515Y-13217984D01*
X14196373Y-13208460D02*
X14177325Y-13217984D01*
X14177325Y-13217984D02*
X14139230Y-13217984D01*
X14139230Y-13217984D02*
X14120182Y-13208460D01*
X14120182Y-13208460D02*
X14110658Y-13189412D01*
X14110658Y-13189412D02*
X14110658Y-13113222D01*
X14110658Y-13113222D02*
X14120182Y-13094174D01*
X14120182Y-13094174D02*
X14139230Y-13084650D01*
X14139230Y-13084650D02*
X14177325Y-13084650D01*
X14177325Y-13084650D02*
X14196373Y-13094174D01*
X14196373Y-13094174D02*
X14205896Y-13113222D01*
X14205896Y-13113222D02*
X14205896Y-13132269D01*
X14205896Y-13132269D02*
X14110658Y-13151317D01*
X14377325Y-13217984D02*
X14377325Y-13017984D01*
X14377325Y-13208460D02*
X14358277Y-13217984D01*
X14358277Y-13217984D02*
X14320182Y-13217984D01*
X14320182Y-13217984D02*
X14301134Y-13208460D01*
X14301134Y-13208460D02*
X14291611Y-13198936D01*
X14291611Y-13198936D02*
X14282087Y-13179888D01*
X14282087Y-13179888D02*
X14282087Y-13122746D01*
X14282087Y-13122746D02*
X14291611Y-13103698D01*
X14291611Y-13103698D02*
X14301134Y-13094174D01*
X14301134Y-13094174D02*
X14320182Y-13084650D01*
X14320182Y-13084650D02*
X14358277Y-13084650D01*
X14358277Y-13084650D02*
X14377325Y-13094174D01*
X14453515Y-13294174D02*
X14463039Y-13284650D01*
X14463039Y-13284650D02*
X14482087Y-13256079D01*
X14482087Y-13256079D02*
X14491611Y-13237031D01*
X14491611Y-13237031D02*
X14501134Y-13208460D01*
X14501134Y-13208460D02*
X14510658Y-13160841D01*
X14510658Y-13160841D02*
X14510658Y-13122746D01*
X14510658Y-13122746D02*
X14501134Y-13075127D01*
X14501134Y-13075127D02*
X14491611Y-13046555D01*
X14491611Y-13046555D02*
X14482087Y-13027508D01*
X14482087Y-13027508D02*
X14463039Y-12998936D01*
X14463039Y-12998936D02*
X14453515Y-12989412D01*
M02*
