%TF.GenerationSoftware,KiCad,Pcbnew,9.0.8-9.0.8~ubuntu24.04.1*%
%TF.CreationDate,2026-04-28T13:52:03-07:00*%
%TF.ProjectId,barn-blinds-controller,6261726e-2d62-46c6-996e-64732d636f6e,rev?*%
%TF.SameCoordinates,Original*%
%TF.FileFunction,Copper,L4,Bot*%
%TF.FilePolarity,Positive*%
%FSLAX46Y46*%
G04 Gerber Fmt 4.6, Leading zero omitted, Abs format (unit mm)*
G04 Created by KiCad (PCBNEW 9.0.8-9.0.8~ubuntu24.04.1) date 2026-04-28 13:52:03*
%MOMM*%
%LPD*%
G01*
G04 APERTURE LIST*
G04 Aperture macros list*
%AMRoundRect*
0 Rectangle with rounded corners*
0 $1 Rounding radius*
0 $2 $3 $4 $5 $6 $7 $8 $9 X,Y pos of 4 corners*
0 Add a 4 corners polygon primitive as box body*
4,1,4,$2,$3,$4,$5,$6,$7,$8,$9,$2,$3,0*
0 Add four circle primitives for the rounded corners*
1,1,$1+$1,$2,$3*
1,1,$1+$1,$4,$5*
1,1,$1+$1,$6,$7*
1,1,$1+$1,$8,$9*
0 Add four rect primitives between the rounded corners*
20,1,$1+$1,$2,$3,$4,$5,0*
20,1,$1+$1,$4,$5,$6,$7,0*
20,1,$1+$1,$6,$7,$8,$9,0*
20,1,$1+$1,$8,$9,$2,$3,0*%
G04 Aperture macros list end*
%TA.AperFunction,ComponentPad*%
%ADD10C,2.000000*%
%TD*%
%TA.AperFunction,ComponentPad*%
%ADD11R,3.500000X3.500000*%
%TD*%
%TA.AperFunction,ComponentPad*%
%ADD12RoundRect,0.750000X0.750000X1.000000X-0.750000X1.000000X-0.750000X-1.000000X0.750000X-1.000000X0*%
%TD*%
%TA.AperFunction,ComponentPad*%
%ADD13RoundRect,0.875000X0.875000X0.875000X-0.875000X0.875000X-0.875000X-0.875000X0.875000X-0.875000X0*%
%TD*%
%TA.AperFunction,ComponentPad*%
%ADD14O,1.850000X1.050000*%
%TD*%
%TA.AperFunction,ComponentPad*%
%ADD15O,2.150000X1.050000*%
%TD*%
%TA.AperFunction,ComponentPad*%
%ADD16C,1.600000*%
%TD*%
%TA.AperFunction,SMDPad,CuDef*%
%ADD17RoundRect,0.250000X-0.250000X-0.475000X0.250000X-0.475000X0.250000X0.475000X-0.250000X0.475000X0*%
%TD*%
%TA.AperFunction,SMDPad,CuDef*%
%ADD18RoundRect,0.225000X0.225000X0.250000X-0.225000X0.250000X-0.225000X-0.250000X0.225000X-0.250000X0*%
%TD*%
%TA.AperFunction,SMDPad,CuDef*%
%ADD19RoundRect,0.225000X-0.250000X0.225000X-0.250000X-0.225000X0.250000X-0.225000X0.250000X0.225000X0*%
%TD*%
%TA.AperFunction,SMDPad,CuDef*%
%ADD20RoundRect,0.250000X1.450000X-0.312500X1.450000X0.312500X-1.450000X0.312500X-1.450000X-0.312500X0*%
%TD*%
%TA.AperFunction,SMDPad,CuDef*%
%ADD21RoundRect,0.225000X-0.225000X-0.250000X0.225000X-0.250000X0.225000X0.250000X-0.225000X0.250000X0*%
%TD*%
%TA.AperFunction,SMDPad,CuDef*%
%ADD22RoundRect,0.225000X0.250000X-0.225000X0.250000X0.225000X-0.250000X0.225000X-0.250000X-0.225000X0*%
%TD*%
%TA.AperFunction,SMDPad,CuDef*%
%ADD23RoundRect,0.250000X0.250000X0.475000X-0.250000X0.475000X-0.250000X-0.475000X0.250000X-0.475000X0*%
%TD*%
%TA.AperFunction,SMDPad,CuDef*%
%ADD24RoundRect,0.200000X0.200000X0.275000X-0.200000X0.275000X-0.200000X-0.275000X0.200000X-0.275000X0*%
%TD*%
%TA.AperFunction,SMDPad,CuDef*%
%ADD25RoundRect,0.250000X0.900000X-1.000000X0.900000X1.000000X-0.900000X1.000000X-0.900000X-1.000000X0*%
%TD*%
%TA.AperFunction,SMDPad,CuDef*%
%ADD26RoundRect,0.250000X-0.900000X1.000000X-0.900000X-1.000000X0.900000X-1.000000X0.900000X1.000000X0*%
%TD*%
%TA.AperFunction,SMDPad,CuDef*%
%ADD27RoundRect,0.200000X-0.200000X-0.275000X0.200000X-0.275000X0.200000X0.275000X-0.200000X0.275000X0*%
%TD*%
%TA.AperFunction,SMDPad,CuDef*%
%ADD28RoundRect,0.250000X-1.450000X0.312500X-1.450000X-0.312500X1.450000X-0.312500X1.450000X0.312500X0*%
%TD*%
%TA.AperFunction,SMDPad,CuDef*%
%ADD29RoundRect,0.200000X0.275000X-0.200000X0.275000X0.200000X-0.275000X0.200000X-0.275000X-0.200000X0*%
%TD*%
%TA.AperFunction,ViaPad*%
%ADD30C,0.600000*%
%TD*%
%TA.AperFunction,ViaPad*%
%ADD31C,0.450000*%
%TD*%
%TA.AperFunction,Conductor*%
%ADD32C,1.000000*%
%TD*%
%TA.AperFunction,Conductor*%
%ADD33C,0.200000*%
%TD*%
%TA.AperFunction,Conductor*%
%ADD34C,0.600000*%
%TD*%
G04 APERTURE END LIST*
D10*
%TO.P,J3,1,1*%
%TO.N,U3_A02*%
X131203352Y-88468518D03*
X139403352Y-88468518D03*
%TO.P,J3,2,2*%
%TO.N,Net-(D7-Pad2)*%
X131203352Y-84968518D03*
X139403352Y-84968518D03*
%TO.P,J3,3,3*%
%TO.N,U3_B02*%
X131203352Y-81468518D03*
X139403352Y-81468518D03*
%TO.P,J3,4,4*%
%TO.N,Net-(D6-Pad2)*%
X131203352Y-77968518D03*
X139403352Y-77968518D03*
%TO.P,J3,5,5*%
%TO.N,U2_A02*%
X131203352Y-74468518D03*
X139403352Y-74468518D03*
%TO.P,J3,6,6*%
%TO.N,Net-(D5-Pad2)*%
X131203352Y-70968518D03*
X139403352Y-70968518D03*
%TO.P,J3,7,7*%
%TO.N,U2_B02*%
X131203352Y-67468518D03*
X139403352Y-67468518D03*
%TO.P,J3,8,8*%
%TO.N,Net-(D4-Pad1)*%
X131203352Y-63968518D03*
X139403352Y-63968518D03*
%TD*%
D11*
%TO.P,J1,1*%
%TO.N,Net-(D1-A)*%
X131696898Y-97000000D03*
D12*
%TO.P,J1,2*%
%TO.N,GND_MOTOR*%
X137696898Y-97000000D03*
D13*
%TO.P,J1,3*%
%TO.N,N/C*%
X134696898Y-92300000D03*
%TD*%
D14*
%TO.P,J2,SH1,SHIELD*%
%TO.N,GND_ISO*%
X79658888Y-90449931D03*
%TO.P,J2,SH2,SHIELD*%
X79658888Y-99089931D03*
D15*
%TO.P,J2,SH3,SHIELD*%
X83808888Y-90449931D03*
%TO.P,J2,SH4,SHIELD*%
X83808888Y-99089931D03*
%TD*%
D16*
%TO.P,U1,1,+Vin*%
%TO.N,+12V_RAW*%
X113770000Y-103030000D03*
%TO.P,U1,2,-Vin*%
%TO.N,GND_MOTOR*%
X113770000Y-92870000D03*
X111230000Y-103030000D03*
%TO.P,U1,3,+Vout*%
%TO.N,+5V_ISO*%
X101070000Y-103030000D03*
X95990000Y-103030000D03*
%TO.P,U1,4,-Vout*%
%TO.N,GND_ISO*%
X106150000Y-103030000D03*
X98530000Y-103030000D03*
%TO.P,U1,NC*%
%TO.N,N/C*%
X103610000Y-103030000D03*
X98530000Y-92870000D03*
X95990000Y-92870000D03*
%TD*%
D17*
%TO.P,C_VM_A2,1*%
%TO.N,+12V*%
X119454639Y-89750144D03*
%TO.P,C_VM_A2,2*%
%TO.N,GND_MOTOR*%
X121354639Y-89750144D03*
%TD*%
D18*
%TO.P,C_VM_B1,1*%
%TO.N,+12V*%
X120275000Y-69482060D03*
%TO.P,C_VM_B1,2*%
%TO.N,GND_MOTOR*%
X118725000Y-69482060D03*
%TD*%
D19*
%TO.P,C_ISO_D1,1*%
%TO.N,+3.3V_MOTOR*%
X111000000Y-75203750D03*
%TO.P,C_ISO_D1,2*%
%TO.N,GND_MOTOR*%
X111000000Y-76753750D03*
%TD*%
D18*
%TO.P,C7,1*%
%TO.N,+3.3V_ISO*%
X89275000Y-60000000D03*
%TO.P,C7,2*%
%TO.N,GND_ISO*%
X87725000Y-60000000D03*
%TD*%
D20*
%TO.P,F2,1*%
%TO.N,U2_A01*%
X135000000Y-74637500D03*
%TO.P,F2,2*%
%TO.N,Net-(D5-Pad2)*%
X135000000Y-70362500D03*
%TD*%
D21*
%TO.P,C_TMP1,1*%
%TO.N,+3.3V_ISO*%
X104725000Y-54000000D03*
%TO.P,C_TMP1,2*%
%TO.N,GND_ISO*%
X106275000Y-54000000D03*
%TD*%
D22*
%TO.P,C_ISO_E1,1*%
%TO.N,GND_ISO*%
X109500000Y-84865000D03*
%TO.P,C_ISO_E1,2*%
%TO.N,+3.3V_ISO*%
X109500000Y-83315000D03*
%TD*%
D20*
%TO.P,F4,1*%
%TO.N,U3_A01*%
X135000000Y-88637500D03*
%TO.P,F4,2*%
%TO.N,Net-(D7-Pad2)*%
X135000000Y-84362500D03*
%TD*%
D23*
%TO.P,C9,1*%
%TO.N,+12V*%
X111875345Y-53000000D03*
%TO.P,C9,2*%
%TO.N,GND_MOTOR*%
X109975345Y-53000000D03*
%TD*%
%TO.P,C4,1*%
%TO.N,+5V_OR*%
X91450000Y-77500000D03*
%TO.P,C4,2*%
%TO.N,GND_ISO*%
X89550000Y-77500000D03*
%TD*%
D17*
%TO.P,C1,1*%
%TO.N,+12V_RAW*%
X117283198Y-103000000D03*
%TO.P,C1,2*%
%TO.N,GND_MOTOR*%
X119183198Y-103000000D03*
%TD*%
D21*
%TO.P,C_FILT1,1*%
%TO.N,Net-(U11-BW_SEL)*%
X109225000Y-59500000D03*
%TO.P,C_FILT1,2*%
%TO.N,GND_ISO*%
X110775000Y-59500000D03*
%TD*%
D18*
%TO.P,C6,1*%
%TO.N,+3.3V_ISO*%
X91275000Y-83500000D03*
%TO.P,C6,2*%
%TO.N,GND_ISO*%
X89725000Y-83500000D03*
%TD*%
D24*
%TO.P,R6,1*%
%TO.N,+3.3V_MOTOR*%
X120325000Y-67935648D03*
%TO.P,R6,2*%
%TO.N,/PWM_M1*%
X118675000Y-67935648D03*
%TD*%
%TO.P,R5,1*%
%TO.N,+3.3V_ISO*%
X91325000Y-79500000D03*
%TO.P,R5,2*%
%TO.N,Net-(U3-EN)*%
X89675000Y-79500000D03*
%TD*%
D23*
%TO.P,C_VM_A1,1*%
%TO.N,+12V*%
X120450000Y-61500000D03*
%TO.P,C_VM_A1,2*%
%TO.N,GND_MOTOR*%
X118550000Y-61500000D03*
%TD*%
D19*
%TO.P,C_ISO_B1,1*%
%TO.N,+3.3V_MOTOR*%
X111000000Y-67225000D03*
%TO.P,C_ISO_B1,2*%
%TO.N,GND_MOTOR*%
X111000000Y-68775000D03*
%TD*%
D25*
%TO.P,D6,1*%
%TO.N,U3_B02*%
X126000000Y-85150000D03*
%TO.P,D6,2*%
%TO.N,Net-(D6-Pad2)*%
X126000000Y-80850000D03*
%TD*%
D26*
%TO.P,D4,1*%
%TO.N,Net-(D4-Pad1)*%
X126000000Y-62350000D03*
%TO.P,D4,2*%
%TO.N,U2_B02*%
X126000000Y-66650000D03*
%TD*%
D21*
%TO.P,C_VM_B2,1*%
%TO.N,+12V*%
X119629639Y-86469541D03*
%TO.P,C_VM_B2,2*%
%TO.N,GND_MOTOR*%
X121179639Y-86469541D03*
%TD*%
D22*
%TO.P,C_ISO_C1,1*%
%TO.N,GND_ISO*%
X109500000Y-76753750D03*
%TO.P,C_ISO_C1,2*%
%TO.N,+3.3V_ISO*%
X109500000Y-75203750D03*
%TD*%
D27*
%TO.P,R7,1*%
%TO.N,/PWM_M2*%
X118675000Y-63296412D03*
%TO.P,R7,2*%
%TO.N,+3.3V_MOTOR*%
X120325000Y-63296412D03*
%TD*%
D23*
%TO.P,C8,1*%
%TO.N,+3.3V_ISO*%
X89450000Y-58000000D03*
%TO.P,C8,2*%
%TO.N,GND_ISO*%
X87550000Y-58000000D03*
%TD*%
D17*
%TO.P,C10,1*%
%TO.N,+3.3V_MOTOR*%
X109975345Y-55000000D03*
%TO.P,C10,2*%
%TO.N,GND_MOTOR*%
X111875345Y-55000000D03*
%TD*%
D25*
%TO.P,D7,1*%
%TO.N,U3_A02*%
X126000000Y-94650000D03*
%TO.P,D7,2*%
%TO.N,Net-(D7-Pad2)*%
X126000000Y-90350000D03*
%TD*%
D22*
%TO.P,C_ISO_A1,1*%
%TO.N,GND_ISO*%
X109500000Y-68775000D03*
%TO.P,C_ISO_A1,2*%
%TO.N,+3.3V_ISO*%
X109500000Y-67225000D03*
%TD*%
D23*
%TO.P,C5,1*%
%TO.N,+3.3V_ISO*%
X91450000Y-81500000D03*
%TO.P,C5,2*%
%TO.N,GND_ISO*%
X89550000Y-81500000D03*
%TD*%
D27*
%TO.P,R_BOOT1,1*%
%TO.N,Net-(U3-GPIO0{slash}BOOT)*%
X103511782Y-77409507D03*
%TO.P,R_BOOT1,2*%
%TO.N,+3.3V_ISO*%
X105161782Y-77409507D03*
%TD*%
D25*
%TO.P,D5,1*%
%TO.N,U2_A02*%
X126000000Y-75150000D03*
%TO.P,D5,2*%
%TO.N,Net-(D5-Pad2)*%
X126000000Y-70850000D03*
%TD*%
D28*
%TO.P,F3,1*%
%TO.N,Net-(D6-Pad2)*%
X135000000Y-77362500D03*
%TO.P,F3,2*%
%TO.N,U3_B01*%
X135000000Y-81637500D03*
%TD*%
D29*
%TO.P,R_LED1,1*%
%TO.N,Net-(D3-Pad2)*%
X79571542Y-68562966D03*
%TO.P,R_LED1,2*%
%TO.N,Net-(U3-GPIO16{slash}U0CTS{slash}ADC2_CH5{slash}XTAL_32K_N)*%
X79571542Y-66912966D03*
%TD*%
D27*
%TO.P,R9,1*%
%TO.N,/PWM_M4*%
X119579639Y-83438938D03*
%TO.P,R9,2*%
%TO.N,+3.3V_MOTOR*%
X121229639Y-83438938D03*
%TD*%
D18*
%TO.P,C_ACS1,1*%
%TO.N,+3.3V_ISO*%
X106275000Y-61000000D03*
%TO.P,C_ACS1,2*%
%TO.N,GND_ISO*%
X104725000Y-61000000D03*
%TD*%
D21*
%TO.P,C_VCC_B1,1*%
%TO.N,+3.3V_MOTOR*%
X118725000Y-66389236D03*
%TO.P,C_VCC_B1,2*%
%TO.N,GND_MOTOR*%
X120275000Y-66389236D03*
%TD*%
D18*
%TO.P,C_ACS2,1*%
%TO.N,/GPIO14*%
X106275000Y-63000000D03*
%TO.P,C_ACS2,2*%
%TO.N,GND_ISO*%
X104725000Y-63000000D03*
%TD*%
D24*
%TO.P,R8,1*%
%TO.N,+3.3V_MOTOR*%
X121229639Y-87984843D03*
%TO.P,R8,2*%
%TO.N,/PWM_M3*%
X119579639Y-87984843D03*
%TD*%
D27*
%TO.P,R10,1*%
%TO.N,/STBY*%
X118675000Y-64842824D03*
%TO.P,R10,2*%
%TO.N,GND_MOTOR*%
X120325000Y-64842824D03*
%TD*%
D21*
%TO.P,C_VCC_B2,1*%
%TO.N,+3.3V_MOTOR*%
X119629639Y-84954240D03*
%TO.P,C_VCC_B2,2*%
%TO.N,GND_MOTOR*%
X121179639Y-84954240D03*
%TD*%
D18*
%TO.P,C3,1*%
%TO.N,+5V_ISO*%
X96775000Y-99000000D03*
%TO.P,C3,2*%
%TO.N,GND_ISO*%
X95225000Y-99000000D03*
%TD*%
D23*
%TO.P,C_VCC_A2,1*%
%TO.N,+3.3V_MOTOR*%
X110950000Y-63385732D03*
%TO.P,C_VCC_A2,2*%
%TO.N,GND_MOTOR*%
X109050000Y-63385732D03*
%TD*%
D20*
%TO.P,F1,1*%
%TO.N,U2_B01*%
X135000000Y-67637500D03*
%TO.P,F1,2*%
%TO.N,Net-(D4-Pad1)*%
X135000000Y-63362500D03*
%TD*%
D19*
%TO.P,C_ISO_F1,1*%
%TO.N,+3.3V_MOTOR*%
X111000000Y-83315000D03*
%TO.P,C_ISO_F1,2*%
%TO.N,GND_MOTOR*%
X111000000Y-84865000D03*
%TD*%
D23*
%TO.P,C_VCC_A1,1*%
%TO.N,+3.3V_MOTOR*%
X110950000Y-61317866D03*
%TO.P,C_VCC_A1,2*%
%TO.N,GND_MOTOR*%
X109050000Y-61317866D03*
%TD*%
D30*
%TO.N,+12V*%
X113500000Y-60730000D03*
X113500000Y-59460000D03*
X120000000Y-69000000D03*
X119000000Y-90326507D03*
X119000000Y-86500000D03*
X116500000Y-62000000D03*
X117000000Y-69500000D03*
X120000000Y-62000000D03*
X118000000Y-83500000D03*
X117879206Y-54658149D03*
X114075345Y-51657427D03*
X117329806Y-76144158D03*
%TO.N,+12V_RAW*%
X113500000Y-63270000D03*
X113500000Y-62000000D03*
X126000000Y-103000000D03*
%TO.N,GND_ISO*%
X105851188Y-54423812D03*
X107000000Y-64500000D03*
D31*
X80000000Y-96000000D03*
D30*
X109000000Y-86000000D03*
X89175000Y-83500000D03*
X89000000Y-72000000D03*
X93000000Y-80500000D03*
X89000000Y-68500000D03*
X94500000Y-99000000D03*
X103409781Y-80709669D03*
X110500000Y-59000000D03*
D31*
X87000000Y-94500000D03*
D30*
X109554363Y-68347086D03*
X98000000Y-85500000D03*
X102000000Y-76500000D03*
X87000000Y-87000000D03*
X88000000Y-58000000D03*
X83500000Y-101500000D03*
X109284298Y-77296862D03*
X89000000Y-77500000D03*
X104000000Y-94500000D03*
X98000000Y-60500000D03*
X97500000Y-64500000D03*
X89000000Y-81500000D03*
X101500000Y-57500000D03*
X101000000Y-63000000D03*
X87500000Y-59500000D03*
X81500000Y-60000000D03*
X79500000Y-79500000D03*
X104000000Y-90000000D03*
%TO.N,+5V_ISO*%
X86700000Y-101500000D03*
%TO.N,+5V_OR*%
X93500000Y-78500000D03*
%TO.N,+3.3V_ISO*%
X104500000Y-54500000D03*
X109000000Y-82500000D03*
X86000000Y-58500000D03*
X89500000Y-59500000D03*
X106000000Y-60500000D03*
X90000000Y-58000000D03*
X97000000Y-79500000D03*
X106751240Y-73638853D03*
X109402704Y-66759130D03*
X108000000Y-63500000D03*
%TO.N,+3.3V_MOTOR*%
X121000000Y-68000000D03*
X110955127Y-66678933D03*
X107775345Y-53957427D03*
X120722916Y-87940786D03*
X119000000Y-84954240D03*
X118245581Y-66392919D03*
X114075345Y-53957427D03*
X121000000Y-63500000D03*
X113500000Y-81000000D03*
X110395037Y-63355869D03*
X110938337Y-75320336D03*
X111270000Y-82500000D03*
X120722916Y-83394881D03*
X114015064Y-77490999D03*
%TO.N,/GPIO14*%
X106601397Y-62477078D03*
X99500000Y-70000000D03*
%TO.N,Net-(D4-Pad1)*%
X135000000Y-63968518D03*
%TO.N,Net-(D3-Pad2)*%
X79582799Y-69133816D03*
%TO.N,U2_A02*%
X125500000Y-74000000D03*
%TO.N,U2_B02*%
X127000000Y-65500000D03*
%TO.N,U2_A01*%
X123000000Y-71000000D03*
%TO.N,U2_B01*%
X134500000Y-66000000D03*
%TO.N,U3_A01*%
X133000000Y-90000000D03*
%TO.N,U3_B01*%
X133000000Y-80000000D03*
%TO.N,Net-(U11-BW_SEL)*%
X109000000Y-60000000D03*
%TO.N,/STBY*%
X118000000Y-65500000D03*
X115905447Y-86999999D03*
%TO.N,/PWM_M1*%
X118000000Y-68000000D03*
%TO.N,/PWM_M2*%
X118000000Y-63500000D03*
%TO.N,/PWM_M3*%
X118500000Y-88500000D03*
%TO.N,/PWM_M4*%
X119259289Y-83759289D03*
%TO.N,Net-(U3-EN)*%
X86000000Y-60000000D03*
X87000000Y-81000000D03*
X85000000Y-76000000D03*
%TO.N,Net-(U3-GPIO0{slash}BOOT)*%
X103503423Y-77977721D03*
X102000000Y-80500000D03*
%TO.N,Net-(U3-GPIO16{slash}U0CTS{slash}ADC2_CH5{slash}XTAL_32K_N)*%
X86000000Y-67500000D03*
%TO.N,/ISO_PWM_M1*%
X102000000Y-64860000D03*
X106471589Y-69538599D03*
%TO.N,/ISO_M3_CLOSE*%
X102000000Y-72500000D03*
X106500000Y-85140000D03*
%TO.N,GND_MOTOR*%
X122000000Y-89750144D03*
X121825000Y-86469541D03*
X122000000Y-67500000D03*
X119000000Y-57500000D03*
X122000000Y-73500000D03*
X111000000Y-78000000D03*
D31*
X116874518Y-65198575D03*
D30*
X121825000Y-84954240D03*
X111908880Y-55720499D03*
X123800000Y-67500000D03*
X110500000Y-65000000D03*
X111000000Y-85500000D03*
X120000000Y-65000000D03*
X138000000Y-80000000D03*
X122500000Y-57500000D03*
X119000000Y-62000000D03*
X132500000Y-100500000D03*
D31*
X117000000Y-86350000D03*
D30*
X132000000Y-55500000D03*
X109858596Y-52329053D03*
X110955127Y-68228933D03*
X119000000Y-70000000D03*
X138000000Y-69500000D03*
X120500000Y-95500000D03*
X120000000Y-66500000D03*
X115000000Y-80500000D03*
%TO.N,Net-(D5-Pad2)*%
X135000000Y-70968518D03*
%TO.N,Net-(D6-Pad2)*%
X135000000Y-77968518D03*
%TO.N,Net-(D7-Pad2)*%
X135000000Y-84968518D03*
%TD*%
D32*
%TO.N,+12V*%
X112732772Y-53000000D02*
X114075345Y-51657427D01*
X119000000Y-86500000D02*
X119599180Y-86500000D01*
X120000000Y-62000000D02*
X120000000Y-61950000D01*
X120000000Y-61950000D02*
X120450000Y-61500000D01*
X115230000Y-60730000D02*
X113500000Y-60730000D01*
X111875345Y-53000000D02*
X112732772Y-53000000D01*
X113500000Y-60730000D02*
X113500000Y-59460000D01*
X119599180Y-86500000D02*
X119629639Y-86469541D01*
X116500000Y-62000000D02*
X115230000Y-60730000D01*
%TO.N,+12V_RAW*%
X112270000Y-64500000D02*
X112270000Y-101530000D01*
X113770000Y-103030000D02*
X117253198Y-103030000D01*
X113500000Y-63270000D02*
X112270000Y-64500000D01*
X126000000Y-103500000D02*
X126000000Y-103000000D01*
X117283198Y-103000000D02*
X117283198Y-103725000D01*
X112270000Y-101530000D02*
X113770000Y-103030000D01*
X113500000Y-63270000D02*
X113500000Y-62000000D01*
X117283198Y-103725000D02*
X118058198Y-104500000D01*
X118058198Y-104500000D02*
X125000000Y-104500000D01*
X117253198Y-103030000D02*
X117283198Y-103000000D01*
X125000000Y-104500000D02*
X126000000Y-103500000D01*
D33*
%TO.N,GND_ISO*%
X89175000Y-83500000D02*
X89725000Y-83500000D01*
X104725000Y-63000000D02*
X104725000Y-61000000D01*
X109554363Y-68720637D02*
X109500000Y-68775000D01*
X89000000Y-81500000D02*
X89550000Y-81500000D01*
X109554363Y-68347086D02*
X109554363Y-68720637D01*
D34*
X104725000Y-63000000D02*
X101000000Y-63000000D01*
D33*
X89000000Y-77500000D02*
X89550000Y-77500000D01*
X94500000Y-99000000D02*
X95225000Y-99000000D01*
X109500000Y-84865000D02*
X109500000Y-85500000D01*
X109500000Y-85500000D02*
X109000000Y-86000000D01*
%TO.N,+5V_ISO*%
X95990000Y-103030000D02*
X88230000Y-103030000D01*
X88230000Y-103030000D02*
X86700000Y-101500000D01*
X95990000Y-99785000D02*
X96775000Y-99000000D01*
X101070000Y-103030000D02*
X99970000Y-104130000D01*
X99970000Y-104130000D02*
X97090000Y-104130000D01*
X97090000Y-104130000D02*
X95990000Y-103030000D01*
X95990000Y-103030000D02*
X95990000Y-99785000D01*
%TO.N,+5V_OR*%
X93500000Y-78500000D02*
X92450000Y-78500000D01*
X92450000Y-78500000D02*
X91450000Y-77500000D01*
%TO.N,+3.3V_ISO*%
X106702174Y-73879723D02*
X106702174Y-74521574D01*
X91275000Y-83500000D02*
X91275000Y-81675000D01*
X106702174Y-74521574D02*
X105161782Y-76061966D01*
X109402704Y-67127704D02*
X109500000Y-67225000D01*
X106751240Y-73928790D02*
X106911225Y-74088775D01*
X108026201Y-75203750D02*
X106911225Y-74088775D01*
X106911225Y-74088775D02*
X106702174Y-73879723D01*
X109402704Y-66759130D02*
X109402704Y-67127704D01*
X106000000Y-60725000D02*
X106275000Y-61000000D01*
X109500000Y-75203750D02*
X108026201Y-75203750D01*
X91450000Y-79625000D02*
X91325000Y-79500000D01*
X91325000Y-79500000D02*
X97000000Y-79500000D01*
X106000000Y-60500000D02*
X106000000Y-60725000D01*
X109500000Y-83000000D02*
X109000000Y-82500000D01*
X91275000Y-81675000D02*
X91450000Y-81500000D01*
X106751240Y-73638853D02*
X106751240Y-73928790D01*
X105161782Y-77409507D02*
X105161782Y-76061966D01*
X91450000Y-81500000D02*
X91450000Y-79625000D01*
X109500000Y-83315000D02*
X109500000Y-83000000D01*
%TO.N,+3.3V_MOTOR*%
X110950000Y-61317866D02*
X110950000Y-63385732D01*
X120389352Y-68000000D02*
X120325000Y-67935648D01*
X110955127Y-67180127D02*
X111000000Y-67225000D01*
X121000000Y-63500000D02*
X120528588Y-63500000D01*
X118721317Y-66392919D02*
X118725000Y-66389236D01*
X121185582Y-87940786D02*
X121229639Y-87984843D01*
X108932772Y-53957427D02*
X107775345Y-53957427D01*
X112675345Y-55357427D02*
X112675345Y-59592521D01*
X120722916Y-83394881D02*
X121185582Y-83394881D01*
X110955127Y-66678933D02*
X110955127Y-67180127D01*
X121000000Y-68000000D02*
X120389352Y-68000000D01*
X111270000Y-83045000D02*
X111000000Y-83315000D01*
X111270000Y-82500000D02*
X111270000Y-83045000D01*
X113500000Y-81000000D02*
X113500000Y-78006063D01*
X114075345Y-53957427D02*
X112675345Y-55357427D01*
X120722916Y-87940786D02*
X121185582Y-87940786D01*
X113500000Y-78006063D02*
X114015064Y-77490999D01*
X110920137Y-63355869D02*
X110950000Y-63385732D01*
X110395037Y-63355869D02*
X110920137Y-63355869D01*
X120528588Y-63500000D02*
X120325000Y-63296412D01*
X121185582Y-83394881D02*
X121229639Y-83438938D01*
X109975345Y-55000000D02*
X108932772Y-53957427D01*
X118245581Y-66392919D02*
X118721317Y-66392919D01*
X112675345Y-59592521D02*
X110950000Y-61317866D01*
%TO.N,/GPIO14*%
X99500000Y-70000000D02*
X99500000Y-66511471D01*
X106601397Y-62673603D02*
X106275000Y-63000000D01*
X105500000Y-63775000D02*
X106275000Y-63000000D01*
X99500000Y-66511471D02*
X102236471Y-63775000D01*
X106601397Y-62477078D02*
X106601397Y-62673603D01*
X102236471Y-63775000D02*
X105500000Y-63775000D01*
%TO.N,Net-(D4-Pad1)*%
X135000000Y-63968518D02*
X135000000Y-63362500D01*
D32*
X129584834Y-62350000D02*
X126000000Y-62350000D01*
X131203352Y-63968518D02*
X129584834Y-62350000D01*
D33*
%TO.N,Net-(D3-Pad2)*%
X79582799Y-68574223D02*
X79571542Y-68562966D01*
X79582799Y-69133816D02*
X79582799Y-68574223D01*
D32*
%TO.N,U2_A02*%
X125500000Y-74650000D02*
X126000000Y-75150000D01*
X131203352Y-74468518D02*
X126681482Y-74468518D01*
X125500000Y-74000000D02*
X125500000Y-74650000D01*
D33*
X126681482Y-74468518D02*
X126000000Y-75150000D01*
D32*
%TO.N,U2_B02*%
X127000000Y-65500000D02*
X127000000Y-65650000D01*
X126818518Y-67468518D02*
X131203352Y-67468518D01*
X126000000Y-66650000D02*
X126818518Y-67468518D01*
X127000000Y-65650000D02*
X126000000Y-66650000D01*
%TO.N,U3_A02*%
X131203352Y-88468518D02*
X126000000Y-93671870D01*
D33*
X126000000Y-93671870D02*
X126000000Y-94650000D01*
D32*
%TO.N,U3_B02*%
X131203352Y-81468518D02*
X129681482Y-81468518D01*
X129681482Y-81468518D02*
X126000000Y-85150000D01*
%TO.N,U2_A01*%
X123000000Y-71000000D02*
X123000000Y-71100430D01*
X123000000Y-71100430D02*
X124699570Y-72800000D01*
X130499188Y-72668518D02*
X133031018Y-72668518D01*
X133031018Y-72668518D02*
X135000000Y-74637500D01*
X130367706Y-72800000D02*
X130499188Y-72668518D01*
X124699570Y-72800000D02*
X130367706Y-72800000D01*
%TO.N,U2_B01*%
X134500000Y-67137500D02*
X135000000Y-67637500D01*
X134500000Y-66000000D02*
X134500000Y-67137500D01*
%TO.N,U3_A01*%
X134362500Y-88637500D02*
X135000000Y-88637500D01*
X133000000Y-90000000D02*
X134362500Y-88637500D01*
%TO.N,U3_B01*%
X135000000Y-81637500D02*
X134637500Y-81637500D01*
X134637500Y-81637500D02*
X133000000Y-80000000D01*
D33*
%TO.N,Net-(U11-BW_SEL)*%
X109000000Y-60000000D02*
X109000000Y-59725000D01*
X109000000Y-59725000D02*
X109225000Y-59500000D01*
%TO.N,/STBY*%
X118657176Y-64842824D02*
X118000000Y-65500000D01*
X118675000Y-64842824D02*
X118657176Y-64842824D01*
X118000000Y-65500000D02*
X115905447Y-67594553D01*
X115905447Y-67594553D02*
X115905447Y-86999999D01*
%TO.N,/PWM_M1*%
X118675000Y-67935648D02*
X118064352Y-67935648D01*
X118064352Y-67935648D02*
X118000000Y-68000000D01*
%TO.N,/PWM_M2*%
X118675000Y-63296412D02*
X118203588Y-63296412D01*
X118203588Y-63296412D02*
X118000000Y-63500000D01*
%TO.N,/PWM_M3*%
X119579639Y-87984843D02*
X119015157Y-87984843D01*
X119015157Y-87984843D02*
X118500000Y-88500000D01*
%TO.N,/PWM_M4*%
X119259289Y-83759289D02*
X119579639Y-83438938D01*
%TO.N,Net-(U3-EN)*%
X86000000Y-60000000D02*
X86600000Y-60600000D01*
X86600000Y-60600000D02*
X86600000Y-74400000D01*
X88500000Y-79500000D02*
X89675000Y-79500000D01*
X86600000Y-74400000D02*
X85000000Y-76000000D01*
X87000000Y-81000000D02*
X88500000Y-79500000D01*
%TO.N,Net-(U3-GPIO0{slash}BOOT)*%
X102000000Y-80500000D02*
X103511782Y-78988218D01*
X103511782Y-78988218D02*
X103511782Y-77500000D01*
X103511782Y-77500000D02*
X103511782Y-77409507D01*
%TO.N,Net-(U3-GPIO16{slash}U0CTS{slash}ADC2_CH5{slash}XTAL_32K_N)*%
X86000000Y-67500000D02*
X85412966Y-66912966D01*
X85412966Y-66912966D02*
X79571542Y-66912966D01*
%TO.N,/ISO_PWM_M1*%
X106471589Y-68581589D02*
X102750000Y-64860000D01*
X102000000Y-64860000D02*
X102860000Y-64860000D01*
X106471589Y-69538599D02*
X106471589Y-68581589D01*
%TO.N,/ISO_M3_CLOSE*%
X104211782Y-74711782D02*
X104211782Y-81986782D01*
X102000000Y-72500000D02*
X104211782Y-74711782D01*
X106500000Y-85140000D02*
X106500000Y-84275000D01*
X106500000Y-84275000D02*
X104211782Y-81986782D01*
D32*
%TO.N,GND_MOTOR*%
X122329639Y-89420505D02*
X122000000Y-89750144D01*
X109050000Y-63385732D02*
X109050000Y-64110732D01*
X122000000Y-89750144D02*
X121354639Y-89750144D01*
X121825000Y-86469541D02*
X121825000Y-84954240D01*
X121825000Y-84954240D02*
X121179639Y-84954240D01*
X109939268Y-65000000D02*
X110500000Y-65000000D01*
X120000000Y-65000000D02*
X120167824Y-65000000D01*
X109050000Y-64110732D02*
X109939268Y-65000000D01*
X119000000Y-70000000D02*
X119000000Y-69757060D01*
X119183198Y-103000000D02*
X119183198Y-98283198D01*
X120000000Y-66500000D02*
X120164236Y-66500000D01*
X122329639Y-86974180D02*
X122329639Y-89420505D01*
X119183198Y-98283198D02*
X113770000Y-92870000D01*
X111000000Y-77275000D02*
X111000000Y-78000000D01*
X120167824Y-65000000D02*
X120325000Y-64842824D01*
X111000000Y-68775000D02*
X111000000Y-68375000D01*
X109050000Y-61317866D02*
X109050000Y-63385732D01*
X121825000Y-86469541D02*
X122329639Y-86974180D01*
X119000000Y-69757060D02*
X118725000Y-69482060D01*
X111000000Y-68375000D02*
X110955127Y-68375000D01*
X121825000Y-86469541D02*
X121179639Y-86469541D01*
X120164236Y-66500000D02*
X120275000Y-66389236D01*
X111000000Y-84865000D02*
X111000000Y-85500000D01*
D33*
%TO.N,Net-(D5-Pad2)*%
X135000000Y-70968518D02*
X135000000Y-70362500D01*
X131031482Y-70968518D02*
X130912964Y-70850000D01*
D32*
X130912964Y-70850000D02*
X126000000Y-70850000D01*
D33*
X131203352Y-70968518D02*
X131031482Y-70968518D01*
%TO.N,Net-(D6-Pad2)*%
X135000000Y-77968518D02*
X135000000Y-77362500D01*
D32*
X128321870Y-80850000D02*
X126000000Y-80850000D01*
X131203352Y-77968518D02*
X128321870Y-80850000D01*
D33*
%TO.N,Net-(D7-Pad2)*%
X135000000Y-84968518D02*
X135000000Y-84362500D01*
D32*
X131203352Y-84968518D02*
X126000000Y-90171870D01*
D33*
X126000000Y-90171870D02*
X126000000Y-90350000D01*
%TD*%
M02*
