M48
; DRILL file {KiCad 9.0.8-9.0.8~ubuntu24.04.1} date 2026-04-28T13:52:06-0700
; FORMAT={-:-/ absolute / metric / decimal}
; #@! TF.CreationDate,2026-04-28T13:52:06-07:00
; #@! TF.GenerationSoftware,Kicad,Pcbnew,9.0.8-9.0.8~ubuntu24.04.1
; #@! TF.FileFunction,MixedPlating,1,4
FMAT,2
METRIC
; #@! TA.AperFunction,Plated,PTH,ViaDrill
T1C0.300
; #@! TA.AperFunction,Plated,PTH,ComponentDrill
T2C0.650
; #@! TA.AperFunction,Plated,PTH,ComponentDrill
T3C0.900
; #@! TA.AperFunction,Plated,PTH,ComponentDrill
T4C1.000
; #@! TA.AperFunction,Plated,PTH,ComponentDrill
T5C1.300
; #@! TA.AperFunction,NonPlated,NPTH,ComponentDrill
T6C0.700
; #@! TA.AperFunction,NonPlated,NPTH,ComponentDrill
T7C3.200
%
G90
G05
T1
X79.5Y-79.5
X79.583Y-69.134
X80.0Y-96.0
X81.5Y-60.0
X83.5Y-101.5
X85.0Y-76.0
X86.0Y-58.5
X86.0Y-60.0
X86.0Y-67.5
X86.7Y-101.5
X87.0Y-81.0
X87.0Y-87.0
X87.0Y-94.5
X87.5Y-59.5
X88.0Y-58.0
X89.0Y-68.5
X89.0Y-72.0
X89.0Y-77.5
X89.0Y-81.5
X89.175Y-83.5
X89.5Y-59.5
X90.0Y-58.0
X93.0Y-80.5
X93.5Y-78.5
X94.5Y-99.0
X97.0Y-79.5
X97.5Y-64.5
X98.0Y-60.5
X98.0Y-85.5
X99.5Y-70.0
X101.0Y-63.0
X101.5Y-57.5
X102.0Y-64.86
X102.0Y-72.5
X102.0Y-76.5
X102.0Y-80.5
X103.41Y-80.71
X103.503Y-77.978
X104.0Y-90.0
X104.0Y-94.5
X104.5Y-54.5
X105.851Y-54.424
X106.0Y-60.5
X106.472Y-69.539
X106.5Y-85.14
X106.601Y-62.477
X106.751Y-73.639
X107.0Y-64.5
X107.775Y-53.957
X108.0Y-63.5
X109.0Y-60.0
X109.0Y-82.5
X109.0Y-86.0
X109.284Y-77.297
X109.403Y-66.759
X109.554Y-68.347
X109.859Y-52.329
X110.395Y-63.356
X110.5Y-59.0
X110.5Y-65.0
X110.938Y-75.32
X110.955Y-66.679
X110.955Y-68.229
X111.0Y-78.0
X111.0Y-85.5
X111.27Y-82.5
X111.909Y-55.72
X113.5Y-59.46
X113.5Y-60.73
X113.5Y-62.0
X113.5Y-63.27
X113.5Y-81.0
X114.015Y-77.491
X114.075Y-51.657
X114.075Y-53.957
X115.0Y-80.5
X115.905Y-87.0
X116.5Y-62.0
X116.875Y-65.199
X117.0Y-69.5
X117.0Y-86.35
X117.33Y-76.144
X117.879Y-54.658
X118.0Y-63.5
X118.0Y-65.5
X118.0Y-68.0
X118.0Y-83.5
X118.246Y-66.393
X118.5Y-88.5
X119.0Y-57.5
X119.0Y-62.0
X119.0Y-70.0
X119.0Y-84.954
X119.0Y-86.5
X119.0Y-90.327
X119.259Y-83.759
X120.0Y-62.0
X120.0Y-65.0
X120.0Y-66.5
X120.0Y-69.0
X120.5Y-95.5
X120.723Y-83.395
X120.723Y-87.941
X121.0Y-63.5
X121.0Y-68.0
X121.825Y-84.954
X121.825Y-86.47
X122.0Y-67.5
X122.0Y-73.5
X122.0Y-89.75
X122.5Y-57.5
X123.0Y-71.0
X123.8Y-67.5
X125.5Y-74.0
X126.0Y-103.0
X127.0Y-65.5
X132.0Y-55.5
X132.5Y-100.5
X133.0Y-80.0
X133.0Y-90.0
X134.5Y-66.0
X135.0Y-63.969
X135.0Y-70.969
X135.0Y-77.969
X135.0Y-84.969
X138.0Y-69.5
X138.0Y-80.0
T3
X95.99Y-92.87
X95.99Y-103.03
X98.53Y-92.87
X98.53Y-103.03
X101.07Y-103.03
X103.61Y-103.03
X106.15Y-103.03
X111.23Y-103.03
X113.77Y-92.87
X113.77Y-103.03
T5
X131.203Y-63.969
X131.203Y-67.469
X131.203Y-70.969
X131.203Y-74.469
X131.203Y-77.969
X131.203Y-81.469
X131.203Y-84.969
X131.203Y-88.469
X139.403Y-63.969
X139.403Y-67.469
X139.403Y-70.969
X139.403Y-74.469
X139.403Y-77.969
X139.403Y-81.469
X139.403Y-84.969
X139.403Y-88.469
T6
X83.309Y-91.88
X83.309Y-97.66
T7
X80.586Y-52.597
X80.586Y-105.433
X138.532Y-52.597
X138.532Y-105.433
T2
X80.059Y-90.45G85X79.259Y-90.45
G05
X80.059Y-99.09G85X79.259Y-99.09
G05
X84.359Y-90.45G85X83.259Y-90.45
G05
X84.359Y-99.09G85X83.259Y-99.09
G05
T4
X131.697Y-98.0G85X131.697Y-96.0
G05
X135.697Y-92.3G85X133.697Y-92.3
G05
X137.697Y-98.0G85X137.697Y-96.0
G05
M30
