%TF.GenerationSoftware,KiCad,Pcbnew,9.0.8-9.0.8~ubuntu24.04.1*%
%TF.CreationDate,2026-04-28T13:52:03-07:00*%
%TF.ProjectId,barn-blinds-controller,6261726e-2d62-46c6-996e-64732d636f6e,rev?*%
%TF.SameCoordinates,Original*%
%TF.FileFunction,Copper,L3,Inr*%
%TF.FilePolarity,Positive*%
%FSLAX46Y46*%
G04 Gerber Fmt 4.6, Leading zero omitted, Abs format (unit mm)*
G04 Created by KiCad (PCBNEW 9.0.8-9.0.8~ubuntu24.04.1) date 2026-04-28 13:52:03*
%MOMM*%
%LPD*%
G01*
G04 APERTURE LIST*
G04 Aperture macros list*
%AMRoundRect*
0 Rectangle with rounded corners*
0 $1 Rounding radius*
0 $2 $3 $4 $5 $6 $7 $8 $9 X,Y pos of 4 corners*
0 Add a 4 corners polygon primitive as box body*
4,1,4,$2,$3,$4,$5,$6,$7,$8,$9,$2,$3,0*
0 Add four circle primitives for the rounded corners*
1,1,$1+$1,$2,$3*
1,1,$1+$1,$4,$5*
1,1,$1+$1,$6,$7*
1,1,$1+$1,$8,$9*
0 Add four rect primitives between the rounded corners*
20,1,$1+$1,$2,$3,$4,$5,0*
20,1,$1+$1,$4,$5,$6,$7,0*
20,1,$1+$1,$6,$7,$8,$9,0*
20,1,$1+$1,$8,$9,$2,$3,0*%
G04 Aperture macros list end*
%TA.AperFunction,ComponentPad*%
%ADD10C,2.000000*%
%TD*%
%TA.AperFunction,ComponentPad*%
%ADD11R,3.500000X3.500000*%
%TD*%
%TA.AperFunction,ComponentPad*%
%ADD12RoundRect,0.750000X0.750000X1.000000X-0.750000X1.000000X-0.750000X-1.000000X0.750000X-1.000000X0*%
%TD*%
%TA.AperFunction,ComponentPad*%
%ADD13RoundRect,0.875000X0.875000X0.875000X-0.875000X0.875000X-0.875000X-0.875000X0.875000X-0.875000X0*%
%TD*%
%TA.AperFunction,ComponentPad*%
%ADD14O,1.850000X1.050000*%
%TD*%
%TA.AperFunction,ComponentPad*%
%ADD15O,2.150000X1.050000*%
%TD*%
%TA.AperFunction,ComponentPad*%
%ADD16C,1.600000*%
%TD*%
%TA.AperFunction,ViaPad*%
%ADD17C,0.600000*%
%TD*%
%TA.AperFunction,ViaPad*%
%ADD18C,0.450000*%
%TD*%
G04 APERTURE END LIST*
D10*
%TO.N,U3_A02*%
%TO.C,J3*%
X131203352Y-88468518D03*
X139403352Y-88468518D03*
%TO.N,Net-(D7-Pad2)*%
X131203352Y-84968518D03*
X139403352Y-84968518D03*
%TO.N,U3_B02*%
X131203352Y-81468518D03*
X139403352Y-81468518D03*
%TO.N,Net-(D6-Pad2)*%
X131203352Y-77968518D03*
X139403352Y-77968518D03*
%TO.N,U2_A02*%
X131203352Y-74468518D03*
X139403352Y-74468518D03*
%TO.N,Net-(D5-Pad2)*%
X131203352Y-70968518D03*
X139403352Y-70968518D03*
%TO.N,U2_B02*%
X131203352Y-67468518D03*
X139403352Y-67468518D03*
%TO.N,Net-(D4-Pad1)*%
X131203352Y-63968518D03*
X139403352Y-63968518D03*
%TD*%
D11*
%TO.N,Net-(D1-A)*%
%TO.C,J1*%
X131696898Y-97000000D03*
D12*
%TO.N,GND_MOTOR*%
X137696898Y-97000000D03*
D13*
%TO.N,N/C*%
X134696898Y-92300000D03*
%TD*%
D14*
%TO.N,GND_ISO*%
%TO.C,J2*%
X79658888Y-90449931D03*
X79658888Y-99089931D03*
D15*
X83808888Y-90449931D03*
X83808888Y-99089931D03*
%TD*%
D16*
%TO.N,+12V_RAW*%
%TO.C,U1*%
X113770000Y-103030000D03*
%TO.N,GND_MOTOR*%
X113770000Y-92870000D03*
X111230000Y-103030000D03*
%TO.N,+5V_ISO*%
X101070000Y-103030000D03*
X95990000Y-103030000D03*
%TO.N,GND_ISO*%
X106150000Y-103030000D03*
X98530000Y-103030000D03*
%TO.N,N/C*%
X103610000Y-103030000D03*
X98530000Y-92870000D03*
X95990000Y-92870000D03*
%TD*%
D17*
%TO.N,+12V*%
X113500000Y-60730000D03*
X113500000Y-59460000D03*
X120000000Y-69000000D03*
X119000000Y-90326507D03*
X119000000Y-86500000D03*
X116500000Y-62000000D03*
X117000000Y-69500000D03*
X120000000Y-62000000D03*
X118000000Y-83500000D03*
X117879206Y-54658149D03*
X114075345Y-51657427D03*
X117329806Y-76144158D03*
%TO.N,+12V_RAW*%
X113500000Y-63270000D03*
X113500000Y-62000000D03*
X126000000Y-103000000D03*
%TO.N,GND_ISO*%
X105851188Y-54423812D03*
X107000000Y-64500000D03*
D18*
X80000000Y-96000000D03*
D17*
X109000000Y-86000000D03*
X89175000Y-83500000D03*
X89000000Y-72000000D03*
X93000000Y-80500000D03*
X89000000Y-68500000D03*
X94500000Y-99000000D03*
X103409781Y-80709669D03*
X110500000Y-59000000D03*
D18*
X87000000Y-94500000D03*
D17*
X109554363Y-68347086D03*
X98000000Y-85500000D03*
X102000000Y-76500000D03*
X87000000Y-87000000D03*
X88000000Y-58000000D03*
X83500000Y-101500000D03*
X109284298Y-77296862D03*
X89000000Y-77500000D03*
X104000000Y-94500000D03*
X98000000Y-60500000D03*
X97500000Y-64500000D03*
X89000000Y-81500000D03*
X101500000Y-57500000D03*
X101000000Y-63000000D03*
X87500000Y-59500000D03*
X81500000Y-60000000D03*
X79500000Y-79500000D03*
X104000000Y-90000000D03*
%TO.N,+5V_ISO*%
X86700000Y-101500000D03*
%TO.N,+5V_OR*%
X93500000Y-78500000D03*
%TO.N,+3.3V_ISO*%
X104500000Y-54500000D03*
X109000000Y-82500000D03*
X86000000Y-58500000D03*
X89500000Y-59500000D03*
X106000000Y-60500000D03*
X90000000Y-58000000D03*
X97000000Y-79500000D03*
X106751240Y-73638853D03*
X109402704Y-66759130D03*
X108000000Y-63500000D03*
%TO.N,+3.3V_MOTOR*%
X121000000Y-68000000D03*
X110955127Y-66678933D03*
X107775345Y-53957427D03*
X120722916Y-87940786D03*
X119000000Y-84954240D03*
X118245581Y-66392919D03*
X114075345Y-53957427D03*
X121000000Y-63500000D03*
X113500000Y-81000000D03*
X110395037Y-63355869D03*
X110938337Y-75320336D03*
X111270000Y-82500000D03*
X120722916Y-83394881D03*
X114015064Y-77490999D03*
%TO.N,/GPIO14*%
X106601397Y-62477078D03*
X99500000Y-70000000D03*
%TO.N,Net-(D4-Pad1)*%
X135000000Y-63968518D03*
%TO.N,Net-(D3-Pad2)*%
X79582799Y-69133816D03*
%TO.N,U2_A02*%
X125500000Y-74000000D03*
%TO.N,U2_B02*%
X127000000Y-65500000D03*
%TO.N,U2_A01*%
X123000000Y-71000000D03*
%TO.N,U2_B01*%
X134500000Y-66000000D03*
%TO.N,U3_A01*%
X133000000Y-90000000D03*
%TO.N,U3_B01*%
X133000000Y-80000000D03*
%TO.N,Net-(U11-BW_SEL)*%
X109000000Y-60000000D03*
%TO.N,/STBY*%
X118000000Y-65500000D03*
X115905447Y-86999999D03*
%TO.N,/PWM_M1*%
X118000000Y-68000000D03*
%TO.N,/PWM_M2*%
X118000000Y-63500000D03*
%TO.N,/PWM_M3*%
X118500000Y-88500000D03*
%TO.N,/PWM_M4*%
X119259289Y-83759289D03*
%TO.N,Net-(U3-EN)*%
X86000000Y-60000000D03*
X87000000Y-81000000D03*
X85000000Y-76000000D03*
%TO.N,Net-(U3-GPIO0{slash}BOOT)*%
X103503423Y-77977721D03*
X102000000Y-80500000D03*
%TO.N,Net-(U3-GPIO16{slash}U0CTS{slash}ADC2_CH5{slash}XTAL_32K_N)*%
X86000000Y-67500000D03*
%TO.N,/ISO_PWM_M1*%
X102000000Y-64860000D03*
X106471589Y-69538599D03*
%TO.N,/ISO_M3_CLOSE*%
X102000000Y-72500000D03*
X106500000Y-85140000D03*
%TO.N,GND_MOTOR*%
X122000000Y-89750144D03*
X121825000Y-86469541D03*
X122000000Y-67500000D03*
X119000000Y-57500000D03*
X122000000Y-73500000D03*
X111000000Y-78000000D03*
D18*
X116874518Y-65198575D03*
D17*
X121825000Y-84954240D03*
X111908880Y-55720499D03*
X123800000Y-67500000D03*
X110500000Y-65000000D03*
X111000000Y-85500000D03*
X120000000Y-65000000D03*
X138000000Y-80000000D03*
X122500000Y-57500000D03*
X119000000Y-62000000D03*
X132500000Y-100500000D03*
D18*
X117000000Y-86350000D03*
D17*
X132000000Y-55500000D03*
X109858596Y-52329053D03*
X110955127Y-68228933D03*
X119000000Y-70000000D03*
X138000000Y-69500000D03*
X120500000Y-95500000D03*
X120000000Y-66500000D03*
X115000000Y-80500000D03*
%TO.N,Net-(D5-Pad2)*%
X135000000Y-70968518D03*
%TO.N,Net-(D6-Pad2)*%
X135000000Y-77968518D03*
%TO.N,Net-(D7-Pad2)*%
X135000000Y-84968518D03*
%TD*%
%TA.AperFunction,Conductor*%
%TO.N,+12V*%
G36*
X120166972Y-52986362D02*
G01*
X120212942Y-53038979D01*
X120224359Y-53090950D01*
X120224359Y-61645561D01*
X120234071Y-61744180D01*
X120243510Y-61791630D01*
X120243515Y-61791651D01*
X120272270Y-61886443D01*
X120272272Y-61886448D01*
X120272276Y-61886460D01*
X120278992Y-61902674D01*
X120286045Y-61925927D01*
X120292617Y-61958962D01*
X120295000Y-61983156D01*
X120295000Y-62016837D01*
X120292616Y-62041033D01*
X120286042Y-62074076D01*
X120278991Y-62097323D01*
X120272279Y-62113530D01*
X120243509Y-62208372D01*
X120234070Y-62255827D01*
X120224359Y-62354438D01*
X120224359Y-63283972D01*
X120221976Y-63308164D01*
X120199500Y-63421155D01*
X120199500Y-63421158D01*
X120199500Y-63578842D01*
X120199500Y-63578844D01*
X120199499Y-63578844D01*
X120221976Y-63691835D01*
X120224359Y-63716027D01*
X120224359Y-64077350D01*
X120204674Y-64144389D01*
X120151870Y-64190144D01*
X120084937Y-64199768D01*
X120084905Y-64200097D01*
X120083566Y-64199965D01*
X120082712Y-64200088D01*
X120079861Y-64199600D01*
X120078843Y-64199500D01*
X120078842Y-64199500D01*
X119921158Y-64199500D01*
X119921155Y-64199500D01*
X119766510Y-64230261D01*
X119766498Y-64230264D01*
X119620827Y-64290602D01*
X119620814Y-64290609D01*
X119489711Y-64378210D01*
X119489707Y-64378213D01*
X119378213Y-64489707D01*
X119378210Y-64489711D01*
X119290609Y-64620814D01*
X119290602Y-64620827D01*
X119230264Y-64766498D01*
X119230261Y-64766510D01*
X119199500Y-64921153D01*
X119199500Y-65078846D01*
X119230261Y-65233489D01*
X119230264Y-65233501D01*
X119290602Y-65379172D01*
X119290609Y-65379185D01*
X119378210Y-65510288D01*
X119378213Y-65510292D01*
X119489707Y-65621786D01*
X119527289Y-65646898D01*
X119572093Y-65700511D01*
X119580800Y-65769836D01*
X119550645Y-65832863D01*
X119527289Y-65853102D01*
X119489707Y-65878213D01*
X119378213Y-65989707D01*
X119378210Y-65989711D01*
X119290609Y-66120814D01*
X119290604Y-66120824D01*
X119255871Y-66204678D01*
X119212030Y-66259081D01*
X119145736Y-66281146D01*
X119078036Y-66263867D01*
X119030426Y-66212729D01*
X119019693Y-66181419D01*
X119015318Y-66159422D01*
X119006172Y-66137341D01*
X118954978Y-66013746D01*
X118954971Y-66013733D01*
X118867371Y-65882631D01*
X118837842Y-65853102D01*
X118808057Y-65823317D01*
X118774574Y-65761997D01*
X118774123Y-65711446D01*
X118775901Y-65702511D01*
X118791958Y-65621786D01*
X118800500Y-65578844D01*
X118800500Y-65421155D01*
X118800499Y-65421153D01*
X118770439Y-65270032D01*
X118769737Y-65266503D01*
X118756062Y-65233489D01*
X118709397Y-65120827D01*
X118709390Y-65120814D01*
X118621789Y-64989711D01*
X118621786Y-64989707D01*
X118510292Y-64878213D01*
X118510288Y-64878210D01*
X118379185Y-64790609D01*
X118379172Y-64790602D01*
X118233501Y-64730264D01*
X118233489Y-64730261D01*
X118078845Y-64699500D01*
X118078842Y-64699500D01*
X117921158Y-64699500D01*
X117921155Y-64699500D01*
X117766510Y-64730261D01*
X117766498Y-64730264D01*
X117620828Y-64790602D01*
X117615447Y-64793479D01*
X117614591Y-64791877D01*
X117556048Y-64810198D01*
X117488671Y-64791702D01*
X117450754Y-64755108D01*
X117438050Y-64736096D01*
X117438048Y-64736094D01*
X117438046Y-64736091D01*
X117337000Y-64635045D01*
X117336996Y-64635042D01*
X117218177Y-64555649D01*
X117218168Y-64555644D01*
X117086138Y-64500956D01*
X117086132Y-64500954D01*
X116945975Y-64473075D01*
X116945973Y-64473075D01*
X116803063Y-64473075D01*
X116803061Y-64473075D01*
X116662903Y-64500954D01*
X116662897Y-64500956D01*
X116530867Y-64555644D01*
X116530858Y-64555649D01*
X116412039Y-64635042D01*
X116412035Y-64635045D01*
X116310988Y-64736092D01*
X116310985Y-64736096D01*
X116231592Y-64854915D01*
X116231587Y-64854924D01*
X116176899Y-64986954D01*
X116176897Y-64986960D01*
X116149018Y-65127117D01*
X116149018Y-65127120D01*
X116149018Y-65270030D01*
X116149018Y-65270032D01*
X116149017Y-65270032D01*
X116176897Y-65410189D01*
X116176899Y-65410195D01*
X116231587Y-65542225D01*
X116231592Y-65542234D01*
X116310985Y-65661053D01*
X116310988Y-65661057D01*
X116412035Y-65762104D01*
X116412039Y-65762107D01*
X116530858Y-65841500D01*
X116530864Y-65841503D01*
X116530865Y-65841504D01*
X116662898Y-65896194D01*
X116662902Y-65896194D01*
X116662903Y-65896195D01*
X116803060Y-65924075D01*
X116803063Y-65924075D01*
X116945975Y-65924075D01*
X117054426Y-65902502D01*
X117086138Y-65896194D01*
X117161169Y-65865114D01*
X117187832Y-65862248D01*
X117213856Y-65855787D01*
X117222039Y-65858570D01*
X117230637Y-65857646D01*
X117254617Y-65869649D01*
X117280005Y-65878284D01*
X117287778Y-65886249D01*
X117293116Y-65888921D01*
X117305679Y-65902502D01*
X117308879Y-65906526D01*
X117378211Y-66010289D01*
X117442508Y-66074586D01*
X117446898Y-66080107D01*
X117457507Y-66106202D01*
X117471006Y-66130923D01*
X117471083Y-66139593D01*
X117473213Y-66144832D01*
X117471224Y-66155454D01*
X117471457Y-66181472D01*
X117445081Y-66314072D01*
X117445081Y-66471765D01*
X117475842Y-66626408D01*
X117475845Y-66626420D01*
X117536183Y-66772091D01*
X117536190Y-66772104D01*
X117623791Y-66903207D01*
X117623794Y-66903211D01*
X117735288Y-67014705D01*
X117735294Y-67014710D01*
X117753492Y-67026870D01*
X117798297Y-67080483D01*
X117807003Y-67149808D01*
X117776847Y-67212835D01*
X117732053Y-67244532D01*
X117620823Y-67290604D01*
X117620814Y-67290609D01*
X117489711Y-67378210D01*
X117489707Y-67378213D01*
X117378213Y-67489707D01*
X117378210Y-67489711D01*
X117290609Y-67620814D01*
X117290602Y-67620827D01*
X117230264Y-67766498D01*
X117230261Y-67766510D01*
X117199500Y-67921153D01*
X117199500Y-68078846D01*
X117230261Y-68233489D01*
X117230264Y-68233501D01*
X117290602Y-68379172D01*
X117290609Y-68379185D01*
X117378210Y-68510288D01*
X117378213Y-68510292D01*
X117489707Y-68621786D01*
X117489711Y-68621789D01*
X117620814Y-68709390D01*
X117620827Y-68709397D01*
X117704802Y-68744180D01*
X117766503Y-68769737D01*
X117921153Y-68800499D01*
X117921156Y-68800500D01*
X117921158Y-68800500D01*
X118078844Y-68800500D01*
X118078845Y-68800499D01*
X118233497Y-68769737D01*
X118379179Y-68709394D01*
X118510289Y-68621789D01*
X118621789Y-68510289D01*
X118709394Y-68379179D01*
X118769737Y-68233497D01*
X118800500Y-68078842D01*
X118800500Y-67921158D01*
X118800500Y-67921155D01*
X118800499Y-67921153D01*
X118783719Y-67836797D01*
X118769737Y-67766503D01*
X118752669Y-67725297D01*
X118709397Y-67620827D01*
X118709390Y-67620814D01*
X118621789Y-67489711D01*
X118621786Y-67489707D01*
X118510290Y-67378211D01*
X118492087Y-67366048D01*
X118447283Y-67312434D01*
X118438577Y-67243109D01*
X118468733Y-67180082D01*
X118513523Y-67148388D01*
X118624760Y-67102313D01*
X118755870Y-67014708D01*
X118867370Y-66903208D01*
X118954975Y-66772098D01*
X118989710Y-66688239D01*
X119033549Y-66633838D01*
X119099843Y-66611772D01*
X119167542Y-66629050D01*
X119215153Y-66680187D01*
X119225887Y-66711500D01*
X119230261Y-66733492D01*
X119230264Y-66733501D01*
X119290602Y-66879172D01*
X119290609Y-66879185D01*
X119378210Y-67010288D01*
X119378213Y-67010292D01*
X119489705Y-67121784D01*
X119489711Y-67121789D01*
X119620814Y-67209390D01*
X119620827Y-67209397D01*
X119705652Y-67244532D01*
X119766503Y-67269737D01*
X119918157Y-67299903D01*
X119921153Y-67300499D01*
X119921156Y-67300500D01*
X119921158Y-67300500D01*
X120078844Y-67300500D01*
X120084907Y-67299903D01*
X120085097Y-67301835D01*
X120145740Y-67307251D01*
X120200924Y-67350105D01*
X120224180Y-67415991D01*
X120224359Y-67422649D01*
X120224359Y-67783972D01*
X120221976Y-67808164D01*
X120199500Y-67921155D01*
X120199500Y-67921158D01*
X120199500Y-68078842D01*
X120199500Y-68078844D01*
X120199499Y-68078844D01*
X120221976Y-68191835D01*
X120224359Y-68216027D01*
X120224359Y-68645561D01*
X120234071Y-68744180D01*
X120243510Y-68791630D01*
X120243515Y-68791651D01*
X120272270Y-68886443D01*
X120272272Y-68886448D01*
X120272276Y-68886460D01*
X120278992Y-68902674D01*
X120286045Y-68925927D01*
X120292617Y-68958962D01*
X120295000Y-68983156D01*
X120295000Y-69016837D01*
X120292616Y-69041033D01*
X120286042Y-69074076D01*
X120278991Y-69097323D01*
X120272279Y-69113530D01*
X120243509Y-69208372D01*
X120234070Y-69255827D01*
X120224359Y-69354438D01*
X120224359Y-82709997D01*
X120204674Y-82777036D01*
X120188040Y-82797678D01*
X120101129Y-82884588D01*
X120101126Y-82884592D01*
X120013525Y-83015695D01*
X120013522Y-83015701D01*
X119977416Y-83102868D01*
X119933574Y-83157271D01*
X119867280Y-83179335D01*
X119799581Y-83162055D01*
X119775174Y-83143095D01*
X119769581Y-83137502D01*
X119769577Y-83137499D01*
X119638474Y-83049898D01*
X119638461Y-83049891D01*
X119492790Y-82989553D01*
X119492778Y-82989550D01*
X119338134Y-82958789D01*
X119338131Y-82958789D01*
X119180447Y-82958789D01*
X119180444Y-82958789D01*
X119025799Y-82989550D01*
X119025787Y-82989553D01*
X118880116Y-83049891D01*
X118880103Y-83049898D01*
X118749000Y-83137499D01*
X118748996Y-83137502D01*
X118637502Y-83248996D01*
X118637499Y-83249000D01*
X118549898Y-83380103D01*
X118549891Y-83380116D01*
X118489553Y-83525787D01*
X118489550Y-83525799D01*
X118458789Y-83680442D01*
X118458789Y-83838135D01*
X118489550Y-83992778D01*
X118489553Y-83992790D01*
X118549893Y-84138466D01*
X118552035Y-84141671D01*
X118552640Y-84143605D01*
X118552765Y-84143838D01*
X118552720Y-84143861D01*
X118572914Y-84208348D01*
X118554430Y-84275728D01*
X118517826Y-84313665D01*
X118489707Y-84332453D01*
X118378213Y-84443947D01*
X118378210Y-84443951D01*
X118290609Y-84575054D01*
X118290602Y-84575067D01*
X118230264Y-84720738D01*
X118230261Y-84720750D01*
X118199500Y-84875393D01*
X118199500Y-85033086D01*
X118230261Y-85187729D01*
X118230264Y-85187741D01*
X118290602Y-85333412D01*
X118290609Y-85333425D01*
X118378210Y-85464528D01*
X118378213Y-85464532D01*
X118489707Y-85576026D01*
X118489711Y-85576029D01*
X118620814Y-85663630D01*
X118620827Y-85663637D01*
X118680102Y-85688189D01*
X118766503Y-85723977D01*
X118915080Y-85753531D01*
X118921153Y-85754739D01*
X118921156Y-85754740D01*
X118921158Y-85754740D01*
X119078844Y-85754740D01*
X119078845Y-85754739D01*
X119233497Y-85723977D01*
X119379179Y-85663634D01*
X119510289Y-85576029D01*
X119621789Y-85464529D01*
X119709394Y-85333419D01*
X119769737Y-85187737D01*
X119800500Y-85033082D01*
X119800500Y-84875398D01*
X119800500Y-84875395D01*
X119800499Y-84875393D01*
X119795533Y-84850426D01*
X119769737Y-84720743D01*
X119726828Y-84617150D01*
X119709397Y-84575067D01*
X119709389Y-84575052D01*
X119707254Y-84571857D01*
X119706649Y-84569926D01*
X119706521Y-84569686D01*
X119706566Y-84569661D01*
X119686375Y-84505180D01*
X119704859Y-84437800D01*
X119741463Y-84399863D01*
X119769578Y-84381078D01*
X119881078Y-84269578D01*
X119968683Y-84138468D01*
X119968684Y-84138465D01*
X119968686Y-84138462D01*
X119985798Y-84097149D01*
X120029638Y-84042745D01*
X120095932Y-84020680D01*
X120163632Y-84037959D01*
X120211242Y-84089095D01*
X120224359Y-84144601D01*
X120224359Y-87255902D01*
X120204674Y-87322941D01*
X120188040Y-87343583D01*
X120101129Y-87430493D01*
X120101126Y-87430497D01*
X120013525Y-87561600D01*
X120013518Y-87561613D01*
X119953180Y-87707284D01*
X119953177Y-87707296D01*
X119922416Y-87861939D01*
X119922416Y-88019632D01*
X119953177Y-88174275D01*
X119953180Y-88174287D01*
X120013518Y-88319958D01*
X120013525Y-88319971D01*
X120101126Y-88451074D01*
X120101129Y-88451078D01*
X120188040Y-88537989D01*
X120221525Y-88599312D01*
X120224359Y-88625670D01*
X120224359Y-90877353D01*
X120235330Y-90982089D01*
X120245980Y-91032370D01*
X120278420Y-91132574D01*
X120278420Y-91132575D01*
X120354875Y-91254451D01*
X120354878Y-91254455D01*
X120354881Y-91254459D01*
X120400056Y-91307760D01*
X120400058Y-91307762D01*
X120447426Y-91349722D01*
X120484556Y-91408910D01*
X120489183Y-91440280D01*
X120499999Y-92033026D01*
X120499999Y-92033025D01*
X120500000Y-92033027D01*
X126000032Y-91889107D01*
X126267189Y-74256696D01*
X126269557Y-74234400D01*
X126300500Y-74078844D01*
X126300500Y-73921155D01*
X126288817Y-73862427D01*
X126276838Y-73802204D01*
X126274470Y-73776147D01*
X126387989Y-66283915D01*
X126408686Y-66217187D01*
X126462177Y-66172237D01*
X126531478Y-66163343D01*
X126580865Y-66182697D01*
X126620814Y-66209390D01*
X126620827Y-66209397D01*
X126716055Y-66248841D01*
X126766503Y-66269737D01*
X126921153Y-66300499D01*
X126921156Y-66300500D01*
X126921158Y-66300500D01*
X127078844Y-66300500D01*
X127078845Y-66300499D01*
X127233497Y-66269737D01*
X127379179Y-66209394D01*
X127510289Y-66121789D01*
X127621789Y-66010289D01*
X127709394Y-65879179D01*
X127715220Y-65865115D01*
X127757886Y-65762107D01*
X127769737Y-65733497D01*
X127800500Y-65578842D01*
X127800500Y-65421158D01*
X127800500Y-65421155D01*
X127800499Y-65421153D01*
X127770439Y-65270032D01*
X127769737Y-65266503D01*
X127756062Y-65233489D01*
X127709397Y-65120827D01*
X127709390Y-65120814D01*
X127621789Y-64989711D01*
X127621786Y-64989707D01*
X127510292Y-64878213D01*
X127510288Y-64878210D01*
X127379185Y-64790609D01*
X127379172Y-64790602D01*
X127233501Y-64730264D01*
X127233489Y-64730261D01*
X127078845Y-64699500D01*
X127078842Y-64699500D01*
X126921158Y-64699500D01*
X126921155Y-64699500D01*
X126766510Y-64730261D01*
X126766498Y-64730264D01*
X126620827Y-64790602D01*
X126620811Y-64790611D01*
X126604919Y-64801230D01*
X126538242Y-64822107D01*
X126470862Y-64803622D01*
X126424172Y-64751642D01*
X126412044Y-64696252D01*
X126498122Y-59015157D01*
X126518820Y-58948425D01*
X126572311Y-58903475D01*
X126626033Y-58893099D01*
X129879929Y-58996195D01*
X129946309Y-59017993D01*
X129990369Y-59072219D01*
X130000000Y-59120133D01*
X130000000Y-63031697D01*
X129980315Y-63098736D01*
X129976318Y-63104583D01*
X129920009Y-63182084D01*
X129812785Y-63392521D01*
X129739798Y-63617149D01*
X129702852Y-63850420D01*
X129702852Y-64086615D01*
X129739798Y-64319886D01*
X129812785Y-64544514D01*
X129920011Y-64754955D01*
X129976317Y-64832452D01*
X129999798Y-64898258D01*
X130000000Y-64905338D01*
X130000000Y-66531697D01*
X129980315Y-66598736D01*
X129976318Y-66604583D01*
X129920009Y-66682084D01*
X129812785Y-66892521D01*
X129739798Y-67117149D01*
X129702852Y-67350420D01*
X129702852Y-67586615D01*
X129739798Y-67819886D01*
X129812785Y-68044514D01*
X129920011Y-68254955D01*
X129976317Y-68332452D01*
X129999798Y-68398258D01*
X130000000Y-68405338D01*
X130000000Y-70031697D01*
X129980315Y-70098736D01*
X129976318Y-70104583D01*
X129920009Y-70182084D01*
X129812785Y-70392521D01*
X129739798Y-70617149D01*
X129702852Y-70850420D01*
X129702852Y-71086615D01*
X129739798Y-71319886D01*
X129812785Y-71544514D01*
X129920011Y-71754955D01*
X129976317Y-71832452D01*
X129999798Y-71898258D01*
X130000000Y-71905338D01*
X130000000Y-73531697D01*
X129980315Y-73598736D01*
X129976318Y-73604583D01*
X129920009Y-73682084D01*
X129812785Y-73892521D01*
X129739798Y-74117149D01*
X129702852Y-74350420D01*
X129702852Y-74586615D01*
X129739798Y-74819886D01*
X129812785Y-75044514D01*
X129920011Y-75254955D01*
X129976317Y-75332452D01*
X129999798Y-75398258D01*
X130000000Y-75405338D01*
X130000000Y-77031697D01*
X129980315Y-77098736D01*
X129976318Y-77104583D01*
X129920009Y-77182084D01*
X129812785Y-77392521D01*
X129739798Y-77617149D01*
X129702852Y-77850420D01*
X129702852Y-78086615D01*
X129739798Y-78319886D01*
X129812785Y-78544514D01*
X129920011Y-78754955D01*
X129976317Y-78832452D01*
X129999798Y-78898258D01*
X130000000Y-78905338D01*
X130000000Y-80531697D01*
X129980315Y-80598736D01*
X129976323Y-80604575D01*
X129964525Y-80620814D01*
X129920009Y-80682084D01*
X129812785Y-80892521D01*
X129739798Y-81117149D01*
X129702852Y-81350420D01*
X129702852Y-81586615D01*
X129739798Y-81819886D01*
X129812785Y-82044514D01*
X129920011Y-82254955D01*
X129976317Y-82332452D01*
X129999798Y-82398258D01*
X130000000Y-82405338D01*
X130000000Y-84031697D01*
X129980315Y-84098736D01*
X129976318Y-84104583D01*
X129920009Y-84182084D01*
X129812785Y-84392521D01*
X129739798Y-84617149D01*
X129702852Y-84850420D01*
X129702852Y-85086615D01*
X129739798Y-85319886D01*
X129812785Y-85544514D01*
X129920011Y-85754955D01*
X129976317Y-85832452D01*
X129999798Y-85898258D01*
X130000000Y-85905338D01*
X130000000Y-87531697D01*
X129980315Y-87598736D01*
X129976323Y-87604575D01*
X129958906Y-87628547D01*
X129920009Y-87682084D01*
X129812785Y-87892521D01*
X129739798Y-88117149D01*
X129702852Y-88350420D01*
X129702852Y-88586615D01*
X129739798Y-88819886D01*
X129812785Y-89044514D01*
X129920011Y-89254955D01*
X129976317Y-89332452D01*
X129999798Y-89398258D01*
X130000000Y-89405338D01*
X130000000Y-94627261D01*
X129980315Y-94694300D01*
X129927511Y-94740055D01*
X129889254Y-94750551D01*
X129839414Y-94755908D01*
X129704569Y-94806202D01*
X129704562Y-94806206D01*
X129589353Y-94892452D01*
X129589350Y-94892455D01*
X129503104Y-95007664D01*
X129503100Y-95007671D01*
X129452806Y-95142517D01*
X129446399Y-95202116D01*
X129446398Y-95202135D01*
X129446398Y-98797870D01*
X129446399Y-98797876D01*
X129452806Y-98857483D01*
X129503100Y-98992328D01*
X129503104Y-98992335D01*
X129589350Y-99107544D01*
X129589353Y-99107547D01*
X129704562Y-99193793D01*
X129704569Y-99193797D01*
X129839415Y-99244091D01*
X129839413Y-99244091D01*
X129889256Y-99249450D01*
X129953807Y-99276188D01*
X129993655Y-99333581D01*
X130000000Y-99372739D01*
X130000000Y-107842342D01*
X129980315Y-107909381D01*
X129927511Y-107955136D01*
X129876210Y-107966342D01*
X110124210Y-107999789D01*
X110057137Y-107980218D01*
X110011293Y-107927491D01*
X110000000Y-107875789D01*
X110000000Y-103931226D01*
X110019685Y-103864187D01*
X110072489Y-103818432D01*
X110141647Y-103808488D01*
X110205203Y-103837513D01*
X110224320Y-103858343D01*
X110238032Y-103877217D01*
X110382786Y-104021971D01*
X110537749Y-104134556D01*
X110548390Y-104142287D01*
X110664607Y-104201503D01*
X110730776Y-104235218D01*
X110730778Y-104235218D01*
X110730781Y-104235220D01*
X110835137Y-104269127D01*
X110925465Y-104298477D01*
X111026557Y-104314488D01*
X111127648Y-104330500D01*
X111127649Y-104330500D01*
X111332351Y-104330500D01*
X111332352Y-104330500D01*
X111534534Y-104298477D01*
X111729219Y-104235220D01*
X111911610Y-104142287D01*
X112004590Y-104074732D01*
X112077213Y-104021971D01*
X112077215Y-104021968D01*
X112077219Y-104021966D01*
X112221966Y-103877219D01*
X112221968Y-103877215D01*
X112221971Y-103877213D01*
X112342284Y-103711614D01*
X112342285Y-103711613D01*
X112342287Y-103711610D01*
X112389516Y-103618917D01*
X112437489Y-103568123D01*
X112505310Y-103551328D01*
X112571445Y-103573865D01*
X112610483Y-103618917D01*
X112611947Y-103621789D01*
X112657715Y-103711614D01*
X112778028Y-103877213D01*
X112922786Y-104021971D01*
X113077749Y-104134556D01*
X113088390Y-104142287D01*
X113204607Y-104201503D01*
X113270776Y-104235218D01*
X113270778Y-104235218D01*
X113270781Y-104235220D01*
X113375137Y-104269127D01*
X113465465Y-104298477D01*
X113566557Y-104314488D01*
X113667648Y-104330500D01*
X113667649Y-104330500D01*
X113872351Y-104330500D01*
X113872352Y-104330500D01*
X114074534Y-104298477D01*
X114269219Y-104235220D01*
X114451610Y-104142287D01*
X114544590Y-104074732D01*
X114617213Y-104021971D01*
X114617215Y-104021968D01*
X114617219Y-104021966D01*
X114761966Y-103877219D01*
X114761968Y-103877215D01*
X114761971Y-103877213D01*
X114840055Y-103769738D01*
X114882287Y-103711610D01*
X114975220Y-103529219D01*
X115038477Y-103334534D01*
X115070500Y-103132352D01*
X115070500Y-102927648D01*
X115069471Y-102921153D01*
X125199500Y-102921153D01*
X125199500Y-103078846D01*
X125230261Y-103233489D01*
X125230264Y-103233501D01*
X125290602Y-103379172D01*
X125290609Y-103379185D01*
X125378210Y-103510288D01*
X125378213Y-103510292D01*
X125489707Y-103621786D01*
X125489711Y-103621789D01*
X125620814Y-103709390D01*
X125620827Y-103709397D01*
X125766498Y-103769735D01*
X125766503Y-103769737D01*
X125921153Y-103800499D01*
X125921156Y-103800500D01*
X125921158Y-103800500D01*
X126078844Y-103800500D01*
X126078845Y-103800499D01*
X126233497Y-103769737D01*
X126346166Y-103723067D01*
X126379172Y-103709397D01*
X126379172Y-103709396D01*
X126379179Y-103709394D01*
X126510289Y-103621789D01*
X126621789Y-103510289D01*
X126709394Y-103379179D01*
X126769737Y-103233497D01*
X126800500Y-103078842D01*
X126800500Y-102921158D01*
X126800500Y-102921155D01*
X126800499Y-102921153D01*
X126769738Y-102766510D01*
X126769737Y-102766503D01*
X126752739Y-102725465D01*
X126709397Y-102620827D01*
X126709390Y-102620814D01*
X126621789Y-102489711D01*
X126621786Y-102489707D01*
X126510292Y-102378213D01*
X126510288Y-102378210D01*
X126379185Y-102290609D01*
X126379172Y-102290602D01*
X126233501Y-102230264D01*
X126233489Y-102230261D01*
X126078845Y-102199500D01*
X126078842Y-102199500D01*
X125921158Y-102199500D01*
X125921155Y-102199500D01*
X125766510Y-102230261D01*
X125766498Y-102230264D01*
X125620827Y-102290602D01*
X125620814Y-102290609D01*
X125489711Y-102378210D01*
X125489707Y-102378213D01*
X125378213Y-102489707D01*
X125378210Y-102489711D01*
X125290609Y-102620814D01*
X125290602Y-102620827D01*
X125230264Y-102766498D01*
X125230261Y-102766510D01*
X125199500Y-102921153D01*
X115069471Y-102921153D01*
X115038477Y-102725466D01*
X114975220Y-102530781D01*
X114975218Y-102530778D01*
X114975218Y-102530776D01*
X114929515Y-102441080D01*
X114882287Y-102348390D01*
X114840302Y-102290602D01*
X114761971Y-102182786D01*
X114617213Y-102038028D01*
X114451613Y-101917715D01*
X114451612Y-101917714D01*
X114451610Y-101917713D01*
X114394653Y-101888691D01*
X114269223Y-101824781D01*
X114074534Y-101761522D01*
X113899995Y-101733878D01*
X113872352Y-101729500D01*
X113667648Y-101729500D01*
X113643329Y-101733351D01*
X113465465Y-101761522D01*
X113270776Y-101824781D01*
X113088386Y-101917715D01*
X112922786Y-102038028D01*
X112778028Y-102182786D01*
X112657715Y-102348386D01*
X112610485Y-102441080D01*
X112562510Y-102491876D01*
X112494689Y-102508671D01*
X112428554Y-102486134D01*
X112389515Y-102441080D01*
X112388883Y-102439840D01*
X112342287Y-102348390D01*
X112300302Y-102290602D01*
X112221971Y-102182786D01*
X112077213Y-102038028D01*
X111911613Y-101917715D01*
X111911612Y-101917714D01*
X111911610Y-101917713D01*
X111854653Y-101888691D01*
X111729223Y-101824781D01*
X111534534Y-101761522D01*
X111359995Y-101733878D01*
X111332352Y-101729500D01*
X111127648Y-101729500D01*
X111103329Y-101733351D01*
X110925465Y-101761522D01*
X110730776Y-101824781D01*
X110548386Y-101917715D01*
X110382786Y-102038028D01*
X110238032Y-102182782D01*
X110238028Y-102182787D01*
X110224318Y-102201658D01*
X110168988Y-102244324D01*
X110099375Y-102250303D01*
X110037580Y-102217697D01*
X110003223Y-102156859D01*
X110000000Y-102128773D01*
X110000000Y-95421153D01*
X119699500Y-95421153D01*
X119699500Y-95578846D01*
X119730261Y-95733489D01*
X119730264Y-95733501D01*
X119790602Y-95879172D01*
X119790609Y-95879185D01*
X119878210Y-96010288D01*
X119878213Y-96010292D01*
X119989707Y-96121786D01*
X119989711Y-96121789D01*
X120120814Y-96209390D01*
X120120827Y-96209397D01*
X120266498Y-96269735D01*
X120266503Y-96269737D01*
X120421153Y-96300499D01*
X120421156Y-96300500D01*
X120421158Y-96300500D01*
X120578844Y-96300500D01*
X120578845Y-96300499D01*
X120733497Y-96269737D01*
X120879179Y-96209394D01*
X121010289Y-96121789D01*
X121121789Y-96010289D01*
X121209394Y-95879179D01*
X121269737Y-95733497D01*
X121300500Y-95578842D01*
X121300500Y-95421158D01*
X121300500Y-95421155D01*
X121300499Y-95421153D01*
X121269738Y-95266510D01*
X121269737Y-95266503D01*
X121243072Y-95202127D01*
X121209397Y-95120827D01*
X121209390Y-95120814D01*
X121121789Y-94989711D01*
X121121786Y-94989707D01*
X121010292Y-94878213D01*
X121010288Y-94878210D01*
X120879185Y-94790609D01*
X120879172Y-94790602D01*
X120733501Y-94730264D01*
X120733489Y-94730261D01*
X120578845Y-94699500D01*
X120578842Y-94699500D01*
X120421158Y-94699500D01*
X120421155Y-94699500D01*
X120266510Y-94730261D01*
X120266498Y-94730264D01*
X120120827Y-94790602D01*
X120120814Y-94790609D01*
X119989711Y-94878210D01*
X119989707Y-94878213D01*
X119878213Y-94989707D01*
X119878210Y-94989711D01*
X119790609Y-95120814D01*
X119790602Y-95120827D01*
X119730264Y-95266498D01*
X119730261Y-95266510D01*
X119699500Y-95421153D01*
X110000000Y-95421153D01*
X110000000Y-92767648D01*
X112469500Y-92767648D01*
X112469500Y-92972351D01*
X112501522Y-93174534D01*
X112564781Y-93369223D01*
X112657715Y-93551613D01*
X112778028Y-93717213D01*
X112922786Y-93861971D01*
X113077749Y-93974556D01*
X113088390Y-93982287D01*
X113204607Y-94041503D01*
X113270776Y-94075218D01*
X113270778Y-94075218D01*
X113270781Y-94075220D01*
X113375137Y-94109127D01*
X113465465Y-94138477D01*
X113566557Y-94154488D01*
X113667648Y-94170500D01*
X113667649Y-94170500D01*
X113872351Y-94170500D01*
X113872352Y-94170500D01*
X114074534Y-94138477D01*
X114269219Y-94075220D01*
X114451610Y-93982287D01*
X114544590Y-93914732D01*
X114617213Y-93861971D01*
X114617215Y-93861968D01*
X114617219Y-93861966D01*
X114761966Y-93717219D01*
X114761968Y-93717215D01*
X114761971Y-93717213D01*
X114814732Y-93644590D01*
X114882287Y-93551610D01*
X114975220Y-93369219D01*
X115038477Y-93174534D01*
X115070500Y-92972352D01*
X115070500Y-92767648D01*
X115038477Y-92565466D01*
X114975220Y-92370781D01*
X114975218Y-92370778D01*
X114975218Y-92370776D01*
X114941503Y-92304607D01*
X114882287Y-92188390D01*
X114874556Y-92177749D01*
X114761971Y-92022786D01*
X114617213Y-91878028D01*
X114451613Y-91757715D01*
X114451612Y-91757714D01*
X114451610Y-91757713D01*
X114394653Y-91728691D01*
X114269223Y-91664781D01*
X114074534Y-91601522D01*
X113899995Y-91573878D01*
X113872352Y-91569500D01*
X113667648Y-91569500D01*
X113643329Y-91573351D01*
X113465465Y-91601522D01*
X113270776Y-91664781D01*
X113088386Y-91757715D01*
X112922786Y-91878028D01*
X112778028Y-92022786D01*
X112657715Y-92188386D01*
X112564781Y-92370776D01*
X112501522Y-92565465D01*
X112469500Y-92767648D01*
X110000000Y-92767648D01*
X110000000Y-88421153D01*
X117699500Y-88421153D01*
X117699500Y-88578846D01*
X117730261Y-88733489D01*
X117730264Y-88733501D01*
X117790602Y-88879172D01*
X117790609Y-88879185D01*
X117878210Y-89010288D01*
X117878213Y-89010292D01*
X117989707Y-89121786D01*
X117989711Y-89121789D01*
X118120814Y-89209390D01*
X118120827Y-89209397D01*
X118266498Y-89269735D01*
X118266503Y-89269737D01*
X118421153Y-89300499D01*
X118421156Y-89300500D01*
X118421158Y-89300500D01*
X118578844Y-89300500D01*
X118578845Y-89300499D01*
X118733497Y-89269737D01*
X118879179Y-89209394D01*
X119010289Y-89121789D01*
X119121789Y-89010289D01*
X119209394Y-88879179D01*
X119269737Y-88733497D01*
X119300500Y-88578842D01*
X119300500Y-88421158D01*
X119300500Y-88421155D01*
X119300499Y-88421153D01*
X119286429Y-88350420D01*
X119269737Y-88266503D01*
X119269735Y-88266498D01*
X119209397Y-88120827D01*
X119209390Y-88120814D01*
X119121789Y-87989711D01*
X119121786Y-87989707D01*
X119010292Y-87878213D01*
X119010288Y-87878210D01*
X118879185Y-87790609D01*
X118879172Y-87790602D01*
X118733501Y-87730264D01*
X118733489Y-87730261D01*
X118578845Y-87699500D01*
X118578842Y-87699500D01*
X118421158Y-87699500D01*
X118421155Y-87699500D01*
X118266510Y-87730261D01*
X118266498Y-87730264D01*
X118120827Y-87790602D01*
X118120814Y-87790609D01*
X117989711Y-87878210D01*
X117989707Y-87878213D01*
X117878213Y-87989707D01*
X117878210Y-87989711D01*
X117790609Y-88120814D01*
X117790602Y-88120827D01*
X117730264Y-88266498D01*
X117730261Y-88266510D01*
X117699500Y-88421153D01*
X110000000Y-88421153D01*
X110000000Y-86921152D01*
X115104947Y-86921152D01*
X115104947Y-87078845D01*
X115135708Y-87233488D01*
X115135711Y-87233500D01*
X115196049Y-87379171D01*
X115196056Y-87379184D01*
X115283657Y-87510287D01*
X115283660Y-87510291D01*
X115395154Y-87621785D01*
X115395158Y-87621788D01*
X115526261Y-87709389D01*
X115526274Y-87709396D01*
X115576655Y-87730264D01*
X115671950Y-87769736D01*
X115826600Y-87800498D01*
X115826603Y-87800499D01*
X115826605Y-87800499D01*
X115984291Y-87800499D01*
X115984292Y-87800498D01*
X116138944Y-87769736D01*
X116284626Y-87709393D01*
X116415736Y-87621788D01*
X116527236Y-87510288D01*
X116614841Y-87379178D01*
X116675184Y-87233496D01*
X116690867Y-87154650D01*
X116723251Y-87092741D01*
X116783967Y-87058167D01*
X116836676Y-87057226D01*
X116928542Y-87075500D01*
X116928545Y-87075500D01*
X117071457Y-87075500D01*
X117165751Y-87056742D01*
X117211620Y-87047619D01*
X117343653Y-86992929D01*
X117462479Y-86913532D01*
X117563532Y-86812479D01*
X117642929Y-86693653D01*
X117697619Y-86561620D01*
X117716039Y-86469018D01*
X117725500Y-86421457D01*
X117725500Y-86278542D01*
X117697620Y-86138385D01*
X117697619Y-86138384D01*
X117697619Y-86138380D01*
X117644562Y-86010289D01*
X117642930Y-86006349D01*
X117642925Y-86006340D01*
X117563532Y-85887521D01*
X117563529Y-85887517D01*
X117462482Y-85786470D01*
X117462478Y-85786467D01*
X117343659Y-85707074D01*
X117343650Y-85707069D01*
X117211620Y-85652381D01*
X117211614Y-85652379D01*
X117071457Y-85624500D01*
X117071455Y-85624500D01*
X116928545Y-85624500D01*
X116928543Y-85624500D01*
X116788385Y-85652379D01*
X116788379Y-85652381D01*
X116656349Y-85707069D01*
X116656340Y-85707074D01*
X116537521Y-85786467D01*
X116537517Y-85786470D01*
X116436470Y-85887517D01*
X116436467Y-85887521D01*
X116357074Y-86006340D01*
X116357069Y-86006349D01*
X116302381Y-86138379D01*
X116300612Y-86144212D01*
X116299295Y-86143812D01*
X116270139Y-86199540D01*
X116209420Y-86234109D01*
X116145182Y-86230659D01*
X116144767Y-86232029D01*
X116138935Y-86230259D01*
X115984292Y-86199499D01*
X115984289Y-86199499D01*
X115826605Y-86199499D01*
X115826602Y-86199499D01*
X115671957Y-86230260D01*
X115671945Y-86230263D01*
X115526274Y-86290601D01*
X115526261Y-86290608D01*
X115395158Y-86378209D01*
X115395154Y-86378212D01*
X115283660Y-86489706D01*
X115283657Y-86489710D01*
X115196056Y-86620813D01*
X115196049Y-86620826D01*
X115135711Y-86766497D01*
X115135708Y-86766509D01*
X115104947Y-86921152D01*
X110000000Y-86921152D01*
X110000000Y-85800983D01*
X110019685Y-85733944D01*
X110072489Y-85688189D01*
X110141647Y-85678245D01*
X110205203Y-85707270D01*
X110238561Y-85753531D01*
X110290602Y-85879172D01*
X110290609Y-85879185D01*
X110378210Y-86010288D01*
X110378213Y-86010292D01*
X110489707Y-86121786D01*
X110489711Y-86121789D01*
X110620814Y-86209390D01*
X110620827Y-86209397D01*
X110723346Y-86251861D01*
X110766503Y-86269737D01*
X110921153Y-86300499D01*
X110921156Y-86300500D01*
X110921158Y-86300500D01*
X111078844Y-86300500D01*
X111078845Y-86300499D01*
X111233497Y-86269737D01*
X111379179Y-86209394D01*
X111510289Y-86121789D01*
X111621789Y-86010289D01*
X111709394Y-85879179D01*
X111769737Y-85733497D01*
X111800500Y-85578842D01*
X111800500Y-85421158D01*
X111800500Y-85421155D01*
X111800499Y-85421153D01*
X111769737Y-85266503D01*
X111737113Y-85187741D01*
X111709397Y-85120827D01*
X111709390Y-85120814D01*
X111621789Y-84989711D01*
X111621786Y-84989707D01*
X111510292Y-84878213D01*
X111510288Y-84878210D01*
X111379185Y-84790609D01*
X111379172Y-84790602D01*
X111233501Y-84730264D01*
X111233489Y-84730261D01*
X111078845Y-84699500D01*
X111078842Y-84699500D01*
X110921158Y-84699500D01*
X110921155Y-84699500D01*
X110766510Y-84730261D01*
X110766498Y-84730264D01*
X110620827Y-84790602D01*
X110620814Y-84790609D01*
X110489711Y-84878210D01*
X110489707Y-84878213D01*
X110378213Y-84989707D01*
X110378210Y-84989711D01*
X110290609Y-85120814D01*
X110290604Y-85120823D01*
X110238561Y-85246469D01*
X110194720Y-85300872D01*
X110128426Y-85322937D01*
X110060727Y-85305658D01*
X110013116Y-85254521D01*
X110000000Y-85199016D01*
X110000000Y-82421153D01*
X110469500Y-82421153D01*
X110469500Y-82578846D01*
X110500261Y-82733489D01*
X110500264Y-82733501D01*
X110560602Y-82879172D01*
X110560609Y-82879185D01*
X110648210Y-83010288D01*
X110648213Y-83010292D01*
X110759707Y-83121786D01*
X110759711Y-83121789D01*
X110890814Y-83209390D01*
X110890827Y-83209397D01*
X110986429Y-83248996D01*
X111036503Y-83269737D01*
X111191153Y-83300499D01*
X111191156Y-83300500D01*
X111191158Y-83300500D01*
X111348844Y-83300500D01*
X111348845Y-83300499D01*
X111503497Y-83269737D01*
X111649179Y-83209394D01*
X111780289Y-83121789D01*
X111891789Y-83010289D01*
X111979394Y-82879179D01*
X112039737Y-82733497D01*
X112070500Y-82578842D01*
X112070500Y-82421158D01*
X112070500Y-82421155D01*
X112070499Y-82421153D01*
X112039738Y-82266510D01*
X112039737Y-82266503D01*
X112034952Y-82254951D01*
X111979397Y-82120827D01*
X111979390Y-82120814D01*
X111891789Y-81989711D01*
X111891786Y-81989707D01*
X111780292Y-81878213D01*
X111780288Y-81878210D01*
X111649185Y-81790609D01*
X111649172Y-81790602D01*
X111503501Y-81730264D01*
X111503489Y-81730261D01*
X111348845Y-81699500D01*
X111348842Y-81699500D01*
X111191158Y-81699500D01*
X111191155Y-81699500D01*
X111036510Y-81730261D01*
X111036498Y-81730264D01*
X110890827Y-81790602D01*
X110890814Y-81790609D01*
X110759711Y-81878210D01*
X110759707Y-81878213D01*
X110648213Y-81989707D01*
X110648210Y-81989711D01*
X110560609Y-82120814D01*
X110560602Y-82120827D01*
X110500264Y-82266498D01*
X110500261Y-82266510D01*
X110469500Y-82421153D01*
X110000000Y-82421153D01*
X110000000Y-80921153D01*
X112699500Y-80921153D01*
X112699500Y-81078846D01*
X112730261Y-81233489D01*
X112730264Y-81233501D01*
X112790602Y-81379172D01*
X112790609Y-81379185D01*
X112878210Y-81510288D01*
X112878213Y-81510292D01*
X112989707Y-81621786D01*
X112989711Y-81621789D01*
X113120814Y-81709390D01*
X113120827Y-81709397D01*
X113266498Y-81769735D01*
X113266503Y-81769737D01*
X113421153Y-81800499D01*
X113421156Y-81800500D01*
X113421158Y-81800500D01*
X113578844Y-81800500D01*
X113578845Y-81800499D01*
X113733497Y-81769737D01*
X113879179Y-81709394D01*
X114010289Y-81621789D01*
X114121789Y-81510289D01*
X114209394Y-81379179D01*
X114269737Y-81233497D01*
X114279508Y-81184373D01*
X114311892Y-81122464D01*
X114372607Y-81087890D01*
X114442377Y-81091629D01*
X114484696Y-81118295D01*
X114485001Y-81117924D01*
X114487957Y-81120350D01*
X114488806Y-81120885D01*
X114489705Y-81121784D01*
X114489711Y-81121789D01*
X114620814Y-81209390D01*
X114620827Y-81209397D01*
X114766498Y-81269735D01*
X114766503Y-81269737D01*
X114921153Y-81300499D01*
X114921156Y-81300500D01*
X114921158Y-81300500D01*
X115078844Y-81300500D01*
X115078845Y-81300499D01*
X115233497Y-81269737D01*
X115379179Y-81209394D01*
X115510289Y-81121789D01*
X115510291Y-81121786D01*
X115510295Y-81121784D01*
X115621786Y-81010292D01*
X115621789Y-81010289D01*
X115709394Y-80879179D01*
X115769737Y-80733497D01*
X115800500Y-80578842D01*
X115800500Y-80421158D01*
X115800500Y-80421155D01*
X115800499Y-80421153D01*
X115774531Y-80290606D01*
X115769737Y-80266503D01*
X115769735Y-80266498D01*
X115709397Y-80120827D01*
X115709390Y-80120814D01*
X115621789Y-79989711D01*
X115621786Y-79989707D01*
X115510292Y-79878213D01*
X115510288Y-79878210D01*
X115379185Y-79790609D01*
X115379172Y-79790602D01*
X115233501Y-79730264D01*
X115233489Y-79730261D01*
X115078845Y-79699500D01*
X115078842Y-79699500D01*
X114921158Y-79699500D01*
X114921155Y-79699500D01*
X114766510Y-79730261D01*
X114766498Y-79730264D01*
X114620827Y-79790602D01*
X114620814Y-79790609D01*
X114489711Y-79878210D01*
X114489707Y-79878213D01*
X114378213Y-79989707D01*
X114378210Y-79989711D01*
X114290609Y-80120814D01*
X114290602Y-80120827D01*
X114230264Y-80266498D01*
X114230261Y-80266507D01*
X114220491Y-80315626D01*
X114188105Y-80377536D01*
X114127389Y-80412110D01*
X114057620Y-80408369D01*
X114015303Y-80381704D01*
X114014999Y-80382076D01*
X114012040Y-80379647D01*
X114011193Y-80379114D01*
X114010292Y-80378213D01*
X114010288Y-80378210D01*
X113879185Y-80290609D01*
X113879172Y-80290602D01*
X113733501Y-80230264D01*
X113733489Y-80230261D01*
X113578845Y-80199500D01*
X113578842Y-80199500D01*
X113421158Y-80199500D01*
X113421155Y-80199500D01*
X113266510Y-80230261D01*
X113266498Y-80230264D01*
X113120827Y-80290602D01*
X113120814Y-80290609D01*
X112989711Y-80378210D01*
X112989707Y-80378213D01*
X112878213Y-80489707D01*
X112878210Y-80489711D01*
X112790609Y-80620814D01*
X112790602Y-80620827D01*
X112730264Y-80766498D01*
X112730261Y-80766510D01*
X112699500Y-80921153D01*
X110000000Y-80921153D01*
X110000000Y-79126454D01*
X110019685Y-79059415D01*
X110072489Y-79013660D01*
X110126427Y-79002478D01*
X115398889Y-79105840D01*
X115587808Y-79109544D01*
X115587808Y-79109543D01*
X115587809Y-79109544D01*
X115587809Y-69921153D01*
X118199500Y-69921153D01*
X118199500Y-70078846D01*
X118230261Y-70233489D01*
X118230264Y-70233501D01*
X118290602Y-70379172D01*
X118290609Y-70379185D01*
X118378210Y-70510288D01*
X118378213Y-70510292D01*
X118489705Y-70621784D01*
X118489711Y-70621789D01*
X118620814Y-70709390D01*
X118620827Y-70709397D01*
X118766498Y-70769735D01*
X118766503Y-70769737D01*
X118921153Y-70800499D01*
X118921156Y-70800500D01*
X118921158Y-70800500D01*
X119078844Y-70800500D01*
X119078845Y-70800499D01*
X119233497Y-70769737D01*
X119379179Y-70709394D01*
X119510289Y-70621789D01*
X119510291Y-70621786D01*
X119510295Y-70621784D01*
X119621786Y-70510292D01*
X119621789Y-70510289D01*
X119709394Y-70379179D01*
X119769737Y-70233497D01*
X119800500Y-70078842D01*
X119800500Y-69921158D01*
X119800500Y-69921155D01*
X119800499Y-69921153D01*
X119769738Y-69766510D01*
X119769737Y-69766503D01*
X119736050Y-69685175D01*
X119709397Y-69620827D01*
X119709390Y-69620814D01*
X119621789Y-69489711D01*
X119621786Y-69489707D01*
X119510292Y-69378213D01*
X119510288Y-69378210D01*
X119379185Y-69290609D01*
X119379172Y-69290602D01*
X119233501Y-69230264D01*
X119233489Y-69230261D01*
X119078845Y-69199500D01*
X119078842Y-69199500D01*
X118921158Y-69199500D01*
X118921155Y-69199500D01*
X118766510Y-69230261D01*
X118766498Y-69230264D01*
X118620827Y-69290602D01*
X118620814Y-69290609D01*
X118489711Y-69378210D01*
X118489707Y-69378213D01*
X118378213Y-69489707D01*
X118378210Y-69489711D01*
X118290609Y-69620814D01*
X118290602Y-69620827D01*
X118230264Y-69766498D01*
X118230261Y-69766510D01*
X118199500Y-69921153D01*
X115587809Y-69921153D01*
X115587809Y-63421153D01*
X117199500Y-63421153D01*
X117199500Y-63578846D01*
X117230261Y-63733489D01*
X117230264Y-63733501D01*
X117290602Y-63879172D01*
X117290609Y-63879185D01*
X117378210Y-64010288D01*
X117378213Y-64010292D01*
X117489707Y-64121786D01*
X117489711Y-64121789D01*
X117620814Y-64209390D01*
X117620827Y-64209397D01*
X117766498Y-64269735D01*
X117766503Y-64269737D01*
X117921153Y-64300499D01*
X117921156Y-64300500D01*
X117921158Y-64300500D01*
X118078844Y-64300500D01*
X118078845Y-64300499D01*
X118233497Y-64269737D01*
X118379179Y-64209394D01*
X118510289Y-64121789D01*
X118621789Y-64010289D01*
X118709394Y-63879179D01*
X118769737Y-63733497D01*
X118800500Y-63578842D01*
X118800500Y-63421158D01*
X118800500Y-63421155D01*
X118800499Y-63421153D01*
X118775641Y-63296184D01*
X118769737Y-63266503D01*
X118769735Y-63266498D01*
X118709397Y-63120827D01*
X118709390Y-63120814D01*
X118621789Y-62989711D01*
X118621786Y-62989707D01*
X118584746Y-62952667D01*
X118551261Y-62891344D01*
X118556245Y-62821652D01*
X118598117Y-62765719D01*
X118663581Y-62741302D01*
X118719878Y-62750424D01*
X118766503Y-62769737D01*
X118921153Y-62800499D01*
X118921156Y-62800500D01*
X118921158Y-62800500D01*
X119078844Y-62800500D01*
X119078845Y-62800499D01*
X119233497Y-62769737D01*
X119379179Y-62709394D01*
X119510289Y-62621789D01*
X119621789Y-62510289D01*
X119709394Y-62379179D01*
X119769737Y-62233497D01*
X119800500Y-62078842D01*
X119800500Y-61921158D01*
X119800500Y-61921155D01*
X119800499Y-61921153D01*
X119793598Y-61886460D01*
X119769737Y-61766503D01*
X119719642Y-61645561D01*
X119709397Y-61620827D01*
X119709390Y-61620814D01*
X119621789Y-61489711D01*
X119621786Y-61489707D01*
X119510292Y-61378213D01*
X119510288Y-61378210D01*
X119379185Y-61290609D01*
X119379172Y-61290602D01*
X119233501Y-61230264D01*
X119233489Y-61230261D01*
X119078845Y-61199500D01*
X119078842Y-61199500D01*
X118921158Y-61199500D01*
X118921155Y-61199500D01*
X118766510Y-61230261D01*
X118766498Y-61230264D01*
X118620827Y-61290602D01*
X118620814Y-61290609D01*
X118489711Y-61378210D01*
X118489707Y-61378213D01*
X118378213Y-61489707D01*
X118378210Y-61489711D01*
X118290609Y-61620814D01*
X118290602Y-61620827D01*
X118230264Y-61766498D01*
X118230261Y-61766510D01*
X118199500Y-61921153D01*
X118199500Y-62078846D01*
X118230261Y-62233489D01*
X118230264Y-62233501D01*
X118290602Y-62379172D01*
X118290609Y-62379185D01*
X118378210Y-62510288D01*
X118378213Y-62510292D01*
X118415253Y-62547332D01*
X118448738Y-62608655D01*
X118443754Y-62678347D01*
X118401882Y-62734280D01*
X118336418Y-62758697D01*
X118280121Y-62749575D01*
X118233497Y-62730263D01*
X118233492Y-62730262D01*
X118233489Y-62730261D01*
X118078845Y-62699500D01*
X118078842Y-62699500D01*
X117921158Y-62699500D01*
X117921155Y-62699500D01*
X117766510Y-62730261D01*
X117766498Y-62730264D01*
X117620827Y-62790602D01*
X117620814Y-62790609D01*
X117489711Y-62878210D01*
X117489707Y-62878213D01*
X117378213Y-62989707D01*
X117378210Y-62989711D01*
X117290609Y-63120814D01*
X117290602Y-63120827D01*
X117230264Y-63266498D01*
X117230261Y-63266510D01*
X117199500Y-63421153D01*
X115587809Y-63421153D01*
X115587809Y-58109544D01*
X114973932Y-58090800D01*
X114957597Y-58089215D01*
X114888711Y-58077888D01*
X114888704Y-58077887D01*
X114024091Y-58060441D01*
X114024090Y-58060441D01*
X114024089Y-58060441D01*
X114021975Y-58060550D01*
X114012682Y-58061032D01*
X114002484Y-58061140D01*
X112120216Y-58003670D01*
X112053808Y-57981949D01*
X112009686Y-57927773D01*
X112000000Y-57879728D01*
X112000000Y-57421153D01*
X118199500Y-57421153D01*
X118199500Y-57578846D01*
X118230261Y-57733489D01*
X118230264Y-57733501D01*
X118290602Y-57879172D01*
X118290609Y-57879185D01*
X118378210Y-58010288D01*
X118378213Y-58010292D01*
X118489707Y-58121786D01*
X118489711Y-58121789D01*
X118620814Y-58209390D01*
X118620827Y-58209397D01*
X118765098Y-58269155D01*
X118766503Y-58269737D01*
X118905056Y-58297297D01*
X118921153Y-58300499D01*
X118921156Y-58300500D01*
X118921158Y-58300500D01*
X119078844Y-58300500D01*
X119078845Y-58300499D01*
X119233497Y-58269737D01*
X119379179Y-58209394D01*
X119510289Y-58121789D01*
X119621789Y-58010289D01*
X119709394Y-57879179D01*
X119769737Y-57733497D01*
X119800500Y-57578842D01*
X119800500Y-57421158D01*
X119800500Y-57421155D01*
X119800499Y-57421153D01*
X119769738Y-57266510D01*
X119769737Y-57266503D01*
X119769735Y-57266498D01*
X119709397Y-57120827D01*
X119709390Y-57120814D01*
X119621789Y-56989711D01*
X119621786Y-56989707D01*
X119510292Y-56878213D01*
X119510288Y-56878210D01*
X119379185Y-56790609D01*
X119379172Y-56790602D01*
X119233501Y-56730264D01*
X119233489Y-56730261D01*
X119078845Y-56699500D01*
X119078842Y-56699500D01*
X118921158Y-56699500D01*
X118921155Y-56699500D01*
X118766510Y-56730261D01*
X118766498Y-56730264D01*
X118620827Y-56790602D01*
X118620814Y-56790609D01*
X118489711Y-56878210D01*
X118489707Y-56878213D01*
X118378213Y-56989707D01*
X118378210Y-56989711D01*
X118290609Y-57120814D01*
X118290602Y-57120827D01*
X118230264Y-57266498D01*
X118230261Y-57266510D01*
X118199500Y-57421153D01*
X112000000Y-57421153D01*
X112000000Y-56620320D01*
X112019685Y-56553281D01*
X112072489Y-56507526D01*
X112099800Y-56498705D01*
X112142377Y-56490236D01*
X112288059Y-56429893D01*
X112419169Y-56342288D01*
X112530669Y-56230788D01*
X112618274Y-56099678D01*
X112678617Y-55953996D01*
X112709380Y-55799341D01*
X112709380Y-55641657D01*
X112709380Y-55641654D01*
X112709379Y-55641652D01*
X112678618Y-55487009D01*
X112678617Y-55487002D01*
X112678615Y-55486997D01*
X112618277Y-55341326D01*
X112618270Y-55341313D01*
X112530669Y-55210210D01*
X112530666Y-55210206D01*
X112419172Y-55098712D01*
X112419168Y-55098709D01*
X112288065Y-55011108D01*
X112288052Y-55011101D01*
X112142381Y-54950763D01*
X112142371Y-54950760D01*
X112099808Y-54942294D01*
X112037897Y-54909909D01*
X112003323Y-54849193D01*
X112000000Y-54820677D01*
X112000000Y-53123495D01*
X112019685Y-53056456D01*
X112072489Y-53010701D01*
X112123493Y-52999496D01*
X113687704Y-52993113D01*
X113754820Y-53012524D01*
X113800790Y-53065141D01*
X113811016Y-53134258D01*
X113782251Y-53197932D01*
X113735662Y-53231672D01*
X113696171Y-53248030D01*
X113696159Y-53248036D01*
X113565056Y-53335637D01*
X113565052Y-53335640D01*
X113453558Y-53447134D01*
X113453555Y-53447138D01*
X113365954Y-53578241D01*
X113365947Y-53578254D01*
X113305609Y-53723925D01*
X113305606Y-53723937D01*
X113274845Y-53878580D01*
X113274845Y-54036273D01*
X113305606Y-54190916D01*
X113305609Y-54190928D01*
X113365947Y-54336599D01*
X113365954Y-54336612D01*
X113453555Y-54467715D01*
X113453558Y-54467719D01*
X113565052Y-54579213D01*
X113565056Y-54579216D01*
X113696159Y-54666817D01*
X113696172Y-54666824D01*
X113841843Y-54727162D01*
X113841848Y-54727164D01*
X113996498Y-54757926D01*
X113996501Y-54757927D01*
X113996503Y-54757927D01*
X114154189Y-54757927D01*
X114154190Y-54757926D01*
X114308842Y-54727164D01*
X114454524Y-54666821D01*
X114585634Y-54579216D01*
X114697134Y-54467716D01*
X114784739Y-54336606D01*
X114845082Y-54190924D01*
X114875845Y-54036269D01*
X114875845Y-53878585D01*
X114875845Y-53878582D01*
X114875844Y-53878580D01*
X114845083Y-53723937D01*
X114845082Y-53723930D01*
X114845080Y-53723925D01*
X114784742Y-53578254D01*
X114784735Y-53578241D01*
X114697134Y-53447138D01*
X114697131Y-53447134D01*
X114585637Y-53335640D01*
X114585633Y-53335637D01*
X114454530Y-53248036D01*
X114454521Y-53248031D01*
X114407476Y-53228545D01*
X114353073Y-53184704D01*
X114331008Y-53118410D01*
X114348287Y-53050711D01*
X114399424Y-53003100D01*
X114454420Y-52989985D01*
X120099854Y-52966951D01*
X120166972Y-52986362D01*
G37*
%TD.AperFunction*%
%TD*%
%TA.AperFunction,Conductor*%
%TO.N,+3.3V_MOTOR*%
G36*
X125310077Y-50122424D02*
G01*
X125376955Y-50142644D01*
X125422287Y-50195812D01*
X125433084Y-50246420D01*
X125433084Y-73095363D01*
X125413399Y-73162402D01*
X125360595Y-73208157D01*
X125333276Y-73216980D01*
X125266508Y-73230261D01*
X125266498Y-73230264D01*
X125120827Y-73290602D01*
X125120814Y-73290609D01*
X124989711Y-73378210D01*
X124989707Y-73378213D01*
X124878213Y-73489707D01*
X124878210Y-73489711D01*
X124790609Y-73620814D01*
X124790602Y-73620827D01*
X124730264Y-73766498D01*
X124730261Y-73766510D01*
X124699500Y-73921153D01*
X124699500Y-74078846D01*
X124730261Y-74233489D01*
X124730264Y-74233501D01*
X124790602Y-74379172D01*
X124790609Y-74379185D01*
X124878210Y-74510288D01*
X124878213Y-74510292D01*
X124989707Y-74621786D01*
X124989711Y-74621789D01*
X125120814Y-74709390D01*
X125120827Y-74709397D01*
X125266498Y-74769735D01*
X125266503Y-74769737D01*
X125316309Y-74779644D01*
X125333275Y-74783019D01*
X125395186Y-74815403D01*
X125429760Y-74876119D01*
X125433084Y-74904636D01*
X125433084Y-83123623D01*
X125433227Y-83164851D01*
X125433227Y-83164943D01*
X125433228Y-83164943D01*
X125454356Y-90925966D01*
X125434854Y-90993059D01*
X125382174Y-91038958D01*
X125329000Y-91050297D01*
X120852503Y-91001341D01*
X120785683Y-90980924D01*
X120740508Y-90927623D01*
X120729859Y-90877348D01*
X120729859Y-89671297D01*
X121199500Y-89671297D01*
X121199500Y-89828990D01*
X121230261Y-89983633D01*
X121230264Y-89983645D01*
X121290602Y-90129316D01*
X121290609Y-90129329D01*
X121378210Y-90260432D01*
X121378213Y-90260436D01*
X121489707Y-90371930D01*
X121489711Y-90371933D01*
X121620814Y-90459534D01*
X121620827Y-90459541D01*
X121766498Y-90519879D01*
X121766503Y-90519881D01*
X121921153Y-90550643D01*
X121921156Y-90550644D01*
X121921158Y-90550644D01*
X122078844Y-90550644D01*
X122078845Y-90550643D01*
X122233497Y-90519881D01*
X122379179Y-90459538D01*
X122510289Y-90371933D01*
X122621789Y-90260433D01*
X122709394Y-90129323D01*
X122769737Y-89983641D01*
X122800500Y-89828986D01*
X122800500Y-89671302D01*
X122800500Y-89671299D01*
X122800499Y-89671297D01*
X122777718Y-89556770D01*
X122769737Y-89516647D01*
X122769735Y-89516642D01*
X122709397Y-89370971D01*
X122709390Y-89370958D01*
X122621789Y-89239855D01*
X122621786Y-89239851D01*
X122510292Y-89128357D01*
X122510288Y-89128354D01*
X122379185Y-89040753D01*
X122379172Y-89040746D01*
X122233501Y-88980408D01*
X122233489Y-88980405D01*
X122078845Y-88949644D01*
X122078842Y-88949644D01*
X121921158Y-88949644D01*
X121921155Y-88949644D01*
X121766510Y-88980405D01*
X121766498Y-88980408D01*
X121620827Y-89040746D01*
X121620814Y-89040753D01*
X121489711Y-89128354D01*
X121489707Y-89128357D01*
X121378213Y-89239851D01*
X121378210Y-89239855D01*
X121290609Y-89370958D01*
X121290602Y-89370971D01*
X121230264Y-89516642D01*
X121230261Y-89516654D01*
X121199500Y-89671297D01*
X120729859Y-89671297D01*
X120729859Y-84875393D01*
X121024500Y-84875393D01*
X121024500Y-85033086D01*
X121055261Y-85187729D01*
X121055264Y-85187741D01*
X121115602Y-85333412D01*
X121115609Y-85333425D01*
X121203210Y-85464528D01*
X121203213Y-85464532D01*
X121314710Y-85576029D01*
X121363738Y-85608788D01*
X121408543Y-85662400D01*
X121417250Y-85731725D01*
X121387096Y-85794752D01*
X121363739Y-85814991D01*
X121314713Y-85847749D01*
X121314707Y-85847754D01*
X121203213Y-85959248D01*
X121203210Y-85959252D01*
X121115609Y-86090355D01*
X121115602Y-86090368D01*
X121055264Y-86236039D01*
X121055261Y-86236051D01*
X121024500Y-86390694D01*
X121024500Y-86548387D01*
X121055261Y-86703030D01*
X121055264Y-86703042D01*
X121115602Y-86848713D01*
X121115609Y-86848726D01*
X121203210Y-86979829D01*
X121203213Y-86979833D01*
X121314707Y-87091327D01*
X121314711Y-87091330D01*
X121445814Y-87178931D01*
X121445827Y-87178938D01*
X121577544Y-87233496D01*
X121591503Y-87239278D01*
X121744630Y-87269737D01*
X121746153Y-87270040D01*
X121746156Y-87270041D01*
X121746158Y-87270041D01*
X121903844Y-87270041D01*
X121903845Y-87270040D01*
X122058497Y-87239278D01*
X122204179Y-87178935D01*
X122335289Y-87091330D01*
X122446789Y-86979830D01*
X122534394Y-86848720D01*
X122594737Y-86703038D01*
X122625500Y-86548383D01*
X122625500Y-86390699D01*
X122625500Y-86390696D01*
X122625499Y-86390694D01*
X122601439Y-86269737D01*
X122594737Y-86236044D01*
X122554284Y-86138380D01*
X122534397Y-86090368D01*
X122534390Y-86090355D01*
X122446789Y-85959252D01*
X122446786Y-85959248D01*
X122335292Y-85847754D01*
X122335288Y-85847751D01*
X122286261Y-85814992D01*
X122241456Y-85761380D01*
X122232749Y-85692055D01*
X122262904Y-85629027D01*
X122286257Y-85608790D01*
X122335289Y-85576029D01*
X122446789Y-85464529D01*
X122534394Y-85333419D01*
X122594737Y-85187737D01*
X122625500Y-85033082D01*
X122625500Y-84875398D01*
X122625500Y-84875395D01*
X122625499Y-84875393D01*
X122594737Y-84720743D01*
X122585938Y-84699500D01*
X122534397Y-84575067D01*
X122534390Y-84575054D01*
X122446789Y-84443951D01*
X122446786Y-84443947D01*
X122335292Y-84332453D01*
X122335288Y-84332450D01*
X122204185Y-84244849D01*
X122204172Y-84244842D01*
X122058501Y-84184504D01*
X122058489Y-84184501D01*
X121903845Y-84153740D01*
X121903842Y-84153740D01*
X121746158Y-84153740D01*
X121746155Y-84153740D01*
X121591510Y-84184501D01*
X121591498Y-84184504D01*
X121445827Y-84244842D01*
X121445814Y-84244849D01*
X121314711Y-84332450D01*
X121314707Y-84332453D01*
X121203213Y-84443947D01*
X121203210Y-84443951D01*
X121115609Y-84575054D01*
X121115602Y-84575067D01*
X121055264Y-84720738D01*
X121055261Y-84720750D01*
X121024500Y-84875393D01*
X120729859Y-84875393D01*
X120729859Y-73421153D01*
X121199500Y-73421153D01*
X121199500Y-73578846D01*
X121230261Y-73733489D01*
X121230264Y-73733501D01*
X121290602Y-73879172D01*
X121290609Y-73879185D01*
X121378210Y-74010288D01*
X121378213Y-74010292D01*
X121489707Y-74121786D01*
X121489711Y-74121789D01*
X121620814Y-74209390D01*
X121620827Y-74209397D01*
X121766498Y-74269735D01*
X121766503Y-74269737D01*
X121921153Y-74300499D01*
X121921156Y-74300500D01*
X121921158Y-74300500D01*
X122078844Y-74300500D01*
X122078845Y-74300499D01*
X122233497Y-74269737D01*
X122379179Y-74209394D01*
X122510289Y-74121789D01*
X122621789Y-74010289D01*
X122709394Y-73879179D01*
X122769737Y-73733497D01*
X122800500Y-73578842D01*
X122800500Y-73421158D01*
X122800500Y-73421155D01*
X122800499Y-73421153D01*
X122774531Y-73290606D01*
X122769737Y-73266503D01*
X122769735Y-73266498D01*
X122709397Y-73120827D01*
X122709390Y-73120814D01*
X122621789Y-72989711D01*
X122621786Y-72989707D01*
X122510292Y-72878213D01*
X122510288Y-72878210D01*
X122379185Y-72790609D01*
X122379172Y-72790602D01*
X122233501Y-72730264D01*
X122233489Y-72730261D01*
X122078845Y-72699500D01*
X122078842Y-72699500D01*
X121921158Y-72699500D01*
X121921155Y-72699500D01*
X121766510Y-72730261D01*
X121766498Y-72730264D01*
X121620827Y-72790602D01*
X121620814Y-72790609D01*
X121489711Y-72878210D01*
X121489707Y-72878213D01*
X121378213Y-72989707D01*
X121378210Y-72989711D01*
X121290609Y-73120814D01*
X121290602Y-73120827D01*
X121230264Y-73266498D01*
X121230261Y-73266510D01*
X121199500Y-73421153D01*
X120729859Y-73421153D01*
X120729859Y-70921153D01*
X122199500Y-70921153D01*
X122199500Y-71078846D01*
X122230261Y-71233489D01*
X122230264Y-71233501D01*
X122290602Y-71379172D01*
X122290609Y-71379185D01*
X122378210Y-71510288D01*
X122378213Y-71510292D01*
X122489707Y-71621786D01*
X122489711Y-71621789D01*
X122620814Y-71709390D01*
X122620827Y-71709397D01*
X122766498Y-71769735D01*
X122766503Y-71769737D01*
X122921153Y-71800499D01*
X122921156Y-71800500D01*
X122921158Y-71800500D01*
X123078844Y-71800500D01*
X123078845Y-71800499D01*
X123233497Y-71769737D01*
X123379179Y-71709394D01*
X123510289Y-71621789D01*
X123621789Y-71510289D01*
X123709394Y-71379179D01*
X123769737Y-71233497D01*
X123800500Y-71078842D01*
X123800500Y-70921158D01*
X123800500Y-70921155D01*
X123800499Y-70921153D01*
X123769738Y-70766510D01*
X123769737Y-70766503D01*
X123709795Y-70621789D01*
X123709397Y-70620827D01*
X123709390Y-70620814D01*
X123621789Y-70489711D01*
X123621786Y-70489707D01*
X123510292Y-70378213D01*
X123510288Y-70378210D01*
X123379185Y-70290609D01*
X123379172Y-70290602D01*
X123233501Y-70230264D01*
X123233489Y-70230261D01*
X123078845Y-70199500D01*
X123078842Y-70199500D01*
X122921158Y-70199500D01*
X122921155Y-70199500D01*
X122766510Y-70230261D01*
X122766498Y-70230264D01*
X122620827Y-70290602D01*
X122620814Y-70290609D01*
X122489711Y-70378210D01*
X122489707Y-70378213D01*
X122378213Y-70489707D01*
X122378210Y-70489711D01*
X122290609Y-70620814D01*
X122290602Y-70620827D01*
X122230264Y-70766498D01*
X122230261Y-70766510D01*
X122199500Y-70921153D01*
X120729859Y-70921153D01*
X120729859Y-69354436D01*
X120739298Y-69306983D01*
X120769737Y-69233497D01*
X120800500Y-69078842D01*
X120800500Y-68921158D01*
X120800500Y-68921155D01*
X120800499Y-68921153D01*
X120769739Y-68766511D01*
X120769736Y-68766501D01*
X120768881Y-68764438D01*
X120739298Y-68693016D01*
X120729859Y-68645564D01*
X120729859Y-67421153D01*
X121199500Y-67421153D01*
X121199500Y-67578846D01*
X121230261Y-67733489D01*
X121230264Y-67733501D01*
X121290602Y-67879172D01*
X121290609Y-67879185D01*
X121378210Y-68010288D01*
X121378213Y-68010292D01*
X121489707Y-68121786D01*
X121489711Y-68121789D01*
X121620814Y-68209390D01*
X121620827Y-68209397D01*
X121766498Y-68269735D01*
X121766503Y-68269737D01*
X121871418Y-68290606D01*
X121921153Y-68300499D01*
X121921156Y-68300500D01*
X121921158Y-68300500D01*
X122078844Y-68300500D01*
X122078845Y-68300499D01*
X122233497Y-68269737D01*
X122379179Y-68209394D01*
X122510289Y-68121789D01*
X122621789Y-68010289D01*
X122709394Y-67879179D01*
X122769737Y-67733497D01*
X122778383Y-67690033D01*
X122810768Y-67628122D01*
X122871483Y-67593548D01*
X122941253Y-67597287D01*
X122997925Y-67638154D01*
X123021617Y-67690033D01*
X123030261Y-67733489D01*
X123030264Y-67733501D01*
X123090602Y-67879172D01*
X123090609Y-67879185D01*
X123178210Y-68010288D01*
X123178213Y-68010292D01*
X123289707Y-68121786D01*
X123289711Y-68121789D01*
X123420814Y-68209390D01*
X123420827Y-68209397D01*
X123566498Y-68269735D01*
X123566503Y-68269737D01*
X123671418Y-68290606D01*
X123721153Y-68300499D01*
X123721156Y-68300500D01*
X123721158Y-68300500D01*
X123878844Y-68300500D01*
X123878845Y-68300499D01*
X124033497Y-68269737D01*
X124179179Y-68209394D01*
X124310289Y-68121789D01*
X124421789Y-68010289D01*
X124509394Y-67879179D01*
X124569737Y-67733497D01*
X124600500Y-67578842D01*
X124600500Y-67421158D01*
X124600500Y-67421155D01*
X124600499Y-67421153D01*
X124591957Y-67378211D01*
X124569737Y-67266503D01*
X124541984Y-67199500D01*
X124509397Y-67120827D01*
X124509390Y-67120814D01*
X124421789Y-66989711D01*
X124421786Y-66989707D01*
X124310292Y-66878213D01*
X124310288Y-66878210D01*
X124179185Y-66790609D01*
X124179172Y-66790602D01*
X124033501Y-66730264D01*
X124033489Y-66730261D01*
X123878845Y-66699500D01*
X123878842Y-66699500D01*
X123721158Y-66699500D01*
X123721155Y-66699500D01*
X123566510Y-66730261D01*
X123566498Y-66730264D01*
X123420827Y-66790602D01*
X123420814Y-66790609D01*
X123289711Y-66878210D01*
X123289707Y-66878213D01*
X123178213Y-66989707D01*
X123178210Y-66989711D01*
X123090609Y-67120814D01*
X123090602Y-67120827D01*
X123030264Y-67266498D01*
X123030261Y-67266508D01*
X123021617Y-67309967D01*
X122989232Y-67371878D01*
X122928516Y-67406452D01*
X122858747Y-67402712D01*
X122802075Y-67361845D01*
X122778383Y-67309967D01*
X122769738Y-67266508D01*
X122769737Y-67266507D01*
X122769737Y-67266503D01*
X122741984Y-67199500D01*
X122709397Y-67120827D01*
X122709390Y-67120814D01*
X122621789Y-66989711D01*
X122621786Y-66989707D01*
X122510292Y-66878213D01*
X122510288Y-66878210D01*
X122379185Y-66790609D01*
X122379172Y-66790602D01*
X122233501Y-66730264D01*
X122233489Y-66730261D01*
X122078845Y-66699500D01*
X122078842Y-66699500D01*
X121921158Y-66699500D01*
X121921155Y-66699500D01*
X121766510Y-66730261D01*
X121766498Y-66730264D01*
X121620827Y-66790602D01*
X121620814Y-66790609D01*
X121489711Y-66878210D01*
X121489707Y-66878213D01*
X121378213Y-66989707D01*
X121378210Y-66989711D01*
X121290609Y-67120814D01*
X121290602Y-67120827D01*
X121230264Y-67266498D01*
X121230261Y-67266510D01*
X121199500Y-67421153D01*
X120729859Y-67421153D01*
X120729859Y-66854436D01*
X120739298Y-66806983D01*
X120769737Y-66733497D01*
X120800500Y-66578842D01*
X120800500Y-66421158D01*
X120800500Y-66421155D01*
X120800499Y-66421153D01*
X120769739Y-66266511D01*
X120769736Y-66266501D01*
X120739298Y-66193016D01*
X120729859Y-66145564D01*
X120729859Y-65354436D01*
X120739298Y-65306983D01*
X120769737Y-65233497D01*
X120800500Y-65078842D01*
X120800500Y-64921158D01*
X120800500Y-64921155D01*
X120800499Y-64921153D01*
X120769739Y-64766511D01*
X120769736Y-64766501D01*
X120739298Y-64693016D01*
X120729859Y-64645564D01*
X120729859Y-62354436D01*
X120739298Y-62306983D01*
X120769737Y-62233497D01*
X120800500Y-62078842D01*
X120800500Y-61921158D01*
X120800500Y-61921155D01*
X120800499Y-61921153D01*
X120769739Y-61766511D01*
X120769736Y-61766501D01*
X120739298Y-61693016D01*
X120729859Y-61645564D01*
X120729859Y-57421153D01*
X121699500Y-57421153D01*
X121699500Y-57578846D01*
X121730261Y-57733489D01*
X121730264Y-57733501D01*
X121790602Y-57879172D01*
X121790609Y-57879185D01*
X121878210Y-58010288D01*
X121878213Y-58010292D01*
X121989707Y-58121786D01*
X121989711Y-58121789D01*
X122120814Y-58209390D01*
X122120827Y-58209397D01*
X122208776Y-58245826D01*
X122266503Y-58269737D01*
X122421153Y-58300499D01*
X122421156Y-58300500D01*
X122421158Y-58300500D01*
X122578844Y-58300500D01*
X122578845Y-58300499D01*
X122733497Y-58269737D01*
X122879179Y-58209394D01*
X123010289Y-58121789D01*
X123121789Y-58010289D01*
X123209394Y-57879179D01*
X123269737Y-57733497D01*
X123300500Y-57578842D01*
X123300500Y-57421158D01*
X123300500Y-57421155D01*
X123300499Y-57421153D01*
X123269738Y-57266510D01*
X123269737Y-57266503D01*
X123269735Y-57266498D01*
X123209397Y-57120827D01*
X123209390Y-57120814D01*
X123121789Y-56989711D01*
X123121786Y-56989707D01*
X123010292Y-56878213D01*
X123010288Y-56878210D01*
X122879185Y-56790609D01*
X122879172Y-56790602D01*
X122733501Y-56730264D01*
X122733489Y-56730261D01*
X122578845Y-56699500D01*
X122578842Y-56699500D01*
X122421158Y-56699500D01*
X122421155Y-56699500D01*
X122266510Y-56730261D01*
X122266498Y-56730264D01*
X122120827Y-56790602D01*
X122120814Y-56790609D01*
X121989711Y-56878210D01*
X121989707Y-56878213D01*
X121878213Y-56989707D01*
X121878210Y-56989711D01*
X121790609Y-57120814D01*
X121790602Y-57120827D01*
X121730264Y-57266498D01*
X121730261Y-57266510D01*
X121699500Y-57421153D01*
X120729859Y-57421153D01*
X120729859Y-52463471D01*
X114735190Y-52428292D01*
X114668268Y-52408214D01*
X114622823Y-52355143D01*
X114613286Y-52285927D01*
X114642683Y-52222543D01*
X114648238Y-52216612D01*
X114697131Y-52167719D01*
X114697134Y-52167716D01*
X114784739Y-52036606D01*
X114845082Y-51890924D01*
X114875845Y-51736269D01*
X114875845Y-51578585D01*
X114875845Y-51578582D01*
X114875844Y-51578580D01*
X114845083Y-51423937D01*
X114845082Y-51423930D01*
X114845080Y-51423925D01*
X114784742Y-51278254D01*
X114784735Y-51278241D01*
X114697134Y-51147138D01*
X114697131Y-51147134D01*
X114585637Y-51035640D01*
X114585633Y-51035637D01*
X114454530Y-50948036D01*
X114454517Y-50948029D01*
X114308846Y-50887691D01*
X114308834Y-50887688D01*
X114154190Y-50856927D01*
X114154187Y-50856927D01*
X113996503Y-50856927D01*
X113996500Y-50856927D01*
X113841855Y-50887688D01*
X113841843Y-50887691D01*
X113696172Y-50948029D01*
X113696159Y-50948036D01*
X113565056Y-51035637D01*
X113565052Y-51035640D01*
X113453558Y-51147134D01*
X113453555Y-51147138D01*
X113365954Y-51278241D01*
X113365947Y-51278254D01*
X113305609Y-51423925D01*
X113305606Y-51423937D01*
X113274845Y-51578580D01*
X113274845Y-51736273D01*
X113305606Y-51890916D01*
X113305609Y-51890928D01*
X113365947Y-52036599D01*
X113365954Y-52036612D01*
X113453555Y-52167715D01*
X113453558Y-52167719D01*
X113494654Y-52208815D01*
X113528139Y-52270138D01*
X113523155Y-52339830D01*
X113481283Y-52395763D01*
X113415819Y-52420180D01*
X113406245Y-52420494D01*
X111460739Y-52409078D01*
X111460738Y-52409078D01*
X111466719Y-54986620D01*
X111447190Y-55053705D01*
X111411616Y-55090006D01*
X111398591Y-55098710D01*
X111398584Y-55098716D01*
X111287093Y-55210206D01*
X111287090Y-55210210D01*
X111199489Y-55341313D01*
X111199482Y-55341326D01*
X111139144Y-55486997D01*
X111139141Y-55487009D01*
X111108380Y-55641652D01*
X111108380Y-55799345D01*
X111139141Y-55953988D01*
X111139144Y-55954000D01*
X111199482Y-56099671D01*
X111199489Y-56099684D01*
X111287090Y-56230787D01*
X111287093Y-56230791D01*
X111398587Y-56342285D01*
X111398591Y-56342288D01*
X111415020Y-56353266D01*
X111459825Y-56406879D01*
X111470129Y-56456080D01*
X111474339Y-58269735D01*
X111474907Y-58514606D01*
X113021092Y-58545805D01*
X113087720Y-58566838D01*
X113132401Y-58620555D01*
X113140947Y-58689900D01*
X113110646Y-58752857D01*
X113087481Y-58772882D01*
X112989711Y-58838210D01*
X112989707Y-58838213D01*
X112878213Y-58949707D01*
X112878210Y-58949711D01*
X112790609Y-59080814D01*
X112790602Y-59080827D01*
X112730264Y-59226498D01*
X112730261Y-59226510D01*
X112699500Y-59381153D01*
X112699500Y-59538846D01*
X112730261Y-59693489D01*
X112730264Y-59693501D01*
X112790602Y-59839172D01*
X112790609Y-59839185D01*
X112878210Y-59970288D01*
X112878213Y-59970292D01*
X112915240Y-60007319D01*
X112948725Y-60068642D01*
X112943741Y-60138334D01*
X112915240Y-60182681D01*
X112878213Y-60219707D01*
X112878210Y-60219711D01*
X112790609Y-60350814D01*
X112790602Y-60350827D01*
X112730264Y-60496498D01*
X112730261Y-60496510D01*
X112699500Y-60651153D01*
X112699500Y-60808846D01*
X112730261Y-60963489D01*
X112730264Y-60963501D01*
X112790602Y-61109172D01*
X112790609Y-61109185D01*
X112878210Y-61240288D01*
X112878213Y-61240292D01*
X112915240Y-61277319D01*
X112948725Y-61338642D01*
X112943741Y-61408334D01*
X112915240Y-61452681D01*
X112878213Y-61489707D01*
X112878210Y-61489711D01*
X112790609Y-61620814D01*
X112790602Y-61620827D01*
X112730264Y-61766498D01*
X112730261Y-61766510D01*
X112699500Y-61921153D01*
X112699500Y-62078846D01*
X112730261Y-62233489D01*
X112730264Y-62233501D01*
X112790602Y-62379172D01*
X112790609Y-62379185D01*
X112878210Y-62510288D01*
X112878213Y-62510292D01*
X112915240Y-62547319D01*
X112948725Y-62608642D01*
X112943741Y-62678334D01*
X112915240Y-62722681D01*
X112878213Y-62759707D01*
X112878210Y-62759711D01*
X112790609Y-62890814D01*
X112790602Y-62890827D01*
X112730264Y-63036498D01*
X112730261Y-63036510D01*
X112699500Y-63191153D01*
X112699500Y-63348846D01*
X112730261Y-63503489D01*
X112730264Y-63503501D01*
X112790602Y-63649172D01*
X112790609Y-63649185D01*
X112878210Y-63780288D01*
X112878213Y-63780292D01*
X112989707Y-63891786D01*
X112989711Y-63891789D01*
X113120814Y-63979390D01*
X113120827Y-63979397D01*
X113266498Y-64039735D01*
X113266503Y-64039737D01*
X113421153Y-64070499D01*
X113421156Y-64070500D01*
X113421158Y-64070500D01*
X113578844Y-64070500D01*
X113578845Y-64070499D01*
X113733497Y-64039737D01*
X113879179Y-63979394D01*
X114010289Y-63891789D01*
X114121789Y-63780289D01*
X114209394Y-63649179D01*
X114269737Y-63503497D01*
X114300500Y-63348842D01*
X114300500Y-63191158D01*
X114300500Y-63191155D01*
X114300499Y-63191153D01*
X114269738Y-63036510D01*
X114269737Y-63036503D01*
X114250355Y-62989711D01*
X114209397Y-62890827D01*
X114209390Y-62890814D01*
X114121789Y-62759711D01*
X114121786Y-62759707D01*
X114084760Y-62722681D01*
X114051275Y-62661358D01*
X114056259Y-62591666D01*
X114084760Y-62547319D01*
X114121786Y-62510292D01*
X114121789Y-62510289D01*
X114209394Y-62379179D01*
X114269737Y-62233497D01*
X114300500Y-62078842D01*
X114300500Y-61921158D01*
X114300500Y-61921155D01*
X114300499Y-61921153D01*
X114269737Y-61766503D01*
X114219643Y-61645564D01*
X114209397Y-61620827D01*
X114209390Y-61620814D01*
X114121789Y-61489711D01*
X114121786Y-61489707D01*
X114084760Y-61452681D01*
X114051275Y-61391358D01*
X114056259Y-61321666D01*
X114084760Y-61277319D01*
X114121786Y-61240292D01*
X114121789Y-61240289D01*
X114209394Y-61109179D01*
X114269737Y-60963497D01*
X114300500Y-60808842D01*
X114300500Y-60651158D01*
X114300500Y-60651155D01*
X114300499Y-60651153D01*
X114269738Y-60496510D01*
X114269737Y-60496503D01*
X114269735Y-60496498D01*
X114209397Y-60350827D01*
X114209390Y-60350814D01*
X114121789Y-60219711D01*
X114121786Y-60219707D01*
X114084760Y-60182681D01*
X114051275Y-60121358D01*
X114056259Y-60051666D01*
X114084760Y-60007319D01*
X114121786Y-59970292D01*
X114121789Y-59970289D01*
X114209394Y-59839179D01*
X114269737Y-59693497D01*
X114300500Y-59538842D01*
X114300500Y-59381158D01*
X114300500Y-59381155D01*
X114300499Y-59381153D01*
X114271128Y-59233497D01*
X114269737Y-59226503D01*
X114269735Y-59226498D01*
X114209397Y-59080827D01*
X114209390Y-59080814D01*
X114121789Y-58949711D01*
X114121786Y-58949707D01*
X114010289Y-58838210D01*
X113942499Y-58792915D01*
X113897694Y-58739303D01*
X113888987Y-58669978D01*
X113919141Y-58606951D01*
X113978584Y-58570231D01*
X114013891Y-58565838D01*
X114878503Y-58583284D01*
X114945130Y-58604317D01*
X114989811Y-58658034D01*
X115000000Y-58707259D01*
X115000000Y-77876000D01*
X114980315Y-77943039D01*
X114927511Y-77988794D01*
X114876000Y-78000000D01*
X111917947Y-78000000D01*
X111850908Y-77980315D01*
X111805153Y-77927511D01*
X111796330Y-77900191D01*
X111769738Y-77766510D01*
X111769737Y-77766503D01*
X111769735Y-77766498D01*
X111709397Y-77620827D01*
X111709390Y-77620814D01*
X111621789Y-77489711D01*
X111621786Y-77489707D01*
X111510292Y-77378213D01*
X111510288Y-77378210D01*
X111379185Y-77290609D01*
X111379172Y-77290602D01*
X111233501Y-77230264D01*
X111233489Y-77230261D01*
X111078845Y-77199500D01*
X111078842Y-77199500D01*
X110921158Y-77199500D01*
X110921155Y-77199500D01*
X110766510Y-77230261D01*
X110766498Y-77230264D01*
X110620827Y-77290602D01*
X110620814Y-77290609D01*
X110489711Y-77378210D01*
X110489707Y-77378213D01*
X110378213Y-77489707D01*
X110378210Y-77489711D01*
X110290609Y-77620814D01*
X110290604Y-77620823D01*
X110238561Y-77746469D01*
X110231489Y-77755244D01*
X110228315Y-77766055D01*
X110209961Y-77781958D01*
X110194720Y-77800872D01*
X110184026Y-77804431D01*
X110175511Y-77811810D01*
X110151471Y-77815266D01*
X110128426Y-77822937D01*
X110117507Y-77820150D01*
X110106353Y-77821754D01*
X110084259Y-77811664D01*
X110060727Y-77805658D01*
X110053048Y-77797410D01*
X110042797Y-77792729D01*
X110029666Y-77772296D01*
X110013116Y-77754521D01*
X110010134Y-77741905D01*
X110005023Y-77733951D01*
X110000000Y-77699016D01*
X110000000Y-77685476D01*
X110009439Y-77638023D01*
X110016562Y-77620827D01*
X110054035Y-77530359D01*
X110084798Y-77375704D01*
X110084798Y-77218020D01*
X110084798Y-77218017D01*
X110084797Y-77218015D01*
X110054037Y-77063373D01*
X110054034Y-77063363D01*
X110009439Y-76955699D01*
X110000000Y-76908247D01*
X110000000Y-69078353D01*
X110019685Y-69011314D01*
X110055110Y-68975250D01*
X110064652Y-68968875D01*
X110176152Y-68857375D01*
X110202493Y-68817951D01*
X110256102Y-68773147D01*
X110325427Y-68764438D01*
X110388455Y-68794591D01*
X110393276Y-68799161D01*
X110444834Y-68850719D01*
X110444838Y-68850722D01*
X110575941Y-68938323D01*
X110575954Y-68938330D01*
X110700001Y-68989711D01*
X110721630Y-68998670D01*
X110876280Y-69029432D01*
X110876283Y-69029433D01*
X110876285Y-69029433D01*
X111033971Y-69029433D01*
X111033972Y-69029432D01*
X111188624Y-68998670D01*
X111334306Y-68938327D01*
X111465416Y-68850722D01*
X111576916Y-68739222D01*
X111664521Y-68608112D01*
X111724864Y-68462430D01*
X111755627Y-68307775D01*
X111755627Y-68150091D01*
X111755627Y-68150088D01*
X111755626Y-68150086D01*
X111748366Y-68113589D01*
X111724864Y-67995436D01*
X111713461Y-67967907D01*
X111664524Y-67849760D01*
X111664517Y-67849747D01*
X111576916Y-67718644D01*
X111576913Y-67718640D01*
X111465419Y-67607146D01*
X111465415Y-67607143D01*
X111334312Y-67519542D01*
X111334299Y-67519535D01*
X111188628Y-67459197D01*
X111188616Y-67459194D01*
X111033972Y-67428433D01*
X111033969Y-67428433D01*
X110876285Y-67428433D01*
X110876282Y-67428433D01*
X110721637Y-67459194D01*
X110721625Y-67459197D01*
X110575954Y-67519535D01*
X110575941Y-67519542D01*
X110444838Y-67607143D01*
X110444834Y-67607146D01*
X110333340Y-67718640D01*
X110333337Y-67718644D01*
X110306996Y-67758067D01*
X110292808Y-67769923D01*
X110282367Y-67785187D01*
X110266553Y-67791865D01*
X110253384Y-67802872D01*
X110235037Y-67805176D01*
X110218002Y-67812371D01*
X110201087Y-67809440D01*
X110184059Y-67811579D01*
X110167380Y-67803599D01*
X110149158Y-67800442D01*
X110125742Y-67783679D01*
X110121031Y-67781425D01*
X110120028Y-67780514D01*
X110118084Y-67778729D01*
X110064652Y-67725297D01*
X110047167Y-67713614D01*
X110040134Y-67707156D01*
X110026828Y-67685080D01*
X110010303Y-67665305D01*
X110007871Y-67653627D01*
X110004067Y-67647315D01*
X110004369Y-67636805D01*
X110000000Y-67615818D01*
X110000000Y-67343632D01*
X110019685Y-67276593D01*
X110021183Y-67274534D01*
X110021109Y-67274484D01*
X110112094Y-67138315D01*
X110112094Y-67138314D01*
X110112098Y-67138309D01*
X110172441Y-66992627D01*
X110203204Y-66837972D01*
X110203204Y-66680288D01*
X110203204Y-66680285D01*
X110203203Y-66680283D01*
X110172442Y-66525640D01*
X110172441Y-66525633D01*
X110172439Y-66525628D01*
X110112101Y-66379957D01*
X110112094Y-66379944D01*
X110021109Y-66243776D01*
X110023409Y-66242238D01*
X110000809Y-66188772D01*
X110000000Y-66174627D01*
X110000000Y-65844927D01*
X110019685Y-65777888D01*
X110072489Y-65732133D01*
X110141647Y-65722189D01*
X110171450Y-65730365D01*
X110266503Y-65769737D01*
X110371418Y-65790606D01*
X110421153Y-65800499D01*
X110421156Y-65800500D01*
X110421158Y-65800500D01*
X110578844Y-65800500D01*
X110578845Y-65800499D01*
X110733497Y-65769737D01*
X110879179Y-65709394D01*
X111010289Y-65621789D01*
X111121789Y-65510289D01*
X111209394Y-65379179D01*
X111269737Y-65233497D01*
X111300500Y-65078842D01*
X111300500Y-64921158D01*
X111300500Y-64921155D01*
X111300499Y-64921153D01*
X111274531Y-64790606D01*
X111269737Y-64766503D01*
X111215285Y-64635043D01*
X111209397Y-64620827D01*
X111209390Y-64620814D01*
X111121789Y-64489711D01*
X111121786Y-64489707D01*
X111010292Y-64378213D01*
X111010288Y-64378210D01*
X110879185Y-64290609D01*
X110879172Y-64290602D01*
X110733501Y-64230264D01*
X110733489Y-64230261D01*
X110578845Y-64199500D01*
X110578842Y-64199500D01*
X110421158Y-64199500D01*
X110421155Y-64199500D01*
X110266510Y-64230261D01*
X110266507Y-64230262D01*
X110266506Y-64230262D01*
X110266503Y-64230263D01*
X110185410Y-64263852D01*
X110171452Y-64269634D01*
X110101982Y-64277102D01*
X110039503Y-64245826D01*
X110003851Y-64185737D01*
X110000000Y-64155072D01*
X110000000Y-59844927D01*
X110019685Y-59777888D01*
X110072489Y-59732133D01*
X110141647Y-59722189D01*
X110171450Y-59730365D01*
X110266503Y-59769737D01*
X110421153Y-59800499D01*
X110421156Y-59800500D01*
X110421158Y-59800500D01*
X110578844Y-59800500D01*
X110578845Y-59800499D01*
X110733497Y-59769737D01*
X110879179Y-59709394D01*
X111010289Y-59621789D01*
X111121789Y-59510289D01*
X111209394Y-59379179D01*
X111269737Y-59233497D01*
X111300500Y-59078842D01*
X111300500Y-58921158D01*
X111300500Y-58921155D01*
X111300499Y-58921153D01*
X111284001Y-58838213D01*
X111269737Y-58766503D01*
X111263152Y-58750606D01*
X111209397Y-58620827D01*
X111209390Y-58620814D01*
X111121789Y-58489711D01*
X111121786Y-58489707D01*
X111010292Y-58378213D01*
X111010288Y-58378210D01*
X110879185Y-58290609D01*
X110879172Y-58290602D01*
X110733501Y-58230264D01*
X110733489Y-58230261D01*
X110578845Y-58199500D01*
X110578842Y-58199500D01*
X110421158Y-58199500D01*
X110421155Y-58199500D01*
X110266510Y-58230261D01*
X110266507Y-58230262D01*
X110266506Y-58230262D01*
X110266503Y-58230263D01*
X110185410Y-58263852D01*
X110171452Y-58269634D01*
X110101982Y-58277102D01*
X110039503Y-58245826D01*
X110003851Y-58185737D01*
X110000000Y-58155072D01*
X110000000Y-53218690D01*
X110019685Y-53151651D01*
X110072489Y-53105896D01*
X110088008Y-53100028D01*
X110092077Y-53098792D01*
X110092093Y-53098790D01*
X110237775Y-53038447D01*
X110368885Y-52950842D01*
X110480385Y-52839342D01*
X110567990Y-52708232D01*
X110628333Y-52562550D01*
X110659096Y-52407895D01*
X110659096Y-52250211D01*
X110659096Y-52250208D01*
X110659095Y-52250206D01*
X110642687Y-52167719D01*
X110628333Y-52095556D01*
X110603918Y-52036612D01*
X110567993Y-51949880D01*
X110567986Y-51949867D01*
X110480385Y-51818764D01*
X110480382Y-51818760D01*
X110368888Y-51707266D01*
X110368884Y-51707263D01*
X110237781Y-51619662D01*
X110237768Y-51619655D01*
X110092093Y-51559315D01*
X110088000Y-51558074D01*
X110029563Y-51519775D01*
X110001109Y-51455961D01*
X110000000Y-51439415D01*
X110000000Y-50124995D01*
X110019685Y-50057956D01*
X110072489Y-50012201D01*
X110124989Y-50000999D01*
X125310077Y-50122424D01*
G37*
%TD.AperFunction*%
%TD*%
%TA.AperFunction,Conductor*%
%TO.N,+3.3V_ISO*%
G36*
X83953180Y-50019685D02*
G01*
X83998935Y-50072489D01*
X84010141Y-50124000D01*
X84010141Y-56098849D01*
X104010141Y-56098849D01*
X104010141Y-54344965D01*
X105050688Y-54344965D01*
X105050688Y-54502658D01*
X105081449Y-54657301D01*
X105081452Y-54657313D01*
X105141790Y-54802984D01*
X105141797Y-54802997D01*
X105229398Y-54934100D01*
X105229401Y-54934104D01*
X105340895Y-55045598D01*
X105340899Y-55045601D01*
X105472002Y-55133202D01*
X105472015Y-55133209D01*
X105617686Y-55193547D01*
X105617691Y-55193549D01*
X105772341Y-55224311D01*
X105772344Y-55224312D01*
X105772346Y-55224312D01*
X105930032Y-55224312D01*
X105930033Y-55224311D01*
X106084685Y-55193549D01*
X106230367Y-55133206D01*
X106361477Y-55045601D01*
X106472977Y-54934101D01*
X106560582Y-54802991D01*
X106620925Y-54657309D01*
X106651688Y-54502654D01*
X106651688Y-54344970D01*
X106651688Y-54344967D01*
X106651687Y-54344965D01*
X106634820Y-54260169D01*
X106620925Y-54190315D01*
X106599619Y-54138877D01*
X106560585Y-54044639D01*
X106560578Y-54044626D01*
X106491594Y-53941384D01*
X106491593Y-53941383D01*
X106472979Y-53913525D01*
X106472974Y-53913519D01*
X106438035Y-53878580D01*
X106974845Y-53878580D01*
X106974845Y-54036273D01*
X107005606Y-54190916D01*
X107005609Y-54190928D01*
X107065947Y-54336599D01*
X107065954Y-54336612D01*
X107153555Y-54467715D01*
X107153558Y-54467719D01*
X107265052Y-54579213D01*
X107265056Y-54579216D01*
X107396159Y-54666817D01*
X107396172Y-54666824D01*
X107541843Y-54727162D01*
X107541848Y-54727164D01*
X107696498Y-54757926D01*
X107696501Y-54757927D01*
X107696503Y-54757927D01*
X107854189Y-54757927D01*
X107854190Y-54757926D01*
X108008842Y-54727164D01*
X108154524Y-54666821D01*
X108285634Y-54579216D01*
X108397134Y-54467716D01*
X108484739Y-54336606D01*
X108545082Y-54190924D01*
X108575845Y-54036269D01*
X108575845Y-53878585D01*
X108575845Y-53878582D01*
X108575844Y-53878580D01*
X108545082Y-53723930D01*
X108516148Y-53654076D01*
X108484742Y-53578254D01*
X108484735Y-53578241D01*
X108397134Y-53447138D01*
X108397131Y-53447134D01*
X108285637Y-53335640D01*
X108285633Y-53335637D01*
X108154530Y-53248036D01*
X108154517Y-53248029D01*
X108008846Y-53187691D01*
X108008834Y-53187688D01*
X107854190Y-53156927D01*
X107854187Y-53156927D01*
X107696503Y-53156927D01*
X107696500Y-53156927D01*
X107541855Y-53187688D01*
X107541843Y-53187691D01*
X107396172Y-53248029D01*
X107396159Y-53248036D01*
X107265056Y-53335637D01*
X107265052Y-53335640D01*
X107153558Y-53447134D01*
X107153555Y-53447138D01*
X107065954Y-53578241D01*
X107065947Y-53578254D01*
X107005609Y-53723925D01*
X107005606Y-53723937D01*
X106974845Y-53878580D01*
X106438035Y-53878580D01*
X106361480Y-53802025D01*
X106361476Y-53802022D01*
X106230373Y-53714421D01*
X106230360Y-53714414D01*
X106084689Y-53654076D01*
X106084677Y-53654073D01*
X105930033Y-53623312D01*
X105930030Y-53623312D01*
X105772346Y-53623312D01*
X105772343Y-53623312D01*
X105617698Y-53654073D01*
X105617686Y-53654076D01*
X105472015Y-53714414D01*
X105472002Y-53714421D01*
X105340899Y-53802022D01*
X105340895Y-53802025D01*
X105229401Y-53913519D01*
X105229398Y-53913523D01*
X105141797Y-54044626D01*
X105141790Y-54044639D01*
X105081452Y-54190310D01*
X105081449Y-54190322D01*
X105050688Y-54344965D01*
X104010141Y-54344965D01*
X104010141Y-50124000D01*
X104029826Y-50056961D01*
X104082630Y-50011206D01*
X104134141Y-50000000D01*
X108876000Y-50000000D01*
X108943039Y-50019685D01*
X108988794Y-50072489D01*
X109000000Y-50124000D01*
X109000000Y-59082052D01*
X108980315Y-59149091D01*
X108927511Y-59194846D01*
X108900192Y-59203669D01*
X108766508Y-59230261D01*
X108766498Y-59230264D01*
X108620827Y-59290602D01*
X108620814Y-59290609D01*
X108489711Y-59378210D01*
X108489707Y-59378213D01*
X108378213Y-59489707D01*
X108378210Y-59489711D01*
X108290609Y-59620814D01*
X108290602Y-59620827D01*
X108230264Y-59766498D01*
X108230261Y-59766510D01*
X108199500Y-59921153D01*
X108199500Y-60078846D01*
X108230261Y-60233489D01*
X108230264Y-60233501D01*
X108290602Y-60379172D01*
X108290609Y-60379185D01*
X108378210Y-60510288D01*
X108378213Y-60510292D01*
X108489707Y-60621786D01*
X108489711Y-60621789D01*
X108620814Y-60709390D01*
X108620827Y-60709397D01*
X108766498Y-60769735D01*
X108766503Y-60769737D01*
X108818130Y-60780006D01*
X108900191Y-60796330D01*
X108962102Y-60828715D01*
X108996677Y-60889431D01*
X109000000Y-60917947D01*
X109000000Y-67718008D01*
X108980315Y-67785047D01*
X108963681Y-67805689D01*
X108932576Y-67836793D01*
X108932573Y-67836797D01*
X108844972Y-67967900D01*
X108844965Y-67967913D01*
X108784627Y-68113584D01*
X108784624Y-68113596D01*
X108753863Y-68268239D01*
X108753863Y-68425932D01*
X108784624Y-68580575D01*
X108784627Y-68580587D01*
X108844965Y-68726258D01*
X108844972Y-68726271D01*
X108932573Y-68857374D01*
X108932576Y-68857378D01*
X108963680Y-68888481D01*
X108997166Y-68949803D01*
X109000000Y-68976163D01*
X109000000Y-76465312D01*
X108980315Y-76532351D01*
X108927511Y-76578106D01*
X108923455Y-76579872D01*
X108905124Y-76587465D01*
X108905112Y-76587471D01*
X108774009Y-76675072D01*
X108774005Y-76675075D01*
X108662511Y-76786569D01*
X108662508Y-76786573D01*
X108574907Y-76917676D01*
X108574900Y-76917689D01*
X108514562Y-77063360D01*
X108514559Y-77063372D01*
X108483798Y-77218015D01*
X108483798Y-77375708D01*
X108514559Y-77530351D01*
X108514562Y-77530363D01*
X108574900Y-77676034D01*
X108574907Y-77676047D01*
X108662508Y-77807150D01*
X108662511Y-77807154D01*
X108774008Y-77918651D01*
X108905113Y-78006252D01*
X108905119Y-78006256D01*
X108923452Y-78013850D01*
X108977854Y-78057686D01*
X108999921Y-78123980D01*
X109000000Y-78128410D01*
X109000000Y-85082052D01*
X108980315Y-85149091D01*
X108927511Y-85194846D01*
X108900192Y-85203669D01*
X108766508Y-85230261D01*
X108766498Y-85230264D01*
X108620827Y-85290602D01*
X108620814Y-85290609D01*
X108489711Y-85378210D01*
X108489707Y-85378213D01*
X108378213Y-85489707D01*
X108378210Y-85489711D01*
X108290609Y-85620814D01*
X108290602Y-85620827D01*
X108230264Y-85766498D01*
X108230261Y-85766510D01*
X108199500Y-85921153D01*
X108199500Y-86078846D01*
X108230261Y-86233489D01*
X108230264Y-86233501D01*
X108290602Y-86379172D01*
X108290609Y-86379185D01*
X108378210Y-86510288D01*
X108378213Y-86510292D01*
X108489707Y-86621786D01*
X108489711Y-86621789D01*
X108620814Y-86709390D01*
X108620827Y-86709397D01*
X108758683Y-86766498D01*
X108766503Y-86769737D01*
X108818130Y-86780006D01*
X108900191Y-86796330D01*
X108962102Y-86828715D01*
X108996677Y-86889431D01*
X109000000Y-86917947D01*
X109000000Y-87876000D01*
X108980315Y-87943039D01*
X108927511Y-87988794D01*
X108876000Y-88000000D01*
X87300983Y-88000000D01*
X87233944Y-87980315D01*
X87188189Y-87927511D01*
X87178245Y-87858353D01*
X87207270Y-87794797D01*
X87253531Y-87761439D01*
X87379172Y-87709397D01*
X87379172Y-87709396D01*
X87379179Y-87709394D01*
X87510289Y-87621789D01*
X87621789Y-87510289D01*
X87709394Y-87379179D01*
X87769737Y-87233497D01*
X87800500Y-87078842D01*
X87800500Y-86921158D01*
X87800500Y-86921155D01*
X87800499Y-86921153D01*
X87769738Y-86766510D01*
X87769737Y-86766503D01*
X87709794Y-86621786D01*
X87709397Y-86620827D01*
X87709390Y-86620814D01*
X87621789Y-86489711D01*
X87621786Y-86489707D01*
X87510292Y-86378213D01*
X87510288Y-86378210D01*
X87379185Y-86290609D01*
X87379172Y-86290602D01*
X87233501Y-86230264D01*
X87233489Y-86230261D01*
X87078845Y-86199500D01*
X87078842Y-86199500D01*
X86921158Y-86199500D01*
X86921155Y-86199500D01*
X86766510Y-86230261D01*
X86766498Y-86230264D01*
X86620827Y-86290602D01*
X86620814Y-86290609D01*
X86489711Y-86378210D01*
X86489707Y-86378213D01*
X86378213Y-86489707D01*
X86378210Y-86489711D01*
X86290609Y-86620814D01*
X86290602Y-86620827D01*
X86230264Y-86766498D01*
X86230261Y-86766510D01*
X86199500Y-86921153D01*
X86199500Y-87078846D01*
X86230261Y-87233489D01*
X86230264Y-87233501D01*
X86290602Y-87379172D01*
X86290609Y-87379185D01*
X86378210Y-87510288D01*
X86378213Y-87510292D01*
X86489707Y-87621786D01*
X86489711Y-87621789D01*
X86620814Y-87709390D01*
X86620827Y-87709397D01*
X86746469Y-87761439D01*
X86800873Y-87805280D01*
X86822938Y-87871574D01*
X86805659Y-87939273D01*
X86754522Y-87986884D01*
X86699017Y-88000000D01*
X78124000Y-88000000D01*
X78056961Y-87980315D01*
X78011206Y-87927511D01*
X78000000Y-87876000D01*
X78000000Y-85421153D01*
X97199500Y-85421153D01*
X97199500Y-85578846D01*
X97230261Y-85733489D01*
X97230264Y-85733501D01*
X97290602Y-85879172D01*
X97290609Y-85879185D01*
X97378210Y-86010288D01*
X97378213Y-86010292D01*
X97489707Y-86121786D01*
X97489711Y-86121789D01*
X97620814Y-86209390D01*
X97620827Y-86209397D01*
X97766498Y-86269735D01*
X97766503Y-86269737D01*
X97921153Y-86300499D01*
X97921156Y-86300500D01*
X97921158Y-86300500D01*
X98078844Y-86300500D01*
X98078845Y-86300499D01*
X98233497Y-86269737D01*
X98379179Y-86209394D01*
X98510289Y-86121789D01*
X98621789Y-86010289D01*
X98709394Y-85879179D01*
X98769737Y-85733497D01*
X98800500Y-85578842D01*
X98800500Y-85421158D01*
X98800500Y-85421155D01*
X98800499Y-85421153D01*
X98791020Y-85373501D01*
X98769737Y-85266503D01*
X98769735Y-85266498D01*
X98709397Y-85120827D01*
X98709395Y-85120823D01*
X98709394Y-85120821D01*
X98669525Y-85061153D01*
X105699500Y-85061153D01*
X105699500Y-85218846D01*
X105730261Y-85373489D01*
X105730264Y-85373501D01*
X105790602Y-85519172D01*
X105790609Y-85519185D01*
X105878210Y-85650288D01*
X105878213Y-85650292D01*
X105989707Y-85761786D01*
X105989711Y-85761789D01*
X106120814Y-85849390D01*
X106120827Y-85849397D01*
X106192743Y-85879185D01*
X106266503Y-85909737D01*
X106421153Y-85940499D01*
X106421156Y-85940500D01*
X106421158Y-85940500D01*
X106578844Y-85940500D01*
X106578845Y-85940499D01*
X106733497Y-85909737D01*
X106879179Y-85849394D01*
X107010289Y-85761789D01*
X107121789Y-85650289D01*
X107209394Y-85519179D01*
X107269737Y-85373497D01*
X107300500Y-85218842D01*
X107300500Y-85061158D01*
X107300500Y-85061155D01*
X107300499Y-85061153D01*
X107269738Y-84906510D01*
X107269737Y-84906503D01*
X107258018Y-84878210D01*
X107209397Y-84760827D01*
X107209390Y-84760814D01*
X107121789Y-84629711D01*
X107121786Y-84629707D01*
X107010292Y-84518213D01*
X107010288Y-84518210D01*
X106879185Y-84430609D01*
X106879172Y-84430602D01*
X106733501Y-84370264D01*
X106733489Y-84370261D01*
X106578845Y-84339500D01*
X106578842Y-84339500D01*
X106421158Y-84339500D01*
X106421155Y-84339500D01*
X106266510Y-84370261D01*
X106266498Y-84370264D01*
X106120827Y-84430602D01*
X106120814Y-84430609D01*
X105989711Y-84518210D01*
X105989707Y-84518213D01*
X105878213Y-84629707D01*
X105878210Y-84629711D01*
X105790609Y-84760814D01*
X105790602Y-84760827D01*
X105730264Y-84906498D01*
X105730261Y-84906510D01*
X105699500Y-85061153D01*
X98669525Y-85061153D01*
X98621789Y-84989711D01*
X98621786Y-84989707D01*
X98510292Y-84878213D01*
X98510288Y-84878210D01*
X98379185Y-84790609D01*
X98379172Y-84790602D01*
X98233501Y-84730264D01*
X98233489Y-84730261D01*
X98078845Y-84699500D01*
X98078842Y-84699500D01*
X97921158Y-84699500D01*
X97921155Y-84699500D01*
X97766510Y-84730261D01*
X97766498Y-84730264D01*
X97620827Y-84790602D01*
X97620814Y-84790609D01*
X97489711Y-84878210D01*
X97489707Y-84878213D01*
X97378213Y-84989707D01*
X97378210Y-84989711D01*
X97290609Y-85120814D01*
X97290602Y-85120827D01*
X97230264Y-85266498D01*
X97230261Y-85266510D01*
X97199500Y-85421153D01*
X78000000Y-85421153D01*
X78000000Y-83421153D01*
X88374500Y-83421153D01*
X88374500Y-83578846D01*
X88405261Y-83733489D01*
X88405264Y-83733501D01*
X88465602Y-83879172D01*
X88465609Y-83879185D01*
X88553210Y-84010288D01*
X88553213Y-84010292D01*
X88664707Y-84121786D01*
X88664711Y-84121789D01*
X88795814Y-84209390D01*
X88795827Y-84209397D01*
X88941498Y-84269735D01*
X88941503Y-84269737D01*
X89096153Y-84300499D01*
X89096156Y-84300500D01*
X89096158Y-84300500D01*
X89253844Y-84300500D01*
X89253845Y-84300499D01*
X89408497Y-84269737D01*
X89554179Y-84209394D01*
X89685289Y-84121789D01*
X89796789Y-84010289D01*
X89884394Y-83879179D01*
X89944737Y-83733497D01*
X89975500Y-83578842D01*
X89975500Y-83421158D01*
X89975500Y-83421155D01*
X89975499Y-83421153D01*
X89944738Y-83266510D01*
X89944737Y-83266503D01*
X89944735Y-83266498D01*
X89884397Y-83120827D01*
X89884390Y-83120814D01*
X89796789Y-82989711D01*
X89796786Y-82989707D01*
X89685292Y-82878213D01*
X89685288Y-82878210D01*
X89554185Y-82790609D01*
X89554172Y-82790602D01*
X89408501Y-82730264D01*
X89408489Y-82730261D01*
X89253845Y-82699500D01*
X89253842Y-82699500D01*
X89096158Y-82699500D01*
X89096155Y-82699500D01*
X88941510Y-82730261D01*
X88941498Y-82730264D01*
X88795827Y-82790602D01*
X88795814Y-82790609D01*
X88664711Y-82878210D01*
X88664707Y-82878213D01*
X88553213Y-82989707D01*
X88553210Y-82989711D01*
X88465609Y-83120814D01*
X88465602Y-83120827D01*
X88405264Y-83266498D01*
X88405261Y-83266510D01*
X88374500Y-83421153D01*
X78000000Y-83421153D01*
X78000000Y-80921153D01*
X86199500Y-80921153D01*
X86199500Y-81078846D01*
X86230261Y-81233489D01*
X86230264Y-81233501D01*
X86290602Y-81379172D01*
X86290609Y-81379185D01*
X86378210Y-81510288D01*
X86378213Y-81510292D01*
X86489707Y-81621786D01*
X86489711Y-81621789D01*
X86620814Y-81709390D01*
X86620827Y-81709397D01*
X86766498Y-81769735D01*
X86766503Y-81769737D01*
X86921153Y-81800499D01*
X86921156Y-81800500D01*
X86921158Y-81800500D01*
X87078844Y-81800500D01*
X87078845Y-81800499D01*
X87233497Y-81769737D01*
X87379179Y-81709394D01*
X87510289Y-81621789D01*
X87621789Y-81510289D01*
X87681348Y-81421153D01*
X88199500Y-81421153D01*
X88199500Y-81578846D01*
X88230261Y-81733489D01*
X88230264Y-81733501D01*
X88290602Y-81879172D01*
X88290609Y-81879185D01*
X88378210Y-82010288D01*
X88378213Y-82010292D01*
X88489707Y-82121786D01*
X88489711Y-82121789D01*
X88620814Y-82209390D01*
X88620827Y-82209397D01*
X88766498Y-82269735D01*
X88766503Y-82269737D01*
X88921153Y-82300499D01*
X88921156Y-82300500D01*
X88921158Y-82300500D01*
X89078844Y-82300500D01*
X89078845Y-82300499D01*
X89233497Y-82269737D01*
X89379179Y-82209394D01*
X89510289Y-82121789D01*
X89621789Y-82010289D01*
X89709394Y-81879179D01*
X89769737Y-81733497D01*
X89800500Y-81578842D01*
X89800500Y-81421158D01*
X89800500Y-81421155D01*
X89800499Y-81421153D01*
X89769738Y-81266510D01*
X89769737Y-81266503D01*
X89746080Y-81209390D01*
X89709397Y-81120827D01*
X89709390Y-81120814D01*
X89621789Y-80989711D01*
X89621786Y-80989707D01*
X89510292Y-80878213D01*
X89510288Y-80878210D01*
X89379185Y-80790609D01*
X89379172Y-80790602D01*
X89233501Y-80730264D01*
X89233489Y-80730261D01*
X89078845Y-80699500D01*
X89078842Y-80699500D01*
X88921158Y-80699500D01*
X88921155Y-80699500D01*
X88766510Y-80730261D01*
X88766498Y-80730264D01*
X88620827Y-80790602D01*
X88620814Y-80790609D01*
X88489711Y-80878210D01*
X88489707Y-80878213D01*
X88378213Y-80989707D01*
X88378210Y-80989711D01*
X88290609Y-81120814D01*
X88290602Y-81120827D01*
X88230264Y-81266498D01*
X88230261Y-81266510D01*
X88199500Y-81421153D01*
X87681348Y-81421153D01*
X87709394Y-81379179D01*
X87769737Y-81233497D01*
X87800500Y-81078842D01*
X87800500Y-80921158D01*
X87800500Y-80921155D01*
X87800499Y-80921153D01*
X87774531Y-80790606D01*
X87769737Y-80766503D01*
X87756062Y-80733489D01*
X87709397Y-80620827D01*
X87709390Y-80620814D01*
X87621790Y-80489712D01*
X87621784Y-80489705D01*
X87553232Y-80421153D01*
X92199500Y-80421153D01*
X92199500Y-80578846D01*
X92230261Y-80733489D01*
X92230264Y-80733501D01*
X92290602Y-80879172D01*
X92290609Y-80879185D01*
X92378210Y-81010288D01*
X92378213Y-81010292D01*
X92489707Y-81121786D01*
X92489711Y-81121789D01*
X92620814Y-81209390D01*
X92620827Y-81209397D01*
X92758683Y-81266498D01*
X92766503Y-81269737D01*
X92921153Y-81300499D01*
X92921156Y-81300500D01*
X92921158Y-81300500D01*
X93078844Y-81300500D01*
X93078845Y-81300499D01*
X93233497Y-81269737D01*
X93353675Y-81219958D01*
X93379172Y-81209397D01*
X93379172Y-81209396D01*
X93379179Y-81209394D01*
X93510289Y-81121789D01*
X93621789Y-81010289D01*
X93709394Y-80879179D01*
X93769737Y-80733497D01*
X93800500Y-80578842D01*
X93800500Y-80421158D01*
X93800500Y-80421155D01*
X93800499Y-80421153D01*
X101199500Y-80421153D01*
X101199500Y-80578846D01*
X101230261Y-80733489D01*
X101230264Y-80733501D01*
X101290602Y-80879172D01*
X101290609Y-80879185D01*
X101378210Y-81010288D01*
X101378213Y-81010292D01*
X101489707Y-81121786D01*
X101489711Y-81121789D01*
X101620814Y-81209390D01*
X101620827Y-81209397D01*
X101758683Y-81266498D01*
X101766503Y-81269737D01*
X101921153Y-81300499D01*
X101921156Y-81300500D01*
X101921158Y-81300500D01*
X102078844Y-81300500D01*
X102078845Y-81300499D01*
X102233497Y-81269737D01*
X102353675Y-81219958D01*
X102379172Y-81209397D01*
X102379172Y-81209396D01*
X102379179Y-81209394D01*
X102510289Y-81121789D01*
X102530598Y-81101479D01*
X102591916Y-81067995D01*
X102661608Y-81072976D01*
X102717543Y-81114846D01*
X102721381Y-81120269D01*
X102787991Y-81219957D01*
X102787994Y-81219961D01*
X102899488Y-81331455D01*
X102899492Y-81331458D01*
X103030595Y-81419059D01*
X103030608Y-81419066D01*
X103176279Y-81479404D01*
X103176284Y-81479406D01*
X103330934Y-81510168D01*
X103330937Y-81510169D01*
X103330939Y-81510169D01*
X103488625Y-81510169D01*
X103488626Y-81510168D01*
X103643278Y-81479406D01*
X103783902Y-81421158D01*
X103788953Y-81419066D01*
X103788953Y-81419065D01*
X103788960Y-81419063D01*
X103920070Y-81331458D01*
X104031570Y-81219958D01*
X104119175Y-81088848D01*
X104179518Y-80943166D01*
X104210281Y-80788511D01*
X104210281Y-80630827D01*
X104210281Y-80630824D01*
X104210280Y-80630822D01*
X104179519Y-80476179D01*
X104179518Y-80476172D01*
X104156731Y-80421158D01*
X104119178Y-80330496D01*
X104119171Y-80330483D01*
X104031570Y-80199380D01*
X104031567Y-80199376D01*
X103920073Y-80087882D01*
X103920069Y-80087879D01*
X103788966Y-80000278D01*
X103788953Y-80000271D01*
X103643282Y-79939933D01*
X103643270Y-79939930D01*
X103488626Y-79909169D01*
X103488623Y-79909169D01*
X103330939Y-79909169D01*
X103330936Y-79909169D01*
X103176291Y-79939930D01*
X103176279Y-79939933D01*
X103030608Y-80000271D01*
X103030595Y-80000278D01*
X102899492Y-80087879D01*
X102899487Y-80087883D01*
X102879180Y-80108190D01*
X102817857Y-80141674D01*
X102748165Y-80136688D01*
X102692232Y-80094815D01*
X102688399Y-80089398D01*
X102621789Y-79989711D01*
X102621786Y-79989707D01*
X102510292Y-79878213D01*
X102510288Y-79878210D01*
X102379185Y-79790609D01*
X102379172Y-79790602D01*
X102233501Y-79730264D01*
X102233489Y-79730261D01*
X102078845Y-79699500D01*
X102078842Y-79699500D01*
X101921158Y-79699500D01*
X101921155Y-79699500D01*
X101766510Y-79730261D01*
X101766498Y-79730264D01*
X101620827Y-79790602D01*
X101620814Y-79790609D01*
X101489711Y-79878210D01*
X101489707Y-79878213D01*
X101378213Y-79989707D01*
X101378210Y-79989711D01*
X101290609Y-80120814D01*
X101290602Y-80120827D01*
X101230264Y-80266498D01*
X101230261Y-80266510D01*
X101199500Y-80421153D01*
X93800499Y-80421153D01*
X93774531Y-80290606D01*
X93769737Y-80266503D01*
X93769735Y-80266498D01*
X93709397Y-80120827D01*
X93709390Y-80120814D01*
X93621789Y-79989711D01*
X93621786Y-79989707D01*
X93510292Y-79878213D01*
X93510288Y-79878210D01*
X93379185Y-79790609D01*
X93379172Y-79790602D01*
X93233501Y-79730264D01*
X93233489Y-79730261D01*
X93078845Y-79699500D01*
X93078842Y-79699500D01*
X92921158Y-79699500D01*
X92921155Y-79699500D01*
X92766510Y-79730261D01*
X92766498Y-79730264D01*
X92620827Y-79790602D01*
X92620814Y-79790609D01*
X92489711Y-79878210D01*
X92489707Y-79878213D01*
X92378213Y-79989707D01*
X92378210Y-79989711D01*
X92290609Y-80120814D01*
X92290602Y-80120827D01*
X92230264Y-80266498D01*
X92230261Y-80266510D01*
X92199500Y-80421153D01*
X87553232Y-80421153D01*
X87510292Y-80378213D01*
X87510288Y-80378210D01*
X87379185Y-80290609D01*
X87379172Y-80290602D01*
X87233501Y-80230264D01*
X87233489Y-80230261D01*
X87078845Y-80199500D01*
X87078842Y-80199500D01*
X86921158Y-80199500D01*
X86921155Y-80199500D01*
X86766510Y-80230261D01*
X86766498Y-80230264D01*
X86620827Y-80290602D01*
X86620814Y-80290609D01*
X86489711Y-80378210D01*
X86489707Y-80378213D01*
X86378213Y-80489707D01*
X86378210Y-80489711D01*
X86290609Y-80620814D01*
X86290602Y-80620827D01*
X86230264Y-80766498D01*
X86230261Y-80766510D01*
X86199500Y-80921153D01*
X78000000Y-80921153D01*
X78000000Y-79421153D01*
X78699500Y-79421153D01*
X78699500Y-79578846D01*
X78730261Y-79733489D01*
X78730264Y-79733501D01*
X78790602Y-79879172D01*
X78790609Y-79879185D01*
X78878210Y-80010288D01*
X78878213Y-80010292D01*
X78989707Y-80121786D01*
X78989711Y-80121789D01*
X79120814Y-80209390D01*
X79120827Y-80209397D01*
X79199375Y-80241932D01*
X79266503Y-80269737D01*
X79421153Y-80300499D01*
X79421156Y-80300500D01*
X79421158Y-80300500D01*
X79578844Y-80300500D01*
X79578845Y-80300499D01*
X79733497Y-80269737D01*
X79879179Y-80209394D01*
X80010289Y-80121789D01*
X80121789Y-80010289D01*
X80209394Y-79879179D01*
X80269737Y-79733497D01*
X80300500Y-79578842D01*
X80300500Y-79421158D01*
X80300500Y-79421155D01*
X80300499Y-79421153D01*
X80269738Y-79266510D01*
X80269737Y-79266503D01*
X80209794Y-79121786D01*
X80209397Y-79120827D01*
X80209390Y-79120814D01*
X80121789Y-78989711D01*
X80121786Y-78989707D01*
X80010292Y-78878213D01*
X80010288Y-78878210D01*
X79879185Y-78790609D01*
X79879172Y-78790602D01*
X79733501Y-78730264D01*
X79733489Y-78730261D01*
X79578845Y-78699500D01*
X79578842Y-78699500D01*
X79421158Y-78699500D01*
X79421155Y-78699500D01*
X79266510Y-78730261D01*
X79266498Y-78730264D01*
X79120827Y-78790602D01*
X79120814Y-78790609D01*
X78989711Y-78878210D01*
X78989707Y-78878213D01*
X78878213Y-78989707D01*
X78878210Y-78989711D01*
X78790609Y-79120814D01*
X78790602Y-79120827D01*
X78730264Y-79266498D01*
X78730261Y-79266510D01*
X78699500Y-79421153D01*
X78000000Y-79421153D01*
X78000000Y-78421153D01*
X92699500Y-78421153D01*
X92699500Y-78578846D01*
X92730261Y-78733489D01*
X92730264Y-78733501D01*
X92790602Y-78879172D01*
X92790609Y-78879185D01*
X92878210Y-79010288D01*
X92878213Y-79010292D01*
X92989707Y-79121786D01*
X92989711Y-79121789D01*
X93120814Y-79209390D01*
X93120827Y-79209397D01*
X93258683Y-79266498D01*
X93266503Y-79269737D01*
X93421153Y-79300499D01*
X93421156Y-79300500D01*
X93421158Y-79300500D01*
X93578844Y-79300500D01*
X93578845Y-79300499D01*
X93733497Y-79269737D01*
X93879179Y-79209394D01*
X94010289Y-79121789D01*
X94121789Y-79010289D01*
X94209394Y-78879179D01*
X94269737Y-78733497D01*
X94300500Y-78578842D01*
X94300500Y-78421158D01*
X94300500Y-78421155D01*
X94300499Y-78421153D01*
X94269738Y-78266510D01*
X94269737Y-78266503D01*
X94246839Y-78211222D01*
X94209397Y-78120827D01*
X94209390Y-78120814D01*
X94121789Y-77989711D01*
X94121786Y-77989707D01*
X94030953Y-77898874D01*
X102702923Y-77898874D01*
X102702923Y-78056567D01*
X102733684Y-78211210D01*
X102733687Y-78211222D01*
X102794025Y-78356893D01*
X102794032Y-78356906D01*
X102881633Y-78488009D01*
X102881636Y-78488013D01*
X102993130Y-78599507D01*
X102993134Y-78599510D01*
X103124237Y-78687111D01*
X103124250Y-78687118D01*
X103269921Y-78747456D01*
X103269926Y-78747458D01*
X103424576Y-78778220D01*
X103424579Y-78778221D01*
X103424581Y-78778221D01*
X103582267Y-78778221D01*
X103582268Y-78778220D01*
X103736920Y-78747458D01*
X103882602Y-78687115D01*
X104013712Y-78599510D01*
X104125212Y-78488010D01*
X104212817Y-78356900D01*
X104273160Y-78211218D01*
X104303923Y-78056563D01*
X104303923Y-77898879D01*
X104303923Y-77898876D01*
X104303922Y-77898874D01*
X104299812Y-77878210D01*
X104273160Y-77744224D01*
X104273158Y-77744219D01*
X104212820Y-77598548D01*
X104212813Y-77598535D01*
X104125212Y-77467432D01*
X104125209Y-77467428D01*
X104013715Y-77355934D01*
X104013711Y-77355931D01*
X103882608Y-77268330D01*
X103882595Y-77268323D01*
X103736924Y-77207985D01*
X103736912Y-77207982D01*
X103582268Y-77177221D01*
X103582265Y-77177221D01*
X103424581Y-77177221D01*
X103424578Y-77177221D01*
X103269933Y-77207982D01*
X103269921Y-77207985D01*
X103124250Y-77268323D01*
X103124237Y-77268330D01*
X102993134Y-77355931D01*
X102993130Y-77355934D01*
X102881636Y-77467428D01*
X102881633Y-77467432D01*
X102794032Y-77598535D01*
X102794025Y-77598548D01*
X102733687Y-77744219D01*
X102733684Y-77744231D01*
X102702923Y-77898874D01*
X94030953Y-77898874D01*
X94010292Y-77878213D01*
X94010288Y-77878210D01*
X93879185Y-77790609D01*
X93879172Y-77790602D01*
X93733501Y-77730264D01*
X93733489Y-77730261D01*
X93578845Y-77699500D01*
X93578842Y-77699500D01*
X93421158Y-77699500D01*
X93421155Y-77699500D01*
X93266510Y-77730261D01*
X93266498Y-77730264D01*
X93120827Y-77790602D01*
X93120814Y-77790609D01*
X92989711Y-77878210D01*
X92989707Y-77878213D01*
X92878213Y-77989707D01*
X92878210Y-77989711D01*
X92790609Y-78120814D01*
X92790602Y-78120827D01*
X92730264Y-78266498D01*
X92730261Y-78266510D01*
X92699500Y-78421153D01*
X78000000Y-78421153D01*
X78000000Y-77421153D01*
X88199500Y-77421153D01*
X88199500Y-77578846D01*
X88230261Y-77733489D01*
X88230264Y-77733501D01*
X88290602Y-77879172D01*
X88290609Y-77879185D01*
X88378210Y-78010288D01*
X88378213Y-78010292D01*
X88489707Y-78121786D01*
X88489711Y-78121789D01*
X88620814Y-78209390D01*
X88620827Y-78209397D01*
X88758683Y-78266498D01*
X88766503Y-78269737D01*
X88921153Y-78300499D01*
X88921156Y-78300500D01*
X88921158Y-78300500D01*
X89078844Y-78300500D01*
X89078845Y-78300499D01*
X89089179Y-78298443D01*
X89114287Y-78293450D01*
X89114292Y-78293449D01*
X89199800Y-78276439D01*
X89233497Y-78269737D01*
X89374766Y-78211222D01*
X89379172Y-78209397D01*
X89379172Y-78209396D01*
X89379179Y-78209394D01*
X89510289Y-78121789D01*
X89621789Y-78010289D01*
X89709394Y-77879179D01*
X89769737Y-77733497D01*
X89800500Y-77578842D01*
X89800500Y-77421158D01*
X89800500Y-77421155D01*
X89800499Y-77421153D01*
X89791459Y-77375708D01*
X89769737Y-77266503D01*
X89745497Y-77207982D01*
X89709397Y-77120827D01*
X89709390Y-77120814D01*
X89621789Y-76989711D01*
X89621786Y-76989707D01*
X89510292Y-76878213D01*
X89510288Y-76878210D01*
X89379185Y-76790609D01*
X89379172Y-76790602D01*
X89233501Y-76730264D01*
X89233489Y-76730261D01*
X89078845Y-76699500D01*
X89078842Y-76699500D01*
X88921158Y-76699500D01*
X88921155Y-76699500D01*
X88766510Y-76730261D01*
X88766498Y-76730264D01*
X88620827Y-76790602D01*
X88620814Y-76790609D01*
X88489711Y-76878210D01*
X88489707Y-76878213D01*
X88378213Y-76989707D01*
X88378210Y-76989711D01*
X88290609Y-77120814D01*
X88290602Y-77120827D01*
X88230264Y-77266498D01*
X88230261Y-77266510D01*
X88199500Y-77421153D01*
X78000000Y-77421153D01*
X78000000Y-75921153D01*
X84199500Y-75921153D01*
X84199500Y-76078846D01*
X84230261Y-76233489D01*
X84230264Y-76233501D01*
X84290602Y-76379172D01*
X84290609Y-76379185D01*
X84378210Y-76510288D01*
X84378213Y-76510292D01*
X84489707Y-76621786D01*
X84489711Y-76621789D01*
X84620814Y-76709390D01*
X84620827Y-76709397D01*
X84766498Y-76769735D01*
X84766503Y-76769737D01*
X84921153Y-76800499D01*
X84921156Y-76800500D01*
X84921158Y-76800500D01*
X85078844Y-76800500D01*
X85078845Y-76800499D01*
X85233497Y-76769737D01*
X85379179Y-76709394D01*
X85510289Y-76621789D01*
X85621789Y-76510289D01*
X85681348Y-76421153D01*
X101199500Y-76421153D01*
X101199500Y-76578846D01*
X101230261Y-76733489D01*
X101230264Y-76733501D01*
X101290602Y-76879172D01*
X101290609Y-76879185D01*
X101378210Y-77010288D01*
X101378213Y-77010292D01*
X101489707Y-77121786D01*
X101489711Y-77121789D01*
X101620814Y-77209390D01*
X101620827Y-77209397D01*
X101758683Y-77266498D01*
X101766503Y-77269737D01*
X101921153Y-77300499D01*
X101921156Y-77300500D01*
X101921158Y-77300500D01*
X102078844Y-77300500D01*
X102078845Y-77300499D01*
X102233497Y-77269737D01*
X102379179Y-77209394D01*
X102510289Y-77121789D01*
X102621789Y-77010289D01*
X102709394Y-76879179D01*
X102769737Y-76733497D01*
X102800500Y-76578842D01*
X102800500Y-76421158D01*
X102800500Y-76421155D01*
X102800499Y-76421153D01*
X102769738Y-76266510D01*
X102769737Y-76266503D01*
X102756062Y-76233489D01*
X102709397Y-76120827D01*
X102709390Y-76120814D01*
X102621789Y-75989711D01*
X102621786Y-75989707D01*
X102510292Y-75878213D01*
X102510288Y-75878210D01*
X102379185Y-75790609D01*
X102379172Y-75790602D01*
X102233501Y-75730264D01*
X102233489Y-75730261D01*
X102078845Y-75699500D01*
X102078842Y-75699500D01*
X101921158Y-75699500D01*
X101921155Y-75699500D01*
X101766510Y-75730261D01*
X101766498Y-75730264D01*
X101620827Y-75790602D01*
X101620814Y-75790609D01*
X101489711Y-75878210D01*
X101489707Y-75878213D01*
X101378213Y-75989707D01*
X101378210Y-75989711D01*
X101290609Y-76120814D01*
X101290602Y-76120827D01*
X101230264Y-76266498D01*
X101230261Y-76266510D01*
X101199500Y-76421153D01*
X85681348Y-76421153D01*
X85709394Y-76379179D01*
X85769737Y-76233497D01*
X85800500Y-76078842D01*
X85800500Y-75921158D01*
X85800500Y-75921155D01*
X85800499Y-75921153D01*
X85774531Y-75790606D01*
X85769737Y-75766503D01*
X85769735Y-75766498D01*
X85709397Y-75620827D01*
X85709390Y-75620814D01*
X85621789Y-75489711D01*
X85621786Y-75489707D01*
X85510292Y-75378213D01*
X85510288Y-75378210D01*
X85379185Y-75290609D01*
X85379172Y-75290602D01*
X85233501Y-75230264D01*
X85233489Y-75230261D01*
X85078845Y-75199500D01*
X85078842Y-75199500D01*
X84921158Y-75199500D01*
X84921155Y-75199500D01*
X84766510Y-75230261D01*
X84766498Y-75230264D01*
X84620827Y-75290602D01*
X84620814Y-75290609D01*
X84489711Y-75378210D01*
X84489707Y-75378213D01*
X84378213Y-75489707D01*
X84378210Y-75489711D01*
X84290609Y-75620814D01*
X84290602Y-75620827D01*
X84230264Y-75766498D01*
X84230261Y-75766510D01*
X84199500Y-75921153D01*
X78000000Y-75921153D01*
X78000000Y-71921153D01*
X88199500Y-71921153D01*
X88199500Y-72078846D01*
X88230261Y-72233489D01*
X88230264Y-72233501D01*
X88290602Y-72379172D01*
X88290609Y-72379185D01*
X88378210Y-72510288D01*
X88378213Y-72510292D01*
X88489707Y-72621786D01*
X88489711Y-72621789D01*
X88620814Y-72709390D01*
X88620827Y-72709397D01*
X88766498Y-72769735D01*
X88766503Y-72769737D01*
X88921153Y-72800499D01*
X88921156Y-72800500D01*
X88921158Y-72800500D01*
X89078844Y-72800500D01*
X89078845Y-72800499D01*
X89233497Y-72769737D01*
X89379179Y-72709394D01*
X89510289Y-72621789D01*
X89621789Y-72510289D01*
X89681348Y-72421153D01*
X101199500Y-72421153D01*
X101199500Y-72578846D01*
X101230261Y-72733489D01*
X101230264Y-72733501D01*
X101290602Y-72879172D01*
X101290609Y-72879185D01*
X101378210Y-73010288D01*
X101378213Y-73010292D01*
X101489707Y-73121786D01*
X101489711Y-73121789D01*
X101620814Y-73209390D01*
X101620827Y-73209397D01*
X101766498Y-73269735D01*
X101766503Y-73269737D01*
X101921153Y-73300499D01*
X101921156Y-73300500D01*
X101921158Y-73300500D01*
X102078844Y-73300500D01*
X102078845Y-73300499D01*
X102233497Y-73269737D01*
X102379179Y-73209394D01*
X102510289Y-73121789D01*
X102621789Y-73010289D01*
X102709394Y-72879179D01*
X102769737Y-72733497D01*
X102800500Y-72578842D01*
X102800500Y-72421158D01*
X102800500Y-72421155D01*
X102800499Y-72421153D01*
X102769738Y-72266510D01*
X102769737Y-72266503D01*
X102756062Y-72233489D01*
X102709397Y-72120827D01*
X102709390Y-72120814D01*
X102621789Y-71989711D01*
X102621786Y-71989707D01*
X102510292Y-71878213D01*
X102510288Y-71878210D01*
X102379185Y-71790609D01*
X102379172Y-71790602D01*
X102233501Y-71730264D01*
X102233489Y-71730261D01*
X102078845Y-71699500D01*
X102078842Y-71699500D01*
X101921158Y-71699500D01*
X101921155Y-71699500D01*
X101766510Y-71730261D01*
X101766498Y-71730264D01*
X101620827Y-71790602D01*
X101620814Y-71790609D01*
X101489711Y-71878210D01*
X101489707Y-71878213D01*
X101378213Y-71989707D01*
X101378210Y-71989711D01*
X101290609Y-72120814D01*
X101290602Y-72120827D01*
X101230264Y-72266498D01*
X101230261Y-72266510D01*
X101199500Y-72421153D01*
X89681348Y-72421153D01*
X89709394Y-72379179D01*
X89769737Y-72233497D01*
X89800500Y-72078842D01*
X89800500Y-71921158D01*
X89800500Y-71921155D01*
X89800499Y-71921153D01*
X89774531Y-71790606D01*
X89769737Y-71766503D01*
X89769735Y-71766498D01*
X89709397Y-71620827D01*
X89709390Y-71620814D01*
X89621789Y-71489711D01*
X89621786Y-71489707D01*
X89510292Y-71378213D01*
X89510288Y-71378210D01*
X89379185Y-71290609D01*
X89379172Y-71290602D01*
X89233501Y-71230264D01*
X89233489Y-71230261D01*
X89078845Y-71199500D01*
X89078842Y-71199500D01*
X88921158Y-71199500D01*
X88921155Y-71199500D01*
X88766510Y-71230261D01*
X88766498Y-71230264D01*
X88620827Y-71290602D01*
X88620814Y-71290609D01*
X88489711Y-71378210D01*
X88489707Y-71378213D01*
X88378213Y-71489707D01*
X88378210Y-71489711D01*
X88290609Y-71620814D01*
X88290602Y-71620827D01*
X88230264Y-71766498D01*
X88230261Y-71766510D01*
X88199500Y-71921153D01*
X78000000Y-71921153D01*
X78000000Y-69054969D01*
X78782299Y-69054969D01*
X78782299Y-69212662D01*
X78813060Y-69367305D01*
X78813063Y-69367317D01*
X78873401Y-69512988D01*
X78873408Y-69513001D01*
X78961009Y-69644104D01*
X78961012Y-69644108D01*
X79072506Y-69755602D01*
X79072510Y-69755605D01*
X79203613Y-69843206D01*
X79203626Y-69843213D01*
X79349297Y-69903551D01*
X79349302Y-69903553D01*
X79503952Y-69934315D01*
X79503955Y-69934316D01*
X79503957Y-69934316D01*
X79661643Y-69934316D01*
X79661644Y-69934315D01*
X79727814Y-69921153D01*
X98699500Y-69921153D01*
X98699500Y-70078846D01*
X98730261Y-70233489D01*
X98730264Y-70233501D01*
X98790602Y-70379172D01*
X98790609Y-70379185D01*
X98878210Y-70510288D01*
X98878213Y-70510292D01*
X98989707Y-70621786D01*
X98989711Y-70621789D01*
X99120814Y-70709390D01*
X99120827Y-70709397D01*
X99266498Y-70769735D01*
X99266503Y-70769737D01*
X99421153Y-70800499D01*
X99421156Y-70800500D01*
X99421158Y-70800500D01*
X99578844Y-70800500D01*
X99578845Y-70800499D01*
X99733497Y-70769737D01*
X99879179Y-70709394D01*
X100010289Y-70621789D01*
X100121789Y-70510289D01*
X100209394Y-70379179D01*
X100269737Y-70233497D01*
X100300500Y-70078842D01*
X100300500Y-69921158D01*
X100300500Y-69921155D01*
X100300499Y-69921153D01*
X100296998Y-69903551D01*
X100269737Y-69766503D01*
X100219040Y-69644108D01*
X100209397Y-69620827D01*
X100209390Y-69620814D01*
X100143736Y-69522556D01*
X100121789Y-69489711D01*
X100121786Y-69489707D01*
X100091831Y-69459752D01*
X105671089Y-69459752D01*
X105671089Y-69617445D01*
X105701850Y-69772088D01*
X105701853Y-69772100D01*
X105762191Y-69917771D01*
X105762198Y-69917784D01*
X105849799Y-70048887D01*
X105849802Y-70048891D01*
X105961296Y-70160385D01*
X105961300Y-70160388D01*
X106092403Y-70247989D01*
X106092416Y-70247996D01*
X106238087Y-70308334D01*
X106238092Y-70308336D01*
X106392742Y-70339098D01*
X106392745Y-70339099D01*
X106392747Y-70339099D01*
X106550433Y-70339099D01*
X106550434Y-70339098D01*
X106705086Y-70308336D01*
X106850768Y-70247993D01*
X106981878Y-70160388D01*
X107093378Y-70048888D01*
X107180983Y-69917778D01*
X107241326Y-69772096D01*
X107272089Y-69617441D01*
X107272089Y-69459757D01*
X107272089Y-69459754D01*
X107272088Y-69459752D01*
X107253701Y-69367317D01*
X107241326Y-69305102D01*
X107226678Y-69269738D01*
X107180986Y-69159426D01*
X107180979Y-69159413D01*
X107093378Y-69028310D01*
X107093375Y-69028306D01*
X106981881Y-68916812D01*
X106981877Y-68916809D01*
X106850774Y-68829208D01*
X106850761Y-68829201D01*
X106705090Y-68768863D01*
X106705078Y-68768860D01*
X106550434Y-68738099D01*
X106550431Y-68738099D01*
X106392747Y-68738099D01*
X106392744Y-68738099D01*
X106238099Y-68768860D01*
X106238087Y-68768863D01*
X106092416Y-68829201D01*
X106092403Y-68829208D01*
X105961300Y-68916809D01*
X105961296Y-68916812D01*
X105849802Y-69028306D01*
X105849799Y-69028310D01*
X105762198Y-69159413D01*
X105762191Y-69159426D01*
X105701853Y-69305097D01*
X105701850Y-69305109D01*
X105671089Y-69459752D01*
X100091831Y-69459752D01*
X100010292Y-69378213D01*
X100010288Y-69378210D01*
X99879185Y-69290609D01*
X99879172Y-69290602D01*
X99733501Y-69230264D01*
X99733489Y-69230261D01*
X99578845Y-69199500D01*
X99578842Y-69199500D01*
X99421158Y-69199500D01*
X99421155Y-69199500D01*
X99266510Y-69230261D01*
X99266498Y-69230264D01*
X99120827Y-69290602D01*
X99120814Y-69290609D01*
X98989711Y-69378210D01*
X98989707Y-69378213D01*
X98878213Y-69489707D01*
X98878210Y-69489711D01*
X98790609Y-69620814D01*
X98790602Y-69620827D01*
X98730264Y-69766498D01*
X98730261Y-69766510D01*
X98699500Y-69921153D01*
X79727814Y-69921153D01*
X79816296Y-69903553D01*
X79961978Y-69843210D01*
X79961984Y-69843206D01*
X80008742Y-69811964D01*
X80053095Y-69782327D01*
X80093088Y-69755605D01*
X80204588Y-69644105D01*
X80292193Y-69512995D01*
X80301838Y-69489711D01*
X80352534Y-69367317D01*
X80352536Y-69367313D01*
X80383299Y-69212658D01*
X80383299Y-69054974D01*
X80383299Y-69054971D01*
X80383298Y-69054969D01*
X80374411Y-69010292D01*
X80352536Y-68900319D01*
X80343777Y-68879172D01*
X80292196Y-68754643D01*
X80292189Y-68754630D01*
X80204588Y-68623527D01*
X80204585Y-68623523D01*
X80093091Y-68512029D01*
X80093087Y-68512026D01*
X79961984Y-68424425D01*
X79961971Y-68424418D01*
X79954088Y-68421153D01*
X88199500Y-68421153D01*
X88199500Y-68578846D01*
X88230261Y-68733489D01*
X88230264Y-68733501D01*
X88290602Y-68879172D01*
X88290609Y-68879185D01*
X88378210Y-69010288D01*
X88378213Y-69010292D01*
X88489707Y-69121786D01*
X88489711Y-69121789D01*
X88620814Y-69209390D01*
X88620827Y-69209397D01*
X88766498Y-69269735D01*
X88766503Y-69269737D01*
X88921153Y-69300499D01*
X88921156Y-69300500D01*
X88921158Y-69300500D01*
X89078844Y-69300500D01*
X89078845Y-69300499D01*
X89233497Y-69269737D01*
X89379179Y-69209394D01*
X89510289Y-69121789D01*
X89621789Y-69010289D01*
X89709394Y-68879179D01*
X89769737Y-68733497D01*
X89800500Y-68578842D01*
X89800500Y-68421158D01*
X89800500Y-68421155D01*
X89800499Y-68421153D01*
X89769738Y-68266510D01*
X89769737Y-68266503D01*
X89709794Y-68121786D01*
X89709397Y-68120827D01*
X89709390Y-68120814D01*
X89621789Y-67989711D01*
X89621786Y-67989707D01*
X89510292Y-67878213D01*
X89510288Y-67878210D01*
X89379185Y-67790609D01*
X89379172Y-67790602D01*
X89233501Y-67730264D01*
X89233489Y-67730261D01*
X89078845Y-67699500D01*
X89078842Y-67699500D01*
X88921158Y-67699500D01*
X88921155Y-67699500D01*
X88766510Y-67730261D01*
X88766498Y-67730264D01*
X88620827Y-67790602D01*
X88620814Y-67790609D01*
X88489711Y-67878210D01*
X88489707Y-67878213D01*
X88378213Y-67989707D01*
X88378210Y-67989711D01*
X88290609Y-68120814D01*
X88290602Y-68120827D01*
X88230264Y-68266498D01*
X88230261Y-68266510D01*
X88199500Y-68421153D01*
X79954088Y-68421153D01*
X79816300Y-68364080D01*
X79816288Y-68364077D01*
X79661644Y-68333316D01*
X79661641Y-68333316D01*
X79503957Y-68333316D01*
X79503954Y-68333316D01*
X79349309Y-68364077D01*
X79349297Y-68364080D01*
X79203626Y-68424418D01*
X79203613Y-68424425D01*
X79072510Y-68512026D01*
X79072506Y-68512029D01*
X78961012Y-68623523D01*
X78961009Y-68623527D01*
X78873408Y-68754630D01*
X78873401Y-68754643D01*
X78813063Y-68900314D01*
X78813060Y-68900326D01*
X78782299Y-69054969D01*
X78000000Y-69054969D01*
X78000000Y-67421153D01*
X85199500Y-67421153D01*
X85199500Y-67578846D01*
X85230261Y-67733489D01*
X85230264Y-67733501D01*
X85290602Y-67879172D01*
X85290609Y-67879185D01*
X85378210Y-68010288D01*
X85378213Y-68010292D01*
X85489707Y-68121786D01*
X85489711Y-68121789D01*
X85620814Y-68209390D01*
X85620827Y-68209397D01*
X85766498Y-68269735D01*
X85766503Y-68269737D01*
X85921153Y-68300499D01*
X85921156Y-68300500D01*
X85921158Y-68300500D01*
X86078844Y-68300500D01*
X86078845Y-68300499D01*
X86089179Y-68298443D01*
X86114287Y-68293450D01*
X86114292Y-68293449D01*
X86199800Y-68276439D01*
X86233497Y-68269737D01*
X86379179Y-68209394D01*
X86510289Y-68121789D01*
X86621789Y-68010289D01*
X86709394Y-67879179D01*
X86769737Y-67733497D01*
X86800500Y-67578842D01*
X86800500Y-67421158D01*
X86800500Y-67421155D01*
X86800499Y-67421153D01*
X86769738Y-67266510D01*
X86769737Y-67266503D01*
X86769735Y-67266498D01*
X86709397Y-67120827D01*
X86709390Y-67120814D01*
X86621789Y-66989711D01*
X86621786Y-66989707D01*
X86510292Y-66878213D01*
X86510288Y-66878210D01*
X86379185Y-66790609D01*
X86379172Y-66790602D01*
X86233501Y-66730264D01*
X86233489Y-66730261D01*
X86078845Y-66699500D01*
X86078842Y-66699500D01*
X85921158Y-66699500D01*
X85921155Y-66699500D01*
X85766510Y-66730261D01*
X85766498Y-66730264D01*
X85620827Y-66790602D01*
X85620814Y-66790609D01*
X85489711Y-66878210D01*
X85489707Y-66878213D01*
X85378213Y-66989707D01*
X85378210Y-66989711D01*
X85290609Y-67120814D01*
X85290602Y-67120827D01*
X85230264Y-67266498D01*
X85230261Y-67266510D01*
X85199500Y-67421153D01*
X78000000Y-67421153D01*
X78000000Y-64421153D01*
X96699500Y-64421153D01*
X96699500Y-64578846D01*
X96730261Y-64733489D01*
X96730264Y-64733501D01*
X96790602Y-64879172D01*
X96790609Y-64879185D01*
X96878210Y-65010288D01*
X96878213Y-65010292D01*
X96989707Y-65121786D01*
X96989711Y-65121789D01*
X97120814Y-65209390D01*
X97120827Y-65209397D01*
X97192743Y-65239185D01*
X97266503Y-65269737D01*
X97421153Y-65300499D01*
X97421156Y-65300500D01*
X97421158Y-65300500D01*
X97578844Y-65300500D01*
X97578845Y-65300499D01*
X97733497Y-65269737D01*
X97879179Y-65209394D01*
X98010289Y-65121789D01*
X98121789Y-65010289D01*
X98209394Y-64879179D01*
X98249997Y-64781153D01*
X101199500Y-64781153D01*
X101199500Y-64938846D01*
X101230261Y-65093489D01*
X101230264Y-65093501D01*
X101290602Y-65239172D01*
X101290609Y-65239185D01*
X101378210Y-65370288D01*
X101378213Y-65370292D01*
X101489707Y-65481786D01*
X101489711Y-65481789D01*
X101620814Y-65569390D01*
X101620827Y-65569397D01*
X101766498Y-65629735D01*
X101766503Y-65629737D01*
X101921153Y-65660499D01*
X101921156Y-65660500D01*
X101921158Y-65660500D01*
X102078844Y-65660500D01*
X102078845Y-65660499D01*
X102233497Y-65629737D01*
X102379179Y-65569394D01*
X102510289Y-65481789D01*
X102621789Y-65370289D01*
X102709394Y-65239179D01*
X102769737Y-65093497D01*
X102800500Y-64938842D01*
X102800500Y-64781158D01*
X102800500Y-64781155D01*
X102800499Y-64781153D01*
X102791020Y-64733500D01*
X102769737Y-64626503D01*
X102749996Y-64578844D01*
X102709397Y-64480827D01*
X102709395Y-64480823D01*
X102709394Y-64480821D01*
X102669525Y-64421153D01*
X106199500Y-64421153D01*
X106199500Y-64578846D01*
X106230261Y-64733489D01*
X106230264Y-64733501D01*
X106290602Y-64879172D01*
X106290609Y-64879185D01*
X106378210Y-65010288D01*
X106378213Y-65010292D01*
X106489707Y-65121786D01*
X106489711Y-65121789D01*
X106620814Y-65209390D01*
X106620827Y-65209397D01*
X106692743Y-65239185D01*
X106766503Y-65269737D01*
X106921153Y-65300499D01*
X106921156Y-65300500D01*
X106921158Y-65300500D01*
X107078844Y-65300500D01*
X107078845Y-65300499D01*
X107233497Y-65269737D01*
X107379179Y-65209394D01*
X107510289Y-65121789D01*
X107621789Y-65010289D01*
X107709394Y-64879179D01*
X107769737Y-64733497D01*
X107800500Y-64578842D01*
X107800500Y-64421158D01*
X107800500Y-64421155D01*
X107800499Y-64421153D01*
X107769738Y-64266510D01*
X107769737Y-64266503D01*
X107758018Y-64238210D01*
X107709397Y-64120827D01*
X107709390Y-64120814D01*
X107621789Y-63989711D01*
X107621786Y-63989707D01*
X107510292Y-63878213D01*
X107510288Y-63878210D01*
X107379185Y-63790609D01*
X107379172Y-63790602D01*
X107233501Y-63730264D01*
X107233489Y-63730261D01*
X107078845Y-63699500D01*
X107078842Y-63699500D01*
X106921158Y-63699500D01*
X106921155Y-63699500D01*
X106766510Y-63730261D01*
X106766498Y-63730264D01*
X106620827Y-63790602D01*
X106620814Y-63790609D01*
X106489711Y-63878210D01*
X106489707Y-63878213D01*
X106378213Y-63989707D01*
X106378210Y-63989711D01*
X106290609Y-64120814D01*
X106290602Y-64120827D01*
X106230264Y-64266498D01*
X106230261Y-64266510D01*
X106199500Y-64421153D01*
X102669525Y-64421153D01*
X102621789Y-64349711D01*
X102621786Y-64349707D01*
X102510292Y-64238213D01*
X102510288Y-64238210D01*
X102379185Y-64150609D01*
X102379172Y-64150602D01*
X102233501Y-64090264D01*
X102233489Y-64090261D01*
X102078845Y-64059500D01*
X102078842Y-64059500D01*
X101921158Y-64059500D01*
X101921155Y-64059500D01*
X101766510Y-64090261D01*
X101766498Y-64090264D01*
X101620827Y-64150602D01*
X101620814Y-64150609D01*
X101489711Y-64238210D01*
X101489707Y-64238213D01*
X101378213Y-64349707D01*
X101378210Y-64349711D01*
X101290609Y-64480814D01*
X101290602Y-64480827D01*
X101230264Y-64626498D01*
X101230261Y-64626510D01*
X101199500Y-64781153D01*
X98249997Y-64781153D01*
X98269737Y-64733497D01*
X98300500Y-64578842D01*
X98300500Y-64421158D01*
X98300500Y-64421155D01*
X98300499Y-64421153D01*
X98269738Y-64266510D01*
X98269737Y-64266503D01*
X98258018Y-64238210D01*
X98209397Y-64120827D01*
X98209390Y-64120814D01*
X98121789Y-63989711D01*
X98121786Y-63989707D01*
X98010292Y-63878213D01*
X98010288Y-63878210D01*
X97879185Y-63790609D01*
X97879172Y-63790602D01*
X97733501Y-63730264D01*
X97733489Y-63730261D01*
X97578845Y-63699500D01*
X97578842Y-63699500D01*
X97421158Y-63699500D01*
X97421155Y-63699500D01*
X97266510Y-63730261D01*
X97266498Y-63730264D01*
X97120827Y-63790602D01*
X97120814Y-63790609D01*
X96989711Y-63878210D01*
X96989707Y-63878213D01*
X96878213Y-63989707D01*
X96878210Y-63989711D01*
X96790609Y-64120814D01*
X96790602Y-64120827D01*
X96730264Y-64266498D01*
X96730261Y-64266510D01*
X96699500Y-64421153D01*
X78000000Y-64421153D01*
X78000000Y-62921153D01*
X100199500Y-62921153D01*
X100199500Y-63078846D01*
X100230261Y-63233489D01*
X100230264Y-63233501D01*
X100290602Y-63379172D01*
X100290609Y-63379185D01*
X100378210Y-63510288D01*
X100378213Y-63510292D01*
X100489707Y-63621786D01*
X100489711Y-63621789D01*
X100620814Y-63709390D01*
X100620827Y-63709397D01*
X100766498Y-63769735D01*
X100766503Y-63769737D01*
X100921153Y-63800499D01*
X100921156Y-63800500D01*
X100921158Y-63800500D01*
X101078844Y-63800500D01*
X101078845Y-63800499D01*
X101233497Y-63769737D01*
X101379179Y-63709394D01*
X101510289Y-63621789D01*
X101621789Y-63510289D01*
X101709394Y-63379179D01*
X101769737Y-63233497D01*
X101800500Y-63078842D01*
X101800500Y-62921158D01*
X101800500Y-62921155D01*
X101800499Y-62921153D01*
X101769738Y-62766510D01*
X101769737Y-62766503D01*
X101746568Y-62710567D01*
X101709397Y-62620827D01*
X101709390Y-62620814D01*
X101621789Y-62489711D01*
X101621786Y-62489707D01*
X101530310Y-62398231D01*
X105800897Y-62398231D01*
X105800897Y-62555924D01*
X105831658Y-62710567D01*
X105831661Y-62710579D01*
X105891999Y-62856250D01*
X105892006Y-62856263D01*
X105979607Y-62987366D01*
X105979610Y-62987370D01*
X106091104Y-63098864D01*
X106091108Y-63098867D01*
X106222211Y-63186468D01*
X106222224Y-63186475D01*
X106335728Y-63233489D01*
X106367900Y-63246815D01*
X106522550Y-63277577D01*
X106522553Y-63277578D01*
X106522555Y-63277578D01*
X106680241Y-63277578D01*
X106680242Y-63277577D01*
X106834894Y-63246815D01*
X106980576Y-63186472D01*
X107111686Y-63098867D01*
X107223186Y-62987367D01*
X107310791Y-62856257D01*
X107371134Y-62710575D01*
X107401897Y-62555920D01*
X107401897Y-62398236D01*
X107401897Y-62398233D01*
X107401896Y-62398231D01*
X107397914Y-62378211D01*
X107371134Y-62243581D01*
X107352875Y-62199500D01*
X107310794Y-62097905D01*
X107310787Y-62097892D01*
X107223186Y-61966789D01*
X107223183Y-61966785D01*
X107111689Y-61855291D01*
X107111685Y-61855288D01*
X106980582Y-61767687D01*
X106980569Y-61767680D01*
X106834898Y-61707342D01*
X106834886Y-61707339D01*
X106680242Y-61676578D01*
X106680239Y-61676578D01*
X106522555Y-61676578D01*
X106522552Y-61676578D01*
X106367907Y-61707339D01*
X106367895Y-61707342D01*
X106222224Y-61767680D01*
X106222211Y-61767687D01*
X106091108Y-61855288D01*
X106091104Y-61855291D01*
X105979610Y-61966785D01*
X105979607Y-61966789D01*
X105892006Y-62097892D01*
X105891999Y-62097905D01*
X105831661Y-62243576D01*
X105831658Y-62243588D01*
X105800897Y-62398231D01*
X101530310Y-62398231D01*
X101510292Y-62378213D01*
X101510288Y-62378210D01*
X101379185Y-62290609D01*
X101379172Y-62290602D01*
X101233501Y-62230264D01*
X101233489Y-62230261D01*
X101078845Y-62199500D01*
X101078842Y-62199500D01*
X100921158Y-62199500D01*
X100921155Y-62199500D01*
X100766510Y-62230261D01*
X100766498Y-62230264D01*
X100620827Y-62290602D01*
X100620814Y-62290609D01*
X100489711Y-62378210D01*
X100489707Y-62378213D01*
X100378213Y-62489707D01*
X100378210Y-62489711D01*
X100290609Y-62620814D01*
X100290602Y-62620827D01*
X100230264Y-62766498D01*
X100230261Y-62766510D01*
X100199500Y-62921153D01*
X78000000Y-62921153D01*
X78000000Y-59921153D01*
X80699500Y-59921153D01*
X80699500Y-60078846D01*
X80730261Y-60233489D01*
X80730264Y-60233501D01*
X80790602Y-60379172D01*
X80790609Y-60379185D01*
X80878210Y-60510288D01*
X80878213Y-60510292D01*
X80989707Y-60621786D01*
X80989711Y-60621789D01*
X81120814Y-60709390D01*
X81120827Y-60709397D01*
X81266498Y-60769735D01*
X81266503Y-60769737D01*
X81400194Y-60796330D01*
X81421153Y-60800499D01*
X81421156Y-60800500D01*
X81421158Y-60800500D01*
X81578844Y-60800500D01*
X81578845Y-60800499D01*
X81733497Y-60769737D01*
X81879179Y-60709394D01*
X82010289Y-60621789D01*
X82121789Y-60510289D01*
X82209394Y-60379179D01*
X82269737Y-60233497D01*
X82300500Y-60078842D01*
X82300500Y-59921158D01*
X82300500Y-59921155D01*
X82300499Y-59921153D01*
X85199500Y-59921153D01*
X85199500Y-60078846D01*
X85230261Y-60233489D01*
X85230264Y-60233501D01*
X85290602Y-60379172D01*
X85290609Y-60379185D01*
X85378210Y-60510288D01*
X85378213Y-60510292D01*
X85489707Y-60621786D01*
X85489711Y-60621789D01*
X85620814Y-60709390D01*
X85620827Y-60709397D01*
X85766498Y-60769735D01*
X85766503Y-60769737D01*
X85900194Y-60796330D01*
X85921153Y-60800499D01*
X85921156Y-60800500D01*
X85921158Y-60800500D01*
X86078844Y-60800500D01*
X86078845Y-60800499D01*
X86233497Y-60769737D01*
X86379179Y-60709394D01*
X86510289Y-60621789D01*
X86621789Y-60510289D01*
X86681348Y-60421153D01*
X97199500Y-60421153D01*
X97199500Y-60578846D01*
X97230261Y-60733489D01*
X97230264Y-60733501D01*
X97290602Y-60879172D01*
X97290609Y-60879185D01*
X97378210Y-61010288D01*
X97378213Y-61010292D01*
X97489707Y-61121786D01*
X97489711Y-61121789D01*
X97620814Y-61209390D01*
X97620827Y-61209397D01*
X97766498Y-61269735D01*
X97766503Y-61269737D01*
X97921153Y-61300499D01*
X97921156Y-61300500D01*
X97921158Y-61300500D01*
X98078844Y-61300500D01*
X98078845Y-61300499D01*
X98233497Y-61269737D01*
X98379179Y-61209394D01*
X98510289Y-61121789D01*
X98621789Y-61010289D01*
X98709394Y-60879179D01*
X98769737Y-60733497D01*
X98800500Y-60578842D01*
X98800500Y-60421158D01*
X98800500Y-60421155D01*
X98800499Y-60421153D01*
X98769738Y-60266510D01*
X98769737Y-60266503D01*
X98709421Y-60120885D01*
X98709397Y-60120827D01*
X98709390Y-60120814D01*
X98621789Y-59989711D01*
X98621786Y-59989707D01*
X98510292Y-59878213D01*
X98510288Y-59878210D01*
X98379185Y-59790609D01*
X98379172Y-59790602D01*
X98233501Y-59730264D01*
X98233489Y-59730261D01*
X98078845Y-59699500D01*
X98078842Y-59699500D01*
X97921158Y-59699500D01*
X97921155Y-59699500D01*
X97766510Y-59730261D01*
X97766498Y-59730264D01*
X97620827Y-59790602D01*
X97620814Y-59790609D01*
X97489711Y-59878210D01*
X97489707Y-59878213D01*
X97378213Y-59989707D01*
X97378210Y-59989711D01*
X97290609Y-60120814D01*
X97290602Y-60120827D01*
X97230264Y-60266498D01*
X97230261Y-60266510D01*
X97199500Y-60421153D01*
X86681348Y-60421153D01*
X86709394Y-60379179D01*
X86769737Y-60233497D01*
X86779508Y-60184373D01*
X86811892Y-60122464D01*
X86872607Y-60087890D01*
X86942377Y-60091629D01*
X86984696Y-60118295D01*
X86985001Y-60117924D01*
X86987957Y-60120350D01*
X86988806Y-60120885D01*
X86989707Y-60121786D01*
X86989711Y-60121789D01*
X87120814Y-60209390D01*
X87120827Y-60209397D01*
X87258683Y-60266498D01*
X87266503Y-60269737D01*
X87421153Y-60300499D01*
X87421156Y-60300500D01*
X87421158Y-60300500D01*
X87578844Y-60300500D01*
X87578845Y-60300499D01*
X87589179Y-60298443D01*
X87614287Y-60293450D01*
X87614292Y-60293449D01*
X87699800Y-60276439D01*
X87733497Y-60269737D01*
X87879179Y-60209394D01*
X88010289Y-60121789D01*
X88121789Y-60010289D01*
X88209394Y-59879179D01*
X88269737Y-59733497D01*
X88300500Y-59578842D01*
X88300500Y-59421158D01*
X88300500Y-59421155D01*
X88300499Y-59421153D01*
X88274531Y-59290606D01*
X88269737Y-59266503D01*
X88269735Y-59266498D01*
X88209397Y-59120827D01*
X88209390Y-59120814D01*
X88121789Y-58989711D01*
X88121786Y-58989707D01*
X88120885Y-58988806D01*
X88120563Y-58988217D01*
X88117924Y-58985001D01*
X88118533Y-58984500D01*
X88087400Y-58927483D01*
X88092384Y-58857791D01*
X88134256Y-58801858D01*
X88184372Y-58779508D01*
X88233497Y-58769737D01*
X88379179Y-58709394D01*
X88510289Y-58621789D01*
X88621789Y-58510289D01*
X88709394Y-58379179D01*
X88769737Y-58233497D01*
X88800500Y-58078842D01*
X88800500Y-57921158D01*
X88800500Y-57921155D01*
X88800499Y-57921153D01*
X88769738Y-57766510D01*
X88769737Y-57766503D01*
X88756062Y-57733489D01*
X88709397Y-57620827D01*
X88709390Y-57620814D01*
X88621790Y-57489712D01*
X88621784Y-57489705D01*
X88553232Y-57421153D01*
X100699500Y-57421153D01*
X100699500Y-57578846D01*
X100730261Y-57733489D01*
X100730264Y-57733501D01*
X100790602Y-57879172D01*
X100790609Y-57879185D01*
X100878210Y-58010288D01*
X100878213Y-58010292D01*
X100989707Y-58121786D01*
X100989711Y-58121789D01*
X101120814Y-58209390D01*
X101120827Y-58209397D01*
X101266498Y-58269735D01*
X101266503Y-58269737D01*
X101421153Y-58300499D01*
X101421156Y-58300500D01*
X101421158Y-58300500D01*
X101578844Y-58300500D01*
X101578845Y-58300499D01*
X101733497Y-58269737D01*
X101879179Y-58209394D01*
X102010289Y-58121789D01*
X102121789Y-58010289D01*
X102209394Y-57879179D01*
X102269737Y-57733497D01*
X102300500Y-57578842D01*
X102300500Y-57421158D01*
X102300500Y-57421155D01*
X102300499Y-57421153D01*
X102274531Y-57290606D01*
X102269737Y-57266503D01*
X102269735Y-57266498D01*
X102209397Y-57120827D01*
X102209390Y-57120814D01*
X102121789Y-56989711D01*
X102121786Y-56989707D01*
X102010292Y-56878213D01*
X102010288Y-56878210D01*
X101879185Y-56790609D01*
X101879172Y-56790602D01*
X101733501Y-56730264D01*
X101733489Y-56730261D01*
X101578845Y-56699500D01*
X101578842Y-56699500D01*
X101421158Y-56699500D01*
X101421155Y-56699500D01*
X101266510Y-56730261D01*
X101266498Y-56730264D01*
X101120827Y-56790602D01*
X101120814Y-56790609D01*
X100989711Y-56878210D01*
X100989707Y-56878213D01*
X100878213Y-56989707D01*
X100878210Y-56989711D01*
X100790609Y-57120814D01*
X100790602Y-57120827D01*
X100730264Y-57266498D01*
X100730261Y-57266510D01*
X100699500Y-57421153D01*
X88553232Y-57421153D01*
X88510292Y-57378213D01*
X88510288Y-57378210D01*
X88379185Y-57290609D01*
X88379172Y-57290602D01*
X88233501Y-57230264D01*
X88233489Y-57230261D01*
X88078845Y-57199500D01*
X88078842Y-57199500D01*
X87921158Y-57199500D01*
X87921155Y-57199500D01*
X87766510Y-57230261D01*
X87766498Y-57230264D01*
X87620827Y-57290602D01*
X87620814Y-57290609D01*
X87489711Y-57378210D01*
X87489707Y-57378213D01*
X87378213Y-57489707D01*
X87378210Y-57489711D01*
X87290609Y-57620814D01*
X87290602Y-57620827D01*
X87230264Y-57766498D01*
X87230261Y-57766510D01*
X87199500Y-57921153D01*
X87199500Y-58078846D01*
X87230261Y-58233489D01*
X87230264Y-58233501D01*
X87290602Y-58379172D01*
X87290609Y-58379185D01*
X87378210Y-58510288D01*
X87378213Y-58510292D01*
X87379114Y-58511193D01*
X87379435Y-58511780D01*
X87382076Y-58514999D01*
X87381465Y-58515499D01*
X87412599Y-58572516D01*
X87407615Y-58642208D01*
X87365743Y-58698141D01*
X87315626Y-58720491D01*
X87266507Y-58730261D01*
X87266498Y-58730264D01*
X87120827Y-58790602D01*
X87120814Y-58790609D01*
X86989711Y-58878210D01*
X86989707Y-58878213D01*
X86878213Y-58989707D01*
X86878210Y-58989711D01*
X86790609Y-59120814D01*
X86790602Y-59120827D01*
X86730264Y-59266498D01*
X86730261Y-59266507D01*
X86720491Y-59315626D01*
X86688105Y-59377536D01*
X86627389Y-59412110D01*
X86557620Y-59408369D01*
X86515303Y-59381704D01*
X86514999Y-59382076D01*
X86512040Y-59379647D01*
X86511193Y-59379114D01*
X86510292Y-59378213D01*
X86510288Y-59378210D01*
X86379185Y-59290609D01*
X86379172Y-59290602D01*
X86233501Y-59230264D01*
X86233489Y-59230261D01*
X86078845Y-59199500D01*
X86078842Y-59199500D01*
X85921158Y-59199500D01*
X85921155Y-59199500D01*
X85766510Y-59230261D01*
X85766498Y-59230264D01*
X85620827Y-59290602D01*
X85620814Y-59290609D01*
X85489711Y-59378210D01*
X85489707Y-59378213D01*
X85378213Y-59489707D01*
X85378210Y-59489711D01*
X85290609Y-59620814D01*
X85290602Y-59620827D01*
X85230264Y-59766498D01*
X85230261Y-59766510D01*
X85199500Y-59921153D01*
X82300499Y-59921153D01*
X82274531Y-59790606D01*
X82269737Y-59766503D01*
X82256062Y-59733489D01*
X82209397Y-59620827D01*
X82209390Y-59620814D01*
X82121789Y-59489711D01*
X82121786Y-59489707D01*
X82010292Y-59378213D01*
X82010288Y-59378210D01*
X81879185Y-59290609D01*
X81879172Y-59290602D01*
X81733501Y-59230264D01*
X81733489Y-59230261D01*
X81578845Y-59199500D01*
X81578842Y-59199500D01*
X81421158Y-59199500D01*
X81421155Y-59199500D01*
X81266510Y-59230261D01*
X81266498Y-59230264D01*
X81120827Y-59290602D01*
X81120814Y-59290609D01*
X80989711Y-59378210D01*
X80989707Y-59378213D01*
X80878213Y-59489707D01*
X80878210Y-59489711D01*
X80790609Y-59620814D01*
X80790602Y-59620827D01*
X80730264Y-59766498D01*
X80730261Y-59766510D01*
X80699500Y-59921153D01*
X78000000Y-59921153D01*
X78000000Y-52475656D01*
X78735042Y-52475656D01*
X78735042Y-52718233D01*
X78766703Y-52958730D01*
X78829489Y-53193049D01*
X78922315Y-53417150D01*
X78922318Y-53417157D01*
X79043606Y-53627234D01*
X79043608Y-53627237D01*
X79043609Y-53627238D01*
X79191275Y-53819681D01*
X79191281Y-53819688D01*
X79362798Y-53991205D01*
X79362804Y-53991210D01*
X79555253Y-54138881D01*
X79765330Y-54260169D01*
X79989442Y-54352999D01*
X80223753Y-54415783D01*
X80404128Y-54439529D01*
X80464253Y-54447445D01*
X80464254Y-54447445D01*
X80706831Y-54447445D01*
X80754930Y-54441112D01*
X80947331Y-54415783D01*
X81181642Y-54352999D01*
X81405754Y-54260169D01*
X81615831Y-54138881D01*
X81808280Y-53991210D01*
X81979807Y-53819683D01*
X82127478Y-53627234D01*
X82248766Y-53417157D01*
X82341596Y-53193045D01*
X82404380Y-52958734D01*
X82436042Y-52718233D01*
X82436042Y-52475657D01*
X82404380Y-52235156D01*
X82341596Y-52000845D01*
X82248766Y-51776733D01*
X82127478Y-51566656D01*
X81979807Y-51374207D01*
X81979802Y-51374201D01*
X81808285Y-51202684D01*
X81808278Y-51202678D01*
X81615835Y-51055012D01*
X81615834Y-51055011D01*
X81615831Y-51055009D01*
X81405754Y-50933721D01*
X81405747Y-50933718D01*
X81181646Y-50840892D01*
X80947327Y-50778106D01*
X80706831Y-50746445D01*
X80706830Y-50746445D01*
X80464254Y-50746445D01*
X80464253Y-50746445D01*
X80223756Y-50778106D01*
X79989437Y-50840892D01*
X79765336Y-50933718D01*
X79765327Y-50933722D01*
X79555248Y-51055012D01*
X79362805Y-51202678D01*
X79362798Y-51202684D01*
X79191281Y-51374201D01*
X79191275Y-51374208D01*
X79043609Y-51566651D01*
X78922319Y-51776730D01*
X78922315Y-51776739D01*
X78829489Y-52000840D01*
X78766703Y-52235159D01*
X78735042Y-52475656D01*
X78000000Y-52475656D01*
X78000000Y-50550094D01*
X78006610Y-50527582D01*
X78008798Y-50504218D01*
X78018348Y-50487606D01*
X78019685Y-50483055D01*
X78026377Y-50473637D01*
X78124481Y-50348417D01*
X78134395Y-50337227D01*
X78337226Y-50134396D01*
X78348417Y-50124481D01*
X78473623Y-50026389D01*
X78538535Y-50000540D01*
X78550096Y-50000000D01*
X83886141Y-50000000D01*
X83953180Y-50019685D01*
G37*
%TD.AperFunction*%
%TD*%
M02*
