%TF.GenerationSoftware,KiCad,Pcbnew,9.0.8-9.0.8~ubuntu24.04.1*%
%TF.CreationDate,2026-04-28T13:52:03-07:00*%
%TF.ProjectId,barn-blinds-controller,6261726e-2d62-46c6-996e-64732d636f6e,rev?*%
%TF.SameCoordinates,Original*%
%TF.FileFunction,Legend,Bot*%
%TF.FilePolarity,Positive*%
%FSLAX46Y46*%
G04 Gerber Fmt 4.6, Leading zero omitted, Abs format (unit mm)*
G04 Created by KiCad (PCBNEW 9.0.8-9.0.8~ubuntu24.04.1) date 2026-04-28 13:52:03*
%MOMM*%
%LPD*%
G01*
G04 APERTURE LIST*
G04 Aperture macros list*
%AMRoundRect*
0 Rectangle with rounded corners*
0 $1 Rounding radius*
0 $2 $3 $4 $5 $6 $7 $8 $9 X,Y pos of 4 corners*
0 Add a 4 corners polygon primitive as box body*
4,1,4,$2,$3,$4,$5,$6,$7,$8,$9,$2,$3,0*
0 Add four circle primitives for the rounded corners*
1,1,$1+$1,$2,$3*
1,1,$1+$1,$4,$5*
1,1,$1+$1,$6,$7*
1,1,$1+$1,$8,$9*
0 Add four rect primitives between the rounded corners*
20,1,$1+$1,$2,$3,$4,$5,0*
20,1,$1+$1,$4,$5,$6,$7,0*
20,1,$1+$1,$6,$7,$8,$9,0*
20,1,$1+$1,$8,$9,$2,$3,0*%
G04 Aperture macros list end*
%ADD10C,0.150000*%
%ADD11C,0.120000*%
%ADD12C,3.200000*%
%ADD13C,2.000000*%
%ADD14R,3.500000X3.500000*%
%ADD15RoundRect,0.750000X0.750000X1.000000X-0.750000X1.000000X-0.750000X-1.000000X0.750000X-1.000000X0*%
%ADD16RoundRect,0.875000X0.875000X0.875000X-0.875000X0.875000X-0.875000X-0.875000X0.875000X-0.875000X0*%
%ADD17C,0.700000*%
%ADD18O,2.054000X1.254000*%
%ADD19O,2.354000X1.254000*%
%ADD20C,1.600000*%
%ADD21RoundRect,0.250000X-0.250000X-0.475000X0.250000X-0.475000X0.250000X0.475000X-0.250000X0.475000X0*%
%ADD22RoundRect,0.225000X0.225000X0.250000X-0.225000X0.250000X-0.225000X-0.250000X0.225000X-0.250000X0*%
%ADD23RoundRect,0.225000X-0.250000X0.225000X-0.250000X-0.225000X0.250000X-0.225000X0.250000X0.225000X0*%
%ADD24RoundRect,0.250000X1.450000X-0.312500X1.450000X0.312500X-1.450000X0.312500X-1.450000X-0.312500X0*%
%ADD25RoundRect,0.225000X-0.225000X-0.250000X0.225000X-0.250000X0.225000X0.250000X-0.225000X0.250000X0*%
%ADD26RoundRect,0.225000X0.250000X-0.225000X0.250000X0.225000X-0.250000X0.225000X-0.250000X-0.225000X0*%
%ADD27RoundRect,0.250000X0.250000X0.475000X-0.250000X0.475000X-0.250000X-0.475000X0.250000X-0.475000X0*%
%ADD28RoundRect,0.200000X0.200000X0.275000X-0.200000X0.275000X-0.200000X-0.275000X0.200000X-0.275000X0*%
%ADD29RoundRect,0.258261X0.929739X-1.029739X0.929739X1.029739X-0.929739X1.029739X-0.929739X-1.029739X0*%
%ADD30RoundRect,0.258261X-0.929739X1.029739X-0.929739X-1.029739X0.929739X-1.029739X0.929739X1.029739X0*%
%ADD31RoundRect,0.200000X-0.200000X-0.275000X0.200000X-0.275000X0.200000X0.275000X-0.200000X0.275000X0*%
%ADD32RoundRect,0.250000X-1.450000X0.312500X-1.450000X-0.312500X1.450000X-0.312500X1.450000X0.312500X0*%
%ADD33RoundRect,0.200000X0.275000X-0.200000X0.275000X0.200000X-0.275000X0.200000X-0.275000X-0.200000X0*%
G04 APERTURE END LIST*
D10*
X118116666Y-90114392D02*
X118149999Y-90147726D01*
X118149999Y-90147726D02*
X118249999Y-90181059D01*
X118249999Y-90181059D02*
X118316666Y-90181059D01*
X118316666Y-90181059D02*
X118416666Y-90147726D01*
X118416666Y-90147726D02*
X118483333Y-90081059D01*
X118483333Y-90081059D02*
X118516666Y-90014392D01*
X118516666Y-90014392D02*
X118549999Y-89881059D01*
X118549999Y-89881059D02*
X118549999Y-89781059D01*
X118549999Y-89781059D02*
X118516666Y-89647726D01*
X118516666Y-89647726D02*
X118483333Y-89581059D01*
X118483333Y-89581059D02*
X118416666Y-89514392D01*
X118416666Y-89514392D02*
X118316666Y-89481059D01*
X118316666Y-89481059D02*
X118249999Y-89481059D01*
X118249999Y-89481059D02*
X118149999Y-89514392D01*
X118149999Y-89514392D02*
X118116666Y-89547726D01*
X117983333Y-90247726D02*
X117449999Y-90247726D01*
X117383333Y-89481059D02*
X117150000Y-90181059D01*
X117150000Y-90181059D02*
X116916666Y-89481059D01*
X116683333Y-90181059D02*
X116683333Y-89481059D01*
X116683333Y-89481059D02*
X116450000Y-89981059D01*
X116450000Y-89981059D02*
X116216666Y-89481059D01*
X116216666Y-89481059D02*
X116216666Y-90181059D01*
X116050000Y-90247726D02*
X115516666Y-90247726D01*
X115383333Y-89981059D02*
X115050000Y-89981059D01*
X115450000Y-90181059D02*
X115216667Y-89481059D01*
X115216667Y-89481059D02*
X114983333Y-90181059D01*
X114783333Y-89547726D02*
X114750000Y-89514392D01*
X114750000Y-89514392D02*
X114683333Y-89481059D01*
X114683333Y-89481059D02*
X114516667Y-89481059D01*
X114516667Y-89481059D02*
X114450000Y-89514392D01*
X114450000Y-89514392D02*
X114416667Y-89547726D01*
X114416667Y-89547726D02*
X114383333Y-89614392D01*
X114383333Y-89614392D02*
X114383333Y-89681059D01*
X114383333Y-89681059D02*
X114416667Y-89781059D01*
X114416667Y-89781059D02*
X114816667Y-90181059D01*
X114816667Y-90181059D02*
X114383333Y-90181059D01*
X121199999Y-71249366D02*
X121233332Y-71282700D01*
X121233332Y-71282700D02*
X121333332Y-71316033D01*
X121333332Y-71316033D02*
X121399999Y-71316033D01*
X121399999Y-71316033D02*
X121499999Y-71282700D01*
X121499999Y-71282700D02*
X121566666Y-71216033D01*
X121566666Y-71216033D02*
X121599999Y-71149366D01*
X121599999Y-71149366D02*
X121633332Y-71016033D01*
X121633332Y-71016033D02*
X121633332Y-70916033D01*
X121633332Y-70916033D02*
X121599999Y-70782700D01*
X121599999Y-70782700D02*
X121566666Y-70716033D01*
X121566666Y-70716033D02*
X121499999Y-70649366D01*
X121499999Y-70649366D02*
X121399999Y-70616033D01*
X121399999Y-70616033D02*
X121333332Y-70616033D01*
X121333332Y-70616033D02*
X121233332Y-70649366D01*
X121233332Y-70649366D02*
X121199999Y-70682700D01*
X121066666Y-71382700D02*
X120533332Y-71382700D01*
X120466666Y-70616033D02*
X120233333Y-71316033D01*
X120233333Y-71316033D02*
X119999999Y-70616033D01*
X119766666Y-71316033D02*
X119766666Y-70616033D01*
X119766666Y-70616033D02*
X119533333Y-71116033D01*
X119533333Y-71116033D02*
X119299999Y-70616033D01*
X119299999Y-70616033D02*
X119299999Y-71316033D01*
X119133333Y-71382700D02*
X118599999Y-71382700D01*
X118200000Y-70949366D02*
X118100000Y-70982700D01*
X118100000Y-70982700D02*
X118066666Y-71016033D01*
X118066666Y-71016033D02*
X118033333Y-71082700D01*
X118033333Y-71082700D02*
X118033333Y-71182700D01*
X118033333Y-71182700D02*
X118066666Y-71249366D01*
X118066666Y-71249366D02*
X118100000Y-71282700D01*
X118100000Y-71282700D02*
X118166666Y-71316033D01*
X118166666Y-71316033D02*
X118433333Y-71316033D01*
X118433333Y-71316033D02*
X118433333Y-70616033D01*
X118433333Y-70616033D02*
X118200000Y-70616033D01*
X118200000Y-70616033D02*
X118133333Y-70649366D01*
X118133333Y-70649366D02*
X118100000Y-70682700D01*
X118100000Y-70682700D02*
X118066666Y-70749366D01*
X118066666Y-70749366D02*
X118066666Y-70816033D01*
X118066666Y-70816033D02*
X118100000Y-70882700D01*
X118100000Y-70882700D02*
X118133333Y-70916033D01*
X118133333Y-70916033D02*
X118200000Y-70949366D01*
X118200000Y-70949366D02*
X118433333Y-70949366D01*
X117366666Y-71316033D02*
X117766666Y-71316033D01*
X117566666Y-71316033D02*
X117566666Y-70616033D01*
X117566666Y-70616033D02*
X117633333Y-70716033D01*
X117633333Y-70716033D02*
X117700000Y-70782700D01*
X117700000Y-70782700D02*
X117766666Y-70816033D01*
X116255523Y-76330306D02*
X116288856Y-76363640D01*
X116288856Y-76363640D02*
X116388856Y-76396973D01*
X116388856Y-76396973D02*
X116455523Y-76396973D01*
X116455523Y-76396973D02*
X116555523Y-76363640D01*
X116555523Y-76363640D02*
X116622190Y-76296973D01*
X116622190Y-76296973D02*
X116655523Y-76230306D01*
X116655523Y-76230306D02*
X116688856Y-76096973D01*
X116688856Y-76096973D02*
X116688856Y-75996973D01*
X116688856Y-75996973D02*
X116655523Y-75863640D01*
X116655523Y-75863640D02*
X116622190Y-75796973D01*
X116622190Y-75796973D02*
X116555523Y-75730306D01*
X116555523Y-75730306D02*
X116455523Y-75696973D01*
X116455523Y-75696973D02*
X116388856Y-75696973D01*
X116388856Y-75696973D02*
X116288856Y-75730306D01*
X116288856Y-75730306D02*
X116255523Y-75763640D01*
X116122190Y-76463640D02*
X115588856Y-76463640D01*
X115422190Y-76396973D02*
X115422190Y-75696973D01*
X115122190Y-76363640D02*
X115022190Y-76396973D01*
X115022190Y-76396973D02*
X114855524Y-76396973D01*
X114855524Y-76396973D02*
X114788857Y-76363640D01*
X114788857Y-76363640D02*
X114755524Y-76330306D01*
X114755524Y-76330306D02*
X114722190Y-76263640D01*
X114722190Y-76263640D02*
X114722190Y-76196973D01*
X114722190Y-76196973D02*
X114755524Y-76130306D01*
X114755524Y-76130306D02*
X114788857Y-76096973D01*
X114788857Y-76096973D02*
X114855524Y-76063640D01*
X114855524Y-76063640D02*
X114988857Y-76030306D01*
X114988857Y-76030306D02*
X115055524Y-75996973D01*
X115055524Y-75996973D02*
X115088857Y-75963640D01*
X115088857Y-75963640D02*
X115122190Y-75896973D01*
X115122190Y-75896973D02*
X115122190Y-75830306D01*
X115122190Y-75830306D02*
X115088857Y-75763640D01*
X115088857Y-75763640D02*
X115055524Y-75730306D01*
X115055524Y-75730306D02*
X114988857Y-75696973D01*
X114988857Y-75696973D02*
X114822190Y-75696973D01*
X114822190Y-75696973D02*
X114722190Y-75730306D01*
X114288857Y-75696973D02*
X114155523Y-75696973D01*
X114155523Y-75696973D02*
X114088857Y-75730306D01*
X114088857Y-75730306D02*
X114022190Y-75796973D01*
X114022190Y-75796973D02*
X113988857Y-75930306D01*
X113988857Y-75930306D02*
X113988857Y-76163640D01*
X113988857Y-76163640D02*
X114022190Y-76296973D01*
X114022190Y-76296973D02*
X114088857Y-76363640D01*
X114088857Y-76363640D02*
X114155523Y-76396973D01*
X114155523Y-76396973D02*
X114288857Y-76396973D01*
X114288857Y-76396973D02*
X114355523Y-76363640D01*
X114355523Y-76363640D02*
X114422190Y-76296973D01*
X114422190Y-76296973D02*
X114455523Y-76163640D01*
X114455523Y-76163640D02*
X114455523Y-75930306D01*
X114455523Y-75930306D02*
X114422190Y-75796973D01*
X114422190Y-75796973D02*
X114355523Y-75730306D01*
X114355523Y-75730306D02*
X114288857Y-75696973D01*
X113855524Y-76463640D02*
X113322190Y-76463640D01*
X113155524Y-76396973D02*
X113155524Y-75696973D01*
X113155524Y-75696973D02*
X112988857Y-75696973D01*
X112988857Y-75696973D02*
X112888857Y-75730306D01*
X112888857Y-75730306D02*
X112822191Y-75796973D01*
X112822191Y-75796973D02*
X112788857Y-75863640D01*
X112788857Y-75863640D02*
X112755524Y-75996973D01*
X112755524Y-75996973D02*
X112755524Y-76096973D01*
X112755524Y-76096973D02*
X112788857Y-76230306D01*
X112788857Y-76230306D02*
X112822191Y-76296973D01*
X112822191Y-76296973D02*
X112888857Y-76363640D01*
X112888857Y-76363640D02*
X112988857Y-76396973D01*
X112988857Y-76396973D02*
X113155524Y-76396973D01*
X112088857Y-76396973D02*
X112488857Y-76396973D01*
X112288857Y-76396973D02*
X112288857Y-75696973D01*
X112288857Y-75696973D02*
X112355524Y-75796973D01*
X112355524Y-75796973D02*
X112422191Y-75863640D01*
X112422191Y-75863640D02*
X112488857Y-75896973D01*
X91616666Y-60249366D02*
X91649999Y-60282700D01*
X91649999Y-60282700D02*
X91749999Y-60316033D01*
X91749999Y-60316033D02*
X91816666Y-60316033D01*
X91816666Y-60316033D02*
X91916666Y-60282700D01*
X91916666Y-60282700D02*
X91983333Y-60216033D01*
X91983333Y-60216033D02*
X92016666Y-60149366D01*
X92016666Y-60149366D02*
X92049999Y-60016033D01*
X92049999Y-60016033D02*
X92049999Y-59916033D01*
X92049999Y-59916033D02*
X92016666Y-59782700D01*
X92016666Y-59782700D02*
X91983333Y-59716033D01*
X91983333Y-59716033D02*
X91916666Y-59649366D01*
X91916666Y-59649366D02*
X91816666Y-59616033D01*
X91816666Y-59616033D02*
X91749999Y-59616033D01*
X91749999Y-59616033D02*
X91649999Y-59649366D01*
X91649999Y-59649366D02*
X91616666Y-59682700D01*
X91383333Y-59616033D02*
X90916666Y-59616033D01*
X90916666Y-59616033D02*
X91216666Y-60316033D01*
X135233333Y-75949366D02*
X135466666Y-75949366D01*
X135466666Y-76316033D02*
X135466666Y-75616033D01*
X135466666Y-75616033D02*
X135133333Y-75616033D01*
X134899999Y-75682700D02*
X134866666Y-75649366D01*
X134866666Y-75649366D02*
X134799999Y-75616033D01*
X134799999Y-75616033D02*
X134633333Y-75616033D01*
X134633333Y-75616033D02*
X134566666Y-75649366D01*
X134566666Y-75649366D02*
X134533333Y-75682700D01*
X134533333Y-75682700D02*
X134499999Y-75749366D01*
X134499999Y-75749366D02*
X134499999Y-75816033D01*
X134499999Y-75816033D02*
X134533333Y-75916033D01*
X134533333Y-75916033D02*
X134933333Y-76316033D01*
X134933333Y-76316033D02*
X134499999Y-76316033D01*
X107399999Y-52749366D02*
X107433332Y-52782700D01*
X107433332Y-52782700D02*
X107533332Y-52816033D01*
X107533332Y-52816033D02*
X107599999Y-52816033D01*
X107599999Y-52816033D02*
X107699999Y-52782700D01*
X107699999Y-52782700D02*
X107766666Y-52716033D01*
X107766666Y-52716033D02*
X107799999Y-52649366D01*
X107799999Y-52649366D02*
X107833332Y-52516033D01*
X107833332Y-52516033D02*
X107833332Y-52416033D01*
X107833332Y-52416033D02*
X107799999Y-52282700D01*
X107799999Y-52282700D02*
X107766666Y-52216033D01*
X107766666Y-52216033D02*
X107699999Y-52149366D01*
X107699999Y-52149366D02*
X107599999Y-52116033D01*
X107599999Y-52116033D02*
X107533332Y-52116033D01*
X107533332Y-52116033D02*
X107433332Y-52149366D01*
X107433332Y-52149366D02*
X107399999Y-52182700D01*
X107266666Y-52882700D02*
X106733332Y-52882700D01*
X106666666Y-52116033D02*
X106266666Y-52116033D01*
X106466666Y-52816033D02*
X106466666Y-52116033D01*
X106033333Y-52816033D02*
X106033333Y-52116033D01*
X106033333Y-52116033D02*
X105800000Y-52616033D01*
X105800000Y-52616033D02*
X105566666Y-52116033D01*
X105566666Y-52116033D02*
X105566666Y-52816033D01*
X105233333Y-52816033D02*
X105233333Y-52116033D01*
X105233333Y-52116033D02*
X104966666Y-52116033D01*
X104966666Y-52116033D02*
X104900000Y-52149366D01*
X104900000Y-52149366D02*
X104866666Y-52182700D01*
X104866666Y-52182700D02*
X104833333Y-52249366D01*
X104833333Y-52249366D02*
X104833333Y-52349366D01*
X104833333Y-52349366D02*
X104866666Y-52416033D01*
X104866666Y-52416033D02*
X104900000Y-52449366D01*
X104900000Y-52449366D02*
X104966666Y-52482700D01*
X104966666Y-52482700D02*
X105233333Y-52482700D01*
X104166666Y-52816033D02*
X104566666Y-52816033D01*
X104366666Y-52816033D02*
X104366666Y-52116033D01*
X104366666Y-52116033D02*
X104433333Y-52216033D01*
X104433333Y-52216033D02*
X104500000Y-52282700D01*
X104500000Y-52282700D02*
X104566666Y-52316033D01*
X109749366Y-86666667D02*
X109782700Y-86633334D01*
X109782700Y-86633334D02*
X109816033Y-86533334D01*
X109816033Y-86533334D02*
X109816033Y-86466667D01*
X109816033Y-86466667D02*
X109782700Y-86366667D01*
X109782700Y-86366667D02*
X109716033Y-86300001D01*
X109716033Y-86300001D02*
X109649366Y-86266667D01*
X109649366Y-86266667D02*
X109516033Y-86233334D01*
X109516033Y-86233334D02*
X109416033Y-86233334D01*
X109416033Y-86233334D02*
X109282700Y-86266667D01*
X109282700Y-86266667D02*
X109216033Y-86300001D01*
X109216033Y-86300001D02*
X109149366Y-86366667D01*
X109149366Y-86366667D02*
X109116033Y-86466667D01*
X109116033Y-86466667D02*
X109116033Y-86533334D01*
X109116033Y-86533334D02*
X109149366Y-86633334D01*
X109149366Y-86633334D02*
X109182700Y-86666667D01*
X109882700Y-86800001D02*
X109882700Y-87333334D01*
X109816033Y-87500000D02*
X109116033Y-87500000D01*
X109782700Y-87800000D02*
X109816033Y-87900000D01*
X109816033Y-87900000D02*
X109816033Y-88066667D01*
X109816033Y-88066667D02*
X109782700Y-88133333D01*
X109782700Y-88133333D02*
X109749366Y-88166667D01*
X109749366Y-88166667D02*
X109682700Y-88200000D01*
X109682700Y-88200000D02*
X109616033Y-88200000D01*
X109616033Y-88200000D02*
X109549366Y-88166667D01*
X109549366Y-88166667D02*
X109516033Y-88133333D01*
X109516033Y-88133333D02*
X109482700Y-88066667D01*
X109482700Y-88066667D02*
X109449366Y-87933333D01*
X109449366Y-87933333D02*
X109416033Y-87866667D01*
X109416033Y-87866667D02*
X109382700Y-87833333D01*
X109382700Y-87833333D02*
X109316033Y-87800000D01*
X109316033Y-87800000D02*
X109249366Y-87800000D01*
X109249366Y-87800000D02*
X109182700Y-87833333D01*
X109182700Y-87833333D02*
X109149366Y-87866667D01*
X109149366Y-87866667D02*
X109116033Y-87933333D01*
X109116033Y-87933333D02*
X109116033Y-88100000D01*
X109116033Y-88100000D02*
X109149366Y-88200000D01*
X109116033Y-88633334D02*
X109116033Y-88766667D01*
X109116033Y-88766667D02*
X109149366Y-88833334D01*
X109149366Y-88833334D02*
X109216033Y-88900000D01*
X109216033Y-88900000D02*
X109349366Y-88933334D01*
X109349366Y-88933334D02*
X109582700Y-88933334D01*
X109582700Y-88933334D02*
X109716033Y-88900000D01*
X109716033Y-88900000D02*
X109782700Y-88833334D01*
X109782700Y-88833334D02*
X109816033Y-88766667D01*
X109816033Y-88766667D02*
X109816033Y-88633334D01*
X109816033Y-88633334D02*
X109782700Y-88566667D01*
X109782700Y-88566667D02*
X109716033Y-88500000D01*
X109716033Y-88500000D02*
X109582700Y-88466667D01*
X109582700Y-88466667D02*
X109349366Y-88466667D01*
X109349366Y-88466667D02*
X109216033Y-88500000D01*
X109216033Y-88500000D02*
X109149366Y-88566667D01*
X109149366Y-88566667D02*
X109116033Y-88633334D01*
X109882700Y-89066667D02*
X109882700Y-89600000D01*
X109449366Y-89766666D02*
X109449366Y-90000000D01*
X109816033Y-90100000D02*
X109816033Y-89766666D01*
X109816033Y-89766666D02*
X109116033Y-89766666D01*
X109116033Y-89766666D02*
X109116033Y-90100000D01*
X109816033Y-90766666D02*
X109816033Y-90366666D01*
X109816033Y-90566666D02*
X109116033Y-90566666D01*
X109116033Y-90566666D02*
X109216033Y-90499999D01*
X109216033Y-90499999D02*
X109282700Y-90433333D01*
X109282700Y-90433333D02*
X109316033Y-90366666D01*
X135233333Y-89949366D02*
X135466666Y-89949366D01*
X135466666Y-90316033D02*
X135466666Y-89616033D01*
X135466666Y-89616033D02*
X135133333Y-89616033D01*
X134566666Y-89849366D02*
X134566666Y-90316033D01*
X134733333Y-89582700D02*
X134899999Y-90082700D01*
X134899999Y-90082700D02*
X134466666Y-90082700D01*
X113616666Y-53249366D02*
X113649999Y-53282700D01*
X113649999Y-53282700D02*
X113749999Y-53316033D01*
X113749999Y-53316033D02*
X113816666Y-53316033D01*
X113816666Y-53316033D02*
X113916666Y-53282700D01*
X113916666Y-53282700D02*
X113983333Y-53216033D01*
X113983333Y-53216033D02*
X114016666Y-53149366D01*
X114016666Y-53149366D02*
X114049999Y-53016033D01*
X114049999Y-53016033D02*
X114049999Y-52916033D01*
X114049999Y-52916033D02*
X114016666Y-52782700D01*
X114016666Y-52782700D02*
X113983333Y-52716033D01*
X113983333Y-52716033D02*
X113916666Y-52649366D01*
X113916666Y-52649366D02*
X113816666Y-52616033D01*
X113816666Y-52616033D02*
X113749999Y-52616033D01*
X113749999Y-52616033D02*
X113649999Y-52649366D01*
X113649999Y-52649366D02*
X113616666Y-52682700D01*
X113283333Y-53316033D02*
X113149999Y-53316033D01*
X113149999Y-53316033D02*
X113083333Y-53282700D01*
X113083333Y-53282700D02*
X113049999Y-53249366D01*
X113049999Y-53249366D02*
X112983333Y-53149366D01*
X112983333Y-53149366D02*
X112949999Y-53016033D01*
X112949999Y-53016033D02*
X112949999Y-52749366D01*
X112949999Y-52749366D02*
X112983333Y-52682700D01*
X112983333Y-52682700D02*
X113016666Y-52649366D01*
X113016666Y-52649366D02*
X113083333Y-52616033D01*
X113083333Y-52616033D02*
X113216666Y-52616033D01*
X113216666Y-52616033D02*
X113283333Y-52649366D01*
X113283333Y-52649366D02*
X113316666Y-52682700D01*
X113316666Y-52682700D02*
X113349999Y-52749366D01*
X113349999Y-52749366D02*
X113349999Y-52916033D01*
X113349999Y-52916033D02*
X113316666Y-52982700D01*
X113316666Y-52982700D02*
X113283333Y-53016033D01*
X113283333Y-53016033D02*
X113216666Y-53049366D01*
X113216666Y-53049366D02*
X113083333Y-53049366D01*
X113083333Y-53049366D02*
X113016666Y-53016033D01*
X113016666Y-53016033D02*
X112983333Y-52982700D01*
X112983333Y-52982700D02*
X112949999Y-52916033D01*
X93116666Y-77749366D02*
X93149999Y-77782700D01*
X93149999Y-77782700D02*
X93249999Y-77816033D01*
X93249999Y-77816033D02*
X93316666Y-77816033D01*
X93316666Y-77816033D02*
X93416666Y-77782700D01*
X93416666Y-77782700D02*
X93483333Y-77716033D01*
X93483333Y-77716033D02*
X93516666Y-77649366D01*
X93516666Y-77649366D02*
X93549999Y-77516033D01*
X93549999Y-77516033D02*
X93549999Y-77416033D01*
X93549999Y-77416033D02*
X93516666Y-77282700D01*
X93516666Y-77282700D02*
X93483333Y-77216033D01*
X93483333Y-77216033D02*
X93416666Y-77149366D01*
X93416666Y-77149366D02*
X93316666Y-77116033D01*
X93316666Y-77116033D02*
X93249999Y-77116033D01*
X93249999Y-77116033D02*
X93149999Y-77149366D01*
X93149999Y-77149366D02*
X93116666Y-77182700D01*
X92516666Y-77349366D02*
X92516666Y-77816033D01*
X92683333Y-77082700D02*
X92849999Y-77582700D01*
X92849999Y-77582700D02*
X92416666Y-77582700D01*
X118349864Y-104929366D02*
X118383197Y-104962700D01*
X118383197Y-104962700D02*
X118483197Y-104996033D01*
X118483197Y-104996033D02*
X118549864Y-104996033D01*
X118549864Y-104996033D02*
X118649864Y-104962700D01*
X118649864Y-104962700D02*
X118716531Y-104896033D01*
X118716531Y-104896033D02*
X118749864Y-104829366D01*
X118749864Y-104829366D02*
X118783197Y-104696033D01*
X118783197Y-104696033D02*
X118783197Y-104596033D01*
X118783197Y-104596033D02*
X118749864Y-104462700D01*
X118749864Y-104462700D02*
X118716531Y-104396033D01*
X118716531Y-104396033D02*
X118649864Y-104329366D01*
X118649864Y-104329366D02*
X118549864Y-104296033D01*
X118549864Y-104296033D02*
X118483197Y-104296033D01*
X118483197Y-104296033D02*
X118383197Y-104329366D01*
X118383197Y-104329366D02*
X118349864Y-104362700D01*
X117683197Y-104996033D02*
X118083197Y-104996033D01*
X117883197Y-104996033D02*
X117883197Y-104296033D01*
X117883197Y-104296033D02*
X117949864Y-104396033D01*
X117949864Y-104396033D02*
X118016531Y-104462700D01*
X118016531Y-104462700D02*
X118083197Y-104496033D01*
X114899999Y-59749366D02*
X114933332Y-59782700D01*
X114933332Y-59782700D02*
X115033332Y-59816033D01*
X115033332Y-59816033D02*
X115099999Y-59816033D01*
X115099999Y-59816033D02*
X115199999Y-59782700D01*
X115199999Y-59782700D02*
X115266666Y-59716033D01*
X115266666Y-59716033D02*
X115299999Y-59649366D01*
X115299999Y-59649366D02*
X115333332Y-59516033D01*
X115333332Y-59516033D02*
X115333332Y-59416033D01*
X115333332Y-59416033D02*
X115299999Y-59282700D01*
X115299999Y-59282700D02*
X115266666Y-59216033D01*
X115266666Y-59216033D02*
X115199999Y-59149366D01*
X115199999Y-59149366D02*
X115099999Y-59116033D01*
X115099999Y-59116033D02*
X115033332Y-59116033D01*
X115033332Y-59116033D02*
X114933332Y-59149366D01*
X114933332Y-59149366D02*
X114899999Y-59182700D01*
X114766666Y-59882700D02*
X114233332Y-59882700D01*
X113833333Y-59449366D02*
X114066666Y-59449366D01*
X114066666Y-59816033D02*
X114066666Y-59116033D01*
X114066666Y-59116033D02*
X113733333Y-59116033D01*
X113466666Y-59816033D02*
X113466666Y-59116033D01*
X112800000Y-59816033D02*
X113133333Y-59816033D01*
X113133333Y-59816033D02*
X113133333Y-59116033D01*
X112666666Y-59116033D02*
X112266666Y-59116033D01*
X112466666Y-59816033D02*
X112466666Y-59116033D01*
X111666666Y-59816033D02*
X112066666Y-59816033D01*
X111866666Y-59816033D02*
X111866666Y-59116033D01*
X111866666Y-59116033D02*
X111933333Y-59216033D01*
X111933333Y-59216033D02*
X112000000Y-59282700D01*
X112000000Y-59282700D02*
X112066666Y-59316033D01*
X93116666Y-83749366D02*
X93149999Y-83782700D01*
X93149999Y-83782700D02*
X93249999Y-83816033D01*
X93249999Y-83816033D02*
X93316666Y-83816033D01*
X93316666Y-83816033D02*
X93416666Y-83782700D01*
X93416666Y-83782700D02*
X93483333Y-83716033D01*
X93483333Y-83716033D02*
X93516666Y-83649366D01*
X93516666Y-83649366D02*
X93549999Y-83516033D01*
X93549999Y-83516033D02*
X93549999Y-83416033D01*
X93549999Y-83416033D02*
X93516666Y-83282700D01*
X93516666Y-83282700D02*
X93483333Y-83216033D01*
X93483333Y-83216033D02*
X93416666Y-83149366D01*
X93416666Y-83149366D02*
X93316666Y-83116033D01*
X93316666Y-83116033D02*
X93249999Y-83116033D01*
X93249999Y-83116033D02*
X93149999Y-83149366D01*
X93149999Y-83149366D02*
X93116666Y-83182700D01*
X92516666Y-83116033D02*
X92649999Y-83116033D01*
X92649999Y-83116033D02*
X92716666Y-83149366D01*
X92716666Y-83149366D02*
X92749999Y-83182700D01*
X92749999Y-83182700D02*
X92816666Y-83282700D01*
X92816666Y-83282700D02*
X92849999Y-83416033D01*
X92849999Y-83416033D02*
X92849999Y-83682700D01*
X92849999Y-83682700D02*
X92816666Y-83749366D01*
X92816666Y-83749366D02*
X92783333Y-83782700D01*
X92783333Y-83782700D02*
X92716666Y-83816033D01*
X92716666Y-83816033D02*
X92583333Y-83816033D01*
X92583333Y-83816033D02*
X92516666Y-83782700D01*
X92516666Y-83782700D02*
X92483333Y-83749366D01*
X92483333Y-83749366D02*
X92449999Y-83682700D01*
X92449999Y-83682700D02*
X92449999Y-83516033D01*
X92449999Y-83516033D02*
X92483333Y-83449366D01*
X92483333Y-83449366D02*
X92516666Y-83416033D01*
X92516666Y-83416033D02*
X92583333Y-83382700D01*
X92583333Y-83382700D02*
X92716666Y-83382700D01*
X92716666Y-83382700D02*
X92783333Y-83416033D01*
X92783333Y-83416033D02*
X92816666Y-83449366D01*
X92816666Y-83449366D02*
X92849999Y-83516033D01*
X122116666Y-68316033D02*
X122349999Y-67982700D01*
X122516666Y-68316033D02*
X122516666Y-67616033D01*
X122516666Y-67616033D02*
X122249999Y-67616033D01*
X122249999Y-67616033D02*
X122183333Y-67649366D01*
X122183333Y-67649366D02*
X122149999Y-67682700D01*
X122149999Y-67682700D02*
X122116666Y-67749366D01*
X122116666Y-67749366D02*
X122116666Y-67849366D01*
X122116666Y-67849366D02*
X122149999Y-67916033D01*
X122149999Y-67916033D02*
X122183333Y-67949366D01*
X122183333Y-67949366D02*
X122249999Y-67982700D01*
X122249999Y-67982700D02*
X122516666Y-67982700D01*
X121516666Y-67616033D02*
X121649999Y-67616033D01*
X121649999Y-67616033D02*
X121716666Y-67649366D01*
X121716666Y-67649366D02*
X121749999Y-67682700D01*
X121749999Y-67682700D02*
X121816666Y-67782700D01*
X121816666Y-67782700D02*
X121849999Y-67916033D01*
X121849999Y-67916033D02*
X121849999Y-68182700D01*
X121849999Y-68182700D02*
X121816666Y-68249366D01*
X121816666Y-68249366D02*
X121783333Y-68282700D01*
X121783333Y-68282700D02*
X121716666Y-68316033D01*
X121716666Y-68316033D02*
X121583333Y-68316033D01*
X121583333Y-68316033D02*
X121516666Y-68282700D01*
X121516666Y-68282700D02*
X121483333Y-68249366D01*
X121483333Y-68249366D02*
X121449999Y-68182700D01*
X121449999Y-68182700D02*
X121449999Y-68016033D01*
X121449999Y-68016033D02*
X121483333Y-67949366D01*
X121483333Y-67949366D02*
X121516666Y-67916033D01*
X121516666Y-67916033D02*
X121583333Y-67882700D01*
X121583333Y-67882700D02*
X121716666Y-67882700D01*
X121716666Y-67882700D02*
X121783333Y-67916033D01*
X121783333Y-67916033D02*
X121816666Y-67949366D01*
X121816666Y-67949366D02*
X121849999Y-68016033D01*
X93116666Y-79816033D02*
X93349999Y-79482700D01*
X93516666Y-79816033D02*
X93516666Y-79116033D01*
X93516666Y-79116033D02*
X93249999Y-79116033D01*
X93249999Y-79116033D02*
X93183333Y-79149366D01*
X93183333Y-79149366D02*
X93149999Y-79182700D01*
X93149999Y-79182700D02*
X93116666Y-79249366D01*
X93116666Y-79249366D02*
X93116666Y-79349366D01*
X93116666Y-79349366D02*
X93149999Y-79416033D01*
X93149999Y-79416033D02*
X93183333Y-79449366D01*
X93183333Y-79449366D02*
X93249999Y-79482700D01*
X93249999Y-79482700D02*
X93516666Y-79482700D01*
X92483333Y-79116033D02*
X92816666Y-79116033D01*
X92816666Y-79116033D02*
X92849999Y-79449366D01*
X92849999Y-79449366D02*
X92816666Y-79416033D01*
X92816666Y-79416033D02*
X92749999Y-79382700D01*
X92749999Y-79382700D02*
X92583333Y-79382700D01*
X92583333Y-79382700D02*
X92516666Y-79416033D01*
X92516666Y-79416033D02*
X92483333Y-79449366D01*
X92483333Y-79449366D02*
X92449999Y-79516033D01*
X92449999Y-79516033D02*
X92449999Y-79682700D01*
X92449999Y-79682700D02*
X92483333Y-79749366D01*
X92483333Y-79749366D02*
X92516666Y-79782700D01*
X92516666Y-79782700D02*
X92583333Y-79816033D01*
X92583333Y-79816033D02*
X92749999Y-79816033D01*
X92749999Y-79816033D02*
X92816666Y-79782700D01*
X92816666Y-79782700D02*
X92849999Y-79749366D01*
X121149999Y-60249366D02*
X121183332Y-60282700D01*
X121183332Y-60282700D02*
X121283332Y-60316033D01*
X121283332Y-60316033D02*
X121349999Y-60316033D01*
X121349999Y-60316033D02*
X121449999Y-60282700D01*
X121449999Y-60282700D02*
X121516666Y-60216033D01*
X121516666Y-60216033D02*
X121549999Y-60149366D01*
X121549999Y-60149366D02*
X121583332Y-60016033D01*
X121583332Y-60016033D02*
X121583332Y-59916033D01*
X121583332Y-59916033D02*
X121549999Y-59782700D01*
X121549999Y-59782700D02*
X121516666Y-59716033D01*
X121516666Y-59716033D02*
X121449999Y-59649366D01*
X121449999Y-59649366D02*
X121349999Y-59616033D01*
X121349999Y-59616033D02*
X121283332Y-59616033D01*
X121283332Y-59616033D02*
X121183332Y-59649366D01*
X121183332Y-59649366D02*
X121149999Y-59682700D01*
X121016666Y-60382700D02*
X120483332Y-60382700D01*
X120416666Y-59616033D02*
X120183333Y-60316033D01*
X120183333Y-60316033D02*
X119949999Y-59616033D01*
X119716666Y-60316033D02*
X119716666Y-59616033D01*
X119716666Y-59616033D02*
X119483333Y-60116033D01*
X119483333Y-60116033D02*
X119249999Y-59616033D01*
X119249999Y-59616033D02*
X119249999Y-60316033D01*
X119083333Y-60382700D02*
X118549999Y-60382700D01*
X118416666Y-60116033D02*
X118083333Y-60116033D01*
X118483333Y-60316033D02*
X118250000Y-59616033D01*
X118250000Y-59616033D02*
X118016666Y-60316033D01*
X117416666Y-60316033D02*
X117816666Y-60316033D01*
X117616666Y-60316033D02*
X117616666Y-59616033D01*
X117616666Y-59616033D02*
X117683333Y-59716033D01*
X117683333Y-59716033D02*
X117750000Y-59782700D01*
X117750000Y-59782700D02*
X117816666Y-59816033D01*
X115866666Y-68360547D02*
X115899999Y-68393881D01*
X115899999Y-68393881D02*
X115999999Y-68427214D01*
X115999999Y-68427214D02*
X116066666Y-68427214D01*
X116066666Y-68427214D02*
X116166666Y-68393881D01*
X116166666Y-68393881D02*
X116233333Y-68327214D01*
X116233333Y-68327214D02*
X116266666Y-68260547D01*
X116266666Y-68260547D02*
X116299999Y-68127214D01*
X116299999Y-68127214D02*
X116299999Y-68027214D01*
X116299999Y-68027214D02*
X116266666Y-67893881D01*
X116266666Y-67893881D02*
X116233333Y-67827214D01*
X116233333Y-67827214D02*
X116166666Y-67760547D01*
X116166666Y-67760547D02*
X116066666Y-67727214D01*
X116066666Y-67727214D02*
X115999999Y-67727214D01*
X115999999Y-67727214D02*
X115899999Y-67760547D01*
X115899999Y-67760547D02*
X115866666Y-67793881D01*
X115733333Y-68493881D02*
X115199999Y-68493881D01*
X115033333Y-68427214D02*
X115033333Y-67727214D01*
X114733333Y-68393881D02*
X114633333Y-68427214D01*
X114633333Y-68427214D02*
X114466667Y-68427214D01*
X114466667Y-68427214D02*
X114400000Y-68393881D01*
X114400000Y-68393881D02*
X114366667Y-68360547D01*
X114366667Y-68360547D02*
X114333333Y-68293881D01*
X114333333Y-68293881D02*
X114333333Y-68227214D01*
X114333333Y-68227214D02*
X114366667Y-68160547D01*
X114366667Y-68160547D02*
X114400000Y-68127214D01*
X114400000Y-68127214D02*
X114466667Y-68093881D01*
X114466667Y-68093881D02*
X114600000Y-68060547D01*
X114600000Y-68060547D02*
X114666667Y-68027214D01*
X114666667Y-68027214D02*
X114700000Y-67993881D01*
X114700000Y-67993881D02*
X114733333Y-67927214D01*
X114733333Y-67927214D02*
X114733333Y-67860547D01*
X114733333Y-67860547D02*
X114700000Y-67793881D01*
X114700000Y-67793881D02*
X114666667Y-67760547D01*
X114666667Y-67760547D02*
X114600000Y-67727214D01*
X114600000Y-67727214D02*
X114433333Y-67727214D01*
X114433333Y-67727214D02*
X114333333Y-67760547D01*
X113900000Y-67727214D02*
X113766666Y-67727214D01*
X113766666Y-67727214D02*
X113700000Y-67760547D01*
X113700000Y-67760547D02*
X113633333Y-67827214D01*
X113633333Y-67827214D02*
X113600000Y-67960547D01*
X113600000Y-67960547D02*
X113600000Y-68193881D01*
X113600000Y-68193881D02*
X113633333Y-68327214D01*
X113633333Y-68327214D02*
X113700000Y-68393881D01*
X113700000Y-68393881D02*
X113766666Y-68427214D01*
X113766666Y-68427214D02*
X113900000Y-68427214D01*
X113900000Y-68427214D02*
X113966666Y-68393881D01*
X113966666Y-68393881D02*
X114033333Y-68327214D01*
X114033333Y-68327214D02*
X114066666Y-68193881D01*
X114066666Y-68193881D02*
X114066666Y-67960547D01*
X114066666Y-67960547D02*
X114033333Y-67827214D01*
X114033333Y-67827214D02*
X113966666Y-67760547D01*
X113966666Y-67760547D02*
X113900000Y-67727214D01*
X113466667Y-68493881D02*
X112933333Y-68493881D01*
X112533334Y-68060547D02*
X112433334Y-68093881D01*
X112433334Y-68093881D02*
X112400000Y-68127214D01*
X112400000Y-68127214D02*
X112366667Y-68193881D01*
X112366667Y-68193881D02*
X112366667Y-68293881D01*
X112366667Y-68293881D02*
X112400000Y-68360547D01*
X112400000Y-68360547D02*
X112433334Y-68393881D01*
X112433334Y-68393881D02*
X112500000Y-68427214D01*
X112500000Y-68427214D02*
X112766667Y-68427214D01*
X112766667Y-68427214D02*
X112766667Y-67727214D01*
X112766667Y-67727214D02*
X112533334Y-67727214D01*
X112533334Y-67727214D02*
X112466667Y-67760547D01*
X112466667Y-67760547D02*
X112433334Y-67793881D01*
X112433334Y-67793881D02*
X112400000Y-67860547D01*
X112400000Y-67860547D02*
X112400000Y-67927214D01*
X112400000Y-67927214D02*
X112433334Y-67993881D01*
X112433334Y-67993881D02*
X112466667Y-68027214D01*
X112466667Y-68027214D02*
X112533334Y-68060547D01*
X112533334Y-68060547D02*
X112766667Y-68060547D01*
X111700000Y-68427214D02*
X112100000Y-68427214D01*
X111900000Y-68427214D02*
X111900000Y-67727214D01*
X111900000Y-67727214D02*
X111966667Y-67827214D01*
X111966667Y-67827214D02*
X112033334Y-67893881D01*
X112033334Y-67893881D02*
X112100000Y-67927214D01*
X126516666Y-87816033D02*
X126516666Y-87116033D01*
X126516666Y-87116033D02*
X126349999Y-87116033D01*
X126349999Y-87116033D02*
X126249999Y-87149366D01*
X126249999Y-87149366D02*
X126183333Y-87216033D01*
X126183333Y-87216033D02*
X126149999Y-87282700D01*
X126149999Y-87282700D02*
X126116666Y-87416033D01*
X126116666Y-87416033D02*
X126116666Y-87516033D01*
X126116666Y-87516033D02*
X126149999Y-87649366D01*
X126149999Y-87649366D02*
X126183333Y-87716033D01*
X126183333Y-87716033D02*
X126249999Y-87782700D01*
X126249999Y-87782700D02*
X126349999Y-87816033D01*
X126349999Y-87816033D02*
X126516666Y-87816033D01*
X125516666Y-87116033D02*
X125649999Y-87116033D01*
X125649999Y-87116033D02*
X125716666Y-87149366D01*
X125716666Y-87149366D02*
X125749999Y-87182700D01*
X125749999Y-87182700D02*
X125816666Y-87282700D01*
X125816666Y-87282700D02*
X125849999Y-87416033D01*
X125849999Y-87416033D02*
X125849999Y-87682700D01*
X125849999Y-87682700D02*
X125816666Y-87749366D01*
X125816666Y-87749366D02*
X125783333Y-87782700D01*
X125783333Y-87782700D02*
X125716666Y-87816033D01*
X125716666Y-87816033D02*
X125583333Y-87816033D01*
X125583333Y-87816033D02*
X125516666Y-87782700D01*
X125516666Y-87782700D02*
X125483333Y-87749366D01*
X125483333Y-87749366D02*
X125449999Y-87682700D01*
X125449999Y-87682700D02*
X125449999Y-87516033D01*
X125449999Y-87516033D02*
X125483333Y-87449366D01*
X125483333Y-87449366D02*
X125516666Y-87416033D01*
X125516666Y-87416033D02*
X125583333Y-87382700D01*
X125583333Y-87382700D02*
X125716666Y-87382700D01*
X125716666Y-87382700D02*
X125783333Y-87416033D01*
X125783333Y-87416033D02*
X125816666Y-87449366D01*
X125816666Y-87449366D02*
X125849999Y-87516033D01*
X126502922Y-69000849D02*
X126502922Y-68300849D01*
X126502922Y-68300849D02*
X126336255Y-68300849D01*
X126336255Y-68300849D02*
X126236255Y-68334182D01*
X126236255Y-68334182D02*
X126169589Y-68400849D01*
X126169589Y-68400849D02*
X126136255Y-68467516D01*
X126136255Y-68467516D02*
X126102922Y-68600849D01*
X126102922Y-68600849D02*
X126102922Y-68700849D01*
X126102922Y-68700849D02*
X126136255Y-68834182D01*
X126136255Y-68834182D02*
X126169589Y-68900849D01*
X126169589Y-68900849D02*
X126236255Y-68967516D01*
X126236255Y-68967516D02*
X126336255Y-69000849D01*
X126336255Y-69000849D02*
X126502922Y-69000849D01*
X125502922Y-68534182D02*
X125502922Y-69000849D01*
X125669589Y-68267516D02*
X125836255Y-68767516D01*
X125836255Y-68767516D02*
X125402922Y-68767516D01*
X118116666Y-86749366D02*
X118149999Y-86782700D01*
X118149999Y-86782700D02*
X118249999Y-86816033D01*
X118249999Y-86816033D02*
X118316666Y-86816033D01*
X118316666Y-86816033D02*
X118416666Y-86782700D01*
X118416666Y-86782700D02*
X118483333Y-86716033D01*
X118483333Y-86716033D02*
X118516666Y-86649366D01*
X118516666Y-86649366D02*
X118549999Y-86516033D01*
X118549999Y-86516033D02*
X118549999Y-86416033D01*
X118549999Y-86416033D02*
X118516666Y-86282700D01*
X118516666Y-86282700D02*
X118483333Y-86216033D01*
X118483333Y-86216033D02*
X118416666Y-86149366D01*
X118416666Y-86149366D02*
X118316666Y-86116033D01*
X118316666Y-86116033D02*
X118249999Y-86116033D01*
X118249999Y-86116033D02*
X118149999Y-86149366D01*
X118149999Y-86149366D02*
X118116666Y-86182700D01*
X117983333Y-86882700D02*
X117449999Y-86882700D01*
X117383333Y-86116033D02*
X117150000Y-86816033D01*
X117150000Y-86816033D02*
X116916666Y-86116033D01*
X116683333Y-86816033D02*
X116683333Y-86116033D01*
X116683333Y-86116033D02*
X116450000Y-86616033D01*
X116450000Y-86616033D02*
X116216666Y-86116033D01*
X116216666Y-86116033D02*
X116216666Y-86816033D01*
X116050000Y-86882700D02*
X115516666Y-86882700D01*
X115116667Y-86449366D02*
X115016667Y-86482700D01*
X115016667Y-86482700D02*
X114983333Y-86516033D01*
X114983333Y-86516033D02*
X114950000Y-86582700D01*
X114950000Y-86582700D02*
X114950000Y-86682700D01*
X114950000Y-86682700D02*
X114983333Y-86749366D01*
X114983333Y-86749366D02*
X115016667Y-86782700D01*
X115016667Y-86782700D02*
X115083333Y-86816033D01*
X115083333Y-86816033D02*
X115350000Y-86816033D01*
X115350000Y-86816033D02*
X115350000Y-86116033D01*
X115350000Y-86116033D02*
X115116667Y-86116033D01*
X115116667Y-86116033D02*
X115050000Y-86149366D01*
X115050000Y-86149366D02*
X115016667Y-86182700D01*
X115016667Y-86182700D02*
X114983333Y-86249366D01*
X114983333Y-86249366D02*
X114983333Y-86316033D01*
X114983333Y-86316033D02*
X115016667Y-86382700D01*
X115016667Y-86382700D02*
X115050000Y-86416033D01*
X115050000Y-86416033D02*
X115116667Y-86449366D01*
X115116667Y-86449366D02*
X115350000Y-86449366D01*
X114683333Y-86182700D02*
X114650000Y-86149366D01*
X114650000Y-86149366D02*
X114583333Y-86116033D01*
X114583333Y-86116033D02*
X114416667Y-86116033D01*
X114416667Y-86116033D02*
X114350000Y-86149366D01*
X114350000Y-86149366D02*
X114316667Y-86182700D01*
X114316667Y-86182700D02*
X114283333Y-86249366D01*
X114283333Y-86249366D02*
X114283333Y-86316033D01*
X114283333Y-86316033D02*
X114316667Y-86416033D01*
X114316667Y-86416033D02*
X114716667Y-86816033D01*
X114716667Y-86816033D02*
X114283333Y-86816033D01*
X108366666Y-76249366D02*
X108399999Y-76282700D01*
X108399999Y-76282700D02*
X108499999Y-76316033D01*
X108499999Y-76316033D02*
X108566666Y-76316033D01*
X108566666Y-76316033D02*
X108666666Y-76282700D01*
X108666666Y-76282700D02*
X108733333Y-76216033D01*
X108733333Y-76216033D02*
X108766666Y-76149366D01*
X108766666Y-76149366D02*
X108799999Y-76016033D01*
X108799999Y-76016033D02*
X108799999Y-75916033D01*
X108799999Y-75916033D02*
X108766666Y-75782700D01*
X108766666Y-75782700D02*
X108733333Y-75716033D01*
X108733333Y-75716033D02*
X108666666Y-75649366D01*
X108666666Y-75649366D02*
X108566666Y-75616033D01*
X108566666Y-75616033D02*
X108499999Y-75616033D01*
X108499999Y-75616033D02*
X108399999Y-75649366D01*
X108399999Y-75649366D02*
X108366666Y-75682700D01*
X108233333Y-76382700D02*
X107699999Y-76382700D01*
X107533333Y-76316033D02*
X107533333Y-75616033D01*
X107233333Y-76282700D02*
X107133333Y-76316033D01*
X107133333Y-76316033D02*
X106966667Y-76316033D01*
X106966667Y-76316033D02*
X106900000Y-76282700D01*
X106900000Y-76282700D02*
X106866667Y-76249366D01*
X106866667Y-76249366D02*
X106833333Y-76182700D01*
X106833333Y-76182700D02*
X106833333Y-76116033D01*
X106833333Y-76116033D02*
X106866667Y-76049366D01*
X106866667Y-76049366D02*
X106900000Y-76016033D01*
X106900000Y-76016033D02*
X106966667Y-75982700D01*
X106966667Y-75982700D02*
X107100000Y-75949366D01*
X107100000Y-75949366D02*
X107166667Y-75916033D01*
X107166667Y-75916033D02*
X107200000Y-75882700D01*
X107200000Y-75882700D02*
X107233333Y-75816033D01*
X107233333Y-75816033D02*
X107233333Y-75749366D01*
X107233333Y-75749366D02*
X107200000Y-75682700D01*
X107200000Y-75682700D02*
X107166667Y-75649366D01*
X107166667Y-75649366D02*
X107100000Y-75616033D01*
X107100000Y-75616033D02*
X106933333Y-75616033D01*
X106933333Y-75616033D02*
X106833333Y-75649366D01*
X106400000Y-75616033D02*
X106266666Y-75616033D01*
X106266666Y-75616033D02*
X106200000Y-75649366D01*
X106200000Y-75649366D02*
X106133333Y-75716033D01*
X106133333Y-75716033D02*
X106100000Y-75849366D01*
X106100000Y-75849366D02*
X106100000Y-76082700D01*
X106100000Y-76082700D02*
X106133333Y-76216033D01*
X106133333Y-76216033D02*
X106200000Y-76282700D01*
X106200000Y-76282700D02*
X106266666Y-76316033D01*
X106266666Y-76316033D02*
X106400000Y-76316033D01*
X106400000Y-76316033D02*
X106466666Y-76282700D01*
X106466666Y-76282700D02*
X106533333Y-76216033D01*
X106533333Y-76216033D02*
X106566666Y-76082700D01*
X106566666Y-76082700D02*
X106566666Y-75849366D01*
X106566666Y-75849366D02*
X106533333Y-75716033D01*
X106533333Y-75716033D02*
X106466666Y-75649366D01*
X106466666Y-75649366D02*
X106400000Y-75616033D01*
X105966667Y-76382700D02*
X105433333Y-76382700D01*
X104866667Y-76249366D02*
X104900000Y-76282700D01*
X104900000Y-76282700D02*
X105000000Y-76316033D01*
X105000000Y-76316033D02*
X105066667Y-76316033D01*
X105066667Y-76316033D02*
X105166667Y-76282700D01*
X105166667Y-76282700D02*
X105233334Y-76216033D01*
X105233334Y-76216033D02*
X105266667Y-76149366D01*
X105266667Y-76149366D02*
X105300000Y-76016033D01*
X105300000Y-76016033D02*
X105300000Y-75916033D01*
X105300000Y-75916033D02*
X105266667Y-75782700D01*
X105266667Y-75782700D02*
X105233334Y-75716033D01*
X105233334Y-75716033D02*
X105166667Y-75649366D01*
X105166667Y-75649366D02*
X105066667Y-75616033D01*
X105066667Y-75616033D02*
X105000000Y-75616033D01*
X105000000Y-75616033D02*
X104900000Y-75649366D01*
X104900000Y-75649366D02*
X104866667Y-75682700D01*
X104200000Y-76316033D02*
X104600000Y-76316033D01*
X104400000Y-76316033D02*
X104400000Y-75616033D01*
X104400000Y-75616033D02*
X104466667Y-75716033D01*
X104466667Y-75716033D02*
X104533334Y-75782700D01*
X104533334Y-75782700D02*
X104600000Y-75816033D01*
X122116666Y-63816033D02*
X122349999Y-63482700D01*
X122516666Y-63816033D02*
X122516666Y-63116033D01*
X122516666Y-63116033D02*
X122249999Y-63116033D01*
X122249999Y-63116033D02*
X122183333Y-63149366D01*
X122183333Y-63149366D02*
X122149999Y-63182700D01*
X122149999Y-63182700D02*
X122116666Y-63249366D01*
X122116666Y-63249366D02*
X122116666Y-63349366D01*
X122116666Y-63349366D02*
X122149999Y-63416033D01*
X122149999Y-63416033D02*
X122183333Y-63449366D01*
X122183333Y-63449366D02*
X122249999Y-63482700D01*
X122249999Y-63482700D02*
X122516666Y-63482700D01*
X121883333Y-63116033D02*
X121416666Y-63116033D01*
X121416666Y-63116033D02*
X121716666Y-63816033D01*
X91616666Y-58249366D02*
X91649999Y-58282700D01*
X91649999Y-58282700D02*
X91749999Y-58316033D01*
X91749999Y-58316033D02*
X91816666Y-58316033D01*
X91816666Y-58316033D02*
X91916666Y-58282700D01*
X91916666Y-58282700D02*
X91983333Y-58216033D01*
X91983333Y-58216033D02*
X92016666Y-58149366D01*
X92016666Y-58149366D02*
X92049999Y-58016033D01*
X92049999Y-58016033D02*
X92049999Y-57916033D01*
X92049999Y-57916033D02*
X92016666Y-57782700D01*
X92016666Y-57782700D02*
X91983333Y-57716033D01*
X91983333Y-57716033D02*
X91916666Y-57649366D01*
X91916666Y-57649366D02*
X91816666Y-57616033D01*
X91816666Y-57616033D02*
X91749999Y-57616033D01*
X91749999Y-57616033D02*
X91649999Y-57649366D01*
X91649999Y-57649366D02*
X91616666Y-57682700D01*
X91216666Y-57916033D02*
X91283333Y-57882700D01*
X91283333Y-57882700D02*
X91316666Y-57849366D01*
X91316666Y-57849366D02*
X91349999Y-57782700D01*
X91349999Y-57782700D02*
X91349999Y-57749366D01*
X91349999Y-57749366D02*
X91316666Y-57682700D01*
X91316666Y-57682700D02*
X91283333Y-57649366D01*
X91283333Y-57649366D02*
X91216666Y-57616033D01*
X91216666Y-57616033D02*
X91083333Y-57616033D01*
X91083333Y-57616033D02*
X91016666Y-57649366D01*
X91016666Y-57649366D02*
X90983333Y-57682700D01*
X90983333Y-57682700D02*
X90949999Y-57749366D01*
X90949999Y-57749366D02*
X90949999Y-57782700D01*
X90949999Y-57782700D02*
X90983333Y-57849366D01*
X90983333Y-57849366D02*
X91016666Y-57882700D01*
X91016666Y-57882700D02*
X91083333Y-57916033D01*
X91083333Y-57916033D02*
X91216666Y-57916033D01*
X91216666Y-57916033D02*
X91283333Y-57949366D01*
X91283333Y-57949366D02*
X91316666Y-57982700D01*
X91316666Y-57982700D02*
X91349999Y-58049366D01*
X91349999Y-58049366D02*
X91349999Y-58182700D01*
X91349999Y-58182700D02*
X91316666Y-58249366D01*
X91316666Y-58249366D02*
X91283333Y-58282700D01*
X91283333Y-58282700D02*
X91216666Y-58316033D01*
X91216666Y-58316033D02*
X91083333Y-58316033D01*
X91083333Y-58316033D02*
X91016666Y-58282700D01*
X91016666Y-58282700D02*
X90983333Y-58249366D01*
X90983333Y-58249366D02*
X90949999Y-58182700D01*
X90949999Y-58182700D02*
X90949999Y-58049366D01*
X90949999Y-58049366D02*
X90983333Y-57982700D01*
X90983333Y-57982700D02*
X91016666Y-57949366D01*
X91016666Y-57949366D02*
X91083333Y-57916033D01*
X114450000Y-55249366D02*
X114483333Y-55282700D01*
X114483333Y-55282700D02*
X114583333Y-55316033D01*
X114583333Y-55316033D02*
X114650000Y-55316033D01*
X114650000Y-55316033D02*
X114750000Y-55282700D01*
X114750000Y-55282700D02*
X114816667Y-55216033D01*
X114816667Y-55216033D02*
X114850000Y-55149366D01*
X114850000Y-55149366D02*
X114883333Y-55016033D01*
X114883333Y-55016033D02*
X114883333Y-54916033D01*
X114883333Y-54916033D02*
X114850000Y-54782700D01*
X114850000Y-54782700D02*
X114816667Y-54716033D01*
X114816667Y-54716033D02*
X114750000Y-54649366D01*
X114750000Y-54649366D02*
X114650000Y-54616033D01*
X114650000Y-54616033D02*
X114583333Y-54616033D01*
X114583333Y-54616033D02*
X114483333Y-54649366D01*
X114483333Y-54649366D02*
X114450000Y-54682700D01*
X113783333Y-55316033D02*
X114183333Y-55316033D01*
X113983333Y-55316033D02*
X113983333Y-54616033D01*
X113983333Y-54616033D02*
X114050000Y-54716033D01*
X114050000Y-54716033D02*
X114116667Y-54782700D01*
X114116667Y-54782700D02*
X114183333Y-54816033D01*
X113350000Y-54616033D02*
X113283333Y-54616033D01*
X113283333Y-54616033D02*
X113216666Y-54649366D01*
X113216666Y-54649366D02*
X113183333Y-54682700D01*
X113183333Y-54682700D02*
X113150000Y-54749366D01*
X113150000Y-54749366D02*
X113116666Y-54882700D01*
X113116666Y-54882700D02*
X113116666Y-55049366D01*
X113116666Y-55049366D02*
X113150000Y-55182700D01*
X113150000Y-55182700D02*
X113183333Y-55249366D01*
X113183333Y-55249366D02*
X113216666Y-55282700D01*
X113216666Y-55282700D02*
X113283333Y-55316033D01*
X113283333Y-55316033D02*
X113350000Y-55316033D01*
X113350000Y-55316033D02*
X113416666Y-55282700D01*
X113416666Y-55282700D02*
X113450000Y-55249366D01*
X113450000Y-55249366D02*
X113483333Y-55182700D01*
X113483333Y-55182700D02*
X113516666Y-55049366D01*
X113516666Y-55049366D02*
X113516666Y-54882700D01*
X113516666Y-54882700D02*
X113483333Y-54749366D01*
X113483333Y-54749366D02*
X113450000Y-54682700D01*
X113450000Y-54682700D02*
X113416666Y-54649366D01*
X113416666Y-54649366D02*
X113350000Y-54616033D01*
X126516666Y-97316033D02*
X126516666Y-96616033D01*
X126516666Y-96616033D02*
X126349999Y-96616033D01*
X126349999Y-96616033D02*
X126249999Y-96649366D01*
X126249999Y-96649366D02*
X126183333Y-96716033D01*
X126183333Y-96716033D02*
X126149999Y-96782700D01*
X126149999Y-96782700D02*
X126116666Y-96916033D01*
X126116666Y-96916033D02*
X126116666Y-97016033D01*
X126116666Y-97016033D02*
X126149999Y-97149366D01*
X126149999Y-97149366D02*
X126183333Y-97216033D01*
X126183333Y-97216033D02*
X126249999Y-97282700D01*
X126249999Y-97282700D02*
X126349999Y-97316033D01*
X126349999Y-97316033D02*
X126516666Y-97316033D01*
X125883333Y-96616033D02*
X125416666Y-96616033D01*
X125416666Y-96616033D02*
X125716666Y-97316033D01*
X108109180Y-68224380D02*
X108142513Y-68257714D01*
X108142513Y-68257714D02*
X108242513Y-68291047D01*
X108242513Y-68291047D02*
X108309180Y-68291047D01*
X108309180Y-68291047D02*
X108409180Y-68257714D01*
X108409180Y-68257714D02*
X108475847Y-68191047D01*
X108475847Y-68191047D02*
X108509180Y-68124380D01*
X108509180Y-68124380D02*
X108542513Y-67991047D01*
X108542513Y-67991047D02*
X108542513Y-67891047D01*
X108542513Y-67891047D02*
X108509180Y-67757714D01*
X108509180Y-67757714D02*
X108475847Y-67691047D01*
X108475847Y-67691047D02*
X108409180Y-67624380D01*
X108409180Y-67624380D02*
X108309180Y-67591047D01*
X108309180Y-67591047D02*
X108242513Y-67591047D01*
X108242513Y-67591047D02*
X108142513Y-67624380D01*
X108142513Y-67624380D02*
X108109180Y-67657714D01*
X107975847Y-68357714D02*
X107442513Y-68357714D01*
X107275847Y-68291047D02*
X107275847Y-67591047D01*
X106975847Y-68257714D02*
X106875847Y-68291047D01*
X106875847Y-68291047D02*
X106709181Y-68291047D01*
X106709181Y-68291047D02*
X106642514Y-68257714D01*
X106642514Y-68257714D02*
X106609181Y-68224380D01*
X106609181Y-68224380D02*
X106575847Y-68157714D01*
X106575847Y-68157714D02*
X106575847Y-68091047D01*
X106575847Y-68091047D02*
X106609181Y-68024380D01*
X106609181Y-68024380D02*
X106642514Y-67991047D01*
X106642514Y-67991047D02*
X106709181Y-67957714D01*
X106709181Y-67957714D02*
X106842514Y-67924380D01*
X106842514Y-67924380D02*
X106909181Y-67891047D01*
X106909181Y-67891047D02*
X106942514Y-67857714D01*
X106942514Y-67857714D02*
X106975847Y-67791047D01*
X106975847Y-67791047D02*
X106975847Y-67724380D01*
X106975847Y-67724380D02*
X106942514Y-67657714D01*
X106942514Y-67657714D02*
X106909181Y-67624380D01*
X106909181Y-67624380D02*
X106842514Y-67591047D01*
X106842514Y-67591047D02*
X106675847Y-67591047D01*
X106675847Y-67591047D02*
X106575847Y-67624380D01*
X106142514Y-67591047D02*
X106009180Y-67591047D01*
X106009180Y-67591047D02*
X105942514Y-67624380D01*
X105942514Y-67624380D02*
X105875847Y-67691047D01*
X105875847Y-67691047D02*
X105842514Y-67824380D01*
X105842514Y-67824380D02*
X105842514Y-68057714D01*
X105842514Y-68057714D02*
X105875847Y-68191047D01*
X105875847Y-68191047D02*
X105942514Y-68257714D01*
X105942514Y-68257714D02*
X106009180Y-68291047D01*
X106009180Y-68291047D02*
X106142514Y-68291047D01*
X106142514Y-68291047D02*
X106209180Y-68257714D01*
X106209180Y-68257714D02*
X106275847Y-68191047D01*
X106275847Y-68191047D02*
X106309180Y-68057714D01*
X106309180Y-68057714D02*
X106309180Y-67824380D01*
X106309180Y-67824380D02*
X106275847Y-67691047D01*
X106275847Y-67691047D02*
X106209180Y-67624380D01*
X106209180Y-67624380D02*
X106142514Y-67591047D01*
X105709181Y-68357714D02*
X105175847Y-68357714D01*
X105042514Y-68091047D02*
X104709181Y-68091047D01*
X105109181Y-68291047D02*
X104875848Y-67591047D01*
X104875848Y-67591047D02*
X104642514Y-68291047D01*
X104042514Y-68291047D02*
X104442514Y-68291047D01*
X104242514Y-68291047D02*
X104242514Y-67591047D01*
X104242514Y-67591047D02*
X104309181Y-67691047D01*
X104309181Y-67691047D02*
X104375848Y-67757714D01*
X104375848Y-67757714D02*
X104442514Y-67791047D01*
X93116666Y-81749366D02*
X93149999Y-81782700D01*
X93149999Y-81782700D02*
X93249999Y-81816033D01*
X93249999Y-81816033D02*
X93316666Y-81816033D01*
X93316666Y-81816033D02*
X93416666Y-81782700D01*
X93416666Y-81782700D02*
X93483333Y-81716033D01*
X93483333Y-81716033D02*
X93516666Y-81649366D01*
X93516666Y-81649366D02*
X93549999Y-81516033D01*
X93549999Y-81516033D02*
X93549999Y-81416033D01*
X93549999Y-81416033D02*
X93516666Y-81282700D01*
X93516666Y-81282700D02*
X93483333Y-81216033D01*
X93483333Y-81216033D02*
X93416666Y-81149366D01*
X93416666Y-81149366D02*
X93316666Y-81116033D01*
X93316666Y-81116033D02*
X93249999Y-81116033D01*
X93249999Y-81116033D02*
X93149999Y-81149366D01*
X93149999Y-81149366D02*
X93116666Y-81182700D01*
X92483333Y-81116033D02*
X92816666Y-81116033D01*
X92816666Y-81116033D02*
X92849999Y-81449366D01*
X92849999Y-81449366D02*
X92816666Y-81416033D01*
X92816666Y-81416033D02*
X92749999Y-81382700D01*
X92749999Y-81382700D02*
X92583333Y-81382700D01*
X92583333Y-81382700D02*
X92516666Y-81416033D01*
X92516666Y-81416033D02*
X92483333Y-81449366D01*
X92483333Y-81449366D02*
X92449999Y-81516033D01*
X92449999Y-81516033D02*
X92449999Y-81682700D01*
X92449999Y-81682700D02*
X92483333Y-81749366D01*
X92483333Y-81749366D02*
X92516666Y-81782700D01*
X92516666Y-81782700D02*
X92583333Y-81816033D01*
X92583333Y-81816033D02*
X92749999Y-81816033D01*
X92749999Y-81816033D02*
X92816666Y-81782700D01*
X92816666Y-81782700D02*
X92849999Y-81749366D01*
X106070114Y-79316033D02*
X106303447Y-78982700D01*
X106470114Y-79316033D02*
X106470114Y-78616033D01*
X106470114Y-78616033D02*
X106203447Y-78616033D01*
X106203447Y-78616033D02*
X106136781Y-78649366D01*
X106136781Y-78649366D02*
X106103447Y-78682700D01*
X106103447Y-78682700D02*
X106070114Y-78749366D01*
X106070114Y-78749366D02*
X106070114Y-78849366D01*
X106070114Y-78849366D02*
X106103447Y-78916033D01*
X106103447Y-78916033D02*
X106136781Y-78949366D01*
X106136781Y-78949366D02*
X106203447Y-78982700D01*
X106203447Y-78982700D02*
X106470114Y-78982700D01*
X105936781Y-79382700D02*
X105403447Y-79382700D01*
X105003448Y-78949366D02*
X104903448Y-78982700D01*
X104903448Y-78982700D02*
X104870114Y-79016033D01*
X104870114Y-79016033D02*
X104836781Y-79082700D01*
X104836781Y-79082700D02*
X104836781Y-79182700D01*
X104836781Y-79182700D02*
X104870114Y-79249366D01*
X104870114Y-79249366D02*
X104903448Y-79282700D01*
X104903448Y-79282700D02*
X104970114Y-79316033D01*
X104970114Y-79316033D02*
X105236781Y-79316033D01*
X105236781Y-79316033D02*
X105236781Y-78616033D01*
X105236781Y-78616033D02*
X105003448Y-78616033D01*
X105003448Y-78616033D02*
X104936781Y-78649366D01*
X104936781Y-78649366D02*
X104903448Y-78682700D01*
X104903448Y-78682700D02*
X104870114Y-78749366D01*
X104870114Y-78749366D02*
X104870114Y-78816033D01*
X104870114Y-78816033D02*
X104903448Y-78882700D01*
X104903448Y-78882700D02*
X104936781Y-78916033D01*
X104936781Y-78916033D02*
X105003448Y-78949366D01*
X105003448Y-78949366D02*
X105236781Y-78949366D01*
X104403448Y-78616033D02*
X104270114Y-78616033D01*
X104270114Y-78616033D02*
X104203448Y-78649366D01*
X104203448Y-78649366D02*
X104136781Y-78716033D01*
X104136781Y-78716033D02*
X104103448Y-78849366D01*
X104103448Y-78849366D02*
X104103448Y-79082700D01*
X104103448Y-79082700D02*
X104136781Y-79216033D01*
X104136781Y-79216033D02*
X104203448Y-79282700D01*
X104203448Y-79282700D02*
X104270114Y-79316033D01*
X104270114Y-79316033D02*
X104403448Y-79316033D01*
X104403448Y-79316033D02*
X104470114Y-79282700D01*
X104470114Y-79282700D02*
X104536781Y-79216033D01*
X104536781Y-79216033D02*
X104570114Y-79082700D01*
X104570114Y-79082700D02*
X104570114Y-78849366D01*
X104570114Y-78849366D02*
X104536781Y-78716033D01*
X104536781Y-78716033D02*
X104470114Y-78649366D01*
X104470114Y-78649366D02*
X104403448Y-78616033D01*
X103670115Y-78616033D02*
X103536781Y-78616033D01*
X103536781Y-78616033D02*
X103470115Y-78649366D01*
X103470115Y-78649366D02*
X103403448Y-78716033D01*
X103403448Y-78716033D02*
X103370115Y-78849366D01*
X103370115Y-78849366D02*
X103370115Y-79082700D01*
X103370115Y-79082700D02*
X103403448Y-79216033D01*
X103403448Y-79216033D02*
X103470115Y-79282700D01*
X103470115Y-79282700D02*
X103536781Y-79316033D01*
X103536781Y-79316033D02*
X103670115Y-79316033D01*
X103670115Y-79316033D02*
X103736781Y-79282700D01*
X103736781Y-79282700D02*
X103803448Y-79216033D01*
X103803448Y-79216033D02*
X103836781Y-79082700D01*
X103836781Y-79082700D02*
X103836781Y-78849366D01*
X103836781Y-78849366D02*
X103803448Y-78716033D01*
X103803448Y-78716033D02*
X103736781Y-78649366D01*
X103736781Y-78649366D02*
X103670115Y-78616033D01*
X103170115Y-78616033D02*
X102770115Y-78616033D01*
X102970115Y-79316033D02*
X102970115Y-78616033D01*
X102170115Y-79316033D02*
X102570115Y-79316033D01*
X102370115Y-79316033D02*
X102370115Y-78616033D01*
X102370115Y-78616033D02*
X102436782Y-78716033D01*
X102436782Y-78716033D02*
X102503449Y-78782700D01*
X102503449Y-78782700D02*
X102570115Y-78816033D01*
X126516666Y-77816033D02*
X126516666Y-77116033D01*
X126516666Y-77116033D02*
X126349999Y-77116033D01*
X126349999Y-77116033D02*
X126249999Y-77149366D01*
X126249999Y-77149366D02*
X126183333Y-77216033D01*
X126183333Y-77216033D02*
X126149999Y-77282700D01*
X126149999Y-77282700D02*
X126116666Y-77416033D01*
X126116666Y-77416033D02*
X126116666Y-77516033D01*
X126116666Y-77516033D02*
X126149999Y-77649366D01*
X126149999Y-77649366D02*
X126183333Y-77716033D01*
X126183333Y-77716033D02*
X126249999Y-77782700D01*
X126249999Y-77782700D02*
X126349999Y-77816033D01*
X126349999Y-77816033D02*
X126516666Y-77816033D01*
X125483333Y-77116033D02*
X125816666Y-77116033D01*
X125816666Y-77116033D02*
X125849999Y-77449366D01*
X125849999Y-77449366D02*
X125816666Y-77416033D01*
X125816666Y-77416033D02*
X125749999Y-77382700D01*
X125749999Y-77382700D02*
X125583333Y-77382700D01*
X125583333Y-77382700D02*
X125516666Y-77416033D01*
X125516666Y-77416033D02*
X125483333Y-77449366D01*
X125483333Y-77449366D02*
X125449999Y-77516033D01*
X125449999Y-77516033D02*
X125449999Y-77682700D01*
X125449999Y-77682700D02*
X125483333Y-77749366D01*
X125483333Y-77749366D02*
X125516666Y-77782700D01*
X125516666Y-77782700D02*
X125583333Y-77816033D01*
X125583333Y-77816033D02*
X125749999Y-77816033D01*
X125749999Y-77816033D02*
X125816666Y-77782700D01*
X125816666Y-77782700D02*
X125849999Y-77749366D01*
X135233333Y-82949366D02*
X135466666Y-82949366D01*
X135466666Y-83316033D02*
X135466666Y-82616033D01*
X135466666Y-82616033D02*
X135133333Y-82616033D01*
X134933333Y-82616033D02*
X134499999Y-82616033D01*
X134499999Y-82616033D02*
X134733333Y-82882700D01*
X134733333Y-82882700D02*
X134633333Y-82882700D01*
X134633333Y-82882700D02*
X134566666Y-82916033D01*
X134566666Y-82916033D02*
X134533333Y-82949366D01*
X134533333Y-82949366D02*
X134499999Y-83016033D01*
X134499999Y-83016033D02*
X134499999Y-83182700D01*
X134499999Y-83182700D02*
X134533333Y-83249366D01*
X134533333Y-83249366D02*
X134566666Y-83282700D01*
X134566666Y-83282700D02*
X134633333Y-83316033D01*
X134633333Y-83316033D02*
X134833333Y-83316033D01*
X134833333Y-83316033D02*
X134899999Y-83282700D01*
X134899999Y-83282700D02*
X134933333Y-83249366D01*
X81333333Y-70816033D02*
X81566666Y-70482700D01*
X81733333Y-70816033D02*
X81733333Y-70116033D01*
X81733333Y-70116033D02*
X81466666Y-70116033D01*
X81466666Y-70116033D02*
X81400000Y-70149366D01*
X81400000Y-70149366D02*
X81366666Y-70182700D01*
X81366666Y-70182700D02*
X81333333Y-70249366D01*
X81333333Y-70249366D02*
X81333333Y-70349366D01*
X81333333Y-70349366D02*
X81366666Y-70416033D01*
X81366666Y-70416033D02*
X81400000Y-70449366D01*
X81400000Y-70449366D02*
X81466666Y-70482700D01*
X81466666Y-70482700D02*
X81733333Y-70482700D01*
X81200000Y-70882700D02*
X80666666Y-70882700D01*
X80166667Y-70816033D02*
X80500000Y-70816033D01*
X80500000Y-70816033D02*
X80500000Y-70116033D01*
X79933333Y-70449366D02*
X79700000Y-70449366D01*
X79600000Y-70816033D02*
X79933333Y-70816033D01*
X79933333Y-70816033D02*
X79933333Y-70116033D01*
X79933333Y-70116033D02*
X79600000Y-70116033D01*
X79300000Y-70816033D02*
X79300000Y-70116033D01*
X79300000Y-70116033D02*
X79133333Y-70116033D01*
X79133333Y-70116033D02*
X79033333Y-70149366D01*
X79033333Y-70149366D02*
X78966667Y-70216033D01*
X78966667Y-70216033D02*
X78933333Y-70282700D01*
X78933333Y-70282700D02*
X78900000Y-70416033D01*
X78900000Y-70416033D02*
X78900000Y-70516033D01*
X78900000Y-70516033D02*
X78933333Y-70649366D01*
X78933333Y-70649366D02*
X78966667Y-70716033D01*
X78966667Y-70716033D02*
X79033333Y-70782700D01*
X79033333Y-70782700D02*
X79133333Y-70816033D01*
X79133333Y-70816033D02*
X79300000Y-70816033D01*
X78233333Y-70816033D02*
X78633333Y-70816033D01*
X78433333Y-70816033D02*
X78433333Y-70116033D01*
X78433333Y-70116033D02*
X78500000Y-70216033D01*
X78500000Y-70216033D02*
X78566667Y-70282700D01*
X78566667Y-70282700D02*
X78633333Y-70316033D01*
X118116666Y-84153066D02*
X118349999Y-83819733D01*
X118516666Y-84153066D02*
X118516666Y-83453066D01*
X118516666Y-83453066D02*
X118249999Y-83453066D01*
X118249999Y-83453066D02*
X118183333Y-83486399D01*
X118183333Y-83486399D02*
X118149999Y-83519733D01*
X118149999Y-83519733D02*
X118116666Y-83586399D01*
X118116666Y-83586399D02*
X118116666Y-83686399D01*
X118116666Y-83686399D02*
X118149999Y-83753066D01*
X118149999Y-83753066D02*
X118183333Y-83786399D01*
X118183333Y-83786399D02*
X118249999Y-83819733D01*
X118249999Y-83819733D02*
X118516666Y-83819733D01*
X117783333Y-84153066D02*
X117649999Y-84153066D01*
X117649999Y-84153066D02*
X117583333Y-84119733D01*
X117583333Y-84119733D02*
X117549999Y-84086399D01*
X117549999Y-84086399D02*
X117483333Y-83986399D01*
X117483333Y-83986399D02*
X117449999Y-83853066D01*
X117449999Y-83853066D02*
X117449999Y-83586399D01*
X117449999Y-83586399D02*
X117483333Y-83519733D01*
X117483333Y-83519733D02*
X117516666Y-83486399D01*
X117516666Y-83486399D02*
X117583333Y-83453066D01*
X117583333Y-83453066D02*
X117716666Y-83453066D01*
X117716666Y-83453066D02*
X117783333Y-83486399D01*
X117783333Y-83486399D02*
X117816666Y-83519733D01*
X117816666Y-83519733D02*
X117849999Y-83586399D01*
X117849999Y-83586399D02*
X117849999Y-83753066D01*
X117849999Y-83753066D02*
X117816666Y-83819733D01*
X117816666Y-83819733D02*
X117783333Y-83853066D01*
X117783333Y-83853066D02*
X117716666Y-83886399D01*
X117716666Y-83886399D02*
X117583333Y-83886399D01*
X117583333Y-83886399D02*
X117516666Y-83853066D01*
X117516666Y-83853066D02*
X117483333Y-83819733D01*
X117483333Y-83819733D02*
X117449999Y-83753066D01*
X107366666Y-59749366D02*
X107399999Y-59782700D01*
X107399999Y-59782700D02*
X107499999Y-59816033D01*
X107499999Y-59816033D02*
X107566666Y-59816033D01*
X107566666Y-59816033D02*
X107666666Y-59782700D01*
X107666666Y-59782700D02*
X107733333Y-59716033D01*
X107733333Y-59716033D02*
X107766666Y-59649366D01*
X107766666Y-59649366D02*
X107799999Y-59516033D01*
X107799999Y-59516033D02*
X107799999Y-59416033D01*
X107799999Y-59416033D02*
X107766666Y-59282700D01*
X107766666Y-59282700D02*
X107733333Y-59216033D01*
X107733333Y-59216033D02*
X107666666Y-59149366D01*
X107666666Y-59149366D02*
X107566666Y-59116033D01*
X107566666Y-59116033D02*
X107499999Y-59116033D01*
X107499999Y-59116033D02*
X107399999Y-59149366D01*
X107399999Y-59149366D02*
X107366666Y-59182700D01*
X107233333Y-59882700D02*
X106699999Y-59882700D01*
X106566666Y-59616033D02*
X106233333Y-59616033D01*
X106633333Y-59816033D02*
X106400000Y-59116033D01*
X106400000Y-59116033D02*
X106166666Y-59816033D01*
X105533333Y-59749366D02*
X105566666Y-59782700D01*
X105566666Y-59782700D02*
X105666666Y-59816033D01*
X105666666Y-59816033D02*
X105733333Y-59816033D01*
X105733333Y-59816033D02*
X105833333Y-59782700D01*
X105833333Y-59782700D02*
X105900000Y-59716033D01*
X105900000Y-59716033D02*
X105933333Y-59649366D01*
X105933333Y-59649366D02*
X105966666Y-59516033D01*
X105966666Y-59516033D02*
X105966666Y-59416033D01*
X105966666Y-59416033D02*
X105933333Y-59282700D01*
X105933333Y-59282700D02*
X105900000Y-59216033D01*
X105900000Y-59216033D02*
X105833333Y-59149366D01*
X105833333Y-59149366D02*
X105733333Y-59116033D01*
X105733333Y-59116033D02*
X105666666Y-59116033D01*
X105666666Y-59116033D02*
X105566666Y-59149366D01*
X105566666Y-59149366D02*
X105533333Y-59182700D01*
X105266666Y-59782700D02*
X105166666Y-59816033D01*
X105166666Y-59816033D02*
X105000000Y-59816033D01*
X105000000Y-59816033D02*
X104933333Y-59782700D01*
X104933333Y-59782700D02*
X104900000Y-59749366D01*
X104900000Y-59749366D02*
X104866666Y-59682700D01*
X104866666Y-59682700D02*
X104866666Y-59616033D01*
X104866666Y-59616033D02*
X104900000Y-59549366D01*
X104900000Y-59549366D02*
X104933333Y-59516033D01*
X104933333Y-59516033D02*
X105000000Y-59482700D01*
X105000000Y-59482700D02*
X105133333Y-59449366D01*
X105133333Y-59449366D02*
X105200000Y-59416033D01*
X105200000Y-59416033D02*
X105233333Y-59382700D01*
X105233333Y-59382700D02*
X105266666Y-59316033D01*
X105266666Y-59316033D02*
X105266666Y-59249366D01*
X105266666Y-59249366D02*
X105233333Y-59182700D01*
X105233333Y-59182700D02*
X105200000Y-59149366D01*
X105200000Y-59149366D02*
X105133333Y-59116033D01*
X105133333Y-59116033D02*
X104966666Y-59116033D01*
X104966666Y-59116033D02*
X104866666Y-59149366D01*
X104199999Y-59816033D02*
X104599999Y-59816033D01*
X104399999Y-59816033D02*
X104399999Y-59116033D01*
X104399999Y-59116033D02*
X104466666Y-59216033D01*
X104466666Y-59216033D02*
X104533333Y-59282700D01*
X104533333Y-59282700D02*
X104599999Y-59316033D01*
X116999999Y-66749366D02*
X117033332Y-66782700D01*
X117033332Y-66782700D02*
X117133332Y-66816033D01*
X117133332Y-66816033D02*
X117199999Y-66816033D01*
X117199999Y-66816033D02*
X117299999Y-66782700D01*
X117299999Y-66782700D02*
X117366666Y-66716033D01*
X117366666Y-66716033D02*
X117399999Y-66649366D01*
X117399999Y-66649366D02*
X117433332Y-66516033D01*
X117433332Y-66516033D02*
X117433332Y-66416033D01*
X117433332Y-66416033D02*
X117399999Y-66282700D01*
X117399999Y-66282700D02*
X117366666Y-66216033D01*
X117366666Y-66216033D02*
X117299999Y-66149366D01*
X117299999Y-66149366D02*
X117199999Y-66116033D01*
X117199999Y-66116033D02*
X117133332Y-66116033D01*
X117133332Y-66116033D02*
X117033332Y-66149366D01*
X117033332Y-66149366D02*
X116999999Y-66182700D01*
X116866666Y-66882700D02*
X116333332Y-66882700D01*
X116266666Y-66116033D02*
X116033333Y-66816033D01*
X116033333Y-66816033D02*
X115799999Y-66116033D01*
X115166666Y-66749366D02*
X115199999Y-66782700D01*
X115199999Y-66782700D02*
X115299999Y-66816033D01*
X115299999Y-66816033D02*
X115366666Y-66816033D01*
X115366666Y-66816033D02*
X115466666Y-66782700D01*
X115466666Y-66782700D02*
X115533333Y-66716033D01*
X115533333Y-66716033D02*
X115566666Y-66649366D01*
X115566666Y-66649366D02*
X115599999Y-66516033D01*
X115599999Y-66516033D02*
X115599999Y-66416033D01*
X115599999Y-66416033D02*
X115566666Y-66282700D01*
X115566666Y-66282700D02*
X115533333Y-66216033D01*
X115533333Y-66216033D02*
X115466666Y-66149366D01*
X115466666Y-66149366D02*
X115366666Y-66116033D01*
X115366666Y-66116033D02*
X115299999Y-66116033D01*
X115299999Y-66116033D02*
X115199999Y-66149366D01*
X115199999Y-66149366D02*
X115166666Y-66182700D01*
X114466666Y-66749366D02*
X114499999Y-66782700D01*
X114499999Y-66782700D02*
X114599999Y-66816033D01*
X114599999Y-66816033D02*
X114666666Y-66816033D01*
X114666666Y-66816033D02*
X114766666Y-66782700D01*
X114766666Y-66782700D02*
X114833333Y-66716033D01*
X114833333Y-66716033D02*
X114866666Y-66649366D01*
X114866666Y-66649366D02*
X114899999Y-66516033D01*
X114899999Y-66516033D02*
X114899999Y-66416033D01*
X114899999Y-66416033D02*
X114866666Y-66282700D01*
X114866666Y-66282700D02*
X114833333Y-66216033D01*
X114833333Y-66216033D02*
X114766666Y-66149366D01*
X114766666Y-66149366D02*
X114666666Y-66116033D01*
X114666666Y-66116033D02*
X114599999Y-66116033D01*
X114599999Y-66116033D02*
X114499999Y-66149366D01*
X114499999Y-66149366D02*
X114466666Y-66182700D01*
X114333333Y-66882700D02*
X113799999Y-66882700D01*
X113400000Y-66449366D02*
X113300000Y-66482700D01*
X113300000Y-66482700D02*
X113266666Y-66516033D01*
X113266666Y-66516033D02*
X113233333Y-66582700D01*
X113233333Y-66582700D02*
X113233333Y-66682700D01*
X113233333Y-66682700D02*
X113266666Y-66749366D01*
X113266666Y-66749366D02*
X113300000Y-66782700D01*
X113300000Y-66782700D02*
X113366666Y-66816033D01*
X113366666Y-66816033D02*
X113633333Y-66816033D01*
X113633333Y-66816033D02*
X113633333Y-66116033D01*
X113633333Y-66116033D02*
X113400000Y-66116033D01*
X113400000Y-66116033D02*
X113333333Y-66149366D01*
X113333333Y-66149366D02*
X113300000Y-66182700D01*
X113300000Y-66182700D02*
X113266666Y-66249366D01*
X113266666Y-66249366D02*
X113266666Y-66316033D01*
X113266666Y-66316033D02*
X113300000Y-66382700D01*
X113300000Y-66382700D02*
X113333333Y-66416033D01*
X113333333Y-66416033D02*
X113400000Y-66449366D01*
X113400000Y-66449366D02*
X113633333Y-66449366D01*
X112566666Y-66816033D02*
X112966666Y-66816033D01*
X112766666Y-66816033D02*
X112766666Y-66116033D01*
X112766666Y-66116033D02*
X112833333Y-66216033D01*
X112833333Y-66216033D02*
X112900000Y-66282700D01*
X112900000Y-66282700D02*
X112966666Y-66316033D01*
X106966666Y-64650086D02*
X106999999Y-64683420D01*
X106999999Y-64683420D02*
X107099999Y-64716753D01*
X107099999Y-64716753D02*
X107166666Y-64716753D01*
X107166666Y-64716753D02*
X107266666Y-64683420D01*
X107266666Y-64683420D02*
X107333333Y-64616753D01*
X107333333Y-64616753D02*
X107366666Y-64550086D01*
X107366666Y-64550086D02*
X107399999Y-64416753D01*
X107399999Y-64416753D02*
X107399999Y-64316753D01*
X107399999Y-64316753D02*
X107366666Y-64183420D01*
X107366666Y-64183420D02*
X107333333Y-64116753D01*
X107333333Y-64116753D02*
X107266666Y-64050086D01*
X107266666Y-64050086D02*
X107166666Y-64016753D01*
X107166666Y-64016753D02*
X107099999Y-64016753D01*
X107099999Y-64016753D02*
X106999999Y-64050086D01*
X106999999Y-64050086D02*
X106966666Y-64083420D01*
X106833333Y-64783420D02*
X106299999Y-64783420D01*
X106166666Y-64516753D02*
X105833333Y-64516753D01*
X106233333Y-64716753D02*
X106000000Y-64016753D01*
X106000000Y-64016753D02*
X105766666Y-64716753D01*
X105133333Y-64650086D02*
X105166666Y-64683420D01*
X105166666Y-64683420D02*
X105266666Y-64716753D01*
X105266666Y-64716753D02*
X105333333Y-64716753D01*
X105333333Y-64716753D02*
X105433333Y-64683420D01*
X105433333Y-64683420D02*
X105500000Y-64616753D01*
X105500000Y-64616753D02*
X105533333Y-64550086D01*
X105533333Y-64550086D02*
X105566666Y-64416753D01*
X105566666Y-64416753D02*
X105566666Y-64316753D01*
X105566666Y-64316753D02*
X105533333Y-64183420D01*
X105533333Y-64183420D02*
X105500000Y-64116753D01*
X105500000Y-64116753D02*
X105433333Y-64050086D01*
X105433333Y-64050086D02*
X105333333Y-64016753D01*
X105333333Y-64016753D02*
X105266666Y-64016753D01*
X105266666Y-64016753D02*
X105166666Y-64050086D01*
X105166666Y-64050086D02*
X105133333Y-64083420D01*
X104866666Y-64683420D02*
X104766666Y-64716753D01*
X104766666Y-64716753D02*
X104600000Y-64716753D01*
X104600000Y-64716753D02*
X104533333Y-64683420D01*
X104533333Y-64683420D02*
X104500000Y-64650086D01*
X104500000Y-64650086D02*
X104466666Y-64583420D01*
X104466666Y-64583420D02*
X104466666Y-64516753D01*
X104466666Y-64516753D02*
X104500000Y-64450086D01*
X104500000Y-64450086D02*
X104533333Y-64416753D01*
X104533333Y-64416753D02*
X104600000Y-64383420D01*
X104600000Y-64383420D02*
X104733333Y-64350086D01*
X104733333Y-64350086D02*
X104800000Y-64316753D01*
X104800000Y-64316753D02*
X104833333Y-64283420D01*
X104833333Y-64283420D02*
X104866666Y-64216753D01*
X104866666Y-64216753D02*
X104866666Y-64150086D01*
X104866666Y-64150086D02*
X104833333Y-64083420D01*
X104833333Y-64083420D02*
X104800000Y-64050086D01*
X104800000Y-64050086D02*
X104733333Y-64016753D01*
X104733333Y-64016753D02*
X104566666Y-64016753D01*
X104566666Y-64016753D02*
X104466666Y-64050086D01*
X104199999Y-64083420D02*
X104166666Y-64050086D01*
X104166666Y-64050086D02*
X104099999Y-64016753D01*
X104099999Y-64016753D02*
X103933333Y-64016753D01*
X103933333Y-64016753D02*
X103866666Y-64050086D01*
X103866666Y-64050086D02*
X103833333Y-64083420D01*
X103833333Y-64083420D02*
X103799999Y-64150086D01*
X103799999Y-64150086D02*
X103799999Y-64216753D01*
X103799999Y-64216753D02*
X103833333Y-64316753D01*
X103833333Y-64316753D02*
X104233333Y-64716753D01*
X104233333Y-64716753D02*
X103799999Y-64716753D01*
X118116666Y-88316033D02*
X118349999Y-87982700D01*
X118516666Y-88316033D02*
X118516666Y-87616033D01*
X118516666Y-87616033D02*
X118249999Y-87616033D01*
X118249999Y-87616033D02*
X118183333Y-87649366D01*
X118183333Y-87649366D02*
X118149999Y-87682700D01*
X118149999Y-87682700D02*
X118116666Y-87749366D01*
X118116666Y-87749366D02*
X118116666Y-87849366D01*
X118116666Y-87849366D02*
X118149999Y-87916033D01*
X118149999Y-87916033D02*
X118183333Y-87949366D01*
X118183333Y-87949366D02*
X118249999Y-87982700D01*
X118249999Y-87982700D02*
X118516666Y-87982700D01*
X117716666Y-87916033D02*
X117783333Y-87882700D01*
X117783333Y-87882700D02*
X117816666Y-87849366D01*
X117816666Y-87849366D02*
X117849999Y-87782700D01*
X117849999Y-87782700D02*
X117849999Y-87749366D01*
X117849999Y-87749366D02*
X117816666Y-87682700D01*
X117816666Y-87682700D02*
X117783333Y-87649366D01*
X117783333Y-87649366D02*
X117716666Y-87616033D01*
X117716666Y-87616033D02*
X117583333Y-87616033D01*
X117583333Y-87616033D02*
X117516666Y-87649366D01*
X117516666Y-87649366D02*
X117483333Y-87682700D01*
X117483333Y-87682700D02*
X117449999Y-87749366D01*
X117449999Y-87749366D02*
X117449999Y-87782700D01*
X117449999Y-87782700D02*
X117483333Y-87849366D01*
X117483333Y-87849366D02*
X117516666Y-87882700D01*
X117516666Y-87882700D02*
X117583333Y-87916033D01*
X117583333Y-87916033D02*
X117716666Y-87916033D01*
X117716666Y-87916033D02*
X117783333Y-87949366D01*
X117783333Y-87949366D02*
X117816666Y-87982700D01*
X117816666Y-87982700D02*
X117849999Y-88049366D01*
X117849999Y-88049366D02*
X117849999Y-88182700D01*
X117849999Y-88182700D02*
X117816666Y-88249366D01*
X117816666Y-88249366D02*
X117783333Y-88282700D01*
X117783333Y-88282700D02*
X117716666Y-88316033D01*
X117716666Y-88316033D02*
X117583333Y-88316033D01*
X117583333Y-88316033D02*
X117516666Y-88282700D01*
X117516666Y-88282700D02*
X117483333Y-88249366D01*
X117483333Y-88249366D02*
X117449999Y-88182700D01*
X117449999Y-88182700D02*
X117449999Y-88049366D01*
X117449999Y-88049366D02*
X117483333Y-87982700D01*
X117483333Y-87982700D02*
X117516666Y-87949366D01*
X117516666Y-87949366D02*
X117583333Y-87916033D01*
X122450000Y-65316033D02*
X122683333Y-64982700D01*
X122850000Y-65316033D02*
X122850000Y-64616033D01*
X122850000Y-64616033D02*
X122583333Y-64616033D01*
X122583333Y-64616033D02*
X122516667Y-64649366D01*
X122516667Y-64649366D02*
X122483333Y-64682700D01*
X122483333Y-64682700D02*
X122450000Y-64749366D01*
X122450000Y-64749366D02*
X122450000Y-64849366D01*
X122450000Y-64849366D02*
X122483333Y-64916033D01*
X122483333Y-64916033D02*
X122516667Y-64949366D01*
X122516667Y-64949366D02*
X122583333Y-64982700D01*
X122583333Y-64982700D02*
X122850000Y-64982700D01*
X121783333Y-65316033D02*
X122183333Y-65316033D01*
X121983333Y-65316033D02*
X121983333Y-64616033D01*
X121983333Y-64616033D02*
X122050000Y-64716033D01*
X122050000Y-64716033D02*
X122116667Y-64782700D01*
X122116667Y-64782700D02*
X122183333Y-64816033D01*
X121350000Y-64616033D02*
X121283333Y-64616033D01*
X121283333Y-64616033D02*
X121216666Y-64649366D01*
X121216666Y-64649366D02*
X121183333Y-64682700D01*
X121183333Y-64682700D02*
X121150000Y-64749366D01*
X121150000Y-64749366D02*
X121116666Y-64882700D01*
X121116666Y-64882700D02*
X121116666Y-65049366D01*
X121116666Y-65049366D02*
X121150000Y-65182700D01*
X121150000Y-65182700D02*
X121183333Y-65249366D01*
X121183333Y-65249366D02*
X121216666Y-65282700D01*
X121216666Y-65282700D02*
X121283333Y-65316033D01*
X121283333Y-65316033D02*
X121350000Y-65316033D01*
X121350000Y-65316033D02*
X121416666Y-65282700D01*
X121416666Y-65282700D02*
X121450000Y-65249366D01*
X121450000Y-65249366D02*
X121483333Y-65182700D01*
X121483333Y-65182700D02*
X121516666Y-65049366D01*
X121516666Y-65049366D02*
X121516666Y-64882700D01*
X121516666Y-64882700D02*
X121483333Y-64749366D01*
X121483333Y-64749366D02*
X121450000Y-64682700D01*
X121450000Y-64682700D02*
X121416666Y-64649366D01*
X121416666Y-64649366D02*
X121350000Y-64616033D01*
X118116666Y-85249366D02*
X118149999Y-85282700D01*
X118149999Y-85282700D02*
X118249999Y-85316033D01*
X118249999Y-85316033D02*
X118316666Y-85316033D01*
X118316666Y-85316033D02*
X118416666Y-85282700D01*
X118416666Y-85282700D02*
X118483333Y-85216033D01*
X118483333Y-85216033D02*
X118516666Y-85149366D01*
X118516666Y-85149366D02*
X118549999Y-85016033D01*
X118549999Y-85016033D02*
X118549999Y-84916033D01*
X118549999Y-84916033D02*
X118516666Y-84782700D01*
X118516666Y-84782700D02*
X118483333Y-84716033D01*
X118483333Y-84716033D02*
X118416666Y-84649366D01*
X118416666Y-84649366D02*
X118316666Y-84616033D01*
X118316666Y-84616033D02*
X118249999Y-84616033D01*
X118249999Y-84616033D02*
X118149999Y-84649366D01*
X118149999Y-84649366D02*
X118116666Y-84682700D01*
X117983333Y-85382700D02*
X117449999Y-85382700D01*
X117383333Y-84616033D02*
X117150000Y-85316033D01*
X117150000Y-85316033D02*
X116916666Y-84616033D01*
X116283333Y-85249366D02*
X116316666Y-85282700D01*
X116316666Y-85282700D02*
X116416666Y-85316033D01*
X116416666Y-85316033D02*
X116483333Y-85316033D01*
X116483333Y-85316033D02*
X116583333Y-85282700D01*
X116583333Y-85282700D02*
X116650000Y-85216033D01*
X116650000Y-85216033D02*
X116683333Y-85149366D01*
X116683333Y-85149366D02*
X116716666Y-85016033D01*
X116716666Y-85016033D02*
X116716666Y-84916033D01*
X116716666Y-84916033D02*
X116683333Y-84782700D01*
X116683333Y-84782700D02*
X116650000Y-84716033D01*
X116650000Y-84716033D02*
X116583333Y-84649366D01*
X116583333Y-84649366D02*
X116483333Y-84616033D01*
X116483333Y-84616033D02*
X116416666Y-84616033D01*
X116416666Y-84616033D02*
X116316666Y-84649366D01*
X116316666Y-84649366D02*
X116283333Y-84682700D01*
X115583333Y-85249366D02*
X115616666Y-85282700D01*
X115616666Y-85282700D02*
X115716666Y-85316033D01*
X115716666Y-85316033D02*
X115783333Y-85316033D01*
X115783333Y-85316033D02*
X115883333Y-85282700D01*
X115883333Y-85282700D02*
X115950000Y-85216033D01*
X115950000Y-85216033D02*
X115983333Y-85149366D01*
X115983333Y-85149366D02*
X116016666Y-85016033D01*
X116016666Y-85016033D02*
X116016666Y-84916033D01*
X116016666Y-84916033D02*
X115983333Y-84782700D01*
X115983333Y-84782700D02*
X115950000Y-84716033D01*
X115950000Y-84716033D02*
X115883333Y-84649366D01*
X115883333Y-84649366D02*
X115783333Y-84616033D01*
X115783333Y-84616033D02*
X115716666Y-84616033D01*
X115716666Y-84616033D02*
X115616666Y-84649366D01*
X115616666Y-84649366D02*
X115583333Y-84682700D01*
X115450000Y-85382700D02*
X114916666Y-85382700D01*
X114516667Y-84949366D02*
X114416667Y-84982700D01*
X114416667Y-84982700D02*
X114383333Y-85016033D01*
X114383333Y-85016033D02*
X114350000Y-85082700D01*
X114350000Y-85082700D02*
X114350000Y-85182700D01*
X114350000Y-85182700D02*
X114383333Y-85249366D01*
X114383333Y-85249366D02*
X114416667Y-85282700D01*
X114416667Y-85282700D02*
X114483333Y-85316033D01*
X114483333Y-85316033D02*
X114750000Y-85316033D01*
X114750000Y-85316033D02*
X114750000Y-84616033D01*
X114750000Y-84616033D02*
X114516667Y-84616033D01*
X114516667Y-84616033D02*
X114450000Y-84649366D01*
X114450000Y-84649366D02*
X114416667Y-84682700D01*
X114416667Y-84682700D02*
X114383333Y-84749366D01*
X114383333Y-84749366D02*
X114383333Y-84816033D01*
X114383333Y-84816033D02*
X114416667Y-84882700D01*
X114416667Y-84882700D02*
X114450000Y-84916033D01*
X114450000Y-84916033D02*
X114516667Y-84949366D01*
X114516667Y-84949366D02*
X114750000Y-84949366D01*
X114083333Y-84682700D02*
X114050000Y-84649366D01*
X114050000Y-84649366D02*
X113983333Y-84616033D01*
X113983333Y-84616033D02*
X113816667Y-84616033D01*
X113816667Y-84616033D02*
X113750000Y-84649366D01*
X113750000Y-84649366D02*
X113716667Y-84682700D01*
X113716667Y-84682700D02*
X113683333Y-84749366D01*
X113683333Y-84749366D02*
X113683333Y-84816033D01*
X113683333Y-84816033D02*
X113716667Y-84916033D01*
X113716667Y-84916033D02*
X114116667Y-85316033D01*
X114116667Y-85316033D02*
X113683333Y-85316033D01*
X96044076Y-100732684D02*
X96077409Y-100766018D01*
X96077409Y-100766018D02*
X96177409Y-100799351D01*
X96177409Y-100799351D02*
X96244076Y-100799351D01*
X96244076Y-100799351D02*
X96344076Y-100766018D01*
X96344076Y-100766018D02*
X96410743Y-100699351D01*
X96410743Y-100699351D02*
X96444076Y-100632684D01*
X96444076Y-100632684D02*
X96477409Y-100499351D01*
X96477409Y-100499351D02*
X96477409Y-100399351D01*
X96477409Y-100399351D02*
X96444076Y-100266018D01*
X96444076Y-100266018D02*
X96410743Y-100199351D01*
X96410743Y-100199351D02*
X96344076Y-100132684D01*
X96344076Y-100132684D02*
X96244076Y-100099351D01*
X96244076Y-100099351D02*
X96177409Y-100099351D01*
X96177409Y-100099351D02*
X96077409Y-100132684D01*
X96077409Y-100132684D02*
X96044076Y-100166018D01*
X95810743Y-100099351D02*
X95377409Y-100099351D01*
X95377409Y-100099351D02*
X95610743Y-100366018D01*
X95610743Y-100366018D02*
X95510743Y-100366018D01*
X95510743Y-100366018D02*
X95444076Y-100399351D01*
X95444076Y-100399351D02*
X95410743Y-100432684D01*
X95410743Y-100432684D02*
X95377409Y-100499351D01*
X95377409Y-100499351D02*
X95377409Y-100666018D01*
X95377409Y-100666018D02*
X95410743Y-100732684D01*
X95410743Y-100732684D02*
X95444076Y-100766018D01*
X95444076Y-100766018D02*
X95510743Y-100799351D01*
X95510743Y-100799351D02*
X95710743Y-100799351D01*
X95710743Y-100799351D02*
X95777409Y-100766018D01*
X95777409Y-100766018D02*
X95810743Y-100732684D01*
X115949999Y-63749366D02*
X115983332Y-63782700D01*
X115983332Y-63782700D02*
X116083332Y-63816033D01*
X116083332Y-63816033D02*
X116149999Y-63816033D01*
X116149999Y-63816033D02*
X116249999Y-63782700D01*
X116249999Y-63782700D02*
X116316666Y-63716033D01*
X116316666Y-63716033D02*
X116349999Y-63649366D01*
X116349999Y-63649366D02*
X116383332Y-63516033D01*
X116383332Y-63516033D02*
X116383332Y-63416033D01*
X116383332Y-63416033D02*
X116349999Y-63282700D01*
X116349999Y-63282700D02*
X116316666Y-63216033D01*
X116316666Y-63216033D02*
X116249999Y-63149366D01*
X116249999Y-63149366D02*
X116149999Y-63116033D01*
X116149999Y-63116033D02*
X116083332Y-63116033D01*
X116083332Y-63116033D02*
X115983332Y-63149366D01*
X115983332Y-63149366D02*
X115949999Y-63182700D01*
X115816666Y-63882700D02*
X115283332Y-63882700D01*
X115216666Y-63116033D02*
X114983333Y-63816033D01*
X114983333Y-63816033D02*
X114749999Y-63116033D01*
X114116666Y-63749366D02*
X114149999Y-63782700D01*
X114149999Y-63782700D02*
X114249999Y-63816033D01*
X114249999Y-63816033D02*
X114316666Y-63816033D01*
X114316666Y-63816033D02*
X114416666Y-63782700D01*
X114416666Y-63782700D02*
X114483333Y-63716033D01*
X114483333Y-63716033D02*
X114516666Y-63649366D01*
X114516666Y-63649366D02*
X114549999Y-63516033D01*
X114549999Y-63516033D02*
X114549999Y-63416033D01*
X114549999Y-63416033D02*
X114516666Y-63282700D01*
X114516666Y-63282700D02*
X114483333Y-63216033D01*
X114483333Y-63216033D02*
X114416666Y-63149366D01*
X114416666Y-63149366D02*
X114316666Y-63116033D01*
X114316666Y-63116033D02*
X114249999Y-63116033D01*
X114249999Y-63116033D02*
X114149999Y-63149366D01*
X114149999Y-63149366D02*
X114116666Y-63182700D01*
X113416666Y-63749366D02*
X113449999Y-63782700D01*
X113449999Y-63782700D02*
X113549999Y-63816033D01*
X113549999Y-63816033D02*
X113616666Y-63816033D01*
X113616666Y-63816033D02*
X113716666Y-63782700D01*
X113716666Y-63782700D02*
X113783333Y-63716033D01*
X113783333Y-63716033D02*
X113816666Y-63649366D01*
X113816666Y-63649366D02*
X113849999Y-63516033D01*
X113849999Y-63516033D02*
X113849999Y-63416033D01*
X113849999Y-63416033D02*
X113816666Y-63282700D01*
X113816666Y-63282700D02*
X113783333Y-63216033D01*
X113783333Y-63216033D02*
X113716666Y-63149366D01*
X113716666Y-63149366D02*
X113616666Y-63116033D01*
X113616666Y-63116033D02*
X113549999Y-63116033D01*
X113549999Y-63116033D02*
X113449999Y-63149366D01*
X113449999Y-63149366D02*
X113416666Y-63182700D01*
X113283333Y-63882700D02*
X112749999Y-63882700D01*
X112616666Y-63616033D02*
X112283333Y-63616033D01*
X112683333Y-63816033D02*
X112450000Y-63116033D01*
X112450000Y-63116033D02*
X112216666Y-63816033D01*
X112016666Y-63182700D02*
X111983333Y-63149366D01*
X111983333Y-63149366D02*
X111916666Y-63116033D01*
X111916666Y-63116033D02*
X111750000Y-63116033D01*
X111750000Y-63116033D02*
X111683333Y-63149366D01*
X111683333Y-63149366D02*
X111650000Y-63182700D01*
X111650000Y-63182700D02*
X111616666Y-63249366D01*
X111616666Y-63249366D02*
X111616666Y-63316033D01*
X111616666Y-63316033D02*
X111650000Y-63416033D01*
X111650000Y-63416033D02*
X112050000Y-63816033D01*
X112050000Y-63816033D02*
X111616666Y-63816033D01*
X135233333Y-68949366D02*
X135466666Y-68949366D01*
X135466666Y-69316033D02*
X135466666Y-68616033D01*
X135466666Y-68616033D02*
X135133333Y-68616033D01*
X134499999Y-69316033D02*
X134899999Y-69316033D01*
X134699999Y-69316033D02*
X134699999Y-68616033D01*
X134699999Y-68616033D02*
X134766666Y-68716033D01*
X134766666Y-68716033D02*
X134833333Y-68782700D01*
X134833333Y-68782700D02*
X134899999Y-68816033D01*
X111249366Y-86683333D02*
X111282700Y-86650000D01*
X111282700Y-86650000D02*
X111316033Y-86550000D01*
X111316033Y-86550000D02*
X111316033Y-86483333D01*
X111316033Y-86483333D02*
X111282700Y-86383333D01*
X111282700Y-86383333D02*
X111216033Y-86316667D01*
X111216033Y-86316667D02*
X111149366Y-86283333D01*
X111149366Y-86283333D02*
X111016033Y-86250000D01*
X111016033Y-86250000D02*
X110916033Y-86250000D01*
X110916033Y-86250000D02*
X110782700Y-86283333D01*
X110782700Y-86283333D02*
X110716033Y-86316667D01*
X110716033Y-86316667D02*
X110649366Y-86383333D01*
X110649366Y-86383333D02*
X110616033Y-86483333D01*
X110616033Y-86483333D02*
X110616033Y-86550000D01*
X110616033Y-86550000D02*
X110649366Y-86650000D01*
X110649366Y-86650000D02*
X110682700Y-86683333D01*
X111382700Y-86816667D02*
X111382700Y-87350000D01*
X111316033Y-87516666D02*
X110616033Y-87516666D01*
X111282700Y-87816666D02*
X111316033Y-87916666D01*
X111316033Y-87916666D02*
X111316033Y-88083333D01*
X111316033Y-88083333D02*
X111282700Y-88149999D01*
X111282700Y-88149999D02*
X111249366Y-88183333D01*
X111249366Y-88183333D02*
X111182700Y-88216666D01*
X111182700Y-88216666D02*
X111116033Y-88216666D01*
X111116033Y-88216666D02*
X111049366Y-88183333D01*
X111049366Y-88183333D02*
X111016033Y-88149999D01*
X111016033Y-88149999D02*
X110982700Y-88083333D01*
X110982700Y-88083333D02*
X110949366Y-87949999D01*
X110949366Y-87949999D02*
X110916033Y-87883333D01*
X110916033Y-87883333D02*
X110882700Y-87849999D01*
X110882700Y-87849999D02*
X110816033Y-87816666D01*
X110816033Y-87816666D02*
X110749366Y-87816666D01*
X110749366Y-87816666D02*
X110682700Y-87849999D01*
X110682700Y-87849999D02*
X110649366Y-87883333D01*
X110649366Y-87883333D02*
X110616033Y-87949999D01*
X110616033Y-87949999D02*
X110616033Y-88116666D01*
X110616033Y-88116666D02*
X110649366Y-88216666D01*
X110616033Y-88650000D02*
X110616033Y-88783333D01*
X110616033Y-88783333D02*
X110649366Y-88850000D01*
X110649366Y-88850000D02*
X110716033Y-88916666D01*
X110716033Y-88916666D02*
X110849366Y-88950000D01*
X110849366Y-88950000D02*
X111082700Y-88950000D01*
X111082700Y-88950000D02*
X111216033Y-88916666D01*
X111216033Y-88916666D02*
X111282700Y-88850000D01*
X111282700Y-88850000D02*
X111316033Y-88783333D01*
X111316033Y-88783333D02*
X111316033Y-88650000D01*
X111316033Y-88650000D02*
X111282700Y-88583333D01*
X111282700Y-88583333D02*
X111216033Y-88516666D01*
X111216033Y-88516666D02*
X111082700Y-88483333D01*
X111082700Y-88483333D02*
X110849366Y-88483333D01*
X110849366Y-88483333D02*
X110716033Y-88516666D01*
X110716033Y-88516666D02*
X110649366Y-88583333D01*
X110649366Y-88583333D02*
X110616033Y-88650000D01*
X111382700Y-89083333D02*
X111382700Y-89616666D01*
X110949366Y-90016666D02*
X110949366Y-89783332D01*
X111316033Y-89783332D02*
X110616033Y-89783332D01*
X110616033Y-89783332D02*
X110616033Y-90116666D01*
X111316033Y-90749999D02*
X111316033Y-90349999D01*
X111316033Y-90549999D02*
X110616033Y-90549999D01*
X110616033Y-90549999D02*
X110716033Y-90483332D01*
X110716033Y-90483332D02*
X110782700Y-90416666D01*
X110782700Y-90416666D02*
X110816033Y-90349999D01*
X115949999Y-61749366D02*
X115983332Y-61782700D01*
X115983332Y-61782700D02*
X116083332Y-61816033D01*
X116083332Y-61816033D02*
X116149999Y-61816033D01*
X116149999Y-61816033D02*
X116249999Y-61782700D01*
X116249999Y-61782700D02*
X116316666Y-61716033D01*
X116316666Y-61716033D02*
X116349999Y-61649366D01*
X116349999Y-61649366D02*
X116383332Y-61516033D01*
X116383332Y-61516033D02*
X116383332Y-61416033D01*
X116383332Y-61416033D02*
X116349999Y-61282700D01*
X116349999Y-61282700D02*
X116316666Y-61216033D01*
X116316666Y-61216033D02*
X116249999Y-61149366D01*
X116249999Y-61149366D02*
X116149999Y-61116033D01*
X116149999Y-61116033D02*
X116083332Y-61116033D01*
X116083332Y-61116033D02*
X115983332Y-61149366D01*
X115983332Y-61149366D02*
X115949999Y-61182700D01*
X115816666Y-61882700D02*
X115283332Y-61882700D01*
X115216666Y-61116033D02*
X114983333Y-61816033D01*
X114983333Y-61816033D02*
X114749999Y-61116033D01*
X114116666Y-61749366D02*
X114149999Y-61782700D01*
X114149999Y-61782700D02*
X114249999Y-61816033D01*
X114249999Y-61816033D02*
X114316666Y-61816033D01*
X114316666Y-61816033D02*
X114416666Y-61782700D01*
X114416666Y-61782700D02*
X114483333Y-61716033D01*
X114483333Y-61716033D02*
X114516666Y-61649366D01*
X114516666Y-61649366D02*
X114549999Y-61516033D01*
X114549999Y-61516033D02*
X114549999Y-61416033D01*
X114549999Y-61416033D02*
X114516666Y-61282700D01*
X114516666Y-61282700D02*
X114483333Y-61216033D01*
X114483333Y-61216033D02*
X114416666Y-61149366D01*
X114416666Y-61149366D02*
X114316666Y-61116033D01*
X114316666Y-61116033D02*
X114249999Y-61116033D01*
X114249999Y-61116033D02*
X114149999Y-61149366D01*
X114149999Y-61149366D02*
X114116666Y-61182700D01*
X113416666Y-61749366D02*
X113449999Y-61782700D01*
X113449999Y-61782700D02*
X113549999Y-61816033D01*
X113549999Y-61816033D02*
X113616666Y-61816033D01*
X113616666Y-61816033D02*
X113716666Y-61782700D01*
X113716666Y-61782700D02*
X113783333Y-61716033D01*
X113783333Y-61716033D02*
X113816666Y-61649366D01*
X113816666Y-61649366D02*
X113849999Y-61516033D01*
X113849999Y-61516033D02*
X113849999Y-61416033D01*
X113849999Y-61416033D02*
X113816666Y-61282700D01*
X113816666Y-61282700D02*
X113783333Y-61216033D01*
X113783333Y-61216033D02*
X113716666Y-61149366D01*
X113716666Y-61149366D02*
X113616666Y-61116033D01*
X113616666Y-61116033D02*
X113549999Y-61116033D01*
X113549999Y-61116033D02*
X113449999Y-61149366D01*
X113449999Y-61149366D02*
X113416666Y-61182700D01*
X113283333Y-61882700D02*
X112749999Y-61882700D01*
X112616666Y-61616033D02*
X112283333Y-61616033D01*
X112683333Y-61816033D02*
X112450000Y-61116033D01*
X112450000Y-61116033D02*
X112216666Y-61816033D01*
X111616666Y-61816033D02*
X112016666Y-61816033D01*
X111816666Y-61816033D02*
X111816666Y-61116033D01*
X111816666Y-61116033D02*
X111883333Y-61216033D01*
X111883333Y-61216033D02*
X111950000Y-61282700D01*
X111950000Y-61282700D02*
X112016666Y-61316033D01*
D11*
%TO.C,C_VM_A2*%
X120143387Y-89015144D02*
X120665891Y-89015144D01*
X120143387Y-90485144D02*
X120665891Y-90485144D01*
%TO.C,C_VM_B1*%
X119640580Y-68972060D02*
X119359420Y-68972060D01*
X119640580Y-69992060D02*
X119359420Y-69992060D01*
%TO.C,C_ISO_D1*%
X110490000Y-75838170D02*
X110490000Y-76119330D01*
X111510000Y-75838170D02*
X111510000Y-76119330D01*
%TO.C,C7*%
X88640580Y-59490000D02*
X88359420Y-59490000D01*
X88640580Y-60510000D02*
X88359420Y-60510000D01*
%TO.C,F2*%
X133290000Y-73886252D02*
X133290000Y-71113748D01*
X136710000Y-73886252D02*
X136710000Y-71113748D01*
%TO.C,C_TMP1*%
X105359420Y-53490000D02*
X105640580Y-53490000D01*
X105359420Y-54510000D02*
X105640580Y-54510000D01*
%TO.C,C_ISO_E1*%
X108990000Y-84230580D02*
X108990000Y-83949420D01*
X110010000Y-84230580D02*
X110010000Y-83949420D01*
%TO.C,F4*%
X133290000Y-87886252D02*
X133290000Y-85113748D01*
X136710000Y-87886252D02*
X136710000Y-85113748D01*
%TO.C,C9*%
X111186597Y-52265000D02*
X110664093Y-52265000D01*
X111186597Y-53735000D02*
X110664093Y-53735000D01*
%TO.C,C4*%
X90761252Y-76765000D02*
X90238748Y-76765000D01*
X90761252Y-78235000D02*
X90238748Y-78235000D01*
%TO.C,C1*%
X117971946Y-102265000D02*
X118494450Y-102265000D01*
X117971946Y-103735000D02*
X118494450Y-103735000D01*
%TO.C,C_FILT1*%
X109859420Y-58990000D02*
X110140580Y-58990000D01*
X109859420Y-60010000D02*
X110140580Y-60010000D01*
%TO.C,C6*%
X90640580Y-82990000D02*
X90359420Y-82990000D01*
X90640580Y-84010000D02*
X90359420Y-84010000D01*
%TO.C,R6*%
X119737258Y-67413148D02*
X119262742Y-67413148D01*
X119737258Y-68458148D02*
X119262742Y-68458148D01*
%TO.C,R5*%
X90737258Y-78977500D02*
X90262742Y-78977500D01*
X90737258Y-80022500D02*
X90262742Y-80022500D01*
%TO.C,C_VM_A1*%
X119761252Y-60765000D02*
X119238748Y-60765000D01*
X119761252Y-62235000D02*
X119238748Y-62235000D01*
%TO.C,C_ISO_B1*%
X110490000Y-67859420D02*
X110490000Y-68140580D01*
X111510000Y-67859420D02*
X111510000Y-68140580D01*
D10*
%TO.C,D6*%
X123850000Y-86660000D02*
X123850000Y-80850000D01*
X128150000Y-86660000D02*
X123850000Y-86660000D01*
X128150000Y-86660000D02*
X128150000Y-80850000D01*
%TO.C,D4*%
X123850000Y-60840000D02*
X123850000Y-66650000D01*
X123850000Y-60840000D02*
X128150000Y-60840000D01*
X128150000Y-60840000D02*
X128150000Y-66650000D01*
D11*
%TO.C,C_VM_B2*%
X120264059Y-85959541D02*
X120545219Y-85959541D01*
X120264059Y-86979541D02*
X120545219Y-86979541D01*
%TO.C,C_ISO_C1*%
X108990000Y-76119330D02*
X108990000Y-75838170D01*
X110010000Y-76119330D02*
X110010000Y-75838170D01*
%TO.C,R7*%
X119262742Y-62773912D02*
X119737258Y-62773912D01*
X119262742Y-63818912D02*
X119737258Y-63818912D01*
%TO.C,C8*%
X88761252Y-57265000D02*
X88238748Y-57265000D01*
X88761252Y-58735000D02*
X88238748Y-58735000D01*
%TO.C,C10*%
X110664093Y-54265000D02*
X111186597Y-54265000D01*
X110664093Y-55735000D02*
X111186597Y-55735000D01*
D10*
%TO.C,D7*%
X123850000Y-96160000D02*
X123850000Y-90350000D01*
X128150000Y-96160000D02*
X123850000Y-96160000D01*
X128150000Y-96160000D02*
X128150000Y-90350000D01*
D11*
%TO.C,C_ISO_A1*%
X108990000Y-68140580D02*
X108990000Y-67859420D01*
X110010000Y-68140580D02*
X110010000Y-67859420D01*
%TO.C,C5*%
X90761252Y-80765000D02*
X90238748Y-80765000D01*
X90761252Y-82235000D02*
X90238748Y-82235000D01*
%TO.C,R_BOOT1*%
X104099524Y-76887007D02*
X104574040Y-76887007D01*
X104099524Y-77932007D02*
X104574040Y-77932007D01*
D10*
%TO.C,D5*%
X123850000Y-76660000D02*
X123850000Y-70850000D01*
X128150000Y-76660000D02*
X123850000Y-76660000D01*
X128150000Y-76660000D02*
X128150000Y-70850000D01*
D11*
%TO.C,F3*%
X133290000Y-78113748D02*
X133290000Y-80886252D01*
X136710000Y-78113748D02*
X136710000Y-80886252D01*
%TO.C,R_LED1*%
X79049042Y-67975224D02*
X79049042Y-67500708D01*
X80094042Y-67975224D02*
X80094042Y-67500708D01*
%TO.C,R9*%
X120167381Y-82916438D02*
X120641897Y-82916438D01*
X120167381Y-83961438D02*
X120641897Y-83961438D01*
%TO.C,C_ACS1*%
X105640580Y-60490000D02*
X105359420Y-60490000D01*
X105640580Y-61510000D02*
X105359420Y-61510000D01*
%TO.C,C_VCC_B1*%
X119359420Y-65879236D02*
X119640580Y-65879236D01*
X119359420Y-66899236D02*
X119640580Y-66899236D01*
%TO.C,C_ACS2*%
X105640580Y-62490000D02*
X105359420Y-62490000D01*
X105640580Y-63510000D02*
X105359420Y-63510000D01*
%TO.C,R8*%
X120641897Y-87462343D02*
X120167381Y-87462343D01*
X120641897Y-88507343D02*
X120167381Y-88507343D01*
%TO.C,R10*%
X119262742Y-64320324D02*
X119737258Y-64320324D01*
X119262742Y-65365324D02*
X119737258Y-65365324D01*
%TO.C,C_VCC_B2*%
X120264059Y-84444240D02*
X120545219Y-84444240D01*
X120264059Y-85464240D02*
X120545219Y-85464240D01*
%TO.C,C3*%
X96140580Y-98490000D02*
X95859420Y-98490000D01*
X96140580Y-99510000D02*
X95859420Y-99510000D01*
%TO.C,C_VCC_A2*%
X110261252Y-62650732D02*
X109738748Y-62650732D01*
X110261252Y-64120732D02*
X109738748Y-64120732D01*
%TO.C,F1*%
X133290000Y-66886252D02*
X133290000Y-64113748D01*
X136710000Y-66886252D02*
X136710000Y-64113748D01*
%TO.C,C_ISO_F1*%
X110490000Y-83949420D02*
X110490000Y-84230580D01*
X111510000Y-83949420D02*
X111510000Y-84230580D01*
%TO.C,C_VCC_A1*%
X110261252Y-60582866D02*
X109738748Y-60582866D01*
X110261252Y-62052866D02*
X109738748Y-62052866D01*
%TD*%
%LPC*%
D12*
%TO.C,H2*%
X80585542Y-52596945D03*
%TD*%
D13*
%TO.C,J3*%
X131203352Y-88468518D03*
X139403352Y-88468518D03*
X131203352Y-84968518D03*
X139403352Y-84968518D03*
X131203352Y-81468518D03*
X139403352Y-81468518D03*
X131203352Y-77968518D03*
X139403352Y-77968518D03*
X131203352Y-74468518D03*
X139403352Y-74468518D03*
X131203352Y-70968518D03*
X139403352Y-70968518D03*
X131203352Y-67468518D03*
X139403352Y-67468518D03*
X131203352Y-63968518D03*
X139403352Y-63968518D03*
%TD*%
D14*
%TO.C,J1*%
X131696898Y-97000000D03*
D15*
X137696898Y-97000000D03*
D16*
X134696898Y-92300000D03*
%TD*%
D17*
%TO.C,J2*%
X83308888Y-91879931D03*
X83308888Y-97659931D03*
D18*
X79658888Y-90449931D03*
X79658888Y-99089931D03*
D19*
X83808888Y-90449931D03*
X83808888Y-99089931D03*
%TD*%
D12*
%TO.C,H1*%
X138532331Y-52596945D03*
%TD*%
%TO.C,H3*%
X138532331Y-105433466D03*
%TD*%
D20*
%TO.C,U1*%
X113770000Y-103030000D03*
X113770000Y-92870000D03*
X111230000Y-103030000D03*
X101070000Y-103030000D03*
X95990000Y-103030000D03*
X106150000Y-103030000D03*
X98530000Y-103030000D03*
X103610000Y-103030000D03*
X98530000Y-92870000D03*
X95990000Y-92870000D03*
%TD*%
D12*
%TO.C,H4*%
X80585542Y-105433466D03*
%TD*%
D21*
%TO.C,C_VM_A2*%
X119454639Y-89750144D03*
X121354639Y-89750144D03*
%TD*%
D22*
%TO.C,C_VM_B1*%
X120275000Y-69482060D03*
X118725000Y-69482060D03*
%TD*%
D23*
%TO.C,C_ISO_D1*%
X111000000Y-75203750D03*
X111000000Y-76753750D03*
%TD*%
D22*
%TO.C,C7*%
X89275000Y-60000000D03*
X87725000Y-60000000D03*
%TD*%
D24*
%TO.C,F2*%
X135000000Y-74637500D03*
X135000000Y-70362500D03*
%TD*%
D25*
%TO.C,C_TMP1*%
X104725000Y-54000000D03*
X106275000Y-54000000D03*
%TD*%
D26*
%TO.C,C_ISO_E1*%
X109500000Y-84865000D03*
X109500000Y-83315000D03*
%TD*%
D24*
%TO.C,F4*%
X135000000Y-88637500D03*
X135000000Y-84362500D03*
%TD*%
D27*
%TO.C,C9*%
X111875345Y-53000000D03*
X109975345Y-53000000D03*
%TD*%
%TO.C,C4*%
X91450000Y-77500000D03*
X89550000Y-77500000D03*
%TD*%
D21*
%TO.C,C1*%
X117283198Y-103000000D03*
X119183198Y-103000000D03*
%TD*%
D25*
%TO.C,C_FILT1*%
X109225000Y-59500000D03*
X110775000Y-59500000D03*
%TD*%
D22*
%TO.C,C6*%
X91275000Y-83500000D03*
X89725000Y-83500000D03*
%TD*%
D28*
%TO.C,R6*%
X120325000Y-67935648D03*
X118675000Y-67935648D03*
%TD*%
%TO.C,R5*%
X91325000Y-79500000D03*
X89675000Y-79500000D03*
%TD*%
D27*
%TO.C,C_VM_A1*%
X120450000Y-61500000D03*
X118550000Y-61500000D03*
%TD*%
D23*
%TO.C,C_ISO_B1*%
X111000000Y-67225000D03*
X111000000Y-68775000D03*
%TD*%
D29*
%TO.C,D6*%
X126000000Y-85150000D03*
X126000000Y-80850000D03*
%TD*%
D30*
%TO.C,D4*%
X126000000Y-62350000D03*
X126000000Y-66650000D03*
%TD*%
D25*
%TO.C,C_VM_B2*%
X119629639Y-86469541D03*
X121179639Y-86469541D03*
%TD*%
D26*
%TO.C,C_ISO_C1*%
X109500000Y-76753750D03*
X109500000Y-75203750D03*
%TD*%
D31*
%TO.C,R7*%
X118675000Y-63296412D03*
X120325000Y-63296412D03*
%TD*%
D27*
%TO.C,C8*%
X89450000Y-58000000D03*
X87550000Y-58000000D03*
%TD*%
D21*
%TO.C,C10*%
X109975345Y-55000000D03*
X111875345Y-55000000D03*
%TD*%
D29*
%TO.C,D7*%
X126000000Y-94650000D03*
X126000000Y-90350000D03*
%TD*%
D26*
%TO.C,C_ISO_A1*%
X109500000Y-68775000D03*
X109500000Y-67225000D03*
%TD*%
D27*
%TO.C,C5*%
X91450000Y-81500000D03*
X89550000Y-81500000D03*
%TD*%
D31*
%TO.C,R_BOOT1*%
X103511782Y-77409507D03*
X105161782Y-77409507D03*
%TD*%
D29*
%TO.C,D5*%
X126000000Y-75150000D03*
X126000000Y-70850000D03*
%TD*%
D32*
%TO.C,F3*%
X135000000Y-77362500D03*
X135000000Y-81637500D03*
%TD*%
D33*
%TO.C,R_LED1*%
X79571542Y-68562966D03*
X79571542Y-66912966D03*
%TD*%
D31*
%TO.C,R9*%
X119579639Y-83438938D03*
X121229639Y-83438938D03*
%TD*%
D22*
%TO.C,C_ACS1*%
X106275000Y-61000000D03*
X104725000Y-61000000D03*
%TD*%
D25*
%TO.C,C_VCC_B1*%
X118725000Y-66389236D03*
X120275000Y-66389236D03*
%TD*%
D22*
%TO.C,C_ACS2*%
X106275000Y-63000000D03*
X104725000Y-63000000D03*
%TD*%
D28*
%TO.C,R8*%
X121229639Y-87984843D03*
X119579639Y-87984843D03*
%TD*%
D31*
%TO.C,R10*%
X118675000Y-64842824D03*
X120325000Y-64842824D03*
%TD*%
D25*
%TO.C,C_VCC_B2*%
X119629639Y-84954240D03*
X121179639Y-84954240D03*
%TD*%
D22*
%TO.C,C3*%
X96775000Y-99000000D03*
X95225000Y-99000000D03*
%TD*%
D27*
%TO.C,C_VCC_A2*%
X110950000Y-63385732D03*
X109050000Y-63385732D03*
%TD*%
D24*
%TO.C,F1*%
X135000000Y-67637500D03*
X135000000Y-63362500D03*
%TD*%
D23*
%TO.C,C_ISO_F1*%
X111000000Y-83315000D03*
X111000000Y-84865000D03*
%TD*%
D27*
%TO.C,C_VCC_A1*%
X110950000Y-61317866D03*
X109050000Y-61317866D03*
%TD*%
%LPD*%
M02*
