%TF.GenerationSoftware,KiCad,Pcbnew,9.0.8-9.0.8~ubuntu24.04.1*%
%TF.CreationDate,2026-04-28T13:52:03-07:00*%
%TF.ProjectId,barn-blinds-controller,6261726e-2d62-46c6-996e-64732d636f6e,rev?*%
%TF.SameCoordinates,Original*%
%TF.FileFunction,Paste,Bot*%
%TF.FilePolarity,Positive*%
%FSLAX46Y46*%
G04 Gerber Fmt 4.6, Leading zero omitted, Abs format (unit mm)*
G04 Created by KiCad (PCBNEW 9.0.8-9.0.8~ubuntu24.04.1) date 2026-04-28 13:52:03*
%MOMM*%
%LPD*%
G01*
G04 APERTURE LIST*
G04 Aperture macros list*
%AMRoundRect*
0 Rectangle with rounded corners*
0 $1 Rounding radius*
0 $2 $3 $4 $5 $6 $7 $8 $9 X,Y pos of 4 corners*
0 Add a 4 corners polygon primitive as box body*
4,1,4,$2,$3,$4,$5,$6,$7,$8,$9,$2,$3,0*
0 Add four circle primitives for the rounded corners*
1,1,$1+$1,$2,$3*
1,1,$1+$1,$4,$5*
1,1,$1+$1,$6,$7*
1,1,$1+$1,$8,$9*
0 Add four rect primitives between the rounded corners*
20,1,$1+$1,$2,$3,$4,$5,0*
20,1,$1+$1,$4,$5,$6,$7,0*
20,1,$1+$1,$6,$7,$8,$9,0*
20,1,$1+$1,$8,$9,$2,$3,0*%
G04 Aperture macros list end*
%ADD10RoundRect,0.250000X-0.250000X-0.475000X0.250000X-0.475000X0.250000X0.475000X-0.250000X0.475000X0*%
%ADD11RoundRect,0.225000X0.225000X0.250000X-0.225000X0.250000X-0.225000X-0.250000X0.225000X-0.250000X0*%
%ADD12RoundRect,0.225000X-0.250000X0.225000X-0.250000X-0.225000X0.250000X-0.225000X0.250000X0.225000X0*%
%ADD13RoundRect,0.250000X1.450000X-0.312500X1.450000X0.312500X-1.450000X0.312500X-1.450000X-0.312500X0*%
%ADD14RoundRect,0.225000X-0.225000X-0.250000X0.225000X-0.250000X0.225000X0.250000X-0.225000X0.250000X0*%
%ADD15RoundRect,0.225000X0.250000X-0.225000X0.250000X0.225000X-0.250000X0.225000X-0.250000X-0.225000X0*%
%ADD16RoundRect,0.250000X0.250000X0.475000X-0.250000X0.475000X-0.250000X-0.475000X0.250000X-0.475000X0*%
%ADD17RoundRect,0.200000X0.200000X0.275000X-0.200000X0.275000X-0.200000X-0.275000X0.200000X-0.275000X0*%
%ADD18RoundRect,0.250000X0.900000X-1.000000X0.900000X1.000000X-0.900000X1.000000X-0.900000X-1.000000X0*%
%ADD19RoundRect,0.250000X-0.900000X1.000000X-0.900000X-1.000000X0.900000X-1.000000X0.900000X1.000000X0*%
%ADD20RoundRect,0.200000X-0.200000X-0.275000X0.200000X-0.275000X0.200000X0.275000X-0.200000X0.275000X0*%
%ADD21RoundRect,0.250000X-1.450000X0.312500X-1.450000X-0.312500X1.450000X-0.312500X1.450000X0.312500X0*%
%ADD22RoundRect,0.200000X0.275000X-0.200000X0.275000X0.200000X-0.275000X0.200000X-0.275000X-0.200000X0*%
G04 APERTURE END LIST*
D10*
%TO.C,C_VM_A2*%
X119454639Y-89750144D03*
X121354639Y-89750144D03*
%TD*%
D11*
%TO.C,C_VM_B1*%
X120275000Y-69482060D03*
X118725000Y-69482060D03*
%TD*%
D12*
%TO.C,C_ISO_D1*%
X111000000Y-75203750D03*
X111000000Y-76753750D03*
%TD*%
D11*
%TO.C,C7*%
X89275000Y-60000000D03*
X87725000Y-60000000D03*
%TD*%
D13*
%TO.C,F2*%
X135000000Y-74637500D03*
X135000000Y-70362500D03*
%TD*%
D14*
%TO.C,C_TMP1*%
X104725000Y-54000000D03*
X106275000Y-54000000D03*
%TD*%
D15*
%TO.C,C_ISO_E1*%
X109500000Y-84865000D03*
X109500000Y-83315000D03*
%TD*%
D13*
%TO.C,F4*%
X135000000Y-88637500D03*
X135000000Y-84362500D03*
%TD*%
D16*
%TO.C,C9*%
X111875345Y-53000000D03*
X109975345Y-53000000D03*
%TD*%
%TO.C,C4*%
X91450000Y-77500000D03*
X89550000Y-77500000D03*
%TD*%
D10*
%TO.C,C1*%
X117283198Y-103000000D03*
X119183198Y-103000000D03*
%TD*%
D14*
%TO.C,C_FILT1*%
X109225000Y-59500000D03*
X110775000Y-59500000D03*
%TD*%
D11*
%TO.C,C6*%
X91275000Y-83500000D03*
X89725000Y-83500000D03*
%TD*%
D17*
%TO.C,R6*%
X120325000Y-67935648D03*
X118675000Y-67935648D03*
%TD*%
%TO.C,R5*%
X91325000Y-79500000D03*
X89675000Y-79500000D03*
%TD*%
D16*
%TO.C,C_VM_A1*%
X120450000Y-61500000D03*
X118550000Y-61500000D03*
%TD*%
D12*
%TO.C,C_ISO_B1*%
X111000000Y-67225000D03*
X111000000Y-68775000D03*
%TD*%
D18*
%TO.C,D6*%
X126000000Y-85150000D03*
X126000000Y-80850000D03*
%TD*%
D19*
%TO.C,D4*%
X126000000Y-62350000D03*
X126000000Y-66650000D03*
%TD*%
D14*
%TO.C,C_VM_B2*%
X119629639Y-86469541D03*
X121179639Y-86469541D03*
%TD*%
D15*
%TO.C,C_ISO_C1*%
X109500000Y-76753750D03*
X109500000Y-75203750D03*
%TD*%
D20*
%TO.C,R7*%
X118675000Y-63296412D03*
X120325000Y-63296412D03*
%TD*%
D16*
%TO.C,C8*%
X89450000Y-58000000D03*
X87550000Y-58000000D03*
%TD*%
D10*
%TO.C,C10*%
X109975345Y-55000000D03*
X111875345Y-55000000D03*
%TD*%
D18*
%TO.C,D7*%
X126000000Y-94650000D03*
X126000000Y-90350000D03*
%TD*%
D15*
%TO.C,C_ISO_A1*%
X109500000Y-68775000D03*
X109500000Y-67225000D03*
%TD*%
D16*
%TO.C,C5*%
X91450000Y-81500000D03*
X89550000Y-81500000D03*
%TD*%
D20*
%TO.C,R_BOOT1*%
X103511782Y-77409507D03*
X105161782Y-77409507D03*
%TD*%
D18*
%TO.C,D5*%
X126000000Y-75150000D03*
X126000000Y-70850000D03*
%TD*%
D21*
%TO.C,F3*%
X135000000Y-77362500D03*
X135000000Y-81637500D03*
%TD*%
D22*
%TO.C,R_LED1*%
X79571542Y-68562966D03*
X79571542Y-66912966D03*
%TD*%
D20*
%TO.C,R9*%
X119579639Y-83438938D03*
X121229639Y-83438938D03*
%TD*%
D11*
%TO.C,C_ACS1*%
X106275000Y-61000000D03*
X104725000Y-61000000D03*
%TD*%
D14*
%TO.C,C_VCC_B1*%
X118725000Y-66389236D03*
X120275000Y-66389236D03*
%TD*%
D11*
%TO.C,C_ACS2*%
X106275000Y-63000000D03*
X104725000Y-63000000D03*
%TD*%
D17*
%TO.C,R8*%
X121229639Y-87984843D03*
X119579639Y-87984843D03*
%TD*%
D20*
%TO.C,R10*%
X118675000Y-64842824D03*
X120325000Y-64842824D03*
%TD*%
D14*
%TO.C,C_VCC_B2*%
X119629639Y-84954240D03*
X121179639Y-84954240D03*
%TD*%
D11*
%TO.C,C3*%
X96775000Y-99000000D03*
X95225000Y-99000000D03*
%TD*%
D16*
%TO.C,C_VCC_A2*%
X110950000Y-63385732D03*
X109050000Y-63385732D03*
%TD*%
D13*
%TO.C,F1*%
X135000000Y-67637500D03*
X135000000Y-63362500D03*
%TD*%
D12*
%TO.C,C_ISO_F1*%
X111000000Y-83315000D03*
X111000000Y-84865000D03*
%TD*%
D16*
%TO.C,C_VCC_A1*%
X110950000Y-61317866D03*
X109050000Y-61317866D03*
%TD*%
M02*
